<?xml version="1.0"?>
<svg xmlns="http://www.w3.org/2000/svg" id="Layer_1" data-name="Layer 1" viewBox="0 0 512 512" width="512" height="512"><title>Antenna</title><path d="M193.854,212.463a8,8,0,0,0,5.656-13.656,81.841,81.841,0,0,1,0-115.755A8,8,0,1,0,188.2,71.739a97.837,97.837,0,0,0,0,138.381A7.974,7.974,0,0,0,193.854,212.463Z"/><path d="M315.668,210.12a8,8,0,0,0,11.314,0,97.84,97.84,0,0,0,0-138.381,8,8,0,0,0-11.314,11.313,81.841,81.841,0,0,1,0,115.755A8,8,0,0,0,315.668,210.12Z"/><path d="M149.481,257.24a8,8,0,0,0,5.657-13.657,144.9,144.9,0,0,1,0-204.9,8,8,0,0,0-11.314-11.313,160.9,160.9,0,0,0,0,227.53A7.975,7.975,0,0,0,149.481,257.24Z"/><path d="M360.041,254.9a8,8,0,0,0,11.314,0c62.73-62.73,62.73-164.8,0-227.53a8,8,0,1,0-11.314,11.313c56.492,56.492,56.492,148.412,0,204.9A8,8,0,0,0,360.041,254.9Z"/><path d="M59,487H452a8,8,0,0,0,0-16H386.458L284.409,171.231a40.34,40.34,0,1,0-53.64,0L128.72,471H59a8,8,0,0,0,0,16Zm302.352-40.1-92.416-94,44.9-45.579ZM257.589,116.791a24.341,24.341,0,1,1-24.34,24.34A24.368,24.368,0,0,1,257.589,116.791Zm0,64.681a40.156,40.156,0,0,0,12.7-2.061l37.777,110.967L257.717,341.49,207.2,290.109l37.684-110.7A40.156,40.156,0,0,0,257.589,181.472ZM201.431,307.061l45.056,45.828L153.8,446.976ZM257.706,364.3,362.609,471H152.593Z"/></svg>
