<svg height="469pt" viewBox="0 -5 469 468" width="469pt" xmlns="http://www.w3.org/2000/svg"><path d="m234.414062 277.1875c-3.976562 0-7.199218-3.222656-7.199218-7.199219 0-4.417969-3.582032-8-8-8-4.417969 0-8 3.582031-8 8 .007812 8.769531 4.953125 16.78125 12.785156 20.722657v3.789062c0 4.417969 3.582031 8 8 8s8-3.582031 8-8v-2c11.367188-2.832031 18.84375-13.695312 17.421875-25.324219-1.421875-11.632812-11.292969-20.375-23.007813-20.386719-3.976562 0-7.199218-3.226562-7.199218-7.199218 0-3.976563 3.222656-7.203125 7.199218-7.203125 3.976563 0 7.199219 3.226562 7.199219 7.203125 0 4.417968 3.582031 8 8 8s8-3.582032 8-8c-.015625-10.65625-7.277343-19.929688-17.613281-22.507813v-2.582031c0-4.417969-3.582031-8-8-8s-8 3.582031-8 8v4.378906c-9.605469 4.820313-14.640625 15.613282-12.160156 26.074219 2.480468 10.460937 11.824218 17.84375 22.574218 17.839844 3.976563 0 7.199219 3.222656 7.199219 7.199219 0 3.976562-3.222656 7.199218-7.199219 7.199218zm0 0"/><path d="m234.414062 330.191406c41.804688 0 75.691407-33.886718 75.691407-75.691406 0-41.800781-33.886719-75.691406-75.691407-75.691406-41.800781 0-75.691406 33.886718-75.691406 75.691406.046875 41.78125 33.910156 75.644531 75.691406 75.691406zm0-135.382812c32.964844 0 59.691407 26.722656 59.691407 59.691406 0 32.964844-26.722657 59.691406-59.691407 59.691406-32.964843 0-59.691406-26.726562-59.691406-59.691406.039063-32.949219 26.742188-59.652344 59.691406-59.691406zm0 0"/><path d="m461.5 276.5h-86.5v-117c-.175781-4.488281-3.882812-8.027344-8.375-8h-28.625v-19c0-4.417969-3.082031-8-7.5-8h-11.351562c-2.859376-31.59375-23.144532-58.941406-52.546876-70.847656-2.050781-12.539063-11.304687-22.691406-23.601562-25.890625v-19.261719c0-4.417969-3.582031-8-8-8s-8 3.582031-8 8v19.253906c-12.308594 3.183594-21.566406 13.347656-23.59375 25.898438-29.410156 11.902344-49.695312 39.25-52.554688 70.847656h-11.351562c-4.417969 0-8.5 3.582031-8.5 8v19h-27.375c-2.082031.015625-4.070312.875-5.507812 2.382812-1.4375 1.507813-2.203126 3.535157-2.117188 5.617188v117h-87.5c-4.417969 0-8.5 3.582031-8.5 8v166c0 4.417969 4.082031 8 8.5 8h95 .0625.0625 357.875c4.417969 0 7.5-3.582031 7.5-8v-166c0-4.417969-3.082031-8-7.5-8zm-139.5-125h-14v-11h14zm-128-11v11h-16v-11zm16 0h17v11h-17zm33 0h16v11h-16zm32 0h17v11h-17zm-51.410156-93.09375c2.945312-3.082031 7.011718-4.851562 11.277344-4.90625h.132812c4.707031.046875 9.15625 2.15625 12.175781 5.765625-8.082031-1.113281-16.277343-1.105469-24.355469.03125.25-.289063.496094-.613281.769532-.890625zm11.410156 16.09375c34.910156.046875 64.21875 26.304688 68.082031 61h-136.164062c3.863281-34.695312 33.171875-60.953125 68.082031-61zm-88 77h15v11h-15zm-52 302h-79v-150h79zm17-275h247v115.632812c0 .445313-1 .902344-1 1.367188v158h-19v-77.785156c0-16.292969-13.207031-29.5-29.5-29.5s-29.5 13.207031-29.5 29.5v77.785156h-16v-77.785156c0-16.019532-12.984375-29-29-29s-29 12.980468-29 29v77.785156h-16v-77.785156c0-16.292969-13.207031-29.5-29.5-29.5s-29.5 13.207031-29.5 29.5v77.785156h-19zm211 275h-27v-77.785156c0-7.457032 6.042969-13.5 13.5-13.5s13.5 6.042968 13.5 13.5zm-75 0h-26v-77.785156c0-7.179688 5.820312-13 13-13s13 5.820312 13 13zm-74 0h-27v-77.785156c0-7.457032 6.042969-13.5 13.5-13.5s13.5 6.042968 13.5 13.5zm279 0h-78v-150h78zm0 0"/></svg>