<?xml version="1.0"?>
<svg xmlns="http://www.w3.org/2000/svg" id="Layer_1" data-name="Layer 1" viewBox="0 0 512 512" width="512" height="512"><title>Atm Card</title><path d="M488.925,42H23.075C18.657,42,15,46.032,15,50.45V278.2a7.9,7.9,0,0,0,8.075,7.8H129V437.667C129,455.247,143.588,470,161.168,470H350.832C368.412,470,383,455.247,383,437.667V286H488.925A7.9,7.9,0,0,0,497,278.2V50.45C497,46.032,493.343,42,488.925,42ZM129,195H83V133h46Zm37,259h-4.832A16.537,16.537,0,0,1,145,437.667V133h21Zm46,0H182V133h30Zm155-16.333A16.537,16.537,0,0,1,350.832,454H228V133H367ZM481,270H383V211h54.164A7.5,7.5,0,0,0,445,203.433V125.216A8.049,8.049,0,0,0,437.164,117H74.836A8.049,8.049,0,0,0,67,125.216v78.217A7.5,7.5,0,0,0,74.836,211H129v59H31V58H481Zm-98-75V133h46v62Z"/><path d="M299.957,322.153c-17.351,0-31.466,13.484-31.466,30.059a29.063,29.063,0,0,0,6.662,18.463,29.06,29.06,0,0,0-6.662,18.463c0,16.574,14.115,30.059,31.466,30.059s31.467-13.485,31.467-30.059a29.06,29.06,0,0,0-6.662-18.463,29.063,29.063,0,0,0,6.662-18.463C331.424,335.637,317.308,322.153,299.957,322.153Zm0,81.044c-8.528,0-15.466-6.307-15.466-14.059a13.262,13.262,0,0,1,3.666-9.068,32.734,32.734,0,0,0,23.6,0,13.262,13.262,0,0,1,3.666,9.068C315.424,396.89,308.485,403.2,299.957,403.2Zm11.8-41.917a32.727,32.727,0,0,0-23.6,0,13.259,13.259,0,0,1-3.666-9.067c0-7.753,6.938-14.059,15.466-14.059s15.467,6.306,15.467,14.059A13.264,13.264,0,0,1,311.758,361.28Z"/><path d="M275,234h51a8,8,0,0,0,8-8V162a8,8,0,0,0-8-8H275a8,8,0,0,0-8,8v64A8,8,0,0,0,275,234Zm8-64h34v49H283Z"/></svg>
