<?xml version="1.0"?>
<svg xmlns="http://www.w3.org/2000/svg" id="Layer_1" data-name="Layer 1" viewBox="0 0 512 512" width="512" height="512"><title>Branding</title><path d="M453.643,324H351V103.3a7.791,7.791,0,0,0-2-5.543L281.767,27.567A7.854,7.854,0,0,0,276.115,25H58.357A8.5,8.5,0,0,0,50,33.221V418.872A8.422,8.422,0,0,0,58.357,427H220v51.779A8.6,8.6,0,0,0,228.462,487H453.643A8.5,8.5,0,0,0,462,478.779V332.459A8.715,8.715,0,0,0,453.643,324ZM341.052,426.464,248.513,340H433.578ZM236,351.1l58.12,54.3L236,460.119Zm70.3,65.361,29.3,27.316a8.019,8.019,0,0,0,10.924-.042l30.479-28.379L434.073,471H248.481ZM389.055,404.3,446,351.084V459.712ZM284,53.091,324.68,95H284ZM66,411V41H268v62.3a7.849,7.849,0,0,0,8.115,7.7H335V324H228.462A8.809,8.809,0,0,0,220,332.459V411Z"/><path d="M222.966,321.932l1.457-15.028a83.227,83.227,0,0,0,17.315-7.239l11.564,9.6a8,8,0,0,0,10.759-.5l19.705-19.7a8,8,0,0,0,.5-10.757l-9.608-11.6a84.747,84.747,0,0,0,7.308-17.283l14.84-1.45A7.971,7.971,0,0,0,304,240.015V212.078a7.97,7.97,0,0,0-7.2-7.963l-15.093-1.456a83.442,83.442,0,0,0-7.272-17.316l9.58-11.563a8,8,0,0,0-.466-10.723L264.1,143.351a8,8,0,0,0-10.8-.541l-11.6,9.608a84.8,84.8,0,0,0-17.277-7.306l-1.457-15A7.9,7.9,0,0,0,215,123H187.067a7.9,7.9,0,0,0-7.963,7.114l-1.457,15.052a83.308,83.308,0,0,0-17.315,7.25l-11.564-9.591a8,8,0,0,0-10.759.5l-19.7,19.7a8,8,0,0,0-.5,10.758l9.608,11.6a84.819,84.819,0,0,0-7.306,17.276l-14.992,1.457A7.893,7.893,0,0,0,98,212.078v27.937a7.893,7.893,0,0,0,7.109,7.963l15.048,1.456a83.313,83.313,0,0,0,7.249,17.316l-9.591,11.563a8,8,0,0,0,.5,10.759l19.7,19.7a8,8,0,0,0,10.757.5l11.6-9.608a84.715,84.715,0,0,0,17.276,7.306l1.457,14.952A7.858,7.858,0,0,0,187.067,329H215A7.858,7.858,0,0,0,222.966,321.932Zm-13.93-22.238L207.737,313h-13.4l-1.3-13.306a7.906,7.906,0,0,0-6.273-6.969,68.846,68.846,0,0,1-22.8-9.587,8,8,0,0,0-9.439.581L144.173,292.3l-9.405-9.4,8.574-10.352a8,8,0,0,0,.495-9.539,66.7,66.7,0,0,1-9.563-22.695,7.857,7.857,0,0,0-6.928-6.271L114,232.749v-13.4l13.346-1.3a7.929,7.929,0,0,0,6.99-6.272,68.849,68.849,0,0,1,9.6-22.795,8,8,0,0,0-.576-9.44l-8.583-10.354,9.4-9.405,10.353,8.575a8,8,0,0,0,9.539.494,66.7,66.7,0,0,1,22.695-9.562,7.867,7.867,0,0,0,6.272-6.934l1.3-13.352h13.4l1.3,13.352a7.933,7.933,0,0,0,6.272,6.993,68.878,68.878,0,0,1,22.8,9.6,8,8,0,0,0,9.439-.576l10.319-8.552,9.221,9.336-8.6,10.388a8,8,0,0,0-.5,9.539,66.7,66.7,0,0,1,9.562,22.694,7.962,7.962,0,0,0,7.018,6.273l13.436,1.3v13.413l-13.2,1.29a7.981,7.981,0,0,0-7.025,6.272,68.934,68.934,0,0,1-9.62,22.8,8,8,0,0,0,.565,9.44l8.576,10.354-9.4,9.405-10.353-8.575a8,8,0,0,0-9.54-.494,66.563,66.563,0,0,1-22.695,9.48A7.906,7.906,0,0,0,209.036,299.694Z"/><path d="M263.426,226.046a62.391,62.391,0,1,0-62.391,62.392A62.462,62.462,0,0,0,263.426,226.046Zm-62.391,46.392a46.392,46.392,0,1,1,46.391-46.392A46.445,46.445,0,0,1,201.035,272.438Z"/></svg>
