<svg height="479pt" viewBox="0 -3 479.84139 479" width="479pt" xmlns="http://www.w3.org/2000/svg"><path d="m69.453125 472.421875h362.679687c16.949219-.019531 30.683594-13.753906 30.707032-30.703125v-103.296875h8.839844c2.105468.070313 4.15625-.707031 5.6875-2.152344 1.535156-1.449219 2.425781-3.449219 2.472656-5.558593v-43.007813c0-16.929687-13.933594-30.28125-30.863282-30.28125h-22.085937c3.171875-6 4.949219-11.648437 4.949219-18.152344v-.050781c-.128906-18.554688-15.144532-33.5625-33.699219-33.679688-12.960937 0-24.792969 5.121094-34.898437 14.960938l-9.589844-83.199219c-.480469-3.996093-3.921875-6.972656-7.945313-6.878906h-51.867187v-36.035156c0-51.8125-44.519532-93.964844-99-93.964844-54.476563 0-99 42.152344-99 93.964844v36.035156h-57.332032c-4.027343-.09375-7.464843 2.882813-7.949218 6.878906l-30.132813 261.839844c-2.121093 18.207031 3.753907 36.445313 16.097657 50 13.523437 14.941406 32.777343 23.410156 52.929687 23.28125zm192.449219-16c-8.105469 0-15.0625-6.601563-15.0625-14.703125v-103.296875h64v118zm64.9375 0v-118h41v118zm120-14.703125c-.011719 8.117188-6.59375 14.691406-14.707032 14.703125h-48.292968v-118h63zm17-154.011719v34.714844h-234v-34.71875c0-8.105469 6.800781-14.28125 14.914062-14.28125h204.222656c8.105469 0 14.863282 6.175781 14.863282 14.28125zm-185.699219-48.199219c.109375-9.734374 7.996094-17.582031 17.730469-17.648437 21.691406 0 34.226562 21.566406 39.839844 35.566406h-40.152344c-9.761719-.003906-17.410156-7.992187-17.417969-17.921875zm119.988281-17.960937c9.808594.191406 17.6875 8.148437 17.777344 17.960937-.019531 9.925782-7.664062 17.914063-17.429688 17.914063h-40.167968c1.933594-4.746094 4.25-9.324219 6.933594-13.6875 9.160156-14.585937 20.238281-22.191406 32.878906-22.191406zm-286.289062-127.160156c0-42.992188 37.34375-77.964844 83-77.964844s83 34.972656 83 77.964844v36.035156h-166zm-95.519532 306.683593 29.320313-254.648437h50.199219v30.699219c0 4.417968 3.582031 8 8 8 4.417968 0 8-3.582032 8-8v-30.699219h166v30.699219c0 4.417968 3.582031 8 8 8 4.417968 0 8-3.582032 8-8v-30.699219h44.734375l10.707031 92.851563c-.808594 1.433593-1.5625 2.753906-2.265625 4.140624-1.355469-2.6875-2.910156-5.539062-4.671875-8.347656-12.109375-19.28125-28.328125-29.5-46.671875-29.5-18.464844.109375-33.832031 15.195313-33.832031 33.652344v.050781c0 6.5 2.132812 12.148438 5.300781 18.148438h-22.386719c-16.929687.003906-30.914062 13.355469-30.914062 30.285156v43.007813c.0625 2.113281.960937 4.117187 2.503906 5.5625 1.539062 1.445312 3.59375 2.21875 5.707031 2.148437h8.789063v103.296875c.117187 5.167969 1.535156 10.226562 4.117187 14.703125h-165.503906c-15.585937.152344-30.5-6.355469-40.992187-17.882813-9.28125-10.140624-13.710938-23.8125-12.140626-37.46875zm0 0"/></svg>