<?xml version="1.0"?>
<svg xmlns="http://www.w3.org/2000/svg" id="Layer_1" data-name="Layer 1" viewBox="0 0 512 512" width="512" height="512"><title>Barrier</title><path d="M479.165,143H421V118.459a38.949,38.949,0,1,0-16-.666V143H104V118.422a38.952,38.952,0,1,0-16-.582V143H32.835A7.565,7.565,0,0,0,25,150.646v88.359a7.857,7.857,0,0,0,7.835,8H54V462.937A7.971,7.971,0,0,0,61.9,471h52.867A8.255,8.255,0,0,0,123,462.937V247H389V462.937A8.254,8.254,0,0,0,397.231,471H450.1a7.971,7.971,0,0,0,7.9-8.063V247h21.165a7.857,7.857,0,0,0,7.835-8V150.646A7.565,7.565,0,0,0,479.165,143ZM391.636,80.028A22.965,22.965,0,1,1,414.6,102.993,22.991,22.991,0,0,1,391.636,80.028Zm-317.2,0A22.965,22.965,0,1,1,97.4,102.993,22.991,22.991,0,0,1,74.434,80.028ZM41,231V159H78v72H41Zm66,224H70V247h37Zm28-224H94V159h41Zm56,0H151V159h40Zm57,0H207V159h41Zm57,0H264V159h41Zm56,0H321V159h40Zm16,0V159h41v72H377Zm65,224H405V247h37Zm29-224H434V159h37Z"/></svg>
