<?xml version="1.0"?>
<svg xmlns="http://www.w3.org/2000/svg" id="Layer_1" data-name="Layer 1" viewBox="0 0 512 512" width="512" height="512"><title>Analysis</title><path d="M497.394,125H432.117A6.192,6.192,0,0,0,426,131.1V135H291.243a78.758,78.758,0,0,0,4.5-26.543,82.117,82.117,0,0,0-164.234.08A79.844,79.844,0,0,0,139.128,143H109.093A6.214,6.214,0,0,0,103,149.154V158H14.606C11.292,158,9,161.148,9,164.462v57.91A5.367,5.367,0,0,0,14.606,228H103v9.68a6.361,6.361,0,0,0,6.093,6.32H177v1.415c0,3.314,2.7,5.585,6.01,5.585h36.316a50.655,50.655,0,0,0-2.7,16.366,50.045,50.045,0,0,0,15.252,35.991L104.628,430.663a6.048,6.048,0,0,0,0,8.524l29.252,29.259a5.989,5.989,0,0,0,4.243,1.76,6.085,6.085,0,0,0,4.288-1.755L240,370.908V479.45c0,3.314,2.6,5.55,5.909,5.55h41.369A5.4,5.4,0,0,0,293,479.45V370.909l97.683,97.543A6.138,6.138,0,0,0,395,470.209a6.058,6.058,0,0,0,4.277-1.757l29.27-29.252a5.995,5.995,0,0,0,.013-8.485L301.3,303.461A50.526,50.526,0,0,0,313.861,251H426v4.729A6.338,6.338,0,0,0,432.117,262h65.277c3.314,0,5.606-2.958,5.606-6.271V131.1C503,127.792,500.708,125,497.394,125ZM213.625,38.55a70.117,70.117,0,1,1-70.117,70.117A70.2,70.2,0,0,1,213.625,38.55ZM21,216V170h82v46Zm94,16V155h30.983C153.852,167,165,175.892,177,182.137V232Zm23.168,223.724-20.744-20.766L240,312.4v41.534ZM252,473V315.333a50.37,50.37,0,0,0,14.5,2.2,45.546,45.546,0,0,0,14.5-2.2V473Zm142.925-17.276L293,353.938V312.4L415.623,434.958ZM266.594,305.538a37.965,37.965,0,1,1,37.964-37.964A38.007,38.007,0,0,1,266.594,305.538ZM307.841,239a49.913,49.913,0,0,0-82.494,0H189V187.01a82.82,82.82,0,0,0,24.62,3.564A81.972,81.972,0,0,0,286,147H426v92ZM491,250H438V137h53Z"/><path d="M266.594,244.076a23.5,23.5,0,1,0,23.5,23.5A23.524,23.524,0,0,0,266.594,244.076Zm0,35a11.5,11.5,0,1,1,11.5-11.5A11.511,11.511,0,0,1,266.594,279.072Z"/><path d="M213.625,144.611A13.729,13.729,0,0,1,199.912,130.9a6,6,0,0,0-12,0A25.753,25.753,0,0,0,208,155.984V163a6,6,0,0,0,12,0v-7.19a25.713,25.713,0,0,0-6.375-50.623,13.706,13.706,0,0,1-1.073-27.37,5.9,5.9,0,0,0,2.7.051,13.725,13.725,0,0,1,12.087,13.606,6,6,0,0,0,12,0A25.757,25.757,0,0,0,220,66.563V61a6,6,0,0,0-12,0v5.389a25.71,25.71,0,0,0,5.625,50.8,13.712,13.712,0,0,1,0,27.424Z"/></svg>
