<svg height="467pt" viewBox="0 -39 467.25567 467" width="467pt" xmlns="http://www.w3.org/2000/svg"><path d="m449.566406 148.390625c-10.277344-13.574219-24.136718-24.015625-40.019531-30.148437v-27.113282h23.03125c3.3125 0 5.96875-2.203125 5.96875-5.515625v-31.625c0-1.574219-.628906-3.082031-1.753906-4.183593-1.121094-1.101563-2.640625-1.703126-4.214844-1.675782h-23.03125v-8.347656c2.820313-.570312 4.882813-2.992188 5-5.863281v-27.960938c-.140625-3.328125-2.929687-5.925781-6.261719-5.828125h-61.082031c-1.535156-.023437-3.015625.589844-4.085937 1.691406-1.074219 1.105469-1.640626 2.601563-1.570313 4.136719v27.960938c-.140625 2.609375 1.503906 4.980469 4 5.761719v8.449218h-89v-19.175781c.070313-1.535156-.5-3.03125-1.574219-4.136719-1.074218-1.101562-2.554687-1.710937-4.09375-1.6875h-32.148437c-3.316407-.09375-6.082031 2.511719-6.183594 5.824219v19.175781h-93v-8.257812c2.960937-.382813 5.132813-2.972656 5-5.953125v-27.960938c.0625-1.539062-.515625-3.039062-1.59375-4.140625-1.078125-1.101562-2.5625-1.710937-4.105469-1.6875h-61.082031c-3.320313-.0937498-6.097656 2.507813-6.21875 5.828125v27.960938c.089844 2.492187 1.667969 4.6875 4 5.570312v8.640625h-18.515625c-3.3125 0-6.484375 2.546875-6.484375 5.859375v31.625c0 3.3125 3.171875 5.515625 6.484375 5.515625h18.515625v27.152344c-33.398437 13.164062-55.546875 45.808594-55.546875 82.578125.0078125 23.601563 9.59375 46.191406 26.5625 62.597656 16.816406 16.597657 39.496094 25.894531 63.121094 25.871094 23.398437.082031 45.84375-9.269531 62.261718-25.941406 16.484376-16.625 25.683594-39.117188 25.585938-62.527344 0-37.03125-23.121094-69.714844-57.988281-82.660156v-27.070313h93v254h-62.152344c-1.585937.027344-3.09375.679688-4.1875 1.820313-1.097656 1.144531-1.695313 2.675781-1.65625 4.257812v31.097657c-.027344 1.558593.578125 3.058593 1.679687 4.15625 1.105469 1.101562 2.605469 1.703124 4.164063 1.667968h168.125c1.578125.042969 3.101563-.554687 4.238281-1.648437 1.132813-1.097657 1.777344-2.601563 1.792969-4.179688v-31.097656c-.011719-3.332031-2.699219-6.039063-6.03125-6.074219h-61.96875v-254h89v27.113282c-33.53125 12.894531-55.757813 45.546874-55.757813 82.617187 0 23.578125 9.539063 46.15625 26.453126 62.585937 16.765624 16.605469 39.421874 25.90625 63.019531 25.875 23.417969.082032 45.882812-9.261718 62.335937-25.925781 16.515625-16.613281 25.75-39.109375 25.65625-62.535156.003906-18.953125-6.207031-37.386719-17.6875-52.46875zm-23.019531-88.261719v19h-17v-19zm-73-48h49v16h-49zm-290 0h49v16h-49zm-21 67v-19h13v19zm100.875 175.816406c-14.171875 14.386719-33.542969 22.453126-53.738281 22.375-20.484375.015626-40.144532-8.046874-54.71875-22.4375-14.660156-14.15625-22.945313-33.648437-22.964844-54.023437 0-.246094.011719-.484375.015625-.730469h153.503906c0 .246094.015625.484375.015625.730469.089844 20.246094-7.863281 39.703125-22.113281 54.085937zm21.03125-66.816406h-151.410156c4.410156-27.78125 23.808593-50.851562 50.421875-59.96875 2.441406-.820312 4.082031-3.109375 4.082031-5.683594v-82.347656h40v82.347656c0 2.613282 1.691406 4.925782 4.183594 5.71875 27.429687 8.503907 47.785156 31.648438 52.722656 59.933594zm-44.90625-109v-19h93v19zm193 297h-156v-19h156zm-88-31v-310h20v310zm32-266v-19h89v19zm96.867187 49.050782c2.464844-.808594 4.132813-3.105469 4.132813-5.699219v-82.351563h40v82.347656c0 2.59375 1.667969 4.894532 4.132813 5.699219 15.253906 5.054688 28.609374 14.621094 38.300781 27.433594 7.253906 9.554687 12.113281 20.703125 14.175781 32.519531h-151.335938c4.527344-27.882812 23.714844-51.15625 50.59375-59.949218zm79.664063 126.761718c-14.207031 14.386719-33.601563 22.449219-53.816406 22.378906-20.449219.023438-40.078125-8.039062-54.605469-22.429687-14.609375-14.183594-22.859375-33.671875-22.867188-54.03125 0-.246094.011719-.484375.015626-.730469h153.433593c0 .246094.015625.484375.015625.730469.085938 20.257813-7.894531 39.714844-22.175781 54.082031zm0 0"/></svg>