<svg height="470pt" viewBox="0 -128 470 470" width="470pt" xmlns="http://www.w3.org/2000/svg"><path d="m159 36c0-4.417969-3.582031-8-8-8h-42c-4.417969 0-8 3.582031-8 8v141c0 4.417969 3.582031 8 8 8h42c4.417969 0 8-3.582031 8-8zm-42 8h26v126h-26zm0 0"/><path d="m229 36c0-4.417969-3.582031-8-8-8h-42c-4.417969 0-8 3.582031-8 8v141c0 4.417969 3.582031 8 8 8h42c4.417969 0 8-3.582031 8-8zm-42 8h27v126h-27zm0 0"/><path d="m300 36c0-4.417969-3.582031-8-8-8h-42c-4.417969 0-8 3.582031-8 8v141c0 4.417969 3.582031 8 8 8h42c4.417969 0 8-3.582031 8-8zm-42 8h26v126h-26zm0 0"/><path d="m371 36c0-4.417969-3.582031-8-8-8h-42c-4.417969 0-8 3.582031-8 8v141c0 4.417969 3.582031 8 8 8h42c4.417969 0 8-3.582031 8-8zm-42 8h26v126h-26zm0 0"/><path d="m441 36c0-4.417969-3.582031-8-8-8h-42c-4.417969 0-8 3.582031-8 8v141c0 4.417969 3.582031 8 8 8h42c4.417969 0 8-3.582031 8-8zm-42 8h27v126h-27zm0 0"/><path d="m461.816406 0h-409.40625c-4.53125.0507812-8.230468 3.648438-8.410156 8.179688v46.820312h-35.816406c-4.488282.070312-8.1132815 3.691406-8.183594 8.179688v87.640624c.0703125 4.488282 3.695312 8.109376 8.183594 8.179688h35.816406v46.820312c.179688 4.53125 3.878906 8.128907 8.410156 8.179688h409.40625c4.488282-.070312 8.113282-3.691406 8.183594-8.179688v-197.640624c-.070312-4.488282-3.695312-8.1093755-8.183594-8.179688zm-445.816406 143v-72h28v72zm438 55h-394v-182h394zm0 0"/></svg>