<svg id="Layer_1" height="512" viewBox="0 0 512 512" width="512" xmlns="http://www.w3.org/2000/svg" data-name="Layer 1"><path d="m251 179.735a6 6 0 0 0 -12 0v97.445a5.763 5.763 0 0 0 5.9 5.82h75.244a6 6 0 1 0 0-12h-69.144z"/><path d="m101.607 264.847c0 85.132 69.26 154.393 154.393 154.393s154.393-69.261 154.393-154.393-69.26-154.393-154.393-154.393-154.393 69.26-154.393 154.393zm296.786 0c0 78.515-63.877 142.393-142.393 142.393s-142.393-63.878-142.393-142.393 63.877-142.393 142.393-142.393 142.393 63.877 142.393 142.393z"/><path d="m72.907 208.27a191.47 191.47 0 0 0 44.286 188.545l-45.067 45.134a24.466 24.466 0 0 0 34.682 34.512l48.553-48.62a191.219 191.219 0 0 0 201.278 0l48.5 48.565c.156.161.314.319.478.479a24.466 24.466 0 0 0 34.2-35l-45.008-45.074a191.47 191.47 0 0 0 44.284-188.541 74.643 74.643 0 1 0 -93.668-112.853 191.277 191.277 0 0 0 -178.85 0 74.64 74.64 0 1 0 -93.668 112.853zm25.469 259.653a12.466 12.466 0 0 1 -17.7-17.554l45.061-45.127a193.021 193.021 0 0 0 19.422 15.833zm333.24.132a12.479 12.479 0 0 1 -17.625.236l-47.15-47.216a193.021 193.021 0 0 0 19.422-15.833l45.12 45.185a12.48 12.48 0 0 1 .233 17.628zm-28.645-387.755a62.644 62.644 0 0 1 32.129 116.423 192.709 192.709 0 0 0 -79.063-95.25 62.824 62.824 0 0 1 46.934-21.173zm-58.54 28.25 4.05 2.894.264-.37a180.634 180.634 0 0 1 75.562 91.035l-.476.221 2.418 5.218a178.919 178.919 0 0 1 9.371 57.3c0 99.043-80.577 179.62-179.62 179.62s-179.62-80.578-179.62-179.621a178.9 178.9 0 0 1 9.509-57.708l2.239-4.822-.437-.2a180.633 180.633 0 0 1 75.564-91.039l.264.37 4.045-2.891a179.294 179.294 0 0 1 176.867 0zm-235.402-28.25a62.824 62.824 0 0 1 46.938 21.172 192.7 192.7 0 0 0 -79.062 95.249 62.643 62.643 0 0 1 32.124-116.421z"/><path d="m297 34a6 6 0 0 0 -6-6h-69a6 6 0 0 0 -6 6v31a6 6 0 0 0 6 6h69a6 6 0 0 0 6-6zm-69 6h56v19h-56z"/></svg>