<svg height="505pt" viewBox="0 -21 505.02 505" width="505pt" xmlns="http://www.w3.org/2000/svg"><path d="m415.03125 250.175781c2.34375 2.34375 6.144531 2.34375 8.488281 0l10.480469-10.480469 10.480469 10.480469c2.34375 2.34375 6.144531 2.34375 8.488281 0s2.34375-6.140625 0-8.484375l-10.484375-10.484375 10.484375-10.480469c2.34375-2.34375 2.34375-6.144531 0-8.488281s-6.144531-2.34375-8.488281 0l-10.480469 10.484375-10.480469-10.484375c-2.34375-2.34375-6.144531-2.34375-8.488281 0s-2.34375 6.144531 0 8.488281l10.484375 10.480469-10.484375 10.484375c-2.34375 2.34375-2.34375 6.140625 0 8.484375zm0 0"/><path d="m422.0625 89.886719c2.242188 2.429687 6.023438 2.589843 8.460938.355469l31.902343-29.222657c1.59375-1.441406 2.296875-3.632812 1.835938-5.734375-.460938-2.101562-2.015625-3.796875-4.070313-4.4375-2.054687-.644531-4.292968-.136718-5.871094 1.324219l-27.496093 25.183594-12.789063-13.875c-2.246094-2.433594-6.042968-2.589844-8.476562-.339844-2.4375 2.246094-2.589844 6.042969-.34375 8.476563zm0 0"/><path d="m422.0625 409.886719c2.242188 2.429687 6.023438 2.589843 8.460938.355469l31.902343-29.222657c1.59375-1.441406 2.296875-3.632812 1.835938-5.734375-.460938-2.101562-2.015625-3.796875-4.070313-4.4375-2.054687-.644531-4.292968-.136718-5.871094 1.324219l-27.496093 25.183594-12.792969-13.875c-2.246094-2.433594-6.042969-2.589844-8.476562-.339844-2.4375 2.246094-2.589844 6.042969-.34375 8.476563zm0 0"/><path d="m363.144531 75.207031c2.238281 37 33.15625 66.84375 70.855469 66.84375 39.222656 0 71.019531-31.796875 71.019531-71.019531s-31.796875-71.0195312-71.019531-71.0195312c-36.554688 0-66.734375 28.1992192-70.578125 63.1992192h-26.621094c-3.433593.121093-6.1875 2.882812-6.300781 6.316406v155.679687h-40.054688l20.816407-20.824219c2.34375-2.34375 2.34375-6.140624 0-8.488281-2.339844-2.34375-6.140625-2.34375-8.488281 0l-30 30c-2.339844 2.339844-2.339844 6.140625 0 8.484375l30 30c2.363281 2.214844 6.058593 2.160156 8.351562-.128906 2.289062-2.292969 2.351562-5.988281.136719-8.351562l-18.699219-18.691407h37.9375v155.648438c.113281 3.441406 2.859375 6.214843 6.300781 6.351562h26.621094c3.824219 35 34.015625 63.175781 70.582031 63.175781 39.199219 0 70.976563-31.777343 70.976563-70.976562 0-39.203125-31.777344-70.980469-70.976563-70.980469-37.691406 0-68.601562 29.78125-70.855468 66.78125h-20.648438v-150h20.769531c3.050781 36 33.601563 65.007813 70.730469 65.007813 39.210938 0 71-31.785156 71-71 0-39.210938-31.789062-71-71-71-37.121094 0-67.660156 28.992187-70.726562 64.992187h-20.773438v-150zm70.855469-63c32.585938 0 59 26.417969 59 59 0 32.585938-26.414062 59-59 59s-59-26.414062-59-59c.035156-32.570312 26.429688-58.960937 59-59zm0 320c32.585938 0 59 26.417969 59 59 0 32.585938-26.414062 59-59 59s-59-26.414062-59-59c.035156-32.570312 26.429688-58.960937 59-59zm0-160c32.585938 0 59 26.417969 59 59 0 32.585938-26.414062 59-59 59s-59-26.414062-59-59c.035156-32.570312 26.429688-58.960937 59-59zm0 0"/><path d="m132.390625 98.820312c-73 0-132.390625 59.386719-132.390625 132.386719s59.390625 132.390625 132.390625 132.390625c72.996094 0 132.386719-59.390625 132.386719-132.390625s-59.390625-132.386719-132.386719-132.386719zm-75.085937 226.488282c1.773437-16.554688 15.746093-29.109375 32.394531-29.101563h14.058593c2.484376 13 14.3125 23.695313 28.484376 23.695313 14.171874 0 26.003906-10.695313 28.492187-23.695313h14.335937c16.652344-.011719 30.632813 12.542969 32.402344 29.101563-43.886718 35.140625-106.277344 35.140625-150.164062 0zm46.875-66.347656c-7.5625-7.523438-11.773438-17.78125-11.679688-28.445313v-3.875c26.503906-5.222656 49.582031-21.375 63.5625-44.488281 1.871094.65625 3.648438 1.554687 5.285156 2.671875 7.175782 4.839843 11.390625 13.003906 11.175782 21.65625l-.023438 4.542969v18.914062c0 22.257812-17.929688 40.5-39.863281 40.660156h-.261719c-10.574219.03125-20.722656-4.15625-28.195312-11.632812zm80.320312-47.851563-.019531-4.457031c.28125-12.734375-5.949219-24.730469-16.53125-31.824219-4.253907-2.875-9.109375-4.746094-14.191407-5.472656-2.476562-.34375-4.902343.875-6.101562 3.066406-20.847656 38.15625-57.449219 42.5625-60.46875 42.863281-3.792969.171875-6.761719 3.335938-6.6875 7.136719v8.09375c-.054688 3.589844.257812 7.175781.933594 10.703125-5.757813-10.582031-9.03125-22.335938-9.578125-34.371094-.46875-10.058594 1.613281-20.074218 6.042969-29.117187 7.550781-15.152344 21.835937-26.722657 39.222656-31.746094 10.324218-2.984375 20.527344-2.140625 29.519531 2.4375 8.640625 4.496094 15.402344 11.914063 19.085937 20.925781l.242188.738282c.984375 2.949218 4.054688 4.65625 7.078125 3.9375 1.699219-.398438 10.449219-1.707032 16.054687 12.1875 5.535157 13.710937 5.222657 29.289062-.878906 43.859374-1.359375 3.289063-2.933594 6.484376-4.714844 9.570313.628907-3.199219.960938-6.445313.992188-9.703125zm-69 78.953125v-10.285156c5.414062 1.902344 11.117188 2.859375 16.855469 2.820312h.484375c5.675781-.023437 11.308594-1.003906 16.660156-2.894531v11.09375c0 9.390625-7.609375 17-17 17s-17-7.609375-17-17zm102.300781 25.964844c-5.644531-18.882813-23.019531-31.824219-42.730469-31.820313h-13.570312v-1.863281c4.398438-3.511719 8.582031-7.285156 12.53125-11.296875 11.617188-11.601563 20.089844-23.832031 25.332031-36.339844 7.332031-17.5 7.628907-36.085937.902344-52.75-5.082031-12.601562-14.5-19.746093-24.816406-19.746093h-.027344c-4.832031-10.480469-13.058594-19.023438-23.347656-24.246094-11.871094-5.960938-25.570313-7.175782-38.304688-3.390625-20.597656 5.953125-37.605469 19.71875-46.652343 37.863281-5.3125 10.851562-7.800782 22.867188-7.226563 34.933594 1.261719 30.527344 17.609375 58.894531 43.609375 73.402344v3.433593h-13.800781c-19.710938-.003906-37.085938 12.9375-42.726563 31.824219-46.78125-47.097656-46.613281-123.175781.378906-170.0625 46.992188-46.886719 123.070313-46.886719 170.066407 0 46.992187 46.886719 47.160156 122.964844.378906 170.0625zm0 0"/></svg>