<svg height="480pt" viewBox="0 0 480.04623 480" width="480pt" xmlns="http://www.w3.org/2000/svg"><path d="m401.738281 404.367188c-20.8125 0-37.683593 16.875-37.679687 37.683593 0 20.8125 16.871094 37.683594 37.683594 37.683594s37.679687-16.871094 37.679687-37.683594c-.023437-20.800781-16.882813-37.660156-37.683594-37.683593zm0 59.367187c-11.972656 0-21.683593-9.710937-21.679687-21.683594 0-11.976562 9.707031-21.683593 21.683594-21.683593 11.972656 0 21.679687 9.707031 21.679687 21.683593-.011719 11.96875-9.714844 21.667969-21.683594 21.683594zm0 0"/><path d="m472.046875 134.023438h-45.859375c-.933594-8.53125-3.707031-16.757813-8.132812-24.109376-.125-.214843-.257813-.480468-.398438-.679687l-55.054688-76.789063c-1.488281-2.113281-3.90625-3.386718-6.492187-3.421874-2.582031.023437-4.996094 1.28125-6.492187 3.382812l-24.242188 33.707031-44.851562-62.625c-1.488282-2.125-3.902344-3.4140622-6.496094-3.4648435-2.59375.0546875-5.003906 1.3476565-6.492188 3.4726565l-44.957031 62.535156-24.136719-33.652344c-1.5-2.097656-3.914062-3.347656-6.496094-3.355468-2.578124.023437-4.996093 1.28125-6.492187 3.382812l-55.046875 76.523438c-.148438.207031-.289062.554687-.417969.777343-4.433593 7.425781-7.210937 15.71875-8.144531 24.316407h-34.300781l-6.050781-32.167969c-.683594-3.839844-3.957032-6.6875-7.855469-6.832031h-65.636719c-4.417969 0-8 3.582031-8 8 0 4.417968 3.582031 8 8 8h59.011719l44.824219 236.210937c4.449218 23.441406 25 40.789063 48.859374 40.789063h289.550782c4.417968 0 8-3.582032 8-8 0-4.417969-3.582032-8-8-8h-289.550782c-16.257812-.152344-30.136718-11.777344-33.144531-27.753907l-5.875-31.246093h294.359375c3.386719.078124 6.441406-2.027344 7.570313-5.222657l56.007812-163.519531c.839844-2.390625.441407-5.039062-1.058593-7.074219-1.519532-2.0625-3.949219-3.25-6.507813-3.183593zm-115.953125-83.175782 48.335938 67.34375c8.582031 14.886719 8.386718 32.332032-.546876 47.921875-9.792968 17.179688-28.007812 27.820313-47.777343 27.917969-.875 0-1.75-.027344-2.621094-.070312.453125-.738282.902344-1.480469 1.332031-2.230469 15.351563-26.796875 15.5-58.175781.398438-83.945313-.125-.214844-.257813-.421875-.398438-.621094l-19.601562-27.308593zm-82.078125-28.824218 43.867187 61.125c.464844 1.101562 1.167969 2.082031 2.066407 2.875l21.648437 30.164062c12.164063 21 11.925782 45.617188-.664062 67.585938-12.308594 21.875-34.539063 36.34375-59.523438 38.734374-24.984375 2.394532-49.558594-7.59375-65.792968-26.734374-.457032-.804688-1.054688-1.523438-1.757813-2.125-2.46875-3.089844-4.699219-6.363282-6.671875-9.789063-12.667969-22.042969-12.929688-46.789063-.734375-67.960937l22.5-31.265626.007813-.011718zm-130.394531 95.957031 48.3125-67.132813 20.78125 28.957032-19.480469 27.070312c-.148437.207031-.289063.421875-.417969.644531-15.121094 25.9375-14.933594 57.457031.5 84.3125.414063.71875.839844 1.425781 1.273438 2.128907-.878906.042968-1.761719.070312-2.644532.070312-19.738281-.101562-37.929687-10.714844-47.726562-27.855469-8.992188-15.640625-9.203125-33.1875-.597656-48.195312zm266.703125 179.042969h-291.6875l-28.050781-147h31.382812c1.242188 8.535156 4.082031 16.761718 8.375 24.246093 12.660156 22.082031 36.140625 35.738281 61.597656 35.824219 4.613282-.011719 9.21875-.476562 13.742188-1.386719 17.527344 19.21875 42.339844 30.167969 68.351562 30.167969 26.011719-.003906 50.820313-10.960938 68.347656-30.183594 4.519532.894532 9.117188 1.347656 13.722657 1.34375 25.484375-.058594 49-13.726562 61.660156-35.84375 4.273437-7.457031 7.097656-15.660156 8.324219-24.167968h34.761718zm0 0"/><path d="m173.199219 404.367188c-20.8125 0-37.683594 16.871093-37.683594 37.683593s16.871094 37.683594 37.683594 37.683594 37.683593-16.871094 37.683593-37.683594c-.023437-20.800781-16.882812-37.660156-37.683593-37.683593zm0 59.367187c-11.976563 0-21.683594-9.710937-21.683594-21.683594 0-11.976562 9.707031-21.683593 21.683594-21.683593 11.976562 0 21.683593 9.707031 21.683593 21.683593-.015624 11.96875-9.714843 21.667969-21.683593 21.683594zm0 0"/><path d="m274.023438 157.542969c6.683593 0 12.097656 5.417969 12.097656 12.097656 0 6.683594-5.414063 12.101563-12.097656 12.101563-6.683594 0-12.101563-5.417969-12.101563-12.101563 0-4.417969-3.582031-8-8-8s-8 3.582031-8 8c.015625 12.046875 7.695313 22.746094 19.101563 26.617187v6.765626c0 4.417968 3.582031 8 8 8 4.417968 0 8-3.582032 8-8v-6.164063c13.71875-3.515625 22.675781-16.695313 20.894531-30.746094-1.777344-14.050781-13.734375-24.582031-27.894531-24.570312-6.683594 0-12.101563-5.417969-12.101563-12.101563s5.417969-12.097656 12.101563-12.097656c6.683593 0 12.097656 5.414062 12.097656 12.097656 0 4.417969 3.582031 8 8 8 4.421875 0 8-3.582031 8-8-.015625-12.433594-8.183594-23.382812-20.097656-26.933594v-4.484374c0-4.417969-3.582032-8-8-8-4.417969 0-8 3.582031-8 8v4.484374c-13.378907 3.972657-21.8125 17.164063-19.804688 30.976563s13.847656 24.054687 27.804688 24.058594zm0 0"/></svg>