<svg height="510pt" viewBox="0 -152 510.25803 510" width="510pt" xmlns="http://www.w3.org/2000/svg"><path d="m503.550781 107-194.265625-7.945312c-2.320312-3.195313-4.917968-6.175782-7.757812-8.914063l28.796875-6.828125c3.246093-.769531 5.496093-3.722656 5.378906-7.058594-.117187-3.332031-2.570313-6.121094-5.859375-6.660156l-56.476562-9.25-11.382813-54.640625c-.675781-3.246094-3.535156-5.574219-6.851563-5.574219-3.316406 0-6.179687 2.328125-6.855468 5.574219l-11.378906 54.617187-56.605469 9.273438c-3.292969.539062-5.746094 3.328125-5.863281 6.660156-.117188 3.332032 2.132812 6.289063 5.378906 7.058594l28.898437 6.851562c-2.832031 2.730469-5.417969 5.707032-7.730469 8.890626l-194.265624 7.945312c-3.433594.140625-6.253907 2.75-6.6601568 6.164062-.4101562 3.410157 1.7187498 6.613282 5.0195308 7.558594l103.617188 29.664063c-4.386719 17.246093 5.726562 34.855469 22.832031 39.753906 17.105469 4.894531 35.007813-4.691406 40.410157-21.644531l28.421874 8.136718c12.5 17.894532 32.949219 28.554688 54.777344 28.554688 21.824219 0 42.277344-10.660156 54.773438-28.554688l28.421875-8.136718c5.40625 16.953125 23.304687 26.539062 40.414062 21.640625 17.105469-4.894531 27.21875-22.503907 22.832031-39.75l103.617188-29.664063c3.300781-.945312 5.429688-4.148437 5.019531-7.558594-.40625-3.414062-3.226562-6.023437-6.660156-6.164062zm-216.902343-27.71875c-2.984376-1.601562-6.089844-2.972656-9.285157-4.101562l15.707031 2.574218zm-31.519532-37.832031 6.300782 30.226562c-2.074219-.191406-4.171876-.304687-6.300782-.304687-2.125 0-4.222656.113281-6.300781.304687zm-38.066406 36.308593 15.957031-2.613281c-3.25 1.140625-6.410156 2.53125-9.445312 4.160157zm38.066406 7.613282c29.207032.035156 52.875 23.703125 52.910156 52.910156 0 1.515625-.078124 3.011719-.207031 4.5-.132812-.558594-.335937-1.09375-.597656-1.601562l-14.257813-27.171876c-4.265624-8.183593-12.722656-13.328124-21.953124-13.347656h-31.785157c-9.230469.019532-17.6875 5.160156-21.957031 13.34375l-14.25 27.128906c-.265625.511719-.46875 1.058594-.601562 1.621094-.125-1.484375-.199219-2.96875-.199219-4.484375.03125-29.203125 23.699219-52.867187 52.898437-52.898437zm-34.3125 52.289062 8.855469-17.023437c1.839844-3.605469 5.519531-5.902344 9.566406-5.976563h8.890625v23zm41.3125-23h8.894532c4.046874.074219 7.722656 2.371094 9.566406 5.976563l8.851562 17.023437h-27.3125zm-121.554687 62.765625c-10.441407 0-18.90625-8.464843-18.90625-18.90625 0-10.441406 8.464843-18.90625 18.90625-18.90625 10.441406 0 18.90625 8.464844 18.90625 18.90625-.011719 10.4375-8.46875 18.894531-18.90625 18.90625zm32.628906-23.128906c-1.679687-13.023437-10.941406-23.800781-23.566406-27.414063-12.621094-3.613281-26.183594.628907-34.5 10.789063l-64.476563-18.457031 142.382813-5.824219c-5.9375 14.753906-6.402344 31.140625-1.3125 46.207031zm81.925781 36.890625c-25.535156-.035156-47.410156-18.277344-52.03125-43.390625.042969.082031.082032.285156.132813.367187 1.253906 2.128907 3.523437 3.449219 5.992187 3.496094h91.816406c2.46875-.046875 4.738282-1.367187 5.992188-3.496094.050781-.082031.085938-.226562.132812-.3125-4.628906 25.101563-26.507812 43.324219-52.035156 43.335938zm114.554688-13.761719c-10.441406 0-18.90625-8.464843-18.90625-18.90625 0-10.441406 8.464844-18.90625 18.90625-18.90625s18.90625 8.464844 18.90625 18.90625c-.011719 10.4375-8.46875 18.894531-18.90625 18.90625zm25.4375-39.753906c-8.3125-10.160156-21.875-14.402344-34.5-10.789063-12.621094 3.613282-21.886719 14.390626-23.5625 27.414063l-18.523438 5.300781c5.085938-15.070312 4.621094-31.457031-1.316406-46.210937l142.378906 5.824219zm0 0"/></svg>