<?xml version="1.0" encoding="iso-8859-1"?>
<!-- Generator: Adobe Illustrator 19.0.0, SVG Export Plug-In . SVG Version: 6.00 Build 0)  -->
<svg version="1.1" id="Capa_1" xmlns="http://www.w3.org/2000/svg" xmlns:xlink="http://www.w3.org/1999/xlink" x="0px" y="0px"
	 viewBox="0 0 512 512" style="enable-background:new 0 0 512 512;" xml:space="preserve">
<g>
	<g>
		<path d="M506.597,180.051C440.566,114.013,351.682,78.143,255.803,79.224C160.711,80.239,71.778,117.357,5.403,183.739
			c-7.204,7.198-7.204,18.876,0,26.073c3.596,3.602,8.316,5.403,13.037,5.403s9.441-1.801,13.037-5.391
			c59.522-59.522,139.328-92.805,224.721-93.715c85.676-0.99,165.358,31.052,224.327,90.021c7.204,7.198,18.87,7.198,26.073,0
			C513.801,198.927,513.801,187.248,506.597,180.051z"/>
	</g>
</g>
<g>
	<g>
		<path d="M421.819,290.736c-42.939-43.259-100.316-67.138-161.566-67.255c-0.147,0-0.295,0-0.443,0
			c-63.653,0-123.87,25.17-169.593,70.893c-7.198,7.198-7.198,18.87,0,26.073c3.602,3.602,8.322,5.403,13.043,5.403
			c4.714,0,9.435-1.801,13.024-5.409c38.766-38.753,89.72-60.082,143.526-60.082c0.123,0,0.246,0,0.375,0
			c51.366,0.092,99.48,20.111,135.462,56.351c7.161,7.228,18.845,7.277,26.073,0.098
			C428.949,309.637,428.992,297.965,421.819,290.736z"/>
	</g>
</g>
<g>
	<g>
		<path d="M341.264,397.629c-45.828-45.822-122.044-44.168-169.907,3.694c-7.204,7.204-7.204,18.876,0,26.073
			c3.596,3.602,8.316,5.403,13.037,5.403c4.721,0,9.441-1.801,13.043-5.403c32.908-32.914,86.831-34.604,117.754-3.694
			c7.204,7.204,18.882,7.204,26.073,0C348.467,416.499,348.467,404.827,341.264,397.629z"/>
	</g>
</g>
<g>
</g>
<g>
</g>
<g>
</g>
<g>
</g>
<g>
</g>
<g>
</g>
<g>
</g>
<g>
</g>
<g>
</g>
<g>
</g>
<g>
</g>
<g>
</g>
<g>
</g>
<g>
</g>
<g>
</g>
</svg>
