<svg height="470pt" viewBox="-128 0 470 470" width="470pt" xmlns="http://www.w3.org/2000/svg"><path d="m185 391c0-4.417969-3.582031-8-8-8h-141c-4.417969 0-8 3.582031-8 8v42c0 4.417969 3.582031 8 8 8h141c4.417969 0 8-3.582031 8-8zm-15 35h-126v-27h126zm0 0"/><path d="m8.179688 470h197.640624c4.492188-.070312 8.109376-3.695312 8.179688-8.183594v-409.40625c-.050781-4.53125-3.648438-8.230468-8.179688-8.410156h-46.820312v-35.816406c-.070312-4.488282-3.6875-8.1132815-8.179688-8.183594h-87.640624c-4.492188.0703125-8.109376 3.695312-8.179688 8.183594v35.816406h-46.820312c-4.53125.179688-8.1289068 3.878906-8.179688 8.410156v409.40625c.0703125 4.488282 3.6875 8.113282 8.179688 8.183594zm62.820312-454h72v28h-72zm-55 44h182v394h-182zm0 0"/><path d="m59.285156 253h23.269532l-3.640626 62.4375c-.117187 2.207031.667969 4.367188 2.171876 5.988281 1.507812 1.617188 3.605468 2.558594 5.816406 2.601563 2.785156.007812 5.371094-1.4375 6.828125-3.8125l69.808593-114.246094c1.507813-2.433594 1.566407-5.496094.152344-7.984375-1.429687-2.5-4.101562-4.023437-6.976562-3.984375h-26.738282l15.199219-36.914062c1.019531-2.472657.742188-5.292969-.742187-7.515626-1.488282-2.226562-3.980469-3.5625-6.65625-3.570312h-69.96875c-4.125-.015625-7.582032 3.117188-7.964844 7.222656l-8.523438 91.378906c-.207031 2.1875.539063 4.359376 2.050782 5.957032 1.535156 1.617187 3.6875 2.503906 5.914062 2.441406zm15.816406-91h50.722657l-15.203125 36.785156c-1.015625 2.496094-.738282 5.332032.746094 7.582032 1.476562 2.242187 3.96875 3.601562 6.652343 3.632812h24.429688l-45.691407 74.691406 2.265626-38.851562c.128906-2.253906-.652344-4.46875-2.167969-6.140625-1.492188-1.65625-3.59375-2.628907-5.820313-2.703125h-22.96875zm0 0"/></svg>