<svg height="495pt" viewBox="-25 0 495 495.704" width="495pt" xmlns="http://www.w3.org/2000/svg"><path d="m256.351562 299.105469c41.691407-.175781 80.117188-22.59375 100.789063-58.800781 19.121094-33.367188 19.316406-72.433594.523437-104.5-.121093-.210938-.257812-.417969-.398437-.617188l-94.414063-131.703125c-1.484374-2.132813-3.898437-3.4257812-6.496093-3.484375-2.59375.0585938-5.007813 1.347656-6.492188 3.476562l-94.421875 131.261719c-.148437.210938-.289062.460938-.417968.683594-18.816407 32.285156-18.578126 71.546875.640624 105 20.796876 36.183594 59.375 58.683594 100.6875 58.683594zm-87.691406-155.265625 87.679688-121.832032 87.699218 122.199219c15.910157 27.394531 15.632813 59.5-.785156 88.144531-17.671875 31.339844-50.847656 50.734376-86.828125 50.757813-35.976562.023437-69.179687-19.328125-86.894531-50.644531-16.503906-28.734375-16.820312-61.011719-.871094-88.625zm0 0"/><path d="m209.761719 204h26v26c0 4.417969 3.582031 8 8 8h26c4.417969 0 8-3.582031 8-8v-26h26c4.417969 0 8-3.582031 8-8v-27c0-4.417969-3.582031-8-8-8h-26v-26c0-4.417969-3.582031-8-8-8h-26c-4.417969 0-8 3.582031-8 8v26h-26c-4.417969 0-8 3.582031-8 8v27c0 4.417969 3.582031 8 8 8zm8-27h26c4.417969 0 8-3.582031 8-8v-26h10v26c0 4.417969 3.582031 8 8 8h26v11h-26c-4.417969 0-8 3.582031-8 8v26h-10v-26c0-4.417969-3.582031-8-8-8h-26zm0 0"/><path d="m385.679688 293.394531-58.273438 43.574219c-12.117188-14.746094-31.226562-21.835938-50.027344-18.570312l-59.566406 10.421874c-9.492188 1.648438-19.230469 1.140626-28.5-1.484374l-6.660156-1.902344c-34.230469-9.832032-71.109375-2.175782-98.601563 20.46875l-2.507812-14.34375c-.761719-4.351563-4.90625-7.261719-9.257813-6.5l-65.3125 11.429687c-4.351562.761719-7.261718 4.90625-6.5 9.257813l25.070313 143.335937c.667969 3.824219 3.988281 6.617188 7.871093 6.621094.464844 0 .929688-.039063 1.386719-.121094l65.316407-11.425781c4.351562-.761719 7.261718-4.90625 6.5-9.257812l-1.277344-7.292969 15.238281-12.371094c5.96875-4.96875 13.636719-7.417969 21.378906-6.839844l106.515625 7.785157c.175782.011718.355469.019531.53125.019531h.652344c23.507812-.046875 46.390625-7.539063 65.375-21.398438.304688-.226562.59375-.472656.863281-.734375l126.875-124.226562c3.027344-2.960938 3.21875-7.765625.445313-10.960938-14.636719-16.898437-39.96875-19.3125-57.535156-5.484375zm-345.753907 185.046875-22.316406-127.570312 49.550781-8.671875 22.316406 127.574219zm265.191407-56.316406c-16.15625 11.617188-35.554688 17.871094-55.457032 17.875h-.296875l-106.242187-7.664062c-11.847656-.875-23.566406 2.878906-32.695313 10.476562l-8.242187 6.71875-14.875-85c23.71875-23.917969 58.585937-33.003906 90.960937-23.703125l6.660157 1.898437c11.589843 3.285157 23.765624 3.917969 35.632812 1.859376l59.566406-10.417969c17.066406-2.960938 33.90625 6.304687 40.535156 22.308593l-89.171874 15.601563c-4.089844.710937-6.957032 4.429687-6.601563 8.566406s3.820313 7.316407 7.972656 7.316407c.464844-.003907.929688-.042969 1.386719-.121094l97.917969-17.140625c4.351562-.761719 7.261719-4.90625 6.5-9.257813-.636719-3.644531-1.65625-7.214844-3.039063-10.648437l59.707032-44.648438c.058593-.042969.113281-.085937.167968-.128906 8.613282-6.835937 20.605469-7.488281 29.90625-1.625zm0 0"/></svg>