<?xml version="1.0"?>
<svg xmlns="http://www.w3.org/2000/svg" id="Layer_1" data-name="Layer 1" viewBox="0 0 512 512" width="512" height="512"><title>Announce</title><path d="M433.667,186.964A69.036,69.036,0,1,0,502.7,256,69.115,69.115,0,0,0,433.667,186.964Zm0,126.072A57.036,57.036,0,1,1,490.7,256,57.1,57.1,0,0,1,433.667,313.036Z"/><path d="M433.667,231.438a10.335,10.335,0,0,1,10.324,10.324,6,6,0,0,0,12,0A22.361,22.361,0,0,0,439,220.086V216a6,6,0,0,0-12,0v4.455a22.326,22.326,0,0,0,6.667,43.632,10.325,10.325,0,1,1-10.324,10.324,6,6,0,0,0-12,0A22.363,22.363,0,0,0,427,295.718V300a6,6,0,0,0,12,0v-3.913a22.323,22.323,0,0,0-5.333-44,10.325,10.325,0,0,1,0-20.649Z"/><path d="M391.824,169.589a69.035,69.035,0,1,0-69.036-69.035A69.113,69.113,0,0,0,391.824,169.589Zm0-126.07a57.035,57.035,0,1,1-57.036,57.035A57.1,57.1,0,0,1,391.824,43.519Z"/><path d="M391.824,129.29A10.337,10.337,0,0,1,381.5,118.965a6,6,0,0,0-12,0A22.36,22.36,0,0,0,385,140.219V145a6,6,0,0,0,12,0v-4.322a22.323,22.323,0,0,0-5.176-44.037,10.325,10.325,0,1,1,10.324-10.325,6,6,0,1,0,12,0A22.358,22.358,0,0,0,397,64.6V61a6,6,0,0,0-12,0v4.062a22.324,22.324,0,0,0,6.824,43.579,10.325,10.325,0,0,1,0,20.649Z"/><path d="M322.788,411.446a69.036,69.036,0,1,0,69.036-69.035A69.114,69.114,0,0,0,322.788,411.446Zm69.036-57.035a57.035,57.035,0,1,1-57.036,57.035A57.1,57.1,0,0,1,391.824,354.411Z"/><path d="M392.34,440.156a5.711,5.711,0,0,0-2.08-.106,10.332,10.332,0,0,1-8.761-10.193,6,6,0,1,0-12,0A22.362,22.362,0,0,0,385,451.111V456a6,6,0,0,0,12,0v-4.431a22.322,22.322,0,0,0-5.176-44.036,10.325,10.325,0,1,1,10.324-10.325,6,6,0,0,0,12,0A22.358,22.358,0,0,0,397,375.5V371a6,6,0,0,0-12,0v4.954a22.324,22.324,0,0,0,6.824,43.579,10.318,10.318,0,0,1,.516,20.623Z"/><path d="M35.3,303H46.521A28.933,28.933,0,0,0,73,327.845V433a5.831,5.831,0,0,0,5.8,6h47.5a5.754,5.754,0,0,0,5.7-6V334.064l127.043,23.793a6.815,6.815,0,0,0,1.18.1,5.7,5.7,0,0,0,3.72-1.382A5.9,5.9,0,0,0,266,351.959V160.041a5.806,5.806,0,0,0-6.883-5.918L99.74,184H75.3a28.956,28.956,0,0,0-28.776,26H35.3C20.961,210,9,221.164,9,235.5v41C9,290.836,20.961,303,35.3,303ZM120,427H85V328H99.74L120,331.814Zm134-82.27L129.108,321.285a5.691,5.691,0,0,0-2.885-.785,7.574,7.574,0,0,0-.971.069L106,316.98V195.02l148-27.75ZM58,213.041A17.311,17.311,0,0,1,75.3,196H94V316H75.3A17.311,17.311,0,0,1,58,298.959ZM21,235.5c0-7.72,6.578-13.5,14.3-13.5H46v69H35.3c-7.719,0-14.3-6.78-14.3-14.5Z"/><path d="M345,250H296a6,6,0,0,0,0,12h49a6,6,0,0,0,0-12Z"/><path d="M284.3,212a5.978,5.978,0,0,0,2.527-.561l43-20a6,6,0,1,0-5.061-10.88l-43,20A6,6,0,0,0,284.3,212Z"/><path d="M281.767,311.44l43,20a6,6,0,1,0,5.061-10.88l-43-20a6,6,0,1,0-5.061,10.88Z"/></svg>
