<?xml version="1.0"?>
<svg xmlns="http://www.w3.org/2000/svg" id="Layer_1" data-name="Layer 1" viewBox="0 0 512 512" width="512" height="512"><title>Bucket</title><path d="M472.712,74H455V44.574c0-4.418-3.638-7.574-8.056-7.574H65.056C60.638,37,57,40.156,57,44.574V74H39.288C34.87,74,31,77.155,31,81.574v37A223.235,223.235,0,0,0,90.747,270.984L108.4,421.413A60.743,60.743,0,0,0,168.922,475H335.149A60.672,60.672,0,0,0,395.6,421.413l16.51-141.328c.934-.9,2.014-1.749,2.934-2.67A223.253,223.253,0,0,0,481,118.573v-37C481,77.155,477.13,74,472.712,74ZM47,118.573V90H57v37.823A8.2,8.2,0,0,0,65.056,136H75.114L87.307,241.6A207.971,207.971,0,0,1,47,118.573ZM379.7,419.557A44.672,44.672,0,0,1,335.149,459H168.922a44.672,44.672,0,0,1-44.554-39.443L109.055,288.486a224.577,224.577,0,0,0,285.117,7.206Zm17.2-147.069A208.471,208.471,0,0,1,106.149,263.8L91.222,136H412.849ZM73,120V53H439v67Zm392-1.427a208.135,208.135,0,0,1-49.615,134.843L428.958,136h17.986A8.2,8.2,0,0,0,455,127.823V90h10Z"/></svg>
