<svg height="502pt" viewBox="0 -20 502.28 502" width="502pt" xmlns="http://www.w3.org/2000/svg"><path d="m412.292969 250.304688c2.34375 2.34375 6.140625 2.34375 8.484375 0l10.480468-10.480469 10.484376 10.480469c2.34375 2.34375 6.140624 2.34375 8.484374 0s2.34375-6.140626 0-8.484376l-10.484374-10.480468 10.488281-10.484375c2.34375-2.34375 2.34375-6.140625 0-8.484375s-6.140625-2.34375-8.484375 0l-10.484375 10.480468-10.484375-10.480468c-2.347656-2.3125-6.121094-2.296875-8.449219.035156-2.328125 2.328125-2.34375 6.101562-.03125 8.449219l10.476563 10.484375-10.480469 10.480468c-2.34375 2.34375-2.34375 6.140626 0 8.484376zm0 0"/><path d="m419.320312 90.015625c2.242188 2.429687 6.027344 2.589844 8.464844.355469l31.898438-29.21875c1.597656-1.445313 2.296875-3.632813 1.835937-5.738282-.460937-2.101562-2.015625-3.796874-4.066406-4.4375-2.054687-.644531-4.296875-.136718-5.875 1.328126l-27.492187 25.179687-12.789063-13.871094c-2.246094-2.4375-6.042969-2.589843-8.480469-.34375-2.433594 2.246094-2.589844 6.042969-.34375 8.476563zm0 0"/><path d="m419.320312 410.015625c2.242188 2.429687 6.027344 2.589844 8.464844.355469l31.898438-29.21875c1.597656-1.445313 2.296875-3.632813 1.835937-5.738282-.460937-2.101562-2.015625-3.796874-4.066406-4.4375-2.054687-.644531-4.296875-.136718-5.875 1.328126l-27.492187 25.179687-12.792969-13.871094c-2.246094-2.4375-6.042969-2.589843-8.480469-.34375-2.433594 2.246094-2.589844 6.042969-.34375 8.476563zm0 0"/><path d="m360.402344 75.339844c2.242187 37 33.160156 66.839844 70.859375 66.839844 39.222656 0 71.019531-31.796876 71.019531-71.019532s-31.796875-71.019531-71.019531-71.019531c-36.554688-.003906-66.730469 28.199219-70.578125 63.199219h-26.625c-3.359375.15625-5.984375 2.953125-5.929688 6.316406v155.683594h-40.425781l20.816406-20.824219c2.34375-2.34375 2.347657-6.144531.003907-8.488281-2.34375-2.347656-6.144532-2.347656-8.488282-.003906l-30 30c-2.34375 2.34375-2.34375 6.140624 0 8.484374l30 30c2.359375 2.21875 6.054688 2.160157 8.347656-.128906 2.292969-2.289062 2.351563-5.984375.136719-8.347656l-18.699219-18.691406h38.308594v155.648437c-.058594 3.367188 2.5625 6.175781 5.929688 6.351563h26.621094c3.828124 35 34.015624 63.171875 70.582031 63.171875 39.199219 0 70.976562-31.777344 70.976562-70.976563 0-39.199218-31.777343-70.976562-70.976562-70.976562-37.691407 0-68.601563 29.78125-70.855469 66.78125h-20.277344v-150h20.402344c3.050781 36 33.597656 65.007812 70.730469 65.007812 39.210937 0 71-31.789062 71-71 0-39.214844-31.789063-71-71-71-37.121094 0-67.660157 28.988282-70.730469 64.988282h-20.402344v-149.996094zm70.859375-63c32.582031 0 59 26.414062 59 59 0 32.582031-26.417969 59-59 59-32.585938 0-59-26.417969-59-59 .035156-32.570313 26.429687-58.964844 59-59zm0 320c32.582031 0 59 26.414062 59 59 0 32.582031-26.417969 59-59 59-32.585938 0-59-26.417969-59-59 .035156-32.570313 26.429687-58.964844 59-59zm0-160c32.582031 0 59 26.414062 59 59 0 32.582031-26.417969 59-59 59-32.585938 0-59-26.417969-59-59 .035156-32.570313 26.429687-58.964844 59-59zm0 0"/><path d="m133.171875 364.507812c73.429687 0 133.167969-59.738281 133.167969-133.167968 0-73.433594-59.738282-133.171875-133.167969-133.171875-73.433594 0-133.171875 59.738281-133.171875 133.171875 0 73.429687 59.738281 133.167968 133.171875 133.167968zm-70.054687-90.457031c-.84375-8.378906 1.910156-16.722656 7.570312-22.960937 5.660156-6.238282 13.699219-9.78125 22.121094-9.75h3.554687l9.417969 28.875c.734375 2.230468 2.703125 3.824218 5.035156 4.074218.445313.042969.894532.035157 1.339844-.019531l-7.808594 72.722657c-.078125.695312-.035156 1.402343.128906 2.082031-14.875-3.566407-28.914062-9.980469-41.347656-18.886719v-55.53125c.007813-.199219.003906-.402344-.011718-.605469zm60.15625 78.050781-6.6875-6.6875 9.007812-83.875 7.152344-7.992187 8.0625 8.578125 8.945312 83.285156-6.6875 6.691406c-3.265625.265626-6.566406.402344-9.902344.40625-3.332031.003907-6.628906-.132812-9.890624-.40625zm79.910156-78.050781c-.027344.203125-.046875.40625-.054688.605469v55.53125c-12.417968 8.90625-26.445312 15.320312-41.304687 18.882812.175781-.679687.226562-1.386718.15625-2.085937l-7.804688-72.730469c.628907.074219 1.269531.046875 1.894531-.078125 2.035157-.402343 3.714844-1.835937 4.425782-3.789062l10.460937-29.046875h2.582031c8.417969-.027344 16.449219 3.519531 22.101563 9.757812 5.652344 6.238282 8.394531 14.582032 7.542969 22.953125zm-70.011719-163.882812c49.921875-.015625 94.742187 30.609375 112.871094 77.125 18.128906 46.515625 5.855469 99.390625-30.914063 133.164062v-45.507812c1.105469-11.699219-2.78125-23.324219-10.699218-32.011719-7.917969-8.683594-19.136719-13.621094-30.890626-13.597656h-6.800781c-2.519531-.027344-4.78125 1.542968-5.644531 3.914062l-8.574219 23.832032-15.410156-16.402344c-1.136719-1.273438-2.761719-2.003906-4.46875-2.003906-1.707031-.003907-3.335937.722656-4.472656 1.996093l-14.199219 15.863281-7.542969-23.109374c-.808593-2.460938-3.117187-4.113282-5.703125-4.089844h-7.914062c-11.761719-.03125-22.992188 4.902344-30.925782 13.585937-7.933593 8.683594-11.839843 20.3125-10.753906 32.023438v45.507812c-36.753906-33.792969-49.007812-86.675781-30.863281-133.1875 18.148437-46.515625 62.976563-77.128906 112.90625-77.101562zm0 0"/><path d="m172.128906 177.625c0-22.25-18.035156-40.285156-40.285156-40.285156h-.429688c-22.246093 0-40.285156 18.035156-40.285156 40.285156v14.425781c0 22.25 18.039063 40.289063 40.285156 40.289063h.429688c22.25 0 40.285156-18.039063 40.285156-40.289063zm-12 14.425781c0 15.625-12.664062 28.289063-28.285156 28.289063h-.429688c-15.621093 0-28.285156-12.664063-28.285156-28.289063v-14.425781c0-15.621094 12.664063-28.285156 28.285156-28.285156h.429688c15.621094 0 28.285156 12.664062 28.285156 28.285156zm0 0"/></svg>