<svg height="465pt" viewBox="0 -25 465.00945 465" width="465pt" xmlns="http://www.w3.org/2000/svg"><path d="m257.449219 194.519531c-.015625-13.496093-10.953125-24.433593-24.449219-24.449219-4.667969 0-8.449219-3.78125-8.449219-8.449218 0-4.667969 3.78125-8.449219 8.449219-8.449219 4.664062 0 8.449219 3.785156 8.449219 8.449219 0 4.417968 3.582031 8 8 8s8-3.582032 8-8c-.015625-11.183594-7.609375-20.941406-18.449219-23.699219v-3.167969c0-4.421875-3.582031-8-8-8s-8 3.578125-8 8v4.566406c-10.523438 4.714844-16.316406 16.144532-13.90625 27.417969 2.414062 11.277344 12.375 19.332031 23.90625 19.332031 4.667969 0 8.449219 3.78125 8.449219 8.449219s-3.78125 8.449219-8.449219 8.449219c-.078125 0-.152344-.007812-.230469-.007812-.527343-.121094-1.0625-.1875-1.601562-.195313-3.863281-.863281-6.609375-4.285156-6.617188-8.242187 0-4.417969-3.582031-8-8-8s-8 3.582031-8 8c.015625 9.625 5.667969 18.351562 14.449219 22.296874v3.933594c0 4.417969 3.582031 8 8 8s8-3.582031 8-8v-2.535156c10.839844-2.757812 18.433594-12.515625 18.449219-23.699219zm0 0"/><path d="m457.5 218.753906h-113.5v-117.253906c.09375-2.238281-.78125-4.40625-2.398438-5.953125l-104.019531-93.496094c-3.027343-2.742187-7.648437-2.726562-10.660156.035157l-103.082031 93.492187c-1.730469 1.496094-2.757813 3.640625-2.839844 5.921875v117.253906h-112.5c-4.417969 0-8.5 3.328125-8.5 7.746094v181c.214844 4.5625 3.933594 8.171875 8.5 8.253906h449c4.417969 0 7.5-3.835937 7.5-8.253906v-181c.101562-2.042969-.644531-4.035156-2.066406-5.503906s-3.390625-2.28125-5.433594-2.242188zm-225.101562-199.714844 83.214843 74.714844h-165.414062zm36.601562 380.714844h-72v-37.855468c0-19.882813 16.117188-36 36-36s36 16.117187 36 36zm180 0h-164v-37.855468c0-28.71875-23.28125-52-52-52s-52 23.28125-52 52v37.855468h-165v-165h113.5c4.417969 0 7.5-3.835937 7.5-8.253906v-116.746094h191v116.746094c.214844 4.5625 3.933594 8.171875 8.5 8.253906h112.5zm0 0"/><path d="m358 259.753906c0-4.421875-3.582031-8-8-8h-29c-4.417969 0-8 3.578125-8 8v37c0 4.417969 3.582031 8 8 8h29c4.417969 0 8-3.582031 8-8zm-29 8h13v21h-13zm0 0"/><path d="m420 259.753906c0-4.421875-3.582031-8-8-8h-29c-4.417969 0-8 3.578125-8 8v37c0 4.417969 3.582031 8 8 8h29c4.417969 0 8-3.582031 8-8zm-29 8h13v21h-13zm0 0"/><path d="m358 340.753906c0-4.421875-3.582031-8-8-8h-29c-4.417969 0-8 3.578125-8 8v37c0 4.417969 3.582031 8 8 8h29c4.417969 0 8-3.582031 8-8zm-16 29h-13v-21h13zm0 0"/><path d="m420 340.753906c0-4.421875-3.582031-8-8-8h-29c-4.417969 0-8 3.578125-8 8v37c0 4.417969 3.582031 8 8 8h29c4.417969 0 8-3.582031 8-8zm-29 8h13v21h-13zm0 0"/><path d="m91 259.753906c0-4.421875-3.582031-8-8-8h-29c-4.417969 0-8 3.578125-8 8v37c0 4.417969 3.582031 8 8 8h29c4.417969 0 8-3.582031 8-8zm-16 29h-13v-21h13zm0 0"/><path d="m153 259.753906c0-4.421875-3.582031-8-8-8h-29c-4.417969 0-8 3.578125-8 8v37c0 4.417969 3.582031 8 8 8h29c4.417969 0 8-3.582031 8-8zm-16 29h-13v-21h13zm0 0"/><path d="m226 259.753906c0-4.421875-3.582031-8-8-8h-29c-4.417969 0-8 3.578125-8 8v37c0 4.417969 3.582031 8 8 8h29c4.417969 0 8-3.582031 8-8zm-16 29h-13v-21h13zm0 0"/><path d="m288 259.753906c0-4.421875-3.582031-8-8-8h-29c-4.417969 0-8 3.578125-8 8v37c0 4.417969 3.582031 8 8 8h29c4.417969 0 8-3.582031 8-8zm-16 29h-13v-21h13zm0 0"/><path d="m91 340.753906c0-4.421875-3.582031-8-8-8h-29c-4.417969 0-8 3.578125-8 8v37c0 4.417969 3.582031 8 8 8h29c4.417969 0 8-3.582031 8-8zm-16 29h-13v-21h13zm0 0"/><path d="m153 340.753906c0-4.421875-3.582031-8-8-8h-29c-4.417969 0-8 3.578125-8 8v37c0 4.417969 3.582031 8 8 8h29c4.417969 0 8-3.582031 8-8zm-16 29h-13v-21h13zm0 0"/></svg>