<?xml version="1.0" encoding="iso-8859-1"?>
<!-- Generator: Adobe Illustrator 19.0.0, SVG Export Plug-In . SVG Version: 6.00 Build 0)  -->
<svg version="1.1" id="Capa_1" xmlns="http://www.w3.org/2000/svg" xmlns:xlink="http://www.w3.org/1999/xlink" x="0px" y="0px"
	 viewBox="0 0 511.999 511.999" style="enable-background:new 0 0 511.999 511.999;" xml:space="preserve">
<g>
	<g>
		<path d="M440.039,2.425c-5.687-3.261-12.672-3.23-18.334,0.073L202.892,130.438H81.066c-10.1,0-18.286,8.186-18.286,18.286
			v214.552c0,10.1,8.186,18.286,18.286,18.286h121.826L421.699,509.5c2.853,1.664,6.046,2.499,9.234,2.499
			c3.139,0,6.278-0.811,9.1-2.42c5.681-3.267,9.186-9.314,9.186-15.866V18.285C449.219,11.733,445.714,5.686,440.039,2.425z
			 M412.647,461.836L217.075,347.489c-2.798-1.634-5.986-2.499-9.228-2.499H99.352V167.009h108.495c3.243,0,6.43-0.859,9.228-2.499
			L412.647,50.157V461.836z"/>
	</g>
</g>
<g>
	<g>
		<path d="M370.913,151.759c-4.724-8.923-15.793-12.349-24.71-7.625l-74.978,39.619c-8.93,4.718-12.343,15.781-7.625,24.71
			c3.279,6.205,9.618,9.746,16.183,9.746c2.883,0,5.803-0.683,8.527-2.121l74.978-39.619
			C372.218,171.751,375.631,160.688,370.913,151.759z"/>
	</g>
</g>
<g>
	<g>
		<rect x="190.171" y="148.723" width="36.571" height="215.162"/>
	</g>
</g>
<g>
</g>
<g>
</g>
<g>
</g>
<g>
</g>
<g>
</g>
<g>
</g>
<g>
</g>
<g>
</g>
<g>
</g>
<g>
</g>
<g>
</g>
<g>
</g>
<g>
</g>
<g>
</g>
<g>
</g>
</svg>
