<?xml version="1.0"?>
<svg xmlns="http://www.w3.org/2000/svg" id="Layer_1" data-name="Layer 1" viewBox="0 0 512 512" width="512" height="512"><title>Book</title><path d="M56.965,412a8,8,0,0,0,0,16H71v14.766C71,471.55,94.708,495,123.491,495H410.835A52.258,52.258,0,0,0,463,442.766V69.234A52.258,52.258,0,0,0,410.835,17H123.491C94.708,17,71,40.45,71,69.234V84H56.965a8,8,0,0,0,0,16H71v66H56.965a8,8,0,0,0,0,16H71v66H56.965a8,8,0,0,0,0,16H71v66H56.965a8,8,0,0,0,0,16H71v66ZM87,346h25.521a8,8,0,1,0,0-16H87V264h25.521a8,8,0,1,0,0-16H87V182h25.521a8,8,0,1,0,0-16H87V100h25.521a8,8,0,1,0,0-16H87V69.234A36.52,36.52,0,0,1,123.491,33H410.835A36.24,36.24,0,0,1,447,69.234V442.766A36.24,36.24,0,0,1,410.835,479H123.491A36.52,36.52,0,0,1,87,442.766V428h25.521a8,8,0,0,0,0-16H87Z"/><path d="M205.737,381.385A56.638,56.638,0,0,0,246.01,398H272v11.473a7.571,7.571,0,0,0,2.474,5.452A8.026,8.026,0,0,0,280.2,417h.089l44.877-.265A7.735,7.735,0,0,0,333,408.971v-101.3a7.873,7.873,0,0,0-7.976-8l-45.033.5a8.069,8.069,0,0,0-7.991,8V314H260.734A6.862,6.862,0,0,1,254,307.061V204.45c0-.141.007-.23.015-.369a6.673,6.673,0,0,1,6.64-6.081H272v5.93a8.138,8.138,0,0,0,8.09,8.07h45.061A7.932,7.932,0,0,0,333,203.93v-101.3a7.5,7.5,0,0,0-2.268-5.471A7.652,7.652,0,0,0,325.151,95H280.089c-4.418,0-8.089,3.211-8.089,7.629V114H246.008A56.6,56.6,0,0,0,189,170.366V341.234A56.477,56.477,0,0,0,205.737,381.385ZM288,316.083l29-.322v85.3l-29,.323ZM317,111v85H288V111Zm-99.949,30.729A40.556,40.556,0,0,1,246.009,130H272v52H260.743a22.84,22.84,0,0,0-22.7,21.093c-.033.531-.046,1.008-.046,1.447v102.6A22.757,22.757,0,0,0,260.655,330H272v52H246.01A40.935,40.935,0,0,1,205,341.234V170.366A40.123,40.123,0,0,1,217.051,141.729Z"/></svg>
