<?xml version="1.0"?>
<svg xmlns="http://www.w3.org/2000/svg" id="Layer_1" data-name="Layer 1" viewBox="0 0 512 512" width="512" height="512"><title>Chat</title><path d="M488.345,65H149.929A8.129,8.129,0,0,0,142,73.218V128H23.655C19.237,128,16,131.937,16,136.355V438.782a7.844,7.844,0,0,0,4.172,7.116,7.65,7.65,0,0,0,3.568.884,8.05,8.05,0,0,0,4.618-1.661L106.41,389H362.071A7.666,7.666,0,0,0,370,381.328V326h35.591l78.095,56.053a8.046,8.046,0,0,0,4.66,1.545,7.283,7.283,0,0,0,3.482-.861A7.808,7.808,0,0,0,496,375.645V73.218C496,68.8,492.763,65,488.345,65ZM354,373H103.839a7.66,7.66,0,0,0-4.487,1.661L32,423.208V144H142V318.19a7.78,7.78,0,0,0,7.929,7.81H354Zm126-12.929-67.352-48.479A7.583,7.583,0,0,0,408.161,310H158V81H480Z"/><path d="M446,117a8,8,0,0,0-8-8H199a8,8,0,0,0-8,8V272a8,8,0,0,0,8,8H438a8,8,0,0,0,8-8ZM313.194,235.185a8,8,0,0,0,10.924,0l32.68-30.41L418.555,265H219.205l62.573-59.04Zm55.19-41.475L430,136.13V253.667ZM318.656,217.9,219.233,125H418.064Zm-48.788-23.011L207,254.073V136.144Z"/></svg>
