<svg height="482pt" viewBox="0 0 482 482.27562" width="482pt" xmlns="http://www.w3.org/2000/svg"><path d="m339.273438 150.136719c0-4.417969-3.582032-8-8-8h-181c-4.417969 0-8 3.582031-8 8v181c0 4.417969 3.582031 8 8 8h181c4.417968 0 8-3.582031 8-8zm-118 8h40v25.964843l-17.601563-6.265624c-1.585937-.601563-3.335937-.601563-4.921875 0l-17.476562 6.265624zm-63 0h47v37.25c-.117188 2.558593 1.054687 5.007812 3.117187 6.523437 2.066406 1.515625 4.75 1.902344 7.15625 1.027344l25.789063-9.070312 25.816406 9.070312c.847656.296875 1.738281.449219 2.636718.449219 1.578126 0 3.109376-.519531 4.367188-1.472657 2.050781-1.53125 3.214844-3.972656 3.117188-6.527343v-37.25h47v166h-166zm0 0"/><path d="m197.773438 247.136719h57c4.417968 0 8-3.582031 8-8s-3.582032-8-8-8h-57c-4.417969 0-8 3.582031-8 8s3.582031 8 8 8zm0 0"/><path d="m284.773438 261.136719h-87c-4.417969 0-8 3.582031-8 8s3.582031 8 8 8h87c4.417968 0 8-3.582031 8-8s-3.582032-8-8-8zm0 0"/><path d="m452.15625 207.664062c-2.023438-2.039062-4.976562-2.839843-7.75-2.097656-2.773438.742188-4.933594 2.914063-5.667969 5.6875-.730469 2.773438.078125 5.726563 2.121094 7.742188l14.191406 14.140625h-45.617187c-4.417969 0-8 3.582031-8 8s3.582031 8 8 8h45.617187l-14.191406 14.136719c-2.042969 2.015624-2.851563 4.96875-2.121094 7.742187.734375 2.777344 2.894531 4.945313 5.667969 5.6875s5.726562-.058594 7.75-2.09375l27.898438-27.808594c1.507812-1.5 2.355468-3.539062 2.355468-5.664062 0-2.128907-.847656-4.167969-2.355468-5.667969zm0 0"/><path d="m36.039062 276.941406c3.238282 0 6.15625-1.949218 7.394532-4.945312 1.234375-2.992188.546875-6.433594-1.75-8.722656l-14.1875-14.136719h45.617187c4.417969 0 8-3.582031 8-8s-3.582031-8-8-8h-45.617187l14.1875-14.140625c2.046875-2.015625 2.855468-4.96875 2.121094-7.742188-.730469-2.773437-2.894532-4.945312-5.664063-5.6875-2.773437-.742187-5.730469.058594-7.75 2.097656l-27.898437 27.804688c-1.507813 1.5-2.355469 3.539062-2.355469 5.667969 0 2.125.847656 4.164062 2.355469 5.664062l27.898437 27.808594c1.5 1.496094 3.53125 2.335937 5.648437 2.332031zm0 0"/><path d="m241.273438 401.292969c-4.417969 0-8 3.582031-8 8v45.617187l-14.140626-14.1875c-3.121093-3.128906-8.1875-3.136718-11.316406-.015625-3.128906 3.121094-3.136718 8.1875-.015625 11.316407l27.804688 27.898437c1.5 1.507813 3.539062 2.355469 5.667969 2.355469 2.125 0 4.164062-.847656 5.667968-2.355469l27.804688-27.898437c3.121094-3.128907 3.113281-8.195313-.015625-11.316407-3.128907-3.121093-8.195313-3.113281-11.316407.015625l-14.140624 14.1875v-45.617187c0-4.417969-3.582032-8-8-8zm0 0"/><path d="m219.132812 41.546875 14.140626-14.1875v45.617187c0 4.417969 3.582031 8 8 8 4.417968 0 8-3.582031 8-8v-45.617187l14.140624 14.1875c3.117188 3.132813 8.183594 3.140625 11.3125.019531 3.128907-3.117187 3.136719-8.183594.019532-11.3125l-27.804688-27.902344c-1.503906-1.503906-3.542968-2.351562-5.667968-2.351562-2.128907 0-4.167969.847656-5.667969 2.351562l-27.804688 27.902344c-3.121093 3.128906-3.109375 8.195313.019531 11.3125 3.128907 3.121094 8.195313 3.113282 11.3125-.019531zm0 0"/><path d="m386.777344 398.0625-20.03125.074219h-.011719c-2.109375-.027344-4.140625.792969-5.640625 2.273437-1.503906 1.476563-2.351562 3.496094-2.359375 5.605469-.011719 4.421875 3.5625 8.015625 7.984375 8.03125l39.394531.089844h.011719c4.4375-.070313 8-3.6875 8-8.125l-.066406-39.640625c.011718-4.460938-3.539063-8.117188-8-8.234375h-.011719c-4.464844.113281-8.015625 3.777343-7.988281 8.242187l.035156 20.144532-32.257812-32.199219c-3.132813-3.113281-8.195313-3.101563-11.3125.03125-3.125 3.148437-3.125 8.230469 0 11.378906zm0 0"/><path d="m76.488281 124.136719h.011719c4.464844-.117188 8.011719-3.78125 7.988281-8.246094l-.035156-20.144531 32.257813 32.199218c3.148437 3.066407 8.175781 3.03125 11.277343-.085937 3.101563-3.113281 3.117188-8.144531.035157-11.277344l-32.257813-32.371093 20.035156-.074219h.011719c2.109375.023437 4.140625-.796875 5.640625-2.273438 1.503906-1.480469 2.351563-3.5 2.359375-5.605469.007812-4.425781-3.5625-8.019531-7.988281-8.035156l-39.390625-.085937h-.011719c-4.4375.066406-8 3.683593-8 8.125l.066406 39.636719c-.011719 4.464843 3.539063 8.121093 8 8.238281zm0 0"/><path d="m128.023438 354.386719c-3.125-3.125-8.1875-3.125-11.3125 0l-32.257813 32.253906.035156-20.261719c.023438-4.464844-3.523437-8.128906-7.988281-8.242187h-.011719c-4.457031.105469-8.011719 3.757812-8 8.214843l-.066406 39.507813c-.007813 2.164063.835937 4.246094 2.34375 5.800781 1.484375 1.535156 3.515625 2.425782 5.65625 2.476563h.011719l39.390625-.140625c2.855469.027344 5.507812-1.480469 6.941406-3.945313 1.433594-2.46875 1.429687-5.515625-.007813-7.980469-1.4375-2.46875-4.089843-3.96875-6.945312-3.933593h-.011719l-20.035156-.074219 32.257813-32.308594c3.125-3.144531 3.125-8.222656 0-11.367187zm0 0"/><path d="m360.179688 130.230469c2.121093 0 4.15625-.84375 5.65625-2.34375l32.257812-32.25-.035156 20.257812c-.023438 4.464844 3.527344 8.125 7.988281 8.242188h.011719c4.457031-.109375 8.011718-3.761719 8-8.21875l.066406-39.503907c.003906-2.167968-.835938-4.246093-2.34375-5.800781-1.484375-1.539062-3.519531-2.429687-5.65625-2.476562h-.011719l-39.394531.140625c-2.851562-.03125-5.503906 1.476562-6.9375 3.945312-1.433594 2.464844-1.429688 5.515625.007812 7.980469s4.089844 3.964844 6.945313 3.933594h.011719l20.03125.070312-32.253906 32.3125c-2.285157 2.296875-2.96875 5.738281-1.730469 8.734375 1.234375 2.996094 4.144531 4.957032 7.386719 4.976563zm0 0"/></svg>