<svg height="490pt" viewBox="-12 0 490 490.08173" width="490pt" xmlns="http://www.w3.org/2000/svg"><path d="m458.328125 17.082031h-309.285156v-7.550781c1-2.253906.179687-4.691406-1.371094-6.628906-1.496094-1.882813-3.785156-2.9531252-6.1875-2.89843775-.039063 0 .03125.08203125-.007813.08203125h-90.847656c-.039062 0-.078125-.08203125-.117187-.08203125-2.378907-.03515625-4.636719 1.05859375-6.085938 2.94921875-1.550781 1.929687-2.382812 4.320313-1.382812 6.574219v69.773437c-1 .519531-.167969 1.046875-.167969 1.585938 0 .539062-.832031 1.066406.167969 1.582031v69.8125c-1 .519531-.167969 1.046875-.167969 1.585938 0 .535156-.832031 1.066406.167969 1.582031v69.816406c-1 .519531-.167969 1.046875-.167969 1.585937 0 .539063-.832031 1.066407.167969 1.585938v69.816406c-1 .519532-.167969 1.046875-.167969 1.585938 0 .535156-.832031 1.066406.167969 1.582031v69.820313c-1 .519531-.167969 1.046874-.167969 1.585937s-.832031 1.066406.167969 1.582031v63.671875h-35.285157c-2.0625-.050781-4.058593.75-5.515624 2.214844-1.457032 1.460937-2.2539068 3.457031-2.1992192 5.519531v36.445313c-.0585938 2.070312.7343752 4.078125 2.1914062 5.554687 1.453125 1.476563 3.449219 2.292969 5.523437 2.265625h176.589844c2.074219.027344 4.066406-.792969 5.519532-2.269531 1.453124-1.476562 2.238281-3.480469 2.175781-5.550781v-36.445313c.058593-2.0625-.730469-4.054687-2.183594-5.519531-1.457031-1.460937-3.449219-2.261719-5.511719-2.214844h-35.304687v-63.667969c1-.519531.167969-1.046874.167969-1.585937s.832031-1.066406-.167969-1.585937v-69.816407c1-.519531.167969-1.050781.167969-1.585937 0-.539063.832031-1.070313-.167969-1.585938v-69.816406c1-.519531.167969-1.046875.167969-1.585938 0-.539062.832031-1.070312-.167969-1.585937v-69.8125c1-.519531.167969-1.046875.167969-1.585937 0-.539063.832031-1.066407-.167969-1.585938v-36.199219h106.28125c.496093 1 1 .152344 1.511719.152344.507812 0 1.015624.847656 1.507812-.152344h60.957031l17.222657 40.070313c1.253906 2.953125 4.136718 4.890625 7.347656 4.929687h28.171875v8.855469c-14 3.382812-25.476563 15.867188-25.476563 30.699219 0 11.894531 7.089844 22.226562 17.433594 27.621093l-32.148438 29.824219h-25.628906c-4.46875.027344-8.101562 3.617188-8.179687 8.085938v148.152343c.050781 2.117188.941406 4.125 2.476562 5.582032 1.535157 1.457031 3.589844 2.238281 5.703125 2.179687h148.152344c2.0625.039063 4.050781-.765625 5.5-2.234375 1.453125-1.464844 2.234375-3.464844 2.167969-5.527344v-148.152343c.078125-2.09375-.691407-4.132813-2.132813-5.65625-1.441406-1.519531-3.4375-2.398438-5.535156-2.429688h-25.632812l-32.210938-29.820312c10.347656-5.394531 17.371094-15.75 17.371094-27.644531-.007813-4.417969-3.589844-7.996094-8.011719-7.992188-4.417969.003906-7.996094 3.589844-7.988281 8.007812 0 8.355469-7.449219 15.183594-16.765625 15.574219-.558594-.058593-1.121094-.058593-1.679688 0-9.3125-.390625-16.761719-7.214843-16.761719-15.570312 0-8.605469 7.765626-15.609375 17.472657-15.609375 2.109375-.003906 4.128906-.851563 5.609375-2.355469 1.476562-1.503906 2.292968-3.535156 2.265625-5.644531v-15.945313h28.683593c3.207032-.039062 6.089844-1.976562 7.34375-4.929687l17.226563-40.070313h17.03125c2.046875.089844 4.035156-.675781 5.5-2.105469 1.460937-1.433593 2.261719-3.40625 2.214844-5.453124v-83.601563c.058593-2.074219-.730469-4.082031-2.183594-5.5625-1.457031-1.480469-3.453125-2.304687-5.53125-2.277344zm-93.285156 257h31v17.535157l-12.855469-4.425782c-1.753906-.601562-3.65625-.601562-5.414062 0l-12.730469 4.425782zm81 132h-132v-132h35v28.820313c0 2.59375 1.257812 5.023437 3.371093 6.523437 2.117188 1.5 4.824219 1.882813 7.273438 1.023438l20.613281-7.230469 20.613281 7.230469c.851563.300781 1.746094.453125 2.648438.453125 1.734375 0 3.425781-.511719 4.867188-1.472656 2.175781-1.476563 3.519531-3.898438 3.613281-6.527344v-28.820313h34zm-90.65625-148 24.914062-23.101562 24.910157 23.101562zm-81.644531-158 50.261718-62.011719 50.253906 62.011719zm-16.90625-3.949219-51.105469-63.050781h102.207031zm83.226562-63.050781h102.203125l-51.101563 63.050781zm-166.507812 0-24.511719 29.398438v-29.398438zm-114.511719 176.984375v-39.414062l24.621093 19.707031zm37.011719-9.460937 32.789062 26.246093-32.789062 26.246094-32.789063-26.246094zm-12.390626 62.738281-24.621093 19.710938v-39.417969zm12.390626 10.25 32.789062 26.246094-32.789062 26.246094-32.789063-26.246094zm-12.390626 62.738281-24.621093 19.710938v-39.417969zm12.390626 10.25 32.789062 26.246094-32.789062 26.253906-32.789063-26.253906zm12.367187-10.25 24.621094-19.707031v39.417969zm0-72.988281 24.621094-19.707031v39.417969zm0-72.984375 24.621094-19.707031v39.414062zm-12.367187-10.246094-32.789063-26.246093 32.789063-26.246094 32.789062 26.246094zm-37.011719-43.03125v-39.410156l24.621093 19.703125zm4.222656-56.199219 32.789063-26.242187 32.789062 26.246094-32.789062 26.242187zm45.160156-36.488281 24.617188-19.707031v39.414062zm-12.371093-10.070312-22.792969-18.242188h45.582031zm-12.390626 10.070312-24.621093 19.707031v-39.414062zm0 364.929688-24.621093 19.707031v-39.417969zm12.390626 10.507812 22.789062 18.25h-45.585938zm12.367187-10.507812 24.621094-19.710938v39.417969zm0-291.949219 24.621094-19.703125v39.410156zm67.621094 356.707031h-160v-20h160zm-27-386.261719 40.394531-49.546874 50.492188 61.808593h-90.886719zm262.417969 57.261719h-62.324219l-12.3125-28h86.949219zm-3.390626-45 41.972657-51.699219v51.699219zm0 0"/><path d="m344.789062 347.082031h46.527344c4.417969 0 8-3.582031 8-8s-3.582031-8-8-8h-46.527344c-4.417968 0-8 3.582031-8 8s3.582032 8 8 8zm0 0"/><path d="m344.789062 355.082031c-4.417968 0-8 3.582031-8 8s3.582032 8 8 8h71.019532c4.417968 0 8-3.582031 8-8s-3.582032-8-8-8zm0 0"/></svg>