<svg height="468pt" viewBox="0 -12 468 468" width="468pt" xmlns="http://www.w3.org/2000/svg"><path d="m37.449219 375h255.550781v62.722656c-.054688 2.15625 1.078125 4.167969 2.953125 5.238282 1.871094 1.066406 4.179687 1.019531 6.007813-.121094l46.628906-28.601563 46.640625 28.601563c.941406.578125 2.023437.882812 3.128906.882812.96875 0 1.921875-.261718 2.75-.761718 1.851563-1.082032 2.960937-3.09375 2.890625-5.238282v-62.722656h26.546875c20.652344 0 37.453125-17.320312 37.453125-38.816406v-228.109375c0-.027344 0-.050781 0-.078125 0-.023438 0-.050782 0-.074219v-68.65625c0-21.5-16.800781-39.265625-37.453125-39.265625h-393.097656c-20.648438 0-37.449219 17.765625-37.449219 39.265625v296.917969c0 21.496094 16.800781 38.816406 37.449219 38.816406zm236.796875-98.628906-3.347656-2.515625c-1.121094-.84375-1.78125-2.164063-1.78125-3.566407 0-1.402343.660156-2.726562 1.78125-3.566406l3.320312-2.488281c6.46875-4.816406 8.476562-13.613281 4.738281-20.757813l-1.898437-3.652343c-.648438-1.246094-.671875-2.726563-.0625-3.988281.613281-1.265626 1.78125-2.171876 3.160156-2.441407l4-.777343c7.9375-1.519532 13.585938-8.59375 13.308594-16.667969l-.128906-4.121094c-.042969-1.40625.578124-2.75 1.675781-3.625 1.097656-.875 2.546875-1.183594 3.90625-.824219l3.976562 1.039063c7.804688 2.070312 15.953125-1.847657 19.207031-9.238281l1.699219-3.78125c.570313-1.28125 1.710938-2.222657 3.082031-2.535157 1.371094-.3125 2.808594.042969 3.878907.953125l3.128906 2.660156c6.136719 5.261719 15.195313 5.261719 21.332031 0l3.128906-2.660156c1.070313-.910156 2.507813-1.265625 3.878907-.953125 1.367187.3125 2.511719 1.253907 3.082031 2.535157l1.6875 3.78125c3.257812 7.386718 11.40625 11.308593 19.210938 9.238281l3.976562-1.039063c1.359375-.355468 2.804688-.050781 3.90625.824219 1.097656.878906 1.71875 2.222656 1.675781 3.625l-.128906 4.121094c-.28125 8.074219 5.367187 15.148437 13.304687 16.667969l4 .777343c1.378907.269531 2.550782 1.175781 3.160157 2.441407.609375 1.265624.589843 2.742187-.058594 3.988281l-1.902344 3.652343c-3.734375 7.144532-1.726562 15.945313 4.742188 20.757813l3.320312 2.488281c1.121094.839844 1.78125 2.164063 1.78125 3.566406 0 1.402344-.660156 2.722657-1.78125 3.566407l-3.347656 2.515625c-6.457031 4.816406-8.457031 13.609375-4.722656 20.746094l1.898437 3.660156c.648438 1.246094.671875 2.726562.0625 3.992187-.613281 1.265625-1.78125 2.167969-3.160156 2.4375l-4 .777344c-7.9375 1.519531-13.582031 8.59375-13.300781 16.667969l.128906 4.121094c.042969 1.40625-.578125 2.75-1.679687 3.625-1.097657.875-2.546876 1.183593-3.90625.828124l-3.976563-1.042968c-7.800781-2.066406-15.945313 1.851562-19.203125 9.238281l-1.679688 3.78125c-.570312 1.285156-1.714843 2.226563-3.085937 2.539063s-2.808594-.042969-3.878906-.953126l-3.128907-2.660156c-6.136718-5.261718-15.191406-5.261718-21.328124 0l-3.132813 2.660156c-1.070313.910157-2.507813 1.265626-3.875.953126-1.371094-.3125-2.515625-1.253907-3.085937-2.539063l-1.679688-3.78125c-3.257812-7.390625-11.40625-11.308594-19.210938-9.238281l-3.972656 1.039062c-1.359375.359375-2.808594.050782-3.910156-.824218-1.097656-.878907-1.71875-2.21875-1.675781-3.625l.128906-4.121094c.277344-8.074219-5.367187-15.148438-13.304687-16.667969l-4-.777344c-1.378907-.269531-2.550782-1.175781-3.160157-2.441406s-.589843-2.742187.058594-3.988281l1.902344-3.664063c3.730469-7.136719 1.726562-15.929687-4.730469-20.742187zm77.273437 125.710937c-1.851562-1.179687-4.21875-1.179687-6.066406 0l-40.453125 24.925781v-81.90625c.355469-.125.722656-.210937 1.09375-.265624l3.917969-1.042969c2.105469-.558594 4.304687.503906 5.171875 2.5l1.667968 3.785156c2.085938 4.753906 6.308594 8.234375 11.378907 9.363281 1.214843.277344 2.453125.417969 3.699219.421875 3.890624-.003906 7.65625-1.398437 10.609374-3.933593l3.125-2.664063c1.664063-1.425781 4.117188-1.425781 5.777344 0l3.128906 2.664063c3.953126 3.363281 9.261719 4.664062 14.320313 3.511718s9.28125-4.621094 11.386719-9.363281l1.683594-3.785156c.878906-2 3.085937-3.0625 5.199218-2.5l3.800782 1.042969c.355468.050781.703124.136718 1.039062.265624v81.910157zm79.027344-39.082031h-26.546875v-20.34375c.550781-.125 1.042969-.433594 1.394531-.875 4.097657-3.210938 6.429688-8.179688 6.277344-13.382812l-.082031-4.121094c-.066406-2.191406 1.46875-4.105469 3.625-4.511719l4.015625-.78125c5.09375-.988281 9.421875-4.324219 11.679687-8.996094 2.261719-4.671875 2.179688-10.136719-.210937-14.746093l-1.898438-3.660157c-1.011719-1.933593-.46875-4.3125 1.277344-5.617187l3.351563-2.515625c4.140624-3.109375 6.578124-7.988281 6.574218-13.167969s-2.445312-10.058594-6.59375-13.164062l-3.320312-2.484376c-1.75-1.304687-2.296875-3.6875-1.285156-5.625l1.902343-3.648437c2.390625-4.605469 2.472657-10.070313.214844-14.742187-2.253906-4.671876-6.582031-8.007813-11.675781-9l-4-.777344c-2.148438-.414063-3.675782-2.328125-3.601563-4.515625l.128907-4.121094c.160156-5.1875-2.132813-10.148437-6.191407-13.382813-4.058593-3.234374-9.40625-4.367187-14.425781-3.050781l-3.976562 1.042969c-2.113282.558594-4.316407-.5-5.199219-2.5l-1.679688-3.785156c-2.109375-4.742188-6.328125-8.214844-11.390625-9.367188-5.058594-1.148437-10.363281.152344-14.316406 3.515625l-3.128906 2.664063c-1.664063 1.421875-4.117188 1.421875-5.777344 0l-3.128906-2.664063c-3.953125-3.363281-9.257813-4.664062-14.316406-3.511719-5.058594 1.152344-9.277344 4.621094-11.386719 9.363282l-1.679688 3.785156c-.882812 1.996094-3.085937 3.058594-5.199219 2.5l-3.976562-1.042969c-5.019531-1.316406-10.367188-.183593-14.425781 3.050781-4.058594 3.234376-6.355469 8.195313-6.191407 13.382813l.128907 4.121094c.074219 2.1875-1.453125 4.101562-3.601563 4.515625l-4 .777344c-5.09375.992187-9.421875 4.328124-11.675781 9-2.257813 4.671874-2.175781 10.136718.214844 14.742187l1.902343 3.648437c1.011719 1.9375.46875 4.320313-1.285156 5.625l-3.320312 2.484376c-4.148438 3.105468-6.589844 7.984374-6.59375 13.164062 0 5.179688 2.433594 10.058594 6.574218 13.167969l3.351563 2.515625c1.746094 1.304687 2.289063 3.6875 1.277344 5.621094l-1.898438 3.660156c-2.394531 4.605468-2.472656 10.066406-.21875 14.738281 2.257813 4.675781 6.585938 8.011719 11.675781 9l4 .78125c2.148438.410156 3.675782 2.328125 3.601563 4.511719l-.128906 4.121094c-.140625 5.210937 2.203125 10.175781 6.308593 13.382812.394532.316406.332032.601562 1.332032.875v20.34375h-255.578125c-14.035157 0-25.449219-11.9375-25.449219-26.816406v-222.183594h444v222.183594c0 14.878906-11.421875 26.816406-25.453125 26.816406zm-393.097656-351h393.097656c14.03125 0 25.453125 12.382812 25.453125 27.265625v62.734375h-444v-62.734375c0-14.882813 11.414062-27.265625 25.449219-27.265625zm0 0"/><path d="m121.308594 82.726562c14.894531 0 26.96875-12.070312 26.96875-26.964843s-12.074219-26.964844-26.96875-26.964844c-14.890625 0-26.964844 12.070313-26.964844 26.964844.019531 14.886719 12.082031 26.949219 26.964844 26.964843zm0-41.929687c8.265625 0 14.96875 6.699219 14.96875 14.964844s-6.703125 14.964843-14.96875 14.964843-14.964844-6.699218-14.964844-14.964843c.011719-8.261719 6.707031-14.953125 14.964844-14.960938zm0 0"/><path d="m189.449219 82.726562c14.890625 0 26.964843-12.070312 26.964843-26.964843s-12.074218-26.964844-26.964843-26.964844c-14.894531 0-26.96875 12.070313-26.96875 26.964844.019531 14.886719 12.082031 26.949219 26.96875 26.964843zm0-41.929687c8.265625 0 14.964843 6.699219 14.964843 14.964844s-6.699218 14.964843-14.964843 14.964843-14.96875-6.699218-14.96875-14.964843c.011719-8.261719 6.707031-14.953125 14.96875-14.960938zm0 0"/><path d="m53.171875 82.726562c14.894531 0 26.964844-12.070312 26.964844-26.964843s-12.070313-26.964844-26.964844-26.964844-26.964844 12.070313-26.964844 26.964844c.019531 14.886719 12.078125 26.949219 26.964844 26.964843zm0-41.929687c8.265625 0 14.964844 6.699219 14.964844 14.964844s-6.699219 14.964843-14.964844 14.964843-14.964844-6.699218-14.964844-14.964843c.011719-8.261719 6.703125-14.953125 14.964844-14.960938zm0 0"/><path d="m215.21875 237.957031-122.464844-44.765625c-2.164062-.792968-4.585937-.273437-6.238281 1.328125-1.652344 1.605469-2.242187 4.011719-1.515625 6.199219l42.675781 128.464844c.765625 2.300781 2.839844 3.917968 5.257813 4.09375.148437.011718.292968.015625.4375.015625 2.265625 0 4.339844-1.277344 5.359375-3.300781l17.988281-35.734376 24.046875 24.964844c1.136719 1.160156 2.703125 1.800782 4.328125 1.777344h.011719c1.628906.019531 3.195312-.628906 4.328125-1.800781l16.464844-17.238281c2.203124-2.304688 2.210937-5.933594.015624-8.246094l-24.367187-25.757813 34.515625-19.117187c2.050781-1.140625 3.253906-3.375 3.070312-5.714844-.183593-2.339844-1.714843-4.359375-3.917968-5.167969zm-46.253906 23.261719c-1.625.898438-2.738282 2.496094-3.023438 4.328125-.28125 1.832031.296875 3.695313 1.570313 5.042969l25.773437 27.246094-8.210937 8.613281-25.574219-26.621094c-1.347656-1.40625-3.296875-2.066406-5.222656-1.777344-1.925782.289063-3.589844 1.496094-4.464844 3.234375l-15.300781 30.402344-34.199219-102.960938 98.445312 35.988282zm0 0"/><path d="m55.375 153.078125c-2.285156-2.398437-6.082031-2.488281-8.480469-.203125-2.398437 2.289062-2.492187 6.085938-.203125 8.484375l14.609375 15.328125c2.285157 2.398438 6.082031 2.488281 8.480469.203125s2.492188-6.085937.203125-8.484375zm0 0"/><path d="m97.546875 168.980469c.351563 2.128906 1.828125 3.90625 3.855469 4.648437 2.027344.742188 4.300781.335938 5.945312-1.0625 1.648438-1.398437 2.414063-3.574218 2.007813-5.699218l-4.171875-23.355469c-.359375-2.128907-1.832032-3.902344-3.859375-4.644531-2.027344-.738282-4.296875-.332032-5.941407 1.0625-1.648437 1.398437-2.414062 3.574218-2.011718 5.691406zm0 0"/><path d="m62.398438 206.320312-22.269532-4.378906c-2.109375-.433594-4.289062.300782-5.710937 1.917969-1.421875 1.621094-1.867188 3.878906-1.164063 5.914063.703125 2.039062 2.441406 3.542968 4.558594 3.941406l22.265625 4.378906c3.253906.640625 6.410156-1.476562 7.050781-4.726562s-1.476562-6.40625-4.730468-7.046876zm0 0"/><path d="m348.558594 328.132812c31.941406 0 57.832031-25.894531 57.832031-57.832031 0-31.941406-25.890625-57.832031-57.832031-57.832031-31.9375 0-57.832032 25.894531-57.828125 57.832031.035156 31.921875 25.90625 57.792969 57.828125 57.832031zm0-103.664062c25.3125 0 45.832031 20.519531 45.832031 45.832031s-20.519531 45.832031-45.832031 45.832031-45.832032-20.519531-45.828125-45.832031c.027343-25.300781 20.53125-45.800781 45.828125-45.832031zm0 0"/></svg>