<svg id="Layer_1" height="512" viewBox="0 0 512 512" width="512" xmlns="http://www.w3.org/2000/svg" data-name="Layer 1"><path d="m204.055 400.053c47.8 0 92.859-14.635 126.877-41.207 22.137-17.293 38.368-38.846 46.927-62.322a6 6 0 0 0 -2.711-7.294l-38.386-21.443a13.5 13.5 0 0 1 0-23.574l38.386-21.443a6 6 0 0 0 2.711-7.294c-8.563-23.478-24.79-45.029-46.927-62.322-34.018-26.572-79.077-41.207-126.877-41.207s-92.855 14.635-126.877 41.207c-34.905 27.267-54.128 63.791-54.128 102.846s19.223 75.579 54.128 102.846c34.022 26.572 79.077 41.207 126.877 41.207zm-169.005-144.053c0-35.28 17.585-68.446 49.515-93.389s74.354-38.664 119.49-38.664 87.572 13.731 119.49 38.664c18.85 14.725 33 32.7 41.183 52.234l-33.818 18.891a25.5 25.5 0 0 0 0 44.528l33.818 18.891c-8.181 19.535-22.333 37.509-41.183 52.234-31.918 24.933-74.354 38.664-119.49 38.664s-87.572-13.731-119.49-38.664-49.515-58.109-49.515-93.389z"/><path d="m105.021 256a29.095 29.095 0 1 0 -29.095 29.094 29.128 29.128 0 0 0 29.095-29.094zm-29.095 17.094a17.094 17.094 0 1 1 17.095-17.094 17.113 17.113 0 0 1 -17.095 17.094z"/><path d="m98.153 327.849a29.095 29.095 0 1 0 29.094-29.094 29.127 29.127 0 0 0 -29.094 29.094zm46.189 0a17.095 17.095 0 1 1 -17.1-17.094 17.115 17.115 0 0 1 17.1 17.094z"/><path d="m116.983 213.245a29.095 29.095 0 1 0 -29.094-29.094 29.127 29.127 0 0 0 29.094 29.094zm0-46.189a17.095 17.095 0 1 1 -17.094 17.1 17.114 17.114 0 0 1 17.094-17.1z"/><path d="m170 348.378a29.095 29.095 0 1 0 29.1-29.095 29.128 29.128 0 0 0 -29.1 29.095zm46.189 0a17.095 17.095 0 1 1 -17.089-17.095 17.114 17.114 0 0 1 17.091 17.095z"/><path d="m188.832 192.717a29.095 29.095 0 1 0 -29.094-29.095 29.128 29.128 0 0 0 29.094 29.095zm0-46.189a17.095 17.095 0 1 1 -17.094 17.094 17.114 17.114 0 0 1 17.094-17.094z"/><path d="m241.851 327.849a29.095 29.095 0 1 0 29.1-29.094 29.128 29.128 0 0 0 -29.1 29.094zm46.189 0a17.095 17.095 0 1 1 -17.094-17.094 17.114 17.114 0 0 1 17.094 17.094z"/><path d="m260.682 213.245a29.095 29.095 0 1 0 -29.1-29.094 29.128 29.128 0 0 0 29.1 29.094zm0-46.189a17.095 17.095 0 1 1 -17.1 17.1 17.114 17.114 0 0 1 17.1-17.1z"/><path d="m482.949 129h-4.949v-74a5.81 5.81 0 0 0 -5.774-6h-55.215a6.009 6.009 0 0 0 -6.011 6v74h-4.712a6.165 6.165 0 0 0 -6.288 5.9v53.867a92.677 92.677 0 0 0 7.638 36.586 81.068 81.068 0 0 1 6.229 24.123l13.918 197.873a16.854 16.854 0 0 0 33.623 0l13.892-197.878a80.95 80.95 0 0 1 6.184-24.123 92.57 92.57 0 0 0 7.516-36.586v-53.862a5.955 5.955 0 0 0 -6.051-5.9zm-5.949 12v17h-65v-17zm-54-80h43v68h-43zm47.447 159.63a92.944 92.944 0 0 0 -7.088 27.777c0 .049-.015.1-.019.148l-13.891 197.945a4.84 4.84 0 0 1 -9.656 0l-13.893-197.945c0-.05-.007-.1-.012-.148a93.173 93.173 0 0 0 -7.22-27.777 80.738 80.738 0 0 1 -6.668-31.868v-18.762h65v18.762a80.637 80.637 0 0 1 -6.553 31.868z"/></svg>