<svg height="508pt" viewBox="0 -1 508.00321 508" width="508pt" xmlns="http://www.w3.org/2000/svg"><path d="m379.28125 0c-71.058594.0820312-128.644531 57.667969-128.726562 128.726562 0 69.546876 55.441406 126.378907 124.449218 128.644532v166.441406c-.042968 36.539062-29.652344 66.148438-66.191406 66.1875h-22.449219c-33.726562-.042969-62.039062-25.402344-65.78125-58.917969 13.542969-2.246093 26.039063-8.6875 35.722657-18.417969l23.5-23.5 10.242187 10.242188c3.121094 3.121094 8.1875 3.121094 11.3125 0l37.355469-37.355469c3.125-3.125 3.125-8.191406 0-11.316406l-85.132813-85.128906c-3.125-3.125-8.1875-3.125-11.3125 0l-37.355469 37.355469c-3.125 3.121093-3.125 8.1875 0 11.3125l6.136719 6.136718-11.132812 11.136719c-1.757813 1.792969-4.15625 2.808594-6.667969 2.816406-2.507812.011719-4.917969-.984375-6.691406-2.761719l-86.21875-86.222656c-.148438-.140625-.285156-.289062-.421875-.441406-3.171875-3.75-2.960938-9.296875.484375-12.796875l11.191406-11.1875 6.136719 6.136719c3.125 3.125 8.191406 3.125 11.3125 0l37.359375-37.351563c3.125-3.125 3.125-8.191406 0-11.316406l-85.136719-85.128906c-3.125-3.125-8.1875-3.125-11.3125 0l-37.355469 37.355469c-3.125 3.125-3.125 8.1875 0 11.3125l10.238282 10.242187-23.5 23.5c-25.78125 25.78125-25.78125 67.582031 0 93.367187l143.601562 143.59375c11.121094 11.179688 25.902344 17.972657 41.628906 19.128907 4.160156 42.074219 39.519532 74.152343 81.796875 74.207031h22.449219c45.371094-.050781 82.140625-36.816406 82.191406-82.1875v-166.898438c65.5-5.945312 117-61.160156 117-128.183593-.078125-71.0625-57.664062-128.6484378-128.722656-128.730469zm-131.355469 282.578125 73.816407 73.816406-26.039063 26.042969-73.816406-73.816406zm-172.316406-172.316406 73.816406 73.820312-26.039062 26.039063-73.820313-73.820313zm-44.957031 147.492187c-19.53125-19.535156-19.53125-51.207031 0-70.738281l23.5-23.5 46.125 46.121094-11.128906 11.132812c-9.453126 9.476563-9.988282 24.640625-1.226563 34.761719.394531.445312.800781.878906 1.164063 1.230469l86.21875 86.210937c9.933593 9.859375 25.964843 9.832032 35.871093-.054687l11.191407-11.1875 46.125 46.121093-23.5 23.5c-19.535157 19.535157-51.207032 19.535157-70.742188 0zm348.628906-16.304687c-62.257812 0-112.726562-50.46875-112.726562-112.722657 0-62.257812 50.46875-112.726562 112.726562-112.726562 62.253906 0 112.722656 50.46875 112.722656 112.726562-.070312 62.226563-50.496094 112.652344-112.722656 112.722657zm0 0"/><path d="m450.003906 66c0-4.417969-3.582031-8-8-8h-126c-4.417968 0-8 3.582031-8 8v126c0 4.417969 3.582032 8 8 8h126c4.417969 0 8-3.582031 8-8zm-83 8h24v11.589844l-9.132812-3.226563c-1.78125-.601562-3.707032-.601562-5.488282 0l-9.378906 3.226563zm67 110h-110v-110h27v22.875c.097656 2.621094 1.433594 5.042969 3.59375 6.527344 2.160156 1.488281 4.898438 1.867187 7.382813 1.023437l17.246093-6.035156 17.21875 6.035156c.855469.296875 1.753907.449219 2.660157.449219 1.640625 0 3.242187-.515625 4.574219-1.472656 2.105468-1.507813 3.34375-3.941406 3.324218-6.527344v-22.875h27zm0 0"/><path d="m348.996094 136h39.679687c4.417969 0 8-3.582031 8-8s-3.582031-8-8-8h-39.679687c-4.417969 0-8 3.582031-8 8s3.582031 8 8 8zm0 0"/><path d="m348.996094 140c-4.417969 0-8 3.582031-8 8s3.582031 8 8 8h60.566406c4.417969 0 8-3.582031 8-8s-3.582031-8-8-8zm0 0"/></svg>