<svg height="470pt" viewBox="0 0 470 470" width="470pt" xmlns="http://www.w3.org/2000/svg"><path d="m462 148h-16v-67c-.007812-1.976562-.746094-3.875-2.070312-5.339844l-41.929688-46.722656v-20.9375c0-4.417969-3.582031-8-8-8s-8 3.582031-8 8v20.9375l-41.429688 46.722656c-1.179687 1.515625-1.738281 3.425782-1.570312 5.339844v67h-16c-4.417969 0-8 3.582031-8 8v68h-168v-68c0-4.417969-3.582031-8-8-8h-16v-67c-.007812-1.976562-.746094-3.875-2.070312-5.339844l-41.929688-46.722656v-20.9375c0-4.417969-3.582031-8-8-8s-8 3.582031-8 8v20.9375l-41.429688 46.722656c-1.179687 1.515625-1.738281 3.425782-1.570312 5.339844v67h-16c-4.417969 0-8 3.582031-8 8v306c0 4.417969 3.582031 8 8 8h135c.113281 0 0-.011719 0-.015625v.015625h319c4.417969 0 8-3.582031 8-8v-306c0-4.417969-3.582031-8-8-8zm-386.5-104.019531 26.023438 29.019531h-52.046876zm-35.5 45.019531h71v59h-71zm95 365h-119v-290h119zm259.5-410.019531 26.023438 29.019531h-52.046876zm-35.5 45.019531h71v59h-71zm-40 151v35h-168v-35zm-51.667969 138h-64c-4.484375-.027344-8.175781 3.519531-8.332031 8v68h-44v-163h168v163h-44v-68c.074219-2.085938-.699219-4.113281-2.140625-5.621094-1.445313-1.507812-3.4375-2.367187-5.527344-2.378906zm-56.332031 76v-60h48v60zm243 0h-119v-290h119zm0 0"/><path d="m387 192c0-4.417969-3.582031-8-8-8h-25c-4.417969 0-8 3.582031-8 8v25c0 4.417969 3.582031 8 8 8h25c4.417969 0 8-3.582031 8-8zm-16 17h-9v-9h9zm0 0"/><path d="m442 192c0-4.417969-3.582031-8-8-8h-25c-4.417969 0-8 3.582031-8 8v25c0 4.417969 3.582031 8 8 8h25c4.417969 0 8-3.582031 8-8zm-16 17h-9v-9h9zm0 0"/><path d="m407 97h-25c-4.417969 0-8 3.582031-8 8v25c0 4.417969 3.582031 8 8 8h25c4.417969 0 8-3.582031 8-8v-25c0-4.417969-3.582031-8-8-8zm-8 25h-9v-9h9zm0 0"/><path d="m387 262c0-4.417969-3.582031-8-8-8h-25c-4.417969 0-8 3.582031-8 8v25c0 4.417969 3.582031 8 8 8h25c4.417969 0 8-3.582031 8-8zm-16 17h-9v-9h9zm0 0"/><path d="m442 262c0-4.417969-3.582031-8-8-8h-25c-4.417969 0-8 3.582031-8 8v25c0 4.417969 3.582031 8 8 8h25c4.417969 0 8-3.582031 8-8zm-16 17h-9v-9h9zm0 0"/><path d="m387 331c0-4.417969-3.582031-8-8-8h-25c-4.417969 0-8 3.582031-8 8v25c0 4.417969 3.582031 8 8 8h25c4.417969 0 8-3.582031 8-8zm-16 17h-9v-9h9zm0 0"/><path d="m442 331c0-4.417969-3.582031-8-8-8h-25c-4.417969 0-8 3.582031-8 8v25c0 4.417969 3.582031 8 8 8h25c4.417969 0 8-3.582031 8-8zm-16 17h-9v-9h9zm0 0"/><path d="m387 401c0-4.417969-3.582031-8-8-8h-25c-4.417969 0-8 3.582031-8 8v25c0 4.417969 3.582031 8 8 8h25c4.417969 0 8-3.582031 8-8zm-16 17h-9v-9h9zm0 0"/><path d="m442 401c0-4.417969-3.582031-8-8-8h-25c-4.417969 0-8 3.582031-8 8v25c0 4.417969 3.582031 8 8 8h25c4.417969 0 8-3.582031 8-8zm-16 17h-9v-9h9zm0 0"/><path d="m68 192c0-4.417969-3.582031-8-8-8h-25c-4.417969 0-8 3.582031-8 8v25c0 4.417969 3.582031 8 8 8h25c4.417969 0 8-3.582031 8-8zm-16 17h-9v-9h9zm0 0"/><path d="m123 192c0-4.417969-3.582031-8-8-8h-25c-4.417969 0-8 3.582031-8 8v25c0 4.417969 3.582031 8 8 8h25c4.417969 0 8-3.582031 8-8zm-16 17h-9v-9h9zm0 0"/><path d="m88 97h-25c-4.417969 0-8 3.582031-8 8v25c0 4.417969 3.582031 8 8 8h25c4.417969 0 8-3.582031 8-8v-25c0-4.417969-3.582031-8-8-8zm-8 25h-9v-9h9zm0 0"/><path d="m68 262c0-4.417969-3.582031-8-8-8h-25c-4.417969 0-8 3.582031-8 8v25c0 4.417969 3.582031 8 8 8h25c4.417969 0 8-3.582031 8-8zm-16 17h-9v-9h9zm0 0"/><path d="m123 262c0-4.417969-3.582031-8-8-8h-25c-4.417969 0-8 3.582031-8 8v25c0 4.417969 3.582031 8 8 8h25c4.417969 0 8-3.582031 8-8zm-16 17h-9v-9h9zm0 0"/><path d="m68 331c0-4.417969-3.582031-8-8-8h-25c-4.417969 0-8 3.582031-8 8v25c0 4.417969 3.582031 8 8 8h25c4.417969 0 8-3.582031 8-8zm-16 17h-9v-9h9zm0 0"/><path d="m123 331c0-4.417969-3.582031-8-8-8h-25c-4.417969 0-8 3.582031-8 8v25c0 4.417969 3.582031 8 8 8h25c4.417969 0 8-3.582031 8-8zm-16 17h-9v-9h9zm0 0"/><path d="m68 401c0-4.417969-3.582031-8-8-8h-25c-4.417969 0-8 3.582031-8 8v25c0 4.417969 3.582031 8 8 8h25c4.417969 0 8-3.582031 8-8zm-16 17h-9v-9h9zm0 0"/><path d="m123 401c0-4.417969-3.582031-8-8-8h-25c-4.417969 0-8 3.582031-8 8v25c0 4.417969 3.582031 8 8 8h25c4.417969 0 8-3.582031 8-8zm-16 17h-9v-9h9zm0 0"/></svg>