<?xml version="1.0"?>
<svg xmlns="http://www.w3.org/2000/svg" id="Layer_1" data-name="Layer 1" viewBox="0 0 512 512" width="512" height="512"><title>Container</title><path d="M63,273H449a8,8,0,0,0,8-8V92a8,8,0,0,0-8-8H63a8,8,0,0,0-8,8V265A8,8,0,0,0,63,273Zm8-173H441V257H71Z"/><path d="M256,135a8,8,0,0,0-8,8v72a8,8,0,0,0,16,0V143A8,8,0,0,0,256,135Z"/><path d="M298,135a8,8,0,0,0-8,8v72a8,8,0,0,0,16,0V143A8,8,0,0,0,298,135Z"/><path d="M340,135a8,8,0,0,0-8,8v72a8,8,0,0,0,16,0V143A8,8,0,0,0,340,135Z"/><path d="M382,135a8,8,0,0,0-8,8v72a8,8,0,0,0,16,0V143A8,8,0,0,0,382,135Z"/><path d="M130,135a8,8,0,0,0-8,8v72a8,8,0,0,0,16,0V143A8,8,0,0,0,130,135Z"/><path d="M172,135a8,8,0,0,0-8,8v72a8,8,0,0,0,16,0V143A8,8,0,0,0,172,135Z"/><path d="M214,135a8,8,0,0,0-8,8v72a8,8,0,0,0,16,0V143A8,8,0,0,0,214,135Z"/><path d="M480,290H32a8,8,0,0,0-8,8v30a8,8,0,0,0,8,8H480a8,8,0,0,0,8-8V298A8,8,0,0,0,480,290Zm-8,31H40V306H472Z"/><path d="M67.477,345.729a40.99,40.99,0,1,0,40.99,40.99A41.036,41.036,0,0,0,67.477,345.729Zm0,65.98a24.99,24.99,0,1,1,24.99-24.99A25.018,25.018,0,0,1,67.477,411.709Z"/><path d="M172.212,345.729a40.99,40.99,0,1,0,40.99,40.99A41.036,41.036,0,0,0,172.212,345.729Zm0,65.98a24.99,24.99,0,1,1,24.99-24.99A25.018,25.018,0,0,1,172.212,411.709Z"/><path d="M339.788,345.729a40.99,40.99,0,1,0,40.99,40.99A41.036,41.036,0,0,0,339.788,345.729Zm0,65.98a24.99,24.99,0,1,1,24.99-24.99A25.018,25.018,0,0,1,339.788,411.709Z"/><path d="M444.523,345.729a40.99,40.99,0,1,0,40.99,40.99A41.036,41.036,0,0,0,444.523,345.729Zm0,65.98a24.99,24.99,0,1,1,24.99-24.99A25.018,25.018,0,0,1,444.523,411.709Z"/></svg>
