<?xml version="1.0"?>
<svg xmlns="http://www.w3.org/2000/svg" id="Layer_1" data-name="Layer 1" viewBox="0 0 512 512" width="512" height="512"><title>Approve</title><path d="M205.539,220.828a77.254,77.254,0,1,0-77.253-77.253A77.34,77.34,0,0,0,205.539,220.828Zm0-142.507a65.254,65.254,0,1,1-65.253,65.254A65.327,65.327,0,0,1,205.539,78.321Z"/><path d="M205.539,176.839a12.468,12.468,0,0,1-12.453-12.453,6,6,0,1,0-12,0A24.49,24.49,0,0,0,200,188.2V194a6,6,0,0,0,12,0v-6.034a24.45,24.45,0,0,0-6.461-48.032,12.453,12.453,0,1,1,12.453-12.453,6,6,0,0,0,12,0A24.489,24.489,0,0,0,210,103.443V99a6,6,0,0,0-12,0v5.222a24.451,24.451,0,0,0,7.539,47.712,12.453,12.453,0,1,1,0,24.905Z"/><path d="M87.979,270h237a6,6,0,0,0,0-12H87.979a6,6,0,1,0,0,12Z"/><path d="M371,295.114V115h82.1a6.046,6.046,0,0,0,5.9-6.15V58.405C459,30.867,436.638,8,409.12,8H92.043C65.6,8,44.079,29.53,44.079,55.655l-2.1,387.72a6.146,6.146,0,0,0,1.746,4.326,6.028,6.028,0,0,0,4.253,1.8s132.8.032,226.491.033A104.251,104.251,0,1,0,371,295.114ZM409.043,20h.067C430.028,20,447,37.5,447,58.415V103H371V58.55C371,37.6,387.953,21,408.89,20ZM54.012,437.533,56.079,55.688A35.957,35.957,0,0,1,92.043,20h284.48C365.773,30,359,43.344,359,58.56V295.21a103.375,103.375,0,0,0-28.514,6.16,5.816,5.816,0,0,0-5.512-3.37H87.979a6,6,0,1,0,0,12H312.7a94.048,94.048,0,0,0-30.916,28H87.979a6,6,0,1,0,0,12H274.135c-4.721,8-8.242,18-10.353,28H87.979a6,6,0,1,0,0,12H261.958c-.3,3-.456,6.2-.456,9.477a103.1,103.1,0,0,0,7.291,38.19C187.557,437.665,80.347,437.536,54.012,437.533ZM365.761,491.5a92.211,92.211,0,0,1-76.005-144.493c.047-.066.094-.132.139-.2A92.244,92.244,0,1,1,365.761,491.5Z"/><path d="M395.754,373.061l-39.616,39.615L335.79,392.128a6,6,0,0,0-8.527,8.443l24.591,24.742A5.9,5.9,0,0,0,356.1,427h.015a5.915,5.915,0,0,0,4.242-1.666L404.239,381.5a5.984,5.984,0,1,0-8.485-8.44Z"/></svg>
