<svg height="469pt" viewBox="0 -82 469.997 469" width="469pt" xmlns="http://www.w3.org/2000/svg"><path d="m432.972656 133.5h-26.128906l-19.800781-69.402344c-.851563-3.011718-3.597657-4.597656-6.734375-4.597656h-36.640625l-6.585938-24.4375c-.792969-3.128906-3.527343-5.382812-6.75-5.5625h-19.332031c-3.222656.179688-5.957031 2.429688-6.75 5.5625l-6.589844 24.4375h-19.660156v-51.875c.058594-1.84375-.625-3.636719-1.898438-4.972656-1.269531-1.339844-3.023437-2.113282-4.871093-2.152344h-264.203125c-3.898438.058594-7.02343775 3.230469-7.027344 7.125v247.433594c0 3.867187 3.160156 7.441406 7.027344 7.441406h21.578125c2.933593 23 23.269531 42.308594 47.863281 42.308594 24.589844 0 44.929688-19.308594 47.859375-42.308594h201.519531c2.933594 23 23.269532 42.308594 47.863282 42.308594 24.589843 0 44.925781-19.308594 47.859374-42.308594h41.402344c3.863282 0 7.023438-3.574219 7.023438-7.441406v-84.074219c.003906-20.402344-16.621094-37.484375-37.023438-37.484375zm22.863282 35h-21.835938v-20.492188c11.332031.523438 20.597656 9.214844 21.835938 20.492188zm-139.5-125h8.65625l4.160156 16h-16.972656zm58.679687 30 17.273437 60h-114.289062v-60zm-111.015625-59v166h-250v-166zm-250 180h250v54h-139.984375c-3.933594-23.195312-24.023437-40.167969-47.546875-40.167969-23.527344 0-43.617188 16.972657-47.550781 40.167969h-14.917969zm62.46875 95.871094c-18.910156 0-34.242188-15.328125-34.242188-34.238282 0-18.910156 15.332032-34.242187 34.242188-34.242187 18.90625 0 34.238281 15.332031 34.238281 34.242187-.023437 18.898438-15.339843 34.214844-34.238281 34.238282zm297.242188 0c-18.910157 0-34.242188-15.328125-34.242188-34.238282 0-18.910156 15.332031-34.242187 34.242188-34.242187 18.90625 0 34.238281 15.332031 34.238281 34.242187-.023438 18.898438-15.339844 34.214844-34.238281 34.238282zm47.550781-41.871094c-3.9375-23.191406-24.027344-40.160156-47.550781-40.160156-23.523438 0-43.613282 16.96875-47.550782 40.160156h-48.160156v-101h142v28c0 3.863281 3.132812 7 7 7h29v66zm0 0"/><path d="m130 169.558594c38.980469 0 70.578125-31.597656 70.578125-70.578125 0-38.976563-31.597656-70.574219-70.578125-70.574219-38.976562 0-70.574219 31.597656-70.574219 70.574219.042969 38.960937 31.613281 70.535156 70.574219 70.578125zm0-127.152344c31.246094 0 56.578125 25.328125 56.578125 56.574219 0 31.25-25.332031 56.578125-56.578125 56.578125s-56.578125-25.332032-56.574219-56.578125c.035157-31.230469 25.34375-56.539063 56.574219-56.574219zm0 0"/><path d="m108 107.5h14v13c0 3.863281 3.132812 7 7 7s7-3.136719 7-7v-13h15c3.867188 0 7-3.136719 7-7 0-3.867188-3.132812-7-7-7h-15v-16c0-3.867188-3.132812-7-7-7s-7 3.132812-7 7v16h-14c-3.867188 0-7 3.132812-7 7 0 3.863281 3.132812 7 7 7zm0 0"/></svg>