<?xml version="1.0"?>
<svg xmlns="http://www.w3.org/2000/svg" id="Layer_1" data-name="Layer 1" viewBox="0 0 512 512" width="512" height="512"><title>Check</title><path d="M384.829,385H280.89a8,8,0,0,0,0,16H384.829a8,8,0,0,0,0-16Z"/><path d="M280.89,367h29.73a8,8,0,0,0,0-16H280.89a8,8,0,0,0,0,16Z"/><path d="M352.4,18.265A7.827,7.827,0,0,0,346.632,16H84.2c-4.418,0-8.2,3.2-8.2,7.618V488.382C76,492.8,79.784,496,84.2,496H427.8c4.418,0,8.2-3.2,8.2-7.618V108.072a7.874,7.874,0,0,0-2.333-5.448ZM355,43.487,409.013,100H355ZM92,480V32H339v76.072A7.633,7.633,0,0,0,346.632,116H420V480Z"/><path d="M218.2,353.027l-30.622,28.905-13.529-13.891A8,8,0,1,0,162.582,379.2l19.024,19.533a8,8,0,0,0,11.223.236l36.349-34.31A8,8,0,0,0,218.2,353.027Z"/><path d="M196,310.249A65.751,65.751,0,1,0,261.751,376,65.826,65.826,0,0,0,196,310.249Zm0,115.5A49.751,49.751,0,1,1,245.751,376,49.807,49.807,0,0,1,196,425.751Z"/><path d="M384.829,235H280.89a8,8,0,0,0,0,16H384.829a8,8,0,0,0,0-16Z"/><path d="M280.89,217h29.73a8,8,0,0,0,0-16H280.89a8,8,0,0,0,0,16Z"/><path d="M196,160.249A65.751,65.751,0,1,0,261.751,226,65.826,65.826,0,0,0,196,160.249Zm0,115.5A49.751,49.751,0,1,1,245.751,226,49.807,49.807,0,0,1,196,275.751Z"/><path d="M218.627,203.373a8,8,0,0,0-11.314,0L196,214.686l-11.313-11.313a8,8,0,1,0-11.314,11.313L184.686,226l-11.313,11.314a8,8,0,1,0,11.314,11.313L196,237.314l11.313,11.313a8,8,0,1,0,11.314-11.313L207.314,226l11.313-11.314A8,8,0,0,0,218.627,203.373Z"/></svg>
