<?xml version="1.0"?>
<svg xmlns="http://www.w3.org/2000/svg" id="Layer_1" data-name="Layer 1" viewBox="0 0 512 512" width="512" height="512"><title>Cd</title><path d="M256,18.106A237.893,237.893,0,0,0,87.784,424.216,237.893,237.893,0,1,0,424.216,87.784,236.336,236.336,0,0,0,256,18.106ZM99.1,99.1a221.7,221.7,0,0,1,68.274-46.64l60.013,113.41a94.989,94.989,0,0,0-61.379,61.093L52.343,167.639A221.718,221.718,0,0,1,99.1,99.1ZM256,334.562A78.562,78.562,0,1,1,334.562,256,78.651,78.651,0,0,1,256,334.562ZM99.1,412.9A222.419,222.419,0,0,1,46.48,182.628l115.844,60.459A94.576,94.576,0,0,0,268.473,349.738L329.134,465.6A222.416,222.416,0,0,1,99.1,412.9Zm313.8,0a221.706,221.706,0,0,1-68.769,46.853L284.641,346.124a94.986,94.986,0,0,0,61.338-61.041l113.793,59.008A221.662,221.662,0,0,1,412.9,412.9Zm52.712-83.8L349.668,268.972A94.58,94.58,0,0,0,243.575,162.255L182.36,46.573A222.155,222.155,0,0,1,465.614,329.1Z"/><path d="M256,213.713A42.287,42.287,0,1,0,298.287,256,42.335,42.335,0,0,0,256,213.713Zm0,68.574A26.287,26.287,0,1,1,282.287,256,26.316,26.316,0,0,1,256,282.287Z"/></svg>
