<svg height="503pt" viewBox="-85 0 503 503.65433" width="503pt" xmlns="http://www.w3.org/2000/svg"><path d="m277.363281 363.90625c-2.539062-.082031-4.964843 1.078125-6.492187 3.109375l-41.457032 57.492187c-.148437.1875-.289062.386719-.417968.589844-9.082032 15.578125-8.984375 34.460938.265625 50.558594 9.835937 17.320312 28.226562 28.015625 48.144531 28 19.921875-.019531 38.292969-10.746094 48.097656-28.082031 9.203125-16.0625 9.285156-34.902344.210938-50.386719-.125-.214844-.257813-.421875-.402344-.621094l-41.453125-57.539062c-1.523437-2.039063-3.949219-3.203125-6.496094-3.121094zm34.265625 103.699219c-6.960937 12.367187-20.042968 20.019531-34.234375 20.03125-14.1875.007812-27.28125-7.628907-34.257812-19.984375-6.390625-11.121094-6.566407-23.582032-.5-34.242188l34.714843-48.234375 34.738282 48.398438c6.046875 10.566406 5.882812 22.953125-.460938 34.03125zm0 0"/><path d="m48.847656 254.90625h13.230469c2.800781 11.59375 11.722656 20.722656 23.25 23.785156v4.214844h-13.929687c-4.441407.015625-8.039063 3.605469-8.070313 8.042969v68.757812c.015625 4.472657 3.597656 8.109375 8.070313 8.199219h13.929687v44.683594c0 30.417968 25.082031 55.167968 55.5 55.167968s55.5-24.75 55.5-55.167968v-101.039063c0-20.15625 16.339844-36.5 36.5-36.5 20.15625 0 36.5 16.34375 36.5 36.5v35.957031c0 4.417969 3.582031 8 8 8s8-3.582031 8-8v-35.957031c0-28.992187-23.507813-52.5-52.5-52.5-28.996094 0-52.5 23.507813-52.5 52.5v101.039063c0 21.601562-17.902344 39.167968-39.5 39.167968-21.601563 0-39.5-17.570312-39.5-39.167968v-44.683594h14.480469c4.417968 0 7.519531-3.78125 7.519531-8.199219v-68.757812c0-4.417969-3.101563-8.042969-7.519531-8.042969h-14.480469v-4.214844c11.839844-2.707031 21.085937-11.945312 23.800781-23.785156h13.226563c26.953125-.0625 48.816406-21.847656 48.972656-48.800781v-124.199219c-.136719-26.992188-21.976563-48.84375-48.96875-49h-22.128906c1.160156-2.71875 1.71875-5.65625 1.648437-8.609375.011719-13.410156-10.851562-24.2851562-24.257812-24.296875s-24.28125 10.847656-24.292969 24.257812c0 3.089844.585937 6.648438 1.644531 8.648438h-22.125c-26.84375 0-48.519531 22.152344-48.519531 49v124.199219c-.054687 26.867187 21.65625 48.703125 48.519531 48.800781zm30.480469 97v-4h28v4zm28-20h-28v-33h28zm-13.726563-315.730469c4.570313 0 8.277344 3.703125 8.277344 8.273438-.003906 4.570312-3.707031 8.277343-8.277344 8.277343-4.570312 0-8.273437-3.707031-8.273437-8.277343.003906-4.566407 3.707031-8.269531 8.273437-8.273438zm0 247.636719c-6.105468-.128906-11.671874-3.527344-14.574218-8.90625h29.15625c-2.902344 5.375-8.472656 8.777344-14.582032 8.902344zm77.726563-57.59375c0 18.054688-14.636719 32.6875-32.6875 32.6875h-89.625c-18.054687 0-32.6875-14.632812-32.6875-32.6875v-124.625c0-18.050781 14.632813-32.6875 32.6875-32.6875h89.625c18.050781 0 32.6875 14.636719 32.6875 32.6875zm0 0"/><path d="m71.328125 144.90625h14v14c0 4.417969 3.582031 8 8 8s8-3.582031 8-8v-14h16c4.417969 0 8-3.582031 8-8s-3.582031-8-8-8h-16v-16c0-4.417969-3.582031-8-8-8s-8 3.582031-8 8v16h-14c-4.417969 0-8 3.582031-8 8s3.582031 8 8 8zm0 0"/></svg>