<svg height="462pt" viewBox="-14 0 462 462.373" width="462pt" xmlns="http://www.w3.org/2000/svg"><path d="m344.367188 250.164062c2.34375 2.34375 6.144531 2.34375 8.484374 0l10.484376-10.480468 10.484374 10.480468c1.511719 1.539063 3.730469 2.144532 5.8125 1.59375 2.082032-.554687 3.710938-2.179687 4.261719-4.265624.554688-2.082032-.054687-4.300782-1.589843-5.8125l-10.484376-10.480469 10.484376-10.484375c1.535156-1.511719 2.144531-3.730469 1.589843-5.8125-.550781-2.082032-2.179687-3.710938-4.261719-4.261719-2.082031-.554687-4.300781.054687-5.8125 1.589844l-10.484374 10.484375-10.484376-10.484375c-2.347656-2.3125-6.121093-2.296875-8.449218.035156-2.332032 2.328125-2.347656 6.101563-.035156 8.449219l10.484374 10.484375-10.484374 10.480469c-2.339844 2.34375-2.339844 6.144531 0 8.484374zm0 0"/><path d="m351.398438 89.878906c2.242187 2.429688 6.027343 2.585938 8.464843.355469l31.898438-29.222656c1.613281-1.441407 2.324219-3.636719 1.867187-5.75-.460937-2.109375-2.019531-3.8125-4.082031-4.453125-2.066406-.644532-4.3125-.125-5.890625 1.355468l-27.492188 25.179688-12.792968-13.871094c-2.246094-2.4375-6.042969-2.589844-8.476563-.34375-2.4375 2.246094-2.589843 6.042969-.34375 8.480469zm0 0"/><path d="m351.398438 409.878906c2.242187 2.429688 6.027343 2.585938 8.464843.355469l31.898438-29.222656c1.613281-1.441407 2.324219-3.636719 1.867187-5.75-.460937-2.109375-2.019531-3.8125-4.082031-4.453125-2.066406-.644532-4.3125-.125-5.890625 1.355468l-27.492188 25.179688-12.792968-13.871094c-2.246094-2.4375-6.042969-2.589844-8.480469-.34375s-2.589844 6.042969-.34375 8.480469zm0 0"/><path d="m232.113281 264.367188c1.496094 1.601562 3.746094 2.257812 5.867188 1.714843 2.125-.542969 3.785156-2.199219 4.328125-4.320312.542968-2.125-.113282-4.375-1.710938-5.871094l-18.699218-18.691406h38.453124v155.648437c0 3.3125 2.46875 6.351563 5.78125 6.351563h26.617188c3.828125 35 34.019531 63.171875 70.582031 63.171875 39.199219 0 70.980469-31.777344 70.980469-70.976563s-31.78125-70.976562-70.980469-70.976562c-37.6875 0-68.597656 29.78125-70.851562 66.78125h-20.128907v-150h20.253907c3.050781 36 33.601562 65.007812 70.730469 65.007812 39.210937 0 71-31.789062 71-71 0-39.214843-31.789063-71-71-71-37.121094 0-67.660157 28.988281-70.726563 64.988281h-20.257813v-149.996093h20.128907c2.238281 37 33.15625 66.839843 70.855469 66.839843 39.222656 0 71.019531-31.796874 71.019531-71.019531 0-39.222656-31.796875-71.019531-71.019531-71.019531-36.550782 0-66.734376 28.199219-70.578126 63.199219h-26.625c-3.3125 0-5.78125 3-5.78125 6.316406v155.683594h-40.570312l20.816406-20.824219c2.34375-2.34375 2.34375-6.144531 0-8.488281-2.339844-2.34375-6.140625-2.347657-8.484375-.003907l-30 30c-2.34375 2.34375-2.34375 6.140626 0 8.484376zm131.222657 67.832031c32.585937 0 59 26.414062 59 59 0 32.582031-26.414063 59-59 59-32.585938 0-59-26.417969-59-59 .035156-32.570313 26.429687-58.964844 59-59zm0-160c32.585937 0 59 26.414062 59 59 0 32.582031-26.414063 59-59 59-32.585938 0-59-26.417969-59-59 .035156-32.570313 26.429687-58.964844 59-59zm0-160c32.585937 0 59 26.414062 59 59 0 32.582031-26.414063 59-59 59-32.585938 0-59-26.417969-59-59 .035156-32.570313 26.429687-58.964844 59-59zm0 0"/><path d="m121.351562 69.382812c0-22.195312-17.992187-40.183593-40.1875-40.183593h-.628906c-22.191406 0-40.183594 17.988281-40.183594 40.183593v14.628907c0 22.195312 17.992188 40.1875 40.183594 40.1875h.628906c22.195313 0 40.1875-17.992188 40.1875-40.1875zm-12 14.628907c0 15.566406-12.621093 28.1875-28.1875 28.1875h-.628906c-15.566406 0-28.183594-12.621094-28.183594-28.1875v-14.628907c0-15.566406 12.617188-28.183593 28.183594-28.183593h.628906c15.566407 0 28.1875 12.617187 28.1875 28.183593zm0 0"/><path d="m.351562 254.210938c.0625 11.9375 4.941407 23.34375 13.53125 31.636718l6.230469 5.96875c5.875 5.652344 9.367188 13.339844 9.753907 21.480469l5.453124 114.167969c.15625 3.207031 2.796876 5.726562 6.003907 5.734375h82.203125c3.203125-.007813 5.839844-2.53125 5.992187-5.730469l5.445313-114.238281c.375-8.101563 3.824218-15.757813 9.644531-21.40625l6.308594-6.023438c8.519531-8.285156 13.359375-19.640625 13.433593-31.527343v-66.675782c1.035157-11.695312-2.90625-23.285156-10.855468-31.925781-7.949219-8.640625-19.171875-13.53125-30.914063-13.472656h-6.78125c-2.511719-.046875-4.777343 1.503906-5.644531 3.863281l-8.542969 23.710938-15.441406-16.453126c-1.144531-1.238281-2.761719-1.929687-4.445313-1.902343-1.679687.019531-3.277343.742187-4.398437 1.992187l-14.132813 15.789063-7.511718-22.964844c-.816406-2.445313-3.121094-4.078125-5.699219-4.035156h-7.894531c-11.738282-.058594-22.957032 4.832031-30.902344 13.476562-7.945312 8.640625-11.878906 20.230469-10.835938 31.921875zm81.558594-87.933594 8.019532 8.535156 8.921874 83.027344-16.519531 16.515625-16.515625-16.515625 8.976563-83.609375zm-61.871094-2.390625c5.648438-6.203125 13.660157-9.722657 22.050782-9.6875h3.53125l9.386718 28.726562c.734376 2.222657 2.703126 3.808594 5.03125 4.050781.441407.035157.886719.027344 1.324219-.035156l-7.785156 72.484375c-.195313 1.800781.4375 3.597657 1.722656 4.875l22.789063 22.789063c2.339844 2.34375 6.140625 2.34375 8.484375 0l22.789062-22.792969c1.285157-1.285156 1.917969-3.078125 1.722657-4.882813l-7.785157-72.5c.625.070313 1.253907.046876 1.867188-.078124 2.03125-.378907 3.714843-1.800782 4.429687-3.738282l10.421875-28.898437h2.5625c8.390625-.027344 16.402344 3.496093 22.054688 9.695312 5.652343 6.199219 8.421875 14.5 7.625 22.855469-.019531.199219.089843.347656.089843.550781v66.972657c-.066406 8.644531-3.59375 16.902343-9.800781 22.925781l-6.246093 6.019531c-8.015626 7.769531-12.769532 18.300781-13.296876 29.449219l-5.203124 108.53125h-70.753907l-5.171875-108.453125c-.519531-11.195313-5.308594-21.769532-13.382812-29.546875l-6.277344-5.976563c-6.253906-6.027344-9.8125-14.324218-9.867188-23.011718v-66.914063c.03125-.179687.054688-.367187.070313-.550781-.804687-8.355469 1.960937-16.660156 7.617187-22.859375zm0 0"/></svg>