<svg height="490pt" viewBox="0 -52 490 490" width="490pt" xmlns="http://www.w3.org/2000/svg"><path d="m481.820312 298h-13.820312v-248.917969c0-26.832031-21.488281-49.082031-48.316406-49.082031h-349.367188c-26.828125 0-48.316406 22.25-48.316406 49.082031v248.917969h-13.820312c-4.417969 0-8.179688 3.238281-8.179688 7.65625v31.261719c0 26.832031 22.007812 49.082031 48.839844 49.082031h392.320312c26.832032 0 48.839844-22.25 48.839844-49.082031v-31.261719c0-4.417969-3.761719-7.65625-8.179688-7.65625zm-443.820312-248.917969c0-18.007812 14.308594-33.082031 32.316406-33.082031h349.367188c18.007812 0 32.316406 15.074219 32.316406 33.082031v248.917969h-24v-246.578125c0-4.421875-3.363281-8.421875-7.78125-8.421875h-350.4375c-4.417969 0-7.78125 4-7.78125 8.421875v246.578125h-24zm338.980469 219.09375c-.09375-10.910156-8.980469-19.699219-19.890625-19.675781l-4.695313-.011719c-.984375.019531-1.964843.113281-2.933593.277344-.632813-9.449219-8.492188-16.78125-17.960938-16.765625h-8.835938c-1.785156 0-3.558593.261719-5.265624.785156-3.359376-4.871094-8.898438-7.785156-14.816407-7.785156h-8.917969c-.664062.019531-1.324218.078125-1.980468.171875.015625-5.472656.03125-11.171875.042968-16.171875h66.5625c4.417969 0 7.710938-3.832031 7.710938-8.25v-115.578125c.070312-2.109375-.703125-4.160156-2.152344-5.695313-1.449218-1.535156-3.449218-2.425781-5.558594-2.476562h-227.308593c-4.449219.082031-8.003907 3.722656-7.980469 8.171875v115.578125c-.027344 4.464844 3.519531 8.128906 7.980469 8.25h116.597656c-.011719 15-.007813 32.691406 0 49.511719-10.855469-9.570313-27.070313-9.796875-38.191406-.539063l-4.101563 3.117188c-3.148437 2.46875-4.046875 6.859375-2.117187 10.367187l26.957031 48.542969h-6.625c-9.140625-.066406-17.839844-3.929688-24.015625-10.667969l-8.25-8.855469c-1.527344-1.613281-3.660156-2.511718-5.882813-2.476562h-107.351562v-239h334v239h-34.992188c0-1 0-1.300781 0-1.8125.019532-9.03125.019532-9.574219-.027343-28.011719zm-85.203125-83.898437c-.011719-10.878906-8.753906-19.277344-19.894532-19.277344h-4.382812c-3.382812-.097656-6.738281.652344-9.757812 2.183594 2.789062-3.203125 4.253906-7.886719 4.253906-13.472656v-36.0625c0-2.742188-2.609375-4.582032-6.5-4.582032-3.945313 0-6.5 1.800782-6.5 4.582032v36.0625c0 .316406-.007813.621093-.027344.917968-.007812.164063-.027344.316406-.042969.472656-.015625.121094-.023437.25-.039062.367188-.507813 3.765625-2.773438 5.597656-6.890625 5.597656-4.707032 0-7-2.40625-7-7.359375v-36.058593c0-2.742188-2.609375-4.582032-6.5-4.582032-3.945313 0-6.5 1.800782-6.5 4.582032v36.0625c0 12.34375 7.101562 19.144531 20 19.144531 3.773437.101562 7.515625-.667969 10.9375-2.253907-3.429688 3.613282-5.335938 8.40625-5.328125 13.390626-.003907 2.675781-.011719 6.007812-.015625 9.007812h-108.589844v-100h211v100h-58.238281c.011719-5 .015625-7.738281.015625-8.726562zm-57.777344-30.566406c0 .328124.011719.652343.03125.964843-.019531-.3125-.03125-.632812-.03125-.964843zm.101562 1.660156c.003907.058594.007813.121094.015626.183594-.003907-.0625-.007813-.125-.015626-.183594zm24.292969 131.488281c3.125-1.171875 5.191407-4.160156 5.1875-7.5-.023437-31.898437-.027343-73.476563.027344-95.207031 0-2.339844 2.023437-3.15625 3.894531-3.15625h4.378906c1.875 0 3.890626.820312 3.898438 3.167968 0 1.457032-.011719 7.898438-.03125 16.59375 0 .039063-.007812.011719-.007812.050782 0 .039062.003906.039062.003906.074218-.050782 22.25.019531 58.175782.019531 58.679688 0 .371094.238281.71875.238281 1.074219v3.734375c0 4.417968 3.582032 8 8 8 4.417969 0 8-3.582032 8-8v-21.5c0-1.101563.5625-1.875 1.664063-1.875h8.917969c1.101562 0 2.417968.773437 2.417968 1.875v28.5c0 4.417968 3.582032 8 8 8 4.417969 0 8-3.582032 8-8v-21.5c0-1.101563.5625-1.875 1.664063-1.875h8.832031c1.101562 0 1.5.773437 1.5 1.875v21.5c0 4.417968 3.582031 8 8 8s8-3.582032 8-8v-3.234375c1-1.269531.613281-2.355469 1.238281-2.984375.566407-.476563 1.292969-.71875 2.03125-.667969l4.757813.011719c1.015625-.03125 2 .34375 2.738281 1.039062.734375.699219 1.160156 1.664063 1.183594 2.679688.046875 18.390625.0625 18.757812.042969 27.765625-.007813 4.808593-.015626 12.328125-.027344 26.097656-.019532 16.921875-13.738282 30.921875-30.59375 30.921875h-45.730469c-11.148437-.128906-21.359375-6.253906-26.726563-16.023438l-37.429687-67.328124c5.519531-3.960938 13.140625-3.117188 17.65625 1.953124l11.414063 13.058594c2.195312 2.503906 5.722656 3.382813 8.839843 2.199219zm215.605469 50.058594c0 18.011719-14.828125 33.082031-32.839844 33.082031h-392.320312c-18.011719 0-32.839844-15.070312-32.839844-33.082031v-22.917969h165.847656l5.875 6.347656c9.226563 9.972656 22.191406 15.644532 35.777344 15.652344h15.535156l4.898438 8.90625c8.210937 14.804688 23.777344 24.019531 40.707031 24.09375h45.730469c25.742187-.097656 46.570312-20.980469 46.597656-46.722656 0-3.042969.007812-6.277344.011719-8.277344h97.019531zm0 0"/><path d="m204.019531 140.222656c3.332031-2.585937 5.023438-6.5 5.023438-11.628906 0-9.820312-5.511719-14.59375-16.847657-14.59375h-14.871093c-3.761719 0-5.9375 1.136719-6.257813 3.199219-.042968.175781-.066406.351562-.066406.53125v50.085937c0 2.664063 3.074219 5.1875 6.324219 5.1875h16.335937c10.539063-.003906 16.339844-6.554687 16.339844-18.445312v-1.621094c0-7.972656-3.230469-11.117188-5.980469-12.714844zm-11.5-15.140625c2.363281.382813 3.652344 2.066407 3.652344 4.839844 0 3.371094-1.570313 5.078125-4.664063 5.078125h-7.507812v-10h7.425781c.363281 0 .730469.027344 1.089844.082031zm-.941406 35.917969h-7.578125v-15h7.578125c4.101563 0 5.421875 1.574219 5.421875 6.476562v1.234376c0 5.175781-1.570312 7.289062-5.421875 7.289062zm2.046875-25.316406c-.242188.078125-.484375.144531-.734375.191406.25-.050781.492187-.113281.734375-.191406zm-1 .230468c-.371094.054688-.75.085938-1.125.085938.378906-.003906.753906-.03125 1.128906-.085938zm-.242188 26.046876c-.269531.027343-.539062.039062-.808593.039062.289062 0 .554687-.019531.8125-.039062zm0 0"/><path d="m301 167.734375v-19.304687c.023438-.023438.046875-.046876.070312-.074219.09375-.089844.175782-.1875.25-.292969l15.964844-27.5625c.320313-.535156.496094-1.148438.5-1.773438 0-3.644531-4.773437-5.660156-8.074218-5.660156-1.890626-.074218-3.625 1.046875-4.332032 2.800782l-10.457031 19.753906-10.378906-19.722656c-.707031-1.800782-2.492188-2.945313-4.425781-2.832032-3.320313 0-8.125 2.019532-8.125 5.664063.019531.558593.144531 1.105469.367187 1.617187l15.71875 27.550782c-.050781.132812-.078125.277343-.078125.417968v19.417969c0 3.0625 3.269531 4.660156 6.5 4.660156 3.828125 0 6.5-1.917969 6.5-4.660156zm0 0"/></svg>