<svg height="466pt" viewBox="0 -30 466.00012 466" width="466pt" xmlns="http://www.w3.org/2000/svg"><path d="m8.011719 346h49.414062c-4.875 6.460938-7.484375 14.34375-7.425781 22.433594-.007812 20.988281 17 38.003906 37.988281 38.011718 20.984375.007813 38.003907-17 38.011719-37.988281.058594-8.097656-2.550781-15.988281-7.425781-22.457031h228.851562c-4.875 6.460938-7.484375 14.34375-7.425781 22.433594-.007812 20.988281 17 38.003906 37.988281 38.011718 20.984375.007813 38.003907-17 38.011719-37.988281.058594-8.097656-2.550781-15.988281-7.425781-22.457031h49.414062c4.460938-.09375 8.023438-3.738281 8.011719-8.199219v-45.5c.015625-4.480469-3.535156-8.15625-8.011719-8.300781h-27.28125l18.261719-157h9.019531c4.460938-.09375 8.023438-3.738281 8.011719-8.199219v-55.5c.015625-4.480469-3.535156-8.15625-8.011719-8.300781h-10.886719l-19.949218-27.429688c-12.640625-17.40625-32.886719-27.6679682-54.398438-27.570312h-279.5c-21.515625-.0976562-41.761718 10.164062-54.402344 27.570312l-19.953124 27.429688h-10.886719c-4.476563.144531-8.027344 3.820312-8.011719 8.300781v55.5c-.0117188 4.460938 3.550781 8.105469 8.011719 8.199219h9.019531l18.261719 157h-27.28125c-4.476563.144531-8.027344 3.820312-8.011719 8.300781v45.5c-.0117188 4.460938 3.550781 8.105469 8.011719 8.199219zm79.988281 44.332031c-12.148438 0-22-9.847656-22-22 0-12.148437 9.851562-22 22-22s22 9.851563 22 22c-.015625 12.144531-9.855469 21.988281-22 22zm290 0c-12.148438 0-22-9.847656-22-22 0-12.148437 9.851562-22 22-22s22 9.851563 22 22c-.015625 12.144531-9.855469 21.988281-22 22zm-326.160156-353.421875c9.628906-13.230468 25.042968-21.011718 41.410156-20.910156h279.5c16.363281-.101562 31.777344 7.679688 41.40625 20.910156l13.242188 18.089844h-388.796876zm-35.839844 34.089844h434v40h-434zm17.140625 56h399.71875l-18.257813 157h-363.203124zm-17.140625 173h434v30h-434zm0 0"/></svg>