<?xml version="1.0"?>
<svg xmlns="http://www.w3.org/2000/svg" id="Layer_1" data-name="Layer 1" viewBox="0 0 512 512" width="512" height="512"><title>Atom</title><path d="M42.389,378.05l0,.007h0a79.485,79.485,0,0,0,48.416,37.5,79.549,79.549,0,0,0,60.757-7.72L176,393.876v28.132A80.072,80.072,0,0,0,256,502H256a80.072,80.072,0,0,0,80-79.992V393.876l24.434,13.957a79.566,79.566,0,0,0,39.571,10.576,80.443,80.443,0,0,0,21.184-2.856,79.487,79.487,0,0,0,48.417-37.5l0-.007a80.1,80.1,0,0,0-29.776-109.165L417.286,256l22.548-12.884a80.017,80.017,0,0,0-79.4-138.949L336,118.124V89.992a80,80,0,1,0-160,0v28.132l-24.434-13.957a80.017,80.017,0,0,0-79.4,138.949L94.714,256,72.166,268.884A80.1,80.1,0,0,0,42.389,378.05ZM324,422.008A68.058,68.058,0,0,1,256,490H256a68.058,68.058,0,0,1-68-67.992V387.019l68-38.863,68,38.863ZM188,216.527l68-38.863,68,38.863v78.946l-68,38.863-68-38.863Zm-12,72.089L118.917,256,176,223.384Zm12-85.909V138.8l55.922,31.953Zm80.078-31.953L324,138.8v63.906ZM336,223.384,393.083,256,336,288.616Zm-12,85.909V373.2l-55.922-31.953Zm-80.078,31.953L188,373.2V309.293ZM433.881,279.3A68.089,68.089,0,0,1,459.192,372.1l0,.007h0a68.059,68.059,0,0,1-92.8,25.311L336,380.056V302.437l69.184-39.527ZM366.387,114.586A68.017,68.017,0,0,1,433.88,232.7l-28.7,16.393L336,209.563V131.944ZM188,89.992a68,68,0,1,1,136,0v34.989l-68,38.863-68-38.863ZM78.119,232.7a68.018,68.018,0,0,1,67.494-118.111L176,131.944v77.619L106.816,249.09Zm28.7,30.213L176,302.437v77.619l-30.387,17.358a68.1,68.1,0,0,1-92.8-25.311l-.006-.007A68.089,68.089,0,0,1,78.124,279.3Z"/><path d="M256,285.149A29.149,29.149,0,1,0,226.851,256,29.182,29.182,0,0,0,256,285.149Zm0-46.3A17.149,17.149,0,1,1,238.851,256,17.168,17.168,0,0,1,256,238.851Z"/></svg>
