<?xml version="1.0" encoding="iso-8859-1"?>
<!-- Generator: Adobe Illustrator 19.0.0, SVG Export Plug-In . SVG Version: 6.00 Build 0)  -->
<svg version="1.1" id="Capa_1" xmlns="http://www.w3.org/2000/svg" xmlns:xlink="http://www.w3.org/1999/xlink" x="0px" y="0px"
	 viewBox="0 0 511.994 511.994" style="enable-background:new 0 0 511.994 511.994;" xml:space="preserve">
<g>
	<g>
		<path d="M492.631,115.36c-11.545-6.174-25.431-5.534-36.016,1.525l-109.804,70.902l20.417,31.63l107.125-69.17v211.526
			l-107.25-68.022l-20.16,31.787l109.44,69.415c5.873,3.915,12.656,5.892,19.476,5.892c5.735,0,11.501-1.393,16.772-4.223
			c11.94-6.387,19.363-18.805,19.363-32.395V147.755C511.994,134.165,504.571,121.754,492.631,115.36z"/>
	</g>
</g>
<g>
	<g>
		<path d="M345.098,103.213H31.373C14.074,103.213,0,117.286,0,134.585v242.824c0,17.299,14.074,31.372,31.373,31.372h313.725
			c17.299,0,31.373-14.074,31.373-31.372V134.585C376.471,117.286,362.397,103.213,345.098,103.213z M338.824,371.134H37.647V140.86
			h301.177V371.134z"/>
	</g>
</g>
<g>
	<g>
		<path d="M217.098,186.036H94.745c-10.397,0-18.824,8.427-18.824,18.823c0,10.397,8.427,18.824,18.824,18.824h122.353
			c10.397,0,18.824-8.427,18.824-18.824S227.495,186.036,217.098,186.036z"/>
	</g>
</g>
<g>
</g>
<g>
</g>
<g>
</g>
<g>
</g>
<g>
</g>
<g>
</g>
<g>
</g>
<g>
</g>
<g>
</g>
<g>
</g>
<g>
</g>
<g>
</g>
<g>
</g>
<g>
</g>
<g>
</g>
</svg>
