<?xml version="1.0"?>
<svg xmlns="http://www.w3.org/2000/svg" id="Layer_1" data-name="Layer 1" viewBox="0 0 512 512" width="512" height="512"><title>Chat</title><path d="M34.477,440.193a7.5,7.5,0,0,0,3.193.714,8.013,8.013,0,0,0,5.217-2.125L118.924,372H474.438A7.4,7.4,0,0,0,482,364.288V79.093c0-4.419-3.143-8.093-7.562-8.093H37.562C33.143,71,30,74.674,30,79.093V432.907A7.8,7.8,0,0,0,34.477,440.193ZM46,87H466V356H115.916a7.6,7.6,0,0,0-5.051,2.125L46,415.267Z"/><path d="M127,230H385a8,8,0,0,0,0-16H127a8,8,0,0,0,0,16Z"/><path d="M127,173H271a8,8,0,0,0,0-16H127a8,8,0,0,0,0,16Z"/><path d="M127,287H385a8,8,0,0,0,0-16H127a8,8,0,0,0,0,16Z"/></svg>
