<?xml version="1.0"?>
<svg xmlns="http://www.w3.org/2000/svg" id="Layer_1" data-name="Layer 1" viewBox="0 0 512 512" width="512" height="512"><title>Backpack</title><path d="M460.252,295H395V172h9.79a6.53,6.53,0,0,0,6.21-6.394V105.877A49.082,49.082,0,0,0,362.126,57H333V48.815C333,33.744,320.4,21,305.33,21H206.67C191.6,21,179,33.744,179,48.815V57H149.874A49.082,49.082,0,0,0,101,105.877v59.729A6.53,6.53,0,0,0,107.21,172H117V295H51.748A5.845,5.845,0,0,0,46,301.063v112.4A37.431,37.431,0,0,0,83.746,451H117v1.52c0,20.952,17.255,38.48,38.207,38.48H356.793C377.745,491,395,473.472,395,452.52V451h33.254A37.431,37.431,0,0,0,466,413.467v-112.4A5.845,5.845,0,0,0,460.252,295ZM191,48.815A16.061,16.061,0,0,1,206.67,33h98.66A16.061,16.061,0,0,1,321,48.815V57H191Zm-78,57.062A37.069,37.069,0,0,1,149.874,69H362.126A37.069,37.069,0,0,1,399,105.877V160H356V142.142c0-3.314-2.293-6.142-5.607-6.142H310.929A6.063,6.063,0,0,0,305,142.142V160H207V142.142A6.063,6.063,0,0,0,201.071,136H161.607c-3.314,0-5.607,2.828-5.607,6.142V160H113Zm204,59.739V148h27v40A12.71,12.71,0,0,1,331.2,201h-1.067a12.98,12.98,0,0,1-13.128-13ZM168,148h27v16.177c0,.459-.178.936-.178,1.429s.178.971.178,1.43v20.969a12.98,12.98,0,0,1-13.128,13h-1.067a12.71,12.71,0,0,1-12.805-13Zm-12,24v16a24.721,24.721,0,0,0,24.805,25h1.067a24.994,24.994,0,0,0,25.128-25V172h98v16a24.994,24.994,0,0,0,25.128,25H331.2a24.721,24.721,0,0,0,24.805-25V172h27v93H129V172ZM83.746,439A25.419,25.419,0,0,1,58,413.467V307h59V439ZM383,452.52c0,14.334-11.872,26.48-26.207,26.48H155.207C140.872,479,129,466.854,129,452.52V277H383V452.52Zm71-39.053A25.419,25.419,0,0,1,428.254,439H395V307h59Z"/><path d="M360,342a6,6,0,0,0-6-6H157a6,6,0,0,0-6,6V446a6,6,0,0,0,6,6H354a6,6,0,0,0,6-6Zm-11,98H163V348H349Z"/></svg>
