<?xml version="1.0"?>
<svg xmlns="http://www.w3.org/2000/svg" id="Layer_1" data-name="Layer 1" viewBox="0 0 512 512" width="512" height="512"><title>File</title><path d="M347.683,28.594A8.22,8.22,0,0,0,342.016,26H89.028C84.61,26,81,30.077,81,34.495v443.01c0,4.418,3.61,8.5,8.028,8.5H422.972c4.418,0,8.028-4.077,8.028-8.5V115.451a7.989,7.989,0,0,0-2.36-5.66ZM350,53.809,403.658,107H350ZM415,470H97V42H334v73.451c0,4.419,3.6,7.549,8.016,7.549H415Z"/><path d="M256,165.868A110.132,110.132,0,1,0,366.132,276,110.257,110.257,0,0,0,256,165.868Zm0,204.264A94.132,94.132,0,1,1,350.132,276,94.239,94.239,0,0,1,256,370.132Z"/><path d="M256,234.482a18.47,18.47,0,0,1,18.449,18.45,8,8,0,0,0,16,0A34.5,34.5,0,0,0,264,219.43V212a8,8,0,0,0-16,0v7.43a34.446,34.446,0,0,0,8,67.951,18.45,18.45,0,1,1-18.449,18.45,8,8,0,0,0-16,0A34.5,34.5,0,0,0,248,339.332V348a8,8,0,0,0,16,0v-8.668a34.446,34.446,0,0,0-8-67.951,18.45,18.45,0,0,1,0-36.9Z"/></svg>
