<?xml version="1.0"?>
<svg xmlns="http://www.w3.org/2000/svg" id="Layer_1" data-name="Layer 1" viewBox="0 0 512 512" width="512" height="512"><title>Delivery</title><path d="M451.7,157.065,260.661,19.508a7.987,7.987,0,0,0-9.342,0L60.3,157.065a7.97,7.97,0,0,0-3.3,6.492V486a7.954,7.954,0,0,0,7.945,8h382.11A7.954,7.954,0,0,0,455,486V163.557A7.973,7.973,0,0,0,451.7,157.065ZM439,478H73V167.655l183-131.8,183,131.8Z"/><path d="M183.255,230.8l-28.209,45.332A27.645,27.645,0,0,0,151,290.912V416.9c0,4.419,3.189,8.1,7.607,8.1H353.393c4.418,0,7.607-3.681,7.607-8.1V290.912a27.557,27.557,0,0,0-4.046-14.755L328.647,230.8a7.883,7.883,0,0,0-6.68-3.8H190.033A8.047,8.047,0,0,0,183.255,230.8ZM317.541,243l21.6,35H287.474l-6.68-35ZM280.683,354.8a8.435,8.435,0,0,0,5.264-1.841A8.156,8.156,0,0,0,289,346.8V294h56V409H167V294h53v42.908a8.14,8.14,0,0,0,6.672,7.861l52.489,9.889A8.424,8.424,0,0,0,280.683,354.8ZM244.9,243H264.5l6.679,35H238.063ZM236,294h37v43.146l-37-6.87Zm-7.408-51-6.842,35h-48.9l21.6-35Z"/></svg>
