<svg height="460pt" viewBox="-22 0 460 460.00049" width="460pt" xmlns="http://www.w3.org/2000/svg"><path d="m179 122c0-4.417969-3.582031-8-8-8h-51c-4.417969 0-8 3.582031-8 8v66c0 4.417969 3.582031 8 8 8h51c4.417969 0 8-3.582031 8-8zm-16 58h-35v-50h35zm0 0"/><path d="m98 122c0-4.417969-3.582031-8-8-8h-51c-4.417969 0-8 3.582031-8 8v66c0 4.417969 3.582031 8 8 8h51c4.417969 0 8-3.582031 8-8zm-16 58h-35v-50h35zm0 0"/><path d="m259 122c0-4.417969-3.582031-8-8-8h-51c-4.417969 0-8 3.582031-8 8v66c0 4.417969 3.582031 8 8 8h51c4.417969 0 8-3.582031 8-8zm-15 58h-36v-50h36zm0 0"/><path d="m152.773438 257.898438c-1.4375-2.386719-4.007813-3.863282-6.792969-3.898438h-.035157c-2.773437.027344-5.339843 1.480469-6.792968 3.84375l-31.976563 51.402344c-8.003906 12.804687-9.089843 28.757812-2.902343 42.53125 6.1875 13.773437 18.839843 23.550781 33.726562 26.070312l.011719 23.035156c-.003907 4.4375 3.5625 8.058594 8 8.117188 4.445312-.054688 8.015625-3.679688 8-8.121094l-.011719-23.101562c14.644531-2.722656 27.011719-12.472656 33.078125-26.074219 6.0625-13.605469 5.054687-29.320313-2.707031-42.03125zm-27.941407 96-.027343-.027344c-9.664063-9.59375-11.351563-24.613282-4.0625-36.113282l17.214843-27.648437.039063 71.410156c-4.988282-1.320312-9.535156-3.949219-13.164063-7.621093zm41.441407.191406c-3.441407 3.375-7.65625 5.851562-12.277344 7.214844l-.039063-70.703126 16.738281 27.390626c7.058594 11.605468 5.226563 26.539062-4.421874 36.097656zm0 0"/><path d="m376.859375 123.25c-.582031 0-1.15625.019531-1.730469.042969l16.433594-24.6875c2.394531-3.675781 1.382812-8.59375-2.269531-11.027344-3.652344-2.429687-8.582031-1.464844-11.046875 2.160156l-31.777344 47.734375c-7.734375 9.222656-10.851562 21.46875-8.46875 33.269532v218.257812h-47v-341.113281c0-26.457031-21.457031-47.902344-47.914062-47.886719h-195.585938c-12.660156.0078125-24.796875 5.070312-33.714844 14.058594-8.914062 8.992187-13.878906 21.167968-13.785156 33.828125v404.226562c0 4.417969 3.085938 7.886719 7.5 7.886719h275.582031c2.101563.023438 4.125-.800781 5.613281-2.28125 1.488282-1.484375 2.320313-3.503906 2.304688-5.605469v-47.113281h55c4.417969 0 8-3.582031 8-8v-201.753906c13.972656 9.867187 32.699219 9.660156 46.445312-.519532 13.746094-10.175781 19.414063-28.023437 14.054688-44.269531-5.363281-16.242187-20.539062-27.214843-37.640625-27.210937zm-360.859375-22.25h259v107h-259zm31.5-85h195.582031c8.464844-.011719 16.585938 3.339844 22.574219 9.324219 5.988281 5.980469 9.351562 14.097656 9.34375 22.5625v37.113281h-259v-37.113281c-.097656-8.417969 3.175781-16.527344 9.09375-22.519531 5.917969-5.988282 13.988281-9.363282 22.40625-9.367188zm-31.5 428v-220h259v171.910156c0 .355469-.082031.71875-.082031 1.089844s.082031.734375.082031 1.089844v45.910156zm360.859375-257.46875c-10.726563-.015625-20.105469-7.238281-22.859375-17.605469v-9.359375c0-2.957031.875-5.851562 2.515625-8.3125l2.761719-4.148437c7.253906-8.078125 19.074218-10.175781 28.664062-5.089844 9.589844 5.089844 14.480469 16.054687 11.855469 26.589844-2.621094 10.535156-12.082031 17.925781-22.9375 17.925781zm0 0"/></svg>