<svg height="472pt" viewBox="-47 0 472 472.27243" width="472pt" xmlns="http://www.w3.org/2000/svg"><path d="m288.679688 156.347656c0-54.824218-44.441407-99.265625-99.265626-99.265625-54.824218 0-99.265624 44.441407-99.265624 99.265625 0 54.824219 44.441406 99.265625 99.265624 99.265625 54.796876-.0625 99.203126-44.46875 99.265626-99.265625zm-186.53125 0c0-48.195312 39.070312-87.265625 87.265624-87.265625 48.195313 0 87.265626 39.070313 87.265626 87.265625 0 48.195313-39.070313 87.265625-87.265626 87.265625-48.171874-.054687-87.210937-39.09375-87.265624-87.265625zm0 0"/><path d="m232.90625 156.347656c0-24.019531-19.472656-43.492187-43.492188-43.492187-24.019531 0-43.492187 19.472656-43.492187 43.492187 0 24.019532 19.472656 43.492188 43.492187 43.492188 24.007813-.027344 43.464844-19.484375 43.492188-43.492188zm-74.984375 0c0-17.394531 14.097656-31.492187 31.492187-31.492187 17.390626 0 31.492188 14.097656 31.492188 31.492187 0 17.390625-14.101562 31.492188-31.492188 31.492188-17.386718-.019532-31.472656-14.109375-31.492187-31.492188zm0 0"/><path d="m376.828125 428.5c1.785156-1.699219 2.34375-4.316406 1.417969-6.601562l-73.097656-180.121094c1.050781-.527344 2.171874-.910156 3.328124-1.132813l7.207032-1.402343c7.679687-1.492188 14.207031-6.523438 17.605468-13.570313 3.402344-7.046875 3.28125-15.285156-.324218-22.226563l-3.421875-6.589843c-2.90625-5.558594-1.351563-12.402344 3.675781-16.15625l6.027344-4.527344c6.242187-4.691406 9.917968-12.050781 9.910156-19.859375-.003906-7.8125-3.6875-15.164062-9.9375-19.847656l-5.976562-4.476563c-5.039063-3.75-6.601563-10.605469-3.691407-16.167969l3.410157-6.570312c3.609374-6.941406 3.730468-15.179688.328124-22.226562-3.402343-7.046876-9.925781-12.078126-17.609374-13.570313l-7.207032-1.402344c-6.179687-1.179687-10.574218-6.691406-10.359375-12.980469l.234375-7.414062c.246094-7.824219-3.214844-15.304688-9.335937-20.183594-6.121094-4.878906-14.1875-6.585937-21.757813-4.601562l-7.152344 1.875c-6.082031 1.609375-12.425781-1.445313-14.960937-7.203125l-3.027344-6.800781c-3.175781-7.152344-9.539062-12.386719-17.171875-14.121094-7.628906-1.738282-15.632812.222656-21.589844 5.296875l-5.632812 4.789062c-4.78125 4.097657-11.832031 4.097657-16.613281 0l-5.632813-4.789062c-5.957031-5.070313-13.960937-7.035157-21.589844-5.296875-7.628906 1.738281-13.992187 6.96875-17.167968 14.121094l-3.027344 6.808593c-2.535156 5.753907-8.878906 8.808594-14.957031 7.199219l-7.15625-1.878906c-7.570313-1.984375-15.636719-.277344-21.757813 4.601562s-9.582031 12.359375-9.335937 20.179688l.234375 7.417968c.214844 6.289063-4.183594 11.800782-10.363282 12.980469l-7.207031 1.402344c-7.679687 1.492187-14.207031 6.523437-17.609375 13.570313-3.398437 7.046874-3.277344 15.285156.328125 22.226562l3.414063 6.570312c2.910156 5.566407 1.34375 12.417969-3.691406 16.167969l-5.976563 4.476563c-6.253906 4.683594-9.9375 12.035156-9.941406 19.847656-.003907 7.808594 3.667969 15.167969 9.914062 19.859375l6.027344 4.527344c5.023437 3.753906 6.582031 10.597656 3.675781 16.15625l-3.421875 6.589843c-3.605469 6.941407-3.726562 15.179688-.328125 22.226563 3.402344 7.046875 9.929688 12.078125 17.609375 13.570313l7.207031 1.402343c1.191407.230469 2.347657.632813 3.425782 1.1875l-73.199219 180.066407c-.929687 2.28125-.367187 4.898437 1.414063 6.597656 1.785156 1.699218 4.421874 2.140625 6.660156 1.105468l68.867187-31.808593 27.011719 70.75c.878906 2.28125 3.09375 3.769531 5.539062 3.726562h.070313c2.414063.058594 4.621094-1.371093 5.554687-3.597656l68.851563-168.851563c3.121094-1.277343 6.621094-1.265624 9.734375.035157l68.847656 168.800781c.9375 2.230469 3.136719 3.664062 5.558594 3.613281h.070312c2.441407.042969 4.652344-1.445312 5.535157-3.726562l27.011719-70.816407 68.867187 31.84375c2.226563 1.042969 4.867187.617188 6.65625-1.070312zm-266.5 21.6875-23.878906-62.671875c-.59375-1.550781-1.804688-2.789063-3.34375-3.417969-1.539063-.628906-3.269531-.589844-4.777344.109375l-60.90625 28.128907 63.191406-155.445313-.128906 4.148437c-.246094 7.824219 3.214844 15.304688 9.335937 20.183594 6.121094 4.878906 14.183594 6.582032 21.757813 4.597656l7.152344-1.871093c6.078125-1.613281 12.425781 1.4375 14.960937 7.195312l3.023438 6.808594c5.132812 11.515625 18.074218 17.371094 30.113281 13.625zm66.402344-159.761719c-.109375.066407-.214844.132813-.320313.199219-1.078125.660156-2.105468 1.402344-3.074218 2.21875l-5.632813 4.789062c-3.078125 2.621094-7.210937 3.632813-11.152344 2.738282-3.9375-.898438-7.226562-3.601563-8.867187-7.292969l-3.027344-6.808594c-4.910156-11.140625-17.199219-17.054687-28.96875-13.929687l-7.152344 1.871094c-3.914062 1.027343-8.078125.144531-11.238281-2.375-3.160156-2.519532-4.949219-6.382813-4.820313-10.421876l.230469-7.417968c.417969-12.171875-8.097656-22.835938-20.0625-25.125l-7.207031-1.398438c-3.96875-.773437-7.339844-3.375-9.097656-7.015625-1.757813-3.640625-1.691406-7.898437.171875-11.484375l3.425781-6.589844c5.625-10.761718 2.609375-24.015624-7.121094-31.28125l-6.027344-4.527343c-3.226562-2.421875-5.121093-6.222657-5.121093-10.257813.003906-4.035156 1.90625-7.832031 5.132812-10.25l5.980469-4.476562c9.75-7.261719 12.777344-20.53125 7.144531-31.300782l-3.414062-6.570312c-1.859375-3.585938-1.921875-7.839844-.167969-11.480469 1.757812-3.636719 5.128906-6.234375 9.09375-7.007812l7.207031-1.402344c11.96875-2.285156 20.484375-12.957031 20.0625-25.132813l-.230469-7.414062c-.125-4.039062 1.660157-7.90625 4.820313-10.425781 3.164063-2.519531 7.328125-3.398438 11.238281-2.375l7.152344 1.875c11.769531 3.125 24.0625-2.789063 28.96875-13.933594l3.023438-6.808594c1.640624-3.691406 4.929687-6.394531 8.867187-7.292969 3.941406-.898437 8.074219.117188 11.152344 2.738282l5.632812 4.792968c9.253907 7.929688 22.910157 7.929688 32.167969 0l5.628906-4.792968c3.078125-2.621094 7.210938-3.632813 11.152344-2.738282 3.941406.898438 7.226562 3.601563 8.867188 7.296876l3.023437 6.808593c4.910156 11.140625 17.199219 17.050781 28.96875 13.929688l7.152344-1.875c3.914062-1.023438 8.078125-.140625 11.238281 2.378906s4.949219 6.382813 4.820312 10.421875l-.230468 7.414062c-.421875 12.179688 8.09375 22.847657 20.0625 25.136719l7.207031 1.398438c3.964844.773437 7.335937 3.371093 9.09375 7.011719 1.757813 3.636718 1.695313 7.890624-.167969 11.480468l-3.414062 6.566406c-5.632813 10.773438-2.601563 24.042969 7.148437 31.300782l5.976563 4.476562c3.226562 2.417969 5.128906 6.214844 5.132812 10.25s-1.894531 7.835938-5.121094 10.257813l-6.027343 4.527343c-9.730469 7.261719-12.746094 20.519532-7.117188 31.28125l3.417969 6.589844c1.863281 3.585938 1.925781 7.839844.167969 11.480469-1.753907 3.636719-5.125 6.234375-9.09375 7.007813l-7.203125 1.398437c-11.96875 2.289063-20.484375 12.960937-20.066406 25.136719l.234374 7.414062c.125 4.039063-1.660156 7.902344-4.824218 10.421875-3.160156 2.519531-7.324219 3.402344-11.234375 2.378907l-7.152344-1.875c-11.769531-3.121094-24.0625 2.789062-28.96875 13.933593l-3.023437 6.808594c-1.640626 3.695313-4.929688 6.398437-8.867188 7.296875-3.941406.894531-8.074219-.117188-11.152344-2.738281l-5.632812-4.792969c-.96875-.816406-2-1.558594-3.082032-2.222656-.09375-.0625-.1875-.121094-.285156-.179688-7.808594-4.71875-17.589844-4.726562-25.40625-.015625zm123.773437 93.78125c-1.507812-.699219-3.238281-.738281-4.777344-.109375-1.539062.628906-2.75 1.867188-3.34375 3.417969l-23.878906 62.671875-56.5-138.632812c2.378906.757812 4.859375 1.148437 7.359375 1.152343 1.878907 0 3.753907-.210937 5.589844-.632812 7.640625-1.707031 14.015625-6.953125 17.160156-14.121094l3.023438-6.808594c2.535156-5.757812 8.882812-8.808593 14.960937-7.195312l7.152344 1.871093c7.574219 1.984376 15.636719.28125 21.757812-4.597656 6.121094-4.878906 9.582032-12.359375 9.335938-20.183594l-.136719-4.449218 63.207031 155.753906zm0 0"/></svg>