<svg height="500pt" viewBox="0 -66 500.48372 500" width="500pt" xmlns="http://www.w3.org/2000/svg"><path d="m235.511719 199.097656c2.34375 2.34375 6.144531 2.34375 8.488281 0l6.242188-6.242187 6.242187 6.242187c2.347656 2.3125 6.121094 2.296875 8.449219-.035156 2.332031-2.328125 2.347656-6.101562.035156-8.449219l-6.242188-6.242187 6.242188-6.246094c2.3125-2.347656 2.296875-6.117188-.035156-8.449219-2.328125-2.328125-6.101563-2.34375-8.449219-.035156l-6.242187 6.246094-6.242188-6.246094c-2.351562-2.308594-6.121094-2.292969-8.453125.035156-2.328125 2.332031-2.34375 6.101563-.035156 8.449219l6.246093 6.246094-6.246093 6.242187c-2.339844 2.34375-2.339844 6.140625 0 8.484375zm0 0"/><path d="m250.242188 263.925781c-28.878907 0-52.285157 23.410157-52.285157 52.285157 0 28.878906 23.40625 52.285156 52.285157 52.285156 28.875 0 52.285156-23.40625 52.285156-52.285156-.03125-28.863282-23.421875-52.253907-52.285156-52.285157zm0 92.570313c-22.25 0-40.285157-18.035156-40.285157-40.285156s18.035157-40.285157 40.285157-40.285157 40.285156 18.035157 40.285156 40.285157c-.023438 22.238281-18.046875 40.261718-40.285156 40.285156zm0 0"/><path d="m263.546875 301.382812-18.304687 16.769532-7.941407-8.613282c-2.25-2.4375-6.042969-2.589843-8.480469-.34375-2.4375 2.246094-2.589843 6.042969-.34375 8.480469l12 13.007813c2.242188 2.429687 6.023438 2.589844 8.460938.355468l22.71875-20.808593c1.59375-1.441407 2.292969-3.628907 1.832031-5.730469-.460937-2.101562-2.011719-3.796875-4.066406-4.441406-2.050781-.640625-4.292969-.136719-5.871094 1.324218zm0 0"/><path d="m197.957031 52.527344c0 28.878906 23.40625 52.285156 52.285157 52.285156 28.875 0 52.285156-23.40625 52.285156-52.285156 0-28.875-23.410156-52.285156-52.285156-52.285156-28.863282.03125-52.253907 23.421874-52.285157 52.285156zm52.285157-40.285156c22.25 0 40.285156 18.035156 40.285156 40.285156s-18.035156 40.285156-40.285156 40.285156-40.285157-18.035156-40.285157-40.285156c.023438-22.238282 18.046875-40.261719 40.285157-40.285156zm0 0"/><path d="m240.46875 67c2.242188 2.429688 6.027344 2.589844 8.464844.355469l22.71875-20.808594c1.609375-1.4375 2.324218-3.632813 1.863281-5.746094-.457031-2.113281-2.015625-3.816406-4.082031-4.457031-2.0625-.640625-4.3125-.125-5.886719 1.355469l-18.304687 16.769531-7.941407-8.613281c-2.25-2.433594-6.042969-2.589844-8.480469-.34375-2.4375 2.246093-2.589843 6.042969-.34375 8.480469zm0 0"/><path d="m120.375 304.746094c47.753906.007812 91-28.21875 110.210938-71.9375 12.601562 5.128906 26.707031 5.128906 39.308593 0 22.914063 52.132812 79.226563 81.078125 134.957031 69.371094 55.730469-11.707032 95.632813-60.863282 95.632813-117.8125 0-56.945313-39.902344-106.101563-95.632813-117.808594-55.730468-11.707032-112.042968 17.238281-134.957031 69.371094-12.601562-5.128907-26.707031-5.128907-39.308593 0-24.175782-55.003907-85.207032-83.761719-143.015626-67.386719-57.808593 16.375-94.691406 72.871093-86.425781 132.382812s59.148438 103.816407 119.230469 103.820313zm0-12c-24.480469-.023438-48.222656-8.367188-67.339844-23.660156 1.691406-14.597657 14.015625-25.636719 28.714844-25.714844h12.25c2.535156 12.480468 13.511719 21.453125 26.25 21.453125s23.714844-8.972657 26.25-21.453125h12.507812c14.710938.078125 27.046876 11.140625 28.714844 25.761718-1.644531 1.308594-3.324218 2.648438-5.054687 3.867188-18.21875 12.871094-39.984375 19.769531-62.292969 19.746094zm-25.433594-83.664063c-6.816406-6.671875-10.671875-15.800781-10.699218-25.339843v-3.03125c23.953124-4.648438 44.832031-19.1875 57.5-40.042969 1.535156.5625 3.003906 1.300781 4.371093 2.203125 6.367188 4.253906 10.136719 11.457031 10 19.113281l.121094 4.121094v17.113281c.089844 14.558594-8.597656 27.738281-22.011719 33.398438-13.414062 5.660156-28.917968 2.6875-39.285156-7.535157zm73.300782-42.890625-.085938-4.03125c.242188-11.722656-5.503906-22.761718-15.25-29.28125-3.929688-2.652344-8.40625-4.375-13.097656-5.042968-2.472656-.335938-4.898438.882812-6.101563 3.066406-18.683593 34.199218-51.75 38.210937-54.566406 38.492187-3.792969.144531-6.820313 3.226563-6.898437 7.023438v7.324219c.054687 2.050781.238281 4.09375.550781 6.121093-4.085938-8.640625-6.394531-18.011719-6.777344-27.5625-.394531-9.011719 1.496094-17.980469 5.488281-26.070312 6.761719-13.570313 19.597656-23.933594 35.179688-28.4375 8.722656-2.699219 18.152344-1.921875 26.316406 2.167969 7.691406 4.007812 13.710938 10.609374 17 18.632812l.214844.644531c.984375 2.949219 4.054687 4.65625 7.078125 3.941407 2.761719-.703126 5.6875.019531 7.808593 1.921874 2.71875 2.371094 4.800782 5.382813 6.066407 8.761719 4.953125 12.269531 4.667969 26.210938-.800781 39.257813-.820313 1.953125-1.601563 3.898437-2.632813 5.84375.28125-1.902344.449219-3.824219.5-5.746094zm-63 71.441406v-8.523437c4.855468 1.503906 9.914062 2.265625 15 2.261719h.359374c4.96875-.027344 9.90625-.808594 14.640626-2.3125v9.238281c0 8.285156-6.714844 15-15 15-8.285157 0-15-6.714844-15-15zm213 35.382813v-49.683594c0-.199219-.257813-.402343-.277344-.605469-.789063-7.433593 1.574218-14.855468 6.507812-20.464843 4.902344-5.5625 11.921875-8.789063 19.335938-8.890625h2.757812l8.335938 25.851562c.699218 2.214844 2.59375 3.84375 4.890625 4.210938.242187.054687.492187.09375.738281.117187l-6.949219 64.734375c-.035156.386719-.035156.777344 0 1.160156-12.722656-3.210937-24.746093-8.753906-35.453125-16.34375-.046875-.03125.113282-.054687.113282-.085937zm53.238281 19.386719-5.660157-5.65625 8.050782-74.957032 5.863281-6.550781 6.664063 7.085938 7.992187 74.417969-5.65625 5.660156c-2.847656.222656-5.722656.339844-8.628906.34375-2.890625 0-5.765625-.113282-8.625-.34375zm70.898437-69.675782c-.019531.199219-.140625.398438-.140625.605469v49.625c-10 7.542969-22.679687 13.199219-35.71875 16.5.054688-.375.070313-.757812.050781-1.136719l-6.921874-64.714843c.390624 0 .777343-.039063 1.160156-.113281 2.074218-.527344 3.742187-2.066407 4.433594-4.09375l9.277343-26.027344h1.898438c7.425781.097656 14.46875 3.324218 19.394531 8.886718 4.953125 5.605469 7.335938 13.027344 6.570312 20.46875zm-124.667968-126.980468c46.464843-32.757813 110.355468-24 146.289062 20.054687 35.933594 44.058594 31.671875 108.402344-9.757812 147.335938v-39.515625c1.027343-10.707032-2.445313-21.363282-9.585938-29.410156-7.179688-8.074219-17.4375-12.738282-28.242188-12.839844h-6.113281c-2.574219.105468-4.820312 1.78125-5.648437 4.21875l-7.378906 20.65625-13.273438-14.058594c-1.148438-1.222656-2.765625-1.898438-4.445312-1.859375-1.683594.027344-3.28125.757813-4.402344 2.015625l-12.070313 13.5-6.457031-20.082031c-.777344-2.523438-3.0625-4.28125-5.699219-4.386719h-7.117187c-10.765625.105469-20.984375 4.773438-28.113282 12.84375-7.105468 8.058594-10.53125 18.714844-9.453124 29.402344v39.601562c-10.96875-10.140625-19.675782-22.476562-25.550782-36.210937 13.808594-9.824219 21.996094-25.734375 21.960938-42.683594-.039063-16.945313-8.289063-32.824219-22.140625-42.589844 7.878906-18.492187 20.761719-34.421875 37.199219-45.992187zm-27.183594 88.625c0 22.25-18.035156 40.285156-40.285156 40.285156s-40.285157-18.035156-40.285157-40.285156 18.035157-40.289063 40.285157-40.289063c22.238281.027344 40.261718 18.046875 40.285156 40.289063zm-170.152344-108.375c43.382812-.007813 82.585938 25.855468 99.65625 65.738281-13.84375 9.785156-22.078125 25.683594-22.078125 42.636719s8.234375 32.851562 22.078125 42.636718c-5.25 12.25-12.738281 23.414063-22.078125 32.921876-5.429687-16.949219-21.152344-28.476563-38.949219-28.558594h-11.761718v-.445313c3-2.824219 7.230468-6.144531 11.199218-10.101562 10.566406-10.554688 18.289063-21.679688 23.058594-33.066407 6.695312-15.980468 6.972656-33.164062.828125-48.386718-4.640625-11.5-13.199219-18.289063-22.636719-18.4375-10.09375-21.015625-34.03125-31.496094-56.320312-24.664063-18.800782 5.433594-34.3125 18.046875-42.570313 34.613281-4.917969 9.898438-7.261719 20.875-6.8125 31.917969 1.144531 27.695313 16.253907 53.476563 39.253907 66.75v1.820313h-11.492188c-17.769531.078125-33.476562 11.570312-38.929688 28.480468-30.453124-31.164062-39.246093-77.550781-22.3125-117.699218 16.933594-40.144532 56.296876-66.21875 99.867188-66.15625zm0 0"/><path d="m416.242188 136.207031c0-20.34375-16.492188-36.835937-36.839844-36.835937h-.324219c-20.34375 0-36.835937 16.492187-36.835937 36.835937v12.324219c0 20.347656 16.492187 36.839844 36.835937 36.839844h.324219c20.347656 0 36.839844-16.492188 36.839844-36.839844zm-12 12.328125c0 13.714844-11.121094 24.835938-24.839844 24.835938h-.324219c-13.714844 0-24.835937-11.121094-24.835937-24.835938v-12.328125c0-13.71875 11.121093-24.835937 24.835937-24.835937h.324219c13.71875 0 24.839844 11.117187 24.839844 24.835937zm0 0"/></svg>