<?xml version="1.0"?>
<svg xmlns="http://www.w3.org/2000/svg" id="Layer_1" data-name="Layer 1" viewBox="0 0 512 512" width="512" height="512"><title>Bar chart</title><path d="M493,468H455V149.232c0-3.314-2.229-6.232-5.543-6.232H411.114A6.3,6.3,0,0,0,405,149.232V468H386V218.946A6.179,6.179,0,0,0,379.743,213H341.4c-3.314,0-6.4,2.633-6.4,5.946V468H316V288.661A5.7,5.7,0,0,0,310.029,283H271.686A5.457,5.457,0,0,0,266,288.661V468H246V335.137A5.859,5.859,0,0,0,240.314,329H201.971A6.094,6.094,0,0,0,196,335.137V468H177V381.613c0-3.313-3.086-5.613-6.4-5.613H132.257c-3.314,0-6.257,2.3-6.257,5.613V468H107V404.851A5.974,5.974,0,0,0,100.886,399H62.543C59.229,399,57,401.538,57,404.851V468H19a6,6,0,0,0,0,12H59.927a6.416,6.416,0,0,0,2.616,1h38.343a6.416,6.416,0,0,0,2.616-1h26.139a6.416,6.416,0,0,0,2.616,1H170.6a6.42,6.42,0,0,0,2.617-1h26.138a6.421,6.421,0,0,0,2.616,1h38.343a6.42,6.42,0,0,0,2.617-1h26.138a6.42,6.42,0,0,0,2.617,1h38.343a6.421,6.421,0,0,0,2.616-1h26.138a6.42,6.42,0,0,0,2.617,1h38.343a6.416,6.416,0,0,0,2.616-1H408.5a6.416,6.416,0,0,0,2.616,1h38.343a6.426,6.426,0,0,0,2.617-1H493a6,6,0,0,0,0-12ZM443,155V306H417V155ZM417,318h26V468H417Zm-43-93V341H347V225ZM347,353h27V468H347Zm-43-58v81H278V295Zm-26,93h26v80H278Zm-44-47v58H208V341Zm-26,70h26v57H208Zm-43-23v34H138V388Zm-27,46h27v34H138ZM95,411v23H69V411ZM69,446H95v22H69Z"/><path d="M139.274,219.689a94.148,94.148,0,1,0-94.148-94.148A94.254,94.254,0,0,0,139.274,219.689Zm0-176.3a82.148,82.148,0,1,1-82.148,82.148A82.241,82.241,0,0,1,139.274,43.393Z"/><path d="M139.274,168.115a16.847,16.847,0,0,1-16.828-16.828,6,6,0,0,0-12,0A28.87,28.87,0,0,0,134,179.623V187a6,6,0,0,0,12,0v-7.685a28.826,28.826,0,0,0-6.726-56.856,16.821,16.821,0,0,1-2.06-33.516,5.683,5.683,0,0,0,2.249-.13A16.842,16.842,0,0,1,156.1,105.631a6,6,0,0,0,12,0A28.869,28.869,0,0,0,144,77.2V70a6,6,0,0,0-12,0v7.735a28.828,28.828,0,0,0,7.274,56.724,16.828,16.828,0,0,1,0,33.656Z"/><path d="M285.535,143h29.438L126.633,331.5a6.093,6.093,0,0,0,0,8.562,6.023,6.023,0,0,0,4.242,1.8,6.24,6.24,0,0,0,4.363-1.738L324,151.492v30.04a6,6,0,1,0,12,0V137.308a6.074,6.074,0,0,0-.478-2.024A6.615,6.615,0,0,0,334,132.669c-1.581-1.581-3.88-1.669-5.893-1.669H285.535a6,6,0,0,0,0,12Z"/></svg>
