<?xml version="1.0" encoding="iso-8859-1"?>
<!-- Generator: Adobe Illustrator 19.0.0, SVG Export Plug-In . SVG Version: 6.00 Build 0)  -->
<svg version="1.1" id="Capa_1" xmlns="http://www.w3.org/2000/svg" xmlns:xlink="http://www.w3.org/1999/xlink" x="0px" y="0px"
	 viewBox="0 0 512 512" style="enable-background:new 0 0 512 512;" xml:space="preserve">
<g>
	<g>
		<path d="M330.667,107.852H35.556C15.621,107.852,0,123.473,0,143.407v225.185c0,19.935,15.621,35.556,35.556,35.556h295.111
			c19.935,0,35.556-15.621,35.556-35.556V143.407C366.222,123.473,350.601,107.852,330.667,107.852z M330.667,368.593H35.556
			V143.407h295.111l0.273,225.156C330.939,368.563,330.856,368.593,330.667,368.593z"/>
	</g>
</g>
<g>
	<g>
		<path d="M117.926,176.593c-28.101,0-50.963,22.862-50.963,50.963s22.862,50.963,50.963,50.963
			c28.101,0,50.963-22.862,50.963-50.963S146.027,176.593,117.926,176.593z M117.926,242.963c-8.492,0-15.407-6.916-15.407-15.407
			s6.91-15.407,15.407-15.407c8.492,0,15.407,6.91,15.407,15.407C133.333,236.053,126.418,242.963,117.926,242.963z"/>
	</g>
</g>
<g>
	<g>
		<path d="M503.425,139.461c-5.327-3.224-11.941-3.425-17.458-0.533l-145.784,76.444l16.516,31.484l119.745-62.791v143.87
			L356.699,265.15l-16.516,31.49l145.778,76.439c2.596,1.357,5.428,2.033,8.261,2.033c3.188,0,6.382-0.859,9.203-2.566
			c5.321-3.224,8.575-8.99,8.575-15.212V154.667C512,148.444,508.753,142.679,503.425,139.461z"/>
	</g>
</g>
<g>
</g>
<g>
</g>
<g>
</g>
<g>
</g>
<g>
</g>
<g>
</g>
<g>
</g>
<g>
</g>
<g>
</g>
<g>
</g>
<g>
</g>
<g>
</g>
<g>
</g>
<g>
</g>
<g>
</g>
</svg>
