<?xml version="1.0"?>
<svg xmlns="http://www.w3.org/2000/svg" id="Layer_1" data-name="Layer 1" viewBox="0 0 512 512" width="512" height="512"><title>Creative</title><path d="M421.886,296.865l-30.208-2.917A138.455,138.455,0,0,0,376.5,257.812l19.265-23.245a8,8,0,0,0-.461-10.723l-33.78-34.217a8,8,0,0,0-10.794-.541l-23.294,19.292a143.065,143.065,0,0,0-30.209-13.536l.033-20.676a87.932,87.932,0,0,0,47.277-78.983c0-37.382-23.79-71.169-59.2-84.075a8,8,0,0,0-7.339.971,7.719,7.719,0,0,0-3.4,6.42l.259,67.5H238.02l-.781-68.783a7.856,7.856,0,0,0-3.376-6.36,7.99,7.99,0,0,0-7.195-1.007C191.476,21.8,167.618,55.6,167.3,94a90.066,90.066,0,0,0,14.607,49.448c8.3,12.683,19.092,22.924,33.092,29.841v21.642a128.734,128.734,0,0,0-29.982,13.4l-23.282-19.252a8.023,8.023,0,0,0-10.777.5l-34.225,34.217a8,8,0,0,0-.509,10.759l19.289,23.3a141.391,141.391,0,0,0-15.246,36.085l-30.153,2.917A7.9,7.9,0,0,0,83,304.828v48.51a7.9,7.9,0,0,0,7.114,7.963l30.208,2.917A138.449,138.449,0,0,0,135.5,400.353L116.235,423.6a8,8,0,0,0,.5,10.759l34.213,34.217a8,8,0,0,0,10.758.5L185,449.788a141.4,141.4,0,0,0,36.085,15.245l2.917,30.5A8.206,8.206,0,0,0,231.962,503h48.509a8.207,8.207,0,0,0,7.964-7.465l2.917-30.382a138.644,138.644,0,0,0,36.135-15.266l23.245,19.221a8,8,0,0,0,10.759-.519l34.217-34.224a8,8,0,0,0,.5-10.763l-19.292-23.3a141.389,141.389,0,0,0,15.247-36.093L421.9,361.3A7.9,7.9,0,0,0,429,353.338v-48.51A7.9,7.9,0,0,0,421.886,296.865Zm-165.87,61.512a41.115,41.115,0,0,0,41.05-41.02l.086-64.421a86.434,86.434,0,1,1-127.309,76.147A85.815,85.815,0,0,1,215,253.176v64.116A41.072,41.072,0,0,0,256.016,358.377ZM183.3,94.089c.228-27.554,15.137-52.216,38.075-64.517l.734,64.675a7.868,7.868,0,0,0,8,7.753h52.779a7.741,7.741,0,0,0,8-7.8l-.243-63.16a73.851,73.851,0,0,1,37.892,64.189,71.914,71.914,0,0,1-42.512,66.575,8.006,8.006,0,0,0-4.757,7.306l-.238,148.215A25.016,25.016,0,1,1,231,317.292V168.261a8.064,8.064,0,0,0-4.828-7.313C199.771,149.244,183.3,123.6,183.3,94.089ZM413,346.081l-28.175,2.759a7.932,7.932,0,0,0-6.983,6.272,125.492,125.492,0,0,1-17.5,41.532,8,8,0,0,0,.575,9.439l18.318,22.111-23.913,23.917L333.215,433.8a8,8,0,0,0-9.539-.494,121.772,121.772,0,0,1-41.431,17.461,8.271,8.271,0,0,0-6.272,7.284L273.205,487H239.228l-2.768-28.949a8.135,8.135,0,0,0-6.272-7.168A125.692,125.692,0,0,1,188.656,433.3a8,8,0,0,0-9.44.531l-22.111,18.3L133.189,428.2l18.31-22.114a8,8,0,0,0,.5-9.542,121.791,121.791,0,0,1-17.462-41.432,7.866,7.866,0,0,0-6.933-6.273L99,346.072V312.094l28.6-2.768a7.931,7.931,0,0,0,6.992-6.272,125.518,125.518,0,0,1,17.5-41.533,8,8,0,0,0-.575-9.439L133.2,229.972l23.913-23.917,22.109,18.31a8.1,8.1,0,0,0,9.609.5A127.686,127.686,0,0,1,215,211.8v23.546a102.388,102.388,0,1,0,82.167-.176L297.2,211.7a130.543,130.543,0,0,1,26.576,13.223,8,8,0,0,0,9.439-.561l22.074-18.281,23.549,23.852L360.5,252.082a8,8,0,0,0-.5,9.54,121.791,121.791,0,0,1,17.462,41.432,7.865,7.865,0,0,0,6.933,6.272l28.6,2.768Z"/></svg>
