<svg height="462pt" viewBox="0 -11 462 462" width="462pt" xmlns="http://www.w3.org/2000/svg"><path d="m429 195.433594c0-4.417969-3.582031-8-8-8h-381c-4.417969 0-8 3.582031-8 8v205c0 4.417968 3.582031 8 8 8h381c4.417969 0 8-3.582032 8-8zm-281 8h29v189h-29zm-16 189h-30v-189h30zm61-189h30v189h-30zm46 0h30v189h-30zm46 0h29v189h-29zm45 0h30v189h-30zm-282 0h38v189h-38zm366 189h-38v-189h38zm0 0"/><path d="m8.3125 440.433594h445.375c4.417969 0 8.3125-3.269532 8.3125-7.6875v-269.121094c-.132812-4.515625-3.796875-8.128906-8.3125-8.191406h-42.789062l-174.617188-153.417969c-3.078125-2.730469-7.730469-2.679687-10.746094.117187l-163.890625 153.300782h-53.332031c-4.515625.0625-8.179688 3.675781-8.3125 8.191406v269.121094c0 4.417968 3.898438 7.6875 8.3125 7.6875zm222.855469-421.707032 155.503906 136.707032h-301.609375zm-215.167969 152.707032h430v253h-430zm0 0"/></svg>