<svg height="492pt" viewBox="0 -63 492 492" width="492pt" xmlns="http://www.w3.org/2000/svg"><path d="m469 8c0-4.417969-3.582031-8-8-8h-430c-4.417969 0-8 3.582031-8 8v205c0 4.417969 3.582031 8 8 8h430c4.417969 0 8-3.582031 8-8zm-128 197h-36v-189h36zm16-189h35v189h-35zm-68 189h-35v-189h35zm-51 0h-35v-189h35zm-51 0h-36v-189h36zm-52 0h-35v-189h35zm318 0h-45v-189h45zm-414-189h45v189h-45zm0 0"/><path d="m483.792969 228h-475.585938c-4.449219-.042969-8.105469 3.492188-8.207031 7.9375v69.652344c.0625 4.539062 3.667969 8.234375 8.207031 8.410156h29.175781c2.167969 29.46875 26.710938 52.265625 56.257813 52.265625s54.089844-22.796875 56.257813-52.265625h39.847656c2.191406 29.453125 26.726562 52.234375 56.257812 52.234375 29.535156 0 54.070313-22.78125 56.257813-52.234375h39.847656c2.1875 29.453125 26.722656 52.234375 56.257813 52.234375 29.535156 0 54.070312-22.78125 56.257812-52.234375h29.175781c4.53125-.179688 8.136719-3.871094 8.199219-8.410156v-69.652344c-.101562-4.445312-3.757812-7.980469-8.207031-7.9375zm-390.15625 121.828125c-22.328125 0-40.429688-18.097656-40.429688-40.429687 0-22.328126 18.101563-40.429688 40.429688-40.429688s40.429687 18.101562 40.429687 40.429688c-.023437 22.320312-18.109375 40.40625-40.429687 40.429687zm152.363281 0c-22.328125 0-40.429688-18.097656-40.429688-40.429687 0-22.328126 18.097657-40.429688 40.429688-40.429688 22.328125 0 40.429688 18.101562 40.429688 40.429688-.027344 22.320312-18.113282 40.40625-40.429688 40.429687zm152.363281 0c-22.332031 0-40.429687-18.101563-40.429687-40.429687 0-22.328126 18.097656-40.429688 40.429687-40.429688 22.328125 0 40.429688 18.101562 40.429688 40.429688-.027344 22.320312-18.113281 40.40625-40.429688 40.429687zm77.636719-51.828125h-22.460938c-5.570312-26.023438-28.5625-44.621094-55.175781-44.621094s-49.609375 18.597656-55.179687 44.621094h-42.007813c-5.566406-26.023438-28.5625-44.621094-55.175781-44.621094s-49.609375 18.597656-55.175781 44.621094h-42.007813c-5.570312-26.023438-28.566406-44.621094-55.179687-44.621094s-49.605469 18.597656-55.175781 44.621094h-22.460938v-54h460zm0 0"/><path d="m246 283.109375c-14.519531 0-26.292969 11.769531-26.289062 26.289063 0 14.523437 11.769531 26.292968 26.289062 26.292968s26.292969-11.773437 26.289062-26.292968c-.015624-14.511719-11.777343-26.273438-26.289062-26.289063zm0 36.582031c-5.683594 0-10.292969-4.609375-10.289062-10.292968 0-5.683594 4.605468-10.289063 10.289062-10.289063s10.292969 4.605469 10.289062 10.289063c-.003906 5.683593-4.609374 10.285156-10.289062 10.292968zm0 0"/><path d="m398.363281 283.109375c-14.523437 0-26.292969 11.769531-26.292969 26.289063 0 14.523437 11.773438 26.292968 26.292969 26.292968s26.289063-11.773437 26.289063-26.292968c-.015625-14.511719-11.777344-26.273438-26.289063-26.289063zm0 36.582031c-5.683593 0-10.292969-4.609375-10.292969-10.292968 0-5.683594 4.609376-10.289063 10.292969-10.289063 5.683594 0 10.289063 4.605469 10.289063 10.289063-.003906 5.683593-4.609375 10.285156-10.289063 10.292968zm0 0"/><path d="m93.636719 283.109375c-14.519531 0-26.289063 11.769531-26.289063 26.289063 0 14.523437 11.769532 26.292968 26.289063 26.292968s26.292969-11.773437 26.292969-26.292968c-.019532-14.511719-11.777344-26.273438-26.292969-26.289063zm0 36.582031c-5.683594 0-10.289063-4.609375-10.289063-10.292968-.003906-5.683594 4.605469-10.289063 10.289063-10.289063 5.683593 0 10.292969 4.605469 10.292969 10.289063-.007813 5.683593-4.609376 10.285156-10.292969 10.292968zm0 0"/></svg>