<svg height="482pt" viewBox="-80 0 482 482" width="482pt" xmlns="http://www.w3.org/2000/svg"><path d="m297.433594 200.3125c-.441406-4.085938-3.839844-7.210938-7.945313-7.3125h-42.027343v-27.910156c-.027344-9.792969-1.941407-19.488282-5.632813-28.558594 9.984375 2.089844 20.375-.527344 28.179687-7.097656l4.90625-3.769532c3.144532-2.414062 4.046876-6.773437 2.117188-10.238281l-48.554688-87.410156c-9.492187-17.171875-27.511718-27.882813-47.132812-28.015625h-54.445312c-29.722657 0-53.929688 24.46875-53.960938 54.253906-.015625 16.378906-.03125 25.144532-.042969 30.867188-.019531 10.78125-.023437 11.261718.035157 33.214844.132812 8.308593 4.886718 15.847656 12.328124 19.542968-3.230468 8.707032-4.855468 17.925782-4.796874 27.210938v27.910156h-47.03125c-4.105469.101562-7.503907 3.226562-7.945313 7.3125l-25.121094 218.445312c-1.8125 15.65625 3.195313 31.339844 13.746094 43.050782 11.488281 12.832031 27.890625 20.175781 45.113281 20.191406h204.472656c17.21875.003906 33.625-7.320312 45.117188-20.140625 10.550781-11.683594 15.558594-27.34375 13.746094-42.984375zm-208.539063-115.039062c.011719-5.726563.027344-14.617188.042969-31 .023438-20.972657 17.050781-38.273438 37.960938-38.273438h54.445312c13.816406.128906 26.488281 7.699219 33.152344 19.800781l45.203125 81.265625c-7.1875 6.066406-17.894531 5.296875-24.140625-1.730468l-13.585938-15.554688c-2.199218-2.507812-5.722656-3.390625-8.84375-2.214844-3.121094 1.175782-5.1875 4.164063-5.183594 7.5l.011719 15.34375c.011719 13.695313.011719 13.699219-.015625 23.085938l-.027344 10.933594c-.007812 3.660156-3.105468 5.566406-6.160156 5.566406h-5.214844c-3.058593 0-6.160156-1.910156-6.164062-5.582032 0-.949218-.019531-2.210937-.011719-3.675781.074219-.734375.105469-1.476562.097657-2.21875v-12.085937c0-4.300782.085937-7.617188.085937-7.699219.003906-.425781-.085937-.847656-.085937-1.257813v-4.554687c0-4.417969-3.582032-8-8-8-4.417969 0-8 3.582031-8 8v13.402344c0 4.125-.0625 8.9375-.089844 12.933593-.449219 1.6875-2.023438 2.832032-3.769532 2.742188h-10.621093c-.949219.082031-1.882813-.253906-2.5625-.925781-.675781-.667969-1.027344-1.601563-.957031-2.550781v-33.929688c0-4.421875-3.582032-8-8-8-4.417969 0-8 3.578125-8 8v25.597656c0 2.15625-2.234376 3.808594-4.386719 3.808594h-10.515625c-2.175782.0625-4-1.632812-4.097656-3.808594v-25.601562c0-4.417969-3.582032-8-8-8-4.417969 0-8 3.582031-8 8v3.855468c.113281 1.683594-.433594 3.34375-1.53125 4.625-.875.859376-2.074219 1.3125-3.300782 1.246094-.859375 0-1.789062-.15625-2.742187-.160156-.5 0-.964844-.15625-1.449219-.15625h-.046875c-.449219 0-.886719.148438-1.300781.148438-1.601563.058593-3.15625-.53125-4.316406-1.636719-1.160157-1.105469-1.820313-2.632813-1.839844-4.234375-.0625-21.914063-.058594-22.257813-.039063-33.003906zm7.566407 79.816406c-.125-8.527344 1.585937-16.980469 5.011718-24.792969 1.347656-.011719 2.6875-.195313 3.988282-.546875v.441406c.109374 11.007813 9.089843 19.859375 20.097656 19.808594h10.519531c2.363281-.054688 4.703125-.527344 6.898437-1.398438 3.632813 5.890626 10.082032 9.457032 17 9.398438h10.621094c2.636719.070312 5.261719-.390625 7.71875-1.351562 4.199219 5.882812 10.992188 9.367187 18.21875 9.351562h5.214844c12.402344 0 22.132812-9.449219 22.160156-21.527344l.027344-10.933594c.011719-3.375.035156-5.539062.039062-7.5625 4.910157 8.917969 7.484376 18.933594 7.484376 29.113282v27.910156h-135zm200.410156 286.125c-8.457032 9.414062-20.519532 14.792968-33.175782 14.785156h-204.472656c-12.652344.007812-24.714844-5.367188-33.171875-14.785156-7.492187-8.335938-11.054687-19.484375-9.792969-30.625l24.300782-211.589844h39.902344v25.050781c0 4.417969 3.582031 8 8 8 4.417968 0 8-3.582031 8-8v-25.050781h135v25.050781c0 4.417969 3.582031 8 8 8 4.417968 0 8-3.582031 8-8v-25.050781h34.898437l24.300781 211.59375c1.265625 11.136719-2.296875 22.28125-9.789062 30.621094zm0 0"/></svg>