<svg height="477pt" viewBox="0 -55 477.118 477" width="477pt" xmlns="http://www.w3.org/2000/svg"><path d="m35.207031 207.621094h16v35.125h-16zm0 0"/><path d="m35.15625 286.652344h16v35.121094h-16zm0 0"/><path d="m407.300781 207.871094h16v35.125h-16zm0 0"/><path d="m407.246094 286.898438h16v35.125h-16zm0 0"/><path d="m101.445312 49.609375h16v35.125h-16zm0 0"/><path d="m145.347656 49.636719h16v35.125h-16zm0 0"/><path d="m100.292969 128.636719h16v35.125h-16zm0 0"/><path d="m145.296875 128.667969h16v35.121093h-16zm0 0"/><path d="m100.242188 207.664062h16v35.125h-16zm0 0"/><path d="m145.242188 207.695312h16v35.125h-16zm0 0"/><path d="m100.1875 286.695312h16v35.125h-16zm0 0"/><path d="m145.191406 286.722656h16v35.125h-16zm0 0"/><path d="m220.757812 128.71875h16v35.121094h-16zm0 0"/><path d="m265.761719 128.746094h16v35.125h-16zm0 0"/><path d="m220.703125 207.746094h16v35.125h-16zm0 0"/><path d="m265.707031 207.777344h16v35.125h-16zm0 0"/><path d="m220.652344 286.773438h16v35.125h-16zm0 0"/><path d="m265.65625 286.804688h16v35.125h-16zm0 0"/><path d="m310.761719 128.777344h16v35.125h-16zm0 0"/><path d="m310.710938 207.804688h16v35.125h-16zm0 0"/><path d="m310.65625 286.835938h16v35.121093h-16zm0 0"/><path d="m474.351562 184.304688-107.5-93.371094c-1.453124-1.261719-3.316406-1.957032-5.242187-1.957032l-163.226563-.109374.054688-80.90625c-.003906-2.113282-.851562-4.136719-2.355469-5.621094-1.5-1.480469-3.535156-2.3046878-5.644531-2.2812502l-118.542969.0195312c-2.109375-.0234375-4.140625.796875-5.644531 2.277344-1.5 1.484375-2.347656 3.503906-2.355469 5.613281l-.109375 147.382812-55.667968-.273437c-4.449219.171875-7.976563 3.820313-8 8.273437l-.117188 194.570313c0 2.113281.847656 4.140625 2.347656 5.628906 1.503906 1.488281 3.539063 2.3125 5.652344 2.296875l461 .230469h.007812c2.109376.023437 4.140626-.796875 5.640626-2.28125 1.503906-1.480469 2.351562-3.503906 2.359374-5.613281l.109376-167.882813c0-2.308593-1.011719-4.496093-2.765626-5.996093zm-120.917968 165.902343-337.433594-.230469.105469-178.726562 55.664062-.171875h.003907c2.097656.046875 4.128906-.753906 5.632812-2.214844 1.503906-1.464843 2.359375-3.472656 2.367188-5.570312l.113281-147.515625 102.542969.121094-.054688 80.933593c-.003906 4.421875 3.578125 8.011719 8 8.015625l163.226562.117188zm107.5625.070313-91.5625-.0625.15625-235.699219 91.511718 79.484375zm0 0"/></svg>