<svg height="466pt" viewBox="-54 0 466 466.15553" width="466pt" xmlns="http://www.w3.org/2000/svg"><path d="m22.804688 375.109375c32.269531 56.160156 92.128906 91.046875 156.214843 91.046875 64.199219 0 124.125-34.964844 156.378907-91.246094 13.890624-23.972656 21.625-51.015625 22.511718-78.710937.769532-29.136719-6.738281-57.894531-21.65625-82.9375-.121094-.210938-.257812-.417969-.398437-.621094l-150.335938-209.382813c-1.507812-2.074218-3.929687-3.2851558-6.492187-3.257812-2.5625-.0273438-4.984375 1.179688-6.496094 3.25l-150.335938 208.851562c-.152343.207032-.289062.398438-.417968.625-14.9375 25.199219-22.441406 54.113282-21.640625 83.398438.910156 27.796875 8.699219 54.9375 22.667969 78.984375zm12.601562-154.019531 143.601562-199.535156 143.628907 200.113281c13.273437 22.398437 19.957031 48.09375 19.277343 74.125-.816406 25.042969-7.824218 49.492187-20.398437 71.160156-29.410156 51.320313-84.011719 83.199219-142.496094 83.199219-58.375 0-112.917969-31.808594-142.339843-83.015625-12.652344-21.75-19.710938-46.296875-20.550782-71.441407-.703125-26.1875 5.976563-52.039062 19.28125-74.605468zm0 0"/><path d="m124.019531 309h31v31c0 4.417969 3.582031 8 8 8h32c4.417969 0 8-3.582031 8-8v-31h31c4.417969 0 8-3.582031 8-8v-33c0-4.417969-3.582031-8-8-8h-31v-31c0-4.417969-3.582031-8-8-8h-32c-4.417969 0-8 3.582031-8 8v31h-31c-4.417969 0-8 3.582031-8 8v33c0 4.417969 3.582031 8 8 8zm8-33h31c4.417969 0 8-3.582031 8-8v-31h16v31c0 4.417969 3.582031 8 8 8h31v17h-31c-4.417969 0-8 3.582031-8 8v31h-16v-31c0-4.417969-3.582031-8-8-8h-31zm0 0"/></svg>