<svg height="480pt" viewBox="0 -4 480.09666 480" width="480pt" xmlns="http://www.w3.org/2000/svg"><path d="m247.660156 188.902344c-1.445312-2.371094-4.015625-3.816406-6.792968-3.828125-2.773438-.011719-5.359376 1.414062-6.824219 3.769531l-47.523438 76.332031c-11.511719 18.414063-12.78125 41.445313-3.371093 61.015625 9.414062 19.570313 28.199218 32.953125 49.769531 35.457032l.019531 37.40625c.003906 4.417968 3.585938 7.992187 8 7.992187 4.417969 0 8-3.582031 8-8l-.019531-37.542969c21.222656-2.816406 39.585937-16.167968 48.804687-35.488281 9.222656-19.320313 8.054688-41.992187-3.105468-60.265625zm-40.960937 143.246094-.03125-.03125c-15.644531-15.527344-18.382813-39.84375-6.582031-58.464844l32.757812-52.617188.066406 124.488282c-9.945312-1.53125-19.132812-6.222657-26.210937-13.375zm67.0625.320312c-6.808594 6.679688-15.464844 11.160156-24.851563 12.859375l-.0625-123.800781 32.09375 52.519531c11.421875 18.789063 8.453125 42.960937-7.179687 58.425781zm0 0"/><path d="m477.214844 218.25-93.140625-77.101562v-133.101563c.03125-2.105469-.78125-4.136719-2.257813-5.640625-1.476562-1.503906-3.496094-2.3515625-5.601562-2.359375h-72.535156c-2.082032.0195312-4.066407.878906-5.5 2.386719-1.433594 1.507812-2.195313 3.535156-2.105469 5.613281v59.753906l-48.46875-39.992187c-2.976563-2.433594-7.25-2.453125-10.246094-.046875l-234.386719 190.441406c-2.636718 2.125-3.644531 5.683594-2.515625 8.875 1.125 3.195313 4.144531 5.332031 7.53125 5.332031 1.878907.003906 3.707031-.628906 5.183594-1.792968l42.902344-34.738282v268.167969c-.070313 2.089844.707031 4.117187 2.152343 5.625 1.449219 1.507813 3.445313 2.363281 5.535157 2.375h352.625c2.089843-.011719 4.085937-.867187 5.53125-2.375 1.449219-1.507813 2.226562-3.535156 2.15625-5.625v-268.84375l42.847656 35.367187c3.402344 2.84375 8.464844 2.386719 11.308594-1.015624 2.839843-3.402344 2.386719-8.464844-1.015625-11.304688zm-165.140625-202.203125h56v111.84375l-56-46.835937zm96 440h-336v-273.171875l170.339843-138.558594 127.816407 105.957032c.519531.675781 1.152343 1.257812 1.871093 1.710937l35.972657 29.964844zm0 0"/></svg>