<svg height="490pt" viewBox="0 -9 490.00394 490" width="490pt" xmlns="http://www.w3.org/2000/svg"><path d="m482.191406 202.015625h-13.890625l-55.757812-69h28.484375c4.46875-.140625 8.007812-3.824219 7.972656-8.296875v-80.378906c.039062-4.476563-3.5-8.167969-7.972656-8.324219h-297.027344v-26.453125c1-2.242188.136719-4.660156-1.402344-6.585938-1.492187-1.898437-3.78125-2.9999995-6.195312-2.97265575-.039063 0 .015625.01171875-.023438.01171875h-87.34375c-.039062 0-.078125-.01171875-.121094-.01171875-2.445312-.02343745-4.765624 1.07812475-6.296874 2.98437475-1.546876 1.929688-1.617188 4.328125-1.617188 6.574219v67.039062c0 .503907-.160156 1.019532-.160156 1.546876 0 .523437.160156 1.039062.160156 1.546874v67.074219c0 .507813-.160156 1.023438-.160156 1.546875 0 .527344.160156 1.042969.160156 1.546875v67.078125c0 .507813-.160156 1.023438-.160156 1.550782 0 .523437.160156 1.039062.160156 1.546874v67.078126c0 .507812-.160156 1.023437-.160156 1.546874 0 .523438.160156 1.042969.160156 1.554688v67.082031c0 .507813-.160156 1.023438-.160156 1.546875 0 .527344.160156 1.042969.160156 1.546875v60.621094h-33.1875c-2.101562.011719-4.113281.863281-5.582031 2.367187-1.46875 1.503907-2.2695315 3.53125-2.230469 5.632813v35.039063c-.0390625 2.097656.765625 4.125 2.234375 5.625 1.46875 1.496093 3.480469 2.339843 5.578125 2.335937h169.789062c4.417969 0 8.398438-3.539063 8.398438-7.957031v-35.042969c0-4.417969-3.980469-8-8.398438-8h-33.601562v-60.625c0-.507813.164062-1.023437.164062-1.546875s-.164062-1.042969-.164062-1.546875v-67.078125c0-.507812.164062-1.023438.164062-1.550781 0-.523438-.164062-1.042969-.164062-1.550781v-67.078126c0-.507812.164062-1.023437.164062-1.546874 0-.527344-.164062-1.042969-.164062-1.550782v-67.078125c0-.503906.164062-1.019531.164062-1.546875 0-.523437-.164062-1.039062-.164062-1.546875v-13.753906h101.820312c.480469 0 .972657.148437 1.472657.148437s.992187-.148437 1.476562-.148437h126.199219c.484375 0 .976562.148437 1.476562.148437s.992188-.148437 1.472657-.148437h2.871093l-52.386718 69h-17.851563c-4.421875 0-7.550781 3.84375-7.550781 8.261719v103.714844c0 4.421874 3.128906 8.023437 7.550781 8.023437h171.640625c2.101563-.011719 4.113282-.867187 5.582032-2.375s2.273437-3.542969 2.226562-5.648437v-103.714844c.109375-4.429688-3.378906-8.121094-7.808594-8.261719zm-170.320312-143.820313 47.675781 58.820313h-95.351563zm-64.578125 53.648438-48.492188-59.828125h96.980469zm80.667969-59.828125h96.972656l-48.484375 59.824219zm65.386718 65 39.652344-49.25v49.25zm-226.773437-65-22.171875 27.382813c.023437-.445313.007812-.890626-.050782-1.332032 0-.523437-.351562-.960937-.351562-1.464844v-24.585937zm-38.574219 9.351563-22.867188-18.304688 22.867188-18.308594zm-71 140.34375v-36.613282l22.871094 18.304688zm35.707031-8.0625 31.03125 24.84375-31.03125 24.839843-31.03125-24.839843zm-12.835937 59.929687-22.871094 18.304687v-36.613281zm12.835937 10.246094 31.03125 24.839843-31.03125 24.84375-31.03125-24.84375zm-12.835937 59.929687-22.871094 18.308594v-36.617188zm12.835937 10.246094 31.03125 24.84375-31.03125 24.839844-31.03125-24.839844zm12.421875-10.246094 22.871094-18.308594v36.617188zm0-70.175781 22.871094-18.308594v36.613281zm0-70.175781 22.871094-18.304688v36.613282zm-12.421875-10.246094-31.03125-24.839844 31.03125-24.835937 31.03125 24.835937zm-35.707031-41.617188v-36.613281l22.871094 18.304688zm4.675781-53.390624 31.03125-24.839844 31.03125 24.839844-31.03125 24.835937zm31.03125-45.292969-21.039062-16.839844h42.074219zm-12.835937 10.207031-22.871094 18.304688v-36.613282zm0 350.871094-22.871094 18.308594v-36.617188zm12.835937 10.242187 21.039063 16.839844h-42.078125zm12.421875-10.242187 22.871094-18.308594v36.617188zm0-280.703125 22.871094-18.304688v36.613281zm64.871094 342.785156h-154v-19h154zm-26-351.089844 38.507812-46.902343 47.882813 58.992187h-86.390625zm252.566406 33.183594 51.230469 63.90625h-99.363281zm77.433594 167.90625h-155v-88h155zm0 0"/></svg>