<svg height="487pt" viewBox="0 -68 487.05482 487" width="487pt" xmlns="http://www.w3.org/2000/svg"><path d="m61.386719 316.304688c.046875.085937.09375.160156.140625.246093 11.539062 20.664063 33.351562 33.472657 57.019531 33.476563h67.871094c17.316406 0 34.046875-8.929688 46.734375-24.742188 1.742187.746094 3.507812 1.488282 5.3125 2.207032.136718.054687.277344.109374.421875.15625 2.992187 1.109374 6.285156 1.109374 9.277343 0 .160157-.050782.316407-.109376.476563-.175782 1.777344-.71875 3.519531-1.472656 5.238281-2.226562 12.691406 15.839844 29.433594 24.78125 46.761719 24.78125h67.867187c23.667969-.003906 45.484376-12.8125 57.019532-33.476563.046875-.085937.09375-.164062.140625-.253906l60.511719-118.527344c1.75-3.421875.8125-7.605469-2.226563-9.960937l-6.167969-4.78125c-16.453125-13.859375-40.953125-12.074219-55.226562 4.023437l-2.941406 3.34375-.089844-131.222656c-.082032-15.964844-13.042969-28.867187-29.007813-28.875-4.507812.007813-8.949219 1.042969-12.992187 3.03125v-4.4375c.039062-7.636719-2.964844-14.972656-8.347656-20.386719-5.382813-5.417968-12.703126-8.4648435-20.335938-8.4765622h-.492188c-12.832031.0078124-24.125 8.4687502-27.742187 20.7812502-8.960937-5-19.894531-4.886719-28.75.296875-8.851563 5.183593-14.304687 14.664062-14.332031 24.921875v21.5c-4-1.945313-8.191406-3.5-12.824219-3.5h-.464844c-7.808593 0-15.28125 3.167968-20.710937 8.78125-5.425782-5.613282-12.902344-8.78125-20.710938-8.78125h-.460937c-4.636719 0-8.828125 1.558594-12.828125 3.5v-21.5c-.019532-10.257813-5.464844-19.742188-14.316406-24.925782-8.851563-5.1875-19.785157-5.300781-28.746094-.304687-3.628906-12.308594-14.925782-20.7617188-27.757813-20.7695312h-.492187c-7.636719.0117187-14.953125 3.0585942-20.335938 8.4765622-5.382812 5.417969-8.386718 12.753906-8.351562 20.386719v4.4375c-4.042969-1.988281-8.492188-3.027344-13-3.035156-15.953125.015625-28.894532 12.921875-28.953125 28.878906l-.109375 131.222656-2.957032-3.34375c-14.273437-16.09375-38.773437-17.878906-55.230468-4.019531l-6.175782 4.777344c-3.039062 2.355468-3.976562 6.539062-2.226562 9.964844zm182.128906-4.019532c-2.984375-1.199218-5.871094-2.445312-8.65625-3.738281-.574219-.363281-1.1875-.652344-1.832031-.859375-52.492188-25.007812-70.515625-65.648438-64.589844-96.523438 3.929688-20.71875 17.738281-33.59375 36.039062-33.59375 10.667969 0 22.515626 4.632813 34.265626 13.402344 2.808593 2.09375 6.652343 2.117188 9.488281.054688 11.75-8.527344 23.554687-13.039063 34.136719-13.039063.457031 0 .910156.015625 1.363281.03125.613281.152344 1.246093.226563 1.878906.230469.261719 0 .519531-.015625.773437-.039062 16.230469 1.738281 28.410157 14.046874 32.246094 33.011718 8.699219 44.945313-31.3125 83.027344-75.113281 101.0625zm92.011719-130.890625v-152.5c-.011719-3.40625 1.335937-6.679687 3.742187-9.09375 2.40625-2.414062 5.671875-3.773437 9.082031-3.773437h.492188c7.117188 0 12.886719 5.761718 12.898438 12.878906 0 7.824219-.097657 18.023438-.097657 29.453125-.011719.28125-.113281.554687-.113281.835937v10.558594c0 .136719.097656.273438.109375.410156 0 11.613282.046875 23.988282.042969 36.117188-.007813 37.25.011718 72.25.023437 74.960938.019531 2.097656.878907 4.101562 2.386719 5.566406 1.507812 1.460937 3.535156 2.261718 5.636719 2.21875h.027343c2.105469.035156 4.132813-.773438 5.632813-2.25 1.5-1.476563 2.34375-3.492188 2.339844-5.597656-.011719-2.675782 0-37.753907 0-74.988282 0-16.25.003906-32.898437.007812-47.601562.234375-7.066406 6.113281-12.628906 13.183594-12.46875s12.695313 5.984375 12.609375 13.054687l.097656 152.414063c0 3.328125 2.0625 6.308594 5.175782 7.480468 3.117187 1.175782 6.632812.300782 8.832031-2.199218l16.933593-19.242188c8.523438-9.617187 23.175782-10.644531 32.957032-2.316406.101562.085938.207031.171875.3125.253906l1.082031.835938-57.429687 112.476562c-8.734376 15.53125-25.164063 25.148438-42.984376 25.148438h-67.867187c-11.402344 0-22.691406-5.738282-31.917969-16.015625 54.144532-29.378907 72.398438-74.847657 65.601563-109.871094l-.011719-.050781c-1.273438-6.53125-3.515625-12.835938-6.65625-18.703125 4.359375-.082031 7.855469-3.628907 7.871094-7.992188zm-28.976563-148.265625c7.136719 0 12.933594 5.761719 12.976563 12.898438v131.953125c-6.960938-7.457031-16.03125-12.613281-26-14.789063v-117.164062c.050781-7.152344 5.871094-12.917969 13.023437-12.898438zm-42.3125 46.898438h.464844c7.113281 0 12.824219 6.25 12.824219 13.363281v68.8125c-9.015625.992187-17.765625 3.667969-25.796875 7.882813.007812-35.207032.007812-61-.03125-76.773438 0-.835938-.035157-1.894531-.109375-2.714844 1.207031-6.058594 6.472656-10.457031 12.648437-10.570312zm-41.882812 0h.460937c6.175782.113281 11.441406 4.511718 12.644532 10.570312-.074219.820313-.121094 1.761719-.121094 2.601563-.039063 15.746093-.015625 41.515625-.007813 76.601562-8.007812-4.300781-16.765625-7.019531-25.800781-8v-68.410156c-.003906-7.113281 5.710938-13.363281 12.824219-13.363281zm-41.800781-46.898438c7.132812 0 12.929687 5.761719 12.972656 12.898438v116.699218c-9.964844 2.132813-19.039063 7.265626-26 14.707032v-131.40625c.050781-7.152344 5.871094-12.917969 13.023437-12.898438zm-161.335938 162.4375c.105469-.082031.210938-.164062.3125-.253906 9.78125-8.328125 24.433594-7.300781 32.953125 2.316406l16.933594 19.242188c2.199219 2.5 5.714843 3.375 8.828125 2.203125 3.117187-1.175781 5.175781-4.152344 5.179687-7.480469l.101563-152.402344c-.0625-7.058594 5.5625-12.855468 12.621094-13.007812 7.058593-.148438 12.929687 5.402344 13.167968 12.457031 0 14.699219.007813 31.402344.007813 47.652344.007812 37.234375.015625 72.21875 0 74.898437 0 2.101563.84375 4.117188 2.34375 5.589844 1.5 1.476562 3.53125 2.285156 5.632812 2.246094h.027344c2.097656.042968 4.125-.757813 5.628906-2.222656 1.503907-1.460938 2.359375-3.464844 2.371094-5.5625.011719-2.710938 0-37.800782 0-75.054688 0-12.125.101563-24.457031.09375-36.070312.007813-.136719.113281-.226563.113281-.363282v-10.558594c0-.28125-.101562-.5625-.113281-.84375 0-11.425781-.050781-21.621093-.050781-29.445312-.011719-7.101562 5.738281-12.871094 12.84375-12.878906h.492187c3.40625 0 6.675781 1.359375 9.082031 3.773437 2.40625 2.414063 3.753907 5.6875 3.738282 9.097657v152.5c.019531 4.261718 3.367187 7.761718 7.621094 7.980468-3.078126 5.90625-5.25 12.242188-6.449219 18.792969-6.785157 35.363281 11.46875 80.949219 65.535156 109.953125-9.210937 10.203125-20.453125 15.902344-31.816406 15.902344h-67.871094c-17.816406-.003906-34.246094-9.617188-42.976563-25.148438l-57.429687-112.484375zm0 0"/></svg>