<?xml version="1.0" encoding="iso-8859-1"?>
<!-- Generator: Adobe Illustrator 19.0.0, SVG Export Plug-In . SVG Version: 6.00 Build 0)  -->
<svg version="1.1" id="Capa_1" xmlns="http://www.w3.org/2000/svg" xmlns:xlink="http://www.w3.org/1999/xlink" x="0px" y="0px"
	 viewBox="0 0 512 512" style="enable-background:new 0 0 512 512;" xml:space="preserve">
<g>
	<g>
		<path d="M293.79,124.952H18.286C8.186,124.952,0,133.138,0,143.238v225.524c0,10.1,8.186,18.286,18.286,18.286H293.79
			c10.1,0,18.286-8.186,18.286-18.286V143.238C312.076,133.138,303.89,124.952,293.79,124.952z M275.505,350.476H36.571V161.524
			h238.933V350.476z"/>
	</g>
</g>
<g>
	<g>
		<path d="M503.326,130.731c-5.394-3.334-12.123-3.639-17.792-0.798L351.439,196.98c-6.193,3.096-10.106,9.429-10.106,16.354v73.143
			c0,6.467,3.419,12.453,8.984,15.744l134.095,79.238c2.865,1.688,6.083,2.542,9.301,2.542c3.127,0,6.254-0.798,9.064-2.408
			c5.705-3.255,9.222-9.314,9.222-15.878V146.286C512,139.947,508.721,134.065,503.326,130.731z M475.429,333.666l-97.524-57.624
			v-51.407l97.524-48.762V333.666z"/>
	</g>
</g>
<g>
</g>
<g>
</g>
<g>
</g>
<g>
</g>
<g>
</g>
<g>
</g>
<g>
</g>
<g>
</g>
<g>
</g>
<g>
</g>
<g>
</g>
<g>
</g>
<g>
</g>
<g>
</g>
<g>
</g>
</svg>
