<svg height="473pt" viewBox="-59 0 473 473.913" width="473pt" xmlns="http://www.w3.org/2000/svg"><path d="m348.570312 123.914062h-72.113281v-28.613281c0-52.550781-42.949219-95.300781-95.5-95.300781s-95.5 42.75-95.5 95.300781v28.613281h-79.113281c-1.570312-.015624-3.082031.601563-4.1875 1.714844-1.109375 1.113282-1.722656 2.628906-1.699219 4.199219v261.097656c-.007812 45.757813 37.027344 82.886719 82.785157 82.988281h188.429687c45.757813-.101562 82.792969-37.230468 82.785156-82.988281v-261.097656c.023438-1.570313-.589843-3.085937-1.699219-4.199219-1.105468-1.113281-2.617187-1.730468-4.1875-1.714844zm-251.113281-28.613281c0-45.933593 37.566407-83.300781 83.5-83.300781 45.933594 0 83.5 37.367188 83.5 83.300781v28.613281h-167zm245 295.625c.015625 39.132813-31.652343 70.894531-70.785156 70.988281h-188.429687c-39.132813-.09375-70.800782-31.855468-70.785157-70.988281v-255.011719h73v58.144532c0 3.316406 2.6875 6 6 6s6-2.683594 6-6v-58.144532h167v58.144532c0 3.316406 2.6875 6 6 6s6-2.683594 6-6v-58.144532h66zm0 0"/><path d="m77.683594 310.914062h97.574218c3.3125 0 6-2.6875 6-6 0-3.316406-2.6875-6-6-6h-97.574218c-3.3125 0-6 2.683594-6 6 0 3.3125 2.6875 6 6 6zm0 0"/><path d="m77.683594 344.914062c-3.3125 0-6 2.683594-6 6 0 3.3125 2.6875 6 6 6h199.546875c3.3125 0 6-2.6875 6-6 0-3.316406-2.6875-6-6-6zm0 0"/></svg>