<svg height="502pt" viewBox="-152 0 502 502.00025" width="502pt" xmlns="http://www.w3.org/2000/svg"><path d="m8.253906 502h181.488282c4.46875.019531 8.136718-3.53125 8.257812-8v-181.492188c0-4.417968-3.835938-7.507812-8.257812-7.507812h-32.097657l-41.917969-39.105469c13.363282-5.910156 22.636719-18.785156 22.636719-33.539062.027344-4.417969-3.535156-8.019531-7.953125-8.046875-4.417968-.023438-8.019531 3.539062-8.046875 7.957031 0 11.210937-9.898437 20.375-22.285156 20.882813-.714844-.101563-1.441406-.105469-2.15625-.007813-12.382813-.507813-22.285156-9.691406-22.285156-20.902344 0-11.535156 10.480469-20.921875 23.363281-20.921875 4.417969 0 8-3.582031 8-8v-21.316406h36.625c3.375.058594 6.414062-2.042969 7.550781-5.222656l23.53125-67.277344c.007813-.03125.015625-.027344.027344-.058594.058594-.175781.105469-.332031.152344-.511718.023437-.089844.050781-.171876.070312-.261719.035157-.164063.0625-.328125.089844-.5.015625-.109375.035156-.210938.050781-.320313.015625-.148437.023438-.300781.03125-.449218.007813-.128907.019532-.253907.019532-.382813 0-.03125 0-.058594 0-.085937 0-.117188-.011719-.234376-.019532-.351563-.003906-.117187-.003906-.253906-.019531-.378906-.015625-.171875-.042969-.339844-.066406-.507813-.015625-.101562-.027344-.195312-.042969-.292968-.042969-.210938-.097656-.414063-.152344-.621094-.015625-.050782-.027344-.105469-.042968-.160156-.160157-.53125-.375-1.042969-.640626-1.53125l-23.523437-42.949219c-1.40625-2.558594-4.097656-4.144531-7.015625-4.136719h-6.625v-16h27.625c4.582031-.191406 8.238281-3.890625 8.375-8.472656v-23.527344c-.175781-4.488281-3.882812-8.0273438-8.375-8h-131.253906c-4.492188-.0273438-8.195313 3.511719-8.371094 8v23.527344c.132812 4.582031 3.789062 8.28125 8.371094 8.472656h27.628906v16h-6.625c-2.921875-.007812-5.613281 1.578125-7.019531 4.136719l-23.527344 42.964843c-.265625.484376-.480469.996094-.640625 1.523438-.015625.054688-.027344.105469-.042969.160156-.054687.199219-.109375.410156-.148437.617188-.019532.101562-.03125.195312-.046875.292968-.023438.167969-.050781.335938-.066407.503907-.011718.128906-.015624.257812-.019531.382812-.003906.128907-.019531.230469-.019531.351563v.085937c0 .128907.011719.253907.019531.382813.011719.152344.015625.300781.035157.449218.011718.109376.03125.214844.046874.324219.027344.167969.054688.335938.09375.5.019532.089844.042969.179688.066407.269531.046875.179688.101562.355469.15625.53125.007812.03125.015625.0625.027343.089844l23.527344 67.210938c1.136719 3.183594 4.179688 5.285156 7.558594 5.222656h36.625v14.078125c-17.886719 3.476563-31.367188 18.367187-31.367188 36.15625 0 14.75 9.273438 27.75 22.640626 33.660156l-41.917969 39.105469h-32.101563c-4.417968 0-8.253906 3.089844-8.253906 7.507812v181.492188c.121094 4.464844 3.785156 8.019531 8.253906 8zm32.746094-486h116v8h-116zm36 24h44v16h-44zm-17.886719 32h79.769531l14.765626 27h-109.296876zm-17 43h113.769531l-17.941406 51h-77.886718zm36.886719 206h40v25.222656l-17.601562-6.265625c-1.585938-.601562-3.339844-.601562-4.925782 0l-17.472656 6.265625zm20-48.550781 35.105469 32.550781h-70.214844zm-83 48.550781h47v36.507812c-.117188 2.558594 1.050781 5.003907 3.117188 6.523438 2.0625 1.515625 4.75 1.898438 7.15625 1.023438l25.785156-9.070313 25.820312 9.070313c.84375.300781 1.734375.453124 2.632813.453124 1.578125-.003906 3.113281-.519531 4.371093-1.472656 2.046876-1.53125 3.214844-3.972656 3.117188-6.527344v-36.507812h47v165h-166zm0 0"/><path d="m55.5 410h57c4.417969 0 8-3.582031 8-8s-3.582031-8-8-8h-57c-4.421875 0-8 3.582031-8 8s3.578125 8 8 8zm0 0"/><path d="m142.5 424h-87c-4.421875 0-8 3.582031-8 8s3.578125 8 8 8h87c4.417969 0 8-3.582031 8-8s-3.582031-8-8-8zm0 0"/></svg>