<svg height="477pt" viewBox="0 -2 477.00946 477" width="477pt" xmlns="http://www.w3.org/2000/svg"><path d="m59.613281 68.347656h16v22.152344h-16zm0 0"/><path d="m104.988281 68.359375h16v22.152344h-16zm0 0"/><path d="m150.367188 68.371094h16v22.148437h-16zm0 0"/><path d="m195.742188 68.382812h16v22.148438h-16zm0 0"/><path d="m59.628906 109.339844h16v22.152344h-16zm0 0"/><path d="m105.003906 109.351562h16v22.152344h-16zm0 0"/><path d="m150.382812 109.363281h16v22.152344h-16zm0 0"/><path d="m195.757812 109.375h16v22.148438h-16zm0 0"/><path d="m59.644531 149.703125h16v22.148437h-16zm0 0"/><path d="m105.019531 149.714844h16v22.148437h-16zm0 0"/><path d="m150.398438 149.726562h16v22.148438h-16zm0 0"/><path d="m195.773438 149.734375h16v22.152344h-16zm0 0"/><path d="m59.660156 190.695312h16v22.152344h-16zm0 0"/><path d="m105.035156 190.707031h16v22.148438h-16zm0 0"/><path d="m150.414062 190.71875h16v22.148438h-16zm0 0"/><path d="m195.789062 190.730469h16v22.148437h-16zm0 0"/><path d="m59.675781 231.6875h16v22.152344h-16zm0 0"/><path d="m105.054688 231.699219h16v22.152343h-16zm0 0"/><path d="m150.429688 231.710938h16v22.148437h-16zm0 0"/><path d="m195.804688 231.722656h16v22.148438h-16zm0 0"/><path d="m59.613281 275.347656h16v22.152344h-16zm0 0"/><path d="m104.988281 275.359375h16v22.152344h-16zm0 0"/><path d="m150.367188 275.371094h16v22.148437h-16zm0 0"/><path d="m195.742188 275.382812h16v22.148438h-16zm0 0"/><path d="m59.628906 316.339844h16v22.152344h-16zm0 0"/><path d="m105.003906 316.351562h16v22.152344h-16zm0 0"/><path d="m150.382812 316.363281h16v22.152344h-16zm0 0"/><path d="m195.757812 316.375h16v22.148438h-16zm0 0"/><path d="m59.644531 356.703125h16v22.148437h-16zm0 0"/><path d="m105.019531 356.714844h16v22.148437h-16zm0 0"/><path d="m150.398438 356.726562h16v22.148438h-16zm0 0"/><path d="m195.773438 356.734375h16v22.152344h-16zm0 0"/><path d="m267.660156 190.695312h16v22.152344h-16zm0 0"/><path d="m313.035156 190.707031h16v22.148438h-16zm0 0"/><path d="m358.414062 190.71875h16v22.148438h-16zm0 0"/><path d="m403.789062 190.730469h16v22.148437h-16zm0 0"/><path d="m267.675781 231.6875h16v22.152344h-16zm0 0"/><path d="m313.054688 231.699219h16v22.152343h-16zm0 0"/><path d="m358.429688 231.710938h16v22.148437h-16zm0 0"/><path d="m403.804688 231.722656h16v22.148438h-16zm0 0"/><path d="m267.613281 275.347656h16v22.152344h-16zm0 0"/><path d="m312.988281 275.359375h16v22.152344h-16zm0 0"/><path d="m358.367188 275.371094h16v22.148437h-16zm0 0"/><path d="m403.742188 275.382812h16v22.148438h-16zm0 0"/><path d="m267.628906 316.339844h16v22.152344h-16zm0 0"/><path d="m313.003906 316.351562h16v22.152344h-16zm0 0"/><path d="m358.382812 316.363281h16v22.152344h-16zm0 0"/><path d="m403.757812 316.375h16v22.148438h-16zm0 0"/><path d="m267.644531 356.703125h16v22.148437h-16zm0 0"/><path d="m313.019531 356.714844h16v22.148437h-16zm0 0"/><path d="m358.398438 356.726562h16v22.148438h-16zm0 0"/><path d="m403.773438 356.734375h16v22.152344h-16zm0 0"/><path d="m469.5 422.007812h-14.5v-283.257812c.105469-2.039062-.644531-4.03125-2.066406-5.5s-3.390625-2.28125-5.433594-2.242188h-200.5v-123.390624c.097656-2.027344-.65625-4.003907-2.082031-5.449219-1.425781-1.445313-3.390625-2.2265628-5.417969-2.1601565h-208c-4.417969 0-8.5 3.1914065-8.5 7.6093755v414.390624h-14.5c-4.417969 0-8.5 3.324219-8.5 7.742188v34.652344c0 4.417968 4.082031 7.605468 8.5 7.605468h461c2.027344.070313 3.992188-.710937 5.417969-2.15625 1.425781-1.449218 2.179687-3.421874 2.082031-5.449218v-34.652344c.105469-2.039062-.644531-4.03125-2.066406-5.5s-3.390625-2.28125-5.433594-2.242188zm-30.5-275v275h-192v-275zm-400-131h192v406h-192zm422 440h-445v-18h445zm0 0"/></svg>