<?xml version="1.0"?>
<svg xmlns="http://www.w3.org/2000/svg" id="Layer_1" data-name="Layer 1" viewBox="0 0 512 512" width="512" height="512"><title>Invoice</title><path d="M478.518,194.631,260.7,39.5a8.05,8.05,0,0,0-9.315,0L33.5,194.631a8.134,8.134,0,0,0-3.5,6.515V465.984A8.228,8.228,0,0,0,38.248,474h435.5c.018,0,.036-.011.054-.011a7.759,7.759,0,0,0,.867-.057c.08-.009.16-.027.241-.038.229-.034.456-.076.679-.128.083-.02.165-.042.248-.064.226-.061.446-.132.664-.211.072-.027.146-.051.218-.08a7.738,7.738,0,0,0,.768-.353l.065-.031a8.026,8.026,0,0,0,.757-.469c.085-.059.166-.124.249-.186q.242-.182.467-.379c.086-.075.171-.151.254-.23.171-.164.334-.336.491-.515.044-.05.091-.1.133-.147a7.971,7.971,0,0,0,.556-.758c.013-.02.029-.037.042-.058.039-.061.069-.125.106-.187.086-.142.17-.285.247-.433.05-.1.1-.195.141-.292.064-.138.127-.276.184-.418.046-.114.086-.228.126-.343s.088-.257.127-.388.071-.266.1-.4c.028-.117.055-.234.078-.353.029-.152.05-.3.069-.456.014-.105.029-.21.038-.317.015-.167.145-.334.149-.5,0-.072.135-.142.135-.214V201.146A8.12,8.12,0,0,0,478.518,194.631Zm-15.808,8.3L385,287.671V151.53a8.113,8.113,0,0,0-2.649-5.79ZM256,55.838l124.343,88.819a7.841,7.841,0,0,0-3.661-.657H135.318a7.841,7.841,0,0,0-3.661.657ZM369,160V305.1l-49.04,53.248-59.58-37.934a8.068,8.068,0,0,0-8.653.008L195.7,356.17,143,300.211V160ZM129.57,145.74a8.039,8.039,0,0,0-2.57,5.79V283.162L50.865,201.867ZM46,220.159,181.879,364.944,46,451.913ZM66.442,458l132.333-84.708c.015-.009.03-.023.045-.032l57.188-36.606,60.942,38.852c.01.006.019.02.029.026L446.323,458ZM466,451.4,333.75,367.083,466,223.018Z"/><path d="M256,280.549a16.38,16.38,0,0,1-16.361-16.361,8,8,0,0,0-16,0A32.418,32.418,0,0,0,248,295.547V303a8,8,0,0,0,16,0v-7.453a32.362,32.362,0,0,0-8-63.72,16.362,16.362,0,1,1,16.361-16.362,8,8,0,1,0,16,0A32.417,32.417,0,0,0,264,184.107V177a8,8,0,0,0-16,0v7.107a32.362,32.362,0,0,0,8,63.72,16.361,16.361,0,0,1,0,32.722Z"/></svg>
