<svg height="493pt" viewBox="-8 0 493 493.774" width="493pt" xmlns="http://www.w3.org/2000/svg"><path d="m82.242188 118h-33.738282c-3.3125 0-6 2.6875-6 6s2.6875 6 6 6h33.738282c3.3125 0 6-2.6875 6-6s-2.6875-6-6-6zm0 0"/><path d="m199.917969 130h33.738281c3.3125 0 6-2.6875 6-6s-2.6875-6-6-6h-33.738281c-3.3125 0-6 2.6875-6 6s2.6875 6 6 6zm0 0"/><path d="m157.949219 118h-33.738281c-3.3125 0-6 2.6875-6 6s2.6875 6 6 6h33.738281c3.3125 0 6-2.6875 6-6s-2.6875-6-6-6zm0 0"/><path d="m82.242188 179h-33.738282c-3.3125 0-6 2.6875-6 6s2.6875 6 6 6h33.738282c3.3125 0 6-2.6875 6-6s-2.6875-6-6-6zm0 0"/><path d="m199.917969 191h33.738281c3.3125 0 6-2.6875 6-6s-2.6875-6-6-6h-33.738281c-3.3125 0-6 2.6875-6 6s2.6875 6 6 6zm0 0"/><path d="m157.949219 179h-33.738281c-3.3125 0-6 2.6875-6 6s2.6875 6 6 6h33.738281c3.3125 0 6-2.6875 6-6s-2.6875-6-6-6zm0 0"/><path d="m82.242188 240h-33.738282c-3.3125 0-6 2.6875-6 6s2.6875 6 6 6h33.738282c3.3125 0 6-2.6875 6-6s-2.6875-6-6-6zm0 0"/><path d="m199.917969 252h33.738281c3.3125 0 6-2.6875 6-6s-2.6875-6-6-6h-33.738281c-3.3125 0-6 2.6875-6 6s2.6875 6 6 6zm0 0"/><path d="m157.949219 240h-33.738281c-3.3125 0-6 2.6875-6 6s2.6875 6 6 6h33.738281c3.3125 0 6-2.6875 6-6s-2.6875-6-6-6zm0 0"/><path d="m82.242188 301h-33.738282c-3.3125 0-6 2.6875-6 6s2.6875 6 6 6h33.738282c3.3125 0 6-2.6875 6-6s-2.6875-6-6-6zm0 0"/><path d="m157.949219 301h-33.738281c-3.3125 0-6 2.6875-6 6s2.6875 6 6 6h33.738281c3.3125 0 6-2.6875 6-6s-2.6875-6-6-6zm0 0"/><path d="m345.863281 231.824219c-18.441406-.058594-36.679687 3.859375-53.472656 11.488281v-176.738281c0-3.316407-3-5.574219-6.3125-5.574219h-27.6875v-54.824219c0-3.316406-3.179687-6.175781-6.5-6.175781h-211.628906c-3.320313.09375-5.941407 2.851562-5.871094 6.175781v54.824219h-28.3125c-1.511719-.085938-2.988281.472656-4.074219 1.53125-1.082031 1.058594-1.664062 2.527344-1.613281 4.042969v400.527343c-.066406 1.546876.503906 3.054688 1.578125 4.167969 1.074219 1.117188 2.5625 1.742188 4.109375 1.730469h268.988281c21.082032 13.523438 45.59375 20.734375 70.640625 20.773438 72.230469 0 131.078125-58.742188 131.078125-130.972657 0-72.234375-58.691406-130.976562-130.921875-130.976562zm-299.472656-219.824219h200v49h-200zm142 449h-89v-99h89zm12 0v-104.84375c-.007813-3.355469-2.691406-6.085938-6.046875-6.15625h-101.246094c-1.574218.046875-3.066406.726562-4.140625 1.882812-1.070312 1.160157-1.636719 2.695313-1.566406 4.273438v104.84375h-75v-388h268v176.484375c-21 12.152344-38.472656 29.515625-50 51.515625h-30.472656c-3.3125 0-6 2.6875-6 6s2.6875 6 6 6h24.761719c-6.644532 15.800781-10.035157 32.777344-9.972657 49.921875-.015625 37.578125 16.203125 73.332031 44.484375 98.078125zm145.316406 20.824219c-65.722656 0-119-53.277344-119-119 0-65.71875 53.277344-119 119-119 65.71875 0 119 53.28125 119 119-.074219 65.691406-53.308593 118.925781-119 119zm0 0"/><path d="m413.054688 306h-27.664063v-2.300781c.019531-5.507813-2.164063-10.792969-6.066406-14.679688-3.898438-3.890625-9.191407-6.054687-14.699219-6.019531h-38.464844c-5.507812-.035156-10.800781 2.128906-14.703125 6.019531-3.898437 3.886719-6.082031 9.171875-6.066406 14.679688v2.300781h-27.660156c-12.039063 0-21.339844 10.03125-21.339844 22.070312v19.960938c-.132813 5.804688 2.945313 11.210938 8 14.066406v56.433594c.011719 4.691406 1.902344 9.183594 5.253906 12.464844 3.351563 3.285156 7.878907 5.089844 12.570313 5.003906h126.355468c4.691407.085938 9.21875-1.71875 12.570313-5.003906 3.351563-3.28125 5.242187-7.773438 5.25-12.464844v-56.273438c4.988281-2.269531 8.136719-7.300781 8-12.78125v-21.40625c0-12.039062-9.296875-22.070312-21.335937-22.070312zm-95.664063-2.300781c-.019531-2.324219.898437-4.5625 2.546875-6.199219 1.652344-1.640625 3.894531-2.539062 6.222656-2.5h38.464844c2.324219-.039062 4.566406.859375 6.21875 2.5 1.652344 1.636719 2.570312 3.875 2.546875 6.199219v2.300781h-56zm-49 24.371093c0-5.421874 3.917969-10.070312 9.339844-10.070312h135.324219c5.421874 0 9.335937 4.648438 9.335937 10.070312v21.40625c.085937.808594-.394531 1.570313-1.164063 1.839844l-52.835937 15.621094v-3.835938c.042969-3.320312-2.605469-6.046874-5.925781-6.101562h-34.148438c-3.316406.054688-5.964844 2.78125-5.925781 6.101562v4.414063l-51.414063-15.710937c-1.617187-.523438-2.679687-2.074219-2.585937-3.773438zm88 40.929688v12.839844c0 6.074218-4.921875 11-11 11-6.074219 0-11-4.925782-11-11v-12.839844zm52.179687 55h-126.355468c-1.507813.089844-2.988282-.449219-4.089844-1.484375-1.101562-1.03125-1.726562-2.476563-1.734375-3.984375v-52.460938l46 13.992188v1.777344c0 12.699218 10.300781 23 23 23 12.703125 0 23-10.300782 23-23v-2.394532l46-13.539062v52.625c-.003906 1.511719-.632813 2.953125-1.734375 3.988281-1.097656 1.035157-2.578125 1.570313-4.085938 1.480469zm0 0"/></svg>