<?xml version="1.0"?>
<svg xmlns="http://www.w3.org/2000/svg" id="Layer_1" data-name="Layer 1" viewBox="0 0 512 512" width="512" height="512"><title>Driller</title><path d="M492.311,59H391.8c-4.419,0-7.8,4.043-7.8,8.461V71H350V49.629A37.955,37.955,0,0,0,312.416,12H199.584A37.955,37.955,0,0,0,162,49.629V71H128V67.461c0-4.418-3.382-8.461-7.8-8.461H19.689C15.271,59,12,63.043,12,67.461v59.658A7.639,7.639,0,0,0,19.689,135H120.2a7.731,7.731,0,0,0,7.8-7.881V124h34V325.871A8.465,8.465,0,0,0,170.4,334H194v41.478c0,4.418,3.6,7.522,8.016,7.522H211v28.467c0,4.419,3.62,7.533,8.038,7.533H232v72.552A8.777,8.777,0,0,0,240.437,500h31.126A8.777,8.777,0,0,0,280,491.552V419h12.962c4.418,0,8.038-3.114,8.038-7.533V383h8.984c4.418,0,8.016-3.1,8.016-7.522V334h23.6a8.465,8.465,0,0,0,8.4-8.129V124h34v3.119A7.731,7.731,0,0,0,391.8,135h100.51A7.639,7.639,0,0,0,500,127.119V67.461C500,63.043,496.729,59,492.311,59ZM112,78.809V119H28V75h84ZM162,108H128V87h34ZM264,484H248V419h16Zm21-81H227V383h58Zm17-36H210V334h92Zm32-49H178V106H334Zm0-228H178V49.629A21.94,21.94,0,0,1,199.584,28H312.416A21.94,21.94,0,0,1,334,49.629Zm50,18H350V87h34Zm100,11H400V75h84Z"/><path d="M228,264h56a8,8,0,0,0,0-16H228a8,8,0,0,0,0,16Z"/><path d="M228,234h56a8,8,0,0,0,0-16H228a8,8,0,0,0,0,16Z"/><path d="M228,204h56a8,8,0,0,0,0-16H228a8,8,0,0,0,0,16Z"/></svg>
