<?xml version="1.0"?>
<svg xmlns="http://www.w3.org/2000/svg" id="Layer_1" data-name="Layer 1" viewBox="0 0 512 512" width="512" height="512"><title>Book</title><path d="M465.09,272.537l-20.958-2.229a95.722,95.722,0,0,0-23.922-28.693l1.133-10.2c1.25-11.254,1.482-14.558,1.116-16.947-.692-5.5-5.142-9.34-11.06-9.386a39.287,39.287,0,0,0-9.4,1.18V122.226C402,107.489,389.8,96,375.06,96H367V48.744A26.832,26.832,0,0,0,340.2,22H81.915C58.44,22,38.608,41.582,38.608,64.75c0,.7.216,1.395.248,2.083-.031.246.144.5.144.752V446.693A43.113,43.113,0,0,0,81.915,490H375.06A26.955,26.955,0,0,0,402,463.256V411.667a41.978,41.978,0,0,0,20.7-8.8,36.233,36.233,0,0,0,10.779-41.209,89.015,89.015,0,0,0,10.826-16.187l21.2-2.246a2.731,2.731,0,0,0,.341-.083A8.823,8.823,0,0,0,473,334.448V281.336A8.651,8.651,0,0,0,465.09,272.537ZM81.915,34H340.2A14.819,14.819,0,0,1,355,48.744V96H81.915A30.914,30.914,0,0,1,50.608,65C50.608,48.337,64.945,34,81.915,34ZM375.06,478H81.932A31.1,31.1,0,0,1,51,446.676V94.551C58,102.571,69.481,108,81.915,108H375.06c8.12,0,14.94,6.106,14.94,14.226v87.637c-2,.81-4.815,1.731-7.372,2.75a43.98,43.98,0,0,0-86.446,11.4,44.687,44.687,0,0,0,.238,4.556,102.9,102.9,0,0,0-39.586,32.89c-.073.065-.158.113-.228.183a22.019,22.019,0,0,1-31.14-31.138,6,6,0,1,0-8.486-8.485,34,34,0,0,0,30,57.527,73.858,73.858,0,0,0-5.928,23.9c-.008.125-.05.249-.05.374v3.934a80.777,80.777,0,0,0,15.362,47.038c-8.871,14.275-7.383,32.441,4.063,44.505a40.7,40.7,0,0,0,28.336,12.616c.059,0,.127.09.186.09h1.124a40.02,40.02,0,0,0,27.761-11.032l5.1-4.942a118.324,118.324,0,0,0,41.5,1.247l3.7,3.392A41.927,41.927,0,0,0,390,411.385v51.871A14.942,14.942,0,0,1,375.06,478ZM320.989,250a32.042,32.042,0,1,1,51.04-25.78c0,10.052-4.66,18.78-12.844,25.78ZM461,331.592,440.3,333.8a6.864,6.864,0,0,0-4.51,2.3,5.857,5.857,0,0,0-1.119,1.648,77.13,77.13,0,0,1-12.5,18.513,5.981,5.981,0,0,0-1.423,2.82,6.433,6.433,0,0,0,.695,5.111,24.312,24.312,0,0,1-6.463,29.386c-11.087,9.008-28.114,8.263-38.737-1.667l-5.3-5.023a6.932,6.932,0,0,0-5.006-1.96,5.946,5.946,0,0,0-1.023.088,106.031,106.031,0,0,1-42-1.333,6.006,6.006,0,0,0-1.374-.16,6.936,6.936,0,0,0-5.026,1.978l-6.986,6.8a28.062,28.062,0,0,1-19.462,7.7h-1.032a27.726,27.726,0,0,1-19.906-8.895c-8.216-8.66-8.636-22.213-1-32.165a6.222,6.222,0,0,0,.607-.993,6.8,6.8,0,0,0-.763-7.623C258.2,337.666,253,322.941,253,307.751v-3.74a77.91,77.91,0,0,1,6.711-23.644l3.822-7.334c8.185-13.49,20.752-24.69,35.794-32.364A49.426,49.426,0,0,0,304.354,250h-5.291a6,6,0,0,0,0,12H381.12a6,6,0,0,0,0-12h-5.388c5.18-8,8.077-15.877,8.268-24.907,16.309-6.736,23.56-8.093,26.6-8.093h.03c-.038,3-.8,9.533-1.195,13.069l-1.405,12.945a6,6,0,0,0-.035.657,6.941,6.941,0,0,0,2.04,5.092,6.082,6.082,0,0,0,.565.5,84.207,84.207,0,0,1,24.163,28.854,5.967,5.967,0,0,0,1.122,1.558,6.565,6.565,0,0,0,4.416,2.305L461,284.192Z"/><path d="M389.831,274.493a14.431,14.431,0,1,0,14.431,14.43A14.446,14.446,0,0,0,389.831,274.493Zm0,16.861a2.431,2.431,0,1,1,2.431-2.431A2.433,2.433,0,0,1,389.831,291.354Z"/></svg>
