<svg height="478pt" viewBox="0 -20 478.11016 478" width="478pt" xmlns="http://www.w3.org/2000/svg"><path d="m170.054688 225.054688c0-4.417969-3.582032-8-8-8h-78c-4.417969 0-8 3.582031-8 8v59c0 4.417968 3.582031 8 8 8h78c4.417968 0 8-3.582032 8-8zm-78 8h62v43h-62zm0 0"/><path d="m402.054688 225.054688c0-4.417969-3.582032-8-8-8h-78c-4.417969 0-8 3.582031-8 8v59c0 4.417968 3.582031 8 8 8h78c4.417968 0 8-3.582032 8-8zm-78 8h62v43h-62zm0 0"/><path d="m437.871094 6.003906c-.902344-3.539062-4.109375-5.9960935-7.761719-5.9492185h-382.109375c-3.652344-.046875-6.859375 2.4101565-7.761719 5.9492185l-40 159.945313c-.597656 2.414062-.0625 4.972656 1.457031 6.945312 1.507813 1.964844 3.828126 3.128907 6.304688 3.160157h32.054688v254.222656c-.003907 2.09375.839843 4.097656 2.335937 5.5625 1.492187 1.464844 3.515625 2.265625 5.609375 2.214844h382.109375c2.09375.050781 4.117187-.75 5.613281-2.214844s2.335938-3.46875 2.332032-5.5625v-254.222656h32.054687c2.480469-.042969 4.800781-1.214844 6.308594-3.1875 1.515625-1.941407 2.050781-4.472657 1.453125-6.863282zm-328.167969 63.050782h53.136719l-4.25 34h-55.261719zm-22.65625 34h-54.550781l8.5-34h52.425781zm210.101563-50h-50.09375v-37h45.464843zm11.5-37h49.824218l6.9375 37h-52.140625zm-61.59375 53h52.089843l4.25 34h-56.339843zm-16 34h-56.339844l4.25-34h52.089844zm0-50h-50.089844l4.625-37h45.464844zm-66.214844 0h-52.136719l6.9375-37h49.824219zm-8.25 66-5.125 41h-58.824219l7.6875-41zm16.125 0h58.339844v41h-63.464844zm74.339844 0h58.339843l5.125 41h-63.464843zm79.589843 41-5.125-41h56.265625l7.6875 41zm-7.125-57-4.25-34h53.140625l6.375 34zm65.167969-34h52.425781l8.5 34h-54.550781zm48.425781-16h-51.425781l-6.9375-37h49.113281zm-378.867187-37h49.113281l-6.9375 37h-51.425781zm-25.75 103h55.550781l-7.6875 41h-58.113281zm264.558594 303h-114v-84h114zm129 0h-113v-91.5c0-4.417969-3.148438-8.5-7.566407-8.5h-130.488281c-4.417969 0-7.945312 4.078124-7.945312 8.5v91.5h-107v-246h366zm8.054687-262h-28.359375l-7.6875-41h55.550781l10.25 41zm0 0"/></svg>