<?xml version="1.0"?>
<svg xmlns="http://www.w3.org/2000/svg" id="Layer_1" data-name="Layer 1" viewBox="0 0 512 512" width="512" height="512"><title>Message Rupees</title><path d="M478.518,194.631,260.7,39.5a8.046,8.046,0,0,0-9.313,0L33.5,194.631a8.136,8.136,0,0,0-3.5,6.515V465.984A8.229,8.229,0,0,0,38.248,474h435.5c.018,0,.034-.01.052-.011a7.779,7.779,0,0,0,.869-.057c.08-.009.159-.026.239-.038.231-.034.458-.076.682-.128.083-.02.164-.042.246-.064.227-.061.447-.131.665-.211.073-.027.146-.051.218-.08a7.657,7.657,0,0,0,.764-.351c.023-.012.047-.021.071-.034a7.884,7.884,0,0,0,.754-.467c.087-.06.171-.127.256-.192q.235-.177.458-.37c.088-.078.175-.156.261-.238.166-.159.325-.326.476-.5.049-.055.1-.105.147-.162a7.929,7.929,0,0,0,.55-.75c.015-.022.032-.041.046-.063.042-.066.075-.135.115-.2.081-.136.161-.272.235-.413.052-.1.1-.205.148-.308.063-.133.123-.266.178-.4.048-.118.089-.237.131-.356s.085-.249.122-.376.073-.273.1-.41c.028-.114.054-.227.075-.342.03-.155.052-.311.072-.466.013-.1.028-.2.037-.309.014-.169.145-.339.149-.508,0-.07.135-.138.135-.209V201.146A8.12,8.12,0,0,0,478.518,194.631Zm-15.809,8.3L385,287.671V151.53a8.117,8.117,0,0,0-2.651-5.792ZM256,55.838l124.344,88.82a7.835,7.835,0,0,0-3.662-.658H135.318a7.835,7.835,0,0,0-3.662.658ZM369,160V305.1l-49.039,53.247-59.58-37.934a8.068,8.068,0,0,0-8.653.008L195.7,356.17,143,300.211V160ZM129.572,145.738A8.039,8.039,0,0,0,127,151.53V283.163l-76.136-81.3ZM46,220.159,181.879,364.944,46,451.913ZM66.441,458l132.336-84.709c.014-.008.027-.021.039-.029l57.193-36.608,60.942,38.853c.01,0,.019.019.028.024L446.322,458ZM466,451.4,333.751,367.083,466,223.019Z"/><path d="M218.018,222a8,8,0,0,0,8,8h32.958a17.555,17.555,0,0,1-15.8,10H226.018a7.927,7.927,0,0,0-5.5,13.713l42.887,40.509A8,8,0,0,0,274.4,282.579l-28.391-26.9A33.707,33.707,0,0,0,275.945,230h10.037a8,8,0,0,0,0-16H275.938a42.622,42.622,0,0,0-4.084-10h14.128a8,8,0,0,0,0-16H226.018a8,8,0,0,0,0,16h17.159a17.556,17.556,0,0,1,15.8,10H226.018A8,8,0,0,0,218.018,222Z"/></svg>
