<?xml version="1.0"?>
<svg xmlns="http://www.w3.org/2000/svg" id="Layer_1" data-name="Layer 1" viewBox="0 0 512 512" width="512" height="512"><title>Dumper</title><path d="M486.148,253H197V141.781c0-4.418-4.067-7.781-8.485-7.781H130.927a41.016,41.016,0,0,0-36.686,22.255L66.2,210.6,32.847,224.92A24.508,24.508,0,0,0,18,247.533v75.46C18,336.578,28.9,348,42.489,348H59.027a40.448,40.448,0,0,0-.22,4.5,52.415,52.415,0,0,0,104.829.047,41.33,41.33,0,0,0-.221-4.551H352.051a40.448,40.448,0,0,0-.22,4.5,52.415,52.415,0,0,0,104.829.047,41.33,41.33,0,0,0-.221-4.551h29.709c4.418,0,7.852-3.952,7.852-8.37V261.421C494,257,490.566,253,486.148,253ZM111.221,388.734a36.415,36.415,0,1,1,36.415-36.415A36.456,36.456,0,0,1,111.221,388.734ZM181,332H159.371a52.4,52.4,0,0,0-96.3,0H42.489C37.727,332,34,327.755,34,322.993V247.534a8.4,8.4,0,0,1,5.157-7.822L73.642,225H181Zm0-123H85.121l23.342-45.3A25.184,25.184,0,0,1,130.928,150H181ZM404.245,388.734a36.415,36.415,0,1,1,36.415-36.415A36.456,36.456,0,0,1,404.245,388.734ZM478,332H452.4a52.4,52.4,0,0,0-96.3,0H197V269H478Z"/><path d="M217,243H485a8,8,0,0,0,8-8V115a8,8,0,0,0-8-8H217a8,8,0,0,0-8,8V235A8,8,0,0,0,217,243Zm8-120H476V227H225Z"/><path d="M351,143a8,8,0,0,0-8,8v50a8,8,0,0,0,16,0V151A8,8,0,0,0,351,143Z"/><path d="M380,143a8,8,0,0,0-8,8v50a8,8,0,0,0,16,0V151A8,8,0,0,0,380,143Z"/><path d="M409,143a8,8,0,0,0-8,8v50a8,8,0,0,0,16,0V151A8,8,0,0,0,409,143Z"/><path d="M438,143a8,8,0,0,0-8,8v50a8,8,0,0,0,16,0V151A8,8,0,0,0,438,143Z"/><path d="M263,143a8,8,0,0,0-8,8v50a8,8,0,0,0,16,0V151A8,8,0,0,0,263,143Z"/><path d="M293,143a8,8,0,0,0-8,8v50a8,8,0,0,0,16,0V151A8,8,0,0,0,293,143Z"/><path d="M322,143a8,8,0,0,0-8,8v50a8,8,0,0,0,16,0V151A8,8,0,0,0,322,143Z"/></svg>
