<?xml version="1.0"?>
<svg xmlns="http://www.w3.org/2000/svg" id="Layer_1" data-name="Layer 1" viewBox="0 0 512 512" width="512" height="512"><title>Email</title><path d="M483.174,190.608c-.009-.09-.015-.18-.027-.27a8.027,8.027,0,0,0-.424-1.71c-.028-.076-.06-.149-.09-.223q-.123-.306-.271-.6c-.039-.078-.079-.154-.12-.23q-.161-.294-.346-.574c-.042-.064-.081-.129-.125-.191q-.23-.327-.493-.633c-.021-.025-.039-.05-.06-.074a7.784,7.784,0,0,0-.64-.645c-.057-.052-.12-.1-.18-.148-.133-.114-.264-.23-.407-.336-.039-.029-.081-.052-.12-.08s-.058-.048-.088-.069L260.839,32.882a8,8,0,0,0-9.122,0L32.773,184.824c-.041.029-.077.064-.118.093-.06.043-.122.08-.181.125-.106.081-.2.171-.3.257-.075.063-.153.125-.226.191a8.076,8.076,0,0,0-.576.58c-.015.017-.032.032-.047.049a7.973,7.973,0,0,0-.566.727c-.026.037-.048.077-.073.115-.14.21-.269.424-.388.645-.038.071-.074.144-.11.217-.1.195-.185.392-.266.592-.034.084-.068.168-.1.253q-.114.318-.2.645c-.019.07-.042.137-.059.208a7.908,7.908,0,0,0-.159.864c-.008.063-.01.127-.016.191-.025.234-.207.469-.211.705,0,.038-.174.076-.174.115V469.627a7.565,7.565,0,0,0,.681,6.916,8.132,8.132,0,0,0,7.021,4c.085,0,.212.214.3.211.1,0,.237.242.336.242H475.222c4.418,0,7.778-4.036,7.778-8.454V191.4c0-.051.1-.1.1-.151C483.1,191.032,483.2,190.82,483.174,190.608ZM45,215.023,174.151,383.874,45,458.375ZM370,320.2l-42.706,57.26-66.93-38.466a8.09,8.09,0,0,0-8.036,0l-63.809,36.813L143,316.29V166H370ZM256.283,355.615,446.34,465H66.657ZM340.844,385.5,467,215.59V458.1Zm-84.566-336.3L464.064,193.259,386,298.651V158.071A8.392,8.392,0,0,0,377.621,150H134.936A8.006,8.006,0,0,0,127,158.071v137.3L48.812,193.191Z"/><path d="M184.936,216h62.685a8,8,0,0,0,0-16H184.936a8,8,0,0,0,0,16Z"/><path d="M184.936,256H327.621a8,8,0,0,0,0-16H184.936a8,8,0,0,0,0,16Z"/><path d="M184.936,296H327.621a8,8,0,0,0,0-16H184.936a8,8,0,0,0,0,16Z"/></svg>
