<svg height="473pt" viewBox="0 -89 473.198 473" width="473pt" xmlns="http://www.w3.org/2000/svg"><path d="m467.199219 209.183594h-1.183594l-64.53125-138.398438c13.105469-4.0625 22.058594-16.15625 22.117187-29.878906.058594-13.71875-8.792968-25.890625-21.863281-30.0625-13.070312-4.167969-27.335937.625-35.238281 11.839844l-92.28125-.589844c-6.765625-13.847656-20.539062-21.992188-37.644531-21.992188-16.253907-.238281-31.089844 9.234376-37.710938 24.082032h-91.152343c-7.339844-11.75-21.515626-17.300782-34.882813-13.660156-13.367187 3.640624-22.765625 15.617187-23.128906 29.46875-.359375 13.847656 8.398437 26.296874 21.558593 30.632812l-64.605468 138.558594h-.652344c-1.574219-.039063-3.09375.554687-4.222656 1.652344-1.128906 1.09375-1.7695315 2.597656-1.777344 4.171874.0117188 32.222657 19.457031 61.253907 49.25 73.527344 29.789062 12.273438 64.042969 5.367188 86.75-17.492187 15.320312-15.171875 23.757812-34.964844 23.757812-56.011719-.007812-1.574219-.644531-3.082031-1.773437-4.183594-1.128906-1.097656-2.652344-1.699218-4.226563-1.664062h-1.183593l-64.269531-137.839844c4.488281-1.128906 8.671874-3.234375 12.257812-6.160156h99.949219c6.976562 10.722656 20.152343 20.632812 36.089843 20.632812 15.933594 0 29.109376-9.910156 36.085938-20.632812h99.949219c3.453125 2.824218 7.46875 4.886718 11.777343 6.050781l-64.320312 137.949219h-.652344c-1.574218-.039063-3.09375.554687-4.222656 1.652344-1.128906 1.09375-1.769531 2.597656-1.777344 4.171874.011719 32.222657 19.457032 61.253907 49.25 73.527344 29.789063 12.273438 64.042969 5.367188 86.75-17.492187 15.320313-15.171875 23.757813-34.964844 23.757813-56.011719-.007813-1.574219-.644531-3.082031-1.773438-4.179688-1.128906-1.101562-2.652343-1.703124-4.226562-1.667968zm-387.585938 73.617187c-35.261719 0-64.304687-27.617187-67.351562-61.617187h135.21875c-3.175781 34-32.960938 61.617187-67.867188 61.617187zm-59.714843-73.617187 59.714843-127.914063 59.71875 127.914063zm61.152343-149.160156c-10.691406 0-19.359375-8.664063-19.359375-19.355469 0-10.691407 8.667969-19.359375 19.359375-19.359375 10.691407 0 19.359375 8.667968 19.359375 19.359375-.011718 10.6875-8.675781 19.347656-19.363281 19.355469zm188.214844-6.839844c-2.21875 0-4.257813 1.230468-5.296875 3.191406-4.601562 8.679688-14.847656 17.441406-27.367188 17.441406-12.519531 0-22.765624-8.761718-27.363281-17.441406-1.042969-1.960938-3.082031-3.191406-5.300781-3.191406h-94.148438c2.339844-5.339844 3.132813-11.230469 2.289063-17h90.820313c2.546874 0 4.816406-1.605469 5.660156-4.007813 4.355468-12.386719 15.09375-20.078125 28.015625-20.078125 13.609375 0 23.832031 6.570313 28.042969 18.03125.863281 2.347656 3.089843 3.914063 5.59375 3.929688l91.167968.570312c-1.226562 6.246094-.519531 12.722656 2.03125 18.554688zm103.527344-12.515625c0-10.691407 8.667969-19.359375 19.359375-19.359375s19.359375 8.667968 19.359375 19.359375c0 10.691406-8.667969 19.355469-19.359375 19.355469-10.6875-.011719-19.347656-8.671876-19.359375-19.355469zm20.261719 40.597656 59.71875 127.917969h-119.4375zm0 201.53125c-35.261719.003906-64.304688-27.613281-67.355469-61.613281h135.222656c-3.175781 34-32.960937 61.617187-67.867187 61.617187zm0 0"/></svg>