<svg id="Layer_1" height="512" viewBox="0 0 512 512" width="512" xmlns="http://www.w3.org/2000/svg" data-name="Layer 1"><path d="m400.9 444.307a37.225 37.225 0 1 0 -37.225 37.225 37.266 37.266 0 0 0 37.225-37.225zm-62.45 0a25.225 25.225 0 1 1 25.225 25.225 25.253 25.253 0 0 1 -25.223-25.225z"/><path d="m487.638 122h-16.914c.358 0 .706-1.572 1.028-2.485a67.133 67.133 0 0 0 -92.135-82.707c-32 15.33-46.274 53.192-33.211 85.192h-20.962l-24.86-51.676a21.346 21.346 0 0 0 -39.774 15.04c-3.105 5.925-12.172 22.636-25.528 36.636h-129.242l-6.74-35.289a5.853 5.853 0 0 0 -5.892-4.711h-69.046a6 6 0 1 0 0 12h64.078l47.523 250.253a50.092 50.092 0 0 0 49.025 40.747h229.717a6 6 0 0 0 0-12h-229.717a37.838 37.838 0 0 1 -37.236-30.714l-6.727-35.286h287.693a6.209 6.209 0 0 0 5.677-4.278l58.919-172.222a6.574 6.574 0 0 0 -.8-5.708 6.281 6.281 0 0 0 -4.876-2.792zm-102.838-74.121a55 55 0 1 1 -25.84 73.358 54.657 54.657 0 0 1 25.84-73.358zm-107.521 23.454a9.36 9.36 0 0 1 12.483 4.4l56.456 117.855a9.358 9.358 0 1 1 -16.879 8.085l-56.456-117.859a9.367 9.367 0 0 1 4.396-12.481zm-10.3 27.933 46.515 97.1c-16.4-2.612-46.311-5.061-72.5 5.31l-23.494-49.038c23.676-13.618 40.989-38.925 49.479-53.372zm-60.2 58.763 23.3 48.642-26.658 12.77-23.3-48.642zm-37.479 17.963 23.3 48.625a10.76 10.76 0 0 1 -14.169-5.126l-14.009-29.245a10.76 10.76 0 0 1 4.878-14.254zm66.059 41.455a151.423 151.423 0 0 0 18.841 28.253 10.584 10.584 0 0 1 -.562 14.365 10.568 10.568 0 0 1 -15.231-.326l-27.967-30.354zm189.071 77.553h-285.685l-30.425-161h114.406a79.84 79.84 0 0 1 -15.721 10.394l-42.72 20.575a22.843 22.843 0 0 0 -10.691 30.406l14.01 29.273a22.716 22.716 0 0 0 30.351 10.715l1.165-.557 30.459 33.06a22.376 22.376 0 0 0 16.115 7.272c.166 0 .333.006.5.006a22.366 22.366 0 0 0 15.911-6.581 22.625 22.625 0 0 0 1.175-30.71 137.288 137.288 0 0 1 -16.971-25.359c29.059-11.074 64.4-4.7 73.977-2.63a21.35 21.35 0 0 0 26.72 7.024 21.635 21.635 0 0 0 10.034-28.709l-25.848-54.179h21.5c8 13 19.666 21.534 33.617 26.448a66.919 66.919 0 0 0 78.159-26.448h14.774z"/><path d="m198.144 481.532a37.225 37.225 0 1 0 -37.225-37.225 37.268 37.268 0 0 0 37.225 37.225zm0-62.449a25.225 25.225 0 1 1 -25.225 25.224 25.253 25.253 0 0 1 25.225-25.224z"/><path d="m412.026 104.71a9.8 9.8 0 1 1 -4.6 13.067 6 6 0 1 0 -10.822 5.185 21.748 21.748 0 0 0 22.642 12.168l1.481 3.092a6 6 0 0 0 10.822-5.184l-1.321-2.758a21.8 21.8 0 0 0 -23.383-36.392 9.8 9.8 0 1 1 4.6-13.067 6 6 0 1 0 10.823-5.185 21.835 21.835 0 0 0 -23.945-11.955l-1.77-3.694a6 6 0 1 0 -10.822 5.184l1.927 4.024a21.8 21.8 0 0 0 24.369 35.515z"/></svg>