<svg height="467pt" viewBox="-4 0 467 467.1" width="467pt" xmlns="http://www.w3.org/2000/svg"><path d="m8.050781 99.480469h56.058594c13.589844 0 25.089844 10.378906 27.34375 24.527343l46.96875 295.160157c1.300781 9.820312 9.617187 17.195312 19.523437 17.3125h12.113282c3.742187 17 18.851562 30.621093 36.875 30.621093 18.027344 0 33.136718-13.621093 36.875-30.621093h95.90625c3.742187 17 18.851562 30.550781 36.875 30.550781 20.828125 0 37.773437-17.554688 37.773437-39.089844s-16.945312-39-37.773437-39c-18.324219 0-33.640625 13.546875-37.054688 31.546875h-95.542968c-3.417969-18-18.730469-31.5-37.058594-31.5-18.324219 0-33.636719 13.492188-37.054688 31.492188h-11.714844c-2.007812-.058594-3.667968-1.574219-3.910156-3.566407-.007812-.050781-.015625.082032-.023437.035157l-8.539063-53.46875h238.574219c18.386719-.023438 34.304687-12.78125 38.335937-30.722657l36.1875-157.175781c.546876-2.421875-.015624-4.964843-1.535156-6.929687-1.503906-1.949219-3.804687-3.113282-6.261718-3.171875h-336.71875l-7.019532-44.089844c-3.496094-21.960937-21.640625-37.910156-43.144531-37.910156h-56.058594c-4.417969 0-7.9999998 3.582031-7.9999998 8s3.5820308 8 7.9999998 8zm368.539063 305.371093c12.007812 0 21.773437 10.34375 21.773437 23.054688 0 12.714844-9.765625 23.058594-21.773437 23.058594-12.003906 0-21.769532-10.34375-21.769532-23.058594s9.765626-23.054688 21.769532-23.054688zm-169.65625 0c12.007812 0 21.773437 10.34375 21.773437 23.054688 0 12.714844-9.765625 23.058594-21.773437 23.058594-12.003906 0-21.773438-10.34375-21.773438-23.058594s9.769532-23.054688 21.773438-23.054688zm234.003906-223.371093-33.929688 147.585937c-2.371093 10.683594-11.800781 18.316406-22.742187 18.414063h-241.121094l-26.324219-166zm0 0"/><path d="m274.054688 121.367188c3.113281 3.0625 8.109374 3.0625 11.222656 0l28.839844-28.390626c3.148437-3.101562 3.191406-8.164062.089843-11.3125-3.125-3.148437-8.207031-3.191406-11.382812-.089843l-15.304688 14.988281v-62.097656c0-4.417969-3.582031-8-8-8s-8 3.582031-8 8v62.097656l-15.15625-14.988281c-2.027343-2.046875-4.996093-2.839844-7.773437-2.082031-2.777344.761718-4.933594 2.957031-5.636719 5.75-.703125 2.792968.152344 5.746093 2.242187 7.730468zm0 0"/><path d="m279.664062 150.132812c41.457032 0 75.066407-33.609374 75.066407-75.066406 0-41.457031-33.605469-75.066406-75.0625-75.066406-41.460938 0-75.066407 33.609375-75.066407 75.066406.042969 41.4375 33.625 75.019532 75.0625 75.066406zm0-134.132812c32.621094 0 59.066407 26.445312 59.066407 59.066406s-26.441407 59.066406-59.066407 59.066406c-32.621093 0-59.066406-26.445312-59.0625-59.066406.035157-32.605468 26.457032-59.027344 59.0625-59.066406zm0 0"/></svg>