<svg height="466pt" viewBox="-2 0 466 466.19582" width="466pt" xmlns="http://www.w3.org/2000/svg"><path d="m412.730469 97.371094-46.957031-.3125.046874-36.390625c.003907-1.5625-.453124-3.09375-1.308593-4.402344l-34.546875-52.65625c-1.476563-2.253906-3.992188-3.609375-6.6875-3.609375-2.695313 0-5.210938 1.355469-6.6875 3.609375l-34.546875 52.660156c-.859375 1.308594-1.3125 2.835938-1.3125 4.402344l-.082031 35.824219-40.550782-.269532v-81.777343c.136719-4.417969-3.332031-8.113281-7.75-8.253907h-78c-4.515625.097657-8.152344 3.738282-8.25 8.253907v60.796875c0 .628906-.25 1.277344-.25 1.953125s.25 1.328125.25 1.953125v16.457031l-42-.285156v-61.820313c-.195312-4.566406-3.898437-8.199218-8.46875-8.308594h-28.421875c-17.832031-.0625-34.941406 7.023438-47.507812 19.671876-11.726563 11.882812-18.6875 27.65625-19.5625 44.328124h-.0390628v218h.1054688c-.082031 1-.1054688 2.300782-.1054688 3.671876v.117187c-.0234374 17.816406 7.0390628 34.910156 19.6249998 47.515625 12.589844 12.609375 29.675782 19.691406 47.492188 19.695312h284.882812v80.199219c-.0625 2.066407.722656 4.070313 2.171875 5.542969 1.453125 1.472656 3.441407 2.289062 5.511719 2.257812h50.445312c13.757813.019532 26.957032-5.433593 36.6875-15.15625 9.730469-9.722656 15.191407-22.914062 15.183594-36.671874v-267.03125c0-27.550782-22.160156-49.964844-49.367187-49.964844zm-63.097657 135.824218h-52.707031l-.183593-165h53.074218zm-.019531 16-.015625 15.789063c-.003906 14.535156-11.785156 26.316406-26.324218 26.316406-14.535157-.003906-26.316407-11.789062-26.316407-26.324219l-.015625-15.78125zm-26.335937-227.074218 19.730468 30.074218h-39.460937zm-99.179688.074218v267h-62v-44h8c4.417969 0 8-3.582031 8-8 0-4.417968-3.582031-8-8-8h-8v-24h8c4.417969 0 8-3.582031 8-8 0-4.417968-3.582031-8-8-8h-8v-24h8c4.417969 0 8-3.582031 8-8 0-4.417968-3.582031-8-8-8h-8v-24h8c4.417969 0 8-3.582031 8-8 0-4.417968-3.582031-8-8-8h-8v-24h8c4.417969 0 8-3.582031 8-8 0-4.417968-3.582031-8-8-8h-8v-47zm-208 70.578126c-.070312-28.335938 22.78125-51.394532 51.117188-51.578126h20.882812v203h-20.824218c-20.496094 0-39.175782 8.757813-51.175782 23.277344zm51.125 269.421874c-13.570312 0-26.585937-5.394531-36.175781-15-9.59375-9.605468-14.96875-22.628906-14.949219-36.199218v-.117188c.035156-13.519531 5.457032-26.464844 15.0625-35.976562 9.605469-9.515625 22.605469-14.804688 36.125-14.707032h28.34375c4.601563-.1875 8.289063-3.875 8.46875-8.476562v-140.402344l42 .285156v3.636719c0 .625-.25 1.277344-.25 1.953125 0 .675782.25 1.324219.25 1.953125v36.097657c0 .625-.25 1.277343-.25 1.953124 0 .675782.25 1.324219.25 1.953126v36.097656c0 .625-.25 1.277344-.25 1.953125s.25 1.324219.25 1.953125v36.097656c0 .625-.25 1.277344-.25 1.953125s.25 1.324219.25 1.953125v58.296875c.144532 4.414063 3.835938 7.878906 8.25 7.742187h78c2.070313.046876 4.066406-.753906 5.53125-2.21875 1.464844-1.460937 2.265625-3.460937 2.21875-5.527343v-185.222657l40.566406.269532.234376 152.527344c0 23.386718 18.957031 42.34375 42.339843 42.34375 23.386719 0 42.34375-18.957032 42.34375-42.34375l.175781-151.964844 46.914063.3125c18.4375 0 33.425781 15.234375 33.425781 33.964844v229.449218c-9.597656-9.394531-22.507812-14.636718-35.941406-14.589844zm378.910156 52.074219c.011719 9.53125-3.769531 18.675781-10.507812 25.414063-6.738281 6.738281-15.878906 10.519531-25.410156 10.511718h-42.117188v-72h42.046875c19.855469.046876 35.929688 16.144532 35.953125 36h.328125zm0 0"/></svg>