<svg height="487pt" viewBox="-72 0 487 487.522" width="487pt" xmlns="http://www.w3.org/2000/svg"><path d="m171.261719 329.660156c16.207031 0 29.347656-13.140625 29.347656-29.347656s-13.140625-29.347656-29.347656-29.347656c-16.210938 0-29.347657 13.140625-29.347657 29.347656.019532 16.199219 13.144532 29.328125 29.347657 29.347656zm0-42.699218c7.371093 0 13.347656 5.976562 13.347656 13.347656s-5.976563 13.347656-13.347656 13.347656c-7.371094 0-13.347657-5.976562-13.347657-13.347656.007813-7.367188 5.980469-13.335938 13.347657-13.34375zm0 0"/><path d="m194.839844 150.945312c0-13.019531-10.554688-23.578124-23.578125-23.578124-13.019531-.003907-23.578125 10.554687-23.578125 23.574218 0 13.023438 10.554687 23.582032 23.578125 23.582032 13.015625-.011719 23.5625-10.5625 23.578125-23.578126zm-31.15625 0c-.003906-4.183593 3.390625-7.578124 7.574218-7.578124 4.1875-.003907 7.582032 3.390624 7.582032 7.574218 0 4.1875-3.394532 7.582032-7.578125 7.582032-4.183594-.007813-7.570313-3.394532-7.578125-7.578126zm0 0"/><path d="m8.695312 487.523438h325.128907c4.597656-.1875 8.273437-3.882813 8.4375-8.480469v-28.664063c0-4.417968-4.015625-7.855468-8.4375-7.855468h-48.5625v-94.203126l21.628906 19.132813c1.441406 1.285156 3.300781 1.996094 5.226563 1.996094 1.160156 0 2.308593-.242188 3.367187-.710938 2.878906-1.289062 4.746094-4.132812 4.777344-7.289062v-28.664063c-.128907-2.339844-1.234375-4.519531-3.050781-6.007812l-65.949219-57.714844v-100.199219l4.753906 3.976563c1.503906 1.289062 3.417969 1.996094 5.398437 1.996094 1.113282-.003907 2.210938-.246094 3.21875-.714844 2.847657-1.300782 4.660157-4.160156 4.628907-7.292969v-28.664063c.050781-2.28125-.890625-4.472656-2.582031-6.003906l-87.417969-77.015625v-21.621093h14.984375c4.417968 0 8-3.582032 8-8 0-4.417969-3.582032-8-8-8h-14.984375v-9.523438c0-4.417969-3.582031-8-8-8s-8 3.582031-8 8v9.523438h-14.984375c-4.417969 0-8 3.582031-8 8 0 4.417968 3.582031 8 8 8h14.984375v21.621093l-87.417969 77.015625c-1.691406 1.53125-2.632812 3.722656-2.582031 6.003906v28.664063c-.054688 3.121094 1.734375 5.980469 4.566406 7.289063 2.917969 1.296874 6.320313.796874 8.746094-1.28125l4.6875-3.976563v100.199219l-65.949219 57.714844c-1.816406 1.488281-2.925781 3.667968-3.050781 6.011718v28.664063c.042969 3.160156 1.917969 6.003906 4.804687 7.289062 2.839844 1.296875 6.179688.792969 8.511719-1.28125l21.683594-19.136719v94.203126h-48.566407c-4.417968 0-8.433593 3.4375-8.433593 7.855468v28.664063c.164062 4.597656 3.839843 8.292969 8.433593 8.480469zm80.566407-345.742188 82-72.367188 82 72.367188v7.355469l-76.851563-67.714844c-1.433594-1.285156-3.292968-1.992187-5.21875-1.992187-1.890625 0-3.71875.710937-5.113281 1.992187l-76.816406 67.714844zm18 13 64-56.703125 64 56.703125v100.203125l-58.949219-52.050781c-2.886719-2.660156-7.332031-2.660156-10.21875 0l-58.832031 52.054687zm-69 181.621094 133-116.808594 133 116.808594v7.355468l-127.613281-112.160156c-1.480469-1.289062-3.375-1.996094-5.335938-1.996094-1.984375 0-3.902344.707032-5.410156 1.996094l-127.640625 112.160156zm35-2.152344 98-85.992188 98 85.992188v108.273438h-67v-64.644532c0-4.417968-3.332031-8.355468-7.75-8.355468h-46.5c-4.417969 0-7.75 3.9375-7.75 8.355468v64.644532h-67zm113 108.273438h-30v-57h30zm-170 16h310v13h-310zm0 0"/></svg>