<?xml version="1.0" encoding="iso-8859-1"?>
<!-- Generator: Adobe Illustrator 19.0.0, SVG Export Plug-In . SVG Version: 6.00 Build 0)  -->
<svg version="1.1" id="Capa_1" xmlns="http://www.w3.org/2000/svg" xmlns:xlink="http://www.w3.org/1999/xlink" x="0px" y="0px"
	 viewBox="0 0 512 512" style="enable-background:new 0 0 512 512;" xml:space="preserve">
<g>
	<g>
		<rect x="182.779" y="328.671" width="152.499" height="33.032"/>
	</g>
</g>
<g>
	<g>
		<path d="M135.983,284.077c-34.91,0-63.312,28.402-63.312,63.312s28.402,63.312,63.312,63.312
			c34.915,0,63.312-28.402,63.312-63.312C199.295,312.48,170.892,284.077,135.983,284.077z M135.983,377.669
			c-16.698,0-30.28-13.587-30.28-30.28s13.582-30.28,30.28-30.28s30.28,13.587,30.28,30.28
			C166.262,364.082,152.681,377.669,135.983,377.669z"/>
	</g>
</g>
<g>
	<g>
		<path d="M382.073,284.077c-34.91,0-63.312,28.402-63.312,63.312s28.402,63.312,63.312,63.312c34.91,0,63.312-28.402,63.312-63.312
			C445.385,312.48,416.983,284.077,382.073,284.077z M382.073,377.669c-16.692,0-30.28-13.587-30.28-30.28s13.587-30.28,30.28-30.28
			c16.698,0,30.28,13.587,30.28,30.28C412.353,364.082,398.765,377.669,382.073,377.669z"/>
	</g>
</g>
<g>
	<g>
		<path d="M495.484,210.856H324.267v-93.041c0-9.122-7.394-16.516-16.516-16.516H169.56c-5.472,0-10.592,2.714-13.664,7.245
			L86.489,210.856H16.516C7.394,210.856,0,218.25,0,227.372v117.815c0,9.122,7.394,16.516,16.516,16.516h71.57v-33.032H33.032
			v-84.783h62.211c5.472,0,10.592-2.714,13.664-7.245l69.412-102.312h112.915v93.041c0,9.122,7.394,16.516,16.516,16.516h171.217
			v84.783h-50.099v33.032h66.615c9.122,0,16.516-7.394,16.516-16.516V227.372C512,218.25,504.606,210.856,495.484,210.856z"/>
	</g>
</g>
<g>
	<g>
		<path d="M262.056,146.994h-68.817c-5.5,0-10.636,2.736-13.703,7.3l-42.947,63.862c-3.402,5.065-3.738,11.594-0.87,16.979
			c2.868,5.39,8.478,8.754,14.578,8.754h111.759c9.122,0,16.516-7.394,16.516-16.516V163.51
			C278.572,154.387,271.178,146.994,262.056,146.994z M245.54,210.856h-64.237l20.733-30.83h43.503V210.856z"/>
	</g>
</g>
<g>
</g>
<g>
</g>
<g>
</g>
<g>
</g>
<g>
</g>
<g>
</g>
<g>
</g>
<g>
</g>
<g>
</g>
<g>
</g>
<g>
</g>
<g>
</g>
<g>
</g>
<g>
</g>
<g>
</g>
</svg>
