<svg height="479pt" viewBox="0 -96 479.50137 479" width="479pt" xmlns="http://www.w3.org/2000/svg"><path d="m478.296875 3.199219c-1.316406-1.890625-3.492187-2.996094-5.792969-2.945313h-77.601562c-12.679688-.050781-25.117188 3.511719-35.847656 10.269532l-32.28125 20.382812c-29.753907-5.6875-59.980469-8.511719-90.273438-8.433594-62.300781 0-120.976562 11.296875-165.230469 31.84375-45.957031 21.34375-71.269531 50.347656-71.269531 81.695313 0 31.34375 25.1875 60.355469 71.144531 81.699219 14.757813 6.6875 30.003907 12.230468 45.609375 16.582031v45.210937c.140625 3.863282 3.386719 6.882813 7.25 6.75h177c1.804688.046875 3.546875-.652344 4.824219-1.925781 1.277344-1.277344 1.972656-3.023437 1.925781-4.824219v-35.121094c6-.875 11.765625-1.851562 17.453125-2.941406l33.554688 21.3125c10.734375 6.828125 23.1875 10.46875 35.910156 10.5h77.601563c2.332031-.050781 4.496093-1.234375 5.792968-3.175781 1.292969-1.941406 1.558594-4.394531.707032-6.566406l-30.402344-76.367188c16.101562-15.5625 24.628906-32.957031 24.628906-51.128906 0-18-8.355469-35.222656-24.15625-50.671875l30.160156-75.6875c.859375-2.132812.59375-4.558594-.707031-6.457031zm-401.125 63.800781c42.441406-19.707031 99.027344-30.5625 159.332031-30.5625 60.304688 0 116.890625 10.855469 159.332032 30.5625 25.316406 11.753906 43.554687 25.667969 53.742187 40.65625-11.902344-6.347656-28.292969-12.007812-49.175781-16.96875-43.863282-10.40625-102.066406-16.136719-163.898438-16.136719-61.828125 0-120.035156 5.734375-163.898437 16.140625-20.871094 4.949219-37.265625 10.609375-49.179688 16.96875 10.191407-14.992187 28.429688-28.90625 53.746094-40.660156zm320 100.699219c-42.832031 10.160156-99.894531 15.757812-160.664063 15.757812-60.773437 0-117.832031-5.597656-160.667968-15.757812-45.640625-10.832031-61.835938-23.847657-61.835938-31.695313 0-7.851562 16.195313-20.867187 61.835938-31.695312 42.832031-10.15625 99.890625-15.757813 160.664062-15.757813 60.773438 0 117.832032 5.601563 160.664063 15.761719 45.640625 10.828125 61.835937 23.839844 61.835937 31.691406 0 7.851563-16.195312 20.863282-61.835937 31.691406zm-373.742187-3.351563c11.902343 6.347656 28.292968 12.003906 49.175781 16.96875 43.863281 10.40625 102.070312 16.136719 163.898437 16.136719 61.832032 0 120.035156-5.734375 163.898438-16.140625 20.871094-4.949219 37.265625-10.605469 49.179687-16.96875-10.1875 14.988281-28.429687 28.898438-53.742187 40.65625-42.441406 19.707031-99.027344 30.5625-159.332032 30.5625-60.304687 0-116.890624-10.855469-159.332031-30.5625-25.320312-11.746094-43.558593-25.664062-53.746093-40.652344zm270.324218 107.90625h-163v-34.371094c34.609375 7.886719 70.003906 11.804688 105.5 11.679688 19.214844.035156 38.414063-1.070312 57.5-3.308594zm168.199219-13h-67.28125c-10.050781-.03125-19.882813-2.921875-28.355469-8.328125l-21.507812-13.671875c19.5625-4.652344 38.625-11.195312 56.925781-19.53125 12.523437-5.652344 24.394531-12.648437 35.40625-20.867187zm-24.308594-183.492187c-11.140625-8.4375-23.183593-15.613281-35.90625-21.398438-17.867187-8.148437-36.472656-14.578125-55.558593-19.199219l20.371093-12.792968c8.488281-5.34375 18.324219-8.160156 28.355469-8.117188h67.277344zm0 0"/></svg>