<?xml version="1.0" encoding="iso-8859-1"?>
<!-- Generator: Adobe Illustrator 19.0.0, SVG Export Plug-In . SVG Version: 6.00 Build 0)  -->
<svg version="1.1" id="Capa_1" xmlns="http://www.w3.org/2000/svg" xmlns:xlink="http://www.w3.org/1999/xlink" x="0px" y="0px"
	 viewBox="0 0 512.002 512.002" style="enable-background:new 0 0 512.002 512.002;" xml:space="preserve">
<g>
	<g>
		<path d="M342.066,27.278c-0.4-0.005-0.794-0.005-1.188-0.005c-26.767,0-51.918,10.316-70.935,29.116
			c-19.438,19.211-30.142,44.935-30.142,72.425v253.84c0,38.416-31.012,69.671-69.131,69.671c-38.119,0-69.131-31.012-69.131-69.131
			v-81.013H69.134v81.013c0,55.985,45.545,101.536,101.536,101.536c55.985,0,101.536-45.788,101.547-102.071v-253.84
			c0-18.768,7.286-36.304,20.512-49.385c12.903-12.762,29.98-19.756,48.338-19.756c0.265,0,0.54,0.005,0.816,0.005
			c38.119,0,69.131,31.012,69.131,69.131v78.852h32.405v-78.852C443.418,72.829,397.867,27.278,342.066,27.278z"/>
	</g>
</g>
<g>
	<g>
		<path d="M166.652,298.287l-68.591-97.761c-3.035-4.321-7.982-6.897-13.264-6.897c-5.282,0-10.229,2.576-13.265,6.897
			L2.941,298.287c-3.473,4.947-3.905,11.412-1.113,16.775c2.787,5.363,8.333,8.728,14.377,8.728h137.181
			c6.044,0,11.585-3.365,14.377-8.728C170.556,309.699,170.124,303.234,166.652,298.287z M47.369,291.385l37.428-53.344
			l37.428,53.344H47.369z"/>
	</g>
</g>
<g>
	<g>
		<path d="M510.167,202.876c-2.792-5.352-8.328-8.712-14.366-8.712H358.625c-6.038,0-11.569,3.359-14.366,8.712
			c-2.792,5.352-2.376,11.812,1.08,16.764l68.585,98.295c3.03,4.342,7.993,6.929,13.286,6.929s10.256-2.592,13.286-6.929
			l68.591-98.295C512.538,214.693,512.959,208.228,510.167,202.876z M427.205,280.351l-37.525-53.782h75.05L427.205,280.351z"/>
	</g>
</g>
<g>
</g>
<g>
</g>
<g>
</g>
<g>
</g>
<g>
</g>
<g>
</g>
<g>
</g>
<g>
</g>
<g>
</g>
<g>
</g>
<g>
</g>
<g>
</g>
<g>
</g>
<g>
</g>
<g>
</g>
</svg>
