<svg height="491pt" viewBox="0 -55 491.28638 491" width="491pt" xmlns="http://www.w3.org/2000/svg"><path d="m110.773438 334.613281c8.207031 0 16.390624-.917969 24.398437-2.730469 27.890625 31.835938 68.15625 50.09375 110.484375 50.097657 42.324219 0 82.59375-18.253907 110.484375-50.089844 8 1.808594 16.171875 2.722656 24.375 2.722656 40.0625-.167969 76.984375-21.707031 96.851563-56.5 18.378906-32.070312 18.566406-69.625.5-100.453125-.125-.214844-.257813-.421875-.398438-.621094l-90.457031-125.796874c-1.527344-2.03125-3.949219-3.1875-6.492188-3.097657-2.539062-.09375-4.964843 1.0625-6.492187 3.089844l-44 61.027344-77.882813-108.640625c-1.488281-2.132813-3.898437-3.421875-6.496093-3.476563-2.585938.03125-5 1.296875-6.492188 3.40625l-78.050781 108.492188-43.832031-60.816407c-1.53125-2.027343-3.957032-3.179687-6.496094-3.082031h-.003906c-2.539063-.09375-4.964844 1.0625-6.492188 3.089844l-90.453125 125.566406c-.148437.1875-.289063.382813-.417969.585938-18.089844 31.035156-17.867187 68.730469.609375 100.878906 19.878907 34.707031 56.753907 56.183594 96.753907 56.347656zm269.730468-265.234375 83.738282 116.679688c15.171874 26.136718 14.902343 56.765625-.757813 84.097656-17.011719 29.824219-48.644531 48.296875-82.972656 48.460938-4.433594-.003907-8.863281-.316407-13.253907-.9375 2.355469-3.410157 4.589844-6.917969 6.671876-10.550782 11.40625-19.683594 17.753906-41.886718 18.480468-64.625.632813-23.941406-5.535156-47.570312-17.789062-68.148437-.125-.210938-.261719-.417969-.402344-.621094l-34.359375-47.875zm-134.871094-47.363281 76.617188 106.75c.503906 1.453125 1.421875 2.726563 2.636719 3.667969l36.113281 50.324218c10.617188 17.9375 15.960938 38.503907 15.417969 59.339844-.65625 20.085938-6.28125 39.695313-16.367188 57.074219-23.613281 41.207031-67.453125 66.808594-114.40625 66.808594-38.628906-.152344-75.25-17.214844-100.214843-46.695313-.542969-1.085937-1.328126-2.03125-2.292969-2.765625-4.367188-5.414062-8.304688-11.167969-11.777344-17.199219-10.148437-17.445312-15.8125-37.136718-16.488281-57.308593-.5625-20.957031 4.78125-41.652344 15.417968-59.722657l37.191407-51.679687.007812-.011719zm-218.589843 163.695313 83.722656-116.332032 40.480469 56.398438-34.171875 47.484375c-.152344.207031-.289063.421875-.417969.644531-12.273438 20.707031-18.433594 44.464844-17.777344 68.527344.746094 22.824218 7.140625 45.109375 18.609375 64.859375 2.050781 3.570312 4.253907 7.027343 6.570313 10.382812-4.402344.625-8.839844.9375-13.285156.9375-34.277344-.167969-65.863282-18.59375-82.882813-48.347656-15.746094-27.414063-16.054687-58.210937-.847656-84.554687zm0 0"/><path d="m245.644531 248.363281c13.820313 0 25.027344 11.207031 25.027344 25.03125s-11.207031 25.027344-25.027344 25.027344c-13.824219 0-25.03125-11.203125-25.03125-25.027344 0-4.417969-3.582031-8-8-8s-8 3.582031-8 8c.027344 19.566407 13.84375 36.398438 33.03125 40.238281v12.511719c0 4.417969 3.582031 8 8 8s8-3.582031 8-8v-12.511719c20.699219-4.113281 34.898438-23.257812 32.832031-44.257812-2.066406-21.003906-19.730468-37.011719-40.832031-37.011719-13.824219 0-25.03125-11.203125-25.03125-25.027343 0-13.824219 11.207031-25.027344 25.03125-25.027344 13.820313 0 25.027344 11.203125 25.027344 25.027344 0 4.417968 3.582031 8 8 8s8-3.582032 8-8c-.027344-19.566407-13.84375-36.398438-33.027344-40.238282v-10.953125c0-4.417969-3.582031-8-8-8s-8 3.582031-8 8v10.953125c-20.699219 4.113282-34.902343 23.257813-32.835937 44.257813 2.070312 21.003906 19.730468 37.011719 40.835937 37.007812zm0 0"/></svg>