<?xml version="1.0"?>
<svg xmlns="http://www.w3.org/2000/svg" id="Layer_1" data-name="Layer 1" viewBox="0 0 512 512" width="512" height="512"><title>Eco</title><path d="M343.344,220H326.52c-25.486,0-48.166,10.734-62.52,27.832V211.576A68.109,68.109,0,0,0,324,143.9V86.728A7.631,7.631,0,0,0,316.167,79H310V26.061A7.941,7.941,0,0,0,302.131,18H269.869A7.941,7.941,0,0,0,262,26.061V79H250V26.061A7.941,7.941,0,0,0,242.131,18H209.869A7.941,7.941,0,0,0,202,26.061V79h-6.167A7.631,7.631,0,0,0,188,86.728V143.9a68.109,68.109,0,0,0,60,67.681v36.151c-1.45-1.73-2.99-3.244-4.622-4.863C228.438,228.047,207.325,220,185.48,220H168.656A7.437,7.437,0,0,0,161,227.67v15.062C161,281.955,195.879,314,239.175,314H248v47.774c-1.45-1.73-2.989-3.268-4.622-4.886C228.438,342.07,207.323,334,185.48,334H168.656A7.475,7.475,0,0,0,161,341.717v15.062C161,396,195.879,428,239.175,428H248v50H185.48a8,8,0,0,0,0,16H326.52a8,8,0,0,0,0-16H264V428h8.825c43.3,0,78.175-32,78.175-71.221V341.717A7.475,7.475,0,0,0,343.344,334H326.52c-25.486,0-48.166,10.781-62.52,27.879V314h8.825c43.3,0,78.175-32.046,78.175-71.272V227.67A7.436,7.436,0,0,0,343.344,220ZM248,412h-8.825C204.7,412,177,387.18,177,356.779V350h8.546c17.624,0,34.634,6.415,46.566,18.248C242.357,378.409,248,391.317,248,404.851Zm0-114h-8.825C204.7,298,177,273.133,177,242.732V236h8.546c17.643,0,34.633,6.39,46.565,18.224C242.357,264.385,248,277.27,248,290.8ZM278,34h16V78H278Zm-60,0h16V78H218ZM204,95H308v24H204ZM326.52,350H335v6.779c0,30.4-27.7,55.221-62.175,55.221H264v-7.149C264,374.45,292.046,350,326.52,350ZM256,196.061A52.083,52.083,0,0,1,204,143.9V135H308v8.9A52.083,52.083,0,0,1,256,196.061Zm79,46.667c0,30.4-27.7,55.272-62.175,55.272H264v-7.2c0-30.4,28.046-54.8,62.52-54.8H335Z"/></svg>
