<svg height="490pt" viewBox="-22 0 490 490" width="490pt" xmlns="http://www.w3.org/2000/svg"><path d="m446.078125 344.765625c-.28125-3.167969-2.410156-5.871094-5.429687-6.882813l-66.398438-22.234374-20.59375-178.765626c-.484375-3.996093-3.921875-6.976562-7.949219-6.882812h-51.652343v-36.035156c0-51.8125-44.519532-93.964844-99-93.964844-54.476563 0-99 42.152344-99 93.964844v36.035156h-57.546876c-4.023437-.09375-7.460937 2.886719-7.945312 6.882812l-30.136719 261.835938c-2.121093 18.210938 3.753907 36.445312 16.097657 50 13.523437 14.945312 32.777343 23.414062 52.933593 23.28125h220.339844l4.199219 12.539062c1.011718 3.019532 3.710937 5.148438 6.882812 5.429688.234375.019531.46875.03125.703125.03125 2.929688 0 5.621094-1.597656 7.023438-4.167969l7.566406-13.867187c17.460937-.234375 34.21875-6.910156 47.054687-18.75l32.679688 32.484375c3.125 3.109375 8.179688 3.105469 11.300781-.015625l34.585938-34.585938c3.121093-3.121094 3.125-8.175781.015625-11.300781l-56.21875-56.5625 56.351562-30.742187c2.792969-1.523438 4.417969-4.558594 4.136719-7.726563zm-334.023437-250.800781c0-42.988282 37.34375-77.964844 83-77.964844s83 34.976562 83 77.964844v36.035156h-166zm-42.597657 362.035156c-15.601562.113281-30.511719-6.425781-40.992187-17.984375-9.28125-10.101563-13.710938-23.738281-12.140625-37.367187l29.316406-254.648438h50.414063v70.699219c0 4.417969 3.582031 8 8 8 4.421874 0 8-3.582031 8-8v-70.699219h166v70.699219c0 4.417969 3.582031 8 8 8 4.421874 0 8-3.582031 8-8v-70.699219h44.523437l18.917969 164.242188-122.117188-41c-2.863281-.988282-6.042968-.261719-8.191406 1.875-2.152344 2.136718-2.898438 5.3125-1.929688 8.183593l59.175782 176.699219zm255.976563-1.015625 13.914062-25.503906 12.519532 12.441406c-7.4375 6.714844-16.589844 11.238281-26.4375 13.0625zm43.140625-80.691406c-2.210938 1.207031-3.722657 3.378906-4.085938 5.871093-.363281 2.492188.46875 5.007813 2.242188 6.792969l58.109375 58.460938-23.308594 23.308593-58.464844-58.109374c-1.78125-1.773438-4.300781-2.605469-6.789062-2.242188-2.492188.363281-4.664063 1.875-5.871094 4.085938l-27.0625 49.601562-57.820312-172.648438 172.652343 57.816407zm0 0"/><path d="m165.03125 197.609375c-3.121094-3.125-8.1875-3.125-11.3125 0s-3.125 8.1875 0 11.3125l24.492188 24.492187c3.125 3.125 8.1875 3.125 11.3125 0s3.125-8.191406 0-11.3125zm0 0"/><path d="m260.265625 228.4375c.539063 3.960938 3.917969 6.914062 7.914063 6.921875.367187 0 .730468-.027344 1.09375-.074219 4.378906-.597656 7.441406-4.632812 6.84375-9.011718l-7-51.289063c-.613282-4.363281-4.636719-7.410156-9.003907-6.816406-4.363281.597656-7.425781 4.609375-6.847656 8.980469zm0 0"/><path d="m184.546875 304.15625-51.292969-7c-2.839844-.40625-5.679687.742188-7.4375 3.007812-1.761718 2.265626-2.175781 5.300782-1.085937 7.953126 1.089843 2.652343 3.519531 4.519531 6.363281 4.890624l51.289062 7c4.378907.597657 8.414063-2.46875 9.007813-6.847656.597656-4.375-2.464844-8.410156-6.84375-9.007812zm0 0"/></svg>