<?xml version="1.0"?>
<svg xmlns="http://www.w3.org/2000/svg" id="Layer_1" data-name="Layer 1" viewBox="0 0 512 512" width="512" height="512"><title>Calendar</title><path d="M386,248a6,6,0,0,0-6-6H83a6,6,0,0,0-6,6V393a6,6,0,0,0,6,6H380a6,6,0,0,0,6-6Zm-12,42H338V254h36ZM136,302h38v37H136Zm-12,37H89V302h35Zm152-49H237V254h39Zm12-36h38v36H288Zm-51,48h39v37H237Zm-12,37H186V302h39Zm0-49H186V254h39Zm-51,0H136V254h38Zm0,61v36H136V351Zm12,0h39v36H186Zm51,0h39v36H237Zm51,0h38v36H288Zm0-12V302h38v37Zm50-37h36v37H338ZM124,254v36H89V254ZM89,351h35v36H89Zm249,36V351h36v36Z"/><path d="M412.059,57.645c-34.4,0-64.27,20.355-78.867,48.355H47.933C27.877,106,12,122.645,12,142.7V417.818A35.877,35.877,0,0,0,47.933,454H414.251C434.307,454,451,437.875,451,417.818V225.7c29-14.348,49.628-44.678,49.628-79.594C500.628,97.374,460.792,57.645,412.059,57.645ZM47.933,118H328.182a88.51,88.51,0,0,0,4.613,67H24V142.7C24,129.262,34.494,118,47.933,118ZM439,417.818C439,431.258,427.69,442,414.251,442H47.933A23.865,23.865,0,0,1,24,417.818V197H339.959a87.669,87.669,0,0,0,72.288,37.445A92.233,92.233,0,0,0,439,230.489ZM412.059,222.57a76.381,76.381,0,1,1,76.381-76.381A76.467,76.467,0,0,1,412.059,222.57Z"/><path d="M412.059,112.248a15.352,15.352,0,0,1,15.335,15.334,6,6,0,0,0,12,0A27.374,27.374,0,0,0,417,100.7V95a6,6,0,0,0-12,0v6.177a27.334,27.334,0,0,0,7.059,53.74,15.334,15.334,0,1,1-15.334,15.334,6,6,0,1,0-12,0A27.379,27.379,0,0,0,405,196.656V203a6,6,0,0,0,12,0v-5.87a27.331,27.331,0,0,0-4.941-54.213,15.335,15.335,0,0,1,0-30.669Z"/></svg>
