<svg height="498pt" viewBox="-52 0 498 498.29807" width="498pt" xmlns="http://www.w3.org/2000/svg"><path d="m8.441406 498.296875h317.824219c2.117187.011719 4.152344-.816406 5.65625-2.308594l59.738281-59.574219c1.539063-1.476562 2.433594-3.503906 2.488282-5.636718v-275.074219c-.105469-4.554687-3.738282-8.238281-8.292969-8.40625h-107.667969c9.480469-14 14.984375-32.332031 14.984375-51.25.011719-53.03125-42.964844-96.03125-95.996094-96.046875s-96.035156 42.964844-96.046875 95.996094c0 18.917968 5.5 37.300781 14.984375 51.300781h-48.082031c-2.144531.074219-4.175781.988281-5.652344 2.542969l-59.738281 59.699218c-1.546875 1.523438-2.4375 3.589844-2.492187 5.757813v275.070313c.148437 4.460937 3.832031 7.984374 8.292968 7.929687zm7.707032-275h302v259h-302zm318 247.757813v-252.445313l44-43.59375v252.445313zm-137-454.828126c44.195312 0 80.023437 35.828126 80.023437 80.023438s-35.828125 80.019531-80.023437 80.023438c-44.191407 0-80.019532-35.828126-80.019532-80.023438.046875-44.175781 35.847656-79.972656 80.019532-80.023438zm-125.800782 147.070313h57.535156c5.074219 6 10.71875 10.105469 16.832032 14h-7.566406c-4.417969 0-8 3.582031-8 8s3.582031 8 8 8h112c4.417968 0 8-3.582031 8-8s-3.582032-8-8-8h-1.5625c6.113281-3.894531 11.757812-8 16.832031-14h101.125l-43.59375 44h-295.195313zm0 0"/><path d="m197.148438 139.160156c-8.125-.011718-14.710938-6.597656-14.722657-14.722656 0-4.417969-3.582031-8-8-8s-8 3.582031-8 8c.019531 13.878906 9.328125 26.027344 22.722657 29.660156v6.199219c0 4.417969 3.582031 8 8 8 4.417968 0 8-3.582031 8-8v-6.199219c14.878906-4.011718 24.480468-18.421875 22.457031-33.695312-2.023438-15.273438-15.046875-26.6875-30.457031-26.6875-8.066407-.011719-14.617188-6.515625-14.691407-14.582032-.074219-8.0625 6.359375-14.683593 14.421875-14.847656.089844 0 .179688.015625.269532.015625.089843 0 .179687-.011719.269531-.015625 8.019531.152344 14.445312 6.691406 14.453125 14.710938 0 4.417968 3.582031 8 8 8 4.417968 0 8-3.582032 8-8-.015625-13.878906-9.324219-26.03125-22.722656-29.664063v-5.035156c0-4.417969-3.582032-8-8-8-4.417969 0-8 3.582031-8 8v5.035156c-14.875 4.011719-24.480469 18.421875-22.457032 33.699219 2.023438 15.273438 15.050782 26.683594 30.457032 26.683594 8.132812 0 14.722656 6.589844 14.722656 14.722656 0 8.128906-6.589844 14.722656-14.722656 14.722656zm0 0"/></svg>