<?xml version="1.0"?>
<svg xmlns="http://www.w3.org/2000/svg" id="Layer_1" data-name="Layer 1" viewBox="0 0 512 512" width="512" height="512"><title>Mobile Rupees</title><path d="M352,12H160a48,48,0,0,0-48,48V451a48,48,0,0,0,48,48H352a48,48,0,0,0,48-48V60A48,48,0,0,0,352,12Zm32,439.631C384,469.276,369.787,484,352.143,484H159.857C142.213,484,128,469.276,128,451.631V405H384ZM384,389H128V107H384Zm0-298H128V60.369C128,42.724,142.213,28,159.857,28H352.143C369.787,28,384,42.724,384,60.369Z"/><path d="M290.035,49h-68.07a8,8,0,0,0,0,16h68.07a8,8,0,0,0,0-16Z"/><path d="M225,453h62a8,8,0,0,0,0-16H225a8,8,0,0,0,0,16Z"/><path d="M256,356.206a77.657,77.657,0,1,0-77.656-77.657A77.744,77.744,0,0,0,256,356.206Zm0-139.313a61.657,61.657,0,1,1-61.656,61.656A61.726,61.726,0,0,1,256,216.893Z"/><path d="M256,379.865A101.316,101.316,0,1,0,154.685,278.549,101.43,101.43,0,0,0,256,379.865Zm0-186.631a85.316,85.316,0,1,1-85.315,85.315A85.411,85.411,0,0,1,256,193.234Z"/><path d="M223.159,266a8,8,0,0,0,8,8H256c-2.433,3-6.281,6-10.62,6H231.159a7.748,7.748,0,0,0-5.494,13.46L261.2,326.978A8.019,8.019,0,0,0,272.186,315.3L250.75,294.932A28.925,28.925,0,0,0,273.577,274h7.264a8,8,0,0,0,0-16h-7.269a31.459,31.459,0,0,0-2.093-5h9.362a8,8,0,0,0,0-16H231.159a8,8,0,0,0,0,16h14.216A13.677,13.677,0,0,1,256,258H231.159A8,8,0,0,0,223.159,266Z"/><path d="M256,159a8,8,0,0,0,8-8V120a8,8,0,0,0-16,0v31A8,8,0,0,0,256,159Z"/><path d="M296,169a8,8,0,0,0,8-8V130a8,8,0,0,0-16,0v31A8,8,0,0,0,296,169Z"/><path d="M216,169a8,8,0,0,0,8-8V130a8,8,0,0,0-16,0v31A8,8,0,0,0,216,169Z"/></svg>
