<?xml version="1.0"?>
<svg xmlns="http://www.w3.org/2000/svg" id="Layer_1" data-name="Layer 1" viewBox="0 0 512 512" width="512" height="512"><title>Idea</title><path d="M256,10.155c-104.768,0-189.762,80.9-189.762,180.337C66.238,259.126,108,322.215,173,352.625V377H150.984a8,8,0,0,0,0,16H173v21H150.984a8,8,0,0,0,0,16H173v22H150.984a8,8,0,0,0,0,16H173v25.845c0,4.419,3.1,8.155,7.518,8.155H330.782A8.322,8.322,0,0,0,339,493.845V468h22.016a8,8,0,1,0,0-16H339V430h22.016a8,8,0,1,0,0-16H339V393h22.016a8,8,0,1,0,0-16H339V352.648a187.791,187.791,0,0,0,75.876-63.323,172.39,172.39,0,0,0,31.181-98.833C446.057,91.054,360.768,10.155,256,10.155ZM323,486H189V468H323Zm0-34H189V430H323Zm0-38H189V393H323Zm78.63-133.809a173.116,173.116,0,0,1-73.908,59.927A7.9,7.9,0,0,0,323,347.463V377H189V347.463a8.228,8.228,0,0,0-5.042-7.332c-61.792-26.954-101.84-85.691-101.84-149.639,0-90.616,78-164.337,173.942-164.337S430.033,99.876,430.033,190.492A156.552,156.552,0,0,1,401.63,280.191Z"/><path d="M353.078,131.653l11.677-15.724a8,8,0,0,0-.922-10.579L339.247,82.071a8,8,0,0,0-10-.8L312.128,92.923a115.316,115.316,0,0,0-27.583-10.741L281.161,63.4a7.831,7.831,0,0,0-7.876-6.4h-34.56a7.829,7.829,0,0,0-7.876,6.4L227.46,82.3a118.249,118.249,0,0,0-27.605,10.7L182.7,81.561a8,8,0,0,0-9.934.837l-24.6,23.279a8,8,0,0,0-.923,10.576l11.656,15.7a103.46,103.46,0,0,0-11.045,25.626l-20.248,3.261a7.9,7.9,0,0,0-6.613,7.9v32.71a7.9,7.9,0,0,0,6.615,7.9l20.337,3.261a106.025,106.025,0,0,0,11,25.6l-11.688,15.726a8,8,0,0,0,.915,10.577l24.582,23.279a8,8,0,0,0,9.933.849l17.132-11.408A115.345,115.345,0,0,0,227.461,288l3.384,19.194a8.194,8.194,0,0,0,7.876,6.81h34.55a8.193,8.193,0,0,0,7.876-6.81l3.389-19.11a118.535,118.535,0,0,0,27.611-10.811L329.3,288.663a8,8,0,0,0,9.935-.863l24.585-23.285a8.005,8.005,0,0,0,.909-10.6L352.765,237.9A103.41,103.41,0,0,0,363.8,212.3l20.57-3.264a7.894,7.894,0,0,0,6.632-7.9V168.413a7.894,7.894,0,0,0-6.615-7.9l-20.337-3.26A105.972,105.972,0,0,0,353.078,131.653ZM375,194.293l-19.039,3.023a7.928,7.928,0,0,0-6.5,6.159A87.607,87.607,0,0,1,336.4,233.753a8,8,0,0,0,.223,9.283l11.023,14.748-14.784,14-15.951-10.623a8,8,0,0,0-8.543-.2A102.531,102.531,0,0,1,276,273.507a8.256,8.256,0,0,0-6.284,6.651L266.572,298H245.42l-3.143-17.842a8.128,8.128,0,0,0-6.322-6.551,99.618,99.618,0,0,1-32.3-12.575,8,8,0,0,0-8.577.158L179.13,271.8l-14.8-14.024,10.715-14.439a8,8,0,0,0,.218-9.229,90.461,90.461,0,0,1-13.123-30.356,7.858,7.858,0,0,0-6.414-6.116L137,194.622V175.555l18.72-3.017a7.929,7.929,0,0,0,6.482-6.155A87.667,87.667,0,0,1,175.267,136.1a8,8,0,0,0-.211-9.264l-10.72-14.427,14.808-14.024L195.1,109.009a8,8,0,0,0,8.542.206A102.561,102.561,0,0,1,236,96.67a7.777,7.777,0,0,0,6.284-6.239L245.424,73h21.161l3.143,17.431a7.888,7.888,0,0,0,6.322,6.345,99.419,99.419,0,0,1,32.3,12.474,8,8,0,0,0,8.646-.256l15.933-10.863L347.678,112.1l-10.719,14.431a8,8,0,0,0-.219,9.227,90.447,90.447,0,0,1,13.123,30.355,7.856,7.856,0,0,0,6.414,6.116L375,175.235Z"/><path d="M281.737,159.921l-35.272,33.294L230.5,176.825a8,8,0,1,0-11.461,11.163L240.5,210.021a8,8,0,0,0,11.222.235l41-38.7a8,8,0,0,0-10.983-11.635Z"/><path d="M256,111.95a73.139,73.139,0,1,0,73.139,73.139A73.222,73.222,0,0,0,256,111.95Zm0,130.278a57.139,57.139,0,1,1,57.139-57.139A57.2,57.2,0,0,1,256,242.228Z"/></svg>
