<?xml version="1.0"?>
<svg xmlns="http://www.w3.org/2000/svg" id="Layer_1" data-name="Layer 1" viewBox="0 0 512 512" width="512" height="512"><title>Bell Education</title><path d="M371.258,60a103.756,103.756,0,0,0-87.684,48.3,142.993,142.993,0,0,0-28.409-8.325,47.082,47.082,0,1,0-52.433,0,144.338,144.338,0,0,0-76.983,40.8A147.578,147.578,0,0,0,83,245.177V324.1c-25,1.172-46,22.366-46,48.256v13.612A48.169,48.169,0,0,0,85.365,434h74.084a68.321,68.321,0,0,0,20.225,43.663,69.871,69.871,0,0,0,98.549-.035A68.232,68.232,0,0,0,298.447,434h74.084C399.171,434,421,412.612,421,385.972V372.36c0-25.891-21-47.084-46-48.256V266.837c55-1.852,100.066-47.514,100.066-103.386C475.066,106.408,428.433,60,371.258,60ZM194,60.9a34.951,34.951,0,0,1,69.9,0,34.951,34.951,0,1,1-69.9,0Zm-59.714,88.313a132.926,132.926,0,0,1,143.405-30.349,102.55,102.55,0,0,0-10.01,44.587c0,54.19,42.322,98.777,95.322,103.1V324H95V245.177A135.642,135.642,0,0,1,134.283,149.213ZM269.765,469.151a57.872,57.872,0,0,1-81.633-.035A55.692,55.692,0,0,1,171.488,434h114.92A55.773,55.773,0,0,1,269.765,469.151ZM409,385.687A36.313,36.313,0,0,1,372.688,422H85.312A36.313,36.313,0,0,1,49,385.687V372.313A36.313,36.313,0,0,1,85.312,336H372.688A36.313,36.313,0,0,1,409,372.313ZM371.258,254.9c-50.558,0-91.69-41.025-91.69-91.451S320.7,72,371.258,72s91.69,41.025,91.69,91.451S421.816,254.9,371.258,254.9Z"/><path d="M415.889,101H333.875A16.839,16.839,0,0,0,317,118.21v91.323c0,.058-.245.115-.243.173,0,.1-.125.013-.125.111A17.126,17.126,0,0,0,333.876,227h75.949c3.314,0,6.175-2.32,6.175-5.633V205h-.111A6.419,6.419,0,0,0,422,198.634V106.843A5.964,5.964,0,0,0,415.889,101ZM329,118.21c0-2.96,1.916-5.21,4.875-5.21H341v80h-7.124c-1.872,0-3.876-.068-4.876.482ZM404,215H333.876a5.013,5.013,0,1,1,0-10H404Zm6-22.367s-.226.367-.283.367H353V113h57Z"/></svg>
