<?xml version="1.0"?>
<svg xmlns="http://www.w3.org/2000/svg" id="Layer_1" data-name="Layer 1" viewBox="0 0 512 512" width="512" height="512"><title>Headphones</title><path d="M434.854,284H428V217.844C428,123.266,350.579,46.32,256,46.32S84,123.266,84,217.844V284H77.146A49.278,49.278,0,0,0,28,333.015V416.8A49.438,49.438,0,0,0,77.146,466h57.233c4.418,0,7.621-3.9,7.621-8.32V292.134c0-4.419-3.2-8.134-7.621-8.134H100V217.844C100,132.088,170.244,62.32,256,62.32s156,69.768,156,155.524V284H377.621c-4.418,0-7.621,3.715-7.621,8.134V457.68c0,4.418,3.2,8.32,7.621,8.32h57.233A49.438,49.438,0,0,0,484,416.8V333.015A49.278,49.278,0,0,0,434.854,284ZM44,416.8V333.015A33.26,33.26,0,0,1,77.146,300H99V450H77.146A33.421,33.421,0,0,1,44,416.8ZM126,450H115V300h11ZM386,300h11V450H386Zm82,116.8A33.421,33.421,0,0,1,434.854,450H413V300h21.854A33.26,33.26,0,0,1,468,333.015Z"/></svg>
