<svg height="488pt" viewBox="-94 0 488 488.00012" width="488pt" xmlns="http://www.w3.org/2000/svg"><path d="m291.6875 444h-19.6875v-21.492188c0-4.417968-3.394531-7.507812-7.8125-7.507812h-19.1875v-21c.054688-2.09375-.734375-4.125-2.191406-5.628906-1.460938-1.507813-3.460938-2.359375-5.558594-2.371094h-26.25v-102h20.855469c4.445312.007812 8.078125-3.558594 8.144531-8.007812v-23.632813c0-4.417969-3.582031-8-8-8s-8 3.582031-8 8v15.640625h-13v-49h16.855469c4.445312.007812 8.078125-3.558594 8.144531-8.007812v-23.632813c0-4.417969-3.582031-8-8-8s-8 3.582031-8 8v15.640625h-9v-69h8.808594c4.457031.015625 8.101562-3.546875 8.191406-8v-20.816406c0-4.417969-3.582031-8-8-8s-8 3.582031-8 8v12.816406h-2.515625c-3.484375-16.371094-13.382813-30.664062-27.484375-39.683594v-27.667968c.042969-2.058594-.765625-4.046876-2.234375-5.492188-1.464844-1.449219-3.464844-2.226562-5.523437-2.15625h-5.242188v-15.101562c-.011719-2.113282-.863281-4.136719-2.371094-5.617188-1.507812-1.484375-3.542968-2.304688-5.65625-2.28125h-4.972656v-12c0-4.417969-3.582031-8-8-8s-8 3.582031-8 8v12h-5.5625c-4.421875 0-8.4375 3.484375-8.4375 7.898438v15.101562h-4.832031c-4.417969 0-8.167969 3.230469-8.167969 7.648438v27.667968c-14.207031 9.328125-24.046875 24-27.28125 40.683594h-1.71875v-12.816406c0-4.417969-3.582031-8-8-8s-8 3.582031-8 8v20.816406c-.089844 2.078125.667969 4.105469 2.101562 5.613281 1.433594 1.507813 3.417969 2.371094 5.5 2.386719h9.398438v68h-6v-15.640625c0-4.417969-3.582031-8-8-8s-8 3.582031-8 8v23.632813c0 4.417968 3.136719 8.007812 7.554688 8.007812h14.445312v49h-10v-15.640625c0-4.417969-3.582031-8-8-8s-8 3.582031-8 8v23.632813c0 4.417968 3.136719 8.007812 7.554688 8.007812h18.445312v102h-22.25c-2.097656.011719-4.097656.863281-5.558594 2.371094-1.457031 1.503906-2.246094 3.535156-2.191406 5.628906v21h-19.1875c-4.417969 0-7.8125 3.089844-7.8125 7.507812v21.492188h-19.6875c-4.519531.066406-8.183594 3.683594-8.3125 8.199219v27.800781c.148438 4.476562 3.832031 8.023438 8.3125 8h283.375c4.480469.023438 8.164062-3.523438 8.3125-8v-27.800781c-.128906-4.515625-3.792969-8.132813-8.3125-8.199219zm-149.6875-408h11v7h-11zm-13 23h37v11.78125c-12.054688-3.707031-24.945312-3.707031-37 0zm19 25c26.007812.042969 47.050781 21.167969 47 47.175781v71.824219h-94v-71.824219c-.050781-26.007812 20.992188-47.132812 47-47.175781zm-47 135h94v167h-15v-81.5c0-16.84375-13.65625-30.5-30.5-30.5s-30.5 13.65625-30.5 30.5v81.5h-18zm63 167h-29v-81.5c0-8.007812 6.492188-14.5 14.5-14.5s14.5 6.492188 14.5 14.5zm-93 16h158v13h-158zm-27 29h212v13h-212zm240 41h-268v-12h268zm0 0"/><path d="m147.699219 184.347656c21.636719 0 39.175781-17.539062 39.175781-39.175781 0-21.632813-17.539062-39.171875-39.175781-39.171875-21.632813 0-39.171875 17.539062-39.171875 39.175781.023437 21.621094 17.546875 39.144531 39.171875 39.171875zm0-62.347656c12.800781 0 23.175781 10.375 23.175781 23.171875 0 12.800781-10.375 23.175781-23.171875 23.175781-12.800781 0-23.175781-10.375-23.175781-23.171875.015625-12.792969 10.378906-23.160156 23.171875-23.175781zm0 0"/><path d="m137.566406 149.769531c1.515625 2.59375 4.285156 4.199219 7.289063 4.230469h15c4.417969 0 8-3.582031 8-8s-3.582031-8-8-8h-10.457031l-1.5-2.789062c-2.09375-3.894532-6.945313-5.351563-10.835938-3.257813s-5.347656 6.945313-3.253906 10.835937zm0 0"/></svg>