<svg height="490pt" viewBox="-43 0 490 490" width="490pt" xmlns="http://www.w3.org/2000/svg"><path d="m322.78125 0h-290.921875c-17.824219 0-31.859375 14.613281-31.859375 32.4375v375.765625c0 17.824219 14.035156 32.796875 31.859375 32.796875h16.140625v16.5625c0 17.824219 14.90625 32.4375 32.730469 32.4375h291.410156c17.824219 0 31.859375-14.613281 31.859375-32.4375v-376.253906c.09375-8.519532-3.21875-16.726563-9.199219-22.792969-5.984375-6.066406-14.140625-9.492187-22.660156-9.515625h-17.140625v-16.5625c.039062-17.847656-14.375-32.3554688-32.21875-32.4375zm21.21875 407.679688c0 11.222656-9.097656 20.320312-20.320312 20.320312h-291.359376c-11.222656 0-20.320312-9.097656-20.320312-20.320312v-375.359376c0-11.222656 9.097656-20.320312 20.320312-20.320312h291.359376c11.222656 0 20.320312 9.097656 20.320312 20.320312zm28.140625-346.679688c11.207031 0 19.859375 9.101562 19.859375 20.308594v376.253906c0 11.207031-8.652344 20.4375-19.859375 20.4375h-291.410156c-11.199219 0-20.730469-9.230469-20.730469-20.4375v-16.5625h262.78125c17.820312 0 32.21875-14.972656 32.21875-32.796875v-347.203125zm0 0"/><path d="m214 136h58.644531c3.3125 0 6-2.6875 6-6s-2.6875-6-6-6h-58.644531c-3.3125 0-6 2.6875-6 6s2.6875 6 6 6zm0 0"/><path d="m214 176h108.644531c3.316407 0 6-2.6875 6-6s-2.683593-6-6-6h-108.644531c-3.3125 0-6 2.6875-6 6s2.6875 6 6 6zm0 0"/><path d="m214 216h108.644531c3.316407 0 6-2.6875 6-6s-2.683593-6-6-6h-108.644531c-3.3125 0-6 2.6875-6 6s2.6875 6 6 6zm0 0"/><path d="m214 256h108.644531c3.316407 0 6-2.6875 6-6s-2.683593-6-6-6h-108.644531c-3.3125 0-6 2.6875-6 6s2.6875 6 6 6zm0 0"/><path d="m214 296h108.644531c3.316407 0 6-2.6875 6-6s-2.683593-6-6-6h-108.644531c-3.3125 0-6 2.6875-6 6s2.6875 6 6 6zm0 0"/><path d="m328.644531 330c0-3.3125-2.683593-6-6-6h-108.644531c-3.3125 0-6 2.6875-6 6s2.6875 6 6 6h108.644531c3.316407 0 6-2.6875 6-6zm0 0"/><path d="m146.699219 228h-79.441407c-11.589843-.089844-22.679687 4.71875-30.535156 13.238281-7.855468 8.519531-11.75 19.960938-10.722656 31.503907v56.1875c.082031 3.363281 2.820312 6.050781 6.183594 6.070312h149.578125c3.375-.015625 6.132812-2.699219 6.238281-6.070312v-56.1875c1.015625-11.546876-2.886719-22.988282-10.75-31.507813s-18.957031-13.324219-30.550781-13.234375zm-43.160157 31h6.945313l6.578125 36.519531-9.960938 9.097657-9.296874-9.078126zm6.769532-12h-6.664063l-1.875-7h10.410157zm65.605468 24.847656c-.019531.199219.089844.398438.089844.605469v50.546875h-138.003906v-50.546875c0-.199219.082031-.398437.0625-.605469-.8125-8.179687 1.894531-16.316406 7.441406-22.382812 5.589844-6.085938 13.492188-9.523438 21.753906-9.464844h22.160157l3.085937 12.5c-.007812.03125-.019531-.027344-.023437 0l-6.988281 44.324219c-.378907 1.984375.273437 4.027343 1.734374 5.421875l15.585938 14.988281c2.273438 2.1875 5.847656 2.238281 8.183594.121094l16.585937-15c1.539063-1.390625 2.25-3.480469 1.878907-5.519531l-8.042969-44.238282 3.109375-12.601562h22.171875c8.265625-.058594 16.167969 3.378906 21.757812 9.464844 5.550781 6.0625 8.261719 14.203124 7.453125 22.386718zm0 0"/><path d="m106 224.789062c22.054688-.015624 39.941406-17.871093 40-39.925781v-33.792969c-.144531-14.421874-11.863281-26.042968-26.289062-26.070312h-27.851563c-14.339844.0625-25.914063 11.730469-25.859375 26.070312v33.792969c.058594 22.054688 17.945312 39.910157 40 39.925781zm0-12c-15.429688-.007812-27.949219-12.492187-28-27.925781v-19.261719c8.082031-.261718 15.757812-3.609374 21.445312-9.355468 3.226563 3.542968 7.09375 6.445312 11.402344 8.550781 4.46875 2.121094 9.351563 3.210937 14.296875 3.199219 2.984375-.015625 5.953125-.367188 8.855469-1.046875v17.914062c-.050781 15.433594-12.570312 27.917969-28 27.925781zm28-61.71875v3.429688c-7 2.140625-12.589844 1.933594-17.851562-.554688-7.472657-3.535156-12.53125-10.949218-15.367188-16.949218h18.929688c7.800781.019531 14.152343 6.277344 14.289062 14.074218zm-46.019531-13.421874c1.226562 3.023437 2.664062 5.957031 4.304687 8.777343-3.617187 4.195313-8.757812 6.777344-14.285156 7.175781v-2.535156c-.019531-6.191406 4.046875-11.65625 9.980469-13.417968zm0 0"/></svg>