<svg height="471pt" viewBox="-89 0 471 471.919" width="471pt" xmlns="http://www.w3.org/2000/svg"><path d="m284.609375 116.917969h-25.148437v-86.917969c0-16.570312-13.433594-30-30-30-16.570313 0-30 13.429688-30 30v86.917969h-106v-86.917969c0-16.570312-13.433594-30-30-30-16.570313 0-30 13.429688-30 30v86.917969h-25.148438c-2.066406-.082031-4.074219.679687-5.558594 2.117187-1.480468 1.4375-2.3125 3.417969-2.292968 5.484375v141.597657c.039062 22.347656 18.15625 40.445312 40.5 40.46875 13.511718.011718 24.46875 10.953124 24.5 24.46875v30.421874c0 15.441407 12.339843 28.441407 27.78125 28.441407h20.21875v73.941406c-.078126 2.09375.695312 4.128906 2.140624 5.644531 1.445313 1.515625 3.4375 2.386719 5.535157 2.414063h50.648437c2.09375-.027344 4.089844-.898438 5.535156-2.414063 1.441407-1.515625 2.214844-3.550781 2.140626-5.644531v-73.941406h20.21875c15.4375 0 27.78125-13 27.78125-28.441407v-30.421874c.03125-13.515626 10.988281-24.453126 24.5-24.464844 22.34375-.023438 40.460937-18.125 40.5-40.472656v-141.597657c.015624-2.066406-.8125-4.046875-2.296876-5.484375-1.484374-1.4375-3.492187-2.199218-5.554687-2.117187zm-69.148437-86.917969c0-7.730469 6.265624-14 14-14 7.730468 0 14 6.269531 14 14v86.917969h-28zm-166 0c0-7.730469 6.265624-14 14-14 7.730468 0 14 6.269531 14 14v86.917969h-28zm114 425.917969h-34v-66h34zm113-189.800781c-.03125 13.515624-10.988282 24.453124-24.5 24.46875-22.347657.019531-40.460938 18.121093-40.5 40.46875v30.421874c0 6.617188-5.164063 12.441407-11.78125 12.441407h-106.4375c-6.617188 0-11.78125-5.824219-11.78125-12.441407v-30.421874c-.042969-22.347657-18.15625-40.445313-40.5-40.464844-13.515626-.015625-24.472657-10.957032-24.5-24.472656v-133.199219h260zm0 0"/><path d="m106.265625 255.917969h17.714844l-2.914063 49.664062c-.144531 2.1875.640625 4.332031 2.160156 5.90625 1.519532 1.578125 3.632813 2.441407 5.824219 2.382813 2.792969-.011719 5.378907-1.476563 6.828125-3.859375l57.597656-94.296875c1.511719-2.402344 1.570313-5.441406.152344-7.898438-1.4375-2.476562-4.109375-3.96875-6.96875-3.898437h-19.96875l11.742188-28.640625c1.019531-2.519532.738281-5.378906-.746094-7.65625-1.46875-2.253906-3.957031-3.640625-6.648438-3.699219h-57.742187c-4.140625.027344-7.585937 3.1875-7.964844 7.3125l-7.035156 75.4375c-.207031 2.316406.53125 4.621094 2.054687 6.382813 1.488282 1.734374 3.628907 2.769531 5.914063 2.863281zm14.320313-76h38.492187l-11.746094 28.5c-1.015625 2.542969-.738281 5.421875.746094 7.726562 1.460937 2.273438 3.945313 3.6875 6.648437 3.773438h17.664063l-33.484375 54.613281 1.542969-26.527344c.128906-2.140625-.660157-4.238281-2.167969-5.765625-1.53125-1.550781-3.640625-2.390625-5.820312-2.320312h-17.414063zm0 0"/></svg>