<?xml version="1.0"?>
<svg xmlns="http://www.w3.org/2000/svg" id="Layer_1" data-name="Layer 1" viewBox="0 0 512 512" width="512" height="512"><title>Laptop</title><path d="M437,116a8,8,0,0,0-8-8H84a8,8,0,0,0-8,8V321a8,8,0,0,0,8,8H429a8,8,0,0,0,8-8ZM420,313H92V124H420Z"/><path d="M488.986,354H480V99.411C480,78.458,462.806,61,441.853,61H70.147C49.194,61,32,78.458,32,99.411V354H23.014A7.871,7.871,0,0,0,15,361.832v50.757C15,433.542,32.061,451,53.014,451H458.986C479.939,451,497,433.542,497,412.589V361.832A7.871,7.871,0,0,0,488.986,354ZM48,99.411C48,87.28,58.016,77,70.147,77H441.853C453.984,77,464,87.28,464,99.411V354H319a7.859,7.859,0,0,0-8,7.832v10.7c0,6.616-5.383,12.469-12,12.469H213c-6.617,0-12-5.853-12-12.469v-10.7A7.859,7.859,0,0,0,193,354H48ZM481,412.589C481,424.72,471.116,435,458.986,435H53.014C40.884,435,31,424.72,31,412.589V370H185v2.531C185,387.97,197.561,401,213,401h86c15.439,0,28-13.03,28-28.469V370H481Z"/></svg>
