<svg height="471pt" viewBox="-3 0 471 471.94087" width="471pt" xmlns="http://www.w3.org/2000/svg"><path d="m278.636719 217.382812c0-24.945312-20.21875-45.167968-45.167969-45.167968-24.945312 0-45.167969 20.222656-45.167969 45.167968 0 24.945313 20.222657 45.167969 45.167969 45.167969 24.9375-.027343 45.140625-20.234375 45.167969-45.167969zm-17.125-8.441406h-20.042969v-19.554687c9.570312 2.691406 17.117188 10.054687 20.042969 19.554687zm-36.042969-19.652344v19.652344h-20.042969c2.90625-9.53125 10.457031-16.933594 20.042969-19.652344zm-20.042969 35.652344h20.042969v20.53125c-10-2.71875-17.265625-10.53125-20.042969-20.53125zm36.042969 20.4375v-20.4375h20.042969c-2.550781 9.902344-10.191407 17.691406-20.042969 20.4375zm0 0"/><path d="m457.96875 274.941406h-143.5v-127.058594c.0625-2.316406-.898438-4.539062-2.628906-6.078124l-71.371094-61.265626v-24.507812l45.226562-19.257812c2.957032-1.238282 4.886719-4.128907 4.902344-7.335938.011719-3.210938-1.894531-6.117188-4.839844-7.378906l-50.1875-21.417969c-2.464843-1.054687-5.296874-.796875-7.535156.6875-2.234375 1.480469-3.574218 3.988281-3.566406 6.671875v72.917969l-70.089844 60.933593c-1.785156 1.5-2.84375 3.695313-2.910156 6.03125v127.058594h-142.5c-4.417969 0-8.5 3.523438-8.5 7.941406v181c0 4.417969 4.082031 8.058594 8.5 8.058594h449c4.417969 0 7.5-3.640625 7.5-8.058594v-181c0-4.417968-3.082031-7.941406-7.5-7.941406zm-172.636719-135h-104l51.550781-44.921875zm-44.863281-101.300781v-18.445313l21.613281 9.21875zm29 417.300781h-72v-37.660156c0-19.882812 16.121094-36 36-36 19.882812 0 36 16.117188 36 36zm180 0h-164v-37.660156c0-28.71875-23.28125-52-52-52s-52 23.28125-52 52v37.660156h-165v-165h143.5c4.417969 0 7.5-3.640625 7.5-8.058594v-126.941406h131v126.941406c0 4.417969 4.082031 8.058594 8.5 8.058594h142.5zm0 0"/><path d="m358.46875 315.941406c0-4.417968-3.578125-8-8-8h-29c-4.417969 0-8 3.582032-8 8v37c0 4.417969 3.582031 8 8 8h29c4.421875 0 8-3.582031 8-8zm-29 8h13v21h-13zm0 0"/><path d="m420.46875 315.941406c0-4.417968-3.578125-8-8-8h-29c-4.417969 0-8 3.582032-8 8v37c0 4.417969 3.582031 8 8 8h29c4.421875 0 8-3.582031 8-8zm-29 8h13v21h-13zm0 0"/><path d="m358.46875 396.941406c0-4.417968-3.578125-8-8-8h-29c-4.417969 0-8 3.582032-8 8v37c0 4.417969 3.582031 8 8 8h29c4.421875 0 8-3.582031 8-8zm-29 8h13v21h-13zm0 0"/><path d="m420.46875 396.941406c0-4.417968-3.578125-8-8-8h-29c-4.417969 0-8 3.582032-8 8v37c0 4.417969 3.582031 8 8 8h29c4.421875 0 8-3.582031 8-8zm-29 8h13v21h-13zm0 0"/><path d="m91.46875 315.941406c0-4.417968-3.578125-8-8-8h-29c-4.417969 0-8 3.582032-8 8v37c0 4.417969 3.582031 8 8 8h29c4.421875 0 8-3.582031 8-8zm-16 29h-13v-21h13zm0 0"/><path d="m153.46875 315.941406c0-4.417968-3.578125-8-8-8h-29c-4.417969 0-8 3.582032-8 8v37c0 4.417969 3.582031 8 8 8h29c4.421875 0 8-3.582031 8-8zm-16 29h-13v-21h13zm0 0"/><path d="m226.46875 315.941406c0-4.417968-3.578125-8-8-8h-29c-4.417969 0-8 3.582032-8 8v37c0 4.417969 3.582031 8 8 8h29c4.421875 0 8-3.582031 8-8zm-16 29h-13v-21h13zm0 0"/><path d="m288.46875 315.941406c0-4.417968-3.578125-8-8-8h-29c-4.417969 0-8 3.582032-8 8v37c0 4.417969 3.582031 8 8 8h29c4.421875 0 8-3.582031 8-8zm-16 29h-13v-21h13zm0 0"/><path d="m91.46875 396.941406c0-4.417968-3.578125-8-8-8h-29c-4.417969 0-8 3.582032-8 8v37c0 4.417969 3.582031 8 8 8h29c4.421875 0 8-3.582031 8-8zm-16 29h-13v-21h13zm0 0"/><path d="m153.46875 396.941406c0-4.417968-3.578125-8-8-8h-29c-4.417969 0-8 3.582032-8 8v37c0 4.417969 3.582031 8 8 8h29c4.421875 0 8-3.582031 8-8zm-16 29h-13v-21h13zm0 0"/></svg>