<svg height="438pt" viewBox="0 0 438 438.16928" width="438pt" xmlns="http://www.w3.org/2000/svg"><path d="m263.558594 181.082031h-23.300782l13.449219-32.699219c1.015625-2.507812.738281-5.359374-.746093-7.625-1.472657-2.25-3.964844-3.628906-6.652344-3.675781h-63.765625c-4.140625.03125-7.585938 3.195313-7.964844 7.320313l-7.769531 83.316406c-.207032 2.183594.542968 4.351562 2.054687 5.941406 1.535157 1.613282 3.6875 2.496094 5.910157 2.421875h20.453124l-3.269531 56.203125c-.117187 2.207032.667969 4.371094 2.171875 5.996094 1.503906 1.621094 3.601563 2.570312 5.8125 2.625 2.785156.007812 5.371094-1.433594 6.828125-3.804688l63.617188-104.109374c1.507812-2.421876 1.566406-5.476563.148437-7.953126-1.429687-2.492187-4.101562-4.007812-6.976562-3.957031zm-53.765625 80.53125 1.902343-32.589843c.128907-2.269532-.652343-4.5-2.167968-6.191407-1.488282-1.667969-3.585938-2.660156-5.816406-2.75h-20.15625l6.277343-67h44.515625l-13.445312 32.636719c-1.015625 2.519531-.738282 5.378906.746094 7.65625 1.46875 2.261719 3.957031 3.648438 6.648437 3.707031h21zm0 0"/><path d="m219.167969 85.476562c-73.671875 0-133.609375 59.9375-133.609375 133.605469 0 73.671875 59.9375 133.609375 133.609375 133.609375s133.605469-59.9375 133.605469-133.609375c0-73.667969-59.933594-133.605469-133.605469-133.605469zm0 251.214844c-64.953125 0-117.609375-52.65625-117.609375-117.609375 0-64.949219 52.65625-117.605469 117.609375-117.605469s117.605469 52.65625 117.605469 117.605469c-.074219 64.925781-52.683594 117.535157-117.605469 117.609375zm0 0"/><path d="m412.574219 241.417969c1.921875-17.753907 1.457031-35.6875-1.382813-53.320313l22.039063-21.132812c2.421875-2.324219 3.136719-5.910156 1.792969-8.980469l-25.101563-57.382813c-1.359375-3.105468-4.53125-5.019531-7.914063-4.773437l-30.507812 2.246094c-10.980469-14.128907-24.011719-26.539063-38.65625-36.824219l.898438-30.472656c.101562-3.390625-1.949219-6.476563-5.113282-7.699219l-58.414062-22.542969c-3.15625-1.214844-6.730469-.320312-8.941406 2.238282l-19.761719 22.910156c-17.757813-1.921875-35.695313-1.460938-53.328125 1.378906l-21.136719-22.039062c-2.320313-2.421876-5.90625-3.136719-8.980469-1.789063l-57.382812 25.097656c-3.105469 1.359375-5.019532 4.53125-4.769532 7.917969l2.242188 30.503906c-14.128906 10.984375-26.539062 24.015625-36.820312 38.660156l-30.476563-.902343c-3.390625-.105469-6.480469 1.949219-7.699219 5.117187l-22.539062 58.414063c-1.214844 3.152343-.320313 6.730469 2.238281 8.9375l22.90625 19.769531c-1.921875 17.753906-1.457031 35.6875 1.378906 53.320312l-22.039062 21.132813c-2.417969 2.324219-3.132813 5.910156-1.789063 8.980469l25.109375 57.382812c1.355469 3.109375 4.53125 5.023438 7.914063 4.769532l30.507812-2.242188c10.980469 14.128906 24.011719 26.539062 38.65625 36.824219l-.898437 30.472656c-.101563 3.390625 1.949219 6.476563 5.117187 7.699219l58.40625 22.542968c3.152344 1.214844 6.726563.320313 8.933594-2.238281l19.769531-22.910156c17.753907 1.921875 35.683594 1.460937 53.316407-1.378906l21.140624 22.039062c2.320313 2.421875 5.90625 3.136719 8.980469 1.789063l57.378907-25.097656c3.109374-1.359376 5.023437-4.535157 4.773437-7.917969l-2.242187-30.503907c14.125-10.984374 26.535156-24.015624 36.820312-38.660156l30.472656.902344c3.394532.109375 6.488282-1.945312 7.699219-5.117188l22.542969-58.40625c1.214844-3.152343.320312-6.730468-2.234375-8.9375zm-10.292969 76.066406-29.175781-.859375c-2.761719-.089844-5.371094 1.257812-6.894531 3.558594-10.550782 15.84375-23.777344 29.734375-39.085938 41.042968-2.207031 1.632813-3.421875 4.28125-3.222656 7.019532l2.148437 29.191406-47.082031 20.601562-20.210938-21.074218c-1.859374-1.941406-4.570312-2.816406-7.210937-2.332032-18.796875 3.441407-38.011719 3.9375-56.960937 1.472657-2.667969-.351563-5.332032.667969-7.089844 2.707031l-18.863282 21.863281-47.867187-18.476562.859375-29.179688c.082031-2.757812-1.261719-5.363281-3.558594-6.890625-15.84375-10.550781-29.730468-23.777344-41.042968-39.085937-1.632813-2.207031-4.28125-3.421875-7.015626-3.222657l-29.195312 2.144532-20.601562-47.082032 21.078124-20.207031c1.9375-1.859375 2.8125-4.570312 2.328126-7.214843-3.441407-18.792969-3.9375-38.011719-1.472657-56.960938.347657-2.664062-.667969-5.328125-2.703125-7.085938l-21.867187-18.867187 18.476562-47.863281 29.179688.859375c2.757812.082031 5.363281-1.265625 6.894531-3.558594 10.546875-15.84375 23.773438-29.734375 39.085938-41.042969 2.207031-1.632812 3.421874-4.28125 3.21875-7.019531l-2.144532-29.191406 47.078125-20.601563 20.210938 21.074219c1.859375 1.941406 4.570312 2.816406 7.214843 2.332031 18.796876-3.445312 38.019532-3.941406 56.96875-1.472656 2.667969.347656 5.332032-.671875 7.089844-2.707031l18.863282-21.863281 47.863281 18.472656-.855469 29.183594c-.082031 2.757812 1.261719 5.359374 3.558594 6.890624 15.84375 10.550782 29.730468 23.777344 41.039062 39.085938 1.632813 2.207031 4.285156 3.425781 7.019532 3.222656l29.195312-2.144531 20.597656 47.078125-21.074218 20.210938c-1.9375 1.859374-2.816407 4.570312-2.332032 7.214843 3.445313 18.792969 3.941406 38.011719 1.472656 56.960938-.34375 2.664062.671876 5.328125 2.707032 7.085937l21.859375 18.863282zm0 0"/></svg>