<svg height="394pt" viewBox="-9 0 394 394" width="394pt" xmlns="http://www.w3.org/2000/svg"><path d="m345.882812 0h-315.761718c-16.78125 0-30.11718775 14.019531-30.11718775 31.355469v157.457031c-.17578125 12.695312 7.34765575 24.234375 19.03124975 29.199219l69.992188 134.902343c.035156.070313.035156.097657.070312.164063 14.101563 25.269531 40.769532 40.925781 69.707032 40.921875h85.125c44.058593-.097656 79.746093-35.789062 79.84375-79.84375.027343-26.996094.054687-60.15625.074218-94.15625h22.035156c16.785157 0 30.121094-13.847656 30.121094-31.1875v-157.457031c0-17.335938-13.335937-31.355469-30.121094-31.355469zm14.121094 31.355469v35.644531h-8.023437c-23.175781 0-41.976563-20.117188-41.976563-44.523438v-6.476562h35.878906c7.964844 0 14.121094 6.84375 14.121094 15.355469zm-66 172.644531h-196.867187l-7.65625-8.570312c-2.425781-2.730469-5.164063-5.167969-8.15625-7.261719-1.976563-13.265625-8.242188-25.515625-17.84375-34.878907-10.535157-10.347656-24.6875-16.191406-39.453125-16.289062h-8.023438v-54h8.023438c32 0 57.976562-26.914062 57.976562-60.140625v-6.859375h212v6.476562c0 33.222657 25.980469 60.523438 57.976563 60.523438h8.023437v54h-8.023437c-32 0-57.976563 27.46875-57.976563 60.695312zm-276.792968-8.625c-.851563-2.082031-1.261719-4.316406-1.207032-6.5625v-35.8125h8.023438c17.078125 0 32.132812 11.300781 38.625 27.121094-14.097656-2.65625-28.636719 1.210937-39.550782 10.519531zm12.910156-179.375h35.882812v6.859375c0 24.40625-18.800781 44.140625-41.976562 44.140625h-8.023438v-35.644531c0-8.511719 6.15625-15.355469 14.117188-15.355469zm277.652344 298.140625c-.078126 35.230469-28.613282 63.773437-63.84375 63.859375h-85.125c-23.105469.007812-44.410157-12.464844-55.714844-32.613281l-72.769532-140.074219 2.652344-2.042969c.105469-.082031.207032-.160156.308594-.246093 13.117188-11.171876 32.757812-9.792969 44.1875 3.097656l21.238281 24.140625c2.199219 2.5 5.714844 3.375 8.828125 2.199219 3.128906-1.230469 5.183594-4.25 5.179688-7.609376v-4.855468h195.128906c-.019531 34.003906-.039062 67.15625-.070312 94.144531zm38.109374-110.140625h-35.878906v-6.304688c0-24.402343 18.800782-44.695312 41.976563-44.695312h8.023437v35.8125c0 8.515625-6.15625 15.1875-14.121094 15.1875zm0 0"/><path d="m186.808594 62.898438c.789062.132812 1.597656.132812 2.390625 0 11.527343.648437 20.546875 10.179687 20.5625 21.726562 0 4.417969 3.582031 8 8 8s8-3.582031 8-8c-.023438-17.761719-12.40625-33.113281-29.757813-36.898438v-9.726562c0-4.417969-3.582031-8-8-8-4.417968 0-8 3.582031-8 8v9.726562c-18.859375 4.089844-31.601562 21.738282-29.542968 40.925782 2.054687 19.183594 18.246093 33.734375 37.542968 33.734375 12.015625 0 21.757813 9.738281 21.757813 21.757812 0 12.015625-9.742188 21.757813-21.757813 21.757813-12.019531 0-21.761718-9.742188-21.761718-21.757813 0-4.417969-3.578126-8-8-8-4.417969 0-8 3.582031-8 8 .027343 17.761719 12.40625 33.113281 29.761718 36.898438v10.957031c0 4.417969 3.582032 8 8 8 4.417969 0 8-3.582031 8-8v-10.957031c18.855469-4.089844 31.597656-21.738281 29.542969-40.925781-2.054687-19.183594-18.246094-33.734376-37.542969-33.730469-11.789062.007812-21.441406-9.375-21.765625-21.160157-.324219-11.789062 8.796875-21.6875 20.570313-22.324218zm0 0"/></svg>