<?xml version="1.0"?>
<svg xmlns="http://www.w3.org/2000/svg" id="Layer_1" data-name="Layer 1" viewBox="0 0 512 512" width="512" height="512"><title>Factory</title><path d="M485,175H441.918L339.036,78.068l-.009.01c-2.576-2.3-7.556-3.43-10.661-2.28a7.051,7.051,0,0,1,2.485-.475l-.272-.007a9.142,9.142,0,0,0-7.138,2.336A8.106,8.106,0,0,0,321,83.426V175H290.129L187.248,78.068l-.008.009c-2.377-2.143-6.929-3.515-10.274-2.277a7.263,7.263,0,0,1,2.567-.477l-.174,0a8.921,8.921,0,0,0-6.9,2.309,8.122,8.122,0,0,0-2.463,5.8V175H138.341L35.459,78.068l-.005.006c-2.567-2.346-7.261-3.433-10.377-2.276a7.251,7.251,0,0,1,2.537-.475l-.2-.006a8.916,8.916,0,0,0-6.959,2.318A8.113,8.113,0,0,0,18,83.426V429a8,8,0,0,0,8,8H485a8,8,0,0,0,8-8V183A8,8,0,0,0,485,175ZM180,421H85V276h95Zm297,0H196V268.237A7.971,7.971,0,0,0,188.281,260H77.037A8.237,8.237,0,0,0,69,268.237V421H34V98.676l95.68,90.147A8,8,0,0,0,135.166,191H178a8,8,0,0,0,8-8V98.875l95.469,89.948A8,8,0,0,0,286.955,191H329a8,8,0,0,0,8-8V98.133l96.257,90.69A8,8,0,0,0,438.743,191H477Z"/><path d="M315,267H233a8,8,0,0,0-8,8v50a8,8,0,0,0,8,8h82a8,8,0,0,0,8-8V275A8,8,0,0,0,315,267Zm-9,50H241V283h65Z"/><path d="M351,275v50a8,8,0,0,0,8,8h82a8,8,0,0,0,8-8V275a8,8,0,0,0-8-8H359A8,8,0,0,0,351,275Zm16,8h66v34H367Z"/></svg>
