<?xml version="1.0"?>
<svg xmlns="http://www.w3.org/2000/svg" id="Layer_1" data-name="Layer 1" viewBox="0 0 512 512" width="512" height="512"><title>Online Rupees</title><path d="M465.978,129H268.356a7.914,7.914,0,0,0-3.547.779C259.932,63.928,204.8,11.809,137.721,11.809A127.431,127.431,0,1,0,265.057,144.227a8,8,0,0,0,3.3.773H465.978a19.5,19.5,0,1,1,0,39H364.127A36.429,36.429,0,0,0,328,220.111V224H311.967C274.026,224,243,255.152,243,293.092V431.414C243,469.354,274.026,500,311.967,500h50.156A68.757,68.757,0,0,0,431,431.414V293.092C431,255.152,400.063,224,362.123,224H344v-3.889A20.414,20.414,0,0,1,364.127,200H465.978a35.5,35.5,0,1,0,0-71ZM137.721,250.663A111.442,111.442,0,1,1,249.162,139.221,111.568,111.568,0,0,1,137.721,250.663ZM329,316.706c0-.02,0-.038,0-.058s0-.039,0-.058V299.546c0-4.18,3.818-7.581,8-7.581s8,3.4,8,7.581v17.063c0,.013,0,.026,0,.039s0,.026,0,.039V333.75c0,4.181-3.82,7.582-8,7.582s-8-3.4-8-7.582Zm-70-23.614A53.249,53.249,0,0,1,311.967,240H328v37.62c-8,3.46-15,11.981-15,21.926V309H259ZM415,431.414A52.739,52.739,0,0,1,362.123,484H311.967C282.85,484,259,460.532,259,431.414V325h54v8.75c0,13,11,23.582,24,23.582s24-10.579,24-23.582V325h54ZM362.123,240C391.24,240,415,263.975,415,293.092V309H361v-9.454c0-10.441-7-19.313-17-22.406V240Z"/><path d="M137.721,42.062a97.159,97.159,0,1,0,97.159,97.159A97.268,97.268,0,0,0,137.721,42.062Zm0,178.317a81.159,81.159,0,1,1,81.159-81.158A81.25,81.25,0,0,1,137.721,220.379Z"/><path d="M175.982,97a8,8,0,0,0-8-8H108.018a8,8,0,0,0,0,16h17.159a17.555,17.555,0,0,1,15.8,10H108.018a8,8,0,0,0,0,16h32.958c-2.931,6-8.9,9-15.8,9H108.018a8.257,8.257,0,0,0-5.5,14.165L145.41,194.75A7.981,7.981,0,1,0,156.4,183.172l-28.391-26.7A33.5,33.5,0,0,0,157.945,131h10.037a8,8,0,0,0,0-16H157.938a30.243,30.243,0,0,0-4.085-10h14.129A8,8,0,0,0,175.982,97Z"/></svg>
