<svg height="472pt" viewBox="0 0 472 472" width="472pt" xmlns="http://www.w3.org/2000/svg"><path d="m463.699219 0h-455.398438c-4.484375-.00390625-8.160156 3.558594-8.300781 8.039062v342.773438c.125 4.511719 3.785156 8.121094 8.300781 8.1875h135.699219v47h-40.449219c-4.417969 0-7.550781 3.542969-7.550781 7.960938v50c0 4.421874 3.132812 8.039062 7.550781 8.039062h264.898438c4.417969 0 7.546875-3.617188 7.546875-8.039062v-50c0-4.417969-3.128906-7.960938-7.546875-7.960938h-40.449219v-47h135.699219c4.515625-.066406 8.175781-3.675781 8.300781-8.1875v-342.773438c-.140625-4.480468-3.816406-8.04296825-8.300781-8.039062zm-103.699219 456h-248v-34h248zm-48-50h-152v-47h152zm144-63h-440v-327h440zm0 0"/><path d="m419 60c0-4.417969-3.582031-8-8-8h-351c-4.417969 0-8 3.582031-8 8v239c0 4.417969 3.582031 8 8 8h351c4.417969 0 8-3.582031 8-8zm-351 8h336v223h-336zm0 0"/><path d="m326 99c0-4.417969-3.582031-8-8-8h-164c-4.417969 0-8 3.582031-8 8v164c0 4.417969 3.582031 8 8 8h164c4.417969 0 8-3.582031 8-8zm-108 8h36v21.316406l-15.246094-5.316406c-1.769531-.601562-3.6875-.601562-5.453125 0l-15.300781 5.316406zm92 148h-148v-148h40v32.601562c.046875 2.605469 1.34375 5.03125 3.480469 6.527344 2.136719 1.492188 4.859375 1.871094 7.324219 1.019532l23.167968-8.121094 23.15625 8.121094c.851563.300781 1.75.453124 2.652344.453124 1.695312 0 3.34375-.515624 4.738281-1.476562 2.144531-1.488281 3.4375-3.917969 3.480469-6.523438v-32.601562h40zm0 0"/><path d="m196.636719 187h51.578125c4.417968 0 8-3.582031 8-8s-3.582032-8-8-8h-51.578125c-4.417969 0-8 3.582031-8 8s3.582031 8 8 8zm0 0"/><path d="m196.636719 199c-4.417969 0-8 3.582031-8 8s3.582031 8 8 8h78.726562c4.417969 0 8-3.582031 8-8s-3.582031-8-8-8zm0 0"/></svg>