<?xml version="1.0"?>
<svg xmlns="http://www.w3.org/2000/svg" id="Layer_1" data-name="Layer 1" viewBox="0 0 512 512" width="512" height="512"><title>Can</title><path d="M97,323.355V432.806A6.515,6.515,0,0,0,103.393,439H340.205a6,6,0,0,0,5.8-6.194V316.364L455.325,246.1l2.127,3.226a6.053,6.053,0,0,0,8.337,1.8l34.745-22.351a6,6,0,0,0,1.8-8.292l-39.378-61.212a6,6,0,0,0-8.291-1.8l-34.743,22.35a6,6,0,0,0-1.8,8.292l1.973,3.226-74.1,47.6V130.021c0-.7.09-1.4.066-2.1A56.065,56.065,0,0,0,328.4,88.905,57.817,57.817,0,0,0,288.616,73H154.982a57.942,57.942,0,0,0-39.836,15.905A56.213,56.213,0,0,0,97.234,127.87c-.025.7-.234,1.448-.234,2.151V147H50.764A42.183,42.183,0,0,0,8.709,189.149a41.72,41.72,0,0,0,8.009,25ZM334,139v20H109V139Zm0,240H109V171H334ZM109,427V391H334v36ZM456.112,170.809,489,221.93l-24.65,15.858-32.888-51.121Zm-29.523,30.622,22.193,34.577L346,302.1V253.209ZM154.982,85H288.616c23.779,0,43.852,19,45.468,42H109.514C111.13,104,131.2,85,154.982,85ZM50.764,159H97V303.134L26.376,207.079A30.3,30.3,0,0,1,50.764,159Z"/><path d="M221.908,359.034a82.646,82.646,0,1,0-82.646-82.646A82.74,82.74,0,0,0,221.908,359.034Zm0-153.292a70.646,70.646,0,1,1-70.646,70.646A70.726,70.726,0,0,1,221.908,205.742Z"/><path d="M221.908,312.624a13.865,13.865,0,0,1-13.849-13.85,6,6,0,0,0-12,0A25.89,25.89,0,0,0,215,323.679V329a6,6,0,0,0,12,0v-4.882a25.85,25.85,0,0,0-5.092-51.193,13.849,13.849,0,1,1,13.849-13.849,6,6,0,0,0,12,0A25.891,25.891,0,0,0,227,233.733V229a6,6,0,0,0-12,0v5.172a25.846,25.846,0,0,0,6.908,50.753,13.85,13.85,0,0,1,0,27.7Z"/></svg>
