<?xml version="1.0" encoding="iso-8859-1"?>
<!-- Generator: Adobe Illustrator 19.0.0, SVG Export Plug-In . SVG Version: 6.00 Build 0)  -->
<svg version="1.1" id="Capa_1" xmlns="http://www.w3.org/2000/svg" xmlns:xlink="http://www.w3.org/1999/xlink" x="0px" y="0px"
	 viewBox="0 0 512 512" style="enable-background:new 0 0 512 512;" xml:space="preserve">
<g>
	<g>
		<path d="M136.493,292.398c-35.124,0-63.697,28.573-63.697,63.697c0,35.124,28.573,63.697,63.697,63.697
			c35.124,0,63.697-28.572,63.697-63.697S171.617,292.398,136.493,292.398z M136.493,383.393c-15.051,0-27.299-12.248-27.299-27.299
			s12.248-27.299,27.299-27.299c15.051,0,27.299,12.248,27.299,27.299S151.544,383.393,136.493,383.393z"/>
	</g>
</g>
<g>
	<g>
		<path d="M401.592,292.398c-35.124,0-63.697,28.573-63.697,63.697c0,35.124,28.573,63.697,63.697,63.697
			c35.124,0,63.697-28.573,63.697-63.697C465.289,320.971,436.717,292.398,401.592,292.398z M401.592,383.393
			c-15.051,0-27.299-12.248-27.299-27.299s12.248-27.299,27.299-27.299c15.057,0,27.299,12.248,27.299,27.299
			S416.643,383.393,401.592,383.393z"/>
	</g>
</g>
<g>
	<g>
		<path d="M63.697,132.853c-6.837,0-13.103,3.84-16.215,9.925L1.984,231.953l32.425,16.543l40.432-79.245h93.197v-36.398H63.697z"/>
	</g>
</g>
<g>
	<g>
		<path d="M168.038,258.427v-36.398H18.199C8.147,222.028,0,230.176,0,240.227v103.735c0,10.052,8.147,18.199,18.199,18.199
			c1.614,0,3.179-0.206,4.671-0.607h68.125v-36.398H36.398v-66.73H168.038z"/>
	</g>
</g>
<g>
	<g>
		<rect x="181.384" y="325.162" width="173.498" height="36.398"/>
	</g>
</g>
<g>
	<g>
		<path d="M493.801,92.209H168.038c-10.052,0-18.199,8.147-18.199,18.199v212.929h36.398v-194.73h289.365v196.556h-27.905v36.398
			h46.104c10.058,0,18.199-8.147,18.199-18.205V110.408C512,100.356,503.853,92.209,493.801,92.209z"/>
	</g>
</g>
<g>
</g>
<g>
</g>
<g>
</g>
<g>
</g>
<g>
</g>
<g>
</g>
<g>
</g>
<g>
</g>
<g>
</g>
<g>
</g>
<g>
</g>
<g>
</g>
<g>
</g>
<g>
</g>
<g>
</g>
</svg>
