<svg height="474pt" viewBox="0 0 474 474.93968" width="474pt" xmlns="http://www.w3.org/2000/svg"><path d="m279.394531 232.484375c0-4.421875-3.582031-8-8-8h-52.441406v-75.175781c0-4.417969-3.582031-8-8-8s-8 3.582031-8 8v82.9375c0 4.417968 3.214844 8.238281 7.632813 8.238281h60.808593c4.417969 0 8-3.582031 8-8zm0 0"/><path d="m435.089844 257.058594c2.203125-12.578125 3.3125-25.324219 3.3125-38.09375 0-88.5625-53.347656-168.40625-135.171875-202.296875-81.820313-33.890625-176-15.15625-238.625 47.464843-62.625 62.625-81.359375 156.804688-47.46875 238.628907s113.734375 135.171875 202.300781 135.171875c12.769531 0 25.511719-1.109375 38.089844-3.3125 31.277344 33.804687 78.542968 47.789062 123.179687 36.449218 44.636719-11.34375 79.488281-46.199218 90.832031-90.832031 11.34375-44.636719-2.644531-91.902343-36.449218-123.179687zm-215.652344 164.871094c-111.917969 0-202.964844-91.050782-202.964844-202.964844 0-111.914063 91.046875-202.964844 202.964844-202.964844 111.914062 0 202.964844 91.050781 202.964844 202.964844-.003906 8.882812-.585938 17.753906-1.738282 26.5625-10.535156-7.234375-22.113281-12.8125-34.335937-16.542969.199219-3.335937.308594-6.683594.308594-10.015625 0-92.195312-75.003907-167.199219-167.199219-167.199219-92.191406 0-167.199219 75.003907-167.199219 167.199219s75.007813 167.199219 167.199219 167.199219c3.332031 0 6.683594-.109375 10.015625-.308594 3.730469 12.222656 9.3125 23.804687 16.546875 34.335937-8.808594 1.152344-17.683594 1.730469-26.5625 1.734376zm4.570312-72.679688c.003907 6.960938.578126 13.910156 1.726563 20.777344-2.097656.085937-4.199219.136718-6.300781.136718-83.371094 0-151.199219-67.828124-151.199219-151.199218s67.828125-151.199219 151.199219-151.199219c83.375 0 151.203125 67.828125 151.203125 151.199219 0 2.097656-.054688 4.199218-.144531 6.300781-36.460938-6.105469-73.765626 4.148437-101.984376 28.035156s-44.496093 58.980469-44.5 95.949219zm125.714844 109.714844c-60.59375 0-109.714844-49.117188-109.714844-109.710938s49.121094-109.714844 109.714844-109.714844 109.714844 49.121094 109.714844 109.710938c-.070312 60.566406-49.148438 109.648438-109.714844 109.714844zm0 0"/><path d="m321.433594 355.265625c9.15625-6.265625 20.613281-14.066406 20.613281-27.5 0-13.769531-12.234375-21.199219-23.773437-21.199219-11.199219 0-23.085938 6.898438-23.085938 19.699219 0 5.785156 2.460938 8.601563 7.511719 8.601563 5.648437 0 8.699219-3.195313 8.699219-6.203126 0-6.089843 4.390624-7 7-7 5.238281 0 7.101562 3.558594 7.101562 6.601563 0 5.761719-6.972656 10.859375-14.324219 16.253906-8.457031 6.210938-17.230469 12.628907-17.230469 21.148438v9.699219c0 3.234374 4.375 5.117187 7.351563 5.117187h35.601563c2.769531 0 5.199218-3.15625 5.199218-7.101563 0-3.898437-2.382812-6.898437-5.199218-6.898437h-25.945313v-.816406c0-3.316407 4.925781-6.601563 10.480469-10.402344zm0 0"/><path d="m400.207031 349.484375h-4.253906v-6.121094c0-3.839843-4.167969-5.199219-8-5.199219-3.828125 0-8 1.359376-8 5.199219v6.121094h-7.4375l17.351563-34.617187c.316406-.621094.503906-1.300782.539062-2 0-3.96875-5.375-6.351563-8.300781-6.351563-2.957031-.054687-5.671875 1.628906-6.941407 4.300781l-23.101562 45.296875c-.554688 1.035157-.847656 2.183594-.859375 3.355469 0 3.527344 2.289063 6.015625 5.699219 6.015625h23.050781v9.882813c0 3.640624 4 5.300781 8 5.300781s8-1.660157 8-5.300781v-9.882813h4.253906c2.675781 0 5.300781-4.117187 5.300781-8 0-3.710937-1.652343-8-5.300781-8zm0 0"/></svg>