<svg height="468pt" viewBox="0 -10 468.00002 468" width="468pt" xmlns="http://www.w3.org/2000/svg"><path d="m6 227h30.5c-11.53125 16.730469-17.699219 36.574219-17.683594 56.890625-.003906 53.457031 42.183594 97.351563 94.183594 100.847656v37.160157c.113281 14.417968 11.808594 26.054687 26.222656 26.101562h189.550782c14.414062-.046875 26.109374-11.683594 26.226562-26.101562v-194.898438h107c1.589844.003906 3.117188-.625 4.242188-1.75 1.125-1.121094 1.757812-2.644531 1.757812-4.234375v-214.914063c.007812-3.335937-2.667969-6.054687-6-6.101562h-456c-3.332031.046875-6.0078125 2.765625-6 6.101562v214.914063c0 1.589844.632812 3.113281 1.757812 4.234375 1.125 1.125 2.652344 1.753906 4.242188 1.75zm24.925781 56.898438c0-49.191407 39.878907-89.074219 89.074219-89.074219s89.074219 39.878906 89.074219 89.074219c0 49.195312-39.878907 89.074218-89.074219 89.074218-49.171875-.054687-89.015625-39.902344-89.074219-89.074218zm317.847657-175.898438h-229.550782c-3.3125 0-6.222656 2.242188-6.222656 5.554688v49.445312h-51v-99h344v99h-51v-49.445312c0-3.3125-2.914062-5.554688-6.226562-5.554688zm-56.773438 12v316h-36v-316zm-167 301.898438v-37.058594c53.722656-2.78125 95.855469-47.148438 95.855469-100.941406 0-53.792969-42.132813-98.160157-95.855469-100.941407v-62.957031h119v316h-104.777344c-7.789062-.039062-14.113281-6.308594-14.222656-14.101562zm218 0c-.109375 7.792968-6.4375 14.0625-14.226562 14.101562h-24.773438v-316h39zm-331-409.898438h444v203h-101v-40h57.367188c3.3125 0 5.632812-2.773438 5.632812-6.085938v-110.714843c0-3.3125-2.320312-6.199219-5.632812-6.199219h-356.734376c-3.3125 0-5.632812 2.890625-5.632812 6.199219v110.714843c0 3.3125 2.320312 6.085938 5.632812 6.085938h57.367188v8.054688c-26 1.757812-49.871094 13.945312-66.894531 31.945312h-34.105469zm0 0"/><path d="m125 351v-9.125c15.722656-2.605469 26.824219-16.832031 25.515625-32.71875-1.304687-15.882812-14.578125-28.109375-30.515625-28.109375-9.894531-.003906-18.058594-7.746094-18.589844-17.625-.527344-9.882813 6.761719-18.449219 16.601563-19.511719.324219.058594.65625.085938.988281.089844.480469 0 .957031-.0625 1.421875-.175781 10.109375.234375 18.1875 8.488281 18.199219 18.597656 0 3.316406 2.6875 6 6 6 3.316406 0 6-2.683594 6-6-.019532-14.972656-10.851563-27.742187-25.621094-30.203125v-8.21875c0-3.3125-2.6875-6-6-6s-6 2.6875-6 6v8.617188c-15.136719 3.554687-25.207031 17.886718-23.417969 33.332031 1.789063 15.445312 14.871094 27.097656 30.417969 27.097656 10.285156 0 18.621094 8.335937 18.621094 18.621094 0 10.285156-8.335938 18.621093-18.621094 18.621093s-18.621094-8.335937-18.621094-18.621093c0-3.316407-2.6875-6-6-6-3.316406 0-6 2.683593-6 6 .019532 14.207031 9.792969 26.539062 23.621094 29.804687v9.527344c0 3.3125 2.6875 6 6 6s6-2.6875 6-6zm0 0"/></svg>