<svg id="Layer_1" height="512" viewBox="0 0 512 512" width="512" xmlns="http://www.w3.org/2000/svg" data-name="Layer 1"><path d="m227 425.785a43.63 43.63 0 1 0 58 0v-41.785h134v-40.02c0-16.809-13-30.622-29-31.894v-105.634c0-65.883-47.869-120.8-110.626-131.875a36.5 36.5 0 1 0 -46.745 0c-62.757 11.072-110.629 65.992-110.629 131.875v105.634c-16 1.272-29 15.085-29 31.894v40.02h134zm60.505 32.684a31.5 31.5 0 1 1 -31.5-31.5 31.541 31.541 0 0 1 31.5 31.5zm-14.505-40.18a45.121 45.121 0 0 0 -34 0v-34.289h34zm-17-396.263a24.5 24.5 0 1 1 -24.5 24.5 24.53 24.53 0 0 1 24.5-24.5zm0 62.513c67.223 0 122 54.69 122 121.913v105.548h-244v-105.548c0-67.223 54.777-121.913 122-121.913zm-151 259.441a19.642 19.642 0 0 1 19.569-19.98h262.862a19.642 19.642 0 0 1 19.569 19.98v28.02h-302z"/></svg>