<?xml version="1.0"?>
<svg xmlns="http://www.w3.org/2000/svg" id="Layer_1" data-name="Layer 1" viewBox="0 0 512 512" width="512" height="512"><title>Ideas</title><path d="M481.075,22.573a46.6,46.6,0,0,0-33.322-13.65L447.71,9H126.243C101.286,9,80.982,29.255,80.982,53.912L79.158,401H25.172C20.753,401,17,404.106,17,408.525v34.118c0,32.463,26,59.006,58,60.442V503H352v.034c1,.071,2.628-.034,3.84-.034h.168A60.8,60.8,0,0,0,417,442.634V126h69.828c4.418,0,8.172-3.2,8.172-7.621V55.826A46.749,46.749,0,0,0,481.075,22.573ZM77.794,487h-.048C53.19,487,33,467.188,33,442.634V417H295v25.517a60.224,60.224,0,0,0,17.857,42.774c.611.613,1.4,1.709,2.032,1.709ZM401,442.626C401,467.206,380.582,487,355.95,487h-.1A44.717,44.717,0,0,1,311,442.525v-34A7.338,7.338,0,0,0,303.32,401H95.158L96.982,53.954A29.2,29.2,0,0,1,126.243,25H412.3c-7.59,8-11.3,19.4-11.3,30.968ZM479,55.968V110H417V55.955A30.572,30.572,0,0,1,447.574,25h.2A31.074,31.074,0,0,1,479,55.853Z"/><path d="M237.462,176.209a8,8,0,0,0,11.077,0L278.4,147.558a8,8,0,0,0-11.078-11.546L251,151.674V91.542a26.789,26.789,0,1,0-16,0v60.132l-16.325-15.662A8,8,0,0,0,207.6,147.558ZM243,55.185a10.789,10.789,0,1,1-10.789,10.789A10.8,10.8,0,0,1,243,55.185Z"/><path d="M336.058,272.373l-13.385-2.123a78.807,78.807,0,0,0-7.062-16.289l7.5-10.13a8,8,0,0,0-.936-10.579l-17.7-16.755a8,8,0,0,0-10.006-.8l-11.2,7.625a85.216,85.216,0,0,0-17.763-6.927l-2.183-12.019A7.808,7.808,0,0,0,255.441,198H230.565a7.807,7.807,0,0,0-7.876,6.372L220.5,216.524a87.286,87.286,0,0,0-17.787,6.884L191.483,215.9a8,8,0,0,0-9.934.835l-17.7,16.754a7.994,7.994,0,0,0-.923,10.575l7.5,10.1a76.656,76.656,0,0,0-7.024,16.314l-13.462,2.123a8.183,8.183,0,0,0-6.94,7.9v23.544a8.183,8.183,0,0,0,6.942,7.9l13.384,2.123a78.768,78.768,0,0,0,7.064,16.29L162.9,340.493a8,8,0,0,0,.936,10.577l17.7,16.757a8,8,0,0,0,9.937.849l11.216-7.467a85.213,85.213,0,0,0,17.815,6.953l2.183,12.242a8,8,0,0,0,7.876,6.6h24.87a8,8,0,0,0,7.876-6.6l2.187-12.263a87.388,87.388,0,0,0,17.792-6.944l11.232,7.479a8,8,0,0,0,9.934-.849l17.7-16.757a8,8,0,0,0,.909-10.6L315.34,330.14a76.646,76.646,0,0,0,7.011-16.287l13.691-2.128a8.183,8.183,0,0,0,6.958-7.9v-23.55A8.185,8.185,0,0,0,336.058,272.373ZM327,296.986,314.9,298.864a8.121,8.121,0,0,0-6.663,6.158,61.007,61.007,0,0,1-9.144,21.025,8,8,0,0,0,.183,9.282l6.722,9.017-7.906,7.48-10-6.657a8,8,0,0,0-8.545-.2,71.557,71.557,0,0,1-22.592,8.76,8,8,0,0,0-6.285,6.436L248.732,371h-11.47l-1.933-10.84a8,8,0,0,0-6.323-6.444,69.358,69.358,0,0,1-22.52-8.732,8,8,0,0,0-8.576.185l-10,6.657-7.915-7.5,6.528-8.794a8,8,0,0,0,.218-9.227,62.837,62.837,0,0,1-9.121-21.1,8.251,8.251,0,0,0-6.741-6.117L159,297.227v-9.9l11.88-1.87a8.124,8.124,0,0,0,6.645-6.156,61.02,61.02,0,0,1,9.144-21.026,8,8,0,0,0-.17-9.263l-6.512-8.789,7.927-7.5,10,6.657a8,8,0,0,0,8.544.205,71.607,71.607,0,0,1,22.588-8.756,7.747,7.747,0,0,0,6.285-6.213L237.265,214h11.477l1.933,10.616A7.873,7.873,0,0,0,257,230.948a69.29,69.29,0,0,1,22.521,8.678,8,8,0,0,0,8.646-.26l9.977-6.808,7.865,7.44-6.53,8.79a8,8,0,0,0-.219,9.226,62.856,62.856,0,0,1,9.121,21.1,8.25,8.25,0,0,0,6.741,6.115L327,287.1Z"/><path d="M259.987,272.531,236.2,294.981l-9.951-10.217a8,8,0,1,0-11.461,11.163l15.445,15.86a8,8,0,0,0,11.222.235l29.512-27.856a8,8,0,1,0-10.983-11.635Z"/><path d="M243,237.389a54.888,54.888,0,1,0,54.888,54.887A54.95,54.95,0,0,0,243,237.389Zm0,93.775a38.888,38.888,0,1,1,38.888-38.888A38.932,38.932,0,0,1,243,331.164Z"/></svg>
