<svg height="490pt" viewBox="-43 0 490 490" width="490pt" xmlns="http://www.w3.org/2000/svg"><path d="m211 126h58.644531c3.3125 0 6-2.6875 6-6s-2.6875-6-6-6h-58.644531c-3.3125 0-6 2.6875-6 6s2.6875 6 6 6zm0 0"/><path d="m211 166h108.644531c3.316407 0 6-2.6875 6-6s-2.683593-6-6-6h-108.644531c-3.3125 0-6 2.6875-6 6s2.6875 6 6 6zm0 0"/><path d="m211 206h108.644531c3.316407 0 6-2.6875 6-6s-2.683593-6-6-6h-108.644531c-3.3125 0-6 2.6875-6 6s2.6875 6 6 6zm0 0"/><path d="m211 246h108.644531c3.316407 0 6-2.6875 6-6s-2.683593-6-6-6h-108.644531c-3.3125 0-6 2.6875-6 6s2.6875 6 6 6zm0 0"/><path d="m211 286h108.644531c3.316407 0 6-2.6875 6-6s-2.683593-6-6-6h-108.644531c-3.3125 0-6 2.6875-6 6s2.6875 6 6 6zm0 0"/><path d="m325.644531 320c0-3.3125-2.683593-6-6-6h-108.644531c-3.3125 0-6 2.6875-6 6s2.6875 6 6 6h108.644531c3.316407 0 6-2.6875 6-6zm0 0"/><path d="m109 230.820312c22.054688-.019531 39.941406-17.871093 40-39.925781v-23.664062c-.015625-12.5625-5.941406-24.386719-16-31.914063 1.957031-9.707031-2.128906-19.632812-10.351562-25.152344-8.222657-5.515624-18.960938-5.53125-27.199219-.039062s-12.355469 15.410156-10.425781 25.121094c-8.96875 6.695312-14.699219 16.863281-15.789063 28-.164063 1.644531-.234375 12.46875-.234375 12.574218v15.070313c.058594 22.054687 17.945312 39.910156 40 39.929687zm0-12c-15.429688-.011718-27.949219-12.496093-28-27.925781v-9.457031c1 .078125 1.628906.128906 2.449219.128906 11.039062 0 20.820312-4.777344 26.628906-12.042968 5.808594 7.265624 15.617187 12.042968 26.65625 12.042968.074219 0 .265625-.011718.265625-.015625v9.34375c-.050781 15.429688-12.570312 27.914063-28 27.925781zm0-100.820312c6.417969.007812 11.78125 4.890625 12.390625 11.28125-4-1.3125-8.183594-1.976562-12.390625-1.976562-4.207031-.003907-8.386719.65625-12.390625 1.949218.625-6.378906 5.980469-11.246094 12.390625-11.253906zm.035156 21.300781c15.425782.015625 27.933594 12.503907 27.964844 27.929688v2.3125c-.085938.015625-.171875.019531-.257812.023437-11.148438 0-20.234376-6.984375-20.234376-15.566406-.011718-3.316406-2.703124-6-6.019531-6h-.785156c-3.3125 0-6 2.6875-6 6 0 8.582031-9.066406 15.566406-20.21875 15.566406-.792969-.007812-1.582031-.082031-2.363281-.214844.023437-2.300781.074218-4.414062.109375-4.917968 1.394531-14.296875 13.441406-25.183594 27.804687-25.128906zm0 0"/><path d="m148.722656 233h-79.4375c-11.597656-.074219-22.691406 4.746094-30.550781 13.277344s-11.757813 19.980468-10.734375 31.535156v50.1875c.101562 3.351562 2.855469 6.015625 6.210938 6h149.578124c3.355469.015625 6.109376-2.648438 6.210938-6v-50.1875c1.023438-11.554688-2.871094-23.003906-10.730469-31.535156-7.855469-8.53125-18.949219-13.351563-30.546875-13.277344zm-43.257812 32h7.152344l6.382812 31.476562-9.875 8.4375-9.214844-8.433593zm6.8125-12h-6.554688l-2.015625-8h10.585938zm65.648437 23.914062c-.019531.199219.074219.402344.074219.605469v44.480469h-138v-44.480469c0-.199219.09375-.402343.074219-.605469-.796875-8.210937 1.925781-16.375 7.5-22.460937 5.570312-6.085937 13.460937-9.523437 21.710937-9.453125h22.101563l3.148437 13.464844c0 .015625-.007812-.039063-.011718-.023438l-6.988282 39.339844c-.4375 2.089844.273438 4.253906 1.867188 5.675781l15.585937 13.992188c2.234375 2 5.59375 2.046875 7.882813.113281l16.585937-14c1.675781-1.414062 2.445313-3.632812 2.007813-5.785156l-8.027344-39.214844 3.171875-13.5625h22.113281c8.25-.070312 16.140625 3.367188 21.707032 9.453125 5.570312 6.085937 8.292968 14.25 7.492187 22.460937zm0 0"/><path d="m322.78125 0h-290.921875c-17.824219 0-31.859375 14.613281-31.859375 32.4375v375.765625c0 17.824219 14.035156 32.796875 31.859375 32.796875h16.140625v16.5625c0 17.824219 14.90625 32.4375 32.730469 32.4375h291.410156c17.824219 0 31.859375-14.613281 31.859375-32.4375v-376.253906c.09375-8.519532-3.21875-16.726563-9.199219-22.792969-5.984375-6.066406-14.140625-9.492187-22.660156-9.515625h-17.140625v-16.5625c.039062-17.847656-14.375-32.3554688-32.21875-32.4375zm21.21875 407.679688c0 11.222656-9.097656 20.320312-20.320312 20.320312h-291.359376c-11.222656 0-20.320312-9.097656-20.320312-20.320312v-375.359376c0-11.222656 9.097656-20.320312 20.320312-20.320312h291.359376c11.222656 0 20.320312 9.097656 20.320312 20.320312zm28.140625-346.679688c11.207031 0 19.859375 9.101562 19.859375 20.308594v376.253906c0 11.207031-8.652344 20.4375-19.859375 20.4375h-291.410156c-11.199219 0-20.730469-9.230469-20.730469-20.4375v-16.5625h262.78125c17.820312 0 32.21875-14.972656 32.21875-32.796875v-347.203125zm0 0"/></svg>