<svg height="493pt" viewBox="0 -37 493.90552 493" width="493pt" xmlns="http://www.w3.org/2000/svg"><path d="m460.304688 152.421875c3.796874 2.257813 8.707031 1.011719 10.96875-2.785156 2.257812-3.796875 1.011718-8.707031-2.785157-10.964844l-230.402343-137.09375c-2.527344-1.5039062-5.675782-1.5-8.199219.007813l-225.988281 135.066406c-3.796876 2.269531-5.03125 7.179687-2.765626 10.972656 2.265626 3.792969 7.179688 5.03125 10.972657 2.765625l221.898437-132.621094zm0 0"/><path d="m344.90625 206.054688c0-4.417969-3.582031-8-8-8h-74c-4.417969 0-8 3.582031-8 8v68c0 4.417968 3.582031 8 8 8h74c4.417969 0 8-3.582032 8-8zm-74 8h58v52h-58zm0 0"/><path d="m485.804688 374.054688h-10.898438v-99.480469c.011719-3.023438-1.6875-5.792969-4.386719-7.152344l-90.613281-45.417969v-54.160156l49.613281.210938h.042969c3.59375.007812 6.753906-2.386719 7.710938-5.855469.957031-3.464844-.519532-7.144531-3.613282-8.980469l-195.53125-116.632812c-2.515625-1.5-5.652344-1.503907-8.175781-.007813l-193.542969 114.648437c-3.09375 1.832032-4.585937 5.507813-3.644531 8.976563 1.023437 3.492187 4.222656 5.898437 7.863281 5.90625l44.277344.226563v207.71875h-45.609375c-4.417969 0-8.390625 3.179687-8.390625 7.597656v30c.148438 4.574218 3.816406 8.246094 8.390625 8.402344h446.507813c4.515624-.179688 8.085937-3.882813 8.101562-8.402344v-30c0-4.417969-3.679688-7.597656-8.101562-7.597656zm-26.898438-94.542969v94.542969h-79v-134.152344zm-224.890625-226.742188 166.269531 99.183594-330.84375-1.6875zm-133.109375 113.648438 263 1.34375v206.292969h-140v-168.414063c0-4.417969-3.570312-7.585937-7.988281-7.585937h-82.335938c-2.042969-.082032-4.03125.6875-5.484375 2.128906-1.457031 1.4375-2.25 3.414062-2.191406 5.457031v168.414063h-25zm107 121.601562c-1.222656-.699219-2.617188-1.035156-4.023438-.96875h-17.742187c-4.417969 0-8 3.582031-8 8s3.582031 8 8 8h17.742187c1.429688-.015625 2.828126-.445312 4.023438-1.230469v72.234376h-66v-160h66zm270 116.035157h-431v-14h431zm0 0"/></svg>