<?xml version="1.0" encoding="iso-8859-1"?>
<!-- Generator: Adobe Illustrator 19.0.0, SVG Export Plug-In . SVG Version: 6.00 Build 0)  -->
<svg version="1.1" id="Capa_1" xmlns="http://www.w3.org/2000/svg" xmlns:xlink="http://www.w3.org/1999/xlink" x="0px" y="0px"
	 viewBox="0 0 512 512" style="enable-background:new 0 0 512 512;" xml:space="preserve">
<g>
	<g>
		<path d="M388.66,175.223v299.495H123.961V175.223H86.68v318.136c0,10.296,8.345,18.641,18.641,18.641h301.981
			c10.302,0,18.641-8.339,18.641-18.641V175.223H388.66z"/>
	</g>
</g>
<g>
	<g>
		<path d="M307.883,0H204.738c-17.131,0-31.068,13.937-31.068,31.068v44.738h37.282V37.282h90.718v38.524h37.282V31.068
			C338.951,13.937,325.014,0,307.883,0z"/>
	</g>
</g>
<g>
	<g>
		<path d="M200.388,249.786c-10.296,0-18.641,8.345-18.641,18.641v132.349c0,10.296,8.345,18.641,18.641,18.641
			c10.296,0,18.641-8.345,18.641-18.641V268.427C219.029,258.131,210.684,249.786,200.388,249.786z"/>
	</g>
</g>
<g>
	<g>
		<path d="M312.233,249.786c-10.296,0-18.641,8.345-18.641,18.641v132.349c0,10.296,8.345,18.641,18.641,18.641
			c10.302,0,18.641-8.345,18.641-18.641V268.427C330.874,258.131,322.529,249.786,312.233,249.786z"/>
	</g>
</g>
<g>
	<g>
		<path d="M458.874,57.165H53.126c-10.296,0-18.641,8.345-18.641,18.641v99.417c0,10.296,8.345,18.641,18.641,18.641h405.748
			c10.296,0,18.641-8.345,18.641-18.641V75.806C477.515,65.51,469.17,57.165,458.874,57.165z M440.233,156.583H71.767V94.447
			h368.466V156.583z"/>
	</g>
</g>
<g>
</g>
<g>
</g>
<g>
</g>
<g>
</g>
<g>
</g>
<g>
</g>
<g>
</g>
<g>
</g>
<g>
</g>
<g>
</g>
<g>
</g>
<g>
</g>
<g>
</g>
<g>
</g>
<g>
</g>
</svg>
