<?xml version="1.0"?>
<svg xmlns="http://www.w3.org/2000/svg" id="Layer_1" data-name="Layer 1" viewBox="0 0 512 512" width="512" height="512"><title>Lighthouse</title><path d="M473.457,131H423.11a8,8,0,0,0,0,16h50.347a8,8,0,0,0,0-16Z"/><path d="M454.178,43.251,403.831,69.263a8,8,0,1,0,7.344,14.215l50.347-26.012a8,8,0,1,0-7.344-14.215Z"/><path d="M461.522,220.129l-50.347-26.01a8,8,0,0,0-7.344,14.214l50.347,26.011a8,8,0,1,0,7.344-14.215Z"/><path d="M96.89,139a8,8,0,0,0-8-8H38.543a8,8,0,0,0,0,16H88.89A8,8,0,0,0,96.89,139Z"/><path d="M108.169,69.263,57.822,43.251a8,8,0,1,0-7.344,14.215l50.347,26.012a8,8,0,0,0,7.344-14.215Z"/><path d="M100.825,194.119l-50.347,26.01a8,8,0,1,0,7.344,14.215l50.347-26.011a8,8,0,0,0-7.344-14.214Z"/><path d="M374.392,434h-29.5L328.054,192.413A22.406,22.406,0,0,0,347,170.459V89.386A22.694,22.694,0,0,0,324.61,67H317.9c-3.877-30-30.291-54.886-62.171-54.995C223.9,12.116,197.491,37,193.614,67H186.9C174.769,67,165,77.255,165,89.386v81.073a22.192,22.192,0,0,0,18.7,21.954L166.615,434H137.608A7.348,7.348,0,0,0,130,441.609v50c0,4.418,3.19,8.391,7.608,8.391H374.392c4.418,0,7.608-3.973,7.608-8.391v-50A7.348,7.348,0,0,0,374.392,434ZM263,146V113h30v33Zm-46,0V113h30v33Zm-36,0V113h20v33Zm128-33h22v33H309ZM255.727,28.005a47,47,0,0,1,46,39H209.782A46.981,46.981,0,0,1,255.727,28.005ZM186.9,83H324.61A6.692,6.692,0,0,1,331,89.386V97H181V89.386C181,86.078,183.592,83,186.9,83ZM181,170.459V162h25.125c.894,1,1.86.541,2.875.541s1.981.459,2.875-.541h40.25c.894,1,1.86.541,2.875.541s1.981.459,2.875-.541h40.25c.894,1,1.86.541,2.875.541s1.981.459,2.875-.541H331v8.459c0,3.309-3.082,5.541-6.39,5.541H186.9C183.592,176,181,173.768,181,170.459ZM199.672,192H311.836l17.016,242h-146.2ZM366,484H146V450H366Z"/></svg>
