<svg height="480pt" viewBox="-31 0 480 480.59242" width="480pt" xmlns="http://www.w3.org/2000/svg"><path d="m209.8125 442.007812c45.367188.082032 88.894531-17.921874 120.953125-50.019531 66.691406-66.691406 66.691406-175.210937 0-241.898437-66.691406-66.691406-175.210937-66.695313-241.90625 0-66.695313 66.691406-66.691406 175.210937 0 241.898437 32.058594 32.097657 75.585937 50.101563 120.953125 50.019531zm-128.46875-176.695312h-30.386719c1.332031-38.058594 16.324219-74.363281 42.234375-102.273438l21.539063 21.46875c2.363281 2.316407 6.152343 2.292969 8.484375-.050781 2.34375-2.347656 2.34375-6.148437 0-8.496093l-21.539063-21.546876c27.875-25.878906 64.125-40.871093 102.136719-42.234374v30.386718c0 3.316406 2.6875 6 6 6s6-2.683594 6-6v-30.386718c38.011719 1.363281 74.261719 16.355468 102.136719 42.234374l-21.535157 21.539063c-2.3125 2.347656-2.296874 6.121094.03125 8.449219 2.332032 2.332031 6.105469 2.347656 8.453126.035156l21.539062-21.398438c25.90625 27.910157 40.898438 64.214844 42.230469 102.273438h-30.386719c-3.3125 0-6 2.6875-6 6 0 3.316406 2.6875 6 6 6h30.386719c-1.335938 37.980469-16.332031 74.199219-42.234375 102l-21.539063-21.605469c-2.328125-2.34375-6.113281-2.355469-8.457031-.027343-2.34375 2.328124-2.355469 6.117187-.027344 8.460937l21.539063 21.527344c-27.875 25.878906-64.128907 40.863281-102.136719 42.222656v-30.386719c0-3.3125-2.6875-6-6-6s-6 2.6875-6 6v30.386719c-38.011719-1.363281-74.261719-16.351563-102.136719-42.230469l21.535157-21.539062c2.34375-2.34375 2.34375-6.144532.003906-8.488282-2.34375-2.34375-6.144532-2.34375-8.488282 0l-21.535156 21.679688c-25.902344-27.800781-40.898437-64.019531-42.234375-102h30.386719c3.316406 0 6-2.683594 6-6 0-3.3125-2.683594-6-6-6zm0 0"/><path d="m155.898438 333.214844c.824218 0 1.640624-.171875 2.398437-.5l76.585937-33.507813c1.382813-.605469 2.484376-1.710937 3.089844-3.09375l33.507813-76.582031c.988281-2.261719.492187-4.898438-1.253907-6.644531-1.746093-1.746094-4.382812-2.246094-6.644531-1.257813l-76.585937 33.507813c-1.382813.605469-2.484375 1.710937-3.089844 3.09375l-33.507812 76.582031c-.8125 1.859375-.632813 3.996094.476562 5.691406 1.109375 1.695313 2.996094 2.714844 5.023438 2.714844zm74.609374-49.964844-30.644531-30.648438 54.480469-23.839843zm-39.128906-22.160156 30.644532 30.644531-54.484376 23.835937zm0 0"/><path d="m209.8125 480.59375c110.835938.101562 202.574219-86.144531 209.308594-196.777344 6.730468-110.632812-73.875-207.367187-183.910156-220.703125 10.796874-10.363281 14.207031-26.25 8.621093-40.132812-5.585937-13.886719-19.050781-22.980469-34.015625-22.980469s-28.429687 9.09375-34.015625 22.980469c-5.589843 13.882812-2.175781 29.769531 8.617188 40.132812-109.953125 13.425781-190.460938 110.121094-183.734375 220.6875 6.726562 110.570313 98.355468 196.792969 209.128906 196.792969zm0-468.558594c13.625 0 24.667969 11.046875 24.667969 24.667969 0 13.625-11.046875 24.667969-24.667969 24.667969-13.625 0-24.667969-11.046875-24.667969-24.667969.015625-13.617187 11.050781-24.652344 24.667969-24.667969zm-139.695312 119.308594c66.644531-66.648438 171.085937-76.933594 249.453124-24.574219 78.367188 52.363281 108.832032 152.792969 72.765626 239.867188-36.066407 87.078125-128.621094 136.550781-221.0625 118.164062-92.4375-18.386719-159.015626-99.515625-159.015626-193.765625-.070312-52.40625 20.753907-102.683594 57.859376-139.691406zm0 0"/></svg>