<svg height="468pt" viewBox="0 -35 468 468" width="468pt" xmlns="http://www.w3.org/2000/svg"><path d="m441.136719 0h-414.273438c-14.664062 0-26.863281 11.765625-26.863281 26.429688v277.925781c.140625 14.742187 12.121094 26.625 26.863281 26.644531h135.257813l-14.171875 51h-28.796875c-4.417969 0-8 3.582031-8 8s3.582031 8 8 8h228.6875c4.417968 0 8-3.582031 8-8s-3.582032-8-8-8h-28.800782l-14.167968-51h136.265625c14.742187-.019531 26.722656-11.902344 26.863281-26.644531v-277.925781c0-14.664063-12.199219-26.429688-26.863281-26.429688zm-414.273438 16h414.273438c5.871093-.089844 10.714843 4.5625 10.863281 10.429688v226.570312h-436v-226.570312c.148438-5.867188 4.992188-10.519532 10.863281-10.429688zm275.582031 366h-137.890624l14.167968-51h109.554688zm138.691407-67h-414.273438c-5.910156-.007812-10.734375-4.734375-10.863281-10.644531v-35.355469h436v35.355469c-.128906 5.910156-4.953125 10.636719-10.863281 10.644531zm0 0"/><path d="m190.476562 223h87.046876c8.632812.023438 16.867187-3.636719 22.636718-10.058594 5.324219-5.941406 7.867188-13.875 6.984375-21.804687l-10.691406-93c-.460937-4.050781-3.878906-7.113281-7.953125-7.136719h-13.5v-7.398438c0-21.234374-17.820312-38.5-40-38.5s-40 17.269532-40 38.5v7.398438h-15.5c-4.070312.019531-7.488281 3.078125-7.949219 7.125l-10.691406 92.96875c-.878906 7.941406 1.660156 15.882812 6.984375 21.839844 5.769531 6.421875 14 10.082031 22.632812 10.066406zm20.523438-139.398438c0-12.410156 10.644531-22.5 24-22.5s24 10.09375 24 22.5v7.398438h-48zm-34.25 109.296876 9.878906-85.898438h8.371094v20.152344c0 4.417968 3.582031 8 8 8s8-3.582032 8-8v-20.152344h48v20.152344c0 4.417968 3.582031 8 8 8s8-3.582032 8-8v-20.152344h6.371094l9.878906 85.898438c.382812 3.417968-.722656 6.828124-3.03125 9.375-2.730469 3.023437-6.621094 4.742187-10.695312 4.726562h-87.046876c-4.074218.015625-7.960937-1.699219-10.695312-4.722656-2.308594-2.542969-3.414062-5.960938-3.03125-9.378906zm0 0"/><path d="m383.125 185.875c28.648438 0 51.875-23.222656 51.875-51.875 0-28.648438-23.222656-51.875-51.875-51.875-28.648438 0-51.875 23.226562-51.875 51.875.035156 28.636719 23.238281 51.84375 51.875 51.875zm0-87.75c19.8125 0 35.875 16.0625 35.875 35.875s-16.058594 35.875-35.875 35.875c-19.8125 0-35.875-16.0625-35.875-35.875.023438-19.804688 16.070312-35.851562 35.875-35.875zm0 0"/><path d="m369.441406 159.933594c3.121094 3.121094 8.1875 3.121094 11.3125 0l20.273438-20.277344c3.125-3.125 3.125-8.1875 0-11.3125l-20.273438-20.277344c-3.125-3.121094-8.191406-3.121094-11.3125 0-3.125 3.125-3.125 8.191406 0 11.316406l14.617188 14.617188-14.617188 14.617188c-3.125 3.125-3.125 8.191406 0 11.316406zm0 0"/><path d="m84.875 185.875c28.648438 0 51.875-23.226562 51.875-51.875s-23.226562-51.875-51.875-51.875-51.875 23.226562-51.875 51.875c.03125 28.636719 23.238281 51.84375 51.875 51.875zm0-87.75c19.8125 0 35.875 16.0625 35.875 35.875s-16.0625 35.875-35.875 35.875-35.875-16.0625-35.875-35.875c.023438-19.804688 16.070312-35.851562 35.875-35.875zm0 0"/><path d="m87.246094 159.933594c3.125 3.121094 8.191406 3.121094 11.3125 0 3.125-3.125 3.125-8.191406 0-11.316406l-14.617188-14.617188 14.617188-14.617188c3.125-3.125 3.125-8.191406 0-11.316406-3.121094-3.121094-8.1875-3.121094-11.3125 0l-20.273438 20.277344c-3.125 3.125-3.125 8.1875 0 11.3125zm0 0"/></svg>