<svg height="476pt" viewBox="0 -30 476.44402 476" width="476pt" xmlns="http://www.w3.org/2000/svg"><path d="m208.195312 228.28125c3.503907 1.097656 7.304688-.332031 9.21875-3.464844l91.445313-149.671875c1.507813-2.421875 1.566406-5.480469.152344-7.960937-1.429688-2.492188-4.105469-4.011719-6.976563-3.960938h-38.730468l21.324218-51.78125c1.019532-2.496094.742188-5.332031-.746094-7.585937-1.472656-2.238281-3.964843-3.601563-6.648437-3.632813h-91.65625c-4.132813.007813-7.582031 3.160156-7.964844 7.277344l-11.167969 119.726562c-.207031 2.28125.535157 4.546876 2.050782 6.257813 1.503906 1.699219 3.648437 2.691406 5.914062 2.738281h33.113282l-4.921876 84.078125c-.207031 3.632813 2.105469 6.9375 5.59375 7.980469zm-25.003906-108.058594 9.675782-104h72.410156l-21.324219 51.675782c-1.019531 2.515624-.738281 5.367187.746094 7.636718 1.46875 2.253906 3.960937 3.632813 6.648437 3.6875h36.421875l-67.328125 110.078125 3.546875-60.789062c.128907-2.171875-.65625-4.300781-2.167969-5.867188-1.519531-1.578125-3.625-2.457031-5.816406-2.421875zm0 0"/><path d="m453.3125 46.222656c-.664062-4.179687-4.46875-7.121094-8.679688-6.710937-19.15625 1.847656-33.480468 18.417969-32.542968 37.636719l1.4375 58.9375c-15.757813 1.566406-29.550782 11.257812-36.367188 25.554687l-21.539062 45.21875c-3.347656 7.011719-8.234375 13.179687-14.289063 18.050781l-4.476562 3.585938c-22.765625 18.167968-35.453125 46.140625-34.117188 75.234375l-8.800781-4.1875c-3.988281-1.902344-8.765625-.207031-10.664062 3.78125l-23.617188 49.589843c-1.898438 3.988282-.207031 8.761719 3.785156 10.660157l108.816406 51.824219c1.914063.917968 4.113282 1.035156 6.117188.324218 2-.707031 3.636719-2.183594 4.546875-4.101562l23.617187-49.585938c1.898438-3.988281.207032-8.761718-3.78125-10.664062l-4.644531-2.210938-1.160156-15.511718c-.464844-6.058594 1.445313-12.0625 5.324219-16.738282l56.351562-68.191406c.113282-.140625.222656-.28125.328125-.425781 11.617188-16.21875 17.738281-35.722657 17.480469-55.671875-.007812-.378906-.042969-.757813-.101562-1.128906zm-81.394531 351.292969-94.371094-44.945313 16.734375-35.140624 94.371094 44.941406zm74.199219-158.78125-56.175782 67.980469c-6.519531 7.855468-9.726562 17.941406-8.949218 28.125l.480468 6.390625-61.851562-29.457031c-4.394532-26.789063 6.023437-53.859376 27.242187-70.792969l4.476563-3.589844c7.9375-6.378906 14.339844-14.464844 18.730468-23.652344l21.535157-45.214843c5.632812-11.785157 18.386719-18.417969 31.269531-16.261719l-31.484375 66.105469c-1.851563 3.980468-.148437 8.710937 3.816406 10.597656 3.960938 1.886718 8.707031.226562 10.628907-3.71875l35.402343-74.332032c1.898438-3.988281.203125-8.761718-3.785156-10.664062-2.535156-1.203125-5.175781-2.167969-7.890625-2.882812l-1.484375-60.703126c0-.066406 0-.136718-.007813-.207031-.40625-7.875 3.832032-15.257812 10.839844-18.875l21.53125 135.839844c.09375 16.230469-4.914062 32.082031-14.320312 45.3125zm0 0"/><path d="m193.167969 303.320312c-1.898438-3.988281-6.671875-5.679687-10.660157-3.78125l-8.800781 4.191407c1.332031-29.097657-11.351562-57.070313-34.121093-75.238281l-4.476563-3.585938c-6.054687-4.871094-10.9375-11.039062-14.289063-18.050781l-21.539062-45.21875c-6.816406-14.296875-20.609375-23.988281-36.367188-25.554688l1.441407-58.9375c.933593-19.21875-13.390625-35.78125-32.542969-37.632812-4.210938-.410157-8.015625 2.53125-8.679688 6.710937l-23.023437 145.261719c-.0625.375-.09375.753906-.1015625 1.132813-.2617185 19.945312 5.8632815 39.453124 17.4804685 55.671874.105469.144532.210938.285157.324219.425782l56.351562 68.1875c3.882813 4.679687 5.792969 10.683594 5.328126 16.742187l-1.164063 15.511719-4.640625 2.210938c-3.988281 1.902343-5.683594 6.675781-3.78125 10.664062l23.617188 49.589844c.910156 1.917968 2.546874 3.394531 4.546874 4.101562 2 .710938 4.199219.597656 6.117188-.320312l108.816406-51.828125c3.988282-1.898438 5.679688-6.671875 3.78125-10.660157zm-106.667969 3.390626-56.175781-67.976563c-9.410157-13.230469-14.417969-29.085937-14.324219-45.320313l21.535156-135.835937c7.003906 3.617187 11.246094 11 10.835938 18.875 0 .066406-.003906.136719-.007813.207031l-1.480469 60.699219c-2.714843.714844-5.359374 1.679687-7.894531 2.886719-3.988281 1.898437-5.679687 6.671875-3.78125 10.660156l35.398438 74.335938c1.925781 3.945312 6.667969 5.605468 10.632812 3.714843 3.960938-1.886719 5.664063-6.613281 3.8125-10.59375l-31.480469-66.105469c12.882813-2.160156 25.640626 4.476563 31.269532 16.265626l21.539062 45.21875c4.390625 9.1875 10.789063 17.273437 18.726563 23.652343l4.476562 3.589844c21.21875 16.929687 31.636719 44.003906 27.242188 70.789063l-61.855469 29.457031.480469-6.390625c.777343-10.183594-2.429688-20.269532-8.949219-28.128906zm18.027344 90.800781-16.734375-35.140625 94.371093-44.945313 16.734376 35.140625zm0 0"/></svg>