<svg height="471pt" viewBox="0 -35 471.43879 471" width="471pt" xmlns="http://www.w3.org/2000/svg"><path d="m388.367188.21875c-45.609376 0-82.746094 36.675781-83.3125 82.285156-.226563 15.695313 4.082031 31.121094 12.410156 44.429688h-147.363282c-16.1875.078125-32.117187 4.027344-46.464843 11.519531l-21.636719 11.371094v-22.828125c.070312-2.097656-.707031-4.132813-2.15625-5.652344-1.445312-1.515625-3.445312-2.386719-5.542969-2.410156h-85.984375c-4.492187.003906-8.171875 3.570312-8.316406 8.0625v266.648437c.125 4.535157 3.78125 8.179688 8.316406 8.289063h85.984375c4.417969 0 7.699219-3.871094 7.699219-8.289063v-14.523437l21.628906 11.328125c14.351563 7.480469 30.285156 11.417969 46.472656 11.484375h151.234376c14.699218-.136719 26.570312-12.042969 26.664062-26.742188v-27.679687c.003906-4.515625-1.15625-8.960938-3.367188-12.898438 9.359376-4.328125 15.355469-13.695312 15.367188-24.007812v-27.679688c-.046875-5.125-1.585938-10.128906-4.429688-14.394531 7.777344-4.832031 12.484376-13.359375 12.429688-22.511719v-27.679687c.019531-4.386719-1.058594-8.707032-3.140625-12.566406 9.765625-4.15625 16.113281-13.730469 16.140625-24.339844v-14.917969c2 .21875 4.964844.351563 7.433594.351563 45.90625-.175782 83.023437-37.449219 83.003906-83.359376-.015625-45.90625-37.164062-83.148437-83.070312-83.289062zm-302.367188 385.714844h-70v-251h70zm279-204.5c0 5.777344-4.667969 10.46875-10.449219 10.5h-58.125c-4.421875 0-8 3.582031-8 8 0 4.417968 3.578125 8 8 8h45.207031c2.757813-.003906 5.402344 1.089844 7.351563 3.046875 1.945313 1.953125 3.03125 4.601562 3.015625 7.359375v27.679687c0 5.765625-4.601562 10.914063-10.367188 10.914063h-54.433593c-4.417969 0-8 3.582031-8 8 0 4.417968 3.582031 8 8 8h46.136719c5.761718 0 10.667968 4.226562 10.667968 9.992187v27.679688c-.121094 5.789062-4.882812 10.398437-10.671875 10.328125h-55.359375c-4.421875 0-8 3.582031-8 8 0 4.417968 3.578125 8 8 8h43.363282c5.835937.046875 10.570312 4.742187 10.664062 10.578125v27.679687c-.085938 5.867188-4.796875 10.613282-10.664062 10.742188h-151.234376c-13.609374-.0625-27.007812-3.378906-39.074218-9.671875l-29.027344-15.179688v-193.21875l29.019531-15.21875c12.066407-6.304687 25.464844-9.636719 39.082031-9.710937h184.449219c5.765625 0 10.449219 5.054687 10.449219 10.820312zm70.96875-50.300782c-14.507812 14.46875-34.832031 21.507813-55.179688 19.109376-1.671874-13.246094-12.886718-23.210938-26.238281-23.308594h-17.324219c-10.679687-12.25-16.4375-28.019532-16.171874-44.269532.390624-30.355468 21.054687-56.695312 50.449218-64.300781 29.390625-7.605469 60.238282 5.402344 75.304688 31.761719 15.066406 26.355469 10.625 59.539062-10.839844 81.007812zm0 0"/></svg>