<?xml version="1.0"?>
<svg xmlns="http://www.w3.org/2000/svg" id="Layer_1" data-name="Layer 1" viewBox="0 0 512 512" width="512" height="512"><title>Bill</title><path d="M363.966,361H148.034a6,6,0,0,0,0,12H363.966a6,6,0,0,0,0-12Z"/><path d="M363.966,401H148.034a6,6,0,0,0,0,12H363.966a6,6,0,0,0,0-12Z"/><path d="M439.578,11.206a5.984,5.984,0,0,0-6.367.8L400.787,38.768,368.361,12.006a6,6,0,0,0-7.639,0l-32.4,26.756L295.951,12.009a6,6,0,0,0-7.644,0L255.918,38.764l-32.38-26.755a6,6,0,0,0-7.644,0L183.515,38.764,151.136,12.009a6,6,0,0,0-7.646,0L111.129,38.762,78.784,12.01A5.972,5.972,0,0,0,69,16.634V495.366a5.977,5.977,0,0,0,9.789,4.628l32.424-26.762,32.426,26.762a6,6,0,0,0,7.639,0l32.4-26.756,32.372,26.755a6,6,0,0,0,7.644,0l32.389-26.756,32.38,26.755a6,6,0,0,0,7.644,0l32.379-26.755,32.379,26.755a6,6,0,0,0,7.646,0l32.361-26.752,32.345,26.752a6,6,0,0,0,3.825,1.376,5.9,5.9,0,0,0,2.534-.571A5.981,5.981,0,0,0,443,495.366V16.634A5.982,5.982,0,0,0,439.578,11.206ZM431,482.617l-26.324-21.788a5.985,5.985,0,0,0-7.637,0l-32.358,26.753-32.376-26.754a6,6,0,0,0-7.643,0l-32.378,26.755L259.9,460.828a6,6,0,0,0-7.643,0l-32.389,26.756L187.5,460.828a6,6,0,0,0-7.643,0l-32.4,26.759-32.428-26.761a5.973,5.973,0,0,0-7.618,0L81,482.636V29.383l26.324,21.788a5.989,5.989,0,0,0,7.637,0l32.358-26.753L179.7,51.172a6,6,0,0,0,7.643,0l32.378-26.755L252.1,51.172a6,6,0,0,0,7.643,0l32.389-26.756L324.5,51.172a6,6,0,0,0,7.643,0l32.4-26.759,32.428,26.761a5.972,5.972,0,0,0,7.618,0L431,29.364Z"/><path d="M411.208,202.462A23.042,23.042,0,0,0,394,180.046V157.9a6.009,6.009,0,0,0-.166-.65c.016-.182-.025-.361-.027-.545a6.03,6.03,0,0,0-3.961-5.575L249.417,99.516a6.025,6.025,0,0,0-4.148,0l-140.415,51.61a6,6,0,0,0-3.932,5.575,5.8,5.8,0,0,0,3.594,5.649L146,178.585v103.16a6.215,6.215,0,0,0,4.134,5.622,278.253,278.253,0,0,0,97.083,17.478,277.375,277.375,0,0,0,96.923-17.478,5.959,5.959,0,0,0,3.86-5.622V178.584l34-13.053v14.616a23.142,23.142,0,0,0-.241,44.617l-9.41,21.385A50.714,50.714,0,0,0,368,266.1v80.755A6.536,6.536,0,0,0,374.459,353h25.948c3.314,0,5.593-2.834,5.593-6.147V265.7a50.311,50.311,0,0,0-3.551-19.151l-8.679-21.69A23.348,23.348,0,0,0,411.208,202.462ZM336,253.793c-57,20.4-120,20.4-178,0V241.645a279.254,279.254,0,0,0,89,14.62,279.254,279.254,0,0,0,89-14.62Zm-178,23.75V266.49a278.224,278.224,0,0,0,178,0v11.053C279,297.945,216,297.945,158,277.543Zm178-48.595c-57,20.406-120,20.406-178,0V183.255L244.926,217a6.6,6.6,0,0,0,2.29.408,5.744,5.744,0,0,0,2.131-.408L336,183.255Zm4.511-60.247a6.01,6.01,0,0,0-.909.354l-92.271,35.911-92.269-35.91a5.893,5.893,0,0,0-.911-.355l-30.276-11.783L247.331,111.54l123.457,45.378ZM394,341H380V266.1a38.732,38.732,0,0,1,3.35-15.229l4.146-9.425,3.784,9.637A38.435,38.435,0,0,1,394,265.7Zm-6.079-127.379a11.159,11.159,0,1,1,11.159-11.159A11.172,11.172,0,0,1,387.921,213.621Z"/></svg>
