<?xml version="1.0"?>
<svg xmlns="http://www.w3.org/2000/svg" id="Layer_1" data-name="Layer 1" viewBox="0 0 512 512" width="512" height="512"><title>Online</title><path d="M492,97.542C492,74.94,474.3,57,452.548,57H59.448C37.7,57,20,74.94,20,97.542V414.458C20,437.06,37.7,455,59.448,455h393.1C474.3,455,492,437.06,492,414.458V142.35c0-.026,0-.051,0-.077s0-.051,0-.077ZM476,414.458C476,428.238,465.477,439,452.548,439H59.448C46.519,439,36,428.238,36,414.458V150H476ZM476,134H36V97.542C36,83.762,46.519,73,59.448,73h393.1C465.477,73,476,83.762,476,97.542Z"/><path d="M164.276,96H122.344a8,8,0,0,0,0,16h41.932a8,8,0,0,0,0-16Z"/><path d="M96.138,96H54.206a8,8,0,0,0,0,16H96.138a8,8,0,0,0,0-16Z"/><path d="M256,392.159A97.159,97.159,0,1,0,158.841,295,97.27,97.27,0,0,0,256,392.159Zm0-178.318A81.159,81.159,0,1,1,174.841,295,81.251,81.251,0,0,1,256,213.841Z"/><path d="M257.057,336.078a7.2,7.2,0,0,0-2.114,0,15.1,15.1,0,0,1-14.033-15.036,8,8,0,0,0-16,0A31.143,31.143,0,0,0,248,351.083V358a8,8,0,0,0,16,0v-6.917a31.089,31.089,0,0,0-8-61.131,15.09,15.09,0,0,1-1.533-30.1,7.909,7.909,0,0,0,3.066,0,15.11,15.11,0,0,1,13.557,15.012,8,8,0,0,0,16,0A31.141,31.141,0,0,0,264,244.821V239a8,8,0,0,0-16,0v5.821a31.089,31.089,0,0,0,8,61.131,15.081,15.081,0,0,1,1.057,30.126Z"/><path d="M256,422.441A127.441,127.441,0,1,0,128.559,295,127.586,127.586,0,0,0,256,422.441Zm0-238.882A111.441,111.441,0,1,1,144.559,295,111.567,111.567,0,0,1,256,183.559Z"/></svg>
