<svg height="471pt" viewBox="0 -36 471.97456 471" width="471pt" xmlns="http://www.w3.org/2000/svg"><path d="m214.371094 281.191406c3.503906 1.097656 7.304687-.332031 9.21875-3.464844l63.617187-104.121093c1.507813-2.425781 1.566407-5.480469.148438-7.960938-1.429688-2.492187-4.101563-4.011719-6.976563-3.960937h-23.300781l13.445313-32.703125c1.019531-2.507813.742187-5.359375-.742188-7.625-1.472656-2.25-3.964844-3.625-6.652344-3.671875h-63.765625c-4.140625.027344-7.585937 3.195312-7.964843 7.320312l-7.769532 83.3125c-.207031 2.183594.542969 4.351563 2.054688 5.941406 1.535156 1.613282 3.6875 2.496094 5.910156 2.425782h20.453125l-3.273437 56.199218c-.21875 3.714844 2.070312 7.117188 5.597656 8.308594zm-13.996094-80.507812 6.277344-67h44.515625l-13.445313 32.632812c-1.019531 2.523438-.738281 5.382813.746094 7.660156 1.46875 2.257813 3.957031 3.644532 6.648438 3.707032h21l-39.5 64.527344 1.898437-32.589844c.132813-2.269532-.648437-4.5-2.164063-6.191406-1.488281-1.667969-3.589843-2.660157-5.824218-2.746094zm0 0"/><path d="m419.597656 142.914062c-1.480468-2.253906-3.996094-3.613281-6.691406-3.613281s-5.210938 1.359375-6.6875 3.613281l-51.082031 77.882813c-1.613281 2.550781-1.746094 5.765625-.347657 8.4375 1.367188 2.648437 4.058594 4.347656 7.039063 4.449219h40.902344c-6.648438 41.777344-27.878907 79.847656-59.925781 107.460937-31.113282 26.679688-70.167969 41.855469-107.148438 41.855469-24.101562 0-49.324219-6.570312-72.933594-18.878906-24.546875-12.828125-45.832031-31.097656-62.234375-53.414063-2.605469-3.5625-7.605469-4.34375-11.171875-1.738281-3.5625 2.605469-4.339844 7.605469-1.738281 11.167969 17.855469 24.285156 41.03125 44.160156 67.75 58.113281 25.882813 13.5 53.660156 20.628906 80.328125 20.628906 40.746094 0 83.59375-16.460937 117.5625-45.585937 35.648438-30.609375 58.988281-73.105469 65.691406-119.609375h45.078125c2.972657-.117188 5.65625-1.8125 7.035157-4.445313 1.382812-2.632812 1.25-5.804687-.347657-8.316406zm-42.957031 74.769532 36.265625-55.300782 36.265625 55.300782zm0 0"/><path d="m117.1875 170.128906c-1.371094-2.644531-4.0625-4.347656-7.039062-4.445312h-40.902344c6.652344-41.777344 27.882812-79.847656 59.929687-107.464844 31.113281-26.675781 70.160157-41.851562 107.144531-41.851562 24.097657 0 49.324219 6.566406 72.933594 18.875 24.542969 12.828124 45.832032 31.097656 62.234375 53.414062 2.601563 3.566406 7.605469 4.34375 11.167969 1.738281 3.566406-2.601562 4.34375-7.605469 1.738281-11.167969-17.855469-24.28125-41.027343-44.160156-67.746093-58.109374-25.882813-13.5-53.660157-20.628907-80.332032-20.628907-40.742187 0-83.59375 16.457031-117.5625 45.582031-35.644531 30.609376-58.984375 73.105469-65.6875 119.613282h-45.078125c-2.972656.113281-5.65625 1.808594-7.039062 4.441406-1.378907 2.636719-1.246094 5.808594.347656 8.316406l51.082031 77.945313c1.46875 2.265625 3.976563 3.636719 6.675782 3.644531 2.699218.011719 5.21875-1.34375 6.703124-3.597656l51.078126-78c1.613281-2.5 1.75-5.675782.351562-8.304688zm-58.121094 66.851563-36.265625-55.296875h72.53125zm0 0"/></svg>