<svg height="484pt" viewBox="-47 0 484 484" width="484pt" xmlns="http://www.w3.org/2000/svg"><path d="m109.644531 53h67.503907c4.417968 0 8-3.582031 8-8s-3.582032-8-8-8h-67.503907c-4.417969 0-8 3.582031-8 8s3.582031 8 8 8zm0 0"/><path d="m143.398438 400.167969c-15.886719 0-28.769532 12.882812-28.769532 28.773437s12.882813 28.769532 28.773438 28.769532c15.886718 0 28.769531-12.882813 28.769531-28.769532-.015625-15.886718-12.886719-28.757812-28.773437-28.773437zm0 41.542969c-7.050782 0-12.769532-5.71875-12.769532-12.773438 0-7.050781 5.71875-12.769531 12.773438-12.769531 7.050781 0 12.769531 5.71875 12.769531 12.773437-.007813 7.050782-5.722656 12.761719-12.773437 12.769532zm0 0"/><path d="m284.308594 26.632812c-5.371094-15.898437-20.273438-26.6093745-37.054688-26.632812h-207.714844c-21.75.144531-39.359374 17.726562-39.539062 39.480469v405.039062c.179688 21.753907 17.789062 39.335938 39.539062 39.480469h207.714844c21.589844 0 38.746094-17.890625 38.746094-39.480469v-174.871093c45.542969-7.378907 83.136719-39.609376 97.390625-83.492188 14.25-43.882812 2.769531-92.050781-29.746094-124.785156-18.695312-18.84375-43.050781-31.042969-69.335937-34.738282zm-244.769532-10.632812h207.714844c7.308594.003906 14.183594 3.464844 18.546875 9.328125-41.199219.378906-77.625 21.671875-99.675781 52.671875h-150.125v-38.519531c.167969-12.921875 10.621094-23.34375 23.539062-23.480469zm207.714844 452h-207.714844c-12.917968-.136719-23.371093-10.558594-23.539062-23.480469v-54.519531h254v54.519531c0 12.765625-9.980469 23.480469-22.746094 23.480469zm22.746094-94h-254v-280h140.640625c-8.300781 16.960938-12.640625 35.585938-12.6875 54.464844 0 27.445312 9.226563 54.089844 26.199219 75.65625l-17.339844 40.378906c-1.160156 2.699219-.746094 5.820312 1.078125 8.125 1.820313 2.304688 4.761719 3.429688 7.65625 2.925781l64.515625-11.316406c12.949219 4.648437 26.601562 7.019531 40.359375 7.011719 1.265625 0 2.578125-.023438 3.578125-.0625zm-3.375-118.75c-12.617188.015625-25.132812-2.265625-36.933594-6.734375-1.351562-.519531-2.824218-.664063-4.253906-.414063l-52.082031 9.132813 13.429687-31.265625c1.210938-2.816406.707032-6.082031-1.304687-8.398438-7.726563-8.964843-13.875-19.179687-18.179688-30.203124-12.882812-32.910157-8.65625-70.054688 11.285157-99.230469 19.9375-29.175781 53.015624-46.601563 88.355468-46.550781 3.007813 0 6 .128906 8.957032.371093.871093.238281 1.777343.324219 2.679687.253907 54.144531 5.835937 95.148437 51.59375 95.035156 106.046874-.0625 59.0625-47.925781 106.925782-106.988281 106.992188zm0 0"/><path d="m303.917969 95.964844c-3.585938-2.578125-8.585938-1.761719-11.164063 1.828125l-70.269531 97.757812c-2.582031 3.585938-1.761719 8.585938 1.824219 11.164063 3.589844 2.578125 8.589844 1.761718 11.167968-1.824219l70.269532-97.761719c2.578125-3.585937 1.757812-8.585937-1.828125-11.164062zm0 0"/><path d="m258.878906 113.375c0-21.90625-15.636718-39.730469-34.855468-39.730469-19.222657 0-34.859376 17.824219-34.859376 39.730469s15.636719 39.726562 34.859376 39.726562c19.21875 0 34.855468-17.820312 34.855468-39.726562zm-53.714844 0c0-13.085938 8.460938-23.730469 18.859376-23.730469 10.398437 0 18.855468 10.644531 18.855468 23.730469 0 13.082031-8.457031 23.726562-18.855468 23.726562-10.402344 0-18.859376-10.644531-18.859376-23.726562zm0 0"/><path d="m307.351562 145.957031c-19.222656 0-34.859374 17.824219-34.859374 39.730469s15.636718 39.726562 34.859374 39.726562c19.21875 0 34.855469-17.820312 34.855469-39.726562s-15.636719-39.730469-34.855469-39.730469zm0 63.457031c-10.402343 0-18.859374-10.644531-18.859374-23.726562 0-13.085938 8.457031-23.730469 18.859374-23.730469 10.398438 0 18.855469 10.644531 18.855469 23.730469 0 13.082031-8.460937 23.726562-18.855469 23.726562zm0 0"/></svg>