<?xml version="1.0"?>
<svg xmlns="http://www.w3.org/2000/svg" id="Layer_1" data-name="Layer 1" viewBox="0 0 512 512" width="512" height="512"><title>Leader</title><path d="M170.605,121.022A57.208,57.208,0,1,0,113.4,63.814,57.272,57.272,0,0,0,170.605,121.022Zm0-98.416A41.208,41.208,0,1,1,129.4,63.814,41.254,41.254,0,0,1,170.605,22.606Z"/><path d="M440.4,261.161l-21.327-3.42a109.927,109.927,0,0,0-11.559-26.9l12.275-16.508a8,8,0,0,0-.914-10.579l-25.544-24.19a8,8,0,0,0-10-.8l-17.942,12.219A119.533,119.533,0,0,0,336.43,179.71l-3.552-20.018A8.085,8.085,0,0,0,325,153H289.09a8.085,8.085,0,0,0-7.876,6.692l-3.557,19.993c-1.067.267-2.128.521-3.186.815a73.96,73.96,0,0,0-71.06-54.5H138.347C97.757,126,65,159.137,65,199.727V303.064A7.724,7.724,0,0,0,72.735,311h27.452l11.037,186.637A7.859,7.859,0,0,0,119.21,505H223.094a7.833,7.833,0,0,0,7.988-7.354l6.1-108.339,11.469-7.588a119.57,119.57,0,0,0,29,11.325l3.552,20.141A8.2,8.2,0,0,0,289.085,420h35.9a8.187,8.187,0,0,0,7.876-6.8l3.556-20.049a122.8,122.8,0,0,0,28.981-11.34l17.98,11.946a8,8,0,0,0,9.935-.862l25.548-24.2a8,8,0,0,0,.908-10.6l-12.557-16.814a107.144,107.144,0,0,0,11.595-26.9l21.568-3.424a7.886,7.886,0,0,0,6.621-7.9v-34A7.885,7.885,0,0,0,440.4,261.161ZM179,489V359.38a8,8,0,0,0-16,0V489H126.751L115.714,302.363A7.859,7.859,0,0,0,107.728,295H81V199.727C81,167.96,106.58,142,138.347,142h65.064a57.905,57.905,0,0,1,55.906,43.822c-3.618,1.539-7.166,3.28-10.633,5.167L230.7,179.03a8,8,0,0,0-9.934.856l-25.559,24.2a8,8,0,0,0-.923,10.581l12.237,16.48a107.181,107.181,0,0,0-11.606,26.925L173.644,261.5A7.922,7.922,0,0,0,167,269.4v33.99a7.922,7.922,0,0,0,6.646,7.9l21.348,3.42a109.9,109.9,0,0,0,11.569,26.9L194.3,358.112a8,8,0,0,0,.918,10.577l25.545,24.19c.062.059.132-.1.2-.04L215.532,489ZM431,296.221,410.957,299.4a7.923,7.923,0,0,0-6.5,6.158,91.375,91.375,0,0,1-13.621,31.573,8,8,0,0,0,.225,9.282l11.621,15.548-15.746,14.913L370.158,365.7a8,8,0,0,0-8.543-.2,106.884,106.884,0,0,1-33.729,13.078,8.246,8.246,0,0,0-6.285,6.643L318.289,404h-22.5l-3.312-18.782a8.121,8.121,0,0,0-6.322-6.547,103.82,103.82,0,0,1-33.66-13.1,8,8,0,0,0-8.577.159l-16.785,11.164-15.766-14.935,11.3-15.227a8,8,0,0,0,.218-9.229A94.256,94.256,0,0,1,209.2,305.852a7.893,7.893,0,0,0-6.445-6.117L183,296.562V276.216l19.752-3.178a7.947,7.947,0,0,0,6.5-6.156,91.419,91.419,0,0,1,13.632-31.574,8,8,0,0,0-.207-9.264l-11.3-15.214L227.142,195.9l16.785,11.177a8,8,0,0,0,8.542.2A106.9,106.9,0,0,1,286.193,194.2a8.111,8.111,0,0,0,6.284-6.532L295.79,169H318.3l3.312,18.671a8.055,8.055,0,0,0,6.322,6.492A103.766,103.766,0,0,1,361.6,207.24a8,8,0,0,0,8.646-.22l16.765-11.411,15.716,14.884-11.3,15.223a8,8,0,0,0-.219,9.23A94.276,94.276,0,0,1,404.882,266.6a7.845,7.845,0,0,0,6.4,6.116L431,275.883Z"/><path d="M334,260.464l-36.876,34.808-16.8-17.251a8,8,0,1,0-11.462,11.163l22.3,22.894a8,8,0,0,0,11.222.236l42.6-40.215A8,8,0,0,0,334,260.464Z"/><path d="M307.042,210.7a75.689,75.689,0,1,0,75.687,75.688A75.774,75.774,0,0,0,307.042,210.7Zm0,135.377a59.689,59.689,0,1,1,59.687-59.689A59.757,59.757,0,0,1,307.042,346.078Z"/></svg>
