<svg height="442pt" viewBox="-56 0 442 442.00021" width="442pt" xmlns="http://www.w3.org/2000/svg"><path d="m61.359375 280h145.539063c1.574218.066406 3.105468-.5 4.253906-1.574219 1.148437-1.078125 1.8125-2.570312 1.847656-4.144531v-13.28125c.019531-18.085938-7.175781-35.433594-19.992188-48.199219-12.8125-12.765625-30.191406-19.890625-48.277343-19.800781h-21.195313c-18.113281-.101562-35.523437 7.015625-48.382812 19.773438-12.859375 12.757812-20.109375 30.113281-20.152344 48.226562v13.28125c0 3.320312 3.046875 5.71875 6.359375 5.71875zm5.640625-19c.042969-14.933594 6.027344-29.234375 16.636719-39.742188 10.609375-10.507812 24.964843-16.359374 39.898437-16.257812h21.195313c14.902343-.089844 29.226562 5.773438 39.792969 16.285156 10.566406 10.515625 16.496093 24.808594 16.476562 39.714844v7h-134zm0 0"/><path d="m134.273438 179.394531c26.414062 0 47.828124-21.414062 47.828124-47.828125 0-26.414062-21.414062-47.824218-47.828124-47.824218-26.414063 0-47.824219 21.410156-47.824219 47.824218.027343 26.402344 21.425781 47.796875 47.824219 47.828125zm0-83.652343c19.785156 0 35.828124 16.039062 35.828124 35.824218s-16.042968 35.828125-35.828124 35.828125c-19.785157 0-35.824219-16.042969-35.824219-35.828125.019531-19.777344 16.046875-35.800781 35.824219-35.824218zm0 0"/><path d="m6.03125 442h317.9375c3.316406.019531 6.015625-2.65625 6.03125-5.972656v-351.910156c-.007812-.371094-.046875-.746094-.125-1.113282 0-.015625-.011719-.03125-.011719-.042968-.074219-.355469-.179687-.707032-.3125-1.042969l-.023437-.058594c-.136719-.328125-.300782-.644531-.492188-.941406l-.046875-.078125c-.191406-.292969-.410156-.570313-.648437-.824219-.019532-.015625-.027344-.039063-.046875-.054687l-75.097657-78.148438c-.015624-.011719-.03125-.023438-.046874-.039062-.078126-.082032-.160157-.15625-.242188-.226563-.0625-.058594-.125-.121094-.191406-.175781-.09375-.078125-.191406-.152344-.292969-.226563-.058594-.042969-.113281-.085937-.171875-.128906-.132812-.089844-.273438-.171875-.414062-.253906-.027344-.015625-.054688-.019531-.082032-.035157-.886718-.484374-1.882812-.7343745-2.890625-.726562h-242.832031c-3.3125-.0195312-6.015625 2.65625-6.03125 5.972656v430.054688c.015625 3.316406 2.71875 5.992187 6.03125 5.972656zm248.96875-421.125 54.878906 57.125h-54.878906zm-243-8.875h231v72.117188c-.027344 1.566406.582031 3.074218 1.6875 4.183593s2.613281 1.722657 4.175781 1.699219h69.136719v340h-306zm0 0"/><path d="m265.699219 360h-207.214844c-3.3125 0-6 2.6875-6 6s2.6875 6 6 6h207.214844c3.316406 0 6-2.6875 6-6s-2.683594-6-6-6zm0 0"/><path d="m58.484375 321h120.042969c3.316406 0 6-2.6875 6-6s-2.683594-6-6-6h-120.042969c-3.3125 0-6 2.6875-6 6s2.6875 6 6 6zm0 0"/></svg>