<svg height="505pt" viewBox="-23 0 505 505.42957" width="505pt" xmlns="http://www.w3.org/2000/svg"><path d="m232.214844 220.429688c0-4.417969-3.582032-8-8-8h-45c-4.417969 0-8 3.582031-8 8v44c0 4.417968 3.582031 8 8 8h45c4.417968 0 8-3.582032 8-8zm-45 8h29v27h-29zm0 0"/><path d="m307.214844 220.429688c0-4.417969-3.582032-8-8-8h-45c-4.417969 0-8 3.582031-8 8v44c0 4.417968 3.582031 8 8 8h45c4.417968 0 8-3.582032 8-8zm-45 8h29v27h-29zm0 0"/><path d="m383.214844 220.429688c0-4.417969-3.582032-8-8-8h-45c-4.417969 0-8 3.582031-8 8v44c0 4.417968 3.582031 8 8 8h45c4.417968 0 8-3.582032 8-8zm-45 8h29v27h-29zm0 0"/><path d="m232.214844 366.429688c0-4.417969-3.582032-8-8-8h-45c-4.417969 0-8 3.582031-8 8v44c0 4.417968 3.582031 8 8 8h45c4.417968 0 8-3.582032 8-8zm-16 36h-29v-28h29zm0 0"/><path d="m307.214844 366.429688c0-4.417969-3.582032-8-8-8h-45c-4.417969 0-8 3.582031-8 8v44c0 4.417968 3.582031 8 8 8h45c4.417968 0 8-3.582032 8-8zm-16 36h-29v-28h29zm0 0"/><path d="m383.214844 366.429688c0-4.417969-3.582032-8-8-8h-45c-4.417969 0-8 3.582031-8 8v44c0 4.417968 3.582031 8 8 8h45c4.417968 0 8-3.582032 8-8zm-16 36h-29v-28h29zm0 0"/><path d="m449.777344 459.429688h-27.5625v-282.832032c-.175782-4.53125-3.878906-8.125-8.410156-8.167968h-265.589844v-87h18.1875c2.113281-.035157 4.125-.910157 5.59375-2.433594 1.464844-1.523438 2.265625-3.566406 2.21875-5.679688v-30c.039062-2.09375-.769532-4.109375-2.242188-5.59375s-3.480468-2.3125-5.570312-2.292968h-23.625l-46.25-33.898438c-2.847656-2.070312-6.710938-2.039062-9.523438.082031l-45.046875 33.816407h-23.054687c-2.078125-.015626-4.074219.820312-5.523438 2.308593-1.449218 1.484375-2.230468 3.5-2.164062 5.578125v30c-.074219 2.097656.695312 4.140625 2.140625 5.667969 1.445312 1.523437 3.445312 2.40625 5.546875 2.445313h17.3125v378h-27.5625c-4.417969 0-8.4375 3.082031-8.4375 7.5v30c.164062 4.601562 3.835937 8.300781 8.4375 8.5h441.125c4.601562-.199219 8.273437-3.898438 8.4375-8.5v-30c0-4.417969-4.019532-7.5-8.4375-7.5zm-301.5625 0v-140h258v140zm-96-382.113282 39.46875-29.429687 40.53125 29.488281v50.054688h-80zm80 99.28125v73.832032h-80v-107h80zm-80 89.832032h80v103h-80zm354-82v119h-258v-119zm-379-133h17.410156c1.738281-.019532 3.421875-.601563 4.800781-1.65625l42.4375-31.859376 43.578125 31.929688c1.367188 1.015625 3.019532 1.570312 4.722656 1.585938h18.050782v14h-15.4375l-46.25-33.898438c-2.847656-2.070312-6.710938-2.039062-9.523438.082031l-45.046875 33.816407h-14.742187zm25 334h80v74h-80zm390 104h-426v-14h426zm0 0"/></svg>