<?xml version="1.0"?>
<svg xmlns="http://www.w3.org/2000/svg" id="Layer_1" data-name="Layer 1" viewBox="0 0 512 512" width="512" height="512"><title>Payment</title><path d="M305,206H164a8,8,0,0,0-8,8v48a8,8,0,0,0,8,8H305a8,8,0,0,0,8-8V214A8,8,0,0,0,305,206Zm-7,47H172V222H298Z"/><path d="M273.635,108h-77.27a8,8,0,0,0,0,16h77.27a8,8,0,0,0,0-16Z"/><path d="M273.635,71h-77.27a8,8,0,0,0,0,16h77.27a8,8,0,0,0,0-16Z"/><path d="M379.246,182H346v-1.568a27.973,27.973,0,0,0-17-25.974V19.549A10.858,10.858,0,0,0,322.555,9.8a11.514,11.514,0,0,0-12.146,1.531L292.6,26.158,270.8,8.575c-.031-.024-.071-.049-.1-.073a11.343,11.343,0,0,0-14.063.034c-.032.025-.067.05-.1.076L235,26.181,213.469,8.612c-.031-.026-.063-.051-.095-.076A11.334,11.334,0,0,0,199.315,8.5l-.092.073L177.441,26.158,159.67,11.334A11.648,11.648,0,0,0,147.445,9.8,10.858,10.858,0,0,0,141,19.549V154.884a28.832,28.832,0,0,0-16,25.548V435.917A27.893,27.893,0,0,0,152.754,464H154v33.915A8.227,8.227,0,0,0,162.178,506H305.747A8.293,8.293,0,0,0,314,497.915V464h4.246A27.893,27.893,0,0,0,346,435.917V434h33.246A7.865,7.865,0,0,0,387,425.917V190.432C387,186.014,383.664,182,379.246,182ZM157,30.208l13,10.708c.033.027.145.054.178.081a11.369,11.369,0,0,0,14.184.106c.032-.024.082-.049.113-.074L206.3,23.419,227.85,41l.1.077a11.327,11.327,0,0,0,14.1,0l.1-.077,21.547-17.582,21.817,17.61.093.074A11.312,11.312,0,0,0,299.746,41c.033-.027.224-.054.257-.08l13-10.709V152H157ZM298,490H170V464H298Zm32-54.083A11.878,11.878,0,0,1,318.246,448H152.754A11.878,11.878,0,0,1,141,435.917V180.432a11.9,11.9,0,0,1,7.567-11.186c.287.031.517-.167.812-.167A4.668,4.668,0,0,0,152.918,168H317.082a4.811,4.811,0,0,0,3.6,1.079,6.892,6.892,0,0,0,1.456-.049,12.043,12.043,0,0,1,7.861,11.4ZM351,418h-5V198h5Zm20,0h-4V198h4Z"/><path d="M243,291H226a8,8,0,0,0,0,16h17a8,8,0,0,0,0-16Z"/><path d="M187,291H170a8,8,0,0,0,0,16h17a8,8,0,0,0,0-16Z"/><path d="M299,291H282a8,8,0,0,0,0,16h17a8,8,0,0,0,0-16Z"/><path d="M243,321H226a8,8,0,0,0,0,16h17a8,8,0,0,0,0-16Z"/><path d="M187,321H170a8,8,0,0,0,0,16h17a8,8,0,0,0,0-16Z"/><path d="M299,321H282a8,8,0,0,0,0,16h17a8,8,0,0,0,0-16Z"/><path d="M243,351H226a8,8,0,0,0,0,16h17a8,8,0,0,0,0-16Z"/><path d="M187,351H170a8,8,0,0,0,0,16h17a8,8,0,0,0,0-16Z"/><path d="M299,351H282a8,8,0,0,0,0,16h17a8,8,0,0,0,0-16Z"/><path d="M243,381H226a8,8,0,0,0,0,16h17a8,8,0,0,0,0-16Z"/><path d="M187,381H170a8,8,0,0,0,0,16h17a8,8,0,0,0,0-16Z"/><path d="M299,381H282a8,8,0,0,0,0,16h17a8,8,0,0,0,0-16Z"/></svg>
