<?xml version="1.0"?>
<svg xmlns="http://www.w3.org/2000/svg" id="Layer_1" data-name="Layer 1" viewBox="0 0 512 512" width="512" height="512"><title>Gas</title><path d="M411.333,268.5A34.069,34.069,0,0,0,381,234.7V120.3A33.746,33.746,0,0,0,377,53H227V35.5c0-4.418-3.582-7.5-8-7.5H153c-4.418,0-8,3.082-8,7.5V53H135a33.746,33.746,0,0,0-4,67.3V234.7a34,34,0,0,0,0,67.6V416.7a34.273,34.273,0,0,0,4,68.3H377a34.273,34.273,0,0,0,4-68.3V302.3A34.069,34.069,0,0,0,411.333,268.5ZM161,44h50v9H161ZM117,87a18.021,18.021,0,0,1,18-18H377a18,18,0,0,1,0,36H135A18.021,18.021,0,0,1,117,87Zm248,34V235H147V121Zm30,330a18.021,18.021,0,0,1-18,18H135a18,18,0,0,1,0-36H377A18.021,18.021,0,0,1,395,451ZM147,417V303H365V417ZM377,287H135a18,18,0,0,1,0-36H377a18,18,0,0,1,0,36Z"/></svg>
