<svg id="Layer_1" height="512" viewBox="0 0 512 512" width="512" xmlns="http://www.w3.org/2000/svg" data-name="Layer 1"><path d="m332.67 459c49.66 0 90.06-37.982 90.06-84.866 0-32.243-19.038-61.346-48.956-75.7a101.056 101.056 0 0 0 -4.8-70.446 5.8 5.8 0 0 0 -.557-.954c-.13-.305-.24-.605-.384-.905l-62.133-129.693a22.889 22.889 0 0 0 -42.583 16.425c-5.306 10.161-27.737 50.117-59.6 65.379l-47.014 22.522a24.246 24.246 0 0 0 -12.088 12.93c-37.086 10.278-63.044 41.766-64.528 78.271a90.48 90.48 0 0 0 -46.169 28.129 82.443 82.443 0 0 0 -20.34 54.042c0 46.884 40.4 84.866 90.06 84.866zm-57.705-356.286a10.9 10.9 0 0 1 20.114-1.088l62.131 129.7a10.913 10.913 0 0 1 -5.122 14.541 10.915 10.915 0 0 1 -14.542-5.122l-62.131-129.7a10.831 10.831 0 0 1 -.45-8.331zm-17.43 42.192c5-6.926 9.019-13.361 11.969-18.426l52.19 108.949c-17.811-2.946-51.695-6.021-81.13 5.836l-26.338-54.982c15.095-8.546 29.639-22.436 43.309-41.377zm-54.041 46.749 26.164 54.619-30.426 14.575-26.164-54.619zm31.435 65.4a166.372 166.372 0 0 0 20.923 31.49 12.253 12.253 0 0 1 -.65 16.631 12.234 12.234 0 0 1 -17.631-.377l-31.327-34zm-73.039-45.471.356-.17 26.164 54.62-.356.17a12.437 12.437 0 0 1 -16.59-5.844l-15.418-32.185a12.438 12.438 0 0 1 5.844-16.591zm-136.309 162.55a69.705 69.705 0 0 1 17.41-46.265 78.636 78.636 0 0 1 44.182-25.247 5.945 5.945 0 0 0 4.827-5.846v-1.51c0-30.9 20.673-58.109 51.123-68.548a24.527 24.527 0 0 0 2.095 6.641l15.421 32.185a24.4 24.4 0 0 0 32.6 11.482l1.685-.807 33.823 36.711a24.028 24.028 0 0 0 17.3 7.807c.179 0 .358.006.536.006a24.016 24.016 0 0 0 17.086-7.066 24.3 24.3 0 0 0 1.262-32.975 152.389 152.389 0 0 1 -19.067-28.627c32.477-12.666 72.277-5.362 82.611-3.111a22.9 22.9 0 0 0 28.794 7.727 22.864 22.864 0 0 0 6.812-5 89.219 89.219 0 0 1 -3.343 48.107 6 6 0 0 0 3.392 7.569c28.306 11.514 46.6 37.623 46.6 66.766 0 40.267-35.017 72.867-78.06 72.867h-229.029c-43.041 0-78.06-32.6-78.06-72.866z"/><path d="m393.684 59.871a73.126 73.126 0 1 0 97.544 34.358 73.208 73.208 0 0 0 -97.544-34.358zm89.248 86.258a61.123 61.123 0 1 1 -2.527-46.716 60.726 60.726 0 0 1 2.527 46.716z"/><path d="m423.645 122.415a11.385 11.385 0 1 1 5.348-15.186 6 6 0 1 0 10.822-5.184 23.34 23.34 0 0 0 -26.139-12.714l-2.159-4.509a6 6 0 0 0 -10.823 5.184l2.311 4.823a23.388 23.388 0 0 0 25.824 38.408 11.384 11.384 0 1 1 -5.349 15.185 6 6 0 1 0 -10.822 5.184 23.413 23.413 0 0 0 21.126 13.28 23.151 23.151 0 0 0 3.6-.286l1.821 3.8a6 6 0 0 0 10.822-5.184l-1.666-3.478a23.375 23.375 0 0 0 -24.717-39.323z"/></svg>