<?xml version="1.0" encoding="iso-8859-1"?>
<!-- Generator: Adobe Illustrator 19.0.0, SVG Export Plug-In . SVG Version: 6.00 Build 0)  -->
<svg version="1.1" id="Capa_1" xmlns="http://www.w3.org/2000/svg" xmlns:xlink="http://www.w3.org/1999/xlink" x="0px" y="0px"
	 viewBox="0 0 512 512" style="enable-background:new 0 0 512 512;" xml:space="preserve">
<g>
	<g>
		<path d="M410.746,139.463H101.254c-10.552,0-19.104,8.552-19.104,19.104v334.328c0,10.552,8.552,19.104,19.104,19.104h309.493
			c10.558,0,19.104-8.546,19.104-19.104V158.567C429.851,148.015,421.298,139.463,410.746,139.463z M391.642,473.791H120.358
			V177.672h271.284V473.791z"/>
	</g>
</g>
<g>
	<g>
		<path d="M302.488,0h-92.975c-21.422,0-38.209,16.786-38.209,38.209v42.03h38.209v-42.03h92.975v42.03h38.209v-42.03
			C340.697,16.786,323.91,0,302.488,0z"/>
	</g>
</g>
<g>
	<g>
		<path d="M444.498,61.134H67.503c-10.552,0-19.104,8.552-19.104,19.104c0,10.552,8.552,19.104,19.104,19.104h376.995
			c10.558,0,19.104-8.552,19.104-19.104C463.602,69.687,455.05,61.134,444.498,61.134z"/>
	</g>
</g>
<g>
	<g>
		<path d="M192.318,236.896c-10.552,0-19.104,8.552-19.104,19.104v135.642c0,10.552,8.552,19.104,19.104,19.104
			c10.552,0,19.104-8.552,19.104-19.104V256C211.423,245.448,202.87,236.896,192.318,236.896z"/>
	</g>
</g>
<g>
	<g>
		<path d="M319.682,236.896c-10.552,0-19.104,8.552-19.104,19.104v135.642c0,10.552,8.552,19.104,19.104,19.104
			c10.552,0,19.104-8.552,19.104-19.104V256C338.786,245.448,330.234,236.896,319.682,236.896z"/>
	</g>
</g>
<g>
</g>
<g>
</g>
<g>
</g>
<g>
</g>
<g>
</g>
<g>
</g>
<g>
</g>
<g>
</g>
<g>
</g>
<g>
</g>
<g>
</g>
<g>
</g>
<g>
</g>
<g>
</g>
<g>
</g>
</svg>
