<svg height="466pt" viewBox="0 -15 466.00229 466" width="466pt" xmlns="http://www.w3.org/2000/svg"><path d="m458.164062 44.003906h-62.164062v-36.214844c0-2.09375-.84375-4.101562-2.34375-5.566406-1.5-1.46875-3.527344-2.2656248-5.625-2.21874975h-61.699219c-4.421875 0-8.332031 3.36718775-8.332031 7.78515575v36.214844h-170v-36.214844c0-4.417968-3.914062-7.78515575-8.332031-7.78515575h-61.699219c-2.097656-.04687505-4.125.74999975-5.621094 2.21484375-1.5 1.464844-2.347656 3.476562-2.347656 5.570312v36.214844h-62.160156c-2.105469.003906-4.117188.851563-5.589844 2.351563-1.476562 1.503906-2.2851562 3.53125-2.25 5.636719v376.222656c-.0273438 2.085937.792969 4.089844 2.269531 5.558594 1.476563 1.46875 3.488281 2.273437 5.570313 2.230468h450.324218c2.082032.042969 4.089844-.761718 5.570313-2.230468 1.476563-1.46875 2.296875-3.472657 2.265625-5.558594v-376.222656c.035156-2.105469-.773438-4.132813-2.246094-5.636719-1.472656-1.5-3.488281-2.347657-5.589844-2.351563zm-124.164062-28h46v69h-46zm-248 0h46v69h-46zm-16 44v32.5c0 4.417969 3.546875 8.5 7.964844 8.5h61.703125c4.578125-.207031 8.21875-3.917968 8.332031-8.5v-32.5h170v32.5c.113281 4.582032 3.75 8.292969 8.328125 8.5h61.699219c4.421875 0 7.96875-4.078125 7.96875-8.5v-32.5h54v76h-433.996094v-76zm-54 360v-268h434v268zm0 0"/><path d="m331 196.003906c0-4.417968-3.582031-8-8-8h-181c-4.417969 0-8 3.582032-8 8v181c0 4.417969 3.582031 8 8 8h181c4.417969 0 8-3.582031 8-8zm-118 8h40v25.964844l-17.597656-6.265625c-1.585938-.601563-3.339844-.601563-4.925782 0l-17.476562 6.265625zm103 166h-166v-166h47v37.25c-.113281 2.558594 1.054688 5.007813 3.121094 6.523438 2.0625 1.515625 4.746094 1.902344 7.15625 1.027344l25.785156-9.070313 25.820312 9.070313c.84375.296874 1.734376.449218 2.632813.449218 1.578125 0 3.113281-.519531 4.371094-1.472656 2.046875-1.53125 3.214843-3.96875 3.113281-6.527344v-37.25h47zm0 0"/><path d="m189.5 293.003906h57c4.417969 0 8-3.582031 8-8 0-4.417968-3.582031-8-8-8h-57c-4.417969 0-8 3.582032-8 8 0 4.417969 3.582031 8 8 8zm0 0"/><path d="m189.5 307.003906c-4.417969 0-8 3.582032-8 8 0 4.417969 3.582031 8 8 8h87c4.417969 0 8-3.582031 8-8 0-4.417968-3.582031-8-8-8zm0 0"/></svg>