<svg height="500pt" viewBox="0 -121 500 500" width="500pt" xmlns="http://www.w3.org/2000/svg"><path d="m474.972656 95.316406c-.164062-.058594-.378906-.113281-.546875-.160156l-41.292969-11.382812-27.53125-59.121094c-6.128906-13.042969-19.136718-21.46875-33.542968-21.730469l-184.160156-2.921875c-.183594 0-.367188 0-.550782 0-12.296875-.0078125-23.820312 6.007812-30.84375 16.101562l-46.902344 67.273438-63.910156 13.03125c-26.511718 5.472656-45.566406 28.757812-45.691406 55.828125v55.875c0 3.863281 3.335938 6.664063 7.199219 6.664063h34.851562c5.089844 25 26.609375 42.445312 52.3125 42.445312s47.222657-17.445312 52.3125-42.445312h211.113281c4.945313 24.921874 26.90625 42.808593 52.3125 42.613281 25.277344.007812 47.121094-17.652344 52.414063-42.367188 20.675781-.097656 37.40625-16.84375 37.484375-37.515625v-46.785156c-.066406-15.890625-10.070312-30.039062-25.027344-35.402344zm-82.074218-64.753906 24.253906 52.097656h-90.152344v-66.449218l44.839844.710937c9.046875.160156 17.214844 5.449219 21.058594 13.640625zm-155.898438 52.210938v-67.992188l76 1.207031v66.785157zm-69.011719-58.671876c4.480469-6.429687 11.863281-10.214843 19.699219-10.101562l35.3125.558594v68.109375h-95.84375zm-73.625 219.453126c-21.792969 0-39.460937-17.667969-39.460937-39.460938 0-21.796875 17.664062-39.460938 39.460937-39.460938 21.792969-.003906 39.460938 17.664063 39.460938 39.460938-.023438 21.78125-17.675781 39.4375-39.460938 39.460938zm315.738281 0c-21.792968 0-39.460937-17.667969-39.460937-39.460938 0-21.796875 17.667969-39.460938 39.460937-39.460938 21.792969-.003906 39.460938 17.664063 39.460938 39.460938-.023438 21.78125-17.679688 39.4375-39.460938 39.460938zm75.898438-66.050782c-.058594 12.550782-9.890625 22.886719-22.429688 23.570313-1.535156-28.328125-24.910156-50.53125-53.277343-50.613281-28.367188-.078126-51.867188 21.996093-53.5625 50.3125h-208.996094c-1.578125-28.320313-25.003906-50.476563-53.371094-50.476563-28.367187 0-51.792969 22.15625-53.371093 50.476563h-26.992188v-48.539063c.101562-20.425781 14.484375-37.992187 34.488281-42.121094l65.910157-13.445312h312.757812l43.316406 11.917969c9.277344 3.425781 15.460938 12.242187 15.527344 22.132812zm0 0"/></svg>