<?xml version="1.0"?>
<svg xmlns="http://www.w3.org/2000/svg" id="Layer_1" data-name="Layer 1" viewBox="0 0 512 512" width="512" height="512"><title>Book</title><path d="M56.881,445.835A53.076,53.076,0,0,0,109.9,498.85l314.125,0a5.982,5.982,0,0,0,5.979-6V405h19.121A6.055,6.055,0,0,0,455,398.819V19.152A6.03,6.03,0,0,0,449.121,13H141.735l-.038,0-.039,0H109.894A53.1,53.1,0,0,0,57,66.167V443.9c0,.171-.053.341-.039.509C56.948,444.883,56.881,445.358,56.881,445.835ZM418,486.848l-308.124,0A40.925,40.925,0,1,1,109.9,405H418ZM443,393H148V25h72V283.024a5.991,5.991,0,0,0,9.625,4.772L296,237.222,362.38,287.8a5.988,5.988,0,0,0,9.62-4.772V25h71ZM299.466,224.906a5.753,5.753,0,0,0-3.551-1.227,5.4,5.4,0,0,0-3.423,1.227L262,248.3V25h68V248.3ZM342,25h18V270.909l-18-13.466Zm-92,0V257.443l-18,13.466V25ZM69,66.167A41.088,41.088,0,0,1,109.894,25H136V393H109.9A52.939,52.939,0,0,0,69,412.282Z"/></svg>
