<svg height="486pt" viewBox="0 -77 486 486" width="486pt" xmlns="http://www.w3.org/2000/svg"><path d="m478.773438.00390625h-471.546876c-3.867187-.11328125-7.101562 2.92187475-7.226562 6.79296875v273.820313c.078125 3.988281 3.246094 7.222656 7.226562 7.386718h29.394532c2.816406 25.386719 24.273437 44.59375 49.816406 44.59375s47-19.207031 49.816406-44.59375h178.40625c2.820313 25.382813 24.273438 44.585938 49.8125 44.585938 25.542969 0 46.996094-19.203125 49.816406-44.585938h34.75c3.867188 0 6.960938-3.515625 6.960938-7.382812v-185.371094l25.351562-9.578125c2.746094-1.019531 4.59375-3.617187 4.648438-6.542969v-72.332031c-.125-3.871094-3.359375-6.90625-7.226562-6.79296875zm-464.773438 96.99999975h22v74.570313c.15625 4.03125 3.382812 7.261719 7.410156 7.429687h153.589844v95h-61.164062c-4.113282-24.070312-24.980469-41.671875-49.398438-41.671875-24.421875 0-45.285156 17.601563-49.402344 41.671875h-23.035156zm258 177h-61v-131h61zm-75-137.652344v28.652344h-69v-68h69zm-83 28.652344h-64v-68h64zm-27.5625 153.207032c-19.953125 0-36.128906-16.175782-36.128906-36.128907s16.175781-36.128906 36.128906-36.128906 36.128906 16.175781 36.128906 36.128906c-.023437 19.941407-16.183594 36.105469-36.128906 36.128907zm278.039062 0c-19.957031 0-36.132812-16.171876-36.132812-36.128907-.003906-19.953125 16.171875-36.128906 36.125-36.128906s36.132812 16.175781 36.132812 36.128906c-.023437 19.941407-16.183593 36.105469-36.125 36.128907zm49.398438-44.207032c-4.117188-24.070312-24.980469-41.671875-49.398438-41.671875-24.421874 0-45.285156 17.601563-49.402343 41.671875h-29.074219v-137.652344c0-3.863281-2.972656-7.347656-6.839844-7.347656h-68.160156v-32h111v58.324219c.117188 19.773437 16.207031 35.726563 35.980469 35.675781h84.019531v14h-19.957031c-3.871094-.007812-7.023438 3.121094-7.042969 6.992188v39.953125c.015625 3.886719 3.15625 7.03125 7.042969 7.054687h19.957031v15zm-77.875-177h106v80h-84.019531c-12.042969.0625-21.871094-9.628906-21.980469-21.675781zm106 122v26h-13v-26zm30-144.699218-24.246094 8.699218h-433.753906v-69h458zm0 0"/></svg>