<?xml version="1.0"?>
<svg xmlns="http://www.w3.org/2000/svg" id="Layer_1" data-name="Layer 1" viewBox="0 0 512 512" width="512" height="512"><title>Hammer</title><path d="M401.882,78.459c-.087-.028-.173-.055-.26-.08L191.9,17.413a8.007,8.007,0,0,0-6.775,1.1L174.8,25.625a35.9,35.9,0,0,1-39.947.615L122.66,18.325A8.05,8.05,0,0,0,118.323,17H80.977A8.061,8.061,0,0,0,73,25.1v104.63A8.22,8.22,0,0,0,80.977,138h37.346a8.148,8.148,0,0,0,4.337-1.416l12.194-7.936a35.89,35.89,0,0,1,39.947.581l10.319,7.236A8.128,8.128,0,0,0,189.662,138h10.8l-9.77,348.819a7.964,7.964,0,0,0,8,8.181H299.536a8.045,8.045,0,0,0,5.735-2.47,7.743,7.743,0,0,0,2.262-5.687L297.763,138h133.26a8.118,8.118,0,0,0,8-8.138A54.011,54.011,0,0,0,401.882,78.459ZM103,122H89V33h14ZM206.912,479l9.552-341h65.292l9.553,341ZM192.153,122l-8.268-5.839a51.832,51.832,0,0,0-57.693-.958L119,119.782V35.037l7.192,4.648a51.844,51.844,0,0,0,57.7-.888l7.188-4.96,205.941,60A37.991,37.991,0,0,1,422.179,122Z"/></svg>
