<?xml version="1.0"?>
<svg xmlns="http://www.w3.org/2000/svg" id="Layer_1" data-name="Layer 1" viewBox="0 0 512 512" width="512" height="512"><title>Management</title><path d="M496.514,248H454.437C450.313,145,367,62.478,265,58.37V16.094a8,8,0,1,0-16,0V58.37C146,62.478,62.913,145,58.789,248h-43.3a8,8,0,1,0,0,16h43.3C62.88,367,146,449.911,249,454.02v41.886a8,8,0,0,0,16,0V454.02C367,449.911,450.346,367,454.438,264h42.076a8,8,0,0,0,0-16Zm-239.9,190.2c-100.355,0-182-81.645-182-182s81.645-182,182-182,182,81.645,182,182S356.968,438.2,256.613,438.2Z"/><path d="M285.52,46.15A212.121,212.121,0,0,1,466.658,227.293a8,8,0,0,0,7.915,6.908,8.083,8.083,0,0,0,1.1-.076,8,8,0,0,0,6.832-9.018A228.123,228.123,0,0,0,287.706,30.3a8,8,0,1,0-2.186,15.85Z"/><path d="M227.706,466.24A212.122,212.122,0,0,1,46.568,285.106a8,8,0,0,0-15.85,2.188,228.121,228.121,0,0,0,194.8,194.8,8.094,8.094,0,0,0,1.1.076,8,8,0,0,0,1.083-15.926Z"/><path d="M37.55,234.125a8.094,8.094,0,0,0,1.1.076,8,8,0,0,0,7.915-6.908A212.12,212.12,0,0,1,227.706,46.155a8,8,0,0,0-2.186-15.85,228.121,228.121,0,0,0-194.8,194.8A8,8,0,0,0,37.55,234.125Z"/><path d="M475.676,278.275a8.006,8.006,0,0,0-9.018,6.832A212.12,212.12,0,0,1,285.52,466.245a8,8,0,0,0,1.083,15.926,8.094,8.094,0,0,0,1.1-.076,228.124,228.124,0,0,0,194.8-194.8A8,8,0,0,0,475.676,278.275Z"/><path d="M356.5,200.455l12.258-16.508a8,8,0,0,0-.922-10.579l-25.547-24.19a8,8,0,0,0-10-.8l-17.943,12.219a119.549,119.549,0,0,0-28.953-11.273L281.836,129.5a7.913,7.913,0,0,0-7.875-6.5H238.048a7.915,7.915,0,0,0-7.876,6.5l-3.556,19.9a122.681,122.681,0,0,0-28.974,11.26l-17.98-11.985a8,8,0,0,0-9.934.843L144.169,173.7a8,8,0,0,0-.923,10.578l12.237,16.479a107.159,107.159,0,0,0-11.606,26.924l-21.254,3.422a7.9,7.9,0,0,0-6.623,7.9V273a7.9,7.9,0,0,0,6.625,7.9l21.338,3.419a109.915,109.915,0,0,0,11.564,26.9l-12.268,16.51a8,8,0,0,0,.916,10.577l25.544,24.19a8,8,0,0,0,9.933.849l17.96-11.96a119.46,119.46,0,0,0,29,11.3l3.553,19.824a7.913,7.913,0,0,0,7.875,6.5h35.9a7.913,7.913,0,0,0,7.876-6.5l3.557-19.9a122.558,122.558,0,0,0,28.981-11.265l17.98,11.985a8,8,0,0,0,9.935-.843L367.824,338.3a8,8,0,0,0,.908-10.6l-12.557-16.811A107.129,107.129,0,0,0,367.769,284l21.589-3.424a7.9,7.9,0,0,0,6.642-7.9v-34a7.9,7.9,0,0,0-6.626-7.9l-21.337-3.419A109.842,109.842,0,0,0,356.5,200.455ZM380,265.832l-20.064,3.183a7.936,7.936,0,0,0-6.5,6.159,91.386,91.386,0,0,1-13.626,31.572,8,8,0,0,0,.222,9.282l11.62,15.548L335.9,346.489l-16.783-11.177a8,8,0,0,0-8.543-.2,106.843,106.843,0,0,1-33.73,13.079,7.886,7.886,0,0,0-6.284,6.337L267.248,373h-22.5l-3.312-18.477a7.944,7.944,0,0,0-6.323-6.394A103.649,103.649,0,0,1,201.45,335.1a8,8,0,0,0-8.577.2l-16.785,11.183-15.766-14.926,11.3-15.222a8,8,0,0,0,.218-9.227,94.246,94.246,0,0,1-13.682-31.646,7.869,7.869,0,0,0-6.424-6.116L132,266.173V245.827l19.731-3.179a7.935,7.935,0,0,0,6.487-6.154,91.424,91.424,0,0,1,13.627-31.575,8,8,0,0,0-.209-9.264L160.331,180.44,176.1,165.505l16.784,11.178a8,8,0,0,0,8.542.205,106.9,106.9,0,0,1,33.724-13.074,7.886,7.886,0,0,0,6.284-6.337L244.748,139h22.513l3.313,18.477a7.944,7.944,0,0,0,6.322,6.394,103.7,103.7,0,0,1,33.66,13.028,8,8,0,0,0,8.645-.244l16.766-11.423,15.715,14.878-11.3,15.22a8,8,0,0,0-.219,9.228,94.273,94.273,0,0,1,13.682,31.648,7.869,7.869,0,0,0,6.425,6.116L380,245.494Z"/><path d="M282.959,230.075l-36.876,34.809-16.8-17.253a8,8,0,0,0-11.462,11.163l22.3,22.9a8,8,0,0,0,11.222.236l42.6-40.215a8,8,0,0,0-10.983-11.635Z"/><path d="M256,180.312A75.688,75.688,0,1,0,331.688,256,75.773,75.773,0,0,0,256,180.312Zm0,135.376A59.688,59.688,0,1,1,315.688,256,59.756,59.756,0,0,1,256,315.688Z"/></svg>
