<svg height="497pt" viewBox="-10 0 497 497.76044" width="497pt" xmlns="http://www.w3.org/2000/svg"><path d="m238.601562 268.308594c73.976563 0 134.15625-60.183594 134.15625-134.15625 0-73.96875-60.179687-134.152344-134.15625-134.152344-73.972656 0-134.152343 60.179688-134.152343 134.152344 0 73.976562 60.179687 134.15625 134.152343 134.15625zm118.15625-134.15625c.019532 16.890625-3.605468 33.585937-10.625 48.949218l-6.578124-7.589843c-.363282-.421875-.628907-.914063-.785157-1.449219l-4.886719-16.78125c-1.648437-5.664062-5.726562-10.304688-11.132812-12.664062-5.402344-2.363282-11.578125-2.203126-16.855469.433593l-9.210937 4.605469c-1.140625.570312-2.484375.546875-3.601563-.066406l-30.152343-16.527344c-1.496094-.828125-2.28125-2.539062-1.929688-4.21875l7.207031-33.726562c.070313-.328126.347657-.570313.683594-.597657l31.492187-2.363281c5.347657-.402344 10.179688-3.335938 13-7.898438 2.820313-4.558593 3.285157-10.195312 1.257813-15.15625l-.628906-1.53125c-2.679688-6.503906-9.125-10.652343-16.152344-10.398437l-20.941406.804687 12.179687-8.8125c2.03125-1.472656 3.683594-3.402343 4.828125-5.632812l5.445313-10.667969c35.582031 21.347657 57.363281 59.792969 57.386718 101.289063zm-71.617187-108.597656-5.425781 10.640624-12.578125 9.101563c-5.660157 4.09375-7.972657 11.410156-5.691407 18.011719 2.277344 6.605468 8.613282 10.9375 15.59375 10.667968l21.433594-.824218c.316406-.011719.605469.175781.730469.46875l.625 1.53125c.089844.226562.070313.480468-.058594.6875-.125.203125-.34375.335937-.585937.355468l-31.492188 2.363282c-7.40625.585937-13.554687 5.953125-15.136718 13.210937l-7.207032 33.726563c-1.792968 8.589844 2.21875 17.339844 9.890625 21.59375l30.152344 16.523437c5.71875 3.136719 12.613281 3.265625 18.449219.351563l9.210937-4.605469c1.03125-.515625 2.238281-.546875 3.292969-.085937 1.058594.460937 1.851562 1.367187 2.175781 2.472656l4.890625 16.789062c.792969 2.742188 2.167969 5.277344 4.035156 7.433594l10.488282 12.101562c-24.527344 38.144532-68.730469 58.878907-113.742188 53.355469l1.292969-12.132812c.316406-2.910157 1.800781-5.570313 4.109375-7.367188 7.625-5.90625 18.488281-14.367187 26.96875-21.128906 4.828125-3.847656 7.148438-10.042969 6.035156-16.113281-1.109375-6.074219-5.46875-11.046875-11.347656-12.9375l-6.03125-1.941406c-.15625-.050782-.292969-.152344-.386719-.289063-4.53125-6.652344-19.917969-23.445313-28.691406-32.859375-2.363281-2.539062-5.097656-4.699219-8.109375-6.417969l-20.691406-11.785156c-2.207032-1.25-3.34375-3.792969-2.808594-6.273437l4.101562-19.125c.621094-2.847657 3.246094-4.800782 6.152344-4.578126l8.339844.667969c6.300781.507813 12.511719-1.742187 17.023438-6.164062 4.511718-4.425781 6.886718-10.589844 6.503906-16.898438l-.035156-.5625c-.667969-10.195312-8.289063-18.582031-18.375-20.226562-1.328126-.210938-2.542969-.875-3.4375-1.878907l-21.1875-23.8125c31.496093-16.59375 68.804687-18.078124 101.523437-4.042968zm-115.332031 12.597656 23.042968 25.898437c3.355469 3.769531 7.914063 6.257813 12.898438 7.046875 2.691406.441406 4.722656 2.675782 4.902344 5.394532l.03125.558593c.105468 1.683594-.527344 3.328125-1.730469 4.507813-1.203125 1.179687-2.859375 1.777344-4.539063 1.644531l-8.34375-.671875c-10.902343-.847656-20.757812 6.484375-23.082031 17.175781l-4.097656 19.125c-2.019531 9.304688 2.25 18.839844 10.535156 23.527344l20.6875 11.789063c1.605469.914062 3.0625 2.066406 4.324219 3.417968 13.972656 15 24.382812 26.863282 27.171875 30.957032 2.101563 3.078124 5.164063 5.367187 8.710937 6.515624l6.027344 1.941407c.277344.066406.484375.304687.515625.585937.074219.277344-.035156.566406-.269531.722656-8.410156 6.707032-19.214844 15.117188-26.800781 20.992188-5.746094 4.472656-9.433594 11.082031-10.222657 18.320312l-1.148437 10.796876c-6.355469-1.679688-12.558594-3.890626-18.542969-6.609376l-2.0625-6.476562c-.382812-1.203125-.957031-2.335938-1.703125-3.355469l-27.828125-38.175781c-1.398437-1.921875-1.90625-4.347656-1.390625-6.667969 5.257813-23.5625 5.257813-24.269531 5.257813-25.433593 0-2.824219 0-3.335938-26.242188-47.730469-.523437-.882813-.878906-1.859375-1.042968-2.871094l-4.097657-25.199219c8.589844-19.066406 22.054688-35.527344 39.039063-47.726562zm-48.558594 82.273437c.277344.5625.5625 1.121094.886719 1.664063 11.785156 19.933594 20.765625 35.398437 23.675781 40.746094-.523438 2.578124-1.738281 8.273437-4.53125 20.792968-1.519531 6.804688-.035156 13.9375 4.074219 19.570313l12.449219 17.074219c-23.839844-22.296876-37.367188-53.480469-37.351563-86.121094 0-4.585938.269531-9.171875.796875-13.726563zm0 0"/><path d="m453.691406 127.804688c-.664062-4.179688-4.464844-7.121094-8.679687-6.710938-19.152344 1.847656-33.480469 18.417969-32.542969 37.636719l1.441406 58.9375c-15.757812 1.566406-29.550781 11.257812-36.371094 25.554687l-21.535156 45.21875c-3.351562 7.011719-8.234375 13.179688-14.292968 18.050782l-4.476563 3.585937c-22.765625 18.167969-35.449219 46.140625-34.117187 75.234375l-8.800782-4.1875c-3.988281-1.898438-8.761718-.207031-10.664062 3.78125l-23.613282 49.589844c-1.898437 3.988281-.207031 8.761718 3.78125 10.660156l108.820313 51.824219c3.988281 1.898437 8.761719.207031 10.664063-3.78125l23.613281-49.585938c1.902343-3.988281.207031-8.761719-3.78125-10.664062l-2.898438-1.378907-2.933593-16.710937c-.363282-5.9375 1.550781-11.792969 5.347656-16.375l56.355468-68.1875c.113282-.140625.21875-.28125.324219-.425781 11.617188-16.21875 17.742188-35.726563 17.480469-55.671875-.007812-.378907-.039062-.757813-.101562-1.132813zm-81.394531 351.292968-94.371094-44.945312 16.738281-35.140625 94.371094 44.941406zm74.199219-158.78125-56.175782 67.980469c-6.519531 7.855469-9.726562 17.941406-8.945312 28.125.019531.261719.050781.523437.097656.785156l1.039063 5.921875-62.507813-29.773437c-4.394531-26.789063 6.023438-53.863281 27.242188-70.792969l4.476562-3.589844c7.9375-6.378906 14.335938-14.464844 18.726563-23.652344l21.535156-45.21875c5.636719-11.785156 18.390625-18.417968 31.273437-16.261718l-31.484374 66.105468c-1.246094 2.582032-1.015626 5.636719.605468 8.003907 1.621094 2.363281 4.386719 3.679687 7.246094 3.449219 2.859375-.230469 5.375-1.976563 6.59375-4.574219l35.398438-74.332031c1.902343-3.988282.207031-8.761719-3.78125-10.664063-2.535157-1.203125-5.175782-2.167969-7.890626-2.882813l-1.484374-60.703124c0-.066407 0-.136719-.007813-.207032-.410156-7.875 3.832031-15.257812 10.839844-18.875l21.53125 135.835938c.09375 16.234375-4.914063 32.089844-14.320313 45.320312zm0 0"/><path d="m18.195312 330.296875 56.351563 68.1875c3.800781 4.582031 5.710937 10.4375 5.351563 16.375l-2.933594 16.710937-2.898438 1.378907c-3.988281 1.902343-5.683594 6.675781-3.78125 10.664062l23.617188 49.585938c1.902344 3.988281 6.675781 5.683593 10.664062 3.785156l108.816406-51.828125c3.988282-1.898438 5.683594-6.671875 3.78125-10.660156l-23.613281-49.589844c-1.902343-3.988281-6.675781-5.679688-10.664062-3.78125l-8.800781 4.1875c1.332031-29.09375-11.351563-57.066406-34.113282-75.234375l-4.476562-3.589844c-6.058594-4.867187-10.941406-11.035156-14.292969-18.046875l-21.535156-45.21875c-6.820313-14.296875-20.613281-23.988281-36.371094-25.554687l1.441406-58.9375c.9375-19.21875-13.390625-35.789063-32.542969-37.636719-4.214843-.410156-8.019531 2.53125-8.679687 6.710938l-23.027344 145.261718c-.058593.375-.09375.753906-.101562 1.132813-.257813 19.945312 5.867187 39.453125 17.480469 55.671875.105468.144531.214843.289062.328124.425781zm181.085938 103.855469-94.371094 44.945312-16.738281-35.144531 94.371094-44.941406zm-161.367188-294.992188c7.007813 3.617188 11.246094 11 10.839844 18.875 0 .070313-.007812.136719-.007812.207032l-1.484375 60.699218c-2.714844.71875-5.355469 1.683594-7.890625 2.886719-3.988282 1.902344-5.683594 6.675781-3.785156 10.664063l35.402343 74.332031c1.21875 2.597656 3.734375 4.339843 6.59375 4.574219 2.859375.230468 5.625-1.085938 7.246094-3.453126 1.621094-2.363281 1.851563-5.417968.605469-8l-31.484375-66.105468c12.882812-2.15625 25.636719 4.476562 31.273437 16.261718l21.535156 45.21875c4.390626 9.1875 10.789063 17.273438 18.726563 23.652344l4.476563 3.589844c21.21875 16.933594 31.636718 44.003906 27.242187 70.792969l-62.511719 29.773437 1.039063-5.921875c.046875-.261719.078125-.523437.097656-.785156.78125-10.183594-2.425781-20.269531-8.945313-28.128906l-56.179687-67.976563c-9.40625-13.230468-14.417969-29.085937-14.324219-45.320312zm0 0"/></svg>