<svg height="469pt" viewBox="0 -5 469 468" width="469pt" xmlns="http://www.w3.org/2000/svg"><path d="m191.71875 283.101562c17.460938 0 31.136719-13.253906 31.136719-30.171874 0-2.925782-1.601563-5.617188-4.171875-7.015626l-13.421875-25.414062h20.738281v69h-6.386719c-4.417969 0-8 3.582031-8 8s3.582031 8 8 8h29.601563c4.417968 0 8-3.582031 8-8s-3.582032-8-8-8h-7.214844v-69h21.566406l-13.421875 25.410156c-2.570312 1.402344-4.171875 4.09375-4.167969 7.023438 0 16.917968 13.671876 30.164062 31.132813 30.164062 17.457031 0 31.132813-13.25 31.132813-30.167968 0-2.929688-1.601563-5.625-4.171876-7.027344l-19.886718-37.671875c-1.386719-2.621094-4.109375-4.257813-7.074219-4.253907-.964844 0-1.902344.523438-2.777344.523438h-79.832031c-.875 0-1.808594-.523438-2.777344-.523438-2.964844-.003906-5.6875 1.636719-7.074218 4.257813l-19.890626 37.664063c-2.570312 1.402343-4.171874 4.097656-4.171874 7.027343 0 16.921875 13.675781 30.175781 31.132812 30.175781zm0-16.429687c-5.289062 0-9.867188-2.167969-12.5625-6.167969h25.128906c-2.695312 3.996094-7.273437 6.164063-12.566406 6.164063zm85.390625 0c-5.292969 0-9.871094-2.167969-12.566406-6.167969h25.128906c-2.695313 3.996094-7.273437 6.164063-12.5625 6.164063zm8.355469-22.171875h-16.710938l8.355469-15.824219zm-93.746094-15.824219 8.355469 15.824219h-16.707031zm0 0"/><path d="m461.5 276.5h-86.5v-117c-.175781-4.488281-3.882812-8.027344-8.375-8h-28.625v-19c0-4.417969-3.082031-8-7.5-8h-11.351562c-2.859376-31.59375-23.144532-58.941406-52.546876-70.847656-2.050781-12.539063-11.304687-22.691406-23.601562-25.890625v-19.261719c0-4.417969-3.582031-8-8-8s-8 3.582031-8 8v19.253906c-12.308594 3.183594-21.566406 13.347656-23.59375 25.898438-29.410156 11.902344-49.695312 39.25-52.554688 70.847656h-11.351562c-4.417969 0-8.5 3.582031-8.5 8v19h-27.375c-2.082031.015625-4.070312.875-5.507812 2.382812-1.4375 1.507813-2.203126 3.535157-2.117188 5.617188v117h-87.5c-4.417969 0-8.5 3.582031-8.5 8v166c0 4.417969 4.082031 8 8.5 8h95 .0625.0625 357.875c4.417969 0 7.5-3.582031 7.5-8v-166c0-4.417969-3.082031-8-7.5-8zm-139.5-125h-14v-11h14zm-128-11v11h-16v-11zm16 0h17v11h-17zm33 0h16v11h-16zm32 0h17v11h-17zm-51.410156-93.09375c2.945312-3.082031 7.011718-4.851562 11.277344-4.90625h.132812c4.707031.046875 9.15625 2.15625 12.175781 5.765625-8.082031-1.113281-16.277343-1.105469-24.355469.03125.25-.289063.496094-.613281.769532-.890625zm11.410156 16.09375c34.910156.046875 64.21875 26.304688 68.082031 61h-136.164062c3.863281-34.695312 33.171875-60.953125 68.082031-61zm-88 77h15v11h-15zm-52 302h-79v-150h79zm17-275h247v115.632812c0 .445313-1 .902344-1 1.367188v158h-19v-77.785156c0-16.292969-13.207031-29.5-29.5-29.5s-29.5 13.207031-29.5 29.5v77.785156h-16v-77.785156c0-16.019532-12.984375-29-29-29s-29 12.980468-29 29v77.785156h-16v-77.785156c0-16.292969-13.207031-29.5-29.5-29.5s-29.5 13.207031-29.5 29.5v77.785156h-19zm211 275h-27v-77.785156c0-7.457032 6.042969-13.5 13.5-13.5s13.5 6.042968 13.5 13.5zm-75 0h-26v-77.785156c0-7.179688 5.820312-13 13-13s13 5.820312 13 13zm-74 0h-27v-77.785156c0-7.457032 6.042969-13.5 13.5-13.5s13.5 6.042968 13.5 13.5zm279 0h-78v-150h78zm0 0"/></svg>