<svg height="496pt" viewBox="-29 0 496 496.00924" width="496pt" xmlns="http://www.w3.org/2000/svg"><path d="m7.894531 437h250.109375v51.453125c-.011718 2.0625.828125 4.039063 2.3125 5.464844 1.488282 1.429687 3.5 2.179687 5.558594 2.082031h164.242188c4.417968 0 7.886718-3.128906 7.886718-7.546875v-164.242187c.070313-4.4375-3.449218-8.101563-7.886718-8.210938h-106.210938c-4.109375-38-37.121094-67-77.113281-67h-41.789063v-13.421875c27.71875-15.332031 44.945313-44.492187 45-76.167969v-28.109375c27-3.691406 40.492188-10.746093 40.492188-23.738281.019531-3.457031-2.195313-6.527344-5.476563-7.605469l-25.414062-8.289062-.332031-7.683594c-1.949219-47.078125-40.785157-84.183594-87.90625-83.984375h-18.460938c-47.125-.199219-85.964844 36.902344-87.921875 83.984375l-.339844 7.800781-25.472656 8.226563c-3.257813 1.074219-5.4375 4.148437-5.375 7.578125 0 12.269531 12.207031 19.210937 36.207031 23.0625v28.757812c0 34.171875 20 63.839844 49 78.300782v11.289062h-41.5625c-42.761718 0-77.43749975 33.613281-77.43749975 75.179688v105.179687c-.01171875 2.074219.82421875 4.0625 2.31249975 5.507813 1.488282 1.441406 3.503906 2.210937 5.578125 2.132812zm100.332031-172h15.898438l29.878906 28.859375v20.765625l-17.070312-18.511719c-1.789063-1.941406-4.429688-2.871093-7.039063-2.476562l-30.835937 4.765625zm91.632813 0h16.144531l9.152344 33.402344-30.847656-4.714844c-2.632813-.40625-5.296875.511719-7.121094 2.453125l-17.183594 18.484375v-20.785156zm222.144531 215h-148v-148h40v32.933594c.046875 2.605468 1.339844 5.03125 3.476563 6.527344 2.136719 1.492187 4.859375 1.871093 7.324219 1.019531l23.167968-8.117188 23.152344 8.117188c.855469.300781 1.75.453125 2.65625.453125 1.691406 0 3.34375-.515625 4.738281-1.476563 2.144531-1.484375 3.441407-3.914062 3.484375-6.523437v-32.933594h40zm-92-148h36v21.648438l-15.25-5.3125c-1.765625-.601563-3.683594-.601563-5.453125 0l-15.296875 5.3125zm-22.230468-16h-41.902344c-4.429688.109375-7.945313 3.777344-7.867188 8.210938v96.789062h-88v-82.820312l26.050782-28.089844 38.839843 5.867187c2.679688.40625 5.382813-.570312 7.183594-2.59375 1.800781-1.980469 2.460937-4.746093 1.75-7.324219l-11.230469-41.039062h14.199219c31.132813 0 56.925781 22 60.976563 51zm-154.867188-300h18.464844c38.546875-.183594 70.332031 30.160156 71.933594 68.671875l.257812 5.839844c-47.167969 4.6875-115.671875 4.632812-162.84375-.054688l.253906-5.757812c1.601563-38.515625 33.382813-68.867188 71.933594-68.699219zm-79.683594 89.699219c50.074219 5.601562 127.765625 5.601562 177.828125 0l16.75 5.457031c-4.523437 1.570312-11.984375 3.351562-24.253906 4.765625-18.378906 2.117187-44.25 3.105469-81.429687 3.105469-37.175782 0-63.046876-.988282-81.425782-3.105469-12.261718-1.414063-19.722656-3.191406-24.246094-4.765625zm12.78125 53.710937v-26.789062c20 1.84375 45.101563 2.410156 76.171875 2.410156 28.855469 0 52.828125-.488281 71.828125-2.035156v26.414062c0 39.523438-33.058594 71.675782-74 71.675782-40.9375 0-74-32.152344-74-71.675782zm73.964844 87.675782c9.855469.011718 19.652344-1.519532 29.035156-4.53125v10.875l-26.886718 25.882812-27.113282-25.902344v-9.628906c8.140625 2.1875 16.535156 3.300781 24.964844 3.304688zm-143.964844 77.09375c0-32.742188 27.5-59.179688 61.4375-59.179688h14.199219l-11.234375 41.039062c-.707031 2.601563-.046875 5.386719 1.753906 7.394532 1.800782 2.007812 4.492188 2.964844 7.15625 2.550781l38.753906-5.882813 25.933594 28.078126v82.820312h-138zm0 0"/><path d="m308.628906 413h51.582032c4.417968 0 8-3.582031 8-8s-3.582032-8-8-8h-51.582032c-4.417968 0-8 3.582031-8 8s3.582032 8 8 8zm0 0"/><path d="m308.628906 424c-4.417968 0-8 3.582031-8 8s3.582032 8 8 8h78.730469c4.417969 0 8-3.582031 8-8s-3.582031-8-8-8zm0 0"/><path d="m161.019531 92.0625c14.914063 0 27.007813-12.09375 27.003907-27.011719 0-14.914062-12.09375-27.007812-27.007813-27.007812-14.917969 0-27.011719 12.09375-27.011719 27.011719.015625 14.910156 12.101563 26.996093 27.015625 27.007812zm0-38.019531c6.078125.003906 11.007813 4.933593 11.003907 11.015625 0 6.078125-4.929688 11.007812-11.011719 11.007812-6.078125-.003906-11.007813-4.933594-11.007813-11.011718.007813-6.078126 4.933594-11.003907 11.015625-11.011719zm0 0"/></svg>