<svg id="Layer_1" height="512" viewBox="0 0 512 512" width="512" xmlns="http://www.w3.org/2000/svg" data-name="Layer 1"><path d="m275.739 229.4a107.632 107.632 0 1 0 -107.632-107.637 107.754 107.754 0 0 0 107.632 107.637zm0-203.264a95.632 95.632 0 1 1 -95.632 95.632 95.741 95.741 0 0 1 95.632-95.637z"/><path d="m275.739 171.768a20.343 20.343 0 0 1 -20.32-20.32 6 6 0 0 0 -12 0 32.372 32.372 0 0 0 25.581 31.608v8.944a6 6 0 0 0 12 0v-8.667a32.318 32.318 0 0 0 -5.261-64.206 20.32 20.32 0 1 1 20.32-20.319 6 6 0 0 0 12 0 32.367 32.367 0 0 0 -27.059-31.885v-7.923a6 6 0 0 0 -12 0v8.2a32.319 32.319 0 0 0 6.739 63.927 20.321 20.321 0 0 1 0 40.641z"/><path d="m129.547 498h228.232a6.306 6.306 0 0 0 6.221-6.131v-55.869h18.453a5.474 5.474 0 0 0 5.547-5.815v-60.451a5.406 5.406 0 0 0 -5.547-5.734h-18.453v-51h18.453c3.313 0 5.547-2.871 5.547-6.184v-60.451c0-3.313-2.234-6.365-5.547-6.365h-228.232a6.514 6.514 0 0 0 -6.221 6.365v55.635h-18.453c-3.313 0-5.547 2.736-5.547 6.05v60.45c0 3.314 2.234 6.5 5.547 6.5h18.453v50h-18.453c-3.313 0-5.547 3.105-5.547 6.418v60.451c0 3.313 2.234 6.131 5.547 6.131zm145.453-184v49h-25v-49zm-13 62v48h-25v-48zm12 48v-48h25v48zm13-61v-49h25v49zm-49-49v49h-25v-49zm-13 62v48h-25v-48zm13 61v49h-25v-49zm12 0h25v49h-25zm37 0h25v49h-25zm24-13v-48h25v48zm13-110h28v49h-28zm-13-13v-49h25v49zm-12 0h-25v-49h25zm-37 0h-25v-49h25zm-37 0h-25v-49h25zm-24 13v49h-25v-49zm-13 110h-28v-48h28zm13 13v49h-25v-49zm151 49h-28v-49h28zm24-62h-28v-48h28zm0-123h-28v-49h28zm-216-49h28v49h-28zm-24 62h28v49h-28zm0 123h28v49h-28z"/></svg>