<?xml version="1.0"?>
<svg xmlns="http://www.w3.org/2000/svg" id="Layer_1" data-name="Layer 1" viewBox="0 0 512 512" width="512" height="512"><title>Megaphone</title><path d="M474.648,65.259A8.276,8.276,0,0,0,467.6,63.8L112.772,158H42.457C38.039,158,34,161.731,34,166.149V301.111c0,4.418,4.039,7.889,8.457,7.889h70.315L159,321.305V440.4a7.375,7.375,0,0,0,7.65,7.6H402.785c4.418,0,8.215-3.183,8.215-7.6V388.32l56.6,15.071a7.6,7.6,0,0,0,2,.268A8.588,8.588,0,0,0,474.675,402,8.2,8.2,0,0,0,478,395.659V71.6A8.229,8.229,0,0,0,474.648,65.259ZM50,174h56V293H50ZM395,432H175V325.557l220,58.51Zm67-46.745-340-90.3V172.3l340-90.3Z"/></svg>
