<?xml version="1.0"?>
<svg xmlns="http://www.w3.org/2000/svg" id="Layer_1" data-name="Layer 1" viewBox="0 0 512 512" width="512" height="512"><title>Pay Online</title><path d="M465.978,129H268.356a7.917,7.917,0,0,0-3.547.779C259.932,63.927,204.8,11.809,137.721,11.809A127.431,127.431,0,1,0,265.058,144.227a7.992,7.992,0,0,0,3.3.773H465.978a19.5,19.5,0,1,1,0,39H364.126A36.429,36.429,0,0,0,328,220.111V224H311.967C274.027,224,243,255.152,243,293.092V431.414C243,469.354,274.027,500,311.967,500h50.157A68.756,68.756,0,0,0,431,431.414V293.092C431,255.152,400.063,224,362.124,224H344v-3.889A20.414,20.414,0,0,1,364.126,200H465.978a35.5,35.5,0,1,0,0-71ZM137.721,250.663A111.442,111.442,0,1,1,249.163,139.221,111.568,111.568,0,0,1,137.721,250.663ZM329,316.725c0-.026,0-.051,0-.077s0-.051,0-.077V299.546c0-4.18,3.819-7.581,8-7.581s8,3.4,8,7.581v17.063c0,.013,0,.026,0,.039s0,.026,0,.039V333.75c0,4.181-3.819,7.582-8,7.582s-8-3.4-8-7.582Zm-70-23.633A53.249,53.249,0,0,1,311.967,240H328v37.62c-8,3.46-15,11.981-15,21.926V309H259ZM415,431.414A52.738,52.738,0,0,1,362.124,484H311.967C282.85,484,259,460.532,259,431.414V325h54v8.75c0,13,11,23.582,24,23.582s24-10.579,24-23.582V325h54ZM362.124,240C391.241,240,415,263.975,415,293.092V309H361v-9.454c0-10.441-7-19.313-17-22.406V240Z"/><path d="M137.721,42.062a97.159,97.159,0,1,0,97.158,97.159A97.269,97.269,0,0,0,137.721,42.062Zm0,178.317a81.159,81.159,0,1,1,81.158-81.158A81.25,81.25,0,0,1,137.721,220.379Z"/><path d="M137.721,103.993a15.107,15.107,0,0,1,15.09,15.09,8,8,0,0,0,16,0A31.14,31.14,0,0,0,146,89.121V83a8,8,0,0,0-16,0v5.964a31.091,31.091,0,0,0,7.721,61.208,15.082,15.082,0,0,1,2.032,30.027,7.786,7.786,0,0,0-3.714.053,15.106,15.106,0,0,1-13.408-14.99,8,8,0,0,0-16,0A31.145,31.145,0,0,0,130,195.381V202a8,8,0,0,0,16,0v-6.776a31.087,31.087,0,0,0-8.279-61.052,15.09,15.09,0,1,1,0-30.179Z"/></svg>
