<svg height="496pt" viewBox="-82 0 496 496.93297" width="496pt" xmlns="http://www.w3.org/2000/svg"><path d="m283.839844 45.59375c-1.507813-1.929688-3.816406-3.070312-6.265625-3.097656h-82.949219c-.320312 0-.636719-.808594-.960938-1.242188-11.816406-15.882812-26.296874-28.429687-40.765624-35.394531-16.140626-7.765625-30.699219-7.808594-40.988282-.152344-10.289062 7.660157-14.417968 21.628907-11.617187 39.320313 1.632812 9.5 4.628906 18.707031 8.898437 27.347656l-26.625 33.699219c-1.089844 1.421875-1.664062 3.175781-1.628906 4.96875v70.792969l-79.984375 225.3125c-.730469 1.992187-.636719 4.191406.265625 6.109374.898438 1.917969 2.53125 3.398438 4.527344 4.105469l223.117187 79.109375c1.996094.710938 4.195313.59375 6.105469-.316406 1.929688-1 3.402344-2.710938 4.101562-4.769531l28.597657-80.898438h57.808593c4.417969 0 8.460938-3.144531 8.460938-7.5625v-291.882812c-.085938-1.839844-.773438-3.601563-1.960938-5.011719zm-167.742188-3.0625c-1.800781-11.359375.152344-20.171875 5.359375-24.046875 9.671875-7.195313 32.492188 1.003906 52.6875 24.003906h-37.5c-2.449219.03125-4.757812 1.171875-6.265625 3.101563l-9.933594 12.5625c-2-5.039063-3.457031-10.273438-4.347656-15.621094zm110.558594 435.972656-207.949219-73.65625 62.230469-175.132812v173.210937c-.027344 2.054688.792969 4.03125 2.269531 5.464844 1.472657 1.429687 3.476563 2.191406 5.527344 2.097656h161.960937zm91.28125-84.015625h-221v-280.660156l20.878906-26.449219c1.519532 2.320313 3.066406 4.621094 4.75 6.886719 11.820313 15.882813 26.273438 28.464844 40.742188 35.429687 3.101562 1.503907 6.316406 2.765626 9.613281 3.769532 2.304687 17.28125 17.160156 30.121094 34.597656 29.898437 17.433594-.222656 31.957031-13.4375 33.820313-30.773437 1.863281-17.339844-9.519532-33.335938-26.511719-37.257813-16.992187-3.925781-34.234375 5.464844-40.160156 21.863281-12.042969-4.488281-26.617188-15.417968-39.316407-32.480468-2.546874-3.445313-4.914062-7.015625-7.097656-10.699219l12.253906-15.527344h133.199219l44.230469 55.339844zm-102.550781-282.0625c7.421875 3.710938 11.464843 11.910157 9.886719 20.054688-1.578126 8.148437-8.390626 14.246093-16.660157 14.914062-8.269531.671875-15.972656-4.25-18.84375-12.035156 5.246094-.476563 10.257813-2.375 14.5-5.492187 5.503907-4.09375 9.257813-10.03125 11.117188-17.441407zm-20.660157 4.601563c-.902343.65625-1.886718 1.175781-2.9375 1.550781 1.675782-2.464844 3.921876-4.496094 6.542969-5.914063-.855469 1.710938-2.085937 3.203126-3.605469 4.367188zm0 0"/><path d="m287.757812 357.488281h-161.300781c-4.417969 0-8 3.582031-8 8 0 4.421875 3.582031 8 8 8h161.300781c4.417969 0 8-3.578125 8-8 0-4.417969-3.582031-8-8-8zm0 0"/><path d="m118.457031 327.488281c0 4.421875 3.582031 8 8 8h161.300781c4.417969 0 8-3.578125 8-8 0-4.417969-3.582031-8-8-8h-161.300781c-4.417969 0-8 3.582031-8 8zm0 0"/><path d="m205.9375 276.203125c-6.957031-.007813-12.59375-5.644531-12.601562-12.601563 0-4.417968-3.582032-8-8-8-4.417969 0-8 3.582032-8 8 .015624 12.320313 7.910156 23.25 19.601562 27.140626v5.746093c0 4.421875 3.582031 8 8 8s8-3.578125 8-8v-5.15625c13.988281-3.535156 23.152344-16.9375 21.371094-31.253906-1.777344-14.316406-13.945313-25.070313-28.371094-25.074219-6.960938 0-12.601562-5.640625-12.601562-12.597656 0-6.960938 5.640624-12.601562 12.601562-12.601562 6.957031 0 12.597656 5.640624 12.597656 12.601562 0 4.417969 3.582032 8 8 8 4.417969 0 8-3.582031 8-8-.015625-13.09375-8.910156-24.507812-21.597656-27.730469v-4.1875c0-4.417969-3.582031-8-8-8s-8 3.582031-8 8v4.777344c-13.3125 4.425781-21.449219 17.851563-19.210938 31.699219 2.234376 13.847656 14.183594 24.027344 28.210938 24.039062 6.957031 0 12.597656 5.640625 12.597656 12.601563 0 6.957031-5.640625 12.597656-12.597656 12.597656zm0 0"/></svg>