<svg height="490pt" viewBox="-114 0 490 490" width="490pt" xmlns="http://www.w3.org/2000/svg"><path d="m7.929688 366.929688c0 67.96875 55.097656 123.070312 123.070312 123.070312s123.070312-55.101562 123.070312-123.070312c0-67.972657-55.097656-123.074219-123.070312-123.074219-67.9375.078125-122.996094 55.132812-123.070312 123.074219zm59.054687 39.269531c-.757813-7.511719 1.726563-14.992188 6.832031-20.558594 5.148438-5.585937 12.429688-8.726563 20.027344-8.640625h2.925781l8.566407 26.058594c.742187 2.527344 3.164062 4.175781 5.785156 3.941406l-7.128906 66.367188c-.050782.4375-.054688.882812-.007813 1.320312-13.277344-3.332031-25.816406-9.101562-36.984375-17.007812v-50.871094c.003906-.203125 0-.40625-.015625-.609375zm55.117187 71.441406-5.871093-5.875 8.25-76.835937 6.136719-6.855469 6.960937 7.402343 8.191406 76.285157-5.875 5.875c-2.933593.234375-5.898437.355469-8.898437.359375s-5.964844-.113282-8.894532-.351563zm72.914063-71.441406c-.015625.203125-.019531.40625-.015625.605469v50.871093c-11.167969 7.90625-23.710938 13.671875-36.984375 17 .050781-.445312.050781-.890625 0-1.335937l-7.132813-66.394532c.433594.011719.871094-.027343 1.300782-.113281 2.011718-.324219 3.699218-1.695312 4.421875-3.601562l9.515625-26.230469h2.042968c7.597657-.085938 14.875 3.054688 20.019532 8.644531 5.105468 5.5625 7.589844 13.042969 6.832031 20.554688zm47.070313-39.273438c.207031 30.714844-12.527344 60.101563-35.085938 80.949219v-40.773438c.992188-10.871093-2.664062-21.65625-10.066406-29.679687s-17.855469-12.535156-28.769532-12.421875h-6.265624c-2.484376-.101562-4.761719 1.398438-5.644532 3.722656l-7.632812 21.113282-13.632813-14.566407c-1.125-1.289062-2.75-2.035156-4.460937-2.046875-1.714844-.011718-3.347656.714844-4.488282 1.992188l-12.519531 13.980468-6.6875-20.300781c-.832031-2.414062-3.152343-4-5.703125-3.898437h-7.285156c-10.917969-.117188-21.371094 4.398437-28.777344 12.421875-7.402344 8.023437-11.058594 18.808593-10.066406 29.683593v40.773438c-22.558594-20.847656-35.292969-50.230469-35.085938-80.945312 0-61.351563 49.734376-111.089844 111.085938-111.089844s111.085938 49.738281 111.085938 111.089844zm0 0"/><path d="m167 317.5c0-20.710938-16.789062-37.5-37.5-37.5s-37.5 16.789062-37.5 37.5v13c0 20.710938 16.789062 37.5 37.5 37.5s37.5-16.789062 37.5-37.5zm-12 13c0 14.082031-11.417969 25.5-25.5 25.5s-25.5-11.417969-25.5-25.5v-13c0-14.082031 11.417969-25.5 25.5-25.5s25.5 11.417969 25.5 25.5zm0 0"/><path d="m262 45.007812v-39.007812c0-3.3125-2.6875-6-6-6h-250c-3.3125 0-6 2.6875-6 6v39.007812c.0820312 1.734376.886719 3.351563 2.214844 4.46875l99.785156 89.242188v96.855469c-.085938 2.128906 1.003906 4.136719 2.835938 5.226562.859374.503907 1.839843.773438 2.835937.773438 1.078125 0 2.136719-.300781 3.054687-.871094l46.628907-28.414063c1.734375-1.117187 2.742187-3.070312 2.644531-5.132812v-68.4375l99.785156-89.242188c1.328125-1.117187 2.132813-2.734374 2.214844-4.46875zm-12-33.007812v25h-238v-25zm-99.785156 119.742188c-1.320313 1.046874-2.128906 2.613281-2.214844 4.292968v67.742188l-34 21.144531v-88.886719c-.085938-1.679687-.894531-3.246094-2.214844-4.292968l-92.730468-82.742188h223.890624zm0 0"/></svg>