<?xml version="1.0" encoding="iso-8859-1"?>
<!-- Generator: Adobe Illustrator 19.0.0, SVG Export Plug-In . SVG Version: 6.00 Build 0)  -->
<svg version="1.1" id="Capa_1" xmlns="http://www.w3.org/2000/svg" xmlns:xlink="http://www.w3.org/1999/xlink" x="0px" y="0px"
	 viewBox="0 0 512 512" style="enable-background:new 0 0 512 512;" xml:space="preserve">
<g>
	<g>
		<path d="M409.846,0h-84.308c-8.695,0-16.215,6.068-18.049,14.572l-10.394,48.203h-82.191l-10.394-48.203
			C202.677,6.068,195.157,0,186.462,0h-84.308C91.957,0,83.692,8.265,83.692,18.462v475.077c0,10.197,8.265,18.462,18.462,18.462
			h84.308c7.951,0,15.003-5.083,17.514-12.628l16.714-50.142h76.406l10.394,48.203c1.834,8.498,9.354,14.566,18.049,14.566h84.308
			c10.197,0,18.462-8.265,18.462-18.462V18.462C428.308,8.265,420.043,0,409.846,0z M391.385,475.077h-50.942l-10.394-48.203
			c-1.834-8.498-9.354-14.566-18.049-14.566H207.385c-7.945,0-14.997,5.083-17.514,12.628l-16.714,50.142h-52.542V36.923h50.942
			l10.394,48.203c1.834,8.505,9.354,14.572,18.049,14.572h112c8.695,0,16.215-6.074,18.049-14.572l10.394-48.203h50.942V475.077z"/>
	</g>
</g>
<g>
	<g>
		<path d="M332.923,258.462H179.077c-10.197,0-18.462,8.265-18.462,18.462c0,10.197,8.265,18.462,18.462,18.462h153.846
			c10.197,0,18.461-8.265,18.461-18.462C351.385,266.726,343.12,258.462,332.923,258.462z"/>
	</g>
</g>
<g>
	<g>
		<path d="M318.769,181.538H193.231c-10.197,0-18.462,8.265-18.462,18.462c0,10.197,8.265,18.462,18.462,18.462h125.538
			c10.203,0,18.462-8.265,18.462-18.462S328.966,181.538,318.769,181.538z"/>
	</g>
</g>
<g>
</g>
<g>
</g>
<g>
</g>
<g>
</g>
<g>
</g>
<g>
</g>
<g>
</g>
<g>
</g>
<g>
</g>
<g>
</g>
<g>
</g>
<g>
</g>
<g>
</g>
<g>
</g>
<g>
</g>
</svg>
