<svg height="496pt" viewBox="-17 0 496 496.08476" width="496pt" xmlns="http://www.w3.org/2000/svg"><path d="m454.007812 288.085938h-41.964843v-13.644532c-.105469-4.542968-3.746094-8.210937-8.289063-8.355468h-68.160156c-4.417969 0-7.550781 3.9375-7.550781 8.355468v13.644532h-59v-62.730469c45-15.828125 77.808593-58.90625 77.808593-109.433594-.042968-63.984375-51.882812-115.8476562-115.863281-115.921875-63.917969 0-115.78125 52-115.78125 115.921875 0 50.527344 32.835938 93.605469 77.835938 109.433594v62.730469h-59v-13.644532c0-4.417968-3.132813-8.355468-7.550781-8.355468h-68.164063c-4.542969.144531-8.179687 3.8125-8.285156 8.355468v13.644532h-41.96875c-2.09375-.066407-4.128907.71875-5.640625 2.175781-1.511719 1.453125-2.3750002 3.457031-2.3906252 5.554687v170.980469c-.0078126 4.480469 3.5507812 8.152344 8.0312502 8.289063h41.96875v13.082031c.144531 4.457031 3.828125 7.976562 8.285156 7.917969h68.164063c4.417968 0 7.550781-3.5 7.550781-7.917969v-13.082031h194v13.082031c0 4.417969 3.132812 7.917969 7.550781 7.917969h68.160156c4.460938.058593 8.144532-3.460938 8.289063-7.917969v-13.082031h41.964843c4.480469-.136719 8.042969-3.808594 8.035157-8.289063v-170.980469c-.019531-2.097656-.878907-4.101562-2.390625-5.554687-1.511719-1.457031-3.546875-2.242188-5.644532-2.175781zm-322.886718-172.164063c0-55.1875 44.738281-99.921875 99.921875-99.921875 55.183593 0 99.917969 44.734375 99.917969 99.921875 0 55.183594-44.734376 99.917969-99.917969 99.917969-55.160157-.0625-99.859375-44.761719-99.921875-99.917969zm77.921875 113.773437c14.527343 2.859376 29.472656 2.859376 44 0v58.390626h-44zm-193 229.390626v-155h34v155zm102 21h-52v-198h52zm16-21v-155h194v155zm262 21h-52v-198h52zm50-21h-34v-155h34zm0 0"/><path d="m303.675781 115.921875c0-40.117187-32.519531-72.636719-72.632812-72.636719-40.117188 0-72.636719 32.519532-72.636719 72.636719 0 40.113281 32.519531 72.632813 72.636719 72.632813 40.097656-.042969 72.589843-32.539063 72.632812-72.632813zm-72.632812-56.636719c28.617187.039063 52.722656 21.394532 56.207031 49.800782h-49.207031v-24c0-4.421876-3.582031-8-8-8s-8 3.578124-8 8v24h-47.207031c3.484374-28.40625 27.589843-49.761719 56.207031-49.800782zm-55.882813 65.800782h111.765625c-4.488281 27.375-28.144531 47.46875-55.882812 47.46875-27.742188 0-51.398438-20.09375-55.882813-47.46875zm0 0"/></svg>