<svg id="Layer_1" height="512" viewBox="0 0 512 512" width="512" xmlns="http://www.w3.org/2000/svg" data-name="Layer 1"><path d="m377.719 21h-243.438c-3.313 0-6.281 2.321-6.281 5.635v458.73a6.118 6.118 0 0 0 9.847 4.706l53.888-41.071h.265v.031l64-48.861 64 48.861v-.031h.265l53.817 41.071a6.033 6.033 0 0 0 3.637 1.261 6.575 6.575 0 0 0 2.8-.607 6.108 6.108 0 0 0 3.478-5.36v-458.73c.003-3.314-2.965-5.635-6.278-5.635zm-237.719 12h40v410.088l-40 30.162zm119.571 354.854a5.9 5.9 0 0 0 -3.6-1.227 5.765 5.765 0 0 0 -3.556 1.227l-60.415 46.091v-400.945h128v400.945zm112.429 85.396-40-30.162v-410.088h40z"/></svg>