<?xml version="1.0"?>
<svg xmlns="http://www.w3.org/2000/svg" id="Layer_1" data-name="Layer 1" viewBox="0 0 512 512" width="512" height="512"><title>Management2</title><path d="M397.823,400H383.4L361.353,284.421a428.638,428.638,0,0,1-3.037-143.181L361.437,120H385a8,8,0,0,0,8-8V28a8,8,0,0,0-8-8H351a8,8,0,0,0-8,8V51H319V28a8,8,0,0,0-8-8H275a8,8,0,0,0-8,8V51H245V28a8,8,0,0,0-8-8H199a8,8,0,0,0-8,8V51H167V28a8,8,0,0,0-8-8H125a8,8,0,0,0-8,8v84a8,8,0,0,0,8,8h25.563l3.121,21.172a429.042,429.042,0,0,1-3.037,143.249L128.6,400H114.177A7.927,7.927,0,0,0,106,407.729v76.516A7.948,7.948,0,0,0,114.177,492H397.823A7.948,7.948,0,0,0,406,484.245V407.729A7.927,7.927,0,0,0,397.823,400ZM133,36h18V59a8,8,0,0,0,8,8h40a8,8,0,0,0,8-8V36h22V59a8,8,0,0,0,8,8h38a8,8,0,0,0,8-8V36h20V59a8,8,0,0,0,8,8h40a8,8,0,0,0,8-8V36h18v68H133Zm33.363,251.423a444.619,444.619,0,0,0,3.15-148.516L166.736,120H345.264l-2.777,18.839a445.022,445.022,0,0,0,3.15,148.584L367.114,400H144.886ZM390,476H122V416H390Z"/></svg>
