<?xml version="1.0"?>
<svg xmlns="http://www.w3.org/2000/svg" id="Layer_1" data-name="Layer 1" viewBox="0 0 512 512" width="512" height="512"><title>Mic</title><path d="M275.384,35.525A96.253,96.253,0,0,0,247.222,106.6L73.763,307.511a8,8,0,0,0,.4,10.885l54.489,54.489a7.984,7.984,0,0,0,5.659,2.343,7.808,7.808,0,0,0,5.148-1.934L221,303.124V341.75a8.33,8.33,0,0,0,8.132,8.25H248V456H185.253A8.011,8.011,0,0,0,177,463.75v33a8.436,8.436,0,0,0,8.253,8.25h143A8.007,8.007,0,0,0,336,496.75v-33a7.578,7.578,0,0,0-7.747-7.75H264V350h20.375c4.418,0,7.625-3.832,7.625-8.25V241.867l48.635-41.656c.941.027,1.976.067,2.917.067A96.513,96.513,0,1,0,275.384,35.525ZM320,489H193V472H320ZM134.717,356.325,90.732,312.339,108.3,291.988l46.8,46.805ZM276,334H237V289.367l39-33.742Zm-108.727-5.668-48.486-48.487,131.367-152.16a96.256,96.256,0,0,0,69.551,69.581Zm233.321-167.6a80.5,80.5,0,1,1,0-113.9A80.626,80.626,0,0,1,400.594,160.734Z"/><path d="M239.212,182.037a8,8,0,0,0-11.314,0l-44.441,44.442a8,8,0,0,0,0,11.313l26.184,26.184a8,8,0,0,0,11.313,0L265.4,219.534a8,8,0,0,0,0-11.314ZM215.3,247.005l-14.87-14.87,33.128-33.128,14.87,14.87Z"/></svg>
