<svg height="468pt" viewBox="0 -2 468 467" width="468pt" xmlns="http://www.w3.org/2000/svg"><path d="m436.972656 246.5h-22.082031c3.332031-5.269531 5.101563-11.378906 5.109375-17.613281v-.046875c-.160156-18.570313-15.195312-33.570313-33.765625-33.683594-15.753906 0-30.234375 7.5625-41.234375 21.964844v-21.332032c13.671875-4.785156 22.875-17.636718 23-32.121093v-43.730469c.007812-8.914062-3.546875-17.464844-9.878906-23.746094-6.328125-6.277344-14.90625-9.769531-23.820313-9.691406h-48.0625l3.5-14.285156c3.421875-13.75 1.703125-28.273438-4.839843-40.839844-6.503907-12.59375-17.546876-22.25-30.894532-27.015625-26.449218-9.386719-55.835937 1.355469-69.992187 25.589844-10.082031-17.390625-28.867188-28.449219-50.378907-29.449219h-.171874c-11.6875.070312-23.082032 3.640625-32.714844 10.253906-19.519532 13.199219-28.71875 38.0625-22.894532 61.375l3.511719 14.371094h-47.183593c-18.667969 0-34.179688 14.773438-34.179688 33.4375v43.730469c0 14.9375 10 27.640625 24 32.121093v223.773438c0 23.417969 18.558594 42.9375 41.980469 42.9375h354.148437c16.929688 0 30.871094-14.238281 30.871094-31.167969v-102.832031h8.675781c4.515625-.054688 8.1875-3.660156 8.324219-8.175781v-43.003907c-.164062-17.035156-13.992188-30.773437-31.027344-30.820312zm-83.734375-13.417969c9.160157-14.585937 20.238281-21.953125 32.878907-21.953125 9.761718.070313 17.667968 7.945313 17.777343 17.707032.085938 4.667968-1.71875 9.171874-4.996093 12.496093-3.277344 3.324219-7.757813 5.1875-12.425782 5.167969h-40.167968c1.9375-4.65625 4.257812-9.144531 6.933593-13.417969zm-141.238281-130.582031v79h-56v-79zm0 95v57.089844c-6.328125 5.871094-9.945312 14.097656-10 22.730468v43.003907c.007812 4.464843 3.585938 8.097656 8.046875 8.175781h1.953125v118h-56v-249zm16 0h43.640625c-12.496094 5-21.640625 17.164062-21.640625 31.339844v.046875c.015625 6.238281 1.796875 12.34375 5.140625 17.613281h-22.390625c-1.589844.0625-3.175781.214844-4.75.464844zm101 25.015625c-9-12.707031-18.800781-21.015625-30.371094-25.015625h30.371094zm-62.867188 6.335937c.097657-9.761718 7.96875-17.65625 17.730469-17.78125 21.691407 0 34.226563 22.429688 39.835938 35.429688h-40.144531c-4.664063.023438-9.144532-1.835938-12.421876-5.160156-3.28125-3.320313-5.082031-7.824219-5-12.488282zm85.867188-108.914062v43.730469c.027344 4.714843-1.824219 9.246093-5.144531 12.59375-3.320313 3.347656-7.839844 5.230469-12.554688 5.238281h-106.300781v-79h106.300781c4.671875-.082031 9.183594 1.722656 12.511719 5.003906 3.328125 3.277344 5.199219 7.761719 5.1875 12.433594zm-117.855469-102.96875c4.945313-.046875 9.859375.769531 14.523438 2.417969 19.414062 6.886719 30.636719 28.511719 25.546875 48.964843l-4.46875 18.148438h-77.746094v-26.121094c-.03125-.296875-.089844-.589844-.171875-.878906h.050781s-.019531-.691406-.023437-1.050781c.980469-22.878907 19.566406-41.304688 42.289062-41.480469zm-140.769531 51.394531c-4.199219-16.816406 2.363281-34.800781 16.332031-44.253906 6.980469-4.847656 15.253907-7.5 23.753907-7.609375h.125c23.035156 1 41.875 18.820312 42.363281 41.726562-.019531.640626.050781 1.507813.050781 2.152344v26.121094h-78.140625zm-77.375 95.304688v-43.730469c0-9.84375 8.332031-17.4375 18.179688-17.4375h105.820312v79h-105.820312c-9.917969.027344-18.015626-7.917969-18.179688-17.832031zm24 255.894531v-222.0625h100v249h-74.019531c-14.597657 0-25.980469-12.339844-25.980469-26.9375zm209.898438 26.9375c-8.105469 0-14.898438-7.0625-14.898438-15.167969v-102.832031h64v118zm65.101562 0v-118h40v118zm120-15.167969c0 8.105469-6.765625 15.167969-14.871094 15.167969h-49.128906v-118h64zm17-118.832031h-234v-35.179688c.023438-8.148437 6.601562-14.761718 14.75-14.820312h204.222656c8.203125.039062 14.875 6.617188 15.027344 14.820312zm0 0"/></svg>