<svg height="459pt" viewBox="-56 0 459 459.654" width="459pt" xmlns="http://www.w3.org/2000/svg"><path d="m174.152344 0c-95.769532 0-173.824219 73.96875-173.824219 164.886719 0 62.613281 37.824219 120.175781 96.824219 148.050781v107.566406c.132812 21.542969 17.546875 38.984375 39.089844 39.148438h75.183593c21.398438 0 38.726563-17.75 38.726563-39.148438v-107.542968c27.714844-12.804688 51.546875-32.707032 69.082031-57.695313 18.570313-26.480469 28.550781-58.035156 28.585937-90.378906 0-90.917969-77.894531-164.886719-173.667968-164.886719zm-61 349.652344h121v18h-121zm69.570312-231.070313 35.707032 58.433594c8.953124 14.644531 10.035156 32.785156 2.886718 48.390625-7.148437 15.605469-21.59375 26.628906-38.53125 29.410156zm-16-.484375.0625 136.925782c-11.101562-1.558594-21.386718-6.71875-29.269531-14.6875l-.03125-.03125c-17.050781-16.921876-20.035156-43.429688-7.175781-63.71875zm-53.570312 265.554688h121v19h-121zm98.273437 60h-75.183593c-12.710938-.152344-22.96875-10.4375-23.089844-23.148438v-1.851562h121v1.851562c0 12.574219-10.152344 23.148438-22.726563 23.148438zm94.710938-197.519532c-16.867188 24.007813-40.113281 42.816407-67.113281 54.300782-2.941407 1.261718-4.851563 4.144531-4.871094 7.34375v25.875h-51.332032l-.027343-62.679688c22.769531-2.832031 42.542969-17.027344 52.511719-37.695312 9.964843-20.667969 8.761718-44.980469-3.195313-64.558594l-50.570313-83c-1.417968-2.429688-3.984374-3.964844-6.792968-4.066406h-.035156c-2.796876.097656-5.355469 1.605468-6.789063 4.011718l-51.183594 82.320313c-12.328125 19.746094-13.644531 44.449219-3.476562 65.394531 10.167969 20.945313 30.386719 35.191406 53.53125 37.71875l.027343 62.554688h-53.667968v-25.871094c.0625-3.15625-1.773438-6.042969-4.65625-7.332031-55.992188-24.421875-92.101563-77.632813-92.101563-135.5625 0-82.101563 70.773438-148.886719 157.722657-148.886719 86.945312 0 157.699218 66.789062 157.699218 148.886719-.023437 29.074219-8.988281 57.4375-25.679687 81.246093zm0 0"/></svg>