<?xml version="1.0"?>
<svg xmlns="http://www.w3.org/2000/svg" id="Layer_1" data-name="Layer 1" viewBox="0 0 512 512" width="512" height="512"><title>Rupees Bag</title><path d="M429.631,171.677A7.823,7.823,0,0,0,421.709,165H354V111.564a98,98,0,1,0-196,0V165H90.291a7.823,7.823,0,0,0-7.922,6.677L37.583,489.556a8.365,8.365,0,0,0,1.884,6.527A8.157,8.157,0,0,0,45.505,499H466.5a8.211,8.211,0,0,0,6.038-2.969,8.007,8.007,0,0,0,1.884-6.367ZM174,111.564a82,82,0,1,1,164,0V165H174ZM54.711,483,97.243,181H158v44.209a8,8,0,0,0,16,0V181H338v44.209a8,8,0,1,0,16,0V181h60.757l42.532,302Z"/><path d="M256,239.341A97.159,97.159,0,1,0,353.159,336.5,97.269,97.269,0,0,0,256,239.341Zm0,178.318A81.159,81.159,0,1,1,337.159,336.5,81.251,81.251,0,0,1,256,417.659Z"/><path d="M256,209.059A127.441,127.441,0,1,0,383.441,336.5,127.586,127.586,0,0,0,256,209.059Zm0,238.882A111.441,111.441,0,1,1,367.441,336.5,111.567,111.567,0,0,1,256,447.941Z"/><path d="M293.982,296a8,8,0,0,0-8-8H226.018a8,8,0,0,0,0,16h17.159a17.556,17.556,0,0,1,15.8,10H226.018a8,8,0,0,0,0,16h32.958c-2.93,6-8.9,9-15.8,9H226.018a8.255,8.255,0,0,0-5.5,14.163l42.887,40.584A7.981,7.981,0,1,0,274.4,382.169l-28.391-26.694A33.5,33.5,0,0,0,275.945,330h10.037a8,8,0,0,0,0-16H275.938a30.263,30.263,0,0,0-4.084-10h14.128A8,8,0,0,0,293.982,296Z"/></svg>
