<svg height="492pt" viewBox="0 0 492.00242 492" width="492pt" xmlns="http://www.w3.org/2000/svg"><path d="m462.085938 225h-.484376c-4.78125.109375-9.460937 1.417969-13.601562 3.808594v-23.097656c-.046875-10.703126-5.792969-20.570313-15.082031-25.894532-9.285157-5.320312-20.703125-5.292968-29.960938.074219-3.621093-12.941406-15.417969-21.890625-28.855469-21.890625h-.515624c-10.3125-.007812-19.898438 5.3125-25.351563 14.066406-23.710937-32.828125-61.738281-52.277344-102.234375-52.289062-.113281 0-.222656 0-.335938 0l-47.347656-84.921875c-12-21.507813-34.695312-34.839844-59.328125-34.855469h-71c-37.457031.0507812-67.824219 30.386719-67.9140622 67.847656-.0585938 61.277344-.1210938 130.121094-.0234376 169.175782.0546878 16.488281 13.3749998 29.859374 29.8632808 29.976562h.484376c4.78125-.105469 9.460937-1.417969 13.601562-3.808594v23.101563c.046875 10.703125 5.792969 20.570312 15.082031 25.890625 9.285157 5.324218 20.703125 5.296875 29.960938-.070313 3.621093 12.941407 15.417969 21.890625 28.855469 21.886719h.515624c10.3125.007812 19.898438-5.308594 25.347657-14.0625 23.714843 32.828125 61.742187 52.277344 102.238281 52.289062h.335938l47.347656 84.917969c12 21.507813 34.695312 34.84375 59.328125 34.855469h71c37.460937-.046875 67.828125-30.382812 67.914062-67.84375.0625-61.277344.121094-130.121094.023438-169.175781-.050781-16.492188-13.375-29.863281-29.863281-29.980469zm-330.085938 79.214844c.054688 3.636718-1.351562 7.144531-3.90625 9.738281-2.550781 2.589844-6.039062 4.050781-9.675781 4.046875h-.519531c-7.644532.027344-13.867188-6.144531-13.898438-13.789062v-138.210938h-16v120.289062c0 7.730469-6.269531 14-14 14s-14-6.269531-14-14v-120.289062h-16v70.746094c0 7.644531-5.957031 14.253906-13.601562 14.253906h-.484376c-7.675781-.101562-13.84375-6.34375-13.863281-14.019531-.101562-39.027344-.035156-107.753907.023438-169.019531.0625-28.65625 23.261719-51.875 51.917969-51.960938h71c18.828124.007812 36.175781 10.199219 45.351562 26.640625l43.714844 78.398437c-12.265625 1.75-24.203125 5.3125-35.421875 10.570313l-2.527344-2.871094c-2.199219-2.492187-5.710937-3.367187-8.824219-2.191406-3.109375 1.171875-5.171875 4.144531-5.175781 7.46875l-.007813 6.917969c-52.484374 34.847656-71.292968 103.027344-44.101562 159.859375zm3.757812-58.214844c0-60.882812 49.355469-110.242188 110.242188-110.242188s110.242188 49.359376 110.242188 110.242188c0 60.886719-49.355469 110.242188-110.242188 110.242188-60.855469-.066407-110.171875-49.382813-110.242188-110.242188zm340.167969 178.140625c-.070312 28.632813-23.28125 51.824219-51.917969 51.859375h-71c-18.828124-.007812-36.175781-10.195312-45.351562-26.636719l-43.714844-78.398437c12.265625-1.753906 24.203125-5.316406 35.421875-10.574219l2.527344 2.871094c2.199219 2.496093 5.710937 3.367187 8.824219 2.195312 3.109375-1.171875 5.171875-4.148437 5.175781-7.472656l.007813-6.914063c10.476562-6.996093 19.855468-15.507812 27.832031-25.257812v.550781l16 .066407c.003906-1.558594.003906-11.476563 0-25.675782 16.769531-34.566406 16.867187-74.890625.269531-109.542968v-3.421876c-.054688-3.640624 1.351562-7.148437 3.90625-9.738281 2.550781-2.59375 6.039062-4.050781 9.675781-4.050781h.515625c7.648438-.027344 13.871094 6.148438 13.902344 13.792969v138.207031h16v-120.285156c0-7.734375 6.269531-14 14-14s14 6.265625 14 14v120.285156h16v-70.742188c0-7.644531 5.957031-14.257812 13.601562-14.257812h.484376c7.675781.105469 13.847656 6.34375 13.863281 14.019531.097656 39.03125.039062 107.855469-.023438 169.121094zm0 0"/><path d="m256.15625 310.339844c7.902344 0 15.734375-1.457032 23.105469-4.300782 2.699219-1.003906 4.648437-3.378906 5.109375-6.222656.457031-2.84375-.648438-5.714844-2.894532-7.515625-2.246093-1.800781-5.289062-2.253906-7.964843-1.191406-21.875 8.4375-46.652344-.039063-58.773438-20.109375h45.261719c4.417969 0 8-3.582031 8-8s-3.582031-8-8-8h-51.367188c-.804687-4.28125-1.027343-8.65625-.667968-13h57.035156c4.417969 0 8-3.582031 8-8s-3.582031-8-8-8h-52.898438c10.585938-23.3125 37.519532-34.324219 61.410157-25.109375 4.117187 1.570313 8.730469-.488281 10.316406-4.601563 1.582031-4.113281-.460937-8.730468-4.566406-10.328124-16.460938-6.355469-34.8125-5.667969-50.75 1.90625-15.933594 7.570312-28.058594 21.359374-33.53125 38.132812h-12.980469c-4.417969 0-8 3.582031-8 8s3.582031 8 8 8h9.933594c-.269532 4.339844-.105469 8.695312.496094 13h-10.429688c-4.417969 0-8 3.582031-8 8s3.582031 8 8 8h14.835938c10.046874 23.863281 33.429687 39.371094 59.320312 39.339844zm0 0"/></svg>