<svg height="484pt" viewBox="0 -94 484.004 484" width="484pt" xmlns="http://www.w3.org/2000/svg"><path d="m42.851562 112.003906h143.964844c1.847656.101563 3.652344-.570312 4.980469-1.851562 1.328125-1.285156 2.0625-3.066406 2.019531-4.914063l-.910156-62.179687c-.042969-3.855469-3.144531-6.980469-7-7.054688h-143.054688c-3.867187 0-6.851562 3.566406-6.851562 7.433594v62.019531c-.015625 1.792969.710938 3.515625 2.007812 4.753907 1.296876 1.238281 3.050782 1.886718 4.84375 1.792968zm47.148438-14v-48h41v48zm89.714844 0h-34.714844v-48h34.007812zm-129.714844-48h26v48h-26zm0 0"/><path d="m476.785156 223.902344h-55.785156v-217.390625c0-3.867188-2.992188-6.50781275-6.859375-6.50781275h-406.855469c-3.867187 0-7.285156 2.64062475-7.285156 6.50781275v224.390625c.128906 3.9375 3.34375 7.074218 7.285156 7.101562h28.785156c2.851563 24.953125 23.984376 43.792969 49.105469 43.773438 25.117188-.019532 46.21875-18.890625 49.035157-43.851563l279.929687-.011719.164063-.007812h55.699218v51.59375c0 3.863281 3.132813 7 7 7 3.867188 0 7-3.136719 7-7v-58.597656c-.101562-3.910156-3.308594-7.019532-7.21875-7zm-69.785156-124.898438h-58v-85h58zm-393-85h321v91.921875c-.007812 3.878907 3.113281 7.039063 6.992188 7.078125h65.007812v110.898438h-103v-180.464844c0-3.867188-2.660156-7.433594-6.527344-7.433594h-79.453125c-3.867187 0-7.019531 3.566406-7.019531 7.433594v180.566406h-21.628906c-.007813 0-.015625-.054687-.023438-.054687l-55.550781-.023438c-4.121094-23.664062-24.667969-40.933593-48.6875-40.914062s-44.542969 17.320312-48.625 40.992187h-22.484375zm276 209.898438h-65v-173.898438h65zm-204.859375 43.824218c-19.546875 0-35.390625-15.84375-35.390625-35.390624 0-19.546876 15.84375-35.390626 35.390625-35.390626s35.390625 15.84375 35.390625 35.390626c-.023438 19.535156-15.855469 35.371093-35.390625 35.390624zm0 0"/></svg>