<svg height="442pt" viewBox="-56 0 442 442.00021" width="442pt" xmlns="http://www.w3.org/2000/svg"><path d="m64.046875 266h152.691406c3.316407 0 6-2.6875 6-6s-2.683593-6-6-6h-146.738281v-143.371094c0-3.3125-2.6875-6-6-6s-6 2.6875-6 6v149.847656c0 3.316407 2.734375 5.523438 6.046875 5.523438zm0 0"/><path d="m112.386719 232.355469c6.75.003906 13.164062-2.957031 17.546875-8.09375 4.382812-5.136719 6.292968-11.9375 5.222656-18.605469l18.011719-8.300781c5.957031 5.777343 14.558593 7.902343 22.519531 5.570312 7.964844-2.332031 14.058594-8.761719 15.957031-16.839843 1.898438-8.074219-.6875-16.546876-6.777343-22.183594l9.578124-17.089844c11.464844 1.652344 22.382813-5.445312 25.527344-16.59375 3.148438-11.148438-2.449218-22.90625-13.085937-27.492188-10.640625-4.585937-23.03125-.585937-28.976563 9.355469-5.949218 9.941407-3.617187 22.75 5.457032 29.957031l-9.136719 16.296876c-7.894531-1.746094-16.128907.769531-21.695313 6.628906-5.566406 5.863281-7.65625 14.214844-5.507812 22.007812l-16.785156 7.734375c-6.785157-8.304687-18.398438-10.835937-28.023438-6.105469-9.625 4.726563-14.714844 15.46875-12.289062 25.910157 2.429687 10.445312 11.738281 17.835937 22.460937 17.835937zm85.300781-119.421875c6.105469 0 11.058594 4.953125 11.058594 11.0625 0 6.105468-4.953125 11.058594-11.0625 11.058594-6.105469 0-11.058594-4.953126-11.058594-11.0625.007812-6.105469 4.957031-11.054688 11.0625-11.058594zm-28.433594 56.867187c1.402344 0 2.792969.269531 4.09375.792969.527344.40625 1.128906.710938 1.765625.898438 4.65625 2.933593 6.441407 8.847656 4.183594 13.867187-2.253906 5.019531-7.859375 7.609375-13.144531 6.078125-5.285156-1.535156-8.632813-6.726562-7.851563-12.171875s5.453125-9.484375 10.953125-9.472656zm-56.867187 28.433594c3.878906.003906 7.472656 2.042969 9.46875 5.375.164062.902344.542969 1.75 1.113281 2.472656 1.382812 4.566407-.316406 9.503907-4.214844 12.253907-3.902344 2.746093-9.125 2.683593-12.957031-.160157s-5.410156-7.820312-3.914063-12.351562c1.5-4.53125 5.730469-7.589844 10.503907-7.589844zm0 0"/><path d="m6.03125 442h317.9375c3.316406.019531 6.015625-2.65625 6.03125-5.972656v-351.910156c-.007812-.371094-.046875-.746094-.125-1.113282 0-.015625-.011719-.03125-.011719-.042968-.074219-.355469-.179687-.707032-.3125-1.042969l-.023437-.058594c-.136719-.328125-.300782-.644531-.492188-.941406-.015625-.027344-.03125-.054688-.046875-.078125-.191406-.292969-.410156-.570313-.652343-.828125-.015626-.015625-.027344-.035157-.042969-.050781l-75.097657-78.148438-.042968-.039062c-.082032-.082032-.167969-.160157-.253906-.238282-.058594-.054687-.117188-.109375-.179688-.160156-.101562-.085938-.199219-.160156-.308594-.238281-.054687-.039063-.097656-.082031-.160156-.117188-.136719-.097656-.28125-.183593-.429688-.265625-.023437-.015625-.042968-.015625-.066406-.027344-.886718-.484374-1.878906-.7343745-2.890625-.726562h-242.832031c-3.3125-.0195312-6.015625 2.65625-6.03125 5.972656v430.054688c.015625 3.316406 2.71875 5.992187 6.03125 5.972656zm248.96875-421.125 54.878906 57.125h-54.878906zm-243-8.875h231v72.117188c-.027344 1.566406.582031 3.074218 1.6875 4.183593s2.613281 1.722657 4.175781 1.699219h69.136719v340h-306zm0 0"/><path d="m265.699219 360h-207.210938c-3.316406 0-6 2.6875-6 6s2.683594 6 6 6h207.210938c3.316406 0 6-2.6875 6-6s-2.683594-6-6-6zm0 0"/><path d="m58.488281 321h120.039063c3.316406 0 6-2.6875 6-6s-2.683594-6-6-6h-120.039063c-3.316406 0-6 2.6875-6 6s2.683594 6 6 6zm0 0"/></svg>