<svg height="490pt" viewBox="-114 0 490 490" width="490pt" xmlns="http://www.w3.org/2000/svg"><path d="m7.929688 366.929688c0 67.96875 55.097656 123.070312 123.070312 123.070312s123.070312-55.101562 123.070312-123.070312c0-67.972657-55.097656-123.074219-123.070312-123.074219-67.9375.078125-122.996094 55.132812-123.070312 123.074219zm234.140624 0c0 61.339843-49.726562 111.070312-111.070312 111.070312s-111.070312-49.730469-111.070312-111.070312c0-61.34375 49.726562-111.074219 111.070312-111.074219 61.3125.070312 111 49.757812 111.070312 111.074219zm0 0"/><path d="m92 313.480469v2.519531h-25.699219c-5.585937-.078125-10.96875 2.066406-14.96875 5.96875-3.996093 3.898438-6.273437 9.230469-6.332031 14.8125v19.089844c-.078125 5.671875 3.003906 10.914062 8 13.601562v53.808594c.085938 9.699219 7.886719 17.558594 17.585938 17.71875h120.828124c9.695313-.160156 17.496094-8.015625 17.585938-17.714844v-53.636718c4.921875-2.140626 8.078125-7.027344 8-12.394532v-20.472656c-.058594-5.582031-2.335938-10.914062-6.332031-14.8125-4-3.902344-9.382813-6.046875-14.96875-5.96875h-25.699219v-2.519531c-.15625-11.296875-9.3125-20.394531-20.609375-20.480469h-36.78125c-11.296875.085938-20.453125 9.183594-20.609375 20.480469zm99.414062 115.519531h-120.828124c-3.070313-.152344-5.503907-2.640625-5.585938-5.714844v-49.8125l44 13.222656v1.5c0 12.148438 9.851562 22 22 22s22-9.851562 22-22v-2.09375l44-12.789062v49.96875c-.082031 3.074219-2.515625 5.566406-5.585938 5.71875zm-70.414062-40.800781v-12.199219h20v12.199219c.117188 3.648437-1.765625 7.070312-4.90625 8.929687-3.140625 1.855469-7.046875 1.855469-10.1875 0-3.140625-1.859375-5.023438-5.28125-4.90625-8.929687zm84-51.414063v20.472656c-.109375.730469-.648438 1.324219-1.367188 1.503907l-50.632812 14.839843v-3.316406c0-3.3125-2.359375-6.28125-5.671875-6.28125h-32.65625c-3.3125 0-5.671875 2.96875-5.671875 6.28125v3.867188l-49.269531-14.921875c-1.535157-.417969-2.632813-1.769531-2.730469-3.359375v-19.089844c0-5.039062 4.257812-8.78125 9.300781-8.78125h129.398438c5.042969 0 9.300781 3.742188 9.300781 8.78125zm-47-23.300781v2.515625h-54v-2.519531c.148438-4.671875 3.9375-8.402344 8.609375-8.480469h36.78125c4.671875.078125 8.460937 3.808594 8.609375 8.480469zm0 0"/><path d="m262 45.007812v-39.007812c0-3.3125-2.6875-6-6-6h-250c-3.3125 0-6 2.6875-6 6v39.007812c.0820312 1.734376.886719 3.351563 2.214844 4.46875l99.785156 89.242188v96.855469c-.085938 2.128906 1.003906 4.136719 2.835938 5.226562.859374.503907 1.839843.773438 2.835937.773438 1.078125 0 2.136719-.300781 3.054687-.871094l46.628907-28.414063c1.734375-1.117187 2.742187-3.070312 2.644531-5.132812v-68.4375l99.785156-89.242188c1.328125-1.117187 2.132813-2.734374 2.214844-4.46875zm-12-33.007812v25h-238v-25zm-99.785156 119.742188c-1.320313 1.046874-2.128906 2.613281-2.214844 4.292968v67.742188l-34 21.144531v-88.886719c-.085938-1.679687-.894531-3.246094-2.214844-4.292968l-92.730468-82.742188h223.890624zm0 0"/></svg>