<svg height="465pt" viewBox="0 -25 465.00945 465" width="465pt" xmlns="http://www.w3.org/2000/svg"><path d="m299.609375 169.292969-18.886719-35.773438c-1.382812-2.621093-4.109375-4.261719-7.074218-4.261719-.9375 0-1.847657.496094-2.707032.496094h-75.882812c-.859375 0-1.769532-.496094-2.707032-.496094-2.96875 0-5.691406 1.640626-7.074218 4.265626l-18.886719 35.773437c-2.511719 1.414063-4.066406 4.074219-4.066406 6.960937 0 16.320313 13.191406 29.105469 30.027343 29.105469 16.835938 0 30.023438-12.785156 30.023438-29.105469 0-2.882812-1.550781-5.542968-4.0625-6.960937l-12.433594-23.542969h19.121094v64h-6.089844c-4.417968 0-8 3.578125-8 8 0 4.417969 3.582032 8 8 8h28.179688c4.417968 0 8-3.582031 8-8 0-4.421875-3.582032-8-8-8h-6.089844v-64h19.121094l-12.433594 23.542969c-2.511719 1.417969-4.0625 4.078125-4.0625 6.960937 0 16.320313 13.1875 29.105469 30.023438 29.105469 16.835937 0 30.027343-12.785156 30.027343-29.105469-.003906-2.886718-1.554687-5.546874-4.066406-6.964843zm-18.640625-.539063h-14.640625l7.320313-13.867187zm-88.617188-13.867187 7.320313 13.867187h-14.640625zm0 34.972656c-4.296874.015625-8.382812-1.851563-11.1875-5.105469h22.371094c-2.800781 3.253906-6.886718 5.121094-11.183594 5.105469zm81.300782 0c-4.296875.015625-8.386719-1.851563-11.1875-5.105469h22.371094c-2.804688 3.253906-6.890626 5.121094-11.1875 5.105469zm0 0"/><path d="m457.5 218.753906h-113.5v-117.253906c.09375-2.238281-.78125-4.40625-2.398438-5.953125l-104.019531-93.496094c-3.027343-2.742187-7.648437-2.726562-10.660156.035157l-103.082031 93.492187c-1.730469 1.496094-2.757813 3.640625-2.839844 5.921875v117.253906h-112.5c-4.417969 0-8.5 3.328125-8.5 7.746094v181c.214844 4.5625 3.933594 8.171875 8.5 8.253906h449c4.417969 0 7.5-3.835937 7.5-8.253906v-181c.101562-2.042969-.644531-4.035156-2.066406-5.503906s-3.390625-2.28125-5.433594-2.242188zm-225.101562-199.714844 83.214843 74.714844h-165.414062zm36.601562 380.714844h-72v-37.855468c0-19.882813 16.117188-36 36-36s36 16.117187 36 36zm180 0h-164v-37.855468c0-28.71875-23.28125-52-52-52s-52 23.28125-52 52v37.855468h-165v-165h113.5c4.417969 0 7.5-3.835937 7.5-8.253906v-116.746094h191v116.746094c.214844 4.5625 3.933594 8.171875 8.5 8.253906h112.5zm0 0"/><path d="m358 259.753906c0-4.421875-3.582031-8-8-8h-29c-4.417969 0-8 3.578125-8 8v37c0 4.417969 3.582031 8 8 8h29c4.417969 0 8-3.582031 8-8zm-29 8h13v21h-13zm0 0"/><path d="m420 259.753906c0-4.421875-3.582031-8-8-8h-29c-4.417969 0-8 3.578125-8 8v37c0 4.417969 3.582031 8 8 8h29c4.417969 0 8-3.582031 8-8zm-29 8h13v21h-13zm0 0"/><path d="m358 340.753906c0-4.421875-3.582031-8-8-8h-29c-4.417969 0-8 3.578125-8 8v37c0 4.417969 3.582031 8 8 8h29c4.417969 0 8-3.582031 8-8zm-16 29h-13v-21h13zm0 0"/><path d="m420 340.753906c0-4.421875-3.582031-8-8-8h-29c-4.417969 0-8 3.578125-8 8v37c0 4.417969 3.582031 8 8 8h29c4.417969 0 8-3.582031 8-8zm-29 8h13v21h-13zm0 0"/><path d="m91 259.753906c0-4.421875-3.582031-8-8-8h-29c-4.417969 0-8 3.578125-8 8v37c0 4.417969 3.582031 8 8 8h29c4.417969 0 8-3.582031 8-8zm-16 29h-13v-21h13zm0 0"/><path d="m153 259.753906c0-4.421875-3.582031-8-8-8h-29c-4.417969 0-8 3.578125-8 8v37c0 4.417969 3.582031 8 8 8h29c4.417969 0 8-3.582031 8-8zm-16 29h-13v-21h13zm0 0"/><path d="m226 259.753906c0-4.421875-3.582031-8-8-8h-29c-4.417969 0-8 3.578125-8 8v37c0 4.417969 3.582031 8 8 8h29c4.417969 0 8-3.582031 8-8zm-16 29h-13v-21h13zm0 0"/><path d="m288 259.753906c0-4.421875-3.582031-8-8-8h-29c-4.417969 0-8 3.578125-8 8v37c0 4.417969 3.582031 8 8 8h29c4.417969 0 8-3.582031 8-8zm-16 29h-13v-21h13zm0 0"/><path d="m91 340.753906c0-4.421875-3.582031-8-8-8h-29c-4.417969 0-8 3.578125-8 8v37c0 4.417969 3.582031 8 8 8h29c4.417969 0 8-3.582031 8-8zm-16 29h-13v-21h13zm0 0"/><path d="m153 340.753906c0-4.421875-3.582031-8-8-8h-29c-4.417969 0-8 3.578125-8 8v37c0 4.417969 3.582031 8 8 8h29c4.417969 0 8-3.582031 8-8zm-16 29h-13v-21h13zm0 0"/></svg>