<svg height="496pt" viewBox="-20 0 496 496.00079" width="496pt" xmlns="http://www.w3.org/2000/svg"><path d="m7.96875 273h29.855469c-12.820313 13.453125-21.15625 31.4375-21.15625 51.179688v105.179687c0 4.421875 4.058593 7.640625 8.476562 7.640625h249.523438v51.453125c0 4.417969 4.039062 7.546875 8.457031 7.546875h164.242188c4.417968 0 8.300781-3.128906 8.300781-7.546875v-164.242187c-.121094-4.515626-3.78125-8.136719-8.300781-8.210938h-106.210938c-1.929688-16.140625-9.03125-31.226562-20.242188-43h29.855469c3.894531 0 7.222657-2.804688 7.882813-6.644531.660156-3.839844-1.542969-7.59375-5.214844-8.894531-26.085938-9.238282-43.050781-45.324219-52.6875-73.972657-6.042969-18.332031-10.714844-37.089843-13.976562-56.117187 14.011718-4.160156 21.0625-10.4375 21.0625-19.8125 0-3.464844-2.230469-6.535156-5.523438-7.605469l-25.4375-8.285156-.339844-7.683594c-1.957031-47.078125-40.796875-84.183594-87.914062-83.984375h-18.464844c-47.121094-.199219-85.964844 36.902344-87.921875 83.984375l-.339844 7.800781-25.46875 8.226563c-3.292969 1.058593-5.527343 4.121093-5.527343 7.578125 0 9.472656 7.199218 15.773437 21.511718 19.933594-3.335937 18.972656-8.070312 37.671874-14.164062 55.949218-9.75 28.65625-26.847656 64.75-52.949219 74-3.65625 1.3125-5.839844 5.058594-5.179687 8.886719.65625 3.824219 3.96875 6.625 7.851562 6.640625zm24.699219 51.179688c0-32.742188 28.085937-59.179688 62.023437-59.179688h14.199219l-11.238281 41.039062c-.703125 2.601563-.042969 5.386719 1.757812 7.394532 1.800782 2.007812 4.492188 2.964844 7.15625 2.550781l38.960938-5.882813 26.140625 28.078126v82.820312h-139zm70-191.558594c20 1.84375 45.601562 2.410156 76.671875 2.410156 28.851562 0 53.328125-.488281 72.328125-2.035156v26.414062c0 39.523438-33.5625 71.675782-74.5 71.675782s-74.5-32.152344-74.5-71.675782zm130.59375 132.378906 9.152343 33.402344-30.847656-4.714844c-2.570312-.40625-5.171875.515625-6.917968 2.453125l-16.980469 18.484375v-20.785156l29.441406-28.839844zm-56.128907-17.914062c9.691407.011718 19.324219-1.519532 28.535157-4.53125v10.875l-26.386719 25.882812-26.613281-25.902344v-9.628906c7.96875 2.1875 16.199219 3.300781 24.464843 3.304688zm-35.757812 17.914062 30.292969 28.859375v20.765625l-17.277344-18.511719c-1.832031-1.945312-4.5-2.871093-7.140625-2.476562l-30.882812 4.765625 9.113281-33.402344zm298.292969 215h-149v-148h41v32.933594c-.046875 2.578125 1.171875 5.015625 3.265625 6.523437 2.09375 1.507813 4.796875 1.890625 7.226562 1.023438l23.113282-8.117188 23.128906 8.117188c.847656.300781 1.742187.453125 2.640625.453125 1.601562 0 3.15625-.519532 4.441406-1.476563 2.066406-1.519531 3.257813-3.957031 3.183594-6.523437v-32.933594h41zm-92-148h35v21.648438l-14.957031-5.3125c-1.644532-.601563-3.453126-.601563-5.097657 0l-14.945312 5.3125zm-64.542969-16c-4.546875.0625-8.257812 3.664062-8.457031 8.210938v96.789062h-87v-82.820312l25.84375-28.089844 38.738281 5.867187c2.664062.40625 5.351562-.570312 7.132812-2.59375 1.792969-1.984375 2.441407-4.75 1.722657-7.324219l-11.257813-41.039062h14.199219c31.136719 0 56.929687 22 60.980469 51zm40.847656-59h-24.820312c-10.925782-5.34375-22.941406-8.082031-35.105469-8h-42.378906v-13.421875c27-15.117187 46-43.597656 46-76.167969v-28.109375c1-.171875 2.355469-.351562 3.546875-.535156 4.046875 23.746094 18.277344 92.734375 52.757812 126.234375zm-153.816406-241h18.464844c38.542968-.183594 70.328125 30.160156 71.933594 68.671875l.253906 5.839844c-47.164063 4.6875-115.671875 4.632812-162.84375-.054688l.257812-5.757812c1.601563-38.515625 33.382813-68.867188 71.933594-68.699219zm-79.6875 89.699219c50.074219 5.601562 127.769531 5.601562 177.832031 0l16.75 5.457031c-4.527343 1.570312-11.988281 3.351562-24.257812 4.765625-18.375 2.117187-44.25 3.105469-81.425781 3.105469-37.175782 0-63.050782-.988282-81.429688-3.105469-12.261719-1.414063-19.722656-3.191406-24.246094-4.765625zm-3.800781 31.375v22.335937c0 34.171875 21 63.839844 50 78.300782v11.289062h-41.976563c-12.164062-.082031-24.179687 2.65625-35.105468 8h-24.792969c31.882812-30.90625 46.875-92.011719 51.875-119.925781zm0 0"/><path d="m325.882812 413h51.585938c4.417969 0 8-3.582031 8-8s-3.582031-8-8-8h-51.582031c-4.417969 0-8 3.582031-8 8s3.582031 8 8 8zm0 0"/><path d="m325.882812 424c-4.417968 0-8 3.582031-8 8s3.582032 8 8 8h78.730469c4.417969 0 8-3.582031 8-8s-3.582031-8-8-8zm0 0"/><path d="m178.269531 92.0625c14.914063 0 27.007813-12.089844 27.007813-27.007812.003906-14.917969-12.089844-27.011719-27.007813-27.011719s-27.011719 12.09375-27.011719 27.011719c.019532 14.910156 12.101563 26.992187 27.011719 27.007812zm0-38.019531c6.078125 0 11.007813 4.929687 11.007813 11.011719 0 6.082031-4.925782 11.011718-11.007813 11.011718s-11.011719-4.933594-11.011719-11.011718c.007813-6.078126 4.933594-11.003907 11.011719-11.011719zm0 0"/></svg>