<?xml version="1.0"?>
<svg xmlns="http://www.w3.org/2000/svg" id="Layer_1" data-name="Layer 1" viewBox="0 0 512 512" width="512" height="512"><title>Hook</title><path d="M423.551,80H415V29.533c0-4.419-3.525-7.533-7.943-7.533H104.943C100.525,22,97,25.114,97,29.533V80H88.45a8.06,8.06,0,0,0-7.856,9.57l40,207.953A7.989,7.989,0,0,0,128.45,304H248v57.41c-34.588,3.7-61.535,31.135-61.535,64.314,0,35.7,31.193,64.743,69.535,64.743s69.535-29.044,69.535-64.743a8,8,0,0,0-16,0c0,26.877-24.015,48.743-53.535,48.743s-53.535-21.866-53.535-48.743,24.015-48.74,53.535-48.74a8,8,0,0,0,8-8V304H383.551a7.981,7.981,0,0,0,7.856-6.467l40-207.954A8.056,8.056,0,0,0,423.551,80ZM113,38H399V80H113ZM376.943,288H135.058L126.6,244H385.406Zm11.54-60H123.517l-13.841-72H402.325ZM405.4,140H106.6L98.135,96h5.288c.493,0,1,.148,1.52.148s1.028-.148,1.52-.148H405.537c.492,0,1,.148,1.52.148S408.084,96,408.576,96h5.289Z"/></svg>
