<svg height="498pt" viewBox="-52 0 498 498.29807" width="498pt" xmlns="http://www.w3.org/2000/svg"><path d="m8.441406 498.296875h317.824219c2.117187.011719 4.152344-.816406 5.65625-2.308594l59.738281-59.574219c1.539063-1.476562 2.433594-3.503906 2.488282-5.636718v-275.074219c-.105469-4.554687-3.738282-8.238281-8.292969-8.40625h-107.667969c9.480469-14 14.984375-32.332031 14.984375-51.25.011719-53.03125-42.964844-96.03125-95.996094-96.046875s-96.035156 42.964844-96.046875 95.996094c0 18.917968 5.5 37.300781 14.984375 51.300781h-48.082031c-2.144531.074219-4.175781.988281-5.652344 2.542969l-59.738281 59.699218c-1.546875 1.523438-2.4375 3.589844-2.492187 5.757813v275.070313c.148437 4.460937 3.832031 7.984374 8.292968 7.929687zm7.707032-275h302v259h-302zm318 247.757813v-252.445313l44-43.59375v252.445313zm-137-454.828126c44.195312 0 80.023437 35.828126 80.023437 80.023438s-35.828125 80.019531-80.023437 80.023438c-44.191407 0-80.019532-35.828126-80.019532-80.023438.046875-44.175781 35.847656-79.972656 80.019532-80.023438zm-125.800782 147.070313h57.535156c5.074219 6 10.71875 10.105469 16.832032 14h-7.566406c-4.417969 0-8 3.582031-8 8s3.582031 8 8 8h112c4.417968 0 8-3.582031 8-8s-3.582032-8-8-8h-1.5625c6.113281-3.894531 11.757812-8 16.832031-14h101.125l-43.59375 44h-295.195313zm0 0"/><path d="m141.148438 110.296875c0 4.417969 3.582031 8 8 8h10.363281c11.152343 24.515625 39.472656 36.097656 64.605469 26.421875 2.675781-1.019531 4.605468-3.394531 5.050781-6.222656.449219-2.828125-.648438-5.683594-2.878907-7.480469-2.230468-1.796875-5.25-2.265625-7.921874-1.226563-14.503907 5.613282-30.972657.921876-40.34375-11.492187h30.125c4.417968 0 8-3.582031 8-8s-3.582032-8-8-8h-36.824219c-.285157-1.984375-.398438-3.992187-.339844-6h42.164063c4.417968 0 8-3.582031 8-8s-3.582032-8-8-8h-37.800782c8.445313-15.199219 26.800782-21.851563 43.019532-15.585937 4.125 1.585937 8.753906-.46875 10.34375-4.589844 1.585937-4.125-.46875-8.753906-4.589844-10.339844-12.824219-4.945312-27.097656-4.492188-39.578125 1.257812-12.484375 5.746094-22.109375 16.300782-26.683594 29.257813h-8.710937c-4.417969 0-8 3.582031-8 8s3.582031 8 8 8h5.84375c-.042969 2.003906.035156 4.007813.230468 6h-6.074218c-4.417969 0-8 3.582031-8 8zm0 0"/></svg>