<svg height="484pt" viewBox="-97 0 483 484" width="484pt" xmlns="http://www.w3.org/2000/svg"><path d="m153.261719 4.027344c-1.421875-2.417969-3.988281-3.9414065-6.792969-4.027344h-.035156c-2.792969.078125-5.351563 1.578125-6.789063 3.972656l-117.269531 188.449219c-27.148438 43.628906-29.160156 98.367187-5.289062 143.871094 23.871093 45.5 70.054687 74.960937 121.378906 77.417969l.230468 62.113281c0 4.445312 3.554688 8.078125 8 8.175781h.027344c4.460938-.105469 8.011719-3.769531 7.972656-8.230469l-.230468-62.085937c69.546875-4.34375 126.082031-57.71875 134.414062-126.902344 3.9375-32.351562-3.019531-65.09375-19.769531-93.050781zm119.738281 280.785156c-7.78125 64.65625-62.722656 113.25-127.84375 113.074219h-.6875c-34.074219-.09375-66.695312-13.816407-90.589844-38.109375l-.03125-.027344c-42.257812-42.265625-49.6875-108.128906-17.902344-158.746094l110.425782-177.363281 109.0625 178.484375c14.890625 24.839844 21.074218 53.9375 17.566406 82.6875zm0 0"/><path d="m206.542969 215h-28.652344l16.175781-39.257812c1.019532-2.417969.738282-5.183594-.746094-7.347657-1.5-2.179687-4-3.457031-6.648437-3.398437h-73.425781c-4.09375-.085938-7.566406 2.992187-7.96875 7.066406l-8.945313 95.816406c-.210937 2.296875.53125 4.582032 2.050781 6.316406 1.496094 1.714844 3.640626 2.730469 5.914063 2.800782h24.839844l-3.84375 65.539062c-.140625 2.1875.640625 4.332032 2.160156 5.910156 1.519531 1.578126 3.636719 2.441407 5.824219 2.382813 2.792968-.011719 5.378906-1.472656 6.828125-3.859375l73.265625-119.929688c1.507812-2.453124 1.5625-5.53125.144531-8.035156-1.421875-2.503906-4.09375-4.039062-6.972656-4.003906zm-63.410157 96.371094 2.472657-42.339844c.125-2.132812-.664063-4.21875-2.167969-5.738281-1.535156-1.542969-3.648438-2.375-5.824219-2.292969h-24.539062l7.453125-80h54.1875l-16.175782 39c-1.019531 2.460938-.734374 5.269531.75 7.480469 1.484376 2.210937 3.980469 3.53125 6.640626 3.519531h26.347656zm0 0"/></svg>