<svg height="482pt" viewBox="-9 0 482 482.48174" width="482pt" xmlns="http://www.w3.org/2000/svg"><path d="m402.054688 272.066406-61.054688 45.652344c-12.542969-15.457031-32.460938-22.917969-52.070312-19.5l-62.128907 10.871094c-9.953125 1.726562-20.164062 1.195312-29.878906-1.558594l-6.949219-1.976562c-35.800781-10.285157-74.371094-2.167969-102.996094 21.667968l-2.71875-15.554687c-.761718-4.351563-4.910156-7.261719-9.261718-6.5l-68.136719 11.917969c-4.351563.761718-7.261719 4.90625-6.5 9.257812l26.152344 149.519531c.761719 4.351563 4.910156 7.261719 9.261719 6.5l68.132812-11.921875c4.351562-.761718 7.261719-4.90625 6.5-9.257812l-1.367188-7.804688 16.050782-13.03125c6.292968-5.242187 14.378906-7.828125 22.542968-7.214844l111.109376 8.121094c.179687.011719.359374.019532.535156.019532h.679687c24.445313-.050782 48.246094-7.839844 67.988281-22.257813.304688-.222656.59375-.46875.863282-.734375l132.347656-129.582031c3.023438-2.960938 3.21875-7.765625.445312-10.960938-15.152343-17.488281-41.367187-19.984375-59.546874-5.671875zm-361.15625 193.160156-23.398438-133.757812 52.375-9.160156 23.398438 133.753906zm277.136718-58.917968c-16.921875 12.160156-37.234375 18.699218-58.074218 18.691406h-.324219l-110.835938-7.964844c-12.269531-.902344-24.410156 2.996094-33.863281 10.875l-9.054688 7.386719-15.644531-89.417969c24.828125-25.132812 61.394531-34.699218 95.347657-24.945312l6.949218 1.984375c12.039063 3.410156 24.6875 4.070312 37.015625 1.929687l62.136719-10.867187c18.117188-3.144531 35.972656 6.808593 42.824219 23.875l-93.4375 16.34375c-4.355469.761719-7.265625 4.90625-6.503907 9.261719.761719 4.351562 4.90625 7.261718 9.257813 6.5l102.136719-17.859376c4.351562-.765624 7.261718-4.910156 6.5-9.261718-.675782-3.863282-1.769532-7.648438-3.253906-11.28125l62.5-46.738282c.054687-.039062.109374-.082031.164062-.125 9.21875-7.328124 22.097656-7.933593 31.960938-1.5zm0 0"/><path d="m363.898438 8c0-4.417969-3.582032-8-8-8h-248c-4.417969 0-8 3.582031-8 8v248c0 4.417969 3.582031 8 8 8h248c4.417968 0 8-3.582031 8-8zm-163 8h62v41.609375l-28.285157-9.902344c-1.75-.601562-3.648437-.601562-5.394531 0l-28.320312 9.902344zm-85 0h69v52.894531c.03125 2.601563 1.3125 5.03125 3.441406 6.523438 2.128906 1.496093 4.847656 1.878906 7.304687 1.023437l36.238281-12.710937 36.230469 12.710937c.855469.300782 1.75.453125 2.652344.453125 1.679687 0 3.316406-.515625 4.695313-1.476562 2.132812-1.492188 3.414062-3.921875 3.4375-6.523438v-52.894531h69v231h-232zm0 0"/><path d="m172.570312 137h77.742188c4.417969 0 8-3.582031 8-8s-3.582031-8-8-8h-77.742188c-4.421874 0-8 3.582031-8 8s3.578126 8 8 8zm0 0"/><path d="m291.230469 162h-118.660157c-4.421874 0-8 3.582031-8 8s3.578126 8 8 8h118.660157c4.417969 0 8-3.582031 8-8s-3.582031-8-8-8zm0 0"/></svg>