<?xml version="1.0"?>
<svg xmlns="http://www.w3.org/2000/svg" id="Layer_1" data-name="Layer 1" viewBox="0 0 512 512" width="512" height="512"><title>Books</title><path d="M482.254,144H435V43.055A6.031,6.031,0,0,0,429.018,37H29.746A5.836,5.836,0,0,0,24,43.055V149.527c0,3.314,2.432,6.473,5.746,6.473H77v94H29.746A5.788,5.788,0,0,0,24,256V362.473A5.4,5.4,0,0,0,29.746,368H77V468.945A6.031,6.031,0,0,0,82.982,475H482.254A5.836,5.836,0,0,0,488,468.945V362.473c0-3.314-2.432-6.473-5.746-6.473H435V262h47.254A5.788,5.788,0,0,0,488,256V149.527A5.4,5.4,0,0,0,482.254,144ZM423,144H169V49H423ZM355,250V156h55v94ZM102,144V49h55v95ZM36,49H90v95H36ZM89,156H343v94H89Zm13,200V262h55v94ZM36,262H90v94H36ZM89,368H343v95H89Zm321,0v95H355V368Zm66,95H422V368h54ZM423,356H169V262H423Zm53-106H422V156h54Z"/><path d="M172.818,236.047a33.284,33.284,0,1,0-33.283-33.283A33.321,33.321,0,0,0,172.818,236.047Zm0-54.567a21.284,21.284,0,1,1-21.283,21.284A21.308,21.308,0,0,1,172.818,181.48Z"/><path d="M339.182,129.575A33.284,33.284,0,1,0,305.9,96.291,33.321,33.321,0,0,0,339.182,129.575Zm0-54.567A21.284,21.284,0,1,1,317.9,96.291,21.307,21.307,0,0,1,339.182,75.008Z"/><path d="M339.182,275.953a33.284,33.284,0,1,0,33.283,33.283A33.321,33.321,0,0,0,339.182,275.953Zm0,54.567a21.284,21.284,0,1,1,21.283-21.284A21.308,21.308,0,0,1,339.182,330.52Z"/><path d="M172.818,382.425A33.284,33.284,0,1,0,206.1,415.709,33.321,33.321,0,0,0,172.818,382.425Zm0,54.567A21.284,21.284,0,1,1,194.1,415.709,21.307,21.307,0,0,1,172.818,436.992Z"/></svg>
