<svg height="490pt" viewBox="-114 0 490 490" width="490pt" xmlns="http://www.w3.org/2000/svg"><path d="m262 45.007812v-39.007812c0-3.3125-2.6875-6-6-6h-250c-3.3125 0-6 2.6875-6 6v39.007812c.0820312 1.734376.886719 3.351563 2.214844 4.46875l99.785156 89.242188v96.855469c-.085938 2.128906 1.003906 4.136719 2.835938 5.226562.859374.503907 1.839843.773438 2.835937.773438 1.078125 0 2.136719-.300781 3.054687-.871094l46.628907-28.414063c1.734375-1.117187 2.742187-3.070312 2.644531-5.132812v-68.4375l99.785156-89.242188c1.328125-1.117187 2.132813-2.734374 2.214844-4.46875zm-12-33.007812v25h-238v-25zm-99.785156 119.742188c-1.320313 1.046874-2.128906 2.613281-2.214844 4.292968v67.742188l-34 21.144531v-88.886719c-.085938-1.679687-.894531-3.246094-2.214844-4.292968l-92.730468-82.742188h223.890624zm0 0"/><path d="m7.929688 366.929688c0 67.96875 55.097656 123.070312 123.070312 123.070312s123.070312-55.101562 123.070312-123.070312c0-67.972657-55.097656-123.074219-123.070312-123.074219-67.9375.078125-122.996094 55.132812-123.070312 123.074219zm53.992187 86.683593c1.695313-15.066406 14.378906-26.492187 29.539063-26.613281h12.65625c2.546874 12.757812 13.742187 21.941406 26.75 21.941406 13.007812 0 24.207031-9.183594 26.75-21.941406h12.917968c15.160156.121094 27.84375 11.546875 29.539063 26.613281-40.417969 32.214844-97.738281 32.214844-138.15625 0zm43.011719-61.273437c-6.988282-6.871094-10.929688-16.257813-10.933594-26.054688v-3.21875c24.53125-4.773437 45.910156-19.679687 58.875-41.042968 1.613281.585937 3.152344 1.359374 4.582031 2.308593 6.574219 4.375 10.476563 11.789063 10.359375 19.6875l.183594 4.210938v17.519531c0 20.375-16.773438 37.25-36.851562 37.25h-.28125c-9.714844.023438-19.042969-3.8125-25.933594-10.660156zm75.066406-44.019532-.160156-4.128906c.234375-11.953125-5.636719-23.207031-15.582032-29.851562-4.011718-2.699219-8.582031-4.457032-13.367187-5.136719-2.476563-.34375-4.910156.875-6.117187 3.066406-19.195313 35.128907-53.109376 39.191407-55.910157 39.46875-3.796875.15625-6.808593 3.25-6.863281 7.050781v7.5c.03125 2.382813.234375 4.761719.605469 7.113282-4.433594-9.070313-6.941407-18.964844-7.359375-29.054688-.40625-9.25 1.523437-18.449218 5.617187-26.753906 6.941407-13.921875 20.101563-24.558594 36.085938-29.179688 8.964843-2.773437 18.652343-1.976562 27.039062 2.226563 7.90625 4.117187 14.09375 10.902344 17.472657 19.148437l.222656.664063c.980468 2.949219 4.054687 4.660156 7.078125 3.941406 1.511719-.355469 9.300781-1.511719 14.363281 11.019531 5.082031 12.597657 4.792969 26.902344-.816406 40.292969-.878906 2.269531-1.875 4.492188-2.984375 6.65625.375-2.183593.597656-4.394531.675781-6.609375zm-64 73.125v-8.917968c4.769531 1.699218 9.800781 2.539062 14.863281 2.472656h.375c5.023438-.054688 10.007813-.90625 14.761719-2.527344v9.652344c0 8.285156-6.714844 15-15 15s-15-6.714844-15-15zm126.070312-54.515624c.019532 28.980468-11.386718 56.804687-31.746093 77.433593-5.484375-17.382812-21.558594-29.246093-39.785157-29.363281h-12.539062v-.488281c4.164062-3.140625 8.070312-6.609375 11.679688-10.371094 10.800781-10.789063 18.785156-22.160156 23.664062-33.800781 6.835938-16.324219 7.164062-33.875.890625-49.417969-4.742187-11.75-13.464844-18.675781-23.105469-18.789063-10.265625-21.496093-34.726562-32.238281-57.5-25.25-19.199218 5.550782-35.054687 18.433594-43.484375 35.355469-4.921875 10.132813-7.207031 21.347657-6.640625 32.597657 1.171875 28.335937 16.5 54.699218 40.5 68.253906v1.910156h-12.542968c-18.226563.117188-34.300782 11.980469-39.785157 29.363281-35.007812-35.832031-41.671875-90.671875-16.273437-133.851562 25.402344-43.175781 76.578125-63.988281 124.902344-50.796875 48.328124 13.191406 81.828124 57.117187 81.769531 107.214844zm0 0"/></svg>