<?xml version="1.0"?>
<svg xmlns="http://www.w3.org/2000/svg" id="Layer_1" data-name="Layer 1" viewBox="0 0 512 512" width="512" height="512"><title>Marketing</title><path d="M222.275,429.765a34.1,34.1,0,1,0,34.1-34.1A34.142,34.142,0,0,0,222.275,429.765Zm52.206,0a18.1,18.1,0,1,1-18.1-18.1A18.124,18.124,0,0,1,274.481,429.765Z"/><path d="M411.412,86.959a8,8,0,0,0-11.3-.458,8.086,8.086,0,0,0-.458,11.375L427.363,128H333.379C304.989,128,280,141.864,264,163.312V34.877l30.244,27.712a8.116,8.116,0,0,0,11.4-.458,8,8,0,0,0-.412-11.3l-43.454-40.09a7.985,7.985,0,0,0-10.835,0l-43.47,40.09A8,8,0,0,0,212.9,64.708a7.525,7.525,0,0,0,5.233-2.119L248,34.877v229.5A83.63,83.63,0,0,0,178.621,228H84.637l27.713-30.124a8.018,8.018,0,0,0-11.763-10.9L60.5,230.445a7.994,7.994,0,0,0,0,10.842l40.089,43.475a7.977,7.977,0,0,0,11.763-10.777L84.638,244h93.983a69.108,69.108,0,0,1,69,69H248v43.59c-36,4-65.427,35.286-65.427,73.175A73.593,73.593,0,1,0,264,356.59V212.86c0-38.047,31.332-68.86,69.379-68.86h93.983l-27.713,29.985a7.979,7.979,0,0,0,11.764,10.784l40.09-43.482a8,8,0,0,0,0-10.849ZM314,429.765a57.617,57.617,0,1,1-57.617-57.618A57.682,57.682,0,0,1,314,429.765Z"/></svg>
