<svg height="484pt" viewBox="-64 0 484 484.00185" width="484pt" xmlns="http://www.w3.org/2000/svg"><path d="m329.648438 64h-64.449219c-3.386719-17.367188-18.566407-29.925781-36.261719-30h-9.4375c-1.148438-19-17.246094-34-36.875-34h-8.800781c-19.628907 0-35.726563 15-36.875 34h-9.4375c-17.695313.074219-32.875 12.632812-36.265625 30h-64.894532c-14.605468.125-26.3710932 12.011719-26.351562 26.617188v367.398437c.015625 6.949219 2.808594 13.605469 7.757812 18.488281 4.949219 4.878906 11.644532 7.578125 18.59375 7.496094h303.300782c6.949218.082031 13.644531-2.617188 18.59375-7.496094 4.949218-4.882812 7.742187-11.539062 7.753906-18.488281v-367.402344c.019531-14.601562-11.746094-26.488281-26.351562-26.613281zm-155.824219-48h8.800781c10.800781 0 19.71875 8 20.824219 18h-50.449219c1.101562-10 10.019531-18 20.824219-18zm-66.824219 55.273438c0-11.546876 8.957031-21.273438 20.507812-21.273438h101.433594c11.648438.15625 21.019532 9.625 21.058594 21.273438v31.726562h-143zm150.886719 47.726562c4.476562-.078125 8.074219-3.707031 8.113281-8.179688v-2.820312h41v328h-258v-328h42v2.820312c0 4.417969 3.144531 8.179688 7.5625 8.179688zm82.113281 339.015625c-.007812 2.707031-1.113281 5.296875-3.066406 7.179687-1.949219 1.878907-4.574219 2.890626-7.285156 2.804688h-303.296876c-2.710937.085938-5.335937-.925781-7.285156-2.804688-1.949218-1.882812-3.054687-4.472656-3.066406-7.179687v-367.402344c-.027344-5.769531 4.582031-10.496093 10.351562-10.613281h64.648438v12h-50.265625c-2.042969-.097656-4.035156.652344-5.5 2.078125s-2.273437 3.394531-2.234375 5.441406v344.050781c0 4.421876 3.316406 8.429688 7.734375 8.429688h274.535156c4.417969 0 7.730469-4.007812 7.730469-8.429688v-344.050781c.042969-2.046875-.765625-4.015625-2.230469-5.441406-1.46875-1.425781-3.457031-2.175781-5.5-2.078125h-49.269531v-12h63.648438c5.773437.117188 10.382812 4.84375 10.351562 10.617188zm0 0"/><path d="m77.519531 360h90.601563c4.417968 0 8-3.582031 8-8s-3.582032-8-8-8h-90.601563c-4.417969 0-8 3.582031-8 8s3.582031 8 8 8zm0 0"/><path d="m69.519531 388c0 4.417969 3.582031 8 8 8h200.960938c4.417969 0 8-3.582031 8-8s-3.582031-8-8-8h-200.960938c-4.417969 0-8 3.582031-8 8zm0 0"/><path d="m178 315.320312c25.195312-.105468 48.417969-13.648437 60.914062-35.527343 11.609376-20.257813 11.714844-44 .285157-63.507813-.125-.210937-.257813-.417968-.398438-.617187l-54.300781-75.492188c-1.519531-2.050781-3.941406-3.238281-6.492188-3.175781-2.550781-.0625-4.972656 1.121094-6.496093 3.167969l-54.296875 75.363281c-.152344.195312-.292969.394531-.421875.601562-11.441407 19.632813-11.308594 43.453126.359375 63.757813 12.503906 21.824219 35.695312 35.328125 60.847656 35.429687zm-47.570312-90.84375 47.5625-66.089843 47.582031 66.300781c8.441406 14.648438 8.25 31.816406-.542969 47.15625-9.558594 16.964844-27.511719 27.46875-46.984375 27.480469s-37.445313-10.464844-47.023437-27.417969c-8.84375-15.398438-9.054688-32.660156-.59375-47.429688zm0 0"/><path d="m177.585938 287.078125c22.558593.023437 40.878906-18.21875 40.949218-40.777344 0-4.417969-3.578125-8-8-8-4.417968 0-8 3.582031-8 8-.0625 13.722657-11.222656 24.808594-24.949218 24.773438-4.417969 0-8 3.582031-8 8 0 4.421875 3.582031 8 8 8zm0 0"/></svg>