<?xml version="1.0"?>
<svg xmlns="http://www.w3.org/2000/svg" id="Layer_1" data-name="Layer 1" viewBox="0 0 512 512" width="512" height="512"><title>Rupees Cart</title><path d="M177.4,423.771c-24.515,0-44.459,19.336-44.459,43.1s19.944,43.1,44.459,43.1,44.46-19.336,44.46-43.1S201.913,423.771,177.4,423.771Zm0,70.206c-15.693,0-28.459-12.159-28.459-27.1s12.766-27.1,28.459-27.1,28.46,12.158,28.46,27.1S193.091,493.977,177.4,493.977Z"/><path d="M370.584,423.771c-24.516,0-44.46,19.336-44.46,43.1s19.944,43.1,44.46,43.1,44.46-19.336,44.46-43.1S395.1,423.771,370.584,423.771Zm0,70.206c-15.693,0-28.46-12.159-28.46-27.1s12.767-27.1,28.46-27.1,28.46,12.158,28.46,27.1S386.277,493.977,370.584,493.977Z"/><path d="M467.971,186h-76.76a107.869,107.869,0,0,0,1.462-17.376c0-55.866-45.45-101.421-101.316-101.421S190.042,112.81,190.042,168.676A107.227,107.227,0,0,0,191.5,186H123.762c-6.992-37-39.876-64-78.621-64H44.029a8,8,0,1,0,0,16h1.112c31.326,0,57.849,21.633,63.067,51.229l31.5,178.687C144.315,394.03,167.521,413,194.887,413H407.044a8,8,0,0,0,0-16H194.887c-19.587,0-36.165-13.217-39.419-31.671L152.91,351H388.363c24.991,0,47.153-16.387,53.895-39.683l33.4-115.454a7.627,7.627,0,0,0-1.29-6.85A7.832,7.832,0,0,0,467.971,186ZM291.357,83.1a85.315,85.315,0,1,1-85.315,85.315A85.412,85.412,0,0,1,291.357,83.1Zm135.532,223.98C422.115,323.573,406.273,335,388.363,335H150.089L126.606,202h69.017c13.768,39,51.481,68.148,95.734,68.148S373.324,241,387.092,202h70.235Z"/><path d="M291.357,246.071A77.657,77.657,0,1,0,213.7,168.414,77.745,77.745,0,0,0,291.357,246.071Zm0-139.314A61.657,61.657,0,1,1,229.7,168.414,61.728,61.728,0,0,1,291.357,106.757Z"/><path d="M257.159,156a8,8,0,0,0,8,8H290a13.677,13.677,0,0,1-10.62,5H265.159a7.935,7.935,0,0,0-5.494,13.724L295.2,216.286a8,8,0,0,0,10.989-11.643L284.75,184.605A30.138,30.138,0,0,0,307.577,164h7.264a8,8,0,0,0,0-16h-7.269a42.229,42.229,0,0,0-2.093-6h9.362a8,8,0,0,0,0-16H265.159a8,8,0,0,0,0,16h14.216A12.045,12.045,0,0,1,290,148H265.159A8,8,0,0,0,257.159,156Z"/><path d="M291,49a8,8,0,0,0,8-8V10a8,8,0,0,0-16,0V41A8,8,0,0,0,291,49Z"/><path d="M331,59a8,8,0,0,0,8-8V20a8,8,0,0,0-16,0V51A8,8,0,0,0,331,59Z"/><path d="M251,59a8,8,0,0,0,8-8V20a8,8,0,0,0-16,0V51A8,8,0,0,0,251,59Z"/></svg>
