<?xml version="1.0" encoding="iso-8859-1"?>
<!-- Generator: Adobe Illustrator 19.0.0, SVG Export Plug-In . SVG Version: 6.00 Build 0)  -->
<svg version="1.1" id="Capa_1" xmlns="http://www.w3.org/2000/svg" xmlns:xlink="http://www.w3.org/1999/xlink" x="0px" y="0px"
	 viewBox="0 0 512 512" style="enable-background:new 0 0 512 512;" xml:space="preserve">
<g>
	<g>
		<path d="M342.667,53.333H67.333c-11.047,0-20,8.953-20,20v254c0,29.907,23.427,53.333,53.333,53.333h208.667
			c29.913,0,53.333-23.427,53.333-53.333v-254C362.667,62.287,353.713,53.333,342.667,53.333z M322.667,327.333
			c0,7.607-5.727,13.333-13.333,13.333H100.667c-7.6,0-13.333-5.727-13.333-13.333v-234h235.333V327.333z"/>
	</g>
</g>
<g>
	<g>
		<path d="M444.667,125.333h-102v40h82V258h-82v40h102c11.047,0,20-8.953,20-20V145.333
			C464.667,134.287,455.713,125.333,444.667,125.333z"/>
	</g>
</g>
<g>
	<g>
		<path d="M492,418.667H20c-11.047,0-20,8.953-20,20c0,11.047,8.953,20,20,20h472c11.047,0,20-8.953,20-20
			C512,427.62,503.047,418.667,492,418.667z"/>
	</g>
</g>
<g>
</g>
<g>
</g>
<g>
</g>
<g>
</g>
<g>
</g>
<g>
</g>
<g>
</g>
<g>
</g>
<g>
</g>
<g>
</g>
<g>
</g>
<g>
</g>
<g>
</g>
<g>
</g>
<g>
</g>
</svg>
