<?xml version="1.0"?>
<svg xmlns="http://www.w3.org/2000/svg" id="Layer_1" data-name="Layer 1" viewBox="0 0 512 512" width="512" height="512"><title>Microphone</title><path d="M256.12,341.192c47.288,0,85.88-38.726,85.88-86.327V95.373A85.722,85.722,0,0,0,255.94,9.614C208.652,9.614,170,48.085,170,95.373v160.06a85.824,85.824,0,0,0,86.12,85.759ZM186,95.373a70,70,0,0,1,140,0V254.865c0,38.778-31.414,70.327-69.88,70.327A69.823,69.823,0,0,1,186,255.433Z"/><path d="M406.949,183H379.763c-4.419,0-7.763,3.877-7.763,8.295v64.138a116,116,0,0,1-232,0V191.3c0-4.418-3.344-8.295-7.763-8.295H105.051A8.3,8.3,0,0,0,97,191.3v64.138A158.727,158.727,0,0,0,248,414.185V486H194.133a8,8,0,0,0,0,16H317.867a8,8,0,0,0,0-16H264V414.185A158.727,158.727,0,0,0,415,255.433V191.3A8.3,8.3,0,0,0,406.949,183ZM399,255.433a143,143,0,1,1-286,0V199h11v56.433a132,132,0,0,0,264,0V199h11Z"/><path d="M229.891,127h52.218a8,8,0,0,0,0-16H229.891a8,8,0,1,0,0,16Z"/><path d="M229.891,183h52.218a8,8,0,0,0,0-16H229.891a8,8,0,1,0,0,16Z"/><path d="M229.891,240h52.218a8,8,0,0,0,0-16H229.891a8,8,0,1,0,0,16Z"/></svg>
