<svg height="485pt" viewBox="-49 0 485 485.83035" width="485pt" xmlns="http://www.w3.org/2000/svg"><path d="m137.953125 76.25c2.136719.632812 4.355469.953125 6.582031.953125 6.71875-.023437 13.121094-2.867187 17.640625-7.835937 12.367188 5.699218 26.882813 4.007812 37.609375-4.378907 10.726563-8.390625 15.867188-22.070312 13.316406-35.445312-2.550781-13.375-12.363281-24.203125-25.425781-28.054688-19.253906-5.683593-39.46875 5.320313-45.148437 24.574219-.398438 1.347656-.71875 2.714844-.957032 4.097656-11.070312 1.453125-19.613281 10.453125-20.484374 21.578125-.875 11.128907 6.160156 21.351563 16.867187 24.511719zm-.628906-24.820312c.964843-3.242188 3.949219-5.464844 7.332031-5.457032.691406 0 1.378906.089844 2.042969.273438l.09375.027344c2.53125.777343 5.289062.246093 7.351562-1.414063 2.066407-1.660156 3.175781-4.238281 2.960938-6.878906-.765625-9.621094 5.339843-18.453125 14.609375-21.136719 9.273437-2.683594 19.152344 1.519531 23.644531 10.0625 4.492187 8.539062 2.359375 19.0625-5.105469 25.179688-7.464844 6.121093-18.203125 6.144531-25.695312.0625-2.050782-1.667969-4.792969-2.21875-7.328125-1.464844-2.535157.753906-4.535157 2.710937-5.339844 5.230468-1.28125 3.925782-5.441406 6.132813-9.410156 4.992188-4.039063-1.191406-6.347657-5.433594-5.15625-9.476562zm0 0"/><path d="m98.914062 110.667969c12.980469 0 23.5-10.519531 23.5-23.5 0-12.976563-10.519531-23.5-23.5-23.5-12.976562 0-23.5 10.523437-23.5 23.5.015626 12.972656 10.527344 23.484375 23.5 23.5zm0-31c4.144532 0 7.5 3.359375 7.5 7.5s-3.355468 7.5-7.5 7.5c-4.140624 0-7.5-3.359375-7.5-7.5.003907-4.140625 3.359376-7.496094 7.5-7.5zm0 0"/><path d="m8.414062 485.832031h370c4.449219-.078125 8.015626-3.714843 8-8.164062v-277c0-2.5625-1.226562-4.96875-3.300781-6.472657-2.074219-1.507812-4.742187-1.925781-7.179687-1.132812l-184 60c-3.289063 1.074219-5.519532 4.144531-5.519532 7.605469v115.164062h-28.867187l-29.183594-253.914062c-.464843-4.039063-3.882812-7.085938-7.949219-7.085938h-48c-4.0625 0-7.484374 3.046875-7.945312 7.085938l-29.1875 253.914062h-26.867188c-2.105468-.039062-4.136718.769531-5.640624 2.242188-1.5 1.472656-2.351563 3.488281-2.359376 5.59375v94c-.011718 4.449219 3.550782 8.085937 8 8.164062zm8-69h170v53h-170zm186-150.359375 168-54.78125v258.140625h-168zm-134.390624-35.535156c1.164062.183594 2.261718.324219 3.230468.445312 8.351563.945313 16.753906 1.390626 25.160156 1.328126 8.40625.0625 16.808594-.382813 25.164063-1.328126.96875-.121093 2.066406-.261718 3.230469-.445312l8.441406 73.457031c-5.964844 1.261719-18.824219 2.609375-36.707031 2.679688-18.429688.078125-31.214844-1.261719-36.976563-2.582031zm11.523437-100.105469h33.734375l9.699219 84.332031c-11.441407 2.167969-41.691407 2.207032-53.136719.039063zm-21.8125 189.679688c6.933594 1.246093 13.949219 1.984375 20.992187 2.214843 5.242188.261719 10.816407.371094 16.40625.371094 10.417969.042969 20.835938-.453125 31.203126-1.492187 2.675781-.292969 5.742187-.554688 8.753906-1.125l6.351562 55.351562h-90.054687zm128.679687 71.320312v9h-170v-9zm0 0"/><path d="m279.414062 348.832031c0-4.421875-3.582031-8-8-8h-48c-4.417968 0-8 3.578125-8 8v31c0 4.417969 3.582032 8 8 8h48c4.417969 0 8-3.582031 8-8zm-16 23h-32v-15h32zm0 0"/><path d="m356.414062 348.832031c0-4.421875-3.582031-8-8-8h-48c-4.417968 0-8 3.578125-8 8v31c0 4.417969 3.582032 8 8 8h48c4.417969 0 8-3.582031 8-8zm-16 23h-32v-15h32zm0 0"/><path d="m356.414062 289.832031c0-4.421875-3.582031-8-8-8h-48c-4.417968 0-8 3.578125-8 8v31c0 4.417969 3.582032 8 8 8h48c4.417969 0 8-3.582031 8-8zm-16 23h-32v-15h32zm0 0"/><path d="m279.414062 289.832031c0-4.421875-3.582031-8-8-8h-48c-4.417968 0-8 3.578125-8 8v31c0 4.417969 3.582032 8 8 8h48c4.417969 0 8-3.582031 8-8zm-16 23h-32v-15h32zm0 0"/><path d="m279.414062 409.832031c0-4.421875-3.582031-8-8-8h-48c-4.417968 0-8 3.578125-8 8v31c0 4.417969 3.582032 8 8 8h48c4.417969 0 8-3.582031 8-8zm-16 23h-32v-15h32zm0 0"/><path d="m356.414062 409.832031c0-4.421875-3.582031-8-8-8h-48c-4.417968 0-8 3.578125-8 8v31c0 4.417969 3.582032 8 8 8h48c4.417969 0 8-3.582031 8-8zm-16 23h-32v-15h32zm0 0"/></svg>