<?xml version="1.0"?>
<svg xmlns="http://www.w3.org/2000/svg" id="Layer_1" data-name="Layer 1" viewBox="0 0 512 512" width="512" height="512"><title>Expand</title><path d="M255.368,307.749a21.167,21.167,0,0,1-21.143-21.143,6,6,0,0,0-12,0A33.194,33.194,0,0,0,248,318.913V328a6,6,0,0,0,12,0v-8.582a33.14,33.14,0,0,0-4.632-65.955,21.143,21.143,0,1,1,21.142-21.142,6,6,0,1,0,12,0A33.187,33.187,0,0,0,260,199.509V191a6,6,0,0,0-12,0v9.014a33.139,33.139,0,0,0,7.368,65.449,21.143,21.143,0,0,1,0,42.286Z"/><path d="M256,420.924c91.155,0,165.315-73.986,165.315-164.926S347.155,91.071,256,91.071,90.685,165.057,90.685,256,164.845,420.924,256,420.924ZM102.812,262h41.91A110.59,110.59,0,0,0,250,366.67V408.8C170.219,405.717,105.891,342,102.812,262Zm152.2-104.81a5.511,5.511,0,0,0,1.875.015,98.8,98.8,0,0,1,1.365,197.552,5.988,5.988,0,0,0-4.574.024,98.8,98.8,0,0,1,1.334-197.591ZM262,408.8V366.6A111.036,111.036,0,0,0,366.014,262h43.174C406.109,342,341.781,405.717,262,408.8ZM409.186,250H366.011C362.987,194,318.03,148.714,262,145.39V103.2C341.76,106.277,406.075,170,409.186,250ZM250,103.2v42.119A110.631,110.631,0,0,0,144.726,250H102.814C105.925,170,170.24,106.277,250,103.2Z"/><path d="M54.062,256c0,111.349,90.589,201.938,201.938,201.938S457.938,367.347,457.938,256,367.349,54.059,256,54.059,54.062,144.648,54.062,256ZM256,66.059c104.732,0,189.938,85.206,189.938,189.939S360.732,445.936,256,445.936,66.062,360.73,66.062,256,151.268,66.059,256,66.059Z"/><path d="M420.67,91.331a231.191,231.191,0,0,0-132.912-66.06,6,6,0,1,0-1.64,11.888A221,221,0,0,1,474.839,225.885a6,6,0,0,0,5.936,5.18,6.116,6.116,0,0,0,.828-.056,6,6,0,0,0,5.124-6.764A231.192,231.192,0,0,0,420.67,91.331Z"/><path d="M224.243,486.724a6.1,6.1,0,0,0,.827.056,6,6,0,0,0,.812-11.944A221,221,0,0,1,37.161,286.12a6,6,0,0,0-11.888,1.641,233,233,0,0,0,198.97,198.963Z"/><path d="M30.4,231.009a6.116,6.116,0,0,0,.828.056,6,6,0,0,0,5.936-5.18A221,221,0,0,1,225.882,37.164a6,6,0,0,0-1.639-11.888A233,233,0,0,0,25.273,224.245,6,6,0,0,0,30.4,231.009Z"/><path d="M481.6,281a6,6,0,0,0-6.764,5.124,221,221,0,0,1-188.721,188.72,6,6,0,0,0,.812,11.945,6.1,6.1,0,0,0,.827-.057,233,233,0,0,0,198.97-198.968A6,6,0,0,0,481.6,281Z"/></svg>
