<?xml version="1.0"?>
<svg xmlns="http://www.w3.org/2000/svg" id="Layer_1" data-name="Layer 1" viewBox="0 0 512 512" width="512" height="512"><title>Modem</title><path d="M470.766,292H422V184.169a35.988,35.988,0,1,0-16-.085V292H106V184.084a35.985,35.985,0,1,0-16,.085V292H41.234A8.144,8.144,0,0,0,33,299.931V438.646A8.511,8.511,0,0,0,41.234,447H470.766A8.511,8.511,0,0,0,479,438.646V299.931A8.144,8.144,0,0,0,470.766,292ZM394.2,149.047a19.987,19.987,0,1,1,19.986,19.987A20.009,20.009,0,0,1,394.2,149.047Zm-316.369,0a19.987,19.987,0,1,1,19.987,19.987A20.009,20.009,0,0,1,77.829,149.047ZM115,431V372H397v59Zm348,0H413V364.421C413,360,409.477,356,405.058,356H106.942c-4.419,0-7.942,4-7.942,8.421V431H49V308H463Z"/><path d="M179,395H143a8,8,0,0,0,0,16h36a8,8,0,0,0,0-16Z"/><path d="M252,395H216a8,8,0,0,0,0,16h36a8,8,0,0,0,0-16Z"/><path d="M193.116,107.4a89.033,89.033,0,0,1,125.768,0A8,8,0,0,0,330.2,96.087a105.051,105.051,0,0,0-148.4,0A8,8,0,0,0,193.116,107.4Z"/><path d="M302.246,132.039a8,8,0,0,0,5.657-13.657,73.486,73.486,0,0,0-103.806,0A8,8,0,0,0,215.411,129.7a57.466,57.466,0,0,1,81.178,0A7.977,7.977,0,0,0,302.246,132.039Z"/><path d="M229.382,143.667A8,8,0,1,0,240.7,154.981a21.643,21.643,0,0,1,30.608,0,8,8,0,1,0,11.314-11.314,37.645,37.645,0,0,0-53.236,0Z"/></svg>
