<?xml version="1.0"?>
<svg xmlns="http://www.w3.org/2000/svg" id="Layer_1" data-name="Layer 1" viewBox="0 0 512 512" width="512" height="512"><title>Rupees</title><path d="M488.925,59H23.075C18.657,59,15,62.21,15,66.629V294.378C15,298.8,18.657,302,23.075,302H127V445.371c0,4.419,3.834,7.629,8.252,7.629h241.5c4.418,0,8.252-3.21,8.252-7.629V302H488.925c4.418,0,8.075-3.2,8.075-7.622V66.629C497,62.21,493.343,59,488.925,59ZM127,212H83V149h44Zm54,225H143V400h6.4c17.579,0,31.6,14.649,31.6,32.229Zm188,0H329v-5.225C329,414.2,343.761,400,361.34,400H369Zm0-53h-7.66c-26.4,0-48.34,21.374-48.34,47.775V437H197v-4.771c0-26.4-21.2-48.229-47.6-48.229H143V149H369Zm112-98H385V228h52.164c4.418,0,7.836-3.97,7.836-8.388V141.4c0-4.418-3.418-8.4-7.836-8.4H74.836C70.418,133,67,136.977,67,141.4v78.217C67,224.03,70.418,228,74.836,228H127v58H31V75H481Zm-96-74V149h44v63Z"/><path d="M256,332.992a84.305,84.305,0,1,0-84.306-84.3A84.4,84.4,0,0,0,256,332.992Zm0-152.61a68.305,68.305,0,1,1-68.306,68.305A68.383,68.383,0,0,1,256,180.382Z"/><path d="M220.517,233a8,8,0,0,0,8,8h29.077a15.01,15.01,0,0,1-13.349,8H228.517a8,8,0,0,0-5.5,13.821l39.313,37.15a8,8,0,1,0,10.988-11.628L248.35,264.531A30.919,30.919,0,0,0,274.8,241h8.688a8,8,0,0,0,0-16H274.8a33.427,33.427,0,0,0-3.1-7h11.784a8,8,0,0,0,0-16H228.517a8,8,0,0,0,0,16h15.728a16.336,16.336,0,0,1,13.349,7H228.517A8,8,0,0,0,220.517,233Z"/></svg>
