<?xml version="1.0"?>
<svg xmlns="http://www.w3.org/2000/svg" id="Layer_1" data-name="Layer 1" viewBox="0 0 512 512" width="512" height="512"><title>Industry</title><path d="M411.129,149.964a7.711,7.711,0,0,0-8.479-1.516,7.841,7.841,0,0,0-4.65,7.343v55.133l-64.981-60.96a8.448,8.448,0,0,0-8.924-1.516,8.254,8.254,0,0,0-5.1,7.343V211.28l-72.586-61.595a8.211,8.211,0,0,0-8.657-1.152A8.116,8.116,0,0,0,233,155.791V221H145.606a63.744,63.744,0,0,1-.606-7.36V94.5a7.38,7.38,0,0,0-7.753-7.5H48.067C43.649,87,40,90.082,40,94.5V213.64a87.163,87.163,0,0,1-9.156,38.783A103.242,103.242,0,0,0,20,298.36V417.5c0,4.418,3.649,8.5,8.067,8.5H483.933c4.418,0,8.067-4.082,8.067-8.5V229.433a8.034,8.034,0,0,0-2.552-5.827ZM56,103h73v24H56Zm93,307H36V298.36a87.166,87.166,0,0,1,9.155-38.783A103.236,103.236,0,0,0,56,213.64V143h73v70.64a103.231,103.231,0,0,0,10.845,45.938A87.169,87.169,0,0,1,149,298.36Zm327,0H165V350h46.732c4.418,0,8.268-3.294,8.268-7.713V310.546c0-4.419-3.85-7.546-8.268-7.546H165v-4.64a104.023,104.023,0,0,0-10.722-46.155A68.192,68.192,0,0,1,148.6,237h92.83A7.286,7.286,0,0,0,249,229.433V173.044l72.979,61.6A7.9,7.9,0,0,0,335,228.533V174.3l64.985,60.96a8.445,8.445,0,0,0,8.922,1.516A8.251,8.251,0,0,0,414,229.433V174.3l62,58.591ZM165,334V319h39v15Z"/><path d="M368,311v32a8,8,0,0,0,8,8h60a8,8,0,0,0,8-8V311a8,8,0,0,0-8-8H376A8,8,0,0,0,368,311Zm16,8h44v15H384Z"/><path d="M324,303H264a8,8,0,0,0-8,8v32a8,8,0,0,0,8,8h60a8,8,0,0,0,8-8V311A8,8,0,0,0,324,303Zm-8,31H272V319h44Z"/></svg>
