<svg height="485pt" viewBox="0 -18 485.47522 485" width="485pt" xmlns="http://www.w3.org/2000/svg"><path d="m249.742188 356.585938c-9.035157-.011719-16.359376-7.335938-16.371094-16.375 0-3.3125-2.6875-6-6-6s-6 2.6875-6 6c.015625 12.96875 8.808594 24.28125 21.371094 27.5v8.027343c0 3.316407 2.6875 6 6 6 3.316406 0 6-2.683593 6-6v-7.597656c14.46875-2.585937 24.566406-15.796875 23.265624-30.4375-1.300781-14.636719-13.566406-25.859375-28.265624-25.859375-9.042969.003906-16.371094-7.328125-16.371094-16.371094 0-9.042968 7.328125-16.375 16.371094-16.375 9.042968 0 16.375 7.332032 16.375 16.375 0 3.3125 2.683593 6 6 6 3.3125 0 6-2.6875 6-6-.019532-13.351562-9.328126-24.890625-22.375-27.734375v-7c0-3.3125-2.683594-6-6-6-3.3125 0-6 2.6875-6 6v7c-14.171876 3.070313-23.75 16.328125-22.207032 30.746094 1.542969 14.421875 13.707032 25.355469 28.207032 25.355469 8.992187.070312 16.246093 7.378906 16.246093 16.371094 0 8.996093-7.253906 16.304687-16.246093 16.375zm0 0"/><path d="m395.335938 291.046875c-1.085938-1.8125-3.039063-2.921875-5.152344-2.921875-2.109375 0-4.066406 1.109375-5.148438 2.921875l-30.441406 50.882813-103.851562-173.488282v-69.535156l7.550781 4.125c16.9375 9.1875 37.671875 7.679688 53.097656-3.863281 11.679687-8.730469 27.367187-9.867188 40.179687-2.917969l16.445313 8.949219c1.859375 1.011719 4.113281.96875 5.933594-.113281 1.816406-1.082032 2.933593-3.042969 2.933593-5.15625v-79.5c0-2.199219-1.203124-4.222657-3.132812-5.273438l-16.445312-8.949219c-16.945313-9.183593-37.683594-7.675781-53.117188 3.863281-11.679688 8.730469-27.367188 9.871094-40.183594 2.917969l-16.449218-8.949219c-1.851563-1.011718-4.101563-.964843-5.914063.117188-1.808594 1.085938-2.914063 3.046875-2.898437 5.15625v158.914062l-82.503907 137.738282-32.394531-54.074219c-1.085938-1.8125-3.042969-2.917969-5.152344-2.917969-2.113281 0-4.070312 1.105469-5.15625 2.917969l-112.683594 188.175781c-1.109374 1.78125-1.136718 4.027344-.070312 5.835938 1.085938 1.828125 3.089844 2.917968 5.21875 2.835937h293.171875c.550781 0 1.125 1 1.710937 1h178.601563c2.191406-.105469 4.171875-1.347656 5.222656-3.273437 1.050781-1.929688 1.023438-4.261719-.074219-6.164063zm-5.148438 14.757813 26.542969 44.335937c-3.597657 1.753906-6.957031 3.964844-9.988281 6.578125-4.742188 3.800781-8.492188 6.792969-16.523438 6.792969s-11.78125-3-16.523438-6.792969c-3.046874-2.628906-6.421874-4.851562-10.042968-6.605469zm-139.445312-286.394532 7.550781 4.121094c16.9375 9.1875 37.671875 7.683594 53.105469-3.855469 11.675781-8.734375 27.363281-9.875 40.175781-2.921875l13.308593 7.246094v65.832031l-7.578124-4.125c-16.941407-9.183593-37.679688-7.675781-53.117188 3.863281-11.667969 8.730469-27.347656 9.871094-40.15625 2.921876l-13.289062-7.246094zm-6.121094 162.261719 102.957031 171.800781-49.941406 83.265625h-62.960938l-71.476562-119.226562zm-125.941406 84.976563 35.769531 59.742187c-5.777344 2.296875-10.019531 5.683594-13.894531 8.785156-6.226563 4.980469-11.144532 8.917969-21.832032 8.917969-10.683594 0-15.597656-3.9375-21.832031-8.917969-3.890625-3.113281-8.152344-6.511719-13.96875-8.8125zm-42.042969 70.007812c5.105469 1.5625 8.707031 4.546875 12.757812 7.785156 6.765625 5.414063 14.433594 11.601563 29.328125 11.601563 14.894532 0 22.5625-6.109375 29.328125-11.523438 4.03125-3.222656 7.621094-6.207031 12.6875-7.773437l59.949219 100h-204.101562zm331.105469 101.082031v-1h-96.117188l45.800781-76.347656c3.324219 1.207031 5.820313 3.265625 8.777344 5.632813 5.25 4.199218 11.78125 9.457031 24.023437 9.457031 12.238282 0 18.773438-5.210938 24.019532-9.410157 2.585937-2.246093 5.535156-4.035156 8.722656-5.289062l45.933594 76.957031zm0 0"/></svg>