<?xml version="1.0"?>
<svg xmlns="http://www.w3.org/2000/svg" id="Layer_1" data-name="Layer 1" viewBox="0 0 512 512" width="512" height="512"><title>Marketing2</title><path d="M270.823,378H259.432l-18.7-97.825a365.245,365.245,0,0,1-2.591-122.1L240.663,141H259a8,8,0,0,0,8-8V61a8,8,0,0,0-8-8H230a8,8,0,0,0-8,8V79H204V61a8,8,0,0,0-8-8H165a8,8,0,0,0-8,8V79H141V61a8,8,0,0,0-8-8H100a8,8,0,0,0-8,8V79H74V61a8,8,0,0,0-8-8H37a8,8,0,0,0-8,8v72a8,8,0,0,0,8,8H58.16l2.522,17.111A365.014,365.014,0,0,1,58.09,280.175L39.392,378H28a8.118,8.118,0,0,0-8,8.137v65.505A8.314,8.314,0,0,0,28,460H270.823A8.466,8.466,0,0,0,279,451.642v-65.5A8.27,8.27,0,0,0,270.823,378ZM45,69H58V87a8,8,0,0,0,8,8h34a8,8,0,0,0,8-8V69h17V87a8,8,0,0,0,8,8h32a8,8,0,0,0,8-8V69h15V87a8,8,0,0,0,8,8h34a8,8,0,0,0,8-8V69h13v56H45ZM73.807,283.177a381.2,381.2,0,0,0,2.7-127.433L74.332,141H224.491l-2.178,14.778a381.023,381.023,0,0,0,2.7,127.4L243.142,378H55.681ZM263,444H36V394H263Z"/><path d="M364.44,91h51.711a38.412,38.412,0,0,0,36.991,26.918A38.852,38.852,0,1,0,414.5,75H364.44C349,75,336,87.463,336,102.9V248H275.168a8,8,0,0,0,0,16H336V409.306C336,424.745,349,437,364.44,437h50.089A38.847,38.847,0,0,0,492,432.912a39,39,0,0,0-38.858-38.973c-17.357,0-32.09,12.061-37.061,27.061H364.44c-6.617,0-12.44-5.078-12.44-11.694V264h63.14A38.851,38.851,0,0,0,492,255.974a38.936,38.936,0,0,0-38.858-38.9A38.546,38.546,0,0,0,415.091,248H352V102.9C352,96.286,357.823,91,364.44,91Zm88.7-34.847a22.859,22.859,0,1,1-22.859,22.858A22.884,22.884,0,0,1,453.142,56.153Zm0,353.977a22.859,22.859,0,1,1-22.859,22.859A22.885,22.885,0,0,1,453.142,410.13Zm0-176.988A22.858,22.858,0,1,1,430.283,256,22.884,22.884,0,0,1,453.142,233.142Z"/></svg>
