<svg id="Layer_1" height="512" viewBox="0 0 512 512" width="512" xmlns="http://www.w3.org/2000/svg" data-name="Layer 1"><path d="m193.993 140.281a6 6 0 0 0 -7.438-4.085 19.778 19.778 0 0 1 -9.035.639c-8.852-1.581-15.986-10.3-17.754-21.69a6 6 0 1 0 -11.858 1.839 42.23 42.23 0 0 0 8.543 19.926 15.983 15.983 0 0 0 -7.237 8.894 14.062 14.062 0 0 0 .288 8.585 6 6 0 0 0 11.344-3.915 2.164 2.164 0 0 1 -.119-1.286c.332-1.129 2.385-2.843 6-3.59a28.856 28.856 0 0 0 13.84 3.5 33.4 33.4 0 0 0 9.345-1.383 6 6 0 0 0 4.081-7.434z"/><path d="m161.178 285.059a6 6 0 0 0 -8.405-1.162c-2.835 2.145-10.465 7.076-20.04 6.548a27.7 27.7 0 0 1 -10.846-2.943 5.987 5.987 0 0 0 -1.781-.97 31.573 31.573 0 0 1 -14.773-20.589 6 6 0 0 0 -11.744 2.467 43.517 43.517 0 0 0 10.966 20.858 20.412 20.412 0 0 0 -9.971 11.261c-2.383 7.141-.015 14.992 6.182 20.489a6 6 0 1 0 7.964-8.976c-2.54-2.254-3.6-5.209-2.763-7.714 1-2.992 4.948-5.988 10.491-6.145a39.479 39.479 0 0 0 15.61 4.244q1.093.06 2.157.06c12.007 0 21.229-5.569 25.791-9.023a6 6 0 0 0 1.162-8.405z"/><path d="m164.042 318.965a6 6 0 0 0 -3.909 11.346c9.587 3.3 15.078 7.733 14.688 11.854-.2 2.1-.878 4.869-2.187 6.354a6 6 0 1 0 9 7.936c3.789-4.3 4.842-10.09 5.132-13.16.567-5.967-1.634-17.064-22.724-24.33z"/><path d="m269.479 148.648a29.06 29.06 0 0 0 8.688-3.05c3.61.747 5.663 2.462 6 3.593a2.157 2.157 0 0 1 -.12 1.283 6 6 0 1 0 11.344 3.915 14.049 14.049 0 0 0 .288-8.585 15.982 15.982 0 0 0 -7.237-8.894 42.23 42.23 0 0 0 8.543-19.926 6 6 0 1 0 -11.858-1.839c-1.768 11.393-8.9 20.109-17.754 21.69a19.822 19.822 0 0 1 -9.035-.639 6 6 0 1 0 -3.353 11.522 33.41 33.41 0 0 0 9.345 1.383 29.238 29.238 0 0 0 5.149-.453z"/><path d="m280.847 318.965c-14.607 5.035-23.74 15.615-22.725 26.335a19.828 19.828 0 0 0 5.133 11.16 6 6 0 1 0 9-7.938 8.03 8.03 0 0 1 -2.187-4.352c-.39-4.129 4.624-10.388 14.688-13.855a6 6 0 1 0 -3.909-11.346z"/><path d="m463.786 252.862a103.72 103.72 0 0 0 -55.193-26.772c-3.679-15.6-14.49-29.78-29.655-38.547-.539-.311-1.089-.6-1.636-.9 2.045-11.718.286-21.915-5.27-30.347-5.867-8.905-14.706-13.762-21.214-16.291a45.417 45.417 0 0 0 3.606-8.578c5.013-16.565 1.422-40.3-18.3-53.283a56.479 56.479 0 0 0 -24.894-9.016c-2.977-20.042-20.549-37.513-43.03-41.828-16.766-3.218-35.732 1.58-49.018 12.034a54.955 54.955 0 0 0 -45.934-12.034c-21.441 4.117-37.084 20.943-39.655 41.843a56.477 56.477 0 0 0 -24.822 9.007c-19.729 12.979-23.318 36.719-18.305 53.284a45.286 45.286 0 0 0 3.606 8.578c-6.508 2.529-15.347 7.386-21.215 16.291-5.557 8.433-7.315 18.629-5.27 30.348-.546.3-1.1.583-1.635.894-15.687 9.068-26.617 23.62-29.987 39.923a49.877 49.877 0 0 0 5.4 34.915c-7.287 4.774-18.959 14.263-22.687 27.845-4.617 16.818 4.935 33.549 25.105 44.7a41.115 41.115 0 0 0 6.086 43.811c9.19 10.722 23.993 15.53 38.949 15.53a69.55 69.55 0 0 0 25.434-4.784 45.093 45.093 0 0 0 45.579 2.789c4.155 7.689 12.024 18.645 25.316 20.48a37.351 37.351 0 0 0 5.111.352c12.6 0 22.614-6.44 28.713-11.726 7.4 6 19.767 11.721 32.163 11.721a37.781 37.781 0 0 0 5.161-.347c13.534-1.869 22.44-13.25 26.877-20.639a49.587 49.587 0 0 0 24.883 4.913 48.512 48.512 0 0 0 13.846-3.185 89.667 89.667 0 0 0 25.099 16.822v29.367a45.5 45.5 0 1 0 91 0v-29.064c34-16.78 56.4-50.87 56.4-87.893a95.735 95.735 0 0 0 -30.614-70.213zm-277 148c-10.8-1.49-16.644-14.446-18.881-19.4a6 6 0 0 0 -8.706-2.584c-2.729 1.748-11.035 7.067-22.295 6.187a33.026 33.026 0 0 1 -10.259-2.493c.36-.276.727-.545 1.075-.83a43.294 43.294 0 0 0 14.58-23.535 6.008 6.008 0 0 0 -11.657-2.915 30.723 30.723 0 0 1 -10.509 16.989c-7.488 6.119-19.486 9.719-31.368 9.719h-.238c-12.6 0-23.369-4.041-29.547-11.249a29.206 29.206 0 0 1 -1.947-35.165 6 6 0 0 0 -2.549-8.7c-21.893-10.026-26.873-23.871-24.234-33.486 3.551-12.936 19.586-22.515 21.877-23.511a6 6 0 0 0 2.486-9.108 37.71 37.71 0 0 1 -6.9-30.888c2.678-12.956 11.513-24.605 24.24-31.962 25.017-14.461 59.822-7.989 76.005 14.129a6 6 0 1 0 9.684-7.085c-9.635-13.17-24.6-22.222-42.138-25.487a74.074 74.074 0 0 0 -36.5 2.259c-.8-7.354.477-13.653 3.826-18.774 7.136-10.914 21.582-13.6 21.707-13.619a6 6 0 0 0 3.693-9.64 35.589 35.589 0 0 1 -6.28-11.76c-3.882-12.83-.521-30.614 13.415-39.783a44.821 44.821 0 0 1 23.453-7.493c.107.007.213.018.321.02a5.811 5.811 0 0 0 .738-.035c13.025-.083 26.353 5.466 37.554 16.322a6 6 0 1 0 8.351-8.616c-11.758-11.4-25.881-17.933-40.073-19.318 2.452-15.185 13.848-26.907 29.8-29.97a42.722 42.722 0 0 1 37.49 10.835v213.371a52.574 52.574 0 0 0 -11.8-6.512 6 6 0 0 0 -4.286 11.209c1.327.507 11.4 4.565 16.082 12.455v110.146c-4.74 4.615-14.327 11.923-26.207 10.279zm120.332-15.8c-10.863.854-19.811-4.044-23.156-6.187a6 6 0 0 0 -8.706 2.584c-2.959 6.56-10.63 18.029-20.6 19.4-11.726 1.621-24.621-5.234-29.656-10.125v-102.565a5.99 5.99 0 0 0 1.651-5.655 28.224 28.224 0 0 0 -1.651-4.914v-43.78a6 6 0 0 0 2.557-5.6 14.835 14.835 0 0 1 .284-5.024c2.444-10.429 16.318-16.215 19.075-17.268a6 6 0 1 0 -4.287-11.209 50.362 50.362 0 0 0 -17.629 10.839v-155.483c10.63-9.317 26.751-13.715 40.935-10.992 16.839 3.233 30.126 15.616 33.108 29.985-14.146 1.414-28.216 7.942-39.937 19.3a6 6 0 0 0 8.352 8.616c18.535-17.966 42.9-21.426 62.065-8.813 13.936 9.168 17.3 26.953 13.415 39.782a35.551 35.551 0 0 1 -6.28 11.76 6.01 6.01 0 0 0 3.673 9.637c.145.026 14.591 2.708 21.728 13.622 3.348 5.12 4.621 11.419 3.825 18.773a74.044 74.044 0 0 0 -36.5-2.258c-17.538 3.265-32.5 12.317-42.139 25.487a6 6 0 1 0 9.684 7.085c16.183-22.119 50.989-28.588 76.005-14.13 11 6.358 19.161 16.1 22.862 26.954-3.237-.108-6.491-.076-9.752.116a102.909 102.909 0 0 0 -67.6 30.733 99.012 99.012 0 0 0 -20.911 31.5 34.435 34.435 0 0 1 -5.415-3.342 6 6 0 0 0 -7.244 9.567 46.694 46.694 0 0 0 8.776 5.2 93.459 93.459 0 0 0 -3.244 24.059 95.645 95.645 0 0 0 22.2 61.456 35.292 35.292 0 0 1 -5.485.89zm85.382 88.638a33.563 33.563 0 0 1 -33.5-33.668v-25.032h67v25.032a33.563 33.563 0 0 1 -33.5 33.668zm37.164-71.986c-.678.3-1.269.285-1.777 1.285h-70.587a3.907 3.907 0 0 0 -2.192-1.673c-32.136-13.726-52.825-44.566-52.708-78.526a81.6 81.6 0 0 1 3.907-24.6 5.7 5.7 0 0 0 .845-2.522 86.531 86.531 0 0 1 19.856-31.541 90.93 90.93 0 0 1 59.734-27.155q2.77-.164 5.528-.163a92.389 92.389 0 0 1 63.278 24.774 83.957 83.957 0 0 1 26.897 61.507c0 33.548-20.718 64.422-52.781 78.615z"/></svg>