<svg height="498pt" viewBox="-18 0 498 498.25785" width="498pt" xmlns="http://www.w3.org/2000/svg"><path d="m6.128906 498.253906h120c1.5625.058594 3.085938-.523437 4.214844-1.605468 1.128906-1.082032 1.773438-2.574219 1.785156-4.140626v-120.226562c.003906-3.320312-2.679687-6.015625-6-6.027344h-10v-18.144531c0-3.3125-3.050781-5.855469-6.363281-5.855469h-31.636719v-22h146v22h-36.636718c-3.3125 0-6.363282 2.542969-6.363282 5.855469v18.144531h-10c-3.320312.011719-6.003906 2.707032-6 6.027344v120.226562c.011719 1.566407.65625 3.058594 1.785156 4.140626 1.128907 1.082031 2.652344 1.664062 4.214844 1.605468h120c1.5625.058594 3.085938-.523437 4.214844-1.605468 1.128906-1.082032 1.773438-2.574219 1.785156-4.140626v-120.226562c.003906-3.320312-2.679687-6.015625-6-6.027344h-10v-18.144531c0-3.3125-3.050781-5.855469-6.363281-5.855469h-38.636719v-22h154v22h-37.636718c-3.3125 0-6.363282 2.542969-6.363282 5.855469v18.144531h-10c-3.320312.011719-6.003906 2.707032-6 6.027344v120.226562c.011719 1.566407.65625 3.058594 1.785156 4.140626 1.128907 1.082031 2.652344 1.664062 4.214844 1.605468h120c1.5625.058594 3.085938-.523437 4.214844-1.605468 1.128906-1.082032 1.773438-2.574219 1.785156-4.140626v-120.226562c.003906-3.320312-2.679687-6.015625-6-6.027344h-10v-18.144531c0-3.3125-3.050781-5.855469-6.363281-5.855469h-37.636719v-27.617187c-.195312-3.480469-3-6.242188-6.484375-6.382813h-159.515625v-37.546875l19.699219 19.730469c1.515625 1.519531 3.726563 2.113281 5.796875 1.558594 2.070312-.558594 3.6875-2.179688 4.238281-4.25.550781-2.074219-.050781-4.285156-1.574219-5.792969l-30-30c-2.34375-2.34375-6.144531-2.34375-8.484374 0l-29.859376 29.855469c-2.34375 2.351562-2.335937 6.15625.011719 8.5 2.351563 2.34375 6.160157 2.339844 8.5-.011719l19.671875-19.644531v37.601562h-151.816406c-3.421875.167969-6.125 2.957032-6.183594 6.382813v27.617187h-43.636718c-3.3125 0-6.363282 2.542969-6.363282 5.855469v18.144531h-10c-3.320312.011719-6.003906 2.707032-6 6.027344v120.226562c.011719 1.566407.65625 3.058594 1.785156 4.140626 1.128907 1.082031 2.652344 1.664062 4.214844 1.605468zm242-12h-36v-28h36zm37 0h-25v-33.867187c-.070312-3.371094-2.796875-6.082031-6.171875-6.132813h-47.675781c-3.371094.050782-6.089844 2.765625-6.152344 6.132813v33.867187h-23v-108h108zm-16-120h-76v-12h76zm144 120h-36v-28h36zm37 0h-25v-33.867187c-.070312-3.371094-2.796875-6.082031-6.171875-6.132813h-47.675781c-3.371094.050782-6.089844 2.765625-6.152344 6.132813v33.867187h-23v-108h108zm-16-120h-76v-12h76zm-351 120h-36v-28h36zm-55-132h76v12h-76zm-16 24h108v108h-25v-33.867187c-.070312-3.371094-2.796875-6.082031-6.171875-6.132813h-47.675781c-3.371094.050782-6.089844 2.765625-6.152344 6.132813v33.867187h-23zm0 0"/><path d="m24.3125 403.253906h14.457031c3.3125 0 6-2.6875 6-6s-2.6875-6-6-6h-14.457031c-3.316406 0-6 2.6875-6 6s2.683594 6 6 6zm0 0"/><path d="m89.203125 403.253906h14.457031c3.316406 0 6-2.6875 6-6s-2.683594-6-6-6h-14.457031c-3.316406 0-6 2.6875-6 6s2.683594 6 6 6zm0 0"/><path d="m54.613281 403.253906h18.746094c3.3125 0 6-2.6875 6-6s-2.6875-6-6-6h-18.746094c-3.3125 0-6 2.6875-6 6s2.6875 6 6 6zm0 0"/><path d="m38.769531 429.253906c3.3125 0 6-2.6875 6-6s-2.6875-6-6-6h-14.457031c-3.316406 0-6 2.6875-6 6s2.683594 6 6 6zm0 0"/><path d="m89.203125 429.253906h14.457031c3.316406 0 6-2.6875 6-6s-2.683594-6-6-6h-14.457031c-3.316406 0-6 2.6875-6 6s2.683594 6 6 6zm0 0"/><path d="m54.613281 429.253906h18.746094c3.3125 0 6-2.6875 6-6s-2.6875-6-6-6h-18.746094c-3.3125 0-6 2.6875-6 6s2.6875 6 6 6zm0 0"/><path d="m203.769531 391.253906h-14.457031c-3.316406 0-6 2.6875-6 6s2.683594 6 6 6h14.457031c3.3125 0 6-2.6875 6-6s-2.6875-6-6-6zm0 0"/><path d="m268.660156 391.253906h-14.457031c-3.316406 0-6 2.6875-6 6s2.683594 6 6 6h14.457031c3.316406 0 6-2.6875 6-6s-2.683594-6-6-6zm0 0"/><path d="m238.359375 391.253906h-18.746094c-3.3125 0-6 2.6875-6 6s2.6875 6 6 6h18.746094c3.3125 0 6-2.6875 6-6s-2.6875-6-6-6zm0 0"/><path d="m203.769531 417.253906h-14.457031c-3.316406 0-6 2.6875-6 6s2.683594 6 6 6h14.457031c3.3125 0 6-2.6875 6-6s-2.6875-6-6-6zm0 0"/><path d="m268.660156 417.253906h-14.457031c-3.316406 0-6 2.6875-6 6s2.683594 6 6 6h14.457031c3.316406 0 6-2.6875 6-6s-2.683594-6-6-6zm0 0"/><path d="m238.359375 417.253906h-18.746094c-3.3125 0-6 2.6875-6 6s2.6875 6 6 6h18.746094c3.3125 0 6-2.6875 6-6s-2.6875-6-6-6zm0 0"/><path d="m368.769531 391.253906h-14.457031c-3.316406 0-6 2.6875-6 6s2.683594 6 6 6h14.457031c3.3125 0 6-2.6875 6-6s-2.6875-6-6-6zm0 0"/><path d="m433.660156 391.253906h-14.457031c-3.316406 0-6 2.6875-6 6s2.683594 6 6 6h14.457031c3.316406 0 6-2.6875 6-6s-2.683594-6-6-6zm0 0"/><path d="m403.359375 391.253906h-18.746094c-3.3125 0-6 2.6875-6 6s2.6875 6 6 6h18.746094c3.3125 0 6-2.6875 6-6s-2.6875-6-6-6zm0 0"/><path d="m368.769531 417.253906h-14.457031c-3.316406 0-6 2.6875-6 6s2.683594 6 6 6h14.457031c3.3125 0 6-2.6875 6-6s-2.6875-6-6-6zm0 0"/><path d="m433.660156 417.253906h-14.457031c-3.316406 0-6 2.6875-6 6s2.683594 6 6 6h14.457031c3.316406 0 6-2.6875 6-6s-2.683594-6-6-6zm0 0"/><path d="m403.359375 417.253906h-18.746094c-3.3125 0-6 2.6875-6 6s2.6875 6 6 6h18.746094c3.3125 0 6-2.6875 6-6s-2.6875-6-6-6zm0 0"/><path d="m108.058594 123.070312c0 67.972657 55.097656 123.074219 123.070312 123.074219s123.070313-55.101562 123.070313-123.074219c0-67.96875-55.097657-123.070312-123.070313-123.070312-67.9375.078125-122.996094 55.132812-123.070312 123.070312zm53.992187 86.742188c1.703125-15.054688 14.390625-26.460938 29.539063-26.558594h12.65625c2.546875 12.757813 13.742187 21.941406 26.75 21.941406 13.007812 0 24.207031-9.183593 26.75-21.941406h12.917968c15.152344.097656 27.839844 11.503906 29.539063 26.558594-40.417969 32.214844-97.738281 32.214844-138.15625 0zm43.011719-61.34375c-6.988281-6.863281-10.929688-16.246094-10.933594-26.039062v-3.21875c24.53125-4.773438 45.910156-19.675782 58.875-41.042969 1.613282.585937 3.152344 1.359375 4.582032 2.308593 6.574218 4.375 10.476562 11.789063 10.359374 19.683594l.183594 4.214844v17.519531c-.03125 20.332031-16.347656 36.890625-36.675781 37.21875-9.867187.128907-19.375-3.707031-26.390625-10.644531zm75.066406-44-.160156-4.128906c.234375-11.957032-5.636719-23.210938-15.582031-29.855469-4.011719-2.699219-8.582031-4.457031-13.367188-5.136719-2.476562-.34375-4.910156.875-6.117187 3.0625-19.195313 35.136719-53.109375 39.195313-55.910156 39.472656-3.796876.15625-6.808594 3.25-6.863282 7.050782v7.5c.03125 2.382812.234375 4.761718.605469 7.113281-4.433594-9.070313-6.941406-18.964844-7.359375-29.054687-.40625-9.25 1.523438-18.453126 5.617188-26.753907 6.941406-13.925781 20.101562-24.558593 36.085937-29.179687 8.964844-2.773438 18.652344-1.976563 27.039063 2.226562 7.902343 4.117188 14.09375 10.898438 17.472656 19.144532l.222656.664062c.980469 2.949219 4.054688 4.660156 7.078125 3.941406 1.511719-.359375 9.300781-1.511718 14.363281 11.019532 5.082032 12.59375 4.792969 26.902343-.816406 40.292968-.878906 2.269532-1.875 4.492188-2.984375 6.660156.371094-2.1875.597656-4.398437.675781-6.613281zm-64 73.125v-8.917969c4.761719 1.738281 9.796875 2.609375 14.867188 2.578125h.371094c5.027343-.089844 10.011718-.980468 14.761718-2.640625v9.65625c0 8.285157-6.714844 15-15 15s-15-6.714843-15-15v-.679687zm126.070313-54.519531c.019531 29-11.386719 56.839843-31.746094 77.492187-5.488281-17.371094-21.566406-29.214844-39.785156-29.3125h-12.539063v-.601562c4.164063-3.140625 8.070313-6.605469 11.679688-10.371094 10.800781-10.789062 18.785156-22.160156 23.664062-33.796875 6.835938-16.324219 7.164063-33.875.890625-49.421875-4.742187-11.746094-13.464843-18.671875-23.105469-18.785156-10.269531-21.496094-34.726562-32.238282-57.5-25.253906-19.199218 5.550781-35.054687 18.4375-43.484374 35.355468-4.921876 10.136719-7.207032 21.347656-6.640626 32.601563 1.171876 28.332031 16.5 54.699219 40.5 68.253906v2.019531h-12.542968c-18.21875.09375-34.292969 11.9375-39.785156 29.308594-35.019532-35.828125-41.699219-90.667969-16.304688-133.855469s76.566406-64.015625 124.898438-50.835937c48.335937 13.183594 81.851562 57.101562 81.804687 107.199218zm0 0"/></svg>