<svg height="493pt" viewBox="0 -21 493.31185 493" width="493pt" xmlns="http://www.w3.org/2000/svg"><path d="m24.78125 316.230469c.464844 0 .929688-.039063 1.386719-.121094l43.71875-7.648437c4.351562-.761719 7.261719-4.90625 6.5-9.257813l-.585938-3.351563 9.015625-7.320312c3.46875-2.886719 7.925782-4.3125 12.425782-3.976562l71.292968 5.210937c.179688.015625.359375.019531.535156.023437 16.453126.066407 32.492188-5.132812 45.777344-14.832031.304688-.226562.59375-.472656.863282-.734375l84.921874-83.148437c3.039063-2.945313 3.261719-7.753907.5-10.964844-4.605468-5.125-10.726562-8.652344-17.472656-10.058594v-161.65625c-.03125-4.480469-3.617187-8.128906-8.101562-8.238281h-208.597656c-4.527344.085938-8.183594 3.714844-8.300782 8.238281v192.835938c0-1.242188-1.335937-2.332031-2.480468-3.132813-1.710938-1.21875-3.835938-1.699218-5.902344-1.335937l-43.679688 7.648437c-4.347656.769532-7.242187 4.914063-6.476562 9.257813l16.785156 95.9375c.671875 3.824219 3.992188 6.617187 7.875 6.625zm180.15625-53.675781c-10.3125 7.453124-22.6875 11.507812-35.410156 11.601562h-.101563l-71.019531-5.375c-8.582031-.679688-17.09375 2-23.738281 7.476562l-2.023438 1.597657-8.933593-51.117188c15.1875-14.640625 37.03125-20.074219 57.308593-14.257812l4.460938 1.265625c8.140625 2.304687 16.695312 2.75 25.03125 1.300781l39.867187-6.976563c8.976563-1.558593 17.992188 2.542969 22.714844 10.332032l-56.179688 9.828125c-4.089843.707031-6.957031 4.429687-6.601562 8.566406s3.820312 7.3125 7.96875 7.3125c.46875 0 .929688-.039063 1.390625-.121094l65.535156-11.460937c4.351563-.761719 7.261719-4.910156 6.5-9.261719-.339843-1.945313-.832031-3.863281-1.472656-5.738281l38.382813-28.699219.164062-.125c3.921875-3.070313 9.136719-3.9375 13.839844-2.300781zm-58.277344-246.398438h49v32.671875l-21.929687-7.753906c-1.660157-.601563-3.472657-.601563-5.132813 0l-21.9375 7.753906zm-16 0v43.957031c-.039062 2.582031 1.1875 5.015625 3.28125 6.519531 2.097656 1.507813 4.796875 1.890626 7.226563 1.03125l30.101562-10.5625 30.097657 10.5625c2.390624.863282 5.054687.480469 7.101562-1.023437 2.070312-1.519531 3.261719-3.957031 3.191406-6.527344v-43.957031h56v155.167969c-3.117187 1.113281-6.035156 2.71875-8.648437 4.746093l-37.050781 27.6875c-8.785157-9.355468-21.683594-13.660156-34.324219-11.453124l-39.875 6.972656c-5.960938 1.035156-12.082031.71875-17.902344-.929688l-4.605469-1.269531c-16.734375-4.773437-34.601562-3.636719-50.59375 3.226563v-184.148438zm-85.433594 197.746094 14.023438 80.175781-27.957031 4.890625-14.027344-80.175781zm0 0"/><path d="m121.261719 119.15625h65.507812c4.417969 0 8-3.582031 8-8s-3.582031-8-8-8h-65.507812c-4.417969 0-8 3.582031-8 8s3.582031 8 8 8zm0 0"/><path d="m121.261719 153.15625h99.992187c4.417969 0 8-3.582031 8-8s-3.582031-8-8-8h-99.992187c-4.417969 0-8 3.582031-8 8s3.582031 8 8 8zm0 0"/><path d="m486.691406 340.097656-43.71875-7.648437c-4.351562-.761719-8.5 2.148437-9.261718 6.5l-.921876 5.285156c-18.699218-13.625-42.636718-17.855469-64.871093-11.472656l-4.457031 1.269531c-5.820313 1.648438-11.9375 1.96875-17.894532.933594l-39.871094-6.976563c-12.632812-2.203125-25.53125 2.101563-34.308593 11.453125l-37.027344-27.683594c-12.867187-10.109374-31.402344-8.332031-42.117187 4.035157-2.773438 3.195312-2.578126 8 .445312 10.964843l84.921875 83.144532c.269531.265625.558594.511718.863281.734375 13.285156 9.699219 29.324219 14.898437 45.773438 14.835937.179687 0 .355468-.007812.535156-.019531l71.292969-5.210937c4.53125-.332032 9.011719 1.113281 12.492187 4.027343l8.949219 7.265625-.585937 3.351563c-.761719 4.351562 2.148437 8.496093 6.5 9.261719l43.71875 7.648437c.460937.078125.921874.117187 1.386718.117187 3.886719-.003906 7.203125-2.796874 7.871094-6.621093l16.785156-95.9375c.761719-4.351563-2.148437-8.496094-6.5-9.257813zm-67.976562 71.804688c-6.644532-5.53125-15.183594-8.261719-23.804688-7.617188l-71.019531 5.191406c-12.734375-.011718-25.148437-4.003906-35.507813-11.414062l-77.6875-76.066406c4.722657-1.605469 9.933594-.703125 13.839844 2.390625.054688.042969.109375.085937.164063.125l38.382812 28.703125c-.636719 1.871094-1.128906 3.789062-1.472656 5.738281-.757813 4.351563 2.148437 8.496094 6.5 9.257813l65.539063 11.464843c.457031.078125.921874.121094 1.386718.121094 4.152344 0 7.613282-3.175781 7.96875-7.3125.359375-4.136719-2.507812-7.859375-6.601562-8.570313l-56.179688-9.828124c4.726563-7.789063 13.742188-11.890626 22.71875-10.328126l39.867188 6.972657c8.335937 1.449219 16.890625 1.003906 25.03125-1.300781l4.460937-1.273438c20.273438-5.824219 42.117188-.394531 57.308594 14.242188l-8.933594 51.09375zm43.3125 22.753906-27.957032-4.890625 14.023438-80.175781 27.960938 4.890625zm0 0"/></svg>