<svg height="462pt" viewBox="0 -4 462 461" width="462pt" xmlns="http://www.w3.org/2000/svg"><path d="m135 346.5h44v16h-44zm0 0"/><path d="m216 346.5h44v16h-44zm0 0"/><path d="m31 163.5h35v16h-35zm0 0"/><path d="m82 163.5h35v16h-35zm0 0"/><path d="m31 199.5h35v16h-35zm0 0"/><path d="m82 199.5h35v16h-35zm0 0"/><path d="m31 235.5h35v16h-35zm0 0"/><path d="m82 235.5h35v16h-35zm0 0"/><path d="m31 271.5h35v16h-35zm0 0"/><path d="m82 271.5h35v16h-35zm0 0"/><path d="m31 307.5h35v16h-35zm0 0"/><path d="m82 307.5h35v16h-35zm0 0"/><path d="m31 343.5h35v16h-35zm0 0"/><path d="m82 343.5h35v16h-35zm0 0"/><path d="m31 379.5h35v16h-35zm0 0"/><path d="m82 379.5h35v16h-35zm0 0"/><path d="m297 346.5h44v16h-44zm0 0"/><path d="m378 346.5h44v16h-44zm0 0"/><path d="m135 377.5h44v16h-44zm0 0"/><path d="m216 377.5h44v16h-44zm0 0"/><path d="m297 377.5h44v16h-44zm0 0"/><path d="m378 377.5h44v16h-44zm0 0"/><path d="m193.539062 77.109375c-4.59375 3.089844-11.539062 7.753906-11.539062 17.390625 0 4.417969 3.582031 8 8 8s8-3.582031 8-8c0-.882812.917969-1.726562 4.460938-4.109375 4.601562-3.085937 11.539062-7.75 11.539062-17.386719 0-9.640625-6.941406-14.300781-11.539062-17.390625-3.542969-2.382812-4.460938-3.226562-4.460938-4.113281s.917969-1.730469 4.460938-4.109375c4.597656-3.085937 11.539062-7.75 11.539062-17.390625s-6.941406-14.300781-11.539062-17.390625c-3.542969-2.378906-4.460938-3.226563-4.460938-4.109375 0-4.417969-3.582031-8-8-8s-8 3.582031-8 8c0 9.636719 6.941406 14.300781 11.539062 17.390625 3.542969 2.382813 4.460938 3.226563 4.460938 4.109375s-.917969 1.726562-4.460938 4.109375c-4.597656 3.089844-11.539062 7.753906-11.539062 17.390625s6.941406 14.300781 11.539062 17.390625c3.542969 2.378906 4.460938 3.226563 4.460938 4.109375s-.917969 1.730469-4.460938 4.109375zm0 0"/><path d="m404.539062 77.109375c-4.59375 3.089844-11.539062 7.753906-11.539062 17.390625 0 4.417969 3.582031 8 8 8s8-3.582031 8-8c0-.882812.917969-1.726562 4.460938-4.109375 4.601562-3.085937 11.539062-7.75 11.539062-17.386719 0-9.640625-6.941406-14.300781-11.539062-17.390625-3.542969-2.382812-4.460938-3.226562-4.460938-4.113281s.917969-1.730469 4.460938-4.109375c4.597656-3.085937 11.539062-7.75 11.539062-17.390625s-6.941406-14.300781-11.539062-17.390625c-3.542969-2.378906-4.460938-3.226563-4.460938-4.109375 0-4.417969-3.582031-8-8-8s-8 3.582031-8 8c0 9.636719 6.941406 14.300781 11.539062 17.390625 3.542969 2.382813 4.460938 3.226563 4.460938 4.109375s-.917969 1.726562-4.460938 4.109375c-4.597656 3.089844-11.539062 7.753906-11.539062 17.390625s6.941406 14.300781 11.539062 17.390625c3.542969 2.378906 4.460938 3.226563 4.460938 4.109375s-.917969 1.730469-4.460938 4.109375zm0 0"/><path d="m454 307.5h-6v-191c0-4.417969-3.582031-8-8-8h-62c-4.417969 0-8 3.582031-8 8v191h-25v-191c0-4.417969-3.582031-8-8-8h-62c-4.417969 0-8 3.582031-8 8v191h-26v-191c0-4.417969-3.582031-8-8-8h-62c-4.417969 0-8 3.582031-8 8v191h-14v-165c0-4.417969-3.582031-8-8-8h-133c-4.417969 0-8 3.582031-8 8v302c0 4.417969 3.582031 8 8 8h446c4.417969 0 8-3.582031 8-8v-129c0-4.417969-3.582031-8-8-8zm-22 0h-41.875c1.300781-42.039062 12.820312-64.320312 24.980469-87.824219 5.976562-11.546875 12.039062-23.285156 16.894531-37.394531zm-6.125-183c-1.300781 42.039062-12.820312 64.320312-24.980469 87.824219-5.179687 10.011719-10.425781 20.164062-14.894531 31.878906v-119.703125zm-142.875 0h46v183h-46zm-58 183h-39.875c1.300781-42.039062 12.820312-64.320312 24.980469-87.824219 5.179687-10.011719 10.425781-20.164062 14.898437-31.878906zm-4.125-183c-1.300781 42.039062-12.820312 64.320312-24.980469 87.824219-5.976562 11.546875-12.039062 23.285156-16.898437 37.394531v-125.21875zm-87.875 26v165c0 4.417969 3.582031 8 8 8h305v83h-430v-256zm-117 286v-14h430v14zm0 0"/></svg>