<svg height="481pt" viewBox="0 -33 481.954 481" width="481pt" xmlns="http://www.w3.org/2000/svg"><path d="m245.75 170.664062c2.066406 0 4.050781-.796874 5.539062-2.226562l51.644532-49.542969 53.503906 42.144531c2.886719 2.277344 6.957031 2.289063 9.859375.03125l74.675781-58.03125-2.5625 33.3125c-.339844 4.40625 2.957032 8.25 7.363282 8.589844.207031.015625.414062.023438.621093.023438 4.175781-.003906 7.648438-3.222656 7.96875-7.386719l3.953125-51.394531c.160156-2.121094-.527344-4.222656-1.917968-5.835938-1.390626-1.613281-3.367188-2.605468-5.488282-2.757812l-55.347656-3.953125c-2.863281-.21875-5.621094 1.109375-7.234375 3.480469-1.613281 2.375-1.832031 5.429687-.574219 8.007812 1.261719 2.578125 3.804688 4.285156 6.667969 4.472656l34.589844 2.46875-67.589844 52.53125-54.058594-42.578125c-3.132812-2.46875-7.605469-2.25-10.484375.511719l-56.667968 54.359375c-2.355469 2.261719-3.101563 5.726563-1.882813 8.757813s4.15625 5.015624 7.421875 5.015624zm0 0"/><path d="m473.953125 398.480469h-37.953125v-204.5c-.117188-4.585938-3.757812-8.296875-8.339844-8.5h-77.21875c-4.597656.195312-8.277344 3.894531-8.441406 8.5v204.5h-49v-165.738281c-.101562-4.523438-3.742188-8.160157-8.265625-8.261719h-77.214844c-4.417969 0-7.519531 3.84375-7.519531 8.261719v165.738281h-50v-93.546875c-.054688-4.546875-3.648438-8.257813-8.191406-8.453125h-77.21875c-4.417969 0-7.589844 4.035156-7.589844 8.453125v93.546875h-41v-366.292969c0-4.417969-3.582031-8-8-8s-8 3.582031-8 8v374.570312c.0234375 2.097657.886719 4.097657 2.402344 5.550782 1.511718 1.453125 3.546875 2.234375 5.644531 2.171875h465.90625c4.417969 0 8-3.582031 8-8 0-4.421875-3.582031-8-8-8zm-400.953125 0v-86h61v86zm143 0v-158h61v158zm142 0v-197h62v197zm0 0"/><path d="m131 238.746094c33.417969-.140625 64.222656-18.109375 80.792969-47.128906 15.351562-26.796876 15.5-58.175782.398437-83.945313-.125-.214844-.257812-.421875-.398437-.621094l-74.292969-103.371093c-1.515625-2.058594-3.9375-3.253907-6.492188-3.199219-2.554687-.054688-4.976562 1.132812-6.496093 3.1875l-74.300781 103.164062c-.148438.195313-.289063.398438-.417969.609375-15.117188 25.9375-14.933594 57.441406.5 84.300782 16.585937 28.949218 47.34375 46.863281 80.707031 47.003906zm-67.570312-122.960938 67.5625-93.878906 67.582031 94.167969c12.164062 21 11.929687 45.613281-.664063 67.585937-13.601562 24.132813-39.148437 39.066406-66.847656 39.085938-27.703125.019531-53.265625-14.882813-66.898438-38.996094-12.664062-22.042969-12.929687-46.792969-.734374-67.964844zm0 0"/><path d="m131 181.632812c-6.679688-.011718-12.089844-5.421874-12.101562-12.101562 0-4.417969-3.582032-8-8-8-4.417969 0-8 3.582031-8 8 .019531 12.042969 7.695312 22.742188 19.101562 26.613281v6.335938c0 4.417969 3.582031 8 8 8s8-3.582031 8-8v-5.730469c13.71875-3.519531 22.679688-16.695312 20.902344-30.75-1.78125-14.050781-13.738282-24.582031-27.902344-24.570312-6.683594 0-12.101562-5.417969-12.101562-12.101563s5.417968-12.097656 12.101562-12.097656 12.101562 5.414062 12.101562 12.097656c0 4.417969 3.582032 8 8 8 4.417969 0 8-3.582031 8-8-.019531-12.429687-8.1875-23.378906-20.101562-26.933594v-4.914062c0-4.421875-3.582031-8-8-8s-8 3.578125-8 8v4.914062c-13.378906 3.972657-21.8125 17.164063-19.804688 30.976563 2.007813 13.8125 13.847657 24.054687 27.804688 24.058594 6.683594 0 12.101562 5.417968 12.101562 12.097656 0 6.683594-5.417968 12.101562-12.101562 12.101562zm0 0"/></svg>