<svg height="490pt" viewBox="-59 0 490 490.173" width="490pt" xmlns="http://www.w3.org/2000/svg"><path d="m362.210938 238.632812-94.324219 22.773438c-22.289063 5.402344-40.316407 21.746094-47.871094 43.402344s-3.609375 45.667968 10.480469 63.765625l-36.410156 36.371093v-141.773437h31.460937c6.03125-.03125 11.796875-2.46875 16.027344-6.765625s6.574219-10.101562 6.511719-16.132812v-22.554688c-.023438-8.859375 7.140624-16.054688 16-16.070312 17.691406-.027344 32.015624-14.382813 32-32.074219v-74.992188c0-4.417969-3.148438-8.410156-7.566407-8.410156h-16.433593v-61.671875c0-13.53125-10.96875-24.5-24.5-24.5s-24.5 10.96875-24.5 24.5v61.671875h-74v-61.671875c0-13.53125-10.96875-24.5-24.5-24.5s-24.5 10.96875-24.5 24.5v61.671875h-16.429688c-4.421875 0-7.570312 3.992187-7.570312 8.410156v74.992188c-.011719 17.6875 14.308593 32.042969 32 32.070312 8.859374.015625 16.023437 7.214844 16 16.070313v22.558594c-.0625 6.03125 2.28125 11.835937 6.511718 16.132812 4.230469 4.296875 10 6.734375 16.027344 6.765625h31.460938v141.773437l-36.414063-36.378906c14.097656-18.101562 18.046875-42.121094 10.480469-63.78125s-25.609375-38.003906-47.910156-43.390625l-94.277344-22.761719c-2.699219-.652343-5.542969.140626-7.511719 2.09375-1.96875 1.957032-2.789063 4.792969-2.160156 7.496094l21.9375 94.4375c6.882812 30.742188 34.199219 52.574219 65.703125 52.511719h.335937c15.375-.042969 30.269531-5.359375 42.199219-15.058594l47.617188 47.449219v54.609375c0 4.417969 3.582031 8 8 8 4.417968 0 8-3.582031 8-8v-54.609375l47.617187-47.445312c11.929687 9.695312 26.824219 15.011718 42.199219 15.054687h.339844c31.492187.066406 58.800781-21.753906 65.691406-52.480469l21.945312-94.410156c.632813-2.707031-.183594-5.546875-2.148437-7.511719-1.96875-1.964843-4.8125-2.773437-7.519531-2.136719zm-123.125-214.132812c0-4.695312 3.804687-8.5 8.5-8.5 4.695312 0 8.5 3.804688 8.5 8.5v61.671875h-17zm-123 0c0-4.695312 3.804687-8.5 8.5-8.5 4.695312 0 8.5 3.804688 8.5 8.5v61.671875h-17zm24 215.773438v-22.554688c.015624-17.691406-14.308594-32.046875-32-32.070312-4.253907-.007813-8.328126-1.707032-11.332032-4.722657-3-3.015625-4.679687-7.097656-4.667968-11.351562v-67.402344h188v67.402344c.023437 8.855469-7.140626 16.054687-16 16.070312-17.691407.027344-32.011719 14.382813-32 32.070313v22.558594c.066406 1.785156-.589844 3.527343-1.820313 4.824218s-2.929687 2.046875-4.71875 2.074219h-37.03125c-.765625 0-1.582031-.375-2.429687-.375-.847657 0-1.660157.375-2.425782.375h-37.035156c-1.785156-.027344-3.488281-.777344-4.71875-2.074219s-1.886719-3.039062-1.820312-4.824218zm-.160157 87.214843c-.101562 10.648438-3.480469 21.003907-9.675781 29.660157l-96.378906-96.289063 66.570312 16.074219c23.28125 5.675781 39.617188 26.59375 39.484375 50.558594zm-51.65625 51.683594h-.3125c-24.046875.035156-44.890625-16.636719-50.136719-40.105469l-15.605468-67.167968 96.871094 96.875c-8.871094 6.722656-19.6875 10.371093-30.816407 10.398437zm143.976563-51.640625c-.148438-23.957031 16.167968-44.886719 39.441406-50.585938l66.617188-16.082031-96.382813 96.292969c-6.195313-8.644531-9.570313-18.988281-9.675781-29.625zm102.097656 11.5625c-5.25 23.457031-26.089844 40.117188-50.125 40.078125h-.3125c-11.132812-.042969-21.949219-3.703125-30.816406-10.433594l96.871094-96.777343zm0 0"/></svg>