<?xml version="1.0"?>
<svg xmlns="http://www.w3.org/2000/svg" id="Layer_1" data-name="Layer 1" viewBox="0 0 512 512" width="512" height="512"><title>Focus</title><path d="M373,193a6,6,0,0,0-6-6H146a6,6,0,0,0-6,6V319a6,6,0,0,0,6,6H367a6,6,0,0,0,6-6Zm-221,6H360V313H152Z"/><path d="M345.993,228.5c-11.627-.212-19.8-6.967-20.26-16.707A6.113,6.113,0,0,0,319.682,206H192.6a6.061,6.061,0,0,0-5.994,5.789c-.448,9.585-8.988,16.461-20.6,16.672A6.131,6.131,0,0,0,160,234.5v43.01a6.1,6.1,0,0,0,6.006,6c11.808.216,20.1,6.969,20.545,16.7A6.112,6.112,0,0,0,192.6,306H319.4a6.06,6.06,0,0,0,5.994-5.79c.448-9.584,8.989-16.46,20.6-16.671A6.131,6.131,0,0,0,352,277.505V234.5A6.1,6.1,0,0,0,345.993,228.5ZM172,272.024V239.956C185,237.8,194.85,229,197.744,218h50.795c-17.72,4-31.13,19.273-31.13,38s13.41,34,31.13,38H197.775C194.944,282,185,274.128,172,272.024Zm84-42.615A26.591,26.591,0,1,1,229.409,256,26.622,26.622,0,0,1,256,229.409Zm84,42.635C327,274.2,317.15,283,314.255,294H263.461c17.72-4,31.13-19.273,31.13-38s-13.41-34-31.13-38h51.073C317.4,229,327,237.781,340,239.948Z"/><path d="M256.613,95.176c-89,0-161.4,72.233-161.4,161.019s72.4,161.019,161.4,161.019,161.4-72.233,161.4-161.019S345.608,95.176,256.613,95.176Zm0,310.038c-82.379,0-149.4-66.85-149.4-149.019s67.02-149.019,149.4-149.019,149.4,66.849,149.4,149.019S338.991,405.214,256.613,405.214Z"/><path d="M496.514,250h-44C449.373,147,366,63.418,263,60.3v-44.2a6,6,0,1,0-12,0V60.3C147,63.418,63.853,147,60.714,250H15.486a6,6,0,1,0,0,12H60.712C63.819,365,147,448.971,251,452.094v43.812a6,6,0,0,0,12,0V452.094C366,448.971,449.407,365,452.514,262h44a6,6,0,0,0,0-12Zm-239.9,190.2c-101.458,0-184-82.542-184-184s82.542-184,184-184,184,82.542,184,184S358.071,440.2,256.613,440.2Z"/><path d="M285.793,44.169A214.121,214.121,0,0,1,468.64,227.02a6,6,0,0,0,5.935,5.181,6.108,6.108,0,0,0,.828-.057,6,6,0,0,0,5.123-6.764,226.121,226.121,0,0,0-193.092-193.1,6,6,0,0,0-1.641,11.888Z"/><path d="M225.793,480.109a6.1,6.1,0,0,0,.827.057,6,6,0,0,0,.813-11.945A214.119,214.119,0,0,1,44.587,285.38,6,6,0,1,0,32.7,287.021,226.124,226.124,0,0,0,225.793,480.109Z"/><path d="M37.823,232.144a6.1,6.1,0,0,0,.827.057,6,6,0,0,0,5.937-5.181A214.12,214.12,0,0,1,227.433,44.174a6,6,0,0,0-1.64-11.888A226.124,226.124,0,0,0,32.7,225.38,6,6,0,0,0,37.823,232.144Z"/><path d="M286.605,480.17a6.131,6.131,0,0,0,.829-.056A226.123,226.123,0,0,0,480.526,287.021a6,6,0,1,0-11.886-1.641A214.122,214.122,0,0,1,285.793,468.226a6,6,0,0,0,.812,11.944Z"/></svg>
