<svg id="Layer_1" height="512" viewBox="0 0 512 512" width="512" xmlns="http://www.w3.org/2000/svg" data-name="Layer 1"><path d="m192.993 136.281a6 6 0 0 0 -7.438-4.085 19.764 19.764 0 0 1 -9.035.639c-8.852-1.581-15.986-10.3-17.754-21.69a6 6 0 1 0 -11.858 1.839 42.23 42.23 0 0 0 8.543 19.926 15.983 15.983 0 0 0 -7.237 8.894 14.062 14.062 0 0 0 .288 8.585 6 6 0 0 0 11.344-3.915 2.164 2.164 0 0 1 -.119-1.286c.332-1.129 2.385-2.843 6-3.59a28.856 28.856 0 0 0 13.84 3.5 33.4 33.4 0 0 0 9.345-1.383 6 6 0 0 0 4.081-7.434z"/><path d="m160.178 281.059a6 6 0 0 0 -8.405-1.162c-2.835 2.146-10.467 7.076-20.04 6.548a27.7 27.7 0 0 1 -10.846-2.943 5.987 5.987 0 0 0 -1.781-.97 31.573 31.573 0 0 1 -14.773-20.589 6 6 0 0 0 -11.744 2.467 43.521 43.521 0 0 0 10.966 20.858 20.419 20.419 0 0 0 -9.971 11.261c-2.383 7.141-.015 14.992 6.182 20.489a6 6 0 1 0 7.964-8.976c-2.54-2.254-3.6-5.209-2.763-7.714 1-2.992 4.947-5.988 10.491-6.145a39.479 39.479 0 0 0 15.61 4.244q1.093.06 2.157.06c12.007 0 21.229-5.569 25.791-9.023a6 6 0 0 0 1.162-8.405z"/><path d="m163.042 314.965a6 6 0 0 0 -3.909 11.346c9.587 3.3 15.078 7.733 14.688 11.854-.2 2.1-.878 4.869-2.187 6.354a6 6 0 1 0 9 7.936c3.789-4.3 4.842-10.09 5.132-13.16.567-5.967-1.634-17.064-22.724-24.33z"/><path d="m268.479 144.648a29.06 29.06 0 0 0 8.688-3.05c3.61.747 5.663 2.462 6 3.593a2.157 2.157 0 0 1 -.12 1.283 6 6 0 1 0 11.344 3.915 14.049 14.049 0 0 0 .288-8.585 15.982 15.982 0 0 0 -7.237-8.894 42.23 42.23 0 0 0 8.543-19.926 6 6 0 1 0 -11.858-1.839c-1.768 11.393-8.9 20.109-17.754 21.69a19.807 19.807 0 0 1 -9.035-.639 6 6 0 1 0 -3.353 11.522 33.41 33.41 0 0 0 9.345 1.383 29.238 29.238 0 0 0 5.149-.453z"/><path d="m287.475 318.683a6 6 0 0 0 -7.628-3.718c-14.607 5.035-23.74 15.615-22.725 26.335a19.828 19.828 0 0 0 5.133 11.16 6 6 0 1 0 9-7.938 8.03 8.03 0 0 1 -2.187-4.352c-.39-4.129 4.624-10.388 14.688-13.855a6 6 0 0 0 3.719-7.632z"/><path d="m423.745 282.035c-4.73-11.361-14.715-19.394-21.221-23.656a49.877 49.877 0 0 0 5.4-34.913c-3.37-16.3-14.3-30.855-29.986-39.923-.539-.311-1.089-.6-1.636-.9 2.045-11.718.286-21.915-5.27-30.347-5.867-8.905-14.706-13.762-21.214-16.291a45.417 45.417 0 0 0 3.606-8.578c5.013-16.565 1.422-40.305-18.3-53.283a56.485 56.485 0 0 0 -24.871-9.014c-2.853-20.344-19.937-37.489-42.553-41.83a61.222 61.222 0 0 0 -48.532 12.024 55.571 55.571 0 0 0 -46.42-12.024c-21.707 4.166-37.548 20.99-40.148 41.839a56.5 56.5 0 0 0 -24.828 9.009c-19.729 12.979-23.318 36.719-18.305 53.284a45.286 45.286 0 0 0 3.606 8.578c-6.508 2.529-15.347 7.386-21.215 16.291-5.557 8.433-7.315 18.629-5.27 30.348-.546.3-1.1.583-1.635.894-15.687 9.068-26.617 23.62-29.987 39.923a49.877 49.877 0 0 0 5.4 34.915c-7.287 4.774-18.959 14.263-22.687 27.845-4.617 16.818 4.935 33.549 25.105 44.7a41.115 41.115 0 0 0 6.086 43.811c9.19 10.722 23.993 15.53 38.949 15.53a69.542 69.542 0 0 0 25.474-4.8 45.421 45.421 0 0 0 45.848 2.775c6.77 12.215 15.33 19.1 25.507 20.51a37.64 37.64 0 0 0 5.154.355c12.911 0 23.19-6.678 29.117-11.728 7.321 6.054 19.381 11.721 31.691 11.721a37.927 37.927 0 0 0 5.186-.35c12.992-1.794 21.6-12.289 26.22-19.894a106.8 106.8 0 1 0 141.729-106.821zm-237.456 114.829c-7.342-1.013-13.779-7.542-19.131-19.4a6 6 0 0 0 -8.706-2.584c-7.329 4.694-14.867 6.781-22.42 6.187a33.462 33.462 0 0 1 -10.338-2.529c.344-.264.7-.522 1.029-.794a43.294 43.294 0 0 0 14.577-23.537 6.008 6.008 0 0 0 -11.657-2.915 30.723 30.723 0 0 1 -10.509 16.989c-7.488 6.119-19.486 9.719-31.368 9.719h-.238c-12.6 0-23.369-4.041-29.547-11.249a29.206 29.206 0 0 1 -1.947-35.165 6 6 0 0 0 -2.549-8.7c-21.893-10.026-26.873-23.871-24.234-33.486 3.551-12.936 19.586-22.515 21.877-23.511a6 6 0 0 0 2.486-9.108 37.71 37.71 0 0 1 -6.9-30.888c2.678-12.956 11.513-24.605 24.24-31.962 25.018-14.462 59.822-7.989 76.005 14.129a6 6 0 1 0 9.684-7.085c-9.635-13.17-24.6-22.222-42.138-25.487a74.062 74.062 0 0 0 -36.5 2.259c-.8-7.354.477-13.653 3.826-18.774 7.136-10.914 21.582-13.6 21.707-13.619a6 6 0 0 0 3.693-9.64 35.589 35.589 0 0 1 -6.28-11.76c-3.882-12.83-.521-30.614 13.415-39.783a44.83 44.83 0 0 1 23.455-7.493c.106.007.211.018.319.02a5.882 5.882 0 0 0 .705-.034c13.035-.093 26.376 5.455 37.587 16.321a6 6 0 1 0 8.351-8.616c-11.75-11.39-25.862-17.924-40.043-19.315 2.563-14.966 14.334-26.913 30.27-29.973a43.268 43.268 0 0 1 37.99 10.836v214.127a52.436 52.436 0 0 0 -12.8-7.269 6 6 0 0 0 -4.286 11.209c1.432.547 13.04 5.229 17.082 14.4v108.189c-4.396 4.227-14.353 12-26.707 10.291zm91.982-22.689a6.007 6.007 0 0 0 -3.762 3.284c-7.6 16.845-18.288 19.121-20.353 19.4-11.633 1.608-24.134-5.151-29.156-10.111v-103.867a5.97 5.97 0 0 0 .651-4.367c-.184-.785-.408-1.544-.651-2.29v-47.28a5.985 5.985 0 0 0 1.557-4.72 14.835 14.835 0 0 1 .284-5.024c2.444-10.429 16.318-16.215 19.075-17.268a6 6 0 1 0 -4.287-11.209 51.444 51.444 0 0 0 -16.629 9.888v-154.536a49.471 49.471 0 0 1 40.435-10.992c16.591 3.186 29.685 15.571 32.62 29.984-14.15 1.411-28.225 7.94-39.949 19.3a6 6 0 0 0 8.352 8.616c18.534-17.966 42.9-21.426 62.065-8.813 13.936 9.168 17.3 26.953 13.415 39.782a35.551 35.551 0 0 1 -6.28 11.76 6.01 6.01 0 0 0 3.673 9.637c.145.026 14.591 2.708 21.728 13.622 3.348 5.12 4.621 11.419 3.825 18.773a74.045 74.045 0 0 0 -36.5-2.258c-17.538 3.265-32.5 12.317-42.139 25.487a6 6 0 1 0 9.684 7.085c16.183-22.119 50.99-28.588 76.005-14.13 12.727 7.358 21.563 19.007 24.24 31.963a37.71 37.71 0 0 1 -6.9 30.888 6.039 6.039 0 0 0 2.48 9.1 56.368 56.368 0 0 1 15.023 11.762 106.767 106.767 0 0 0 -64.805 9.206 23.309 23.309 0 0 0 -2.6-1.632 43.513 43.513 0 0 0 10.928-20.805 6 6 0 0 0 -11.744-2.467c-2.83 13.474-14.353 23.778-27.4 24.5-9.582.529-17.2-4.4-20.039-6.548a6 6 0 1 0 -7.243 9.567c4.562 3.455 13.782 9.023 25.791 9.023q1.064 0 2.156-.06a39.485 39.485 0 0 0 15.6-4.24 15 15 0 0 1 1.624.132 106.858 106.858 0 0 0 -46.86 80.037 6.006 6.006 0 0 0 -3.914-.179zm110.375 103.525a94.8 94.8 0 1 1 27.684-185.47 5.986 5.986 0 0 0 2.1.668 94.8 94.8 0 0 1 -29.779 184.8z"/><path d="m432 378h-39v-51a6 6 0 0 0 -12 0v57a6 6 0 0 0 6 6h45a6 6 0 0 0 0-12z"/></svg>