<svg height="470pt" viewBox="-26 0 470 470" width="470pt" xmlns="http://www.w3.org/2000/svg"><path d="m391.1875 0h-364.375c-14.886719 0-26.8125 12.390625-26.8125 27.277344v291.414062c0 3.867188 2.945312 7.308594 6.8125 7.308594h35.1875v9h-4.933594c-3.898437.042969-7.042968 3.207031-7.066406 7.105469v60.457031c0 3.863281 3.199219 7.4375 7.066406 7.4375h13.933594v52.722656c.015625 3.933594 3.144531 7.152344 7.082031 7.277344h62.058594c3.890625-.144531 6.945313-3.386719 6.859375-7.277344v-52.722656h164v52.722656c-.085938 3.890625 2.972656 7.132813 6.863281 7.277344h62.054688c3.9375-.125 7.066406-3.34375 7.082031-7.277344v-52.722656h13.9375c3.867188 0 7.0625-3.574219 7.0625-7.4375v-60.457031c-.019531-3.898438-3.164062-7.0625-7.0625-7.105469h-4.9375v-9h35.1875c3.867188 0 6.8125-3.441406 6.8125-7.308594v-291.414062c0-14.886719-11.925781-27.277344-26.8125-27.277344zm-29.1875 221h-147v-98h112.476562c9.179688-.011719 17.980469 3.632812 24.460938 10.132812s10.101562 15.3125 10.0625 24.488282zm-161 0h-145v-63.378906c-.039062-9.175782 3.582031-17.988282 10.0625-24.488282s15.28125-10.144531 24.460938-10.132812h110.476562zm-88 235h-48v-46h48zm240 0h-48v-46h48zm21-60h-330v-47h330zm-318-61v-100h306v100zm348-23h-28v-154.378906c.035156-12.886719-5.0625-25.261719-14.167969-34.382813-9.101562-9.125-21.464843-14.246093-34.355469-14.238281h-236.953124c-12.890626-.007812-25.253907 5.113281-34.355469 14.238281-9.105469 9.121094-14.203125 21.496094-14.167969 34.382813v154.378906h-28v-284.722656c0-7.167969 5.644531-13.277344 12.8125-13.277344h364.375c7.167969 0 12.8125 6.109375 12.8125 13.277344zm0 0"/><path d="m350 272c0-3.867188-3.132812-7-7-7h-49c-3.867188 0-7 3.132812-7 7v36c0 3.867188 3.132812 7 7 7h49c3.867188 0 7-3.132812 7-7zm-14 29h-35v-22h35zm0 0"/><path d="m130 272c0-3.867188-3.132812-7-7-7h-49c-3.867188 0-7 3.132812-7 7v36c0 3.867188 3.132812 7 7 7h49c3.867188 0 7-3.132812 7-7zm-14 29h-35v-22h35zm0 0"/><path d="m262 275c0-3.867188-3.132812-7-7-7h-93c-3.867188 0-7 3.132812-7 7v35c0 3.867188 3.132812 7 7 7h93c3.867188 0 7-3.132812 7-7zm-14 27h-79v-20h79zm0 0"/></svg>