<?xml version="1.0"?>
<svg xmlns="http://www.w3.org/2000/svg" id="Layer_1" data-name="Layer 1" viewBox="0 0 512 512" width="512" height="512"><title>Mining</title><path d="M151.99,365.722a37,37,0,1,0,37,37A37.042,37.042,0,0,0,151.99,365.722Zm0,58a21,21,0,1,1,21-21A21.024,21.024,0,0,1,151.99,423.722Z"/><path d="M351.99,365.722a37,37,0,1,0,37,37A37.042,37.042,0,0,0,351.99,365.722Zm0,58a21,21,0,1,1,21-21A21.024,21.024,0,0,1,351.99,423.722Z"/><path d="M432.231,146.886c-2-16.7-16.752-29.7-34.59-29.7-.351,0-.7.005-1.051.015A32.1,32.1,0,0,0,367.524,99.22a32.715,32.715,0,0,0-20.912,7.535,42.907,42.907,0,0,0-66.521-4.686c-6.479-17.315-23.788-29.791-43.855-29.791-20.611,0-38.479,13.062-44.454,31.433a34.81,34.81,0,0,0-6.035.477,38.094,38.094,0,0,0-28.1-12.153,37.6,37.6,0,0,0-34.088,20.873,28.944,28.944,0,0,0-21.149,23.52,29.291,29.291,0,0,0-24.183,22.627,22.379,22.379,0,0,0-13.752,20.457,22.125,22.125,0,0,0,11.3,19.244l27.345,150.536A8.125,8.125,0,0,0,110.99,356h282a8.124,8.124,0,0,0,7.871-6.708l28.494-156.787a23.983,23.983,0,0,0,2.876-45.619ZM386.313,340H117.667L96.031,221H407.95Zm24.545-135H93.122l-2.546-14H413.4Zm16.535-28.806a7.867,7.867,0,0,0-4.4-1.194H82.917a6.1,6.1,0,0,1,3.7-1.651,8.067,8.067,0,0,0,7.053-8.26l-.012-.36c0-6.978,6.122-12.673,13.647-12.673a14.824,14.824,0,0,1,2.075.14,8.006,8.006,0,0,0,8.974-9.474,11.8,11.8,0,0,1-.226-2.274c0-6.426,5.187-11.83,12.067-12.567a8,8,0,0,0,6.753-5.472c2.763-8.463,11.278-14.374,20.706-14.374a21.921,21.921,0,0,1,18.375,9.6,8,8,0,0,0,9.29,3.12,19.181,19.181,0,0,1,10.744-.5,8,8,0,0,0,9.836-6.725c1.9-14.394,14.94-25.249,30.34-25.249,16.586,0,30.3,12.715,30.571,28.344a8,8,0,0,0,4.2,6.9,19.827,19.827,0,0,1,3.073,2.046,8,8,0,0,0,12.657-3.778c3.267-10.214,13.461-17.348,24.79-17.348,10.641,0,20.078,6.024,24.041,15.346a8,8,0,0,0,7.363,4.869c.13,0,.265,0,.43-.009a26.025,26.025,0,0,1,3.448.245,8,8,0,0,0,7.524-3.175,16.385,16.385,0,0,1,13.192-6.5c7.745,0,14.363,5.152,15.739,12.251a8,8,0,0,0,9.714,6.259,20.113,20.113,0,0,1,4.664-.549c10.379,0,18.822,7.892,18.822,17.593,0,.487-.026,1-.081,1.576a8,8,0,0,0,7.173,8.719c4.466.444,7.966,4.078,7.966,8.185A8.133,8.133,0,0,1,427.393,176.194Z"/></svg>
