<svg height="507pt" viewBox="0 -11 507.3891 507" width="507pt" xmlns="http://www.w3.org/2000/svg"><path d="m467.085938 6.195312c-1.101563-4.277343-5.464844-6.851562-9.742188-5.746093l-75.863281 19.566406c-4.277344 1.101563-6.851563 5.464844-5.746094 9.742187l9.605469 37.253907-85.753906 22.117187c-22.183594-18.605468-51.988282-25.355468-80.027344-18.125-28.035156 7.230469-50.855469 27.554688-61.273438 54.570313l-152.285156 39.277343c-4.277344 1.101563-6.851562 5.464844-5.746094 9.742188l16.839844 65.277344c1.105469 4.277344 5.464844 6.851562 9.746094 5.746094l19.855468-5.117188v128.46875h-25.902343c-4.464844.0625-8.0625 3.679688-8.097657 8.144531v95.550781c.023438 4.496094 3.605469 8.167969 8.097657 8.304688h68.257812c4.417969 0 7.644531-3.886719 7.644531-8.304688v-95.550781c0-4.417969-3.226562-8.144531-7.644531-8.144531h-26.355469v-132.597656l105.652344-27.25c9.042969 13 21.339844 23.398437 35.664063 30.160156l-17.636719 191.6875h-41.996094c-2.070312-.019531-4.0625.804688-5.515625 2.285156-1.449219 1.480469-2.234375 3.488282-2.167969 5.5625v36.96875c-.078124 2.105469.691407 4.15625 2.132813 5.695313 1.445313 1.539062 3.445313 2.433593 5.550781 2.488281h207.023438c4.511718-.0625 8.167968-3.675781 8.292968-8.183594v-36.96875c-.152343-4.445312-3.847656-7.941406-8.292968-7.847656h-41.992188l-18.214844-197.957031c22.578126-14.824219 37.296876-39.011719 40.085938-65.875l74.894531-19.335938 9.609375 37.242188c1.105469 4.273437 5.464844 6.84375 9.742188 5.738281l11.167968-2.878906v298.066406h16v-302.195312l48.691407-12.558594c4.277343-1.101563 6.851562-5.464844 5.75-9.742188zm-386.390626 458.773438h-52v-80h52zm-50.113281-236.839844-12.839843-49.78125 135.703124-35c-2.863281 17.40625-.527343 35.273438 6.707032 51.363282zm313.113281 239.839844h-191v-21h191zm-50.355468-37h-90.898438l17.121094-186.078125c18.695312 4.757813 38.417969 3.433594 56.304688-3.78125zm-51.335938-199.316406c-40.730468 0-73.746094-33.015625-73.746094-73.746094 0-40.726562 33.015626-73.742188 73.746094-73.742188 40.726563 0 73.746094 33.015626 73.746094 73.742188-.046875 40.710938-33.039062 73.703125-73.746094 73.746094zm89.441406-81.121094c-1.4375-17.589844-8.058593-34.359375-19.019531-48.191406l76.914063-19.835938 12.835937 49.785156zm97.832032 22.761719-36.054688-139.785157 60.371094-15.570312 36.050781 139.78125zm0 0"/><path d="m242.003906 110.730469c-26.058594 0-47.179687 21.121093-47.179687 47.179687 0 26.054688 21.121093 47.175782 47.175781 47.175782 26.058594 0 47.179688-21.121094 47.179688-47.179688-.03125-26.039062-21.136719-47.144531-47.175782-47.175781zm0 78.355469c-17.21875 0-31.179687-13.957032-31.179687-31.175782s13.957031-31.179687 31.175781-31.179687 31.179688 13.957031 31.179688 31.175781c-.019532 17.210938-13.96875 31.160156-31.175782 31.179688zm0 0"/></svg>