<svg height="444pt" viewBox="0 -9 444.8218 444" width="444pt" xmlns="http://www.w3.org/2000/svg"><path d="m268.070312 4.109375c-1.46875-2.253906-3.957031-3.640625-6.648437-3.699219h-91.65625c-4.15625.066406-7.589844 3.261719-7.964844 7.402344l-11.167969 119.789062c-.210937 2.246094.53125 4.480469 2.042969 6.15625 1.515625 1.675782 3.664063 2.640626 5.921875 2.652344h33.113282l-4.921876 84.199219c-.21875 3.667969 2.089844 7.007813 5.59375 8.109375 3.503907 1.097656 7.304688-.332031 9.21875-3.464844l91.445313-149.671875c1.511719-2.46875 1.570313-5.5625.152344-8.085937-1.414063-2.523438-4.085938-4.085938-6.976563-4.085938h-38.730468l21.324218-51.726562c1.019532-2.492188.738282-5.328125-.746094-7.574219zm-39.929687 64.101563c-1.023437 2.484374-.75 5.316406.730469 7.558593 1.480468 2.242188 3.976562 3.605469 6.664062 3.640625h36.421875l-67.332031 110.199219 3.550781-60.722656c.128907-2.199219-.65625-4.355469-2.167969-5.960938-1.507812-1.601562-3.613281-2.511719-5.816406-2.515625h-32.8125l9.675782-104h72.410156zm0 0"/><path d="m385.328125 223.8125-58.273437 43.574219c-12.113282-14.75-31.222657-21.847657-50.027344-18.574219l-59.566406 10.417969c-9.492188 1.648437-19.230469 1.140625-28.5-1.484375l-6.660157-1.902344c-34.234375-9.832031-71.113281-2.175781-98.601562 20.46875l-2.507813-14.34375c-.761718-4.351562-4.90625-7.261719-9.257812-6.5l-65.3125 11.433594c-4.351563.761718-7.261719 4.90625-6.5 9.257812l25.070312 143.332032c.359375 2.09375 1.539063 3.953124 3.277344 5.175781 1.738281 1.21875 3.890625 1.695312 5.980469 1.324219l65.316406-11.421876c4.351563-.761718 7.261719-4.910156 6.5-9.261718l-1.234375-7.0625 15.199219-12.601563c5.972656-4.960937 13.636719-7.414062 21.378906-6.832031l106.515625 7.785156c.175781.011719.355469.019532.535156.019532h.652344c23.503906-.046876 46.386719-7.539063 65.371094-21.398438.304687-.226562.59375-.472656.863281-.734375l126.871094-124.230469c3.023437-2.960937 3.21875-7.765625.445312-10.960937-14.640625-16.894531-39.972656-19.308594-57.535156-5.480469zm-345.753906 185.042969-22.316407-127.570313 49.550782-8.675781 22.316406 127.574219zm265.191406-56.316407c-16.15625 11.617188-35.554687 17.867188-55.457031 17.871094h-.300782l-106.238281-7.664062c-11.875-.871094-23.621093 2.90625-32.761719 10.535156l-8.15625 6.789062-14.894531-85.128906c23.71875-23.917968 58.585938-33.003906 90.960938-23.699218l6.660156 1.898437c11.589844 3.28125 23.765625 3.917969 35.632813 1.859375l59.566406-10.417969c17.066406-2.964843 33.90625 6.304688 40.535156 22.308594l-89.171875 15.597656c-2.835937.472657-5.203125 2.425781-6.199219 5.125s-.464844 5.722657 1.386719 7.921875c1.851563 2.199219 4.742187 3.234375 7.570313 2.714844l97.910156-17.128906c4.351562-.761719 7.261718-4.90625 6.5-9.257813-.636719-3.644531-1.65625-7.214843-3.039063-10.648437l59.710938-44.648438c.054687-.042968.109375-.085937.164062-.128906 8.613281-6.835938 20.605469-7.484375 29.910157-1.625zm0 0"/></svg>