<svg height="484pt" viewBox="-63 0 484 484.00008" width="484pt" xmlns="http://www.w3.org/2000/svg"><path d="m353.785156 47.066406-35.4375-19.285156c-34.8125-18.875-77.429687-15.777344-109.148437 7.933594-26.710938 19.964844-62.59375 22.574218-91.914063 6.683594l-31.285156-17.019532v-17.398437c.007812-2.117188-.828125-4.148438-2.320312-5.644531-1.496094-1.5-3.523438-2.33984425-5.640626-2.335938h-40c-4.421874-.015625-8.019531 3.554688-8.039062 7.976562v425.023438h-21.960938c-4.425781 0-8.0195308 3.574219-8.039062 8v35.019531c.0195312 4.421875 3.617188 7.996094 8.039062 7.980469h100c2.117188.003906 4.144532-.835938 5.640626-2.332031 1.492187-1.496094 2.328124-3.527344 2.320312-5.644531v-35.023438c.007812-2.117188-.828125-4.152344-2.320312-5.652344-1.492188-1.5-3.523438-2.34375-5.640626-2.347656h-22.039062v-194.84375l23.632812 12.851562c34.816407 18.875 77.4375 15.777344 109.160157-7.9375 26.707031-19.960937 62.585937-22.566406 91.898437-6.675781l35.4375 19.285157c2.480469 1.347656 5.484375 1.292968 7.910156-.148438 2.429688-1.441406 3.914063-4.058594 3.914063-6.878906v-194.558594c.003906-2.929688-1.597656-5.625-4.167969-7.027344zm-253.785156 420.933594h-84v-19h84zm-54-35v-417h24v417zm295.957031-197.808594-23.613281-12.851562c-34.8125-18.875-77.425781-15.777344-109.144531 7.933594-26.710938 19.964843-62.597657 22.570312-91.917969 6.679687l-31.28125-17.011719v-176.339844l23.632812 12.847657c34.820313 18.878906 77.4375 15.78125 109.160157-7.929688 26.707031-19.964843 62.585937-22.570312 91.898437-6.683593l31.261719 17.015624zm0 0"/><path d="m282.828125 115.898438c-4.300781-21.328126-19.902344-35.113282-39.746094-35.113282-9.039062 0-18.632812 3.046875-28.015625 8.851563-9.488281-6.078125-18.992187-9.15625-28.308594-9.15625-19.96875 0-35.519531 13.9375-39.605468 35.496093-5.644532 29.429688 11.757812 68.296876 63.367187 88.773438.136719.054688.277344.105469.417969.152344 2.621094.957031 5.496094.957031 8.117188 0 .160156-.054688.316406-.109375.472656-.175782 51.582031-20.898437 68.964844-59.640624 63.3125-88.769531zm-67.847656 73.402343c-42-17.214843-56.46875-47.605469-52.113281-70.324219 2.632812-13.875 11.785156-22.492187 23.890624-22.492187 7.234376 0 15.34375 3.199219 23.457032 9.25 2.804687 2.09375 6.648437 2.117187 9.480468.0625 8-5.808594 16.308594-9.007813 23.386719-9.007813 12.0625 0 21.277344 8.527344 24.054688 22.253907 4.339843 22.421875-10.148438 52.683593-52.15625 70.257812zm0 0"/></svg>