<?xml version="1.0"?>
<svg xmlns="http://www.w3.org/2000/svg" id="Layer_1" data-name="Layer 1" viewBox="0 0 512 512" width="512" height="512"><title>Shopping Bag</title><path d="M429.631,171.677A7.822,7.822,0,0,0,421.709,165H354V111.564a98,98,0,1,0-196,0V165H90.291a7.822,7.822,0,0,0-7.922,6.677L37.583,489.556a8.364,8.364,0,0,0,1.883,6.527A8.16,8.16,0,0,0,45.5,499H466.5a8.215,8.215,0,0,0,6.038-2.969,8.006,8.006,0,0,0,1.883-6.367ZM174,111.564a82,82,0,1,1,164,0V165H174ZM54.71,483,97.243,181H158v44.209a8,8,0,0,0,16,0V181H338v44.209a8,8,0,1,0,16,0V181h60.757L457.29,483Z"/><path d="M256,239.341A97.159,97.159,0,1,0,353.159,336.5,97.27,97.27,0,0,0,256,239.341Zm0,178.318A81.159,81.159,0,1,1,337.159,336.5,81.251,81.251,0,0,1,256,417.659Z"/><path d="M256,301.272a15.107,15.107,0,0,1,15.09,15.09,8,8,0,0,0,16,0A31.141,31.141,0,0,0,264,286.321V281a8,8,0,0,0-16,0v5.321a31.089,31.089,0,0,0,8,61.131,15.09,15.09,0,1,1-15.09,15.09,8,8,0,0,0-16,0A31.143,31.143,0,0,0,248,392.583V400a8,8,0,0,0,16,0v-7.417a31.089,31.089,0,0,0-8-61.131,15.09,15.09,0,0,1,0-30.18Z"/><path d="M256,209.059A127.441,127.441,0,1,0,383.441,336.5,127.586,127.586,0,0,0,256,209.059Zm0,238.882A111.441,111.441,0,1,1,367.441,336.5,111.567,111.567,0,0,1,256,447.941Z"/></svg>
