<?xml version="1.0"?>
<svg xmlns="http://www.w3.org/2000/svg" id="Layer_1" data-name="Layer 1" viewBox="0 0 512 512" width="512" height="512"><title>Noughts</title><path d="M498,22a8,8,0,0,0-8-8H22a8,8,0,0,0-8,8V490a8,8,0,0,0,8,8H490a8,8,0,0,0,8-8ZM187,325V187H325V325Zm138,16V482H187V341ZM30,187H171V325H30Zm157-16V30H325V171Zm154,16H482V325H341Zm141-16H341V30H482ZM171,30V171H30V30ZM30,341H171V482H30ZM341,482V341H482V482Z"/><path d="M99.687,190.249A65.751,65.751,0,1,0,165.438,256,65.826,65.826,0,0,0,99.687,190.249Zm0,115.5A49.751,49.751,0,1,1,149.438,256,49.807,49.807,0,0,1,99.687,305.751Z"/><path d="M122.752,233.373a8,8,0,0,0-11.314,0l-11.313,11.313L88.812,233.373A8,8,0,1,0,77.5,244.686L88.811,256,77.5,267.314a8,8,0,1,0,11.315,11.313l11.313-11.313,11.313,11.313a8,8,0,1,0,11.314-11.313L111.438,256l11.314-11.314A8,8,0,0,0,122.752,233.373Z"/><path d="M289.5,233.354a8,8,0,0,0-11.309-.327l-30.622,28.905-13.528-13.891A8,8,0,1,0,222.582,259.2l19.023,19.533a8,8,0,0,0,11.223.236l36.35-34.31A8,8,0,0,0,289.5,233.354Z"/><path d="M256,190.249A65.751,65.751,0,1,0,321.751,256,65.826,65.826,0,0,0,256,190.249Zm0,115.5A49.751,49.751,0,1,1,305.751,256,49.807,49.807,0,0,1,256,305.751Z"/><path d="M256,477a65.751,65.751,0,1,0-65.751-65.751A65.826,65.826,0,0,0,256,477Zm0-115.5a49.751,49.751,0,1,1-49.751,49.751A49.807,49.807,0,0,1,256,361.5Z"/><path d="M233.81,433.876a8,8,0,0,0,11.314,0l11.314-11.313,11.313,11.313a8,8,0,1,0,11.314-11.313l-11.314-11.314,11.314-11.314a8,8,0,1,0-11.314-11.313l-11.313,11.313-11.314-11.313a8,8,0,1,0-11.314,11.313l11.314,11.314L233.81,422.563A8,8,0,0,0,233.81,433.876Z"/><path d="M411,166a65.751,65.751,0,1,0-65.751-65.751A65.826,65.826,0,0,0,411,166Zm0-115.5a49.751,49.751,0,1,1-49.751,49.751A49.807,49.807,0,0,1,411,50.5Z"/><path d="M388.81,122.876a8,8,0,0,0,11.314,0l11.314-11.313,11.313,11.313a8,8,0,1,0,11.314-11.313l-11.313-11.314,11.313-11.314a8,8,0,1,0-11.314-11.313L411.438,88.935,400.124,77.622A8,8,0,1,0,388.81,88.935l11.313,11.314L388.81,111.563A8,8,0,0,0,388.81,122.876Z"/><path d="M85.286,124.234a8,8,0,0,0,11.223.237L132.858,90.16a8,8,0,0,0-10.982-11.636L91.254,107.429,77.726,93.538A8,8,0,1,0,66.263,104.7Z"/><path d="M99.681,167.249A65.752,65.752,0,1,0,33.93,101.5,65.827,65.827,0,0,0,99.681,167.249Zm0-115.5A49.752,49.752,0,1,1,49.93,101.5,49.808,49.808,0,0,1,99.681,51.746Z"/></svg>
