<svg id="Layer_1" height="512" viewBox="0 0 512 512" width="512" xmlns="http://www.w3.org/2000/svg" data-name="Layer 1"><path d="m503.483 95.932c-.041-3.455-.09-6.119-.146-7.919-.106-3.415-.2-6.64-3.882-8.174a6.018 6.018 0 0 0 -4.238-.143c-3.786.426-22.633.185-39.305-.312a6 6 0 1 0 -.357 12c18.885.564 29.608.515 35.878.313.479 27.537.132 147.308-.27 231.308h-12.363a103.314 103.314 0 0 0 -103.064-97.052c-51 0-93.483 37.277-101.771 85.956a31.094 31.094 0 0 0 -17.6-5.5 31.873 31.873 0 0 0 -18.738 6.3c-7.99-49.033-50.635-86.76-101.892-86.76a103.322 103.322 0 0 0 -103.065 97.051h-12.67v-232h35.733a6 6 0 1 0 0-12h-41.4a6.629 6.629 0 0 0 -6.333 6.381v244c0 3.319 3.02 5.619 6.333 5.619h18.337a103.235 103.235 0 0 0 206.306-5.714c0-.38-.011-.709-.015-1.088 4.407-6.248 10.677-9.776 17.4-9.776 6.128 0 11.81 2.994 16.16 8.44-.02.833-.032 1.675-.032 2.513 0 56.928 46.315 103.054 103.242 103.054a102.914 102.914 0 0 0 103.069-97.429h18.337a5.84 5.84 0 0 0 6-5.78c0-.609.3-61.487.448-121.737.087-35.391.107-63.566.06-83.834-.032-12.049-.085-21.342-.162-27.717zm-367.75 324.691a91.343 91.343 0 0 1 -91.24-91.1c0-.046.007-.092.007-.139s-.006-.092-.007-.139a91.242 91.242 0 1 1 91.24 91.381zm240 0a91.242 91.242 0 1 1 91.242-91.323v.077s0 .052 0 .078a91.345 91.345 0 0 1 -91.242 91.168z"/><path d="m136 281.06a21.166 21.166 0 0 1 21.143 21.14 6 6 0 0 0 12 0 33.2 33.2 0 0 0 -28.143-32.763v-8.437a6 6 0 0 0 -12 0v8.81a33.141 33.141 0 0 0 7 65.535 21.143 21.143 0 1 1 -21.143 21.142 6 6 0 0 0 -12 0 33.2 33.2 0 0 0 26.143 32.392v9.121a6 6 0 0 0 12 0v-8.748a33.143 33.143 0 0 0 -5-65.907 21.143 21.143 0 1 1 0-42.285z"/><path d="m376 281.06a21.166 21.166 0 0 1 21.143 21.14 6 6 0 0 0 12 0 33.2 33.2 0 0 0 -28.143-32.763v-8.437a6 6 0 0 0 -12 0v8.81a33.141 33.141 0 0 0 7 65.535 21.143 21.143 0 1 1 -21.143 21.142 6 6 0 0 0 -12 0 33.2 33.2 0 0 0 26.143 32.392v9.121a6 6 0 0 0 12 0v-8.748a33.143 33.143 0 0 0 -5-65.907 21.143 21.143 0 1 1 0-42.285z"/></svg>