<?xml version="1.0" encoding="iso-8859-1"?>
<!-- Generator: Adobe Illustrator 19.0.0, SVG Export Plug-In . SVG Version: 6.00 Build 0)  -->
<svg version="1.1" id="Capa_1" xmlns="http://www.w3.org/2000/svg" xmlns:xlink="http://www.w3.org/1999/xlink" x="0px" y="0px"
	 viewBox="0 0 512 512" style="enable-background:new 0 0 512 512;" xml:space="preserve">
<g>
	<g>
		<path d="M258.648,0C116.512,0,0.883,100.323,0.883,223.632c0,86.175,53.419,163.746,137.122,200.704v70.009
			c0,6.862,3.978,13.112,10.199,16.007c2.383,1.106,4.92,1.648,7.451,1.648c4.084,0,8.121-1.412,11.364-4.143l72.321-60.81
			c5.826,0.218,11.941,0.218,17.543,0.218c140.182,0,254.234-100.323,254.234-223.632S397.859,0,258.648,0z M256.883,411.954
			c-7.38,0-15.743,0-22.081-0.518c-4.649-0.441-9.257,1.077-12.824,4.078l-48.669,40.919v-43.891c0-7.297-4.49-13.848-11.299-16.472
			C84.403,366.139,36.193,300.061,36.193,223.632c0-102.082,101.87-188.322,222.455-188.322
			c119.737,0,217.159,84.48,217.159,188.322C475.807,327.474,377.603,411.954,256.883,411.954z"/>
	</g>
</g>
<g>
	<g>
		<path d="M355.752,132.414H155.66c-9.752,0-17.655,7.904-17.655,17.655s7.904,17.655,17.655,17.655h200.092
			c9.752,0,17.655-7.904,17.655-17.655S365.503,132.414,355.752,132.414z"/>
	</g>
</g>
<g>
	<g>
		<path d="M355.752,203.034H155.66c-9.752,0-17.655,7.904-17.655,17.655c0,9.752,7.904,17.655,17.655,17.655h200.092
			c9.752,0,17.655-7.904,17.655-17.655C373.407,210.938,365.503,203.034,355.752,203.034z"/>
	</g>
</g>
<g>
	<g>
		<path d="M355.752,273.655H155.66c-9.752,0-17.655,7.904-17.655,17.655c0,9.752,7.904,17.655,17.655,17.655h200.092
			c9.752,0,17.655-7.904,17.655-17.655C373.407,281.559,365.503,273.655,355.752,273.655z"/>
	</g>
</g>
<g>
</g>
<g>
</g>
<g>
</g>
<g>
</g>
<g>
</g>
<g>
</g>
<g>
</g>
<g>
</g>
<g>
</g>
<g>
</g>
<g>
</g>
<g>
</g>
<g>
</g>
<g>
</g>
<g>
</g>
</svg>
