<svg height="498pt" viewBox="-18 0 498 498.25785" width="498pt" xmlns="http://www.w3.org/2000/svg"><path d="m6.128906 498.253906h120c1.5625.058594 3.085938-.523437 4.214844-1.605468 1.128906-1.082032 1.773438-2.574219 1.785156-4.140626v-120.226562c.003906-3.320312-2.679687-6.015625-6-6.027344h-10v-18.144531c0-3.3125-3.050781-5.855469-6.363281-5.855469h-31.636719v-22h146v22h-36.636718c-3.3125 0-6.363282 2.542969-6.363282 5.855469v18.144531h-10c-3.320312.011719-6.003906 2.707032-6 6.027344v120.226562c.011719 1.566407.65625 3.058594 1.785156 4.140626 1.128907 1.082031 2.652344 1.664062 4.214844 1.605468h120c1.5625.058594 3.085938-.523437 4.214844-1.605468 1.128906-1.082032 1.773438-2.574219 1.785156-4.140626v-120.226562c.003906-3.320312-2.679687-6.015625-6-6.027344h-10v-18.144531c0-3.3125-3.050781-5.855469-6.363281-5.855469h-38.636719v-22h154v22h-37.636718c-3.3125 0-6.363282 2.542969-6.363282 5.855469v18.144531h-10c-3.320312.011719-6.003906 2.707032-6 6.027344v120.226562c.011719 1.566407.65625 3.058594 1.785156 4.140626 1.128907 1.082031 2.652344 1.664062 4.214844 1.605468h120c1.5625.058594 3.085938-.523437 4.214844-1.605468 1.128906-1.082032 1.773438-2.574219 1.785156-4.140626v-120.226562c.003906-3.320312-2.679687-6.015625-6-6.027344h-10v-18.144531c0-3.3125-3.050781-5.855469-6.363281-5.855469h-37.636719v-27.617187c-.195312-3.480469-3-6.242188-6.484375-6.382813h-159.515625v-38.835937l19.753906 19.78125c1.515626 1.519531 3.726563 2.113281 5.796876 1.558593 2.074218-.554687 3.6875-2.175781 4.238281-4.25.550781-2.074218-.050781-4.28125-1.574219-5.792968l-30-30c-2.34375-2.34375-6.144531-2.34375-8.484375 0l-30 30c-2.34375 2.351562-2.339844 6.15625.011719 8.5 2.351562 2.34375 6.15625 2.335937 8.5-.015625l19.757812-19.726563v38.78125h-151.816406c-3.421875.167969-6.125 2.957032-6.183594 6.382813v27.617187h-43.636718c-3.3125 0-6.363282 2.542969-6.363282 5.855469v18.144531h-10c-3.320312.011719-6.003906 2.707032-6 6.027344v120.226562c.011719 1.566407.65625 3.058594 1.785156 4.140626 1.128907 1.082031 2.652344 1.664062 4.214844 1.605468zm242-12h-36v-28h36zm37 0h-25v-33.867187c-.070312-3.371094-2.796875-6.082031-6.171875-6.132813h-47.675781c-3.371094.050782-6.089844 2.765625-6.152344 6.132813v33.867187h-23v-108h108zm-16-120h-76v-12h76zm144 120h-36v-28h36zm37 0h-25v-33.867187c-.070312-3.371094-2.796875-6.082031-6.171875-6.132813h-47.675781c-3.371094.050782-6.089844 2.765625-6.152344 6.132813v33.867187h-23v-108h108zm-16-120h-76v-12h76zm-351 120h-36v-28h36zm-55-132h76v12h-76zm-16 24h108v108h-25v-33.867187c-.070312-3.371094-2.796875-6.082031-6.171875-6.132813h-47.675781c-3.371094.050782-6.089844 2.765625-6.152344 6.132813v33.867187h-23zm0 0"/><path d="m24.3125 403.253906h14.457031c3.3125 0 6-2.6875 6-6s-2.6875-6-6-6h-14.457031c-3.316406 0-6 2.6875-6 6s2.683594 6 6 6zm0 0"/><path d="m89.203125 403.253906h14.457031c3.316406 0 6-2.6875 6-6s-2.683594-6-6-6h-14.457031c-3.316406 0-6 2.6875-6 6s2.683594 6 6 6zm0 0"/><path d="m54.613281 403.253906h18.746094c3.3125 0 6-2.6875 6-6s-2.6875-6-6-6h-18.746094c-3.3125 0-6 2.6875-6 6s2.6875 6 6 6zm0 0"/><path d="m38.769531 429.253906c3.3125 0 6-2.6875 6-6s-2.6875-6-6-6h-14.457031c-3.316406 0-6 2.6875-6 6s2.683594 6 6 6zm0 0"/><path d="m89.203125 429.253906h14.457031c3.316406 0 6-2.6875 6-6s-2.683594-6-6-6h-14.457031c-3.316406 0-6 2.6875-6 6s2.683594 6 6 6zm0 0"/><path d="m54.613281 429.253906h18.746094c3.3125 0 6-2.6875 6-6s-2.6875-6-6-6h-18.746094c-3.3125 0-6 2.6875-6 6s2.6875 6 6 6zm0 0"/><path d="m203.769531 391.253906h-14.457031c-3.316406 0-6 2.6875-6 6s2.683594 6 6 6h14.457031c3.3125 0 6-2.6875 6-6s-2.6875-6-6-6zm0 0"/><path d="m268.660156 391.253906h-14.457031c-3.316406 0-6 2.6875-6 6s2.683594 6 6 6h14.457031c3.316406 0 6-2.6875 6-6s-2.683594-6-6-6zm0 0"/><path d="m238.359375 391.253906h-18.746094c-3.3125 0-6 2.6875-6 6s2.6875 6 6 6h18.746094c3.3125 0 6-2.6875 6-6s-2.6875-6-6-6zm0 0"/><path d="m203.769531 417.253906h-14.457031c-3.316406 0-6 2.6875-6 6s2.683594 6 6 6h14.457031c3.3125 0 6-2.6875 6-6s-2.6875-6-6-6zm0 0"/><path d="m268.660156 417.253906h-14.457031c-3.316406 0-6 2.6875-6 6s2.683594 6 6 6h14.457031c3.316406 0 6-2.6875 6-6s-2.683594-6-6-6zm0 0"/><path d="m238.359375 417.253906h-18.746094c-3.3125 0-6 2.6875-6 6s2.6875 6 6 6h18.746094c3.3125 0 6-2.6875 6-6s-2.6875-6-6-6zm0 0"/><path d="m368.769531 391.253906h-14.457031c-3.316406 0-6 2.6875-6 6s2.683594 6 6 6h14.457031c3.3125 0 6-2.6875 6-6s-2.6875-6-6-6zm0 0"/><path d="m433.660156 391.253906h-14.457031c-3.316406 0-6 2.6875-6 6s2.683594 6 6 6h14.457031c3.316406 0 6-2.6875 6-6s-2.683594-6-6-6zm0 0"/><path d="m403.359375 391.253906h-18.746094c-3.3125 0-6 2.6875-6 6s2.6875 6 6 6h18.746094c3.3125 0 6-2.6875 6-6s-2.6875-6-6-6zm0 0"/><path d="m368.769531 417.253906h-14.457031c-3.316406 0-6 2.6875-6 6s2.683594 6 6 6h14.457031c3.3125 0 6-2.6875 6-6s-2.6875-6-6-6zm0 0"/><path d="m433.660156 417.253906h-14.457031c-3.316406 0-6 2.6875-6 6s2.683594 6 6 6h14.457031c3.316406 0 6-2.6875 6-6s-2.683594-6-6-6zm0 0"/><path d="m403.359375 417.253906h-18.746094c-3.3125 0-6 2.6875-6 6s2.6875 6 6 6h18.746094c3.3125 0 6-2.6875 6-6s-2.6875-6-6-6zm0 0"/><path d="m231.128906 246.144531c67.972656 0 123.070313-55.101562 123.070313-123.074219 0-67.96875-55.097657-123.070312-123.070313-123.070312s-123.070312 55.101562-123.070312 123.070312c.074218 67.941407 55.132812 122.996094 123.070312 123.074219zm-64.015625-83.800781c-.777343-7.632812 1.691407-15.238281 6.800781-20.964844 5.109376-5.722656 12.386719-9.035156 20.058594-9.125h2.925782l8.566406 26.507813c.703125 2.207031 2.597656 3.828125 4.886718 4.179687.296876.058594.597657.089844.902344.101563l-7.132812 66.421875c-.050782.445312-.054688.894531-.007813 1.34375-13.273437-3.324219-25.8125-9.082032-36.984375-16.984375v-50.871094c.003906-.203125 0-.402344-.015625-.605469zm55.121094 71.441406-5.875-5.875 8.25-76.835937 6.136719-6.855469 6.960937 7.402344 8.191407 76.285156-5.875 5.875c-2.933594.234375-5.898438.355469-8.894532.359375s-5.964844-.113281-8.898437-.355469zm72.910156-71.441406c-.015625.203125-.019531.402344-.015625.605469v50.871093c-11.167968 7.90625-23.710937 13.671876-36.984375 17 .050781-.445312.050781-.890624 0-1.335937l-7.132812-66.390625c.433593.007812.871093-.03125 1.300781-.117188 2.066406-.507812 3.734375-2.03125 4.421875-4.042968l9.515625-26.679688h2.042969c7.671875.09375 14.949219 3.40625 20.054687 9.128906 5.109375 5.726563 7.574219 13.332032 6.796875 20.964844zm-64.015625-150.34375c61.316406.066406 111.011719 49.753906 111.085938 111.070312.207031 30.71875-12.527344 60.101563-35.085938 80.949219v-40.777343c1.023438-10.960938-2.59375-21.851563-9.976562-30.023438-7.378906-8.171875-17.847656-12.875-28.859375-12.964844h-6.265625c-2.5625.085938-4.808594 1.742188-5.644532 4.167969l-7.628906 21.332031-13.742187-14.570312c-1.160157-1.214844-2.773438-1.894532-4.453125-1.867188-1.679688.03125-3.273438.757813-4.390625 2.011719l-12.519531 14-6.6875-20.734375c-.78125-2.515625-3.074219-4.257812-5.703126-4.339844h-7.285156c-11.011718.089844-21.480468 4.792969-28.863281 12.960938-7.382813 8.171875-11.003906 19.0625-9.980469 30.027344v40.777343c-22.558594-20.847656-35.292968-50.230469-35.085937-80.949219.074219-61.316406 49.769531-111.003906 111.085937-111.070312zm0 0"/><path d="m267.128906 72.753906c0-20.710937-16.789062-37.5-37.5-37.5-20.710937 0-37.5 16.789063-37.5 37.5v13c0 20.710938 16.789063 37.5 37.5 37.5 20.710938 0 37.5-16.789062 37.5-37.5zm-12 13c0 14.082032-11.417968 25.5-25.5 25.5-14.082031 0-25.5-11.417968-25.5-25.5v-13c0-14.082031 11.417969-25.5 25.5-25.5 14.082032 0 25.5 11.417969 25.5 25.5zm0 0"/></svg>