<?xml version="1.0"?>
<svg xmlns="http://www.w3.org/2000/svg" id="Layer_1" data-name="Layer 1" viewBox="0 0 512 512" width="512" height="512"><title>Monitor</title><path d="M483.7,20H28.3A8.294,8.294,0,0,0,20,28.038V370.813A8.423,8.423,0,0,0,28.3,379H164v47H123.549c-4.419,0-7.549,3.544-7.549,7.962v50c0,4.419,3.13,8.038,7.549,8.038h264.9c4.419,0,7.549-3.619,7.549-8.038v-50c0-4.418-3.13-7.962-7.549-7.962H348V379H483.7a8.423,8.423,0,0,0,8.3-8.187V28.038A8.294,8.294,0,0,0,483.7,20ZM380,476H132V442H380Zm-48-50H180V379H332Zm144-63H36V36H476Z"/><path d="M439,80a8,8,0,0,0-8-8H80a8,8,0,0,0-8,8V319a8,8,0,0,0,8,8H431a8,8,0,0,0,8-8ZM88,88H424V311H88Z"/></svg>
