<?xml version="1.0"?>
<svg xmlns="http://www.w3.org/2000/svg" id="Layer_1" data-name="Layer 1" viewBox="0 0 512 512" width="512" height="512"><title>Oil Price</title><path d="M166,283H124a8,8,0,0,0-8,8V455a8,8,0,0,0,8,8h42a8,8,0,0,0,8-8V291A8,8,0,0,0,166,283Zm-8,163H132V299h26Z"/><path d="M252,258H210a8,8,0,0,0-8,8V454a8,8,0,0,0,8,8h42a8,8,0,0,0,8-8V266A8,8,0,0,0,252,258Zm-8,188H218V274h26Z"/><path d="M80,372H38a8,8,0,0,0-8,8v74a8,8,0,0,0,8,8H80a8,8,0,0,0,8-8V380A8,8,0,0,0,80,372Zm-8,74H46V388H72Z"/><path d="M422.962,39.865l-.093,52.276A7.864,7.864,0,0,0,430.854,100h.015a7.869,7.869,0,0,0,8-7.83L439,21.06A8.041,8.041,0,0,0,431,13h-.013l-74.5.182A7.909,7.909,0,1,0,356.5,29h.013l54.5.034L286.839,147.747,243.426,106.3a8,8,0,0,0-11.053.015L23.323,306.075A8,8,0,1,0,34.376,317.65L237.9,123.179l43.413,41.477a8,8,0,0,0,11.054,0Z"/><path d="M479.912,371.542,430,301.9V152.584c0-4.418-3.728-7.584-8.146-7.584H379.736A7.433,7.433,0,0,0,372,152.584V304.509l-27,37.5V206.8a8.046,8.046,0,0,0-8.249-7.8H294.633A7.523,7.523,0,0,0,287,206.8V454.174A7.548,7.548,0,0,0,294.633,462h34.859a89.581,89.581,0,0,0,150.362-8.718c14.845-25.9,15.026-56.225.424-81.143C480.153,371.927,480.057,371.742,479.912,371.542ZM388,161h26V279.605l-5.664-8.03A8.364,8.364,0,0,0,401.77,268h0a8,8,0,0,0-6.362,3.567l-7.4,10.71ZM323.342,371.818A79.9,79.9,0,0,0,320.025,446H303V215h26V364.239l-5.178,7.022C323.672,371.469,323.471,371.6,323.342,371.818Zm142.63,73.553a73.692,73.692,0,0,1-128.343.084c-12.145-21.137-12.4-44.868-.715-65.168l64.842-90.1,64.863,90.374C478.276,400.7,478.046,424.3,465.972,445.371Z"/><path d="M444.655,402.443a8,8,0,0,0-8,8,35.361,35.361,0,0,1-35.436,35.206,8,8,0,1,0,0,16,51.38,51.38,0,0,0,51.436-51.206A8,8,0,0,0,444.655,402.443Z"/></svg>
