<svg height="482pt" viewBox="-86 0 482 482.16895" width="482pt" xmlns="http://www.w3.org/2000/svg"><path d="m154.90625 419.746094c-11.882812-.015625-21.511719-9.644532-21.523438-21.527344 0-3.3125-2.6875-6-6-6-3.316406 0-6 2.6875-6 6 .019532 15.8125 11.066407 29.464844 26.523438 32.785156v11.164063c0 3.3125 2.683594 6 6 6 3.3125 0 6-2.6875 6-6v-10.800781c17.34375-2.621094 29.734375-18.164063 28.425781-35.65625-1.3125-17.492188-15.886719-31.015626-33.425781-31.019532-11.890625 0-21.527344-9.636718-21.527344-21.523437 0-11.890625 9.636719-21.527344 21.527344-21.527344 11.886719 0 21.523438 9.636719 21.523438 21.527344 0 3.3125 2.6875 6 6 6s6-2.6875 6-6c-.023438-16.574219-12.136719-30.652344-28.523438-33.148438v-12.851562c0-3.316407-2.6875-6-6-6-3.316406 0-6 2.683593-6 6v13.21875c-16.773438 3.582031-28.140625 19.246093-26.339844 36.304687 1.800782 17.054688 16.1875 30.003906 33.339844 30.003906 11.886719 0 21.523438 9.636719 21.523438 21.523438 0 11.890625-9.636719 21.527344-21.523438 21.527344zm0 0"/><path d="m6.046875 458.628906c8.039063 14.648438 23.480469 23.691406 40.191406 23.539063h217.335938c16.675781.035156 32.0625-8.976563 40.1875-23.539063 8.125-14.566406 7.710937-32.390625-1.082031-46.5625l-87.433594-140.714844c-9.289063-14.839843-14.257813-31.976562-14.339844-49.484374v-54.699219h3.398438c3.316406 0 5.601562-2.683594 5.601562-6v-36.851563c0-3.3125-2.289062-6.148437-5.601562-6.148437h-16.480469c.742187-2.339844 1.109375-4.785157 1.082031-7.242188.003906-13.808593-11.183594-25.003906-24.992188-25.007812-13.804687-.007813-25.003906 11.183593-25.007812 24.988281-.03125 2.460938.335938 4.914062 1.078125 7.261719h-31.339844c-1.582031.042969-3.074219.71875-4.152343 1.875-1.078126 1.15625-1.652344 2.691406-1.585938 4.273437v36.855469c0 3.234375 2 5.863281 5 5.988281v54.707032c.089844 17.46875-4.703125 34.613281-13.839844 49.5l-87.0625 140.699218c-8.871094 14.160156-9.238281 32.050782-.957031 46.5625zm144.859375-347.703125c-.007812-7.179687 5.808594-13.003906 12.988281-13.007812 7.179688-.007813 13.003907 5.808593 13.011719 12.988281.027344 2.597656-.761719 5.136719-2.257812 7.261719h-21.488282c-1.492187-2.117188-2.28125-4.652344-2.253906-7.242188zm-36 19.242188h83v25h-83zm-97.574219 288.261719 86.933594-140.738282c10.316406-16.789062 15.734375-36.121094 15.640625-55.824218v-54.699219h69v54.699219c.082031 19.746093 5.671875 39.078124 16.136719 55.820312l87.308593 140.738281c6.519532 10.441407 6.855469 23.601563.871094 34.359375-5.984375 10.757813-17.339844 17.414063-29.648437 17.382813h-217.335938c-12.316406.039062-23.683593-6.605469-29.691406-17.355469-6.003906-10.753906-5.703125-23.917969.789063-34.382812zm0 0"/><path d="m133.90625 64c0-13.808594-11.195312-25-25-25-13.808594 0-25 11.191406-25 25s11.191406 25 25 25c13.800781-.015625 24.984375-11.199219 25-25zm-38 0c0-7.179688 5.820312-13 13-13s13 5.820312 13 13-5.820312 13-13 13c-7.175781-.007812-12.992188-5.824219-13-13zm0 0"/><path d="m198.90625 25c0-13.808594-11.195312-25-25-25-13.808594 0-25 11.191406-25 25s11.191406 25 25 25c13.800781-.015625 24.984375-11.199219 25-25zm-38 0c0-7.179688 5.820312-13 13-13s13 5.820312 13 13-5.820312 13-13 13c-7.175781-.007812-12.992188-5.824219-13-13zm0 0"/></svg>