<svg height="484pt" viewBox="-63 0 484 484.00008" width="484pt" xmlns="http://www.w3.org/2000/svg"><path d="m353.785156 47.066406-35.4375-19.285156c-34.8125-18.875-77.429687-15.777344-109.148437 7.933594-26.710938 19.964844-62.59375 22.574218-91.914063 6.683594l-31.285156-17.019532v-17.398437c.007812-2.117188-.828125-4.148438-2.320312-5.644531-1.496094-1.5-3.523438-2.33984425-5.640626-2.335938h-40c-4.421874-.015625-8.019531 3.554688-8.039062 7.976562v425.023438h-21.960938c-4.425781 0-8.0195308 3.574219-8.039062 8v35.019531c.0195312 4.421875 3.617188 7.996094 8.039062 7.980469h100c2.117188.003906 4.144532-.835938 5.640626-2.332031 1.492187-1.496094 2.328124-3.527344 2.320312-5.644531v-35.023438c.007812-2.117188-.828125-4.152344-2.320312-5.652344-1.492188-1.5-3.523438-2.34375-5.640626-2.347656h-22.039062v-194.847656l23.632812 12.855468c34.816407 18.875 77.4375 15.777344 109.160157-7.9375 26.707031-19.960937 62.585937-22.570312 91.898437-6.675781l35.4375 19.285157c2.480469 1.347656 5.484375 1.292968 7.910156-.148438 2.429688-1.441406 3.914063-4.058594 3.914063-6.878906v-194.558594c.003906-2.929688-1.597656-5.625-4.167969-7.027344zm-253.785156 420.933594h-84v-19h84zm-54-35v-417h24v417zm295.953125-197.808594-23.609375-12.851562c-34.8125-18.875-77.425781-15.777344-109.144531 7.933594-26.714844 19.960937-62.597657 22.570312-91.917969 6.679687l-31.28125-17.011719v-176.339844l23.636719 12.847657c34.816406 18.878906 77.433593 15.78125 109.15625-7.929688 26.707031-19.964843 62.585937-22.574219 91.898437-6.683593l31.261719 17.015624zm0 0"/><path d="m269 116h-32v-32c0-4.417969-3.582031-8-8-8h-30c-4.417969 0-8 3.582031-8 8v32h-32c-4.417969 0-8 3.582031-8 8v31c0 4.417969 3.582031 8 8 8h32v32c0 4.417969 3.582031 8 8 8h30c4.417969 0 8-3.582031 8-8v-32h32c4.417969 0 8-3.582031 8-8v-31c0-4.417969-3.582031-8-8-8zm-8 31h-32c-4.417969 0-8 3.582031-8 8v32h-14v-32c0-4.417969-3.582031-8-8-8h-32v-15h32c4.417969 0 8-3.582031 8-8v-32h14v32c0 4.417969 3.582031 8 8 8h32zm0 0"/></svg>