<?xml version="1.0"?>
<svg xmlns="http://www.w3.org/2000/svg" id="Layer_1" data-name="Layer 1" viewBox="0 0 512 512" width="512" height="512"><title>Shopping Cart </title><path d="M177.4,423.748c-24.515,0-44.459,19.335-44.459,43.1s19.944,43.1,44.459,43.1,44.46-19.336,44.46-43.1S201.913,423.748,177.4,423.748Zm0,70.2c-15.692,0-28.459-12.158-28.459-27.1s12.767-27.1,28.459-27.1,28.46,12.158,28.46,27.1S193.09,493.953,177.4,493.953Z"/><path d="M370.584,423.748c-24.516,0-44.46,19.335-44.46,43.1s19.944,43.1,44.46,43.1,44.46-19.336,44.46-43.1S395.1,423.748,370.584,423.748Zm0,70.2c-15.693,0-28.46-12.158-28.46-27.1s12.767-27.1,28.46-27.1,28.46,12.158,28.46,27.1S386.277,493.953,370.584,493.953Z"/><path d="M467.971,186H391.215a108.134,108.134,0,0,0,1.458-17.365c0-55.865-45.45-101.426-101.316-101.426S190.042,112.825,190.042,168.691A107.346,107.346,0,0,0,191.5,186H123.761c-6.991-37-39.875-64-78.62-64H44.03a8,8,0,0,0,0,16h1.111c31.326,0,57.85,21.621,63.067,51.217l31.5,178.693c4.6,26.114,27.809,45.09,55.176,45.09H407.044a8,8,0,0,0,0-16H194.887c-19.587,0-36.166-13.217-39.419-31.671L152.91,351H388.363c24.991,0,47.153-16.4,53.895-39.694l33.4-115.46a7.61,7.61,0,0,0-1.29-6.842A7.824,7.824,0,0,0,467.971,186ZM291.357,83.1a85.315,85.315,0,1,1-85.315,85.315A85.412,85.412,0,0,1,291.357,83.1Zm135.532,223.98C422.115,323.573,406.273,335,388.363,335H150.089L126.606,202h69.009c13.761,39,51.479,68.172,95.742,68.172S373.339,241,387.1,202h70.227Z"/><path d="M291.357,246.071A77.657,77.657,0,1,0,213.7,168.414,77.745,77.745,0,0,0,291.357,246.071Zm0-139.314A61.657,61.657,0,1,1,229.7,168.414,61.728,61.728,0,0,1,291.357,106.757Z"/><path d="M291.357,198.8a10.05,10.05,0,0,1-10.039-10.039,8,8,0,0,0-16,0A26.077,26.077,0,0,0,282,213.052V218a8,8,0,0,0,16,0v-4.063a26.039,26.039,0,0,0-6.643-51.217A10.039,10.039,0,1,1,301.4,152.681a8,8,0,0,0,16,0A26.085,26.085,0,0,0,298,127.5V125a8,8,0,0,0-16,0v3.388a26.035,26.035,0,0,0,9.357,50.332,10.039,10.039,0,0,1,0,20.078Z"/><path d="M291,49a8,8,0,0,0,8-8V10a8,8,0,0,0-16,0V41A8,8,0,0,0,291,49Z"/><path d="M331,59a8,8,0,0,0,8-8V20a8,8,0,0,0-16,0V51A8,8,0,0,0,331,59Z"/><path d="M251,59a8,8,0,0,0,8-8V20a8,8,0,0,0-16,0V51A8,8,0,0,0,251,59Z"/></svg>
