<?xml version="1.0"?>
<svg xmlns="http://www.w3.org/2000/svg" id="Layer_1" data-name="Layer 1" viewBox="0 0 512 512" width="512" height="512"><title>Bus</title><path d="M375.455,297h-2.211a25.5,25.5,0,0,0,0,51h2.211a25.5,25.5,0,0,0,0-51Zm0,39h-2.211a13.5,13.5,0,0,1,0-27h2.211a13.5,13.5,0,0,1,0,27Z"/><path d="M138.756,297h-2.211a25.5,25.5,0,0,0,0,51h2.211a25.5,25.5,0,0,0,0-51Zm0,39h-2.211a13.5,13.5,0,0,1,0-27h2.211a13.5,13.5,0,0,1,0,27Z"/><path d="M305.093,316H206.907a6,6,0,0,0,0,12h98.186a6,6,0,1,0,0-12Z"/><path d="M492.228,114H452V84.354a38.8,38.8,0,0,0-38.582-38.532l-314.161-1.3A39.084,39.084,0,0,0,71.683,55.689,38.4,38.4,0,0,0,60,82.955V114H19.772A5.525,5.525,0,0,0,14,119.658v75.619A5.578,5.578,0,0,0,19.772,201H60V394.12c0,3.314,3.126,5.88,6.44,5.88H80v61.476c0,3.313,3.094,5.524,6.407,5.524h61.67c3.314,0,5.923-2.211,5.923-5.524V400.121H358v61.354c0,3.313,2.609,5.524,5.923,5.524h61.67c3.313,0,6.407-2.211,6.407-5.524V400h13.559a6.468,6.468,0,0,0,4.463-1.7A6.093,6.093,0,0,0,452,394.12V201h40.228A5.578,5.578,0,0,0,498,195.277V119.658A5.525,5.525,0,0,0,492.228,114ZM72,244.238V110.628l178,.745v133.61ZM262,111.423l178,.745V245.777l-178-.744ZM72.441,82.911A26.52,26.52,0,0,1,99.1,56.518l314.271,1.3A26.781,26.781,0,0,1,440,84.354v15.814L72,98.628V83H66.44ZM26,189V126H60v63ZM142,455H92V400h50Zm278,0H370V400h50ZM72,388.12V256.239l181.7.76a6.615,6.615,0,0,0,2.195.38,7.643,7.643,0,0,0,2.313-.363l181.8.761V388.123ZM486,189H452V126h34Z"/></svg>
