<svg height="496pt" viewBox="-30 0 496 496" width="496pt" xmlns="http://www.w3.org/2000/svg"><path d="m400.1875 174.125c-.882812-3.574219-4.078125-6.097656-7.761719-6.125h-348c-3.679687.027344-6.875 2.550781-7.757812 6.125l-36.429688 145.746094c-.597656 2.421875-.0625 4.980468 1.457031 6.957031 1.503907 1.96875 3.828126 3.136719 6.304688 3.171875h28.425781v158c0 4.417969 3.582031 8 8 8h348c4.417969 0 8-3.582031 8-8v-158h28.429688c2.480469-.035156 4.804687-1.203125 6.316406-3.167969 1.511719-1.96875 2.042969-4.515625 1.445313-6.921875zm-298.972656 57.875h46.992187l-3.691406 30h-48.839844zm-21.816406 30h-48.171876l7.382813-30h46.328125zm191.128906-46h-44.101563v-32h40.0625zm12.09375-32h43.972656l6.050781 32h-45.996093zm-56.195313 48h46.101563l3.691406 30h-49.792969zm-16 30h-49.785156l3.691406-30h46.09375zm0-46h-44.09375l4.035157-32h40.058593zm-60.21875 0h-45.992187l6.050781-32h43.976563zm-7.691406 62-4.488281 36h-52.082032l6.730469-36zm16.125 0h51.785156v36h-56.273437zm67.785156 0h51.789063l4.488281 36h-56.277344zm72.402344 36-4.488281-36h49.835937l6.734375 36zm-6.488281-52-3.695313-30h46.992188l5.539062 30zm59.578125-30h46.328125l7.386718 30h-48.175781zm42.328125-16h-45.328125l-6.050781-32h43.3125zm-343.570313-32h43.308594l-6.050781 32h-45.328125zm-23.449219 94h49.175782l-6.734375 36h-51.421875zm240.199219 202h-103v-75h103zm117 0h-101v-82.824219c-.050781-4.480469-3.660156-8.105469-8.136719-8.175781h-118.839843c-4.457031.082031-8.027344 3.71875-8.023438 8.175781v82.824219h-96v-150h332zm8-166h-25.234375l-6.734375-36h49.171875l8.976563 36zm0 0"/><path d="m218.425781 103.554688c52.75-.0625 95.496094-42.808594 95.554688-95.554688 0-4.417969-3.582031-8-8-8h-175.105469c-4.421875 0-8 3.582031-8 8 .058594 52.746094 42.804688 95.492188 95.550781 95.554688zm79.15625-87.554688c-4.109375 40.628906-38.316406 71.550781-79.15625 71.550781-40.835937 0-75.042969-30.921875-79.152343-71.550781zm0 0"/><path d="m78.425781 22h29c4.417969 0 8-3.582031 8-8s-3.582031-8-8-8h-29c-4.417969 0-8 3.582031-8 8s3.582031 8 8 8zm0 0"/><path d="m329.425781 22h29c4.417969 0 8-3.582031 8-8s-3.582031-8-8-8h-29c-4.417969 0-8 3.582031-8 8s3.582031 8 8 8zm0 0"/><path d="m210.425781 119v28c0 4.417969 3.582031 8 8 8s8-3.582031 8-8v-28c0-4.417969-3.582031-8-8-8s-8 3.582031-8 8zm0 0"/><path d="m291.3125 80.429688c-3.125 3.125-3.125 8.1875 0 11.3125l31.714844 31.71875c3.128906 3.09375 8.167968 3.078124 11.277344-.035157 3.113281-3.109375 3.128906-8.148437.035156-11.277343l-31.710938-31.71875c-3.125-3.125-8.191406-3.125-11.316406 0zm0 0"/><path d="m134.226562 80.429688-31.71875 31.71875c-3.125 3.125-3.121093 8.191406.003907 11.316406s8.191406 3.121094 11.316406-.003906l31.71875-31.71875c3.125-3.125 3.121094-8.191407-.003906-11.316407s-8.191407-3.121093-11.316407.003907zm0 0"/></svg>