<?xml version="1.0" encoding="iso-8859-1"?>
<!-- Generator: Adobe Illustrator 19.0.0, SVG Export Plug-In . SVG Version: 6.00 Build 0)  -->
<svg version="1.1" id="Capa_1" xmlns="http://www.w3.org/2000/svg" xmlns:xlink="http://www.w3.org/1999/xlink" x="0px" y="0px"
	 viewBox="0 0 512 512" style="enable-background:new 0 0 512 512;" xml:space="preserve">
<g>
	<g>
		<path d="M390.637,186.469c0,79.467-64.651,144.119-144.119,144.119h-64.474c-79.467,0-144.119-64.651-144.119-144.119
			c0-73.039,54.62-133.562,125.156-142.88v151.097h37.926V23.388c0-10.474-8.489-18.963-18.963-18.963
			C81.661,4.425,0,86.092,0,186.469s81.661,182.044,182.044,182.044h64.474c100.377,0,182.044-81.667,182.044-182.044H390.637z"/>
	</g>
</g>
<g>
	<g>
		<rect x="18.963" y="175.723" width="390.637" height="37.926"/>
	</g>
</g>
<g>
	<g>
		<path d="M134.637,388.747c-32.762,0-59.417,26.649-59.417,59.417c0,32.755,26.656,59.411,59.417,59.411
			c32.762,0,59.417-26.656,59.417-59.411C194.054,415.403,167.405,388.747,134.637,388.747z M134.637,469.643
			c-11.852,0-21.491-9.639-21.491-21.485c0-11.852,9.639-21.491,21.491-21.491s21.491,9.64,21.491,21.491
			C156.128,460.004,146.489,469.643,134.637,469.643z"/>
	</g>
</g>
<g>
	<g>
		<path d="M300.247,388.747c-32.762,0-59.417,26.649-59.417,59.417c0,32.755,26.649,59.411,59.417,59.411
			c32.768,0,59.417-26.656,59.417-59.411C359.664,415.403,333.009,388.747,300.247,388.747z M300.247,469.643
			c-11.852,0-21.491-9.639-21.491-21.485c0-11.852,9.64-21.491,21.491-21.491c11.852,0,21.491,9.64,21.491,21.491
			C321.738,460.004,312.099,469.643,300.247,469.643z"/>
	</g>
</g>
<g>
	<g>
		<path d="M493.037,67.635h-23.388c-43.571,0-79.012,35.442-79.012,79.012v39.822c0,10.474,8.489,18.963,18.963,18.963
			s18.963-8.489,18.963-18.963v-39.822c0-22.654,18.432-41.086,41.086-41.086h23.388c10.474,0,18.963-8.489,18.963-18.963
			S503.511,67.635,493.037,67.635z"/>
	</g>
</g>
<g>
</g>
<g>
</g>
<g>
</g>
<g>
</g>
<g>
</g>
<g>
</g>
<g>
</g>
<g>
</g>
<g>
</g>
<g>
</g>
<g>
</g>
<g>
</g>
<g>
</g>
<g>
</g>
<g>
</g>
</svg>
