<svg height="496pt" viewBox="0 -89 496 496" width="496pt" xmlns="http://www.w3.org/2000/svg"><path d="m472.757812 202h-1.078124l-29.816407-56c-6.535156-12.320312-19.351562-20.019531-33.296875-20h-.117187l-59.390625-.027344c-2.105469-.046875-4.140625.753906-5.652344 2.214844-1.511719 1.464844-2.378906 3.46875-2.40625 5.574219v88.238281h-23v-10.328125c.011719-2.074219-.820312-4.066406-2.308594-5.515625-1.488281-1.445312-3.5-2.226562-5.574218-2.15625h-290.015626c-2.097656-.078125-4.136718.691406-5.660156 2.136719-1.523437 1.441406-2.40625 3.4375-2.441406 5.535156v65.300781c.042969 4.441406 3.65625 8.023438 8.101562 8.027344h8.820313c2.773437 18.980469 19.050781 33.050781 38.234375 33.050781 19.179688 0 35.457031-14.070312 38.230469-33.050781h19.9375c2.773437 18.980469 19.050781 33.050781 38.234375 33.050781 19.179687 0 35.460937-14.070312 38.230468-33.050781h19.941407c2.769531 18.980469 19.050781 33.054688 38.234375 33.054688s35.460937-14.074219 38.230468-33.054688h11.921876c2.109374-.007812 4.132812-.863281 5.613281-2.367188 1.480469-1.507812 2.296875-3.542968 2.269531-5.65625v-6.976562h23v10.914062c.070312 4.46875 3.695312 8.058594 8.164062 8.085938h.023438l56.679688-.199219c3.503906 17.050781 18.480468 29.316407 35.890624 29.386719 17.683594 0 32.484376-13.183594 35.890626-29.183594h9.972656c4.542968-.09375 8.222656-3.722656 8.378906-8.265625v-56.300781c0-12.613281-10.636719-22.4375-23.242188-22.4375zm-405.601562 100.027344c-12.503906 0-22.640625-10.136719-22.640625-22.640625 0-12.507813 10.136719-22.644531 22.640625-22.644531 12.507812 0 22.644531 10.140624 22.644531 22.644531-.015625 12.5-10.144531 22.628906-22.644531 22.640625zm96.402344 0c-12.507813 0-22.644532-10.136719-22.644532-22.640625 0-12.507813 10.136719-22.644531 22.644532-22.644531 12.503906 0 22.640625 10.140624 22.640625 22.644531-.011719 12.5-10.140625 22.625-22.640625 22.640625zm96.398437 0c-12.503906 0-22.644531-10.136719-22.644531-22.640625 0-12.507813 10.140625-22.644531 22.644531-22.644531 12.507813 0 22.644531 10.140624 22.644531 22.644531-.015624 12.496093-10.140624 22.625-22.636718 22.640625zm42.042969-33.027344h-4.828125c-4.667969-16.691406-19.878906-28.230469-37.207031-28.230469-17.332032 0-32.542969 11.539063-37.207032 28.230469h-21.992187c-4.664063-16.691406-19.875-28.230469-37.207031-28.230469-17.328125 0-32.539063 11.539063-37.203125 28.230469h-21.992188c-4.667969-16.691406-19.875-28.230469-37.207031-28.230469s-32.539062 11.539063-37.207031 28.230469h-1.949219v-49h274zm106.5-127h.066406c8.035156-.007812 15.414063 4.425781 19.179688 11.519531l25.804687 48.480469h-96.550781v-60.265625zm-90.5 112v-16h23v16zm123.757812 48.027344c-11.394531 0-20.632812-9.234375-20.632812-20.628906 0-11.394532 9.238281-20.628907 20.632812-20.628907 11.390626 0 20.628907 9.234375 20.628907 20.628907-.011719 11.390624-9.242188 20.617187-20.628907 20.628906zm38.242188-29.027344h-2.65625c-3.953125-16.445312-18.644531-28.054688-35.558594-28.097656-16.914062-.042969-31.664062 11.488281-35.699218 27.917968l-49.085938.074219v-54.894531h115.757812c3.78125 0 7.242188 2.644531 7.242188 6.433594zm0 0"/><path d="m43.414062 196h239.460938c23.789062-.058594 43.0625-19.328125 43.125-43.117188v-84.371093c0-23.730469-19.394531-43.511719-43.125-43.511719h-128.875v-17.027344c.070312-2.085937-.707031-4.109375-2.152344-5.613281-1.449218-1.503906-3.441406-2.3515625-5.527344-2.359375h-66.628906c-2.089844.0078125-4.082031.855469-5.53125 2.359375-1.449218 1.5-2.230468 3.527344-2.160156 5.613281v17.027344h-28.585938c-23.726562 0-43.414062 19.78125-43.414062 43.511719v84.371093c0 23.730469 19.6875 43.117188 43.414062 43.117188zm44.585938-180h50v9h-50zm-72 52.511719c.15625-15.089844 12.324219-27.304688 27.414062-27.511719h239.460938c14.90625 0 27.125 12.601562 27.125 27.511719v84.371093c-.050781 14.957032-12.167969 27.070313-27.125 27.117188h-239.460938c-14.90625 0-27.414062-12.210938-27.414062-27.117188zm0 0"/><path d="m167.523438 171.316406c17.515624-.070312 33.660156-9.480468 42.351562-24.6875 8.113281-14.160156 8.175781-30.765625.171875-44.425781-.125-.210937-.257813-.417969-.398437-.617187l-35.621094-49.441407c-1.523438-2.042969-3.949219-3.21875-6.496094-3.144531-2.546875-.074219-4.96875 1.097656-6.496094 3.136719l-35.621094 49.398437c-.148437.195313-.289062.394532-.417968.601563-8.007813 13.738281-7.921875 30.386719.226562 44.570312 8.695313 15.167969 24.820313 24.546875 42.300782 24.609375zm-28.886719-60.859375 28.878906-40.128906 28.898437 40.265625c4.96875 8.714844 4.820313 18.929688-.421874 28.078125-5.78125 10.273437-16.652344 16.636719-28.441407 16.644531-11.789062.007813-22.664062-6.339844-28.460937-16.605468-5.277344-9.183594-5.4375-19.460938-.453125-28.253907zm0 0"/><path d="m167.253906 152.789062c16.316406.015626 29.566406-13.179687 29.617188-29.5 0-4.417968-3.582032-8-8-8-4.417969 0-8 3.582032-8 8-.042969 7.484376-6.132813 13.523438-13.617188 13.5-4.417968 0-8 3.582032-8 8 0 4.421876 3.582032 8 8 8zm0 0"/></svg>