<svg height="488pt" viewBox="-5 0 488 488.53611" width="488pt" xmlns="http://www.w3.org/2000/svg"><path d="m376.589844 250.117188c-26.378906-4.0625-53.363282.78125-76.683594 13.761718-13.636719-9.503906-29.859375-14.59375-46.480469-14.582031h-46.800781c-1.921875.046875-3.707031.996094-4.828125 2.558594l-34.621094 46.917969-33.207031-46.859376c-1.117188-1.605468-2.933594-2.578124-4.890625-2.617187h-46.773437c-23.207032.0625-45.308594 9.910156-60.871094 27.125-15.367188 17.210937-22.90625 40.023437-20.824219 63v70.894531c.0625 3.335938 2.800781 6.003906 6.136719 5.980469h241.308594c3.621093 8.203125 8.117187 15.992187 13.414062 23.230469 18.894531 25.792968 47.328125 42.949218 78.957031 47.632812 6.007813.914063 12.078125 1.375 18.15625 1.375 58.429688 0 109.847657-42.597656 118.894531-101.871094 4.753907-31.488281-3.207031-63.578124-22.128906-89.191406-18.925781-25.613281-47.257812-42.648437-78.757812-47.355468zm-166.933594 11.179687h10.742188l4.167968 64.363281-48.050781-19.449218zm-94.367188 0h10.691407l31.835937 44.957031-46.949218 19.257813zm-102.644531 77.226563c-1.984375-19.710938 4.453125-39.339844 17.71875-54.046876 13.269531-14.710937 32.132813-23.128906 51.941407-23.179687h20.960937l-5.03125 73.089844c-.144531 2.085937.789063 4.101562 2.476563 5.339843 1.675781 1.222657 3.867187 1.492188 5.792968.710938l54.101563-22.234375v86.09375h-148v-65.167969c.023437-.203125.035156-.40625.039062-.605468zm159.960938 65.773437v-86.539063l56.324219 22.726563c1.910156.773437 4.085937.507813 5.757812-.699219 1.679688-1.257812 2.609375-3.28125 2.472656-5.375l-4.738281-73.113281h21c12.414063 0 24.601563 3.332031 35.285156 9.652344-42.335937 29.984375-60.554687 83.8125-45.136719 133.347656zm293.007812-19.441406c-8.140625 53.34375-54.429687 91.683593-107.035156 91.683593-5.476563-.003906-10.945313-.417968-16.355469-1.238281-28.347656-4.226562-53.851562-19.554687-70.886718-42.601562-17.035157-23.050781-24.207032-51.925781-19.929688-80.265625 8.140625-53.347656 54.429688-91.683594 107.035156-91.683594 5.476563 0 10.941406.414062 16.355469 1.234375 28.347656 4.226563 53.851563 19.554687 70.886719 42.605469 17.035156 23.046875 24.207031 51.925781 19.929687 80.265625zm0 0"/><path d="m358.441406 318.46875c-.269531 0-.542968 0-.8125.007812-20.699218.34375-39.25 12.863282-47.3125 31.929688-8.066406 19.066406-4.128906 41.097656 10.039063 56.191406 5.691406 6.003906 8.972656 13.894532 9.207031 22.164063-3.109375.3125-5.410156 3.039062-5.195312 6.15625.214843 3.117187 2.871093 5.5 5.996093 5.378906h56.285157c1.570312.046875 3.09375-.542969 4.222656-1.636719 1.128906-1.089844 1.769531-2.59375 1.777344-4.164062-.007813-3.210938-2.582032-5.828125-5.792969-5.886719.160156-8.085937 3.363281-15.542969 9.464843-21.925781 9.152344-9.722656 14.265626-22.5625 14.308594-35.917969.011719-28.847656-23.34375-52.25-52.191406-52.300781zm29.148438 79.832031c-7.90625 8.015625-12.457032 18.746094-12.722656 30h-33.3125c-.300782-11.261719-4.757813-22.011719-12.515626-30.183593-7.195312-7.5625-11.097656-17.671876-10.851562-28.105469.339844-21.144531 18.488281-39.246094 39.628906-39.585938 10.765625-.125 21.136719 4.058594 28.804688 11.617188 7.664062 7.5625 11.988281 17.875 12.011718 28.640625-.042968 10.273437-3.992187 20.148437-11.042968 27.617187zm0 0"/><path d="m375.703125 448.296875h-34.398437c-3.3125 0-6 2.6875-6 6s2.6875 6 6 6h34.398437c3.316406 0 6-2.6875 6-6s-2.683594-6-6-6zm0 0"/><path d="m357.605469 308.195312c3.3125 0 6-2.683593 6-6v-19.152343c0-3.316407-2.6875-6-6-6s-6 2.683593-6 6v19.152343c0 3.316407 2.6875 6 6 6zm0 0"/><path d="m414.386719 305.0625-14.070313 13.289062c-2.410156 2.277344-2.519531 6.074219-.242187 8.484376 2.273437 2.410156 6.074219 2.515624 8.480469.242187l14.074218-13.292969c2.40625-2.273437 2.515625-6.070312.242188-8.480468-2.277344-2.410157-6.074219-2.515626-8.484375-.242188zm0 0"/><path d="m311.992188 326.957031c2.421874 0 4.601562-1.453125 5.535156-3.683593.933594-2.234376.4375-4.808594-1.261719-6.53125l-13.484375-13.679688c-1.503906-1.535156-3.710938-2.148438-5.792969-1.609375-2.078125.535156-3.710937 2.148437-4.28125 4.21875-.570312 2.070313.015625 4.289063 1.527344 5.816406l13.484375 13.679688c1.128906 1.144531 2.667969 1.789062 4.273438 1.789062zm0 0"/><path d="m222.46875 11.753906c-14.59375-10.78125-33.277344-14.386718-50.835938-9.816406l-40.058593 10.359375h-13.789063c-16.378906 0-30.179687 13.441406-30.179687 29.8125v36.457031l1.605469 112.824219c.074218 2.015625 1.132812 3.867187 2.835937 4.949219l72.460937 47.390625c1.996094 1.296875 4.566407 1.304687 6.574219.027343l73.773438-47.394531c1.734375-1.113281 2.777343-3.042969 2.757812-5.105469l-1.359375-132.789062c0-1.03125-.027344-2.070312-.078125-3.085938-.910156-17.378906-9.621093-33.414062-23.707031-43.628906zm-122.132812 87.359375c5.769531-25.445312 24.367187-23.890625 56.746093-18.960937 26.480469 4.03125 58.378907 8.886718 77.226563-16.371094l.683594 66.703125-8.621094 6.457031c-2.945313 2.195313-6.527344 3.375-10.199219 3.359375h-14.550781c-4.730469.019531-9.253906-1.949219-12.464844-5.421875-5.484375-5.953125-13.210938-9.335937-21.304688-9.339844-8.09375 0-15.820312 3.382813-21.308593 9.332032-3.210938 3.472656-7.730469 5.441406-12.457031 5.425781h-14.550782c-3.675781.015625-7.253906-1.164063-10.199218-3.359375l-8.617188-6.488281zm17.449218-74.816406h14.554688c.507812.019531 1.015625-.023437 1.511718-.132813l40.800782-10.582031c14.058594-3.671875 29.023437-.792969 40.714844 7.832031 7.527343 5.484376 13.21875 13.117188 16.324218 21.894532-12.722656 34.125-42.164062 29.683594-73.046875 24.976562-21.222656-3.234375-44.039062-6.777344-59.039062 6.386719v-32.5625c0-9.753906 8.421875-17.8125 18.179687-17.8125zm50.097656 207.261719-66.46875-43.511719-.511718-42.375 1.191406.832031c5.03125 3.773438 11.152344 5.804688 17.441406 5.792969h14.550782c8.09375.015625 15.824218-3.363281 21.308593-9.3125 3.214844-3.472656 7.730469-5.445313 12.460938-5.445313 4.730469-.003906 9.25 1.96875 12.464843 5.4375 5.484376 5.949219 13.207032 9.328126 21.300782 9.320313h14.546875c6.289062.011719 12.410156-2.019531 17.441406-5.789063l1.535156-1.128906.4375 42.667969zm0 0"/><path d="m181.605469 175.296875h-28c-3.3125 0-6 2.6875-6 6s2.6875 6 6 6h28c3.3125 0 6-2.6875 6-6s-2.6875-6-6-6zm0 0"/></svg>