<svg height="457pt" viewBox="-10 0 457 457.00782" width="457pt" xmlns="http://www.w3.org/2000/svg"><path d="m429.503906.0078125h-421c-4.417968 0-8.49999975 3.0820315-8.49999975 7.4999995v76c.19531275 4.613282 3.88671875 8.304688 8.49999975 8.5h16.5v356.5c.195313 4.613282 3.886719 8.304688 8.5 8.5h131c4.417969 0 7.5-4.082031 7.5-8.5v-202.5c0-26.234374 21.265625-47.5 47.5-47.5s47.5 21.265626 47.5 47.5v202.5c.195313 4.613282 3.886719 8.304688 8.5 8.5h129c4.417969 0 7.5-4.082031 7.5-8.5v-356.5h17.5c4.417969 0 7.5-4.082031 7.5-8.5v-76c.09375-2.015624-.664062-3.980468-2.09375-5.40625-1.425781-1.429687-3.390625-2.1874995-5.40625-2.0937495zm-8.5 15.9999995v22.542969c-4.179687-3.390625-9.429687-5.175781-14.808594-5.042969-8.109374 0-12.386718 3.191407-15.601562 5.523438-2.34375 1.699219-3.351562 2.476562-6.269531 2.476562s-3.957031-.777343-6.300781-2.476562c-3.210938-2.332031-7.597657-5.523438-15.707032-5.523438s-12.5 3.191407-15.71875 5.523438c-2.34375 1.699219-3.40625 2.476562-6.324218 2.476562-2.917969 0-3.984376-.777343-6.328126-2.476562-3.214843-2.332031-7.613281-5.523438-15.722656-5.523438-8.113281 0-12.511718 3.191407-15.726562 5.523438-2.34375 1.699219-3.414063 2.476562-6.328125 2.476562-2.917969 0-3.988281-.777343-6.328125-2.476562-3.214844-2.332031-7.613282-5.523438-15.726563-5.523438-8.109375 0-12.507812 3.191407-15.722656 5.523438-2.339844 1.703125-3.410156 2.476562-6.328125 2.476562-2.914062 0-3.984375-.773437-6.324219-2.476562-3.214843-2.332031-7.613281-5.523438-15.722656-5.523438s-12.511719 3.191407-15.726563 5.523438c-2.339843 1.703125-3.410156 2.476562-6.328124 2.476562-2.917969 0-3.984376-.773437-6.324219-2.476562-3.214844-2.332031-7.613281-5.523438-15.722657-5.523438-8.109374 0-12.511718 3.191407-15.726562 5.523438-2.339844 1.703125-3.410156 2.476562-6.328125 2.476562-2.914063 0-3.984375-.777343-6.328125-2.476562-3.210938-2.332031-7.613281-5.523438-15.722656-5.523438s-12.507813 3.191407-15.722656 5.523438c-2.34375 1.703125-3.410157 2.476562-6.328126 2.476562-2.917968 0-3.984374-.777343-6.328124-2.476562-3.210938-2.332031-7.613282-5.523438-15.722657-5.523438s-12.511719 3.191407-15.722656 5.523438c-2.34375 1.703125-3.414063 2.476562-6.332031 2.476562-2.914063 0-3.984375-.777343-6.324219-2.476562-3.214844-2.332031-7.617187-5.523438-15.722656-5.523438-8.109375 0-12.511719 3.191407-15.722657 5.523438-2.34375 1.703125-3.414062 2.476562-6.328124 2.476562-2.917969 0-4.234376-.773437-6.578126-2.476562-2.679687-2.070312-5.722656-3.628906-8.972656-4.59375v-18.429688zm-380 358h115v14h-115zm0-16v-55h115v55zm0-71v-14h115v14zm0 154v-37h115v37zm242-168h113v14h-113zm0 30h113v55h-113zm0 71h113v14h-113zm0 67v-37h113v37zm113-184h-113v-11c0-35.070312-28.429687-63.5-63.5-63.5-35.070312 0-63.5 28.429688-63.5 63.5v11h-115v-165h355zm-380-181v-23.539062c4 2.265625 7.742188 5.039062 15.300782 5.039062 8.109374 0 12.632812-3.191406 15.847656-5.523437 2.339844-1.703125 3.472656-2.476563 6.390625-2.476563 2.914062 0 4.015625.777344 6.355469 2.476563 3.214843 2.332031 7.632812 5.523437 15.742187 5.523437 8.105469 0 12.515625-3.191406 15.730469-5.523437 2.34375-1.703125 3.414062-2.476563 6.332031-2.476563s3.988281.777344 6.328125 2.476563c3.214844 2.332031 7.617188 5.523437 15.726562 5.523437 8.109376 0 12.511719-3.191406 15.726563-5.523437 2.339844-1.703125 3.410156-2.476563 6.324219-2.476563 2.917968 0 3.984375.777344 6.328125 2.476563 3.214843 2.332031 7.613281 5.523437 15.726562 5.523437 8.109375 0 12.507813-3.191406 15.722657-5.523437 2.34375-1.703125 3.410156-2.476563 6.328124-2.476563 2.917969 0 3.984376.773438 6.324219 2.476563 3.214844 2.332031 7.617188 5.523437 15.726563 5.523437 8.105468 0 12.507812-3.191406 15.722656-5.523437 2.339844-1.703125 3.410156-2.476563 6.328125-2.476563s3.984375.773438 6.328125 2.476563c3.210938 2.332031 7.609375 5.523437 15.722656 5.523437 8.109375 0 12.507813-3.191406 15.722656-5.523437 2.339844-1.703125 3.410157-2.476563 6.328126-2.476563 2.914062 0 3.984374.777344 6.324218 2.476563 3.214844 2.332031 7.617188 5.523437 15.726563 5.523437s12.511719-3.191406 15.726562-5.523437c2.339844-1.699219 3.410157-2.476563 6.328125-2.476563 2.917969 0 3.984375.777344 6.328125 2.476563 3.214844 2.332031 7.617188 5.523437 15.726563 5.523437s12.511718-3.191406 15.726562-5.523437c2.34375-1.699219 3.410156-2.476563 6.328125-2.476563s3.988281.777344 6.332031 2.476563c3.210938 2.332031 7.613282 5.523437 15.726563 5.523437 8.109375 0 12.511719-3.191406 15.722656-5.523437 2.34375-1.699219 3.414063-2.476563 6.332031-2.476563 2.921876 0 3.742188.777344 6.082032 2.476563 2.628906 1.871094 5.472656 3.414063 8.476562 4.59375v19.429687zm0 0"/></svg>