<?xml version="1.0"?>
<svg xmlns="http://www.w3.org/2000/svg" id="Layer_1" data-name="Layer 1" viewBox="0 0 512 512" width="512" height="512"><title>Graph</title><path d="M135.16,481a5.724,5.724,0,0,0,5.84-5.832V448h7.29a5.473,5.473,0,0,0,5.71-5.656V410.176A5.913,5.913,0,0,0,148.29,404H141V377.352c0-3.314-2.526-6.352-5.84-6.352H13.71C10.4,371,8,374.038,8,377.352V409.52c0,3.313,2.4,6.48,5.71,6.48H21v21H13.71A5.76,5.76,0,0,0,8,443v32.168A5.617,5.617,0,0,0,13.71,481ZM82,416v20H74V416Zm12,20V416h7v20ZM62,416v20H54V416Zm46,33v20h-8V449Zm5-13V416h8v20Zm-13-32V383h8v21Zm-12,0H80V383h8Zm-20,0H61V383h7Zm-19,0H41V383h8Zm-7,32H33V416h9Zm7,13v20H41V449Zm12,0h7v20H61Zm19,0h8v20H80Zm49,20h-9V449h9Zm13-33h-9V416h9Zm-13-32h-9V383h9ZM20,383h9v21H20Zm0,66h9v20H20Z"/><path d="M318.29,383c3.314,0,5.71-2.991,5.71-6.305V344.527A5.371,5.371,0,0,0,318.29,339H196.84c-3.314,0-5.84,2.214-5.84,5.527V371h-7.29c-3.314,0-5.71,3.038-5.71,6.352V409.52c0,3.313,2.4,6.48,5.71,6.48H191v21h-7.29a5.76,5.76,0,0,0-5.71,6v32.168A5.617,5.617,0,0,0,183.71,481H305.16a5.724,5.724,0,0,0,5.84-5.832V448h7.29a5.473,5.473,0,0,0,5.71-5.656V410.176A5.913,5.913,0,0,0,318.29,404H311V383ZM244,436V416h8v20Zm6-32V383h8v21Zm-12-21v21h-7V383Zm-6,33v20h-8V416Zm32,20V416h7v20Zm6-32V383h8v21Zm13-33V351h8v20Zm-12,0h-7V351h7Zm-19,0h-8V351h8Zm-20,0h-8V351h8Zm-13,12v21h-8V383Zm-7,53h-9V416h9Zm7,13v20h-8V449Zm12,0h7v20h-7Zm19,0h8v20h-8Zm20,0h8v20h-8Zm13-13V416h8v20Zm7-53h9v21h-9Zm22-12h-9V351h9ZM203,351h9v20h-9Zm-13,32h9v21h-9Zm0,66h9v20h-9Zm109,20h-9V449h9Zm13-33h-9V416h9Z"/><path d="M498.29,339H491V311.9a5.779,5.779,0,0,0-5.84-5.9H363.71a5.673,5.673,0,0,0-5.71,5.9v32.168A5.7,5.7,0,0,0,363.71,350H371v21h-7.29c-3.314,0-5.71,3.038-5.71,6.352V409.52c0,3.313,2.4,6.48,5.71,6.48H371v21h-7.29a5.76,5.76,0,0,0-5.71,6v32.168A5.617,5.617,0,0,0,363.71,481H485.16a5.724,5.724,0,0,0,5.84-5.832V448h7.29a5.473,5.473,0,0,0,5.71-5.656V410.176A5.913,5.913,0,0,0,498.29,404H491V383h7.29c3.314,0,5.71-2.991,5.71-6.305V344.527A5.371,5.371,0,0,0,498.29,339ZM424,436V416h8v20Zm6-32V383h8v21Zm-6-33V351h8v20Zm-12-20v20h-8V351Zm6,32v21h-7V383Zm-6,33v20h-8V416Zm32,20V416h7v20Zm6-32V383h8v21Zm-6-33V351h7v20Zm6-33V318h8v20Zm-12,0h-8V318h8Zm-20,0h-7V318h7Zm-19,0h-8V318h8Zm-7,33h-9V351h9Zm7,12v21h-8V383Zm-7,53h-9V416h9Zm7,13v20h-8V449Zm12,0h7v20h-7Zm19,0h8v20h-8Zm20,0h8v20h-8Zm13-13V416h8v20Zm7-53h9v21h-9Zm-7-12V351h8v20Zm16-33h-9V318h9ZM370,318h9v20h-9Zm0,65h9v21h-9Zm0,66h9v20h-9Zm109,20h-9V449h9Zm13-33h-9V416h9Zm0-65h-9V351h9Z"/><path d="M44.809,323.029a5.978,5.978,0,0,0,4.152-1.67L159.349,215.464l114.7,90.35a6,6,0,0,0,7.394.024L449.923,174.9l-6.915,89.9a6,6,0,0,0,5.522,6.443c.157.011.312.018.467.018a6,6,0,0,0,5.976-5.541l7.964-103.534a6,6,0,0,0-5.555-6.445l-111.5-7.965a6,6,0,0,0-.856,11.97l96.016,6.858L277.785,293.482,162.674,202.808a6,6,0,0,0-7.866.383L40.654,312.7a6,6,0,0,0,4.155,10.329Z"/><path d="M230.739,191.032a80.1,80.1,0,1,0-80.1-80.1A80.191,80.191,0,0,0,230.739,191.032Zm0-148.2a68.1,68.1,0,1,1-68.1,68.1A68.177,68.177,0,0,1,230.739,42.832Z"/><path d="M230.739,145.765a13.2,13.2,0,0,1-13.19-13.19,6,6,0,0,0-12,0A25.23,25.23,0,0,0,224,156.842V162a6,6,0,0,0,12,0v-4.792a25.189,25.189,0,0,0-5.261-49.823,13.19,13.19,0,1,1,13.19-13.19,6,6,0,1,0,12,0A25.235,25.235,0,0,0,237,69.793V65a6,6,0,0,0-12,0v4.672a25.187,25.187,0,0,0,5.739,49.713,13.19,13.19,0,1,1,0,26.38Z"/></svg>
