<?xml version="1.0"?>
<svg xmlns="http://www.w3.org/2000/svg" id="Layer_1" data-name="Layer 1" viewBox="0 0 512 512" width="512" height="512"><title>Newspaper</title><path d="M440.421,44H101.433C97.015,44,93,47.371,93,51.79V489c0,4.418,4.015,8,8.433,8H360.344a8,8,0,0,0,5.768-2.457l79.867-83.322A7.813,7.813,0,0,0,448,405.677V51.79A7.473,7.473,0,0,0,440.421,44ZM109,60H432V398H360.344c-4.418,0-8.344,3.258-8.344,7.677V481H109ZM421.637,414,368,469.129V414Z"/><path d="M157.36,336H378.3a8,8,0,0,0,0-16H157.36a8,8,0,0,0,0,16Z"/><path d="M285.351,374H157.36a8,8,0,0,0,0,16H285.351a8,8,0,0,0,0-16Z"/><path d="M386,110a8,8,0,0,0-8-8H157a8,8,0,0,0-8,8V268a8,8,0,0,0,8,8H378a8,8,0,0,0,8-8Zm-221,8H370V260H165Z"/><path d="M418.567,23a8,8,0,0,0-8-8H71.579C67.161,15,64,18.583,64,23V460.21a8,8,0,1,0,16,0V31H410.567A8,8,0,0,0,418.567,23Z"/></svg>
