<svg height="507pt" viewBox="-16 0 507 507.5" width="507pt" xmlns="http://www.w3.org/2000/svg"><path d="m466.25 461.5h-21.601562l.222656-283.117188c.003906-2.160156-.835938-4.234374-2.335938-5.785156-1.476562-1.515625-3.496094-2.382812-5.609375-2.410156l-1.675781-.0625v-27.125c-.097656-2.820312-1.636719-5.394531-4.078125-6.816406-1.816406-9.453125-6.921875-21.082032-15.921875-25.875v-8.214844c0-4.417969-3.582031-8-8-8s-8 3.582031-8 8v8.214844c-8 4.789062-13.605469 16.421875-15.421875 25.875-2.3125 1.480468-3.671875 4.070312-3.578125 6.816406v27.082031l-30.828125-.023437c-1.25-37.414063-12.433594-72.429688-31.859375-99.261719-19.386719-26.785156-45.3125-42.578125-72.3125-45.136719v-17.660156c0-4.417969-3.582031-8-8-8s-8 3.582031-8 8v17.667969c-28 2.585937-52.839844 18.328125-72.214844 45-19.464844 26.800781-30.699218 61.800781-32.011718 99.210937l-30.773438-.023437v-26.855469c-.097656-2.820312-1.636719-5.394531-4.078125-6.816406-1.816406-9.453125-6.921875-21.082032-15.921875-25.875v-8.214844c0-4.417969-3.582031-8-8-8s-8 3.582031-8 8v8.214844c-8 4.789062-13.605469 16.421875-15.421875 25.875-2.3125 1.480468-3.671875 4.070312-3.578125 6.816406v26.8125l-1.390625-.3125h-.007813c-4.417968 0-8 3.984375-8 8.398438l-.222656 283.601562h-21.378906c-4.417969 0-8 3.082031-8 7.5v30c0 4.417969 3.582031 8.5 8 8.5h458c4.417969 0 8-4.082031 8-8.5v-30c0-4.417969-3.582031-7.5-8-7.5zm-55 0v-102.5c0-4.417969-3.582031-8-8-8s-8 3.582031-8 8v102.5h-18v-275.421875l51.5.292969-.101562 275.128906zm-67 0v-102.5c0-4.417969-3.582031-8-8-8s-8 3.582031-8 8v102.5h-19.375l.097656-122.96875c-.019531-38.933594-31.359375-70.605469-70.292968-71.03125h-.058594c-38.921875.28125-70.332032 31.902344-70.34375 70.828125l-.097656 123.171875h-18.929688v-102.5c0-4.417969-3.582031-8-8-8s-8 3.582031-8 8v102.5h-18v-275.625l246 .191406v275.433594zm-51.375 0h-108.695312l.101562-123.066406c.074219-30.078125 24.265625-54.535156 54.339844-54.933594h.042968c14.4375.0625 28.25 5.890625 38.363282 16.191406 10.238281 10.289063 15.972656 24.21875 15.945312 38.734375zm-17.640625-291.75c-2.070313-31.703125-16.796875-62.25-38-63.25h-.015625c-21.1875 0-35.953125 31.5-38.074219 63.191406l-18.570312.109375c1.109375-22.382812 7.230469-42.984375 17.539062-58.847656 10.714844-16.492187 24.597657-25.453125 39.089844-25.453125h.027344c14.5 0 28.386719 9.054688 39.085937 25.574219 10.285156 15.878906 16.371094 36.460937 17.445313 58.84375zm-16.039063.238281-44.015624-.035156c.898437-11.382813 3.691406-23.09375 7.851562-32.042969 4.347656-9.351562 9.78125-15.410156 14.183594-15.410156 4.402344 1 9.835937 6.070312 14.171875 15.4375 4.148437 8.953125 6.929687 20.667969 7.808593 32.050781zm148.464844-45.363281c1.878906.757812 4.992188 4.875 6.832032 10.875h-13.660157c1.835938-6 4.949219-10.117188 6.828125-10.875zm-11.410156 26.875h23v18.613281l-23-.019531zm-159.035156-110h.050781c51.40625 0 93.492187 57.058594 96.101563 128.652344l-23.589844-.074219c-1.109375-25.476563-8.109375-49.265625-20.03125-67.671875-13.75-21.226562-32.394532-32.90625-52.496094-32.90625h-.039062c-20.09375 0-38.742188 11.609375-52.511719 32.800781-11.953125 18.390625-18.988281 42.167969-20.136719 67.644531l-23.589844.074219c2.714844-71.570312 44.855469-128.519531 96.242188-128.519531zm-170.554688 83.125c1.878906.757812 4.988282 4.875 6.828125 10.875h-13.660156c1.839844-6 4.953125-10.117188 6.832031-10.875zm-11.410156 26.875h23v18.34375l-23-.015625zm-9.398438 34.632812c.4375.03125.875.03125 1.3125-.007812.566407-.019531 1.125-.101562 1.675782-.242188h35.796875c.507812.09375 1.019531.140626 1.53125.136719.472656-.003906.941406-.054687 1.402343-.15625h11.679688v275.636719h-17v-102.5c0-4.417969-3.582031-8-8-8s-8 3.582031-8 8v102.5h-20.621094zm412.398438 305.367188h-442v-14h442zm0 0"/></svg>