<svg height="503pt" viewBox="0 -79 503.33235 503" width="503pt" xmlns="http://www.w3.org/2000/svg"><path d="m497.574219 15.839844-85.328125-15.574219c-.378906-.0625-.757813-.097656-1.140625-.097656-.082031 0-.160157 0-.242188 0s-.144531 0-.21875 0c-.382812 0-.765625.03125-1.144531.097656l-84.617188 15.578125c-3.324218.609375-5.734374 3.503906-5.734374 6.882812-.109376 3.332032 2.21875 6.246094 5.488281 6.882813l56.027343 10.359375v20.652344c0 3.867187 3.621094 6.773437 7.488282 6.773437h2.511718v88.777344l-55-39.292969v-5.484375c0-3.867187-3.550781-7-7.417968-7h-23.582032v-25.046875c.03125-1.835937-.679687-3.609375-1.96875-4.917968-1.292968-1.308594-3.054687-2.042969-4.890624-2.035157h-92.382813c-1.824219 0-3.574219.738281-4.847656 2.046875-1.273438 1.3125-1.960938 3.082032-1.910157 4.90625v25.046875h-23.683593c-3.929688-.023437-7.167969 3.074219-7.316407 7v5.632813l-55 39.21875v-88.851563h2.515626c3.867187 0 7.484374-2.90625 7.484374-6.773437v-20.652344l56.03125-10.359375c3.296876-.621094 5.664063-3.527344 5.609376-6.882813-.027344-3.390624-2.457032-6.28125-5.792969-6.882812l-84.652344-15.574219c-.382813-.066406-.769531-.101562-1.160156-.101562-.074219 0-.152344 0-.222657 0-.074218 0-.167968 0-.246093 0-.382813.003906-.765625.035156-1.140625.101562l-85.332032 15.570313c-3.328124.601562-5.7499995 3.492187-5.757812 6.871094-.0078125 3.382812 2.402344 6.285156 5.726562 6.902343l56.9375 10.398438v20.609375c.023438 1.839844.785157 3.59375 2.113282 4.867187 1.328125 1.273438 3.113281 1.957031 4.949218 1.90625h2.9375v117.265625l-30.648437 21.578125c-2.695313 1.878907-3.730469 5.378907-2.488281 8.421875l52.5625 125.441406c1.070312 2.597657 3.605468 4.289063 6.417968 4.292969h14.171876c2.1875 0 4.253906-1.027343 5.578124-2.773437 1.320313-1.746094 1.75-4.007813 1.160157-6.117188l-30.144531-107.511718 81.199218-47.40625c1.242188 1.113281 2.835938 1.75 4.5 1.804687h33.691406v34.722656c0 23.75 19.253907 43 43 43 23.75 0 43-19.25 43-43v-34.71875h33.582032c1.707031-.058593 3.335937-.726562 4.589844-1.882812l81.328124 47.5625-30.144531 107.46875c-.589843 2.105469-.160156 4.363281 1.164063 6.105469 1.324218 1.738281 3.390625 2.753906 5.574218 2.746093h14.175782c2.816406 0 5.363281-1.695312 6.453125-4.292969l52.601562-125.441406c1.214844-3.0625.152344-6.554687-2.5625-8.421875l-30.761719-21.652343v-117.191407h2.941407c1.835937.050781 3.621093-.632812 4.949219-1.90625 1.328124-1.273437 2.089843-3.027343 2.109374-4.867187v-20.609375l56.941407-10.402344c3.324219-.613281 5.734375-3.515625 5.726562-6.898437-.007812-3.378907-2.429687-6.273438-5.757812-6.871094zm-93.910157-.28125v14.335937l-38.945312-7.167969zm-191 70.835937h78v18h-78zm-113-70.835937 38.949219 7.167968-38.949219 7.167969zm-14-.011719v14.359375l-39.339843-7.179688zm5.390626 29.640625c.421874.074219.847656.113281 1.273437.113281.035156 0 .082031-.007812.117187-.011719.035157 0 .078126.011719.113282.011719.507812 0 1.011718-.039062 1.511718-.117187l14.59375-2.640625v10.851562h-32v-10.828125zm-4.390626 22.207031h12v98.753907l-12 8.609374zm-12.328124 159.179688 29.109374 103.820312h-.28125l-48.785156-115.96875 113.285156-80.25v31.488281l-90.28125 52.980469c-2.710937 1.636719-3.964843 4.902344-3.046874 7.929688zm206.328124-9.457031c0 16.015624-12.980468 29-29 29-16.015624 0-29-12.984376-29-29v-34.722657h58zm41-48.722657h-140v-50h140zm78.613282 162h-.285156l29.109374-103.820312c.9375-3.015625-.296874-6.285157-2.992187-7.929688l-90.445313-53.101562v-31.515625l113.445313 80.398437zm16.386718-155.710937-12-8.609375v-98.679688h12zm10-121.289063h-32v-10.851562l14.59375 2.640625c.460938.078125.925782.117187 1.390626.117187.035156 0 .132812-.007812.167968-.011719.039063 0 .101563.011719.140625.011719.4375 0 .871094-.039062 1.300781-.113281l14.398438-2.621094zm-9-23.488281v-14.359375l39.34375 7.179687zm0 0"/><path d="m251.664062 236.910156c12.515626 0 22.664063-10.144531 22.664063-22.660156s-10.148437-22.660156-22.664063-22.660156c-12.511718 0-22.660156 10.144531-22.660156 22.660156.015625 12.511719 10.152344 22.648438 22.660156 22.660156zm0-31.320312c4.785157 0 8.664063 3.878906 8.664063 8.660156 0 4.785156-3.878906 8.660156-8.664063 8.660156-4.78125 0-8.660156-3.875-8.660156-8.660156.007813-4.78125 3.882813-8.652344 8.660156-8.65625zm0 0"/><path d="m229.664062 147.394531h43c3.867188 0 7-3.136719 7-7 0-3.867187-3.132812-7-7-7h-43c-3.863281 0-7 3.132813-7 7 0 3.863281 3.136719 7 7 7zm0 0"/></svg>