<?xml version="1.0" encoding="iso-8859-1"?>
<!-- Generator: Adobe Illustrator 19.0.0, SVG Export Plug-In . SVG Version: 6.00 Build 0)  -->
<svg version="1.1" id="Capa_1" xmlns="http://www.w3.org/2000/svg" xmlns:xlink="http://www.w3.org/1999/xlink" x="0px" y="0px"
	 viewBox="0 0 512 512" style="enable-background:new 0 0 512 512;" xml:space="preserve">
<g>
	<g>
		<path d="M308.499,94.173c-50.437,0-91.467,41.03-91.467,91.467c0,8.968,7.269,16.237,16.237,16.237h150.461
			c8.974,0,16.237-7.269,16.237-16.237C399.966,135.204,358.936,94.173,308.499,94.173z M251.778,169.404
			c7.068-24.658,29.822-42.757,56.721-42.757s49.652,18.099,56.72,42.757H251.778z"/>
	</g>
</g>
<g>
	<g>
		<path d="M217.032,325.277H132.6c-8.968,0-16.237,7.269-16.237,16.237v154.25h32.474V357.751h51.958v138.013h32.474v-154.25
			C233.268,332.546,226,325.277,217.032,325.277z"/>
	</g>
</g>
<g>
	<g>
		<path d="M287.391,0h-90.926c-20.891,0-37.886,16.995-37.886,37.886v303.087h32.474V37.886c0-2.933,2.479-5.412,5.412-5.412h90.926
			c2.933,0,5.412,2.479,5.412,5.412v73.607h32.474V37.886C325.277,16.995,308.277,0,287.391,0z"/>
	</g>
</g>
<g>
	<g>
		<path d="M406.461,479.526H105.539c-8.968,0-16.237,7.269-16.237,16.237c0,8.968,7.269,16.237,16.237,16.237h300.922
			c8.968,0,16.237-7.269,16.237-16.237C422.698,486.795,415.429,479.526,406.461,479.526z"/>
	</g>
</g>
<g>
	<g>
		<path d="M324.736,185.641c0,7.756-6.311,14.072-14.072,14.072h-4.33c-7.761,0-14.072-6.311-14.072-14.072h-32.474
			c0,25.665,20.88,46.545,46.545,46.545h4.33c25.67,0,46.545-20.881,46.545-46.545H324.736z"/>
	</g>
</g>
<g>
</g>
<g>
</g>
<g>
</g>
<g>
</g>
<g>
</g>
<g>
</g>
<g>
</g>
<g>
</g>
<g>
</g>
<g>
</g>
<g>
</g>
<g>
</g>
<g>
</g>
<g>
</g>
<g>
</g>
</svg>
