<svg height="490pt" viewBox="-47 0 490 490.07111" width="490pt" xmlns="http://www.w3.org/2000/svg"><path d="m250.160156 93.753906c-.011718-23.433594-15.632812-43.992187-38.207031-50.28125-22.578125-6.289062-46.578125 3.226563-58.703125 23.277344-12.128906 20.054688-9.417969 45.730469 6.632812 62.804688 5.691407 6.003906 8.972657 13.894531 9.207032 22.164062-3.152344.523438-5.394532 3.347656-5.191406 6.535156.207031 3.191406 2.796874 5.703125 5.992187 5.8125h56.289063c3.351562-.09375 6.015624-2.847656 6-6.203125.003906-3.253906-2.550782-5.9375-5.800782-6.09375.222656-8.28125 3.609375-16.164062 9.460938-22.027343 9.160156-9.75 14.277344-22.613282 14.320312-35.988282zm-35.765625 58.316406h-11.359375c.648438-1.132812.992188-2.410156 1-3.714843v-28.429688c0-3.316406-2.6875-6-6-6s-6 2.683594-6 6v28.429688c.007813 1.304687.351563 2.582031 1 3.714843h-11.953125c-.105469-11.421874-4.585937-22.371093-12.515625-30.59375-7.199218-7.640624-11.097656-17.808593-10.851562-28.304687.339844-21.144531 18.488281-39.347656 39.628906-39.6875.207031 0 .417969-.027344.625-.027344 22.222656.046875 40.207031 18.082031 40.191406 40.304688-.039062 10.359375-3.980468 20.328125-11.042968 27.910156-8.148438 8.53125-12.539063 18.398437-12.722657 30.398437zm0 0"/><path d="m180.835938 183.070312h34.398437c3.316406 0 6-2.6875 6-6s-2.683594-6-6-6h-34.398437c-3.3125 0-6 2.6875-6 6s2.6875 6 6 6zm0 0"/><path d="m191.035156 6v19.152344c0 3.3125 2.6875 6 6 6s6-2.6875 6-6v-19.152344c0-3.3125-2.6875-6-6-6s-6 2.6875-6 6zm0 0"/><path d="m262.398438 28.265625c-2.277344-2.410156-6.074219-2.519531-8.484376-.242187l-14.070312 13.289062c-2.410156 2.273438-2.515625 6.074219-.242188 8.480469 2.277344 2.410156 6.074219 2.519531 8.484376.242187l14.070312-13.289062c2.410156-2.273438 2.515625-6.074219.242188-8.480469zm0 0"/><path d="m133.761719 34.445312 13.484375 13.683594c2.328125 2.359375 6.125 2.386719 8.488281.0625 2.359375-2.328125 2.386719-6.128906.058594-8.488281l-13.484375-13.679687c-1.503906-1.535157-3.710938-2.152344-5.792969-1.613282-2.082031.539063-3.714844 2.148438-4.28125 4.222656-.570313 2.070313.015625 4.289063 1.527344 5.8125zm0 0"/><path d="m155.035156 202.847656c0-14.789062-11.988281-26.777344-26.777344-26.777344h-.445312c-14.789062 0-26.777344 11.988282-26.777344 26.777344v8.445313c0 14.789062 11.988282 26.777343 26.777344 26.777343h.445312c14.789063 0 26.777344-11.988281 26.777344-26.777343zm-12 8.445313c0 8.160156-6.617187 14.777343-14.777344 14.777343h-.445312c-8.160156 0-14.777344-6.617187-14.777344-14.777343v-8.445313c0-8.160156 6.617188-14.777344 14.777344-14.777344h.445312c8.160157 0 14.777344 6.617188 14.777344 14.777344zm0 0"/><path d="m295.035156 202.847656c0-14.789062-11.988281-26.777344-26.777344-26.777344h-.445312c-14.789062 0-26.777344 11.988282-26.777344 26.777344v8.445313c0 14.789062 11.988282 26.777343 26.777344 26.777343h.445312c14.789063 0 26.777344-11.988281 26.777344-26.777343zm-12 8.445313c0 8.160156-6.617187 14.777343-14.777344 14.777343h-.445312c-8.160156 0-14.777344-6.617187-14.777344-14.777343v-8.445313c0-8.160156 6.617188-14.777344 14.777344-14.777344h.445312c8.160157 0 14.777344 6.617188 14.777344 14.777344zm0 0"/><path d="m228.035156 223.921875c0-17.039063-13.8125-30.851563-30.851562-30.851563h-.296875c-17.039063 0-30.851563 13.8125-30.851563 30.851563v10.300781c.003906 17.039063 13.816406 30.847656 30.851563 30.847656h.296875c17.039062 0 30.851562-13.8125 30.851562-30.851562zm-12 10.300781c0 10.410156-8.441406 18.847656-18.851562 18.847656h-.296875c-10.410157 0-18.851563-8.4375-18.851563-18.851562v-10.300781c.003906-10.410157 8.441406-18.847657 18.851563-18.847657h.296875c10.410156 0 18.851562 8.441407 18.851562 18.851563zm0 0"/><path d="m227.296875 275.070312h-4.929687c-2.539063.023438-4.796876 1.632813-5.644532 4.027344l-5.304687 14.785156-9.394531-9.980468c-1.15625-1.222656-2.769532-1.90625-4.449219-1.882813-1.679688.019531-3.273438.746094-4.394531 2l-8.378907 9.367188-4.582031-14.117188c-.796875-2.480469-3.09375-4.175781-5.703125-4.199219h-5.734375c-9.035156.027344-17.632812 3.875-23.675781 10.589844-6.046875 6.605469-8.984375 15.480469-8.070313 24.390625v48.355469c.003906 9.105469 3.6875 17.828125 10.21875 24.179688l4.46875 4.339843c3.964844 3.820313 6.316406 9.015625 6.566406 14.515625l3.949219 82.953125c.152344 3.1875 2.792969 5.691407 5.984375 5.675781h59.761719c3.195313.015626 5.835937-2.484374 5.992187-5.675781l3.960938-83.023437c.253906-5.472656 2.582031-10.640625 6.515625-14.453125l4.453125-4.371094c6.476562-6.347656 10.125-15.03125 10.128906-24.097656v-48.398438c.914063-8.910156-2.023437-17.785156-8.070312-24.390625-6.039063-6.714844-14.636719-10.558594-23.667969-10.589844zm-29.539063 21.832032 4.234376 4.5 6.339843 59.035156-10.300781 10.300781-10.300781-10.300781 6.390625-59.480469zm49.355469 12.253906c-.023437.199219-.078125.402344-.078125.601562v48.691407c.003906 5.828125-2.339844 11.414062-6.5 15.496093l-4.472656 4.375c-6.117188 5.921876-9.738281 13.953126-10.125 22.457032l-3.675781 77.292968h-48.316407l-3.683593-77.234374c-.394531-8.554688-4.054688-16.628907-10.226563-22.566407l-4.449218-4.332031c-4.191407-4.078125-6.554688-9.683594-6.550782-15.53125v-48.644531c0-.199219-.054687-.398438-.074218-.601563-.585938-5.621094 1.234374-11.230468 5.011718-15.4375 3.773438-4.210937 9.152344-6.625 14.808594-6.652344h1.378906l6.453125 19.886719c.65625 2.007813 2.3125 3.523438 4.367188 4l-5.480469 51.039063c-.191406 1.808594.441406 3.605468 1.722656 4.890625l16.570313 16.570312c2.34375 2.34375 6.140625 2.34375 8.484375 0l16.570312-16.566406c1.28125-1.285156 1.914063-3.082031 1.722656-4.882813l-5.480468-51.015624c2-.476563 3.617187-1.933594 4.308594-3.867188l7.1875-20.054688h.710937c5.652344.027344 11.027344 2.445313 14.804687 6.652344 3.773438 4.207032 5.59375 9.8125 5.011719 15.433594zm0 0"/><path d="m92.035156 223.921875c0-17.039063-13.8125-30.851563-30.851562-30.851563h-.296875c-17.039063 0-30.851563 13.8125-30.851563 30.851563v10.300781c.003906 17.039063 13.816406 30.847656 30.851563 30.847656h.296875c17.039062 0 30.851562-13.8125 30.851562-30.851562zm-12 10.300781c0 10.410156-8.441406 18.847656-18.851562 18.847656h-.300782c-10.410156 0-18.847656-8.441406-18.847656-18.851562v-10.300781c.003906-10.410157 8.441406-18.847657 18.851563-18.847657h.300781c10.410156.003907 18.847656 8.441407 18.847656 18.851563zm0 0"/><path d="m90.726562 275.070312h-4.929687c-2.539063.023438-4.796875 1.632813-5.648437 4.027344l-5.300782 14.785156-9.394531-9.980468c-1.152344-1.222656-2.765625-1.90625-4.445313-1.882813-1.683593.019531-3.277343.746094-4.394531 2l-8.382812 9.367188-4.582031-14.117188c-.796876-2.480469-3.09375-4.171875-5.699219-4.199219h-5.738281c-9.097657.027344-17.765626 3.867188-23.890626 10.589844-5.976562 6.617188-8.2851558 15.523438-8.2851558 24.390625v48.355469c.0820318 9.132812 3.8437498 17.851562 10.4296878 24.179688l4.582031 4.339843c3.976563 3.816407 6.34375 9.011719 6.617187 14.515625l3.972657 82.949219c.164062 3.199219 2.816406 5.699219 6.015625 5.679687h59.757812c3.195313.015626 5.839844-2.484374 5.996094-5.675781l3.957031-83.027343c.253907-5.472657 2.585938-10.640626 6.519531-14.453126l4.738282-4.375c6.550781-6.3125 10.304687-14.988281 10.414062-24.089843v-48.398438c0-8.867187-2.378906-17.777343-8.355468-24.390625-6.152344-6.722656-14.839844-10.5625-23.953126-10.589844zm-29.539062 21.832032 4.234375 4.5 6.339844 59.035156-10.300781 10.300781-10.300782-10.300781 6.386719-59.480469zm49.640625 12.253906c-.023437.199219.207031.402344.207031.601562v48.691407c-.101562 5.863281-2.546875 11.441406-6.78125 15.496093l-4.621094 4.375c-6.132812 5.914063-9.78125 13.945313-10.199218 22.457032l-3.742188 77.292968h-48.316406l-3.683594-77.234374c-.398437-8.550782-4.054687-16.625-10.226562-22.558594l-4.664063-4.335938c-4.25-4.058594-6.691406-9.65625-6.765625-15.535156v-48.644531c0-.199219.160156-.398438.136719-.601563-.535156-5.648437 1.332031-11.261718 5.144531-15.464844 3.8125-4.203124 9.21875-6.609374 14.894532-6.625h1.375l6.457031 19.886719c.65625 2.007813 2.3125 3.523438 4.367187 4l-5.472656 51.042969c-.195312 1.804688.4375 3.601562 1.722656 4.886719l16.566406 16.574219c2.34375 2.34375 6.144532 2.34375 8.484376 0l16.570312-16.570313c1.28125-1.28125 1.917969-3.078125 1.722656-4.882813l-5.480468-51.015624c2-.476563 3.621093-1.929688 4.308593-3.863282l7.183594-20.058594h.710937c5.679688.015626 11.089844 2.417969 14.914063 6.617188 3.820313 4.199219 5.703125 9.8125 5.183594 15.46875zm0 0"/><path d="m365.035156 223.921875c0-17.039063-13.8125-30.851563-30.851562-30.851563h-.296875c-17.039063 0-30.851563 13.8125-30.851563 30.851563v10.300781c.003906 17.039063 13.816406 30.847656 30.851563 30.847656h.296875c17.039062 0 30.851562-13.8125 30.851562-30.851562zm-12 10.300781c0 10.410156-8.441406 18.847656-18.851562 18.847656h-.296875c-10.410157 0-18.851563-8.4375-18.851563-18.851562v-10.300781c.003906-10.410157 8.441406-18.847657 18.851563-18.847657h.296875c10.410156 0 18.851562 8.441407 18.851562 18.851563zm0 0"/><path d="m363.867188 275.070312h-4.929688c-2.542969.023438-4.796875 1.632813-5.648438 4.027344l-5.304687 14.785156-9.394531-9.980468c-1.152344-1.222656-2.765625-1.90625-4.445313-1.882813-1.683593.019531-3.277343.75-4.398437 2.003907l-8.378906 9.363281-4.578126-14.121094c-.796874-2.480469-3.09375-4.171875-5.699218-4.199219h-5.734375c-9.117188.023438-17.804688 3.867188-23.960938 10.589844-5.980469 6.613281-8.359375 15.523438-8.359375 24.394531v48.355469c.109375 9.140625 3.894532 17.855469 10.5 24.179688l4.617188 4.339843c3.984375 3.8125 6.355468 9.007813 6.632812 14.515625l3.988282 82.953125c.167968 3.195313 2.820312 5.695313 6.023437 5.675781h59.757813c3.195312.015626 5.835937-2.484374 5.992187-5.675781l3.960937-83.027343c.25-5.472657 2.582032-10.640626 6.515626-14.453126l4.667968-4.375c6.535156-6.320312 10.261719-14.996093 10.34375-24.089843v-48.398438c0-8.867187-2.304687-17.777343-8.285156-24.390625-6.125-6.722656-14.789062-10.5625-23.882812-10.589844zm-29.539063 21.832032 4.234375 4.5 6.339844 59.035156-10.300782 10.300781-10.300781-10.300781 6.390625-59.480469zm49.570313 12.253906c-.023438.199219.136718.402344.136718.601562v48.691407c-.074218 5.855469-2.492187 11.433593-6.710937 15.496093l-4.582031 4.375c-6.128907 5.917969-9.769532 13.949219-10.179688 22.457032l-3.726562 77.292968h-48.320313l-3.679687-77.234374c-.394532-8.550782-4.054688-16.625-10.226563-22.5625l-4.734375-4.332032c-4.273438-4.050781-6.738281-9.648437-6.839844-15.535156v-48.644531c0-.199219.230469-.398438.210938-.601563-.519532-5.65625 1.359375-11.269531 5.183594-15.472656 3.824218-4.203125 9.242187-6.601562 14.921874-6.617188h1.378907l6.457031 19.886719c.644531 1.992188 2.273438 3.503907 4.304688 4 .019531 0 .039062.019531.058593.023438l-5.476562 51.023437c-.195313 1.804688.4375 3.601563 1.722656 4.886719l16.566406 16.570313c2.34375 2.339843 6.144531 2.339843 8.484375 0l16.570313-16.570313c1.285156-1.285156 1.917969-3.078125 1.722656-4.882813l-5.480469-51.015624c2-.476563 3.621094-1.929688 4.308594-3.867188l7.191406-20.054688h.707032c5.675781.019532 11.078124 2.421876 14.886718 6.625 3.8125 4.203126 5.679688 9.8125 5.144532 15.460938zm0 0"/></svg>