<?xml version="1.0"?>
<svg xmlns="http://www.w3.org/2000/svg" id="Layer_1" data-name="Layer 1" viewBox="0 0 512 512" width="512" height="512"><title>Growth</title><path d="M282.739,223.09a93.222,93.222,0,1,0-93.221-93.221A93.326,93.326,0,0,0,282.739,223.09Zm0-174.443a81.222,81.222,0,1,1-81.221,81.222A81.314,81.314,0,0,1,282.739,48.647Z"/><path d="M282.739,171.932a16.607,16.607,0,0,1-16.588-16.588,6,6,0,0,0-12,0A28.634,28.634,0,0,0,275,182.859V191a6,6,0,0,0,12,0v-7.387a28.588,28.588,0,0,0-4.261-56.857,16.588,16.588,0,1,1,16.588-16.588,6,6,0,0,0,12,0A28.633,28.633,0,0,0,289,82.279V76a6,6,0,0,0-12,0v6.159a28.59,28.59,0,0,0,5.739,56.6,16.588,16.588,0,1,1,0,33.176Z"/><path d="M491,463H461V144.321l11.356-8.815-3.274,42.576a6,6,0,0,0,5.522,6.442c.157.012.312.018.467.018a6,6,0,0,0,5.976-5.54l4.328-56.276a6,6,0,0,0-5.555-6.445l-60.6-4.329a6,6,0,0,0-.856,11.97l45.192,3.228-183.1,142.13L153.571,169.337a6,6,0,0,0-7.866.384L20.248,290.073a6,6,0,0,0,8.307,8.659L49,279.119V463H21a6,6,0,0,0,0,12H491a6,6,0,0,0,0-12Zm-42,0H421V175.37l28-21.734ZM341,237.469l28-21.735V463H341ZM329,463H301V268.518l28-21.734Zm52-256.58,28-21.735V463H381Zm-96.9,75.216,4.9-3.8V463H261V269.236l15.709,12.374A6,6,0,0,0,284.1,281.636ZM221,237.727l28,22.056V463H221ZM209,463H181V206.219l28,22.056ZM150.246,181.994,169,196.766V463H141V190.863ZM129,463H101V229.235l28-26.86ZM61,267.607l28-26.86V463H61Z"/></svg>
