<?xml version="1.0"?>
<svg xmlns="http://www.w3.org/2000/svg" id="Layer_1" data-name="Layer 1" viewBox="0 0 512 512" width="512" height="512"><title>Oil tank</title><path d="M110.465,303h291.07C442.7,303,476,269.017,476,227.848V152.636A74.557,74.557,0,0,0,401.535,78H235V51.535A7.309,7.309,0,0,0,227.367,44H137.4c-4.418,0-8.4,3.117-8.4,7.535V78H110.465A74.557,74.557,0,0,0,36,152.636v75.212C36,269.017,69.3,303,110.465,303ZM145,60h74V78H145ZM52,152.636A58.538,58.538,0,0,1,110.465,94h291.07A58.538,58.538,0,0,1,460,152.636v75.212C460,260.194,433.882,287,401.535,287H110.465C78.118,287,52,260.194,52,227.848Z"/><path d="M487.361,323H24.639C20.221,323,17,326.754,17,331.173V409.1a7.617,7.617,0,0,0,7.639,7.9H75.691a58.537,58.537,0,0,0,116.192,0H320.117a58.537,58.537,0,0,0,116.192,0h51.052A7.617,7.617,0,0,0,495,409.1V331.173C495,326.754,491.779,323,487.361,323ZM133.787,452.465a42.552,42.552,0,1,1,42.552-42.552A42.6,42.6,0,0,1,133.787,452.465Zm244.426,0a42.552,42.552,0,1,1,42.552-42.552A42.6,42.6,0,0,1,378.213,452.465ZM479,401H436.1a58.555,58.555,0,0,0-115.774,0H191.674A58.555,58.555,0,0,0,75.9,401H33V339H479Z"/><path d="M256,269.292a63.353,63.353,0,0,0,54.751-31.929c10.449-18.234,10.541-39.607.248-57.172-.125-.212-.26-.42-.4-.62l-48.1-67.124A8.1,8.1,0,0,0,256.005,109h0a8.107,8.107,0,0,0-6.493,3.438l-48.1,66.886c-.149.208-.289.451-.418.672-10.3,17.676-10.186,39.151.313,57.423A63.356,63.356,0,0,0,256,269.292ZM214.631,188.4l41.36-57.47,41.381,57.657c7.288,12.677,7.11,27.534-.5,40.821a46.894,46.894,0,0,1-81.691.054C207.518,216.13,207.324,201.186,214.631,188.4Z"/><path d="M255.633,244.275a37.152,37.152,0,0,0,37.188-37.033,8,8,0,1,0-16,0,21.135,21.135,0,0,1-21.188,21.033,8,8,0,0,0,0,16Z"/></svg>
