<svg height="496pt" viewBox="-62 0 496 496" width="496pt" xmlns="http://www.w3.org/2000/svg"><path d="m343.984375 86c16.015625 0 29-12.984375 29-29s-12.984375-29-29-29h-191.492187v-20c0-4.417969-3.082032-8-7.5-8h-68.5c-4.417969 0-8 3.582031-8 8v20h-39.492188c-16.015625 0-29 12.984375-29 29s12.984375 29 29 29h5.492188v147h-5.492188c-16.015625 0-29 12.984375-29 29s12.984375 29 29 29h5.492188v147h-5.492188c-16.015625 0-29 12.984375-29 29s12.984375 29 29 29h314.984375c16.015625 0 29-12.984375 29-29s-12.984375-29-29-29h-5.492187v-147h5.492187c16.015625 0 29-12.984375 29-29s-12.984375-29-29-29h-5.492187v-147zm-259.492187-70h52v12h-52zm-68.492188 41c.007812-7.175781 5.824219-12.992188 13-13h314.984375c7.179687 0 13 5.820312 13 13s-5.820313 13-13 13h-314.984375c-7.175781-.007812-12.992188-5.824219-13-13zm340.984375 410c-.007813 7.175781-5.824219 12.992188-13 13h-314.984375c-7.179688 0-13-5.820312-13-13s5.820312-13 13-13h314.984375c7.175781.007812 12.992187 5.824219 13 13zm-34.492187-29h-272v-147h272zm34.492187-176c-.007813 7.175781-5.824219 12.992188-13 13h-314.984375c-7.179688 0-13-5.820312-13-13s5.820312-13 13-13h314.984375c7.175781.007812 12.992187 5.824219 13 13zm-34.492187-29h-272v-147h272zm0 0"/></svg>