<svg height="475pt" viewBox="0 -30 475.67817 475" width="475pt" xmlns="http://www.w3.org/2000/svg"><path d="m419.386719 287.871094-46.5625 17.121094v-23.261719c13-9.738281 25.683593-21.527344 35.699219-34.941407 21.058593-28.070312 32.398437-62.238281 32.300781-97.328124v-9.722657c-.085938-4.476562-3.722657-8.066406-8.199219-8.097656h-309.601562c-4.476563.03125-8.113282 3.621094-8.199219 8.097656v9.722657c.023437 33.128906 10.160156 65.460937 29.046875 92.679687-14.964844.152344-29.75 3.289063-43.488282 9.222656l1.835938-15.78125c.246094-2.105469-.355469-4.222656-1.671875-5.882812-1.316406-1.664063-3.238281-2.734375-5.347656-2.976563l-68.933594-7.90625c-4.390625-.503906-8.355469 2.644532-8.859375 7.035156l-17.3554688 151.277344c-.5000002 4.390625 2.6484378 8.355469 7.0390628 8.859375l68.9375 7.910157c.308594.035156.613281.050781.921875.050781 4.0625-.003907 7.476562-3.050781 7.9375-7.089844l.910156-7.914063 19.15625-7.976562c7.554687-3.253906 16.074219-3.445312 23.761719-.53125l104.585937 39.410156c.167969.0625.335938.121094.507813.171875 23.707031 7.109375 49.066406 6.449219 72.371094-1.882812.359374-.128907.707031-.285157 1.039062-.460938l164.175781-87.035156c3.75-1.972656 5.316407-6.523437 3.578125-10.386719-9.578125-21.113281-34.054687-30.96875-55.585937-22.382812zm-62.5625 23-9.28125 3.375c-2.105469-5.019532-4.941407-9.699219-8.417969-13.886719 6.039062-2.527344 11.949219-5.355469 17.699219-8.476563zm-226-163.230469h294v1.820313c-.070313 7.089843-.621094 14.164062-1.648438 21.179687h-33.445312c-4.417969 0-8 3.582031-8 8s3.582031 8 8 8h30.265625c-12.507813 47.730469-48.132813 86.003906-94.851563 101.898437-6.742187-4.105468-14.296875-6.703124-22.140625-7.613281l-62.867187-7.238281c-10.070313-1.175781-19.746094-4.597656-28.3125-10.015625l-6.125-3.882813c-12.269531-7.726562-25.910157-13.015624-40.179688-15.589843-14.109375-16.722657-24.296875-36.386719-29.8125-57.558594h228.941407c4.417968 0 8-3.582031 8-8s-3.582032-8-8-8h-232.140626c-1.046874-7.015625-1.609374-14.089844-1.683593-21.179687zm-113.964844 223.363281 15.53125-135.386718 53.046875 6.085937-15.535156 135.386719zm283.378906 22.261719c-19.847656 6.96875-41.386719 7.5-61.550781 1.511719l-104.332031-39.3125c-11.523438-4.371094-24.300781-4.097656-35.628907.765625l-10.839843 4.515625 10.386719-90.550782c31.039062-17.132812 68.957031-15.945312 98.863281 3.101563l6.125 3.878906c10.605469 6.699219 22.585937 10.929688 35.050781 12.375l62.867188 7.214844c18.351562 2.128906 32.710937 16.804687 34.4375 35.199219l-94.574219-10.851563c-2.855469-.355469-5.679688.851563-7.398438 3.15625-1.71875 2.304688-2.070312 5.355469-.917969 7.992188 1.152344 2.632812 3.632813 4.445312 6.492188 4.746093l103.339844 11.855469c2.109375.246094 4.226562-.355469 5.890625-1.671875 1.660156-1.320312 2.730469-3.246094 2.976562-5.351562.453125-3.996094.46875-8.027344.046875-12.023438l73.445313-26.960937c.070312-.023438.144531-.054688.214843-.082031 10.984376-4.414063 23.5625-1.292969 31.207032 7.746093zm0 0"/><path d="m212.824219 105.539062c4.417969 0 8-3.582031 8-8v-36.453124c0-4.417969-3.582031-8-8-8s-8 3.582031-8 8v36.453124c0 4.417969 3.582031 8 8 8zm0 0"/><path d="m253.824219 105.539062c4.417969 0 8-3.582031 8-8v-81.535156c0-4.417968-3.582031-8-8-8s-8 3.582032-8 8v81.535156c0 4.417969 3.582031 8 8 8zm0 0"/><path d="m295.824219 105.539062c4.417969 0 8-3.582031 8-8v-36.453124c0-4.417969-3.582031-8-8-8s-8 3.582031-8 8v36.453124c0 4.417969 3.582031 8 8 8zm0 0"/><path d="m342.824219 105.539062c4.417969 0 8-3.582031 8-8v-89.199218c0-4.417969-3.582031-8-8-8s-8 3.582031-8 8v89.199218c0 4.417969 3.582031 8 8 8zm0 0"/></svg>