<?xml version="1.0"?>
<svg xmlns="http://www.w3.org/2000/svg" id="Layer_1" data-name="Layer 1" viewBox="0 0 512 512" width="512" height="512"><title>Smartphone</title><path d="M352,12H160a48,48,0,0,0-48,48V451a48,48,0,0,0,48,48H352a48,48,0,0,0,48-48V60A48,48,0,0,0,352,12Zm32,439.631C384,469.276,369.787,484,352.143,484H159.857C142.213,484,128,469.276,128,451.631V405H384ZM384,389H128V107H384Zm0-298H128V60.369C128,42.724,142.213,28,159.857,28H352.143C369.787,28,384,42.724,384,60.369Z"/><path d="M290.035,49h-68.07a8,8,0,0,0,0,16h68.07a8,8,0,0,0,0-16Z"/><path d="M225,453h62a8,8,0,0,0,0-16H225a8,8,0,0,0,0,16Z"/><path d="M256,356.206a77.657,77.657,0,1,0-77.656-77.657A77.744,77.744,0,0,0,256,356.206Zm0-139.313a61.657,61.657,0,1,1-61.656,61.656A61.726,61.726,0,0,1,256,216.893Z"/><path d="M256,308.934A10.051,10.051,0,0,1,245.961,298.9a8,8,0,0,0-16,0A26.084,26.084,0,0,0,247,323.329V328a8,8,0,0,0,16,0v-4.03a26.036,26.036,0,0,0-7-51.115,10.039,10.039,0,1,1,10.039-10.039,8,8,0,1,0,16,0A26.08,26.08,0,0,0,263,237.74V235a8,8,0,0,0-16,0v3.382a26.039,26.039,0,0,0,9,50.473,10.04,10.04,0,0,1,0,20.079Z"/><path d="M256,379.865A101.316,101.316,0,1,0,154.685,278.549,101.43,101.43,0,0,0,256,379.865Zm0-186.631a85.316,85.316,0,1,1-85.315,85.315A85.411,85.411,0,0,1,256,193.234Z"/><path d="M256,159a8,8,0,0,0,8-8V120a8,8,0,0,0-16,0v31A8,8,0,0,0,256,159Z"/><path d="M296,169a8,8,0,0,0,8-8V130a8,8,0,0,0-16,0v31A8,8,0,0,0,296,169Z"/><path d="M216,169a8,8,0,0,0,8-8V130a8,8,0,0,0-16,0v31A8,8,0,0,0,216,169Z"/></svg>
