<svg height="464pt" viewBox="-35 0 464 464.239" width="464pt" xmlns="http://www.w3.org/2000/svg"><path d="m393.121094 6c0-3.3125-2.6875-6-6-6h-381c-3.316406 0-6 2.6875-6 6v225c0 3.3125 2.683594 6 6 6h381c3.3125 0 6-2.6875 6-6zm-11 219h-370v-213h370zm0 0"/><path d="m35.945312 169.34375c24.164063.390625 37.949219 11.679688 38.886719 32.105469.144531 3.164062 2.789063 5.628906 5.953125 5.550781h235.226563c3.171875.082031 5.828125-2.375 5.996093-5.542969.941407-20.136719 15.273438-31.820312 39.066407-32.199219 3.285156 0 5.972656-2.625 6.046875-5.910156v-90.214844c-.066406-3.300781-2.742188-5.957031-6.046875-6-23.484375-.375-37.566407-12.207031-38.511719-32.351562-.179688-3.226562-2.835938-5.757812-6.066406-5.78125h-235.710938c-3.214844.027344-5.847656 2.570312-5.992187 5.78125-.945313 20.140625-15.054688 31.941406-38.847657 32.320312-3.269531.070313-5.867187 2.765626-5.824218 6.03125v90.210938c-.039063 3.261719 2.5625 5.941406 5.824218 6zm287.910157-103.34375c7.738281 7.335938 18.265625 11.679688 31.265625 12.828125v78.832031c-25 2.269532-41.1875 16.339844-44.53125 37.339844h-78c29.152344-13 49.441406-42.839844 49.441406-77s-20.289062-63-49.4375-77h78.480469c1.332031 9.53125 5.835937 18.335938 12.78125 25zm-126.734375 125.144531c-40.269532 0-72.910156-32.640625-72.910156-72.90625s32.644531-72.910156 72.910156-72.910156c40.265625.003906 72.90625 32.644531 72.90625 72.910156-.046875 40.246094-32.660156 72.863281-72.90625 72.90625zm-155-112.328125c24-2.265625 40.746094-15.816406 44.085937-37.816406h75.441407c-29.148438 14-49.4375 42.839844-49.4375 77s20.289062 64 49.4375 77h-75.421876c-3.261718-21-19.105468-35.140625-44.105468-37.351562zm0 0"/><path d="m293.808594 259h-49.902344c-3.3125 0-5.78125 3.171875-5.78125 6.484375v96.066406c0 22.644531-18.359375 41-41 41-22.644531 0-41-18.355469-41-41v-96.066406c0-3.3125-2.472656-6.484375-5.785156-6.484375h-49.898438c-3.472656.195312-6.214844 3.011719-6.320312 6.484375v96.066406c0 56.625 46.375 102.6875 103 102.6875 56.621094 0 103-46.0625 103-102.6875v-96.066406c-.109375-3.46875-2.847656-6.285156-6.3125-6.484375zm-5.6875 12v30h-38v-30zm-144 0v27h-38v-27zm53 181.238281c-50 0-91-40.679687-91-90.6875v-51.550781h38v51.550781c0 29.273438 23.726562 53 53 53 29.269531 0 53-23.726562 53-53v-48.550781h38v48.550781c0 50.007813-40.996094 90.6875-91 90.6875zm0 0"/><path d="m364.121094 281h-35c-3.316406 0-6 2.6875-6 6s2.683594 6 6 6h35c3.3125 0 6-2.6875 6-6s-2.6875-6-6-6zm0 0"/><path d="m356.847656 311.667969-25-10c-3.078125-1.230469-6.570312.265625-7.800781 3.34375-1.230469 3.074219.265625 6.566406 3.34375 7.800781l25 10c3.078125 1.230469 6.570313-.265625 7.800781-3.34375 1.230469-3.078125-.265625-6.570312-3.34375-7.800781zm0 0"/><path d="m329.621094 273.242188c.761718 0 1.515625-.148438 2.226562-.429688l25-10c3.074219-1.234375 4.574219-4.726562 3.339844-7.800781-1.230469-3.078125-4.722656-4.574219-7.800781-3.34375l-25 10c-2.671875 1.066406-4.210938 3.882812-3.667969 6.707031.546875 2.828125 3.023438 4.871094 5.902344 4.867188zm0 0"/><path d="m70.121094 287c0-3.3125-2.6875-6-6-6h-35c-3.316406 0-6 2.6875-6 6s2.683594 6 6 6h35c3.3125 0 6-2.6875 6-6zm0 0"/><path d="m66.847656 261.667969-25-10c-3.078125-1.230469-6.570312.265625-7.800781 3.34375-1.230469 3.074219.265625 6.566406 3.34375 7.800781l25 10c3.078125 1.230469 6.570313-.265625 7.800781-3.34375 1.230469-3.078125-.265625-6.570312-3.34375-7.800781zm0 0"/><path d="m62.390625 301.667969-25 10c-3.078125 1.230469-4.574219 4.722656-3.34375 7.800781s4.722656 4.574219 7.800781 3.34375l25-10c3.078125-1.234375 4.574219-4.726562 3.34375-7.800781-1.230468-3.078125-4.722656-4.574219-7.800781-3.34375zm0 0"/><path d="m197.121094 80.039062c8.742187.011719 15.832031 7.097657 15.839844 15.84375 0 3.3125 2.6875 6 6 6s6-2.6875 6-6c-.019532-13.058593-9.09375-24.351562-21.839844-27.183593v-6.699219c0-3.3125-2.6875-6-6-6-3.316406 0-6 2.6875-6 6v6.699219c-13.875 3.0625-23.21875 16.082031-21.679688 30.203125 1.542969 14.125 13.46875 24.824218 27.679688 24.824218 8.746094 0 15.839844 7.09375 15.839844 15.839844 0 8.75-7.09375 15.84375-15.84375 15.84375-8.746094 0-15.839844-7.09375-15.839844-15.84375 0-3.3125-2.6875-6-6-6s-6 2.6875-6 6c.019531 13.058594 9.09375 24.355469 21.84375 27.183594v7.25c0 3.3125 2.683594 6 6 6 3.3125 0 6-2.6875 6-6v-7.25c13.875-3.058594 23.21875-16.078125 21.679687-30.203125-1.539062-14.125-13.472656-24.824219-27.679687-24.820313-8.75 0-15.84375-7.09375-15.84375-15.84375s7.09375-15.84375 15.84375-15.84375zm0 0"/></svg>