<?xml version="1.0"?>
<svg xmlns="http://www.w3.org/2000/svg" id="Layer_1" data-name="Layer 1" viewBox="0 0 512 512" width="512" height="512"><title>Puzzle</title><path d="M256,22.247A233.753,233.753,0,0,0,90.711,421.289,233.754,233.754,0,1,0,421.289,90.711,232.223,232.223,0,0,0,256,22.247ZM473.631,249h-65.9a53.241,53.241,0,0,0,1.58-12.828,50.949,50.949,0,1,0-101.9.094A52.817,52.817,0,0,0,308.989,249H263V190.931a8,8,0,0,0-11.863-7.005,34.16,34.16,0,0,1-16.457,4.2,34.949,34.949,0,0,1,.044-69.9,33.611,33.611,0,0,1,16.414,4.2A8,8,0,0,0,263,115.413V38.37A217.713,217.713,0,0,1,473.631,249ZM102.024,102.025A216.194,216.194,0,0,1,247,38.443v65.278a50.2,50.2,0,0,0-12.276-1.5A50.949,50.949,0,1,0,247,202.6V249H191.161a8,8,0,0,0-7.006,11.863,33.515,33.515,0,0,1,4.2,16.371,34.95,34.95,0,0,1-69.9-.073,33.382,33.382,0,0,1,4.2-16.3,8,8,0,0,0-7-11.863H38.369A216.217,216.217,0,0,1,102.024,102.025ZM38.442,265h65.5a49.68,49.68,0,0,0-1.49,12.161,50.95,50.95,0,0,0,101.9.073,50,50,0,0,0-1.5-12.234H247v55.375a8,8,0,0,0,11.863,7,34.95,34.95,0,1,1,0,61.508A8,8,0,0,0,247,395.894v77.663A217.714,217.714,0,0,1,38.442,265ZM409.976,409.975A216.219,216.219,0,0,1,263,473.63V407.51a52.722,52.722,0,0,0,12.714,1.573,50.949,50.949,0,1,0-.066-101.9A52.392,52.392,0,0,0,263,308.754V265h57.6a8,8,0,0,0,7.006-11.863,35.391,35.391,0,0,1,30.754-52.1,35.082,35.082,0,0,1,34.948,35.137,36.181,36.181,0,0,1-4.195,16.965A8,8,0,0,0,396.123,265h77.435A216.189,216.189,0,0,1,409.976,409.975Z"/></svg>
