<svg height="490pt" viewBox="0 -105 490.542 490" width="490pt" xmlns="http://www.w3.org/2000/svg"><path d="m490.542969 171.554688c-.003907-27.667969-21.664063-50.496094-49.296875-51.945313-27.632813-1.453125-51.566406 18.980469-54.464844 46.5s16.25 52.488281 43.578125 56.828125v40.34375h-46v-168.960938c.058594-2.328124-.917969-4.558593-2.664063-6.097656l-101.699218-86.289062c-1.445313-1.15625-3.261719-1.746094-5.113282-1.652344h-126.859374c-1.785157-.089844-3.546876.441406-4.988282 1.5l-108.605468 86.40625c-1.914063 1.460938-3.046876 3.722656-3.070313 6.132812v168.960938h-23.359375c-4.417969 0-8 3.582031-8 8s3.582031 8 8 8h469.976562c4.417969 0 8-3.582031 8-8s-3.582031-8-8-8h-31.617187v-40.34375c25.367187-3.917969 44.113281-25.714844 44.183594-51.382812zm-135.636719-85.273438h-103.824219l-81.828125-70h102.6875zm-128.332031 0h-164.238281l85.332031-68.023438zm-116.214844 177v-65h57v65zm73 0v-73.074219c-.117187-4.449219-3.785156-7.980469-8.238281-7.925781h-72.824219c-2.109375-.015625-4.132813.816406-5.625 2.304688-1.492187 1.492187-2.324219 3.515624-2.3125 5.621093v73.074219h-47v-161h193v161zm73 0v-161h112v161zm146.183594-91.726562c-.011719-18.851563 14.53125-34.511719 33.332031-35.898438 18.796875-1.386719 35.480469 11.972656 38.234375 30.621094 2.753906 18.648437-9.351563 36.261718-27.75 40.371094v-15.800782l17.371094-9.820312c3.855469-2.171875 5.226562-7.054688 3.066406-10.914063-2.253906-3.84375-7.171875-5.167969-11.050781-2.976562l-9.386719 5.289062v-11.28125c0-4.417969-3.582031-8-8-8s-8 3.582031-8 8v16.707031l-8.351563-4.925781c-3.820312-2.191406-8.695312-.882812-10.910156 2.925781-2.210937 3.8125-.933594 8.691407 2.863282 10.929688l16.398437 9.542969v10.324219c-16.324219-3.773438-27.867187-18.335938-27.816406-35.09375zm0 0"/></svg>