<svg height="484pt" viewBox="-31 0 484 484" width="484pt" xmlns="http://www.w3.org/2000/svg"><path d="m177.382812 53h67.503907c4.421875 0 8-3.582031 8-8s-3.578125-8-8-8h-67.503907c-4.417968 0-8 3.582031-8 8s3.582032 8 8 8zm0 0"/><path d="m211.136719 400.167969c-15.890625 0-28.773438 12.882812-28.773438 28.773437 0 15.886719 12.882813 28.769532 28.773438 28.769532 15.886719 0 28.769531-12.882813 28.769531-28.769532-.015625-15.882812-12.886719-28.757812-28.769531-28.773437zm0 41.542969c-7.054688 0-12.773438-5.71875-12.773438-12.769532 0-7.054687 5.71875-12.773437 12.773438-12.773437 7.050781 0 12.769531 5.71875 12.769531 12.773437-.007812 7.046875-5.722656 12.761719-12.769531 12.769532zm0 0"/><path d="m422.265625 139.660156c-.007813-.109375-.027344-.214844-.042969-.324218-.023437-.152344-.039062-.300782-.070312-.449219-.023438-.125-.058594-.246094-.085938-.367188-.027344-.121093-.0625-.261719-.101562-.390625-.035156-.132812-.085938-.253906-.128906-.378906-.046876-.125-.082032-.242188-.132813-.359375-.046875-.121094-.117187-.257813-.175781-.386719-.050782-.105468-.101563-.214844-.15625-.320312-.074219-.144532-.160156-.277344-.242188-.414063-.054687-.085937-.101562-.175781-.160156-.261719-.109375-.164062-.230469-.324218-.351562-.480468-.039063-.046875-.070313-.097656-.109376-.144532l-.023437-.03125-.007813-.007812-43.988281-54.179688c-1.496093-1.921874-3.769531-3.082031-6.203125-3.164062h-16.148437v-38.519531c0-21.589844-17.554688-39.480469-39.144531-39.480469h-207.710938c-21.59375 0-39.144531 17.890625-39.144531 39.480469v38.519531h-7.445313c-2.179687.082031-4.238281 1.03125-5.722656 2.632812l-52.726562 54.105469c-.066407.066407-.121094.191407-.183594.261719-.101563.113281-.210938.257812-.308594.378906-.082031.097656-.152344.214844-.226562.3125-.074219.101563-.160157.222656-.238282.335938-.074218.113281-.136718.230468-.207031.347656-.066406.113281-.128906.21875-.1875.332031s-.117187.238281-.175781.359375c-.054688.121094-.109375.234375-.15625.351563-.050782.121093-.089844.242187-.132813.363281s-.089843.25-.128906.378906-.0625.246094-.09375.367188c-.03125.125-.066406.261718-.089844.394531-.0273435.128906-.0429685.261719-.0624998.398437-.0195312.132813-.0390624.25-.0507812.375-.0117188.152344.0703125.308594.0625.460938 0 .097656.074219.1875.074219.28125v16.757812c0 22.875 18.628906 41.804688 41.476562 41.804688h.679688c9.460937-.15625 18.585937-3.554688 25.84375-9.625v255.144531c0 21.589844 17.550781 39.480469 39.144531 39.480469h207.710938c21.589843 0 39.144531-17.890625 39.144531-39.480469v-255.144531c7.332031 6.113281 16.550781 9.511719 26.097656 9.625h.679687c22.964844-1 41.222657-19.355469 41.222657-42.273438v-16.289062c0-.074219.074219-.148438.074219-.21875-.003907-.1875.074218-.371094.054687-.558594zm-24.804687-7.660156h-46.707032l-26.550781-38h42.285156zm-59.324219 32.425781c-.128907 20.371094-16.589844 36.863281-36.960938 37.027344-20.316406-.101563-36.039062-16.710937-37.039062-36.988281v-16.464844h74zm-76.65625-32.425781-15.660157-38h58.859376l26.554687 38zm-177.34375 16h74v16.425781c.007812 20.433594-16.546875 37.007813-36.980469 37.019531-20.433594.011719-37.011719-16.546874-37.019531-36.980468zm90 0h74v16.425781c.007812 20.433594-16.546875 37.007813-36.980469 37.019531-20.433594.011719-37.011719-16.546874-37.019531-36.980468zm3.960937-16 15.65625-38h34.761719l15.65625 38zm-1.648437-38-15.65625 38h-67.910157l32-38zm-92.3125 108.109375c10 9.414063 22.65625 15.269531 37.070312 15.34375 18.328125-.136719 35.304688-9.679687 44.941407-25.269531 9.605468 15.757812 26.757812 25.34375 45.214843 25.269531 18.457031-.078125 35.527344-9.808594 45-25.648437 9.621094 15.820312 26.75 25.527343 45.265625 25.648437 14.128906-.070313 26.507813-5.738281 36.507813-14.878906v171.425781h-254zm23.144531-186.109375h207.710938c12.765624 0 23.144531 10.714844 23.144531 23.480469v38.519531h-254v-38.519531c0-12.765625 10.375-23.480469 23.144531-23.480469zm-43.21875 78h39.898438l-32 38h-45.003907zm4.074219 62.773438c0 14.144531-11.800781 26.226562-25.949219 26.226562h-.359375c-.070313 0-.058594-.207031-.128906-.207031-14.136719-.089844-25.550781-11.570313-25.5625-25.707031v-9.085938h52zm246.855469 311.226562h-207.710938c-12.769531 0-23.144531-10.714844-23.144531-23.480469v-54.519531h254v54.519531c0 12.765625-10.378907 23.480469-23.144531 23.480469zm91.144531-311.226562c0 14.144531-11.179688 26.226562-25.328125 26.226562h-.414063c-6.894531-.027344-13.503906-2.757812-18.410156-7.609375-4.941406-4.816406-7.765625-11.402344-7.847656-18.304687v-9.085938h52zm0 0"/></svg>