<svg height="467pt" viewBox="-53 0 467 467.536" width="467pt" xmlns="http://www.w3.org/2000/svg"><path d="m352.667969 107h-55.835938c-4.417969 0-7.5625 4.011719-7.5625 8.429688v171.707031c0 59.863281-49.140625 108.5625-109 108.5625-59.863281 0-109-48.699219-109-108.5625v-171.707031c0-4.417969-3.148437-8.429688-7.566406-8.429688h-55.835937c-4.417969 0-7.597657 4.011719-7.597657 8.429688v171.707031c0 99.472656 80.523438 180.398437 180 180.398437 99.472657 0 180-80.929687 180-180.398437v-171.707031c0-4.417969-3.179687-8.429688-7.601562-8.429688zm-8.398438 16v54h-39v-54zm-289 0v54h-39v-54zm125 328.539062c-90.652343 0-164-73.75-164-164.398437v-94.140625h39v94.136719c0 68.683593 56.3125 124.5625 125 124.5625 68.683594 0 125-55.878907 125-124.5625v-94.136719h39v94.136719c0 90.652343-73.347656 164.402343-164 164.402343zm0 0"/><path d="m33.269531 77c4.417969 0 8-3.582031 8-8v-61c0-4.417969-3.582031-8-8-8s-8 3.582031-8 8v61c0 4.417969 3.582031 8 8 8zm0 0"/><path d="m56.269531 77c4.417969 0 8-3.582031 8-8v-61c0-4.417969-3.582031-8-8-8s-8 3.582031-8 8v61c0 4.417969 3.582031 8 8 8zm0 0"/><path d="m8.269531 77c4.417969 0 8-3.582031 8-8v-61c0-4.417969-3.582031-8-8-8s-8 3.582031-8 8v61c0 4.417969 3.582031 8 8 8zm0 0"/><path d="m324.269531 77c4.417969 0 8-3.582031 8-8v-61c0-4.417969-3.582031-8-8-8s-8 3.582031-8 8v61c0 4.417969 3.582031 8 8 8zm0 0"/><path d="m348.269531 77c4.417969 0 8-3.582031 8-8v-61c0-4.417969-3.582031-8-8-8s-8 3.582031-8 8v61c0 4.417969 3.582031 8 8 8zm0 0"/><path d="m300.269531 77c4.417969 0 8-3.582031 8-8v-61c0-4.417969-3.582031-8-8-8s-8 3.582031-8 8v61c0 4.417969 3.582031 8 8 8zm0 0"/></svg>