<svg height="490pt" viewBox="-43 0 490 490" width="490pt" xmlns="http://www.w3.org/2000/svg"><path d="m181 126h58.644531c3.3125 0 6-2.6875 6-6s-2.6875-6-6-6h-58.644531c-3.3125 0-6 2.6875-6 6s2.6875 6 6 6zm0 0"/><path d="m289.644531 154h-108.644531c-3.3125 0-6 2.6875-6 6s2.6875 6 6 6h108.644531c3.316407 0 6-2.6875 6-6s-2.683593-6-6-6zm0 0"/><path d="m289.644531 194h-108.644531c-3.3125 0-6 2.6875-6 6s2.6875 6 6 6h108.644531c3.316407 0 6-2.6875 6-6s-2.683593-6-6-6zm0 0"/><path d="m289.644531 234h-108.644531c-3.3125 0-6 2.6875-6 6s2.6875 6 6 6h108.644531c3.316407 0 6-2.6875 6-6s-2.683593-6-6-6zm0 0"/><path d="m289.644531 274h-108.644531c-3.3125 0-6 2.6875-6 6s2.6875 6 6 6h108.644531c3.316407 0 6-2.6875 6-6s-2.683593-6-6-6zm0 0"/><path d="m289.644531 314h-108.644531c-3.3125 0-6 2.6875-6 6s2.6875 6 6 6h108.644531c3.316407 0 6-2.6875 6-6s-2.683593-6-6-6zm0 0"/><path d="m134 121.5c0-13.53125-10.96875-24.5-24.5-24.5s-24.5 10.96875-24.5 24.5v8c0 13.53125 10.96875 24.5 24.5 24.5s24.5-10.96875 24.5-24.5zm-12 8c0 6.902344-5.597656 12.5-12.5 12.5s-12.5-5.597656-12.5-12.5v-8c0-6.902344 5.597656-12.5 12.5-12.5s12.5 5.597656 12.5 12.5zm0 0"/><path d="m136.980469 157h-11.90625c-1.820313.035156-3.527344.882812-4.65625 2.308594-2.53125 3.167968-6.367188 5.011718-10.421875 5.003906-4.058594-.003906-7.890625-1.855469-10.414063-5.027344-1.132812-1.421875-2.839843-2.257812-4.65625-2.285156h-11.902343c-7.152344.042969-13.953126 3.117188-18.707032 8.464844-4.855468 5.207031-7.167968 12.292968-6.316406 19.359375v52.484375c-.066406 4.363281 1.601562 8.578125 4.632812 11.71875 2.914063 3.085937 6.941407 4.878906 11.1875 4.972656h.1875c1.832032-.074219 3.640626-.460938 5.339844-1.148438l2.378906 73.46875c.242188 6.585938 4.242188 12.449219 10.285157 15.078126 6.042969 2.628906 13.058593 1.554687 18.039062-2.757813 5.003907 4.296875 12.03125 5.347656 18.074219 2.695313 6.039062-2.652344 10.027344-8.535157 10.25-15.128907l2.378906-73.464843c1.609375.546874 3.296875.835937 5 .863281 4.265625.035156 8.363282-1.660157 11.355469-4.699219 3.160156-3.179688 4.921875-7.488281 4.890625-11.972656v-52.109375c.851562-7.066407-1.457031-14.152344-6.316406-19.359375-4.75-5.347656-11.550782-8.421875-18.703125-8.464844zm13.191406 26.9375c-.019531.199219-.171875.398438-.171875.605469v52.390625c.039062 1.277344-.4375 2.511718-1.320312 3.429687-.734376.789063-1.761719 1.238281-2.835938 1.242188-1.0625-.015625-2.070312-.472657-2.78125-1.261719-.753906-.828125-1.136719-1.925781-1.0625-3.042969v-29.140625c0-3.3125-2.6875-6-6-6s-6 2.6875-6 6v19.960938c0 .378906-.3125.773437-.324219 1.179687l-3.210937 96.492188c-.132813 2.832031-2.492188 5.042969-5.324219 4.988281-2.835937-.050781-5.113281-2.347656-5.140625-5.179688v-63.492187c0-3.3125-2.6875-6-6-6s-6 2.6875-6 6v63.492187c.003906 2.804688-2.238281 5.09375-5.042969 5.152344-2.804687.054688-5.136719-2.140625-5.25-4.945312l-3.273437-96.367188c-.015625-.566406-.433594-1.101562-.433594-1.617187v-19.671875c0-3.3125-2.6875-6-6-6s-6 2.6875-6 6v28.78125c.046875 1.269531-.421875 2.503906-1.300781 3.425781-.734375.769531-1.746094 1.21875-2.8125 1.242187-1.066407-.015624-2.082031-.472656-2.800781-1.257812-.761719-.824219-1.152344-1.917969-1.085938-3.035156v-52.765625c0-.199219-.152344-.398438-.171875-.605469-.429687-3.789062.777344-7.582031 3.320313-10.425781 2.492187-2.851563 6.085937-4.496094 9.875-4.511719h9.273437c4.71875 5 11.023437 7.175781 17.703125 7.175781s12.984375-2.175781 17.703125-7.175781h9.277344c3.785156.015625 7.382812 1.660156 9.871093 4.507812 2.542969 2.847657 3.75 6.640626 3.320313 10.429688zm0 0"/><path d="m322.78125 0h-290.921875c-17.824219 0-31.859375 14.613281-31.859375 32.4375v375.765625c0 17.824219 14.035156 32.796875 31.859375 32.796875h16.140625v16.5625c0 17.824219 14.90625 32.4375 32.730469 32.4375h291.410156c17.824219 0 31.859375-14.613281 31.859375-32.4375v-376.253906c.09375-8.519532-3.21875-16.726563-9.199219-22.792969-5.984375-6.066406-14.140625-9.492187-22.660156-9.515625h-17.140625v-16.5625c.039062-17.847656-14.375-32.3554688-32.21875-32.4375zm21.21875 407.679688c0 11.222656-9.097656 20.320312-20.320312 20.320312h-291.359376c-11.222656 0-20.320312-9.097656-20.320312-20.320312v-375.359376c0-11.222656 9.097656-20.320312 20.320312-20.320312h291.359376c11.222656 0 20.320312 9.097656 20.320312 20.320312zm28.140625-346.679688c11.207031 0 19.859375 9.101562 19.859375 20.308594v376.253906c0 11.207031-8.652344 20.4375-19.859375 20.4375h-291.410156c-11.199219 0-20.730469-9.230469-20.730469-20.4375v-16.5625h262.78125c17.820312 0 32.21875-14.972656 32.21875-32.796875v-347.203125zm0 0"/></svg>