<svg height="485pt" viewBox="0 -134 485.95899 485" width="485pt" xmlns="http://www.w3.org/2000/svg"><path d="m478.960938.480469h-379c-3.867188 0-7 3.132812-7 7 0 3.863281 3.132812 7 7 7h167v22h-16.613282c-11.824218.097656-22.539062 6.984375-27.539062 17.699219l-14.5 31.089843-126.25 17.878907-47.605469-51.621094c-1.351563-1.386719-3.226563-2.128906-5.15625-2.046875h-22.289063c-2.253906-.09375-4.40625.953125-5.730468 2.78125-1.324219 1.832031-1.640625 4.203125-.847656 6.316406l19.457031 53.449219-4.925781.671875c-3.445313.480469-6.007813 3.429687-6 6.90625v21.925781c-.011719 3.261719 2.238281 6.09375 5.417968 6.824219l273.886719 62.800781c15.480469 3.539062 31.3125 5.328125 47.195313 5.324219h87.210937c33.347656-.039063 60.34375-27.113281 60.289063-60.460938v-21.925781c.035156-1.21875-.253907-2.425781-.835938-3.5l-17.300781-29.90625c-11.222657-19.34375-31.910157-31.238281-54.273438-31.207031h-54.238281l-13.402344-19.613281c-5.644531-8.257813-14.957031-13.253907-24.960937-13.386719h-6.988281v-22h168c3.863281 0 7-3.136719 7-7 0-3.867188-3.136719-7-7-7zm-461.957032 63h9.21875l39.011719 42.285156-31.179687 4.5zm405.667969 139h-87.210937c-14.828126 0-29.609376-1.667969-44.058594-4.976563l-268.441406-61.550781v-10.265625l294.421874-41.4375c4.40625-.566406 8.84375-.824219 13.289063-.769531h33.289063v17.183593c.132812 9.882813 3.796874 19.394532 10.324218 26.816407h-114.238281c-3.867187 0-7 3.132812-7 7 0 3.863281 3.132813 7 7 7h208.914063v14.539062c.03125 12.300781-4.832032 24.109375-13.511719 32.824219-8.683594 8.714844-20.476563 13.621094-32.777344 13.636719zm30.078125-94.601563 11.292969 19.601563h-59.199219c-14.753906-.164063-26.6875-12.0625-26.882812-26.816407v-17.183593h32.589843c17.40625.039062 33.480469 9.332031 42.199219 24.398437zm-121.335938-50.019531 7.84375 11.621094h-8.585937c-5.105469-.054688-10.207031.246093-15.265625.90625l-90.546875 12.710937 10.632813-22.949218c2.6875-5.808594 8.457031-9.5625 14.855468-9.667969h67.597656c5.421876.132812 10.441407 2.882812 13.46875 7.378906zm-34.453124-21.378906h-16v-22h16zm0 0"/></svg>