<svg height="458pt" viewBox="-80 0 458 458.03005" width="458pt" xmlns="http://www.w3.org/2000/svg"><path d="m230.59375 159.214844c-1.574219-1.175782-2.949219-2.601563-4.070312-4.214844h.035156c1.519531.089844 3.007812-.460938 4.105468-1.519531 1.097657-1.054688 1.703126-2.523438 1.671876-4.046875v-40.550782c.046874-1.554687-.546876-3.0625-1.636719-4.171874-1.089844-1.109376-2.585938-1.730469-4.140625-1.710938h-10.230469l13.972656-74.339844c.484375-2.53125-.699219-5.089844-2.941406-6.359375s-5.046875-.96875-6.96875.75l-37.765625 33.976563-33.574219-54.210938c-1.097656-1.757812-3.027343-2.8242185-5.101562-2.816406h-.070313c-2.101562.00390625-4.042968 1.121094-5.101562 2.9375l-27.992188 47.699219-32.632812-27.710938c-1.9375-1.648437-4.703125-1.894531-6.898438-.617187-2.203125 1.300781-3.355468 3.839844-2.882812 6.355468l13.964844 74.335938h-10.222657c-1.554687-.019531-3.050781.601562-4.144531 1.710938-1.089844 1.109374-1.679688 2.617187-1.632812 4.171874v40.550782c-.035157 1.523437.570312 2.992187 1.667968 4.046875 1.097656 1.058593 2.589844 1.609375 4.109375 1.519531h.03125c-1.117187 1.613281-2.492187 3.039062-4.066406 4.214844-41.347656 36.199218-68.0625 96.867187-68.0625 154.390625 0 43.71875 15.195313 80.679687 43.945313 106.78125 26.714843 24.257812 64.136718 37.644531 105.375 37.644531 41.234374 0 78.65625-13.347656 105.375-37.601562 28.75-26.101563 43.945312-63.109376 43.945312-106.828126 0-57.527343-26.722656-118.1875-68.0625-154.386718zm-147.300781-116.128906 25.164062 21.335937c1.355469 1.140625 3.144531 1.628906 4.894531 1.328125 1.746094-.300781 3.269532-1.359375 4.164063-2.886719l26.570313-45.292969 32.113281 51.875c.9375 1.511719 2.496093 2.527344 4.253906 2.777344 1.761719.253906 3.539063-.289062 4.863281-1.480468l29.910156-26.859376-11.109374 59.117188h-109.566407zm-4.957031 71.914062h142v28h-142zm168.308593 296.558594c-24.5 22.246094-59.0625 34.5-97.308593 34.5-38.246094 0-72.808594-12.253906-97.3125-34.5-26.171876-23.765625-40.007813-57.601563-40.007813-97.84375 0-54.21875 25.105469-111.449219 63.964844-145.472656 4.386719-3.835938 8.183593-8.296876 11.269531-13.242188h124.171875c3.085937 4.945312 6.882813 9.40625 11.265625 13.242188 38.859375 34.023437 63.96875 91.148437 63.96875 145.363281 0 40.246093-13.835938 74.1875-40.011719 97.953125zm0 0"/><path d="m149.335938 243.164062c14.921874.015626 27.011718 12.109376 27.027343 27.027344 0 3.316406 2.6875 6 6 6s6-2.683594 6-6c-.023437-19.226562-14.03125-35.582031-33.027343-38.566406v-12.625c0-3.3125-2.6875-6-6-6-3.316407 0-6 2.6875-6 6v12.625c-20.160157 3.125-34.511719 21.242188-32.941407 41.578125 1.574219 20.339844 18.542969 36.035156 38.941407 36.023437 14.925781 0 27.027343 12.101563 27.027343 27.027344 0 14.929688-12.101562 27.03125-27.027343 27.03125-14.929688 0-27.03125-12.101562-27.03125-27.03125 0-3.3125-2.683594-6-6-6-3.3125 0-6 2.6875-6 6 .027343 19.230469 14.035156 35.582032 33.03125 38.5625v14.183594c0 3.3125 2.683593 6 6 6 3.3125 0 6-2.6875 6-6v-14.183594c20.15625-3.121094 34.511718-21.238281 32.9375-41.578125-1.570313-20.335937-18.539063-36.035156-38.9375-36.019531-14.929688 0-27.03125-12.101562-27.03125-27.03125 0-14.925781 12.101562-27.027344 27.03125-27.027344zm0 0"/></svg>