<?xml version="1.0"?>
<svg xmlns="http://www.w3.org/2000/svg" id="Layer_1" data-name="Layer 1" viewBox="0 0 512 512" width="512" height="512"><title>Calendar</title><path d="M477.459,56H401V31.561a6,6,0,1,0-12,0V56H123V31.561a6,6,0,0,0-12,0V56H34.541C31.228,56,29,59.125,29,62.439v418A5.263,5.263,0,0,0,34.541,486H359.984a5.809,5.809,0,0,0,4.1-1.4l117.245-109.7A5.558,5.558,0,0,0,483,370.632V62.439C483,59.125,480.772,56,477.459,56ZM111,68v34.368a6,6,0,0,0,12,0V68H389v34.368a6,6,0,0,0,12,0V68h70v78H41V68ZM41,158H471V365H388.108A36.162,36.162,0,0,0,352,401.033V474H41ZM461.824,377,364,468.371V401.033A24.148,24.148,0,0,1,388.108,377Z"/><path d="M349,264.144l34-13.221v41.391a23.308,23.308,0,1,0,12-.1V243.3a5.888,5.888,0,0,0-.041-.654c.016-.183.038-.365.036-.552a6,6,0,0,0-3.931-5.575l-141.744-52.1a6,6,0,0,0-4.141,0l-141.744,52.1a6,6,0,0,0-3.93,5.575,5.793,5.793,0,0,0,3.586,5.648L145,264.145V368.324a6.225,6.225,0,0,0,4.143,5.622,280.776,280.776,0,0,0,195.9,0A6.044,6.044,0,0,0,349,368.324ZM400.5,314.8a11.322,11.322,0,1,1-11.322-11.322A11.335,11.335,0,0,1,400.5,314.8ZM247.249,196.442,372.038,242.31l-30.707,11.951a5.956,5.956,0,0,0-.913.355l-93.169,36.261-93.164-36.259a6.078,6.078,0,0,0-.919-.358L122.46,242.31Zm-2.414,106.465a6.646,6.646,0,0,0,2.295.408,6.258,6.258,0,0,0,2.224-.408L337,268.815V318.2c-58,20.62-121,20.619-180,0V268.815ZM157,364.122V330.9a285.7,285.7,0,0,0,90,14.781A281.124,281.124,0,0,0,337,330.9v33.223C279,384.742,216,384.742,157,364.122Z"/></svg>
