<?xml version="1.0"?>
<svg xmlns="http://www.w3.org/2000/svg" id="Layer_1" data-name="Layer 1" viewBox="0 0 512 512" width="512" height="512"><title>Phone</title><path d="M357.923,75H204V23a8,8,0,0,0-16,0V75H154.077C132.773,75,115,92.264,115,113.568V458.3c0,21.3,17.773,38.7,39.077,38.7H357.923c21.3,0,39.077-17.4,39.077-38.7V113.568C397,92.264,379.227,75,357.923,75ZM380,458.364A22.635,22.635,0,0,1,357.364,481H153.636A22.635,22.635,0,0,1,131,458.364V113.636A22.635,22.635,0,0,1,153.636,91H357.364A22.635,22.635,0,0,1,380,113.636Z"/><path d="M351,143a8,8,0,0,0-8-8H168a8,8,0,0,0-8,8v99a8,8,0,0,0,8,8H343a8,8,0,0,0,8-8Zm-175,8H336v83H176Z"/><path d="M288,293a8,8,0,0,0-8-8H231a8,8,0,0,0-8,8v29a8,8,0,0,0,8,8h49a8,8,0,0,0,8-8Zm-15,21H239V301h34Z"/><path d="M216,293a8,8,0,0,0-8-8H159a8,8,0,0,0-8,8v29a8,8,0,0,0,8,8h49a8,8,0,0,0,8-8Zm-16,21H167V301h33Z"/><path d="M361,293a8,8,0,0,0-8-8H304a8,8,0,0,0-8,8v29a8,8,0,0,0,8,8h49a8,8,0,0,0,8-8Zm-16,21H312V301h33Z"/><path d="M288,349a8,8,0,0,0-8-8H231a8,8,0,0,0-8,8v29a8,8,0,0,0,8,8h49a8,8,0,0,0,8-8Zm-15,21H239V357h34Z"/><path d="M216,349a8,8,0,0,0-8-8H159a8,8,0,0,0-8,8v29a8,8,0,0,0,8,8h49a8,8,0,0,0,8-8Zm-16,21H167V357h33Z"/><path d="M361,349a8,8,0,0,0-8-8H304a8,8,0,0,0-8,8v29a8,8,0,0,0,8,8h49a8,8,0,0,0,8-8Zm-16,21H312V357h33Z"/><path d="M288,405a8,8,0,0,0-8-8H231a8,8,0,0,0-8,8v29a8,8,0,0,0,8,8h49a8,8,0,0,0,8-8Zm-15,21H239V413h34Z"/><path d="M216,405a8,8,0,0,0-8-8H159a8,8,0,0,0-8,8v29a8,8,0,0,0,8,8h49a8,8,0,0,0,8-8Zm-16,21H167V413h33Z"/><path d="M361,405a8,8,0,0,0-8-8H304a8,8,0,0,0-8,8v29a8,8,0,0,0,8,8h49a8,8,0,0,0,8-8Zm-16,21H312V413h33Z"/></svg>
