<?xml version="1.0"?>
<svg xmlns="http://www.w3.org/2000/svg" id="Layer_1" data-name="Layer 1" viewBox="0 0 512 512" width="512" height="512"><title>Hourglass</title><path d="M101,396.777V491H95.491a6,6,0,1,0,0,12H329.6a6,6,0,1,0,0-12H324V396.307c0-48.558-31.564-89.863-75.071-104.845A111.255,111.255,0,0,0,323.556,195c1.9.116,3.809.182,5.739.182A93.13,93.13,0,1,0,238.775,80H95.491a6,6,0,1,0,0,12H101v94.585a111.461,111.461,0,0,0,75.09,104.862A111.362,111.362,0,0,0,101,396.777ZM329.287,20.74a81.222,81.222,0,1,1-81.222,81.222A81.314,81.314,0,0,1,329.287,20.74ZM113,186.533V92H236.641a85.334,85.334,0,0,0-.576,10.146,93.275,93.275,0,0,0,75.559,91.443A98.657,98.657,0,0,1,212.986,285h-.674A98.907,98.907,0,0,1,113,186.533ZM212.11,297h.67c54.545,0,99.22,44.761,99.22,99.32V491H113V396.764A99.315,99.315,0,0,1,141.982,326.4C160.659,307.643,185.633,298,212.11,297Z"/><path d="M329.287,144.025A16.607,16.607,0,0,1,312.7,127.437a6,6,0,0,0-12,0A28.637,28.637,0,0,0,321,154.8V163a6,6,0,0,0,12,0v-7.224a28.584,28.584,0,0,0-3.713-56.927,16.588,16.588,0,1,1,16.588-16.588,6,6,0,0,0,12,0A28.63,28.63,0,0,0,334,54.068V48a6,6,0,0,0-12,0v6.617a28.588,28.588,0,0,0,7.287,56.232,16.588,16.588,0,1,1,0,33.176Z"/></svg>
