<svg height="485pt" viewBox="-128 0 485 485.90074" width="485pt" xmlns="http://www.w3.org/2000/svg"><path d="m225.753906 27.460938-30.726562-25.605469c-3.394532-2.828125-8.4375-2.371094-11.265625 1.023437l-46.632813 56.066406c-22.417968 26.976563-34.6875 60.949219-34.675781 96.027344v38.929688h-14.183594c-2.5625-.019532-4.980469 1.199218-6.488281 3.269531l-68.585938 95.265625c-8.339843 11.5625-12.804687 25.476562-12.742187 39.734375v145.628906c-.046875 2.113281.753906 4.15625 2.222656 5.675781 1.46875 1.523438 3.480469 2.394532 5.59375 2.425782h150c15.511719-.050782 28.089844-12.589844 28.183594-28.101563v-256c-.097656-4.433593-3.75-7.960937-8.183594-7.898437h-19.816406v-38.929688c-.015625-21.976562 7.660156-43.265625 21.699219-60.171875l46.679687-56.066406c1.351563-1.636719 2-3.746094 1.796875-5.859375-.203125-2.117188-1.238281-4.0625-2.875-5.414062zm-67.484375 442.441406h-91.015625l15.875-137.382813c1.457032-12.527343 10.835938-22.683593 23.210938-25.128906l64.113281-12.828125v15.023438l-49.847656 36.785156c-2.433594 1.78125-3.664063 4.78125-3.179688 7.761718l14.976563 89c.734375 4.351563 4.859375 7.28125 9.210937 6.546876 4.351563-.734376 7.28125-4.855469 6.550781-9.207032l-14.097656-84.15625 36.386719-26.832031v128.316406c-.085937 6.679688-5.503906 12.0625-12.183594 12.101563zm12.183594-191.660156-67.253906 13.433593c-19.179688 3.8125-33.703125 19.578125-35.921875 39.007813l-16.136719 139.21875h-34.6875v-137.730469c-.054687-10.894531 3.351563-21.519531 9.722656-30.355469l66.191407-91.914062h78.085937zm-2.601563-193.691407c-16.429687 19.789063-25.417968 44.703125-25.398437 70.421875v38.929688h-24v-38.929688c-.011719-31.332031 10.941406-61.683594 30.96875-85.785156l41.554687-49.921875 18.457032 15.363281zm0 0"/></svg>