<?xml version="1.0" encoding="iso-8859-1"?>
<!-- Generator: Adobe Illustrator 19.0.0, SVG Export Plug-In . SVG Version: 6.00 Build 0)  -->
<svg version="1.1" id="Capa_1" xmlns="http://www.w3.org/2000/svg" xmlns:xlink="http://www.w3.org/1999/xlink" x="0px" y="0px"
	 viewBox="0 0 512 512" style="enable-background:new 0 0 512 512;" xml:space="preserve">
<g>
	<g>
		<path d="M274.067,0h-45.585c-9.212,0-16.677,7.466-16.677,16.678c0,9.212,7.466,16.677,16.677,16.677h28.908v60.039
			c0,52.723-42.895,95.618-95.618,95.618s-95.618-42.895-95.618-95.618V33.355h28.908c9.212,0,16.677-7.466,16.677-16.677
			C111.739,7.466,104.273,0,95.062,0H49.477c-9.212,0-16.678,7.466-16.678,16.678v76.717c0,71.113,57.86,128.973,128.973,128.973
			c71.119,0,128.973-57.86,128.973-128.973V16.678C290.745,7.466,283.279,0,274.067,0z"/>
	</g>
</g>
<g>
	<g>
		<path d="M356.893,190.685c-44.134,0-80.047,35.912-80.047,80.052v72.269c0,25.745-20.947,46.692-46.697,46.692h-5.003
			c-25.75,0-46.697-20.702-46.697-46.141V206.245h-33.355v137.312c0,43.834,35.912,79.496,80.052,79.496h5.003
			c44.14,0,80.052-35.912,80.052-80.052v-72.269c0-25.75,20.947-46.697,46.692-46.697s46.697,20.947,46.697,46.697v138.423h33.355
			V270.737C436.946,226.597,401.033,190.685,356.893,190.685z"/>
	</g>
</g>
<g>
	<g>
		<path d="M419.162,391.922c-33.105,0-60.039,26.934-60.039,60.039c0,33.105,26.934,60.039,60.039,60.039
			s60.039-26.934,60.039-60.039C479.201,418.856,452.267,391.922,419.162,391.922z M419.162,478.645
			c-14.715,0-26.684-11.969-26.684-26.684s11.974-26.684,26.684-26.684c14.71,0,26.684,11.969,26.684,26.684
			S433.877,478.645,419.162,478.645z"/>
	</g>
</g>
<g>
</g>
<g>
</g>
<g>
</g>
<g>
</g>
<g>
</g>
<g>
</g>
<g>
</g>
<g>
</g>
<g>
</g>
<g>
</g>
<g>
</g>
<g>
</g>
<g>
</g>
<g>
</g>
<g>
</g>
</svg>
