<?xml version="1.0"?>
<svg xmlns="http://www.w3.org/2000/svg" id="Layer_1" data-name="Layer 1" viewBox="0 0 512 512" width="512" height="512"><title>Report</title><path d="M360.7,431H151.3a8,8,0,1,0,0,16H360.7a8,8,0,0,0,0-16Z"/><path d="M151.3,415h98.854a8,8,0,1,0,0-16H151.3a8,8,0,1,0,0,16Z"/><path d="M438,68H314V65.942c0-4.419-3.948-7.942-8.366-7.942H284.873a33.345,33.345,0,0,0,5.342-18.351,34.215,34.215,0,1,0-68.43.007A33.319,33.319,0,0,0,227.127,58H206.366C201.948,58,198,61.523,198,65.942V68H74a7.725,7.725,0,0,0-8,7.67V498.6c0,4.418,3.582,8.4,8,8.4H438c4.418,0,8-3.987,8-8.4V75.67A7.725,7.725,0,0,0,438,68ZM256,21.405A18.215,18.215,0,1,1,237.785,39.62,18.235,18.235,0,0,1,256,21.405ZM214,74h84v37H214Zm91.634,53c4.418,0,8.366-3.421,8.366-7.839V111h88V461H110V111h88v8.161c0,4.418,3.948,7.839,8.366,7.839ZM430,491H82V84H198V95H102.383C97.965,95,94,98.509,94,102.927v366.2c0,4.419,3.965,7.873,8.383,7.873H409.617c4.418,0,8.383-3.454,8.383-7.873v-366.2c0-4.418-3.965-7.927-8.383-7.927H314V84H430Z"/><path d="M189.862,156.413a21.2,21.2,0,0,0,1.62,8.132l-35.325,35.166A21.3,21.3,0,1,0,140,239.135v49.727a21.29,21.29,0,0,0,8.02,41.021,21.171,21.171,0,0,0,7.986-1.567l35.566,35.574a21.3,21.3,0,1,0,39.8,15.11h48.774a21.3,21.3,0,1,0,39.725-15.267l35.184-35.395A21.3,21.3,0,0,0,371,288.837v-49.7a21.3,21.3,0,1,0-16.1-39.444l-34.944-34.937A21.3,21.3,0,1,0,280.388,149H231.131a21.3,21.3,0,0,0-41.269,7.413Zm40.8,8.587h50.189a21.293,21.293,0,0,0,27.769,11.051l34.835,34.828A21.266,21.266,0,0,0,355,239.149v49.674a21.25,21.25,0,0,0-11.472,28.414l-35.09,35.3A21.247,21.247,0,0,0,281.17,363H230.349a21.275,21.275,0,0,0-27.44-10.4L167.5,317.182A21.254,21.254,0,0,0,156,288.823V239.149a21.269,21.269,0,0,0,11.566-28.218L202.7,175.957A21.268,21.268,0,0,0,230.665,165ZM148.02,214.088a5.313,5.313,0,1,1-5.313,5.313A5.319,5.319,0,0,1,148.02,214.088Zm-5.313,94.482a5.333,5.333,0,0,1,5.181-5.311h.132a5.313,5.313,0,1,1-5.313,5.312Zm68.468,68.987a5.313,5.313,0,1,1,5.312-5.313A5.319,5.319,0,0,1,211.175,377.557Zm89.169,0a5.313,5.313,0,1,1,5.312-5.313A5.319,5.319,0,0,1,300.344,377.557Zm62.636-63.674a5.313,5.313,0,1,1,5.313-5.313A5.318,5.318,0,0,1,362.98,313.883Zm5.313-94.482a5.313,5.313,0,1,1-5.313-5.313A5.319,5.319,0,0,1,368.293,219.4Zm-67.949-68.3a5.313,5.313,0,1,1-5.313,5.313A5.318,5.318,0,0,1,300.344,151.1Zm-89.169,0a5.313,5.313,0,1,1-5.313,5.313A5.318,5.318,0,0,1,211.175,151.1Z"/></svg>
