<svg height="488pt" viewBox="-22 0 488 488.37174" width="488pt" xmlns="http://www.w3.org/2000/svg"><path d="m385.511719 286.0625-58.269531 43.574219c-12.117188-14.746094-31.226563-21.835938-50.03125-18.5625l-59.5625 10.417969c-9.492188 1.648437-19.234376 1.140624-28.5-1.484376l-6.660157-1.902343c-34.234375-9.832031-71.113281-2.175781-98.601562 20.46875l-2.507813-14.34375c-.761718-4.351563-4.910156-7.261719-9.261718-6.5l-65.3125 11.429687c-4.351563.761719-7.261719 4.90625-6.5 9.257813l25.074218 143.335937c.761719 4.351563 4.90625 7.257813 9.257813 6.5l65.316406-11.429687c4.351563-.761719 7.261719-4.90625 6.5-9.257813l-1.277344-7.292968 15.238281-12.371094c5.96875-4.96875 13.632813-7.421875 21.378907-6.839844l106.515625 7.785156c.175781.011719.355468.019532.53125.019532h.652344c23.507812-.046876 46.390624-7.539063 65.375-21.398438.304687-.222656.59375-.46875.863281-.734375l126.875-124.222656c3.023437-2.960938 3.21875-7.765625.441406-10.960938-14.636719-16.898437-39.96875-19.3125-57.535156-5.488281zm-345.753907 185.050781-22.3125-127.574219 49.554688-8.667968 22.316406 127.574218zm265.195313-56.109375c-16.140625 11.679688-35.535156 18.003906-55.457031 18.085938h-.300782l-106.242187-7.875c-11.828125-.910156-23.546875 2.808594-32.6875 10.375l-8.242187 6.664062-14.871094-85.03125c23.714844-23.921875 58.582031-33.011718 90.957031-23.71875l6.664063 1.894532c11.585937 3.28125 23.765624 3.914062 35.632812 1.855468l59.5625-10.421875c17.066406-2.964843 33.910156 6.304688 40.535156 22.308594l-89.171875 15.601563c-4.089843.710937-6.957031 4.429687-6.601562 8.566406.355469 4.136718 3.820312 7.3125 7.972656 7.3125.464844 0 .929687-.039063 1.386719-.117188l97.914062-17.128906c4.351563-.761719 7.261719-4.910156 6.5-9.261719-.640625-3.644531-1.65625-7.214843-3.039062-10.648437l59.707031-44.648438c.058594-.039062.113281-.082031.167969-.125 8.632812-6.808594 20.625-7.421875 29.90625-1.523437zm0 0"/><path d="m71.898438 253.089844h160.519531c4.515625-.144532 8.121093-3.816406 8.179687-8.335938v-62.652344c.660156.113282 1.328125.179688 2 .199219.667969-.019531 1.335938-.085937 2-.199219v62.652344c.058594 4.519532 3.664063 8.191406 8.179688 8.335938h160.519531c4.539063-.136719 8.183594-3.796875 8.300781-8.335938v-138.339844c0-38.953124-31.992187-70.324218-70.941406-70.324218h-13.25c-9.410156-22-28.625-35.664063-51.96875-35.664063-13.722656 0-28.414062 4.851563-42.777344 14.226563-14.539062-9.804688-29.03125-14.652344-43.148437-14.652344-23.515625 0-42.714844 13.089844-51.914063 36.089844h-13.058594c-38.953124 0-70.941406 31.371094-70.941406 70.324218v138.339844c.113282 4.539063 3.757813 8.199219 8.300782 8.335938zm333.699218-146.675782v130.675782h-17v-82.207032c0-4.421874-3.582031-8-8-8-4.417968 0-8 3.578126-8 8v82.207032h-16v-66.550782c0-4.417968-3.582031-8-8-8-4.417968 0-8 3.582032-8 8v66.550782h-15v-50.886719c0-4.417969-3.582031-8-8-8-4.417968 0-8 3.582031-8 8v50.886719h-15v-35.226563c0-4.417969-3.582031-8-8-8-4.417968 0-8 3.582031-8 8v35.226563h-18v-61.519532c66-31.578124 88.699219-83.480468 81.589844-123.480468h8.46875c30.128906 0 54.941406 24.199218 54.941406 54.324218zm-246.660156-52.878906c4.414062-23.273437 19.964844-37.730468 40.574219-37.730468 11.949219 0 25.191406 5.167968 38.300781 14.941406 2.808594 2.09375 6.648438 2.121094 9.484375.0625 13.105469-9.511719 26.296875-14.539063 38.144531-14.539063 20.523438 0 36.164063 14.300781 40.820313 37.328125 9.714843 50.144532-34.914063 92.574219-83.671875 112.546875-67.515625-27.03125-90.679688-75.976562-83.652344-112.609375zm-79.339844 52.878906c0-30.125 24.8125-54.324218 54.941406-54.324218h8.460938c-7.121094 40 15.601562 92.5 81.601562 123.582031v61.417969h-18.003906v-35.226563c0-4.417969-3.582031-8-8-8-4.417968 0-8 3.582031-8 8v35.226563h-15v-50.886719c0-4.417969-3.582031-8-8-8-4.417968 0-8 3.582031-8 8v50.886719h-15v-66.550782c0-4.417968-3.582031-8-8-8-4.417968 0-8 3.582032-8 8v66.550782h-16v-82.207032c0-4.421874-3.582031-8-8-8-4.417968 0-8 3.578126-8 8v82.207032h-17zm0 0"/></svg>