<svg height="468pt" viewBox="0 -21 468 468" width="468pt" xmlns="http://www.w3.org/2000/svg"><path d="m234 142.410156c7.273438.007813 13.164062 5.902344 13.171875 13.175782 0 3.3125 2.6875 6 6 6 3.316406 0 6-2.6875 6-6-.015625-11.972657-8.445313-22.28125-20.171875-24.675782v-6.910156c0-3.3125-2.6875-6-6-6s-6 2.6875-6 6v7.410156c-12.042969 3.484375-19.683594 15.300782-17.925781 27.710938 1.761719 12.414062 12.390625 21.636718 24.925781 21.636718 7.273438 0 13.171875 5.898438 13.171875 13.171876 0 7.277343-5.898437 13.171874-13.171875 13.171874s-13.171875-5.894531-13.171875-13.171874c0-3.3125-2.6875-6-6-6-3.316406 0-6 2.6875-6 6 .015625 11.199218 7.417969 21.046874 18.171875 24.175781v6.894531c0 3.3125 2.6875 6 6 6s6-2.6875 6-6v-6.398438c12.671875-2.570312 21.339844-14.320312 20.050781-27.1875-1.292969-12.863281-12.121093-22.660156-25.050781-22.660156-4.734375.042969-9.125-2.460937-11.503906-6.550781-2.378906-4.09375-2.378906-9.148437 0-13.238281 2.378906-4.09375 6.769531-6.597656 11.503906-6.554688zm0 0"/><path d="m427.191406 65h-98.191406v-22.9375c0-23.433594-18.542969-42.0625-41.046875-42.0625h-107.90625c-22.503906 0-41.046875 18.628906-41.046875 42.0625v22.9375h-98.191406c-22.5 0-40.808594 18.71875-40.808594 42.152344v276.785156c0 23.433594 18.308594 42.0625 40.808594 42.0625h386.382812c22.5 0 40.808594-18.628906 40.808594-42.0625v-276.785156c0-23.433594-18.308594-42.152344-40.808594-42.152344zm-276.191406-22.9375c0-16.816406 13.160156-30.0625 29.046875-30.0625h107.90625c15.886719 0 29.046875 13.246094 29.046875 30.0625v22.9375h-166zm276.191406 371.9375h-386.382812c-15.882813 0-28.808594-13.246094-28.808594-30.0625v-91.59375c7.476562 7.96875 17.882812 12.539062 28.808594 12.65625h136.191406v20.613281c0 3.3125 2.191406 6.386719 5.5 6.386719h103c3.3125 0 5.5-3.074219 5.5-6.386719v-20.613281h136.191406c10.925782-.117188 21.332032-4.6875 28.808594-12.65625v91.59375c0 16.816406-12.925781 30.0625-28.808594 30.0625zm-238.191406-94v-34h90v34zm267-57.726562c0 16.816406-12.925781 30.726562-28.808594 30.726562h-136.191406v-13.160156c0-3.3125-2.191406-5.839844-5.5-5.839844h-103c-3.3125 0-5.5 2.527344-5.5 5.839844v13.160156h-136.191406c-15.882813 0-28.808594-13.910156-28.808594-30.726562v-155.121094c0-16.816406 12.925781-30.152344 28.808594-30.152344h386.382812c15.882813 0 28.808594 13.335938 28.808594 30.152344zm0 0"/><path d="m234 90c-45.5625 0-82.5 36.9375-82.5 82.5s36.9375 82.5 82.5 82.5 82.5-36.9375 82.5-82.5c-.050781-45.542969-36.957031-82.449219-82.5-82.5zm0 153c-38.9375 0-70.5-31.5625-70.5-70.5s31.5625-70.5 70.5-70.5 70.5 31.5625 70.5 70.5c-.042969 38.917969-31.582031 70.457031-70.5 70.5zm0 0"/></svg>