<svg height="457pt" viewBox="0 0 457 457.17685" width="457pt" xmlns="http://www.w3.org/2000/svg"><path d="m289.160156 233.988281c-.003906-33.457031-27.125-60.578125-60.585937-60.578125-33.457031 0-60.578125 27.125-60.578125 60.582032 0 33.460937 27.121094 60.582031 60.582031 60.582031 33.441406-.039063 60.542969-27.140625 60.582031-60.585938zm-60.582031 44.585938c-24.621094 0-44.582031-19.957031-44.582031-44.582031 0-24.621094 19.957031-44.582032 44.578125-44.582032 24.621093 0 44.582031 19.957032 44.585937 44.578125-.027344 24.613281-19.972656 44.558594-44.582031 44.585938zm0 0"/><path d="m207.824219 305.804688-5.988281-2.253907c-33.277344-12.472656-53.070313-46.753906-47.246094-81.808593l1.050781-6.300782c.398437-2.402344-.316406-4.855468-1.945313-6.664062-1.628906-1.8125-3.996093-2.78125-6.425781-2.632813l-99.234375 5.957031c-4.058594.242188-7.289062 3.492188-7.507812 7.554688l-.246094 4.550781c-.164062 3.089844-.25 6.382813-.25 9.789063-.117188 70.628906 39.511719 135.316406 102.492188 167.289062l4.0625 2.082032c3.628906 1.859374 8.074218.691406 10.324218-2.710938l54.773438-82.953125c1.34375-2.03125 1.6875-4.566406.9375-6.878906-.753906-2.316407-2.519532-4.164063-4.796875-5.023438zm-60.308594 80.039062c-56.355469-29.675781-91.589844-88.164062-91.484375-151.855469 0-2.183593.039062-4.3125.113281-6.351562l82.140625-4.929688c-5.027344 40.160157 17.269532 78.761719 54.5625 94.480469zm0 0"/><path d="m303.460938 208.773438c-1.632813 1.8125-2.347657 4.265624-1.945313 6.667968l1.046875 6.300782c5.828125 35.058593-13.972656 69.335937-47.25 81.808593l-5.980469 2.25c-2.28125.855469-4.046875 2.703125-4.796875 5.019531-.75 2.316407-.40625 4.847657.9375 6.878907l54.773438 82.953125c2.246094 3.402344 6.695312 4.570312 10.324218 2.710937l4.058594-2.078125c62.980469-31.972656 102.613282-96.664062 102.492188-167.296875 0-3.398437-.082032-6.699219-.246094-9.792969l-.246094-4.546874c-.21875-4.058594-3.449218-7.308594-7.507812-7.554688l-99.234375-5.957031c-2.429688-.132813-4.792969.835937-6.425781 2.636719zm97.550781 18.867187c.074219 2.042969.109375 4.167969.109375 6.351563.105468 63.6875-35.132813 122.175781-91.480469 151.851562l-45.335937-68.652344c37.296874-15.71875 59.589843-54.320312 54.566406-94.480468zm0 0"/><path d="m164.195312 178.191406c1.089844 2.179688 3.113282 3.742188 5.496094 4.246094 2.386719.507812 4.871094-.105469 6.75-1.65625l4.9375-4.074219c12.8125-10.582031 29.574219-16.410156 47.199219-16.410156s34.386719 5.828125 47.199219 16.414063l4.933594 4.070312c1.882812 1.550781 4.367187 2.164062 6.75 1.65625 2.382812-.503906 4.410156-2.066406 5.5-4.246094l44.453124-88.925781c1.816407-3.632813.617188-8.054687-2.785156-10.277344l-3.816406-2.488281c-29.890625-19.472656-65.246094-29.765625-102.234375-29.765625-36.992187 0-72.34375 10.292969-102.246094 29.773437l-3.808593 2.484376c-3.402344 2.21875-4.597657 6.640624-2.78125 10.273437zm64.382813-115.457031c32.984375 0 64.5 8.90625 91.324219 25.777344l-36.796875 73.601562c-32.472657-23.757812-76.585938-23.757812-109.058594 0l-36.796875-73.601562c26.828125-16.871094 58.347656-25.777344 91.328125-25.777344zm0 0"/><path d="m228.578125 0c-92.417969 0-175.730469 55.671875-211.097656 141.050781-35.363281 85.378907-15.816407 183.65625 49.53125 249.003907 57.699219 57.839843 141.886719 80.472656 220.8125 59.359374 78.921875-21.113281 140.566406-82.757812 161.679687-161.679687 21.113282-78.921875-1.519531-163.113281-59.359375-220.808594-42.757812-42.992187-100.933593-67.089843-161.566406-66.925781zm0 440.980469c-117.167969 0-212.488281-95.324219-212.488281-212.492188 0-117.164062 95.320312-212.488281 212.488281-212.488281s212.488281 95.324219 212.488281 212.488281c0 117.167969-95.320312 212.492188-212.488281 212.492188zm0 0"/></svg>