<svg height="473pt" viewBox="0 -34 473.80503 473" width="473pt" xmlns="http://www.w3.org/2000/svg"><path d="m8.199219 241.40625h3.800781v154.960938c.109375 4.472656 3.765625 8.039062 8.238281 8.039062h263.84375c.171875 0 .34375-.035156.511719-.046875l50.855469-.15625c.789062.191406 1.605469.257813 2.417969.203125h60.332031c.789062.054688 1.585937-.007812 2.355469-.1875l54.90625.1875c2.113281.015625 4.148437-.816406 5.648437-2.304688 1.5-1.488281 2.347656-3.515624 2.351563-5.628906l.058593-155.066406h2.273438c4.429687-.03125 8.003906-3.632812 8-8.0625l.011719-30.6875c.011718-4.441406-3.558594-8.058594-8-8.101562l-169.691407-.148438h-4.113281v-148h4.125c2.074219.070312 4.085938-.707031 5.574219-2.15625 1.484375-1.449219 2.316406-3.4375 2.300781-5.511719v-30.65625c.015625-2.074219-.816406-4.066406-2.300781-5.515625-1.488281-1.449218-3.5-2.230468-5.574219-2.160156h-287.925781c-4.421875 0-8.199219 3.257812-8.199219 7.675781v30.65625c0 4.417969 3.777344 7.667969 8.199219 7.667969h3.800781v148h-3.800781c-4.492188.066406-8.121094 3.6875-8.199219 8.183594v30.652344c.078125 4.492187 3.710938 8.105468 8.199219 8.164062zm161.800781-47h-37v-81h37zm118.109375 16v15h-272.109375v-15zm-260.109375 31h248v147h-248zm362 146.96875-44-.015625v-60.953125h44zm57.367188.019531-41.367188-.015625v-69.183594c.035156-2.078124-.773438-4.082031-2.246094-5.550781-1.46875-1.46875-3.476562-2.277343-5.554687-2.238281h-60.332031c-2.085938-.042969-4.101563.761719-5.582032 2.230469-1.484375 1.46875-2.308594 3.472656-2.285156 5.558593v69.160157l-38-.011719v-146.9375h4.125c.199219 0 .398438-.097656.601562-.113281l150.75.015625zm10.367187-163.125-153.734375-.054687v-14.652344l153.707031.054688zm-441.734375-208.863281h272v14h-272zm12 30h248v148h-90v-88.957031c0-4.421875-3.152344-8.042969-7.570312-8.042969h-53.5c-2.117188.011719-4.144532.867188-5.632813 2.375s-2.3125 3.546875-2.296875 5.667969v88.957031h-89zm0 0"/><path d="m250 284.40625c0-4.417969-3.582031-8-8-8h-180c-4.417969 0-8 3.582031-8 8v66c0 4.417969 3.582031 8 8 8h180c4.417969 0 8-3.582031 8-8zm-16 58h-164v-50h164zm0 0"/><path d="m102 109.40625c0-4.417969-3.582031-8-8-8h-47c-4.417969 0-8 3.582031-8 8v38c0 4.417969 3.582031 8 8 8h47c4.417969 0 8-3.582031 8-8zm-16 30h-31v-22h31zm0 0"/><path d="m264 109.40625c0-4.417969-3.582031-8-8-8h-47c-4.417969 0-8 3.582031-8 8v38c0 4.417969 3.582031 8 8 8h47c4.417969 0 8-3.582031 8-8zm-47 8h32v22h-32zm0 0"/></svg>