<?xml version="1.0"?>
<svg xmlns="http://www.w3.org/2000/svg" id="Layer_1" data-name="Layer 1" viewBox="0 0 512 512" width="512" height="512"><title>Seo</title><path d="M487.268,10H24.732A7.776,7.776,0,0,0,17,18V76.484A7.375,7.375,0,0,0,24.732,84H35V382.579A8.532,8.532,0,0,0,43.189,391H156.265L88.407,489.684a7.815,7.815,0,0,0-.481,8.149A7.9,7.9,0,0,0,95,502h58.273a7.81,7.81,0,0,0,6.591-3.255L234.152,391h43.695l74.284,107.745A7.81,7.81,0,0,0,358.722,502H417a8,8,0,0,0,7.078-4.272,7.63,7.63,0,0,0-.481-8.044L355.734,391H468.81a8.533,8.533,0,0,0,8.19-8.421V84h10.268A7.375,7.375,0,0,0,495,76.484V18A7.776,7.776,0,0,0,487.268,10Zm-338.2,476H110.2l65.474-95h39.06ZM401.8,486H362.928L297.27,391h39.06ZM461,375H51V84H461ZM479,68H33V26H479Z"/><path d="M112.947,257.814A33.532,33.532,0,0,0,145.629,232H406.337l-16.858,18.286a8.1,8.1,0,0,0,.408,11.387,7.969,7.969,0,0,0,11.306-.347l29.369-31.562a7.994,7.994,0,0,0,0-10.892L401.193,187.3a8,8,0,0,0-11.306-.407,7.8,7.8,0,0,0-.408,11.144L406.337,216H145.629c-3.6-14-16.884-25.489-32.682-25.489a33.652,33.652,0,0,0,0,67.3Zm0-51.14A17.652,17.652,0,1,1,95.3,224.326,17.672,17.672,0,0,1,112.947,206.674Z"/><path d="M256,180.793a32.424,32.424,0,1,0-32.424-32.423A32.46,32.46,0,0,0,256,180.793Zm0-48.848a16.424,16.424,0,1,1-16.424,16.425A16.443,16.443,0,0,1,256,131.945Z"/><path d="M284.169,282.006a8,8,0,0,0-11.311-.266L256,297.825,239.142,281.74A8,8,0,1,0,228.1,293.316l16.314,15.566L228.1,324.447a8,8,0,1,0,11.045,11.576L256,319.939l16.858,16.084A8,8,0,1,0,283.9,324.447l-16.314-15.565L283.9,293.316A8,8,0,0,0,284.169,282.006Z"/></svg>
