<svg height="488pt" viewBox="-57 0 488 488.54511" width="488pt" xmlns="http://www.w3.org/2000/svg"><path d="m8.273438 195.539062h48.960937l116.054687 103h-73.605468c-2.042969-.066406-4.023438.722657-5.464844 2.171876-1.4375 1.449218-2.214844 3.433593-2.136719 5.476562v174.800781c-.074219 2.03125.707031 4.003907 2.148438 5.4375 1.445312 1.433594 3.417969 2.199219 5.453125 2.113281h174.800781c2.03125.085938 4.007813-.679687 5.449219-2.113281 1.445312-1.433593 2.222656-3.40625 2.148437-5.4375v-174.800781c.078125-2.042969-.695312-4.027344-2.136719-5.476562-1.441406-1.449219-3.417968-2.238282-5.460937-2.171876h-73.609375l116.054688-103h48.964843c4.417969 0 8-3.582031 8-8 .085938-99.371093-77.707031-181.386718-176.941406-186.550781-6.511719-1.316406-13.21875-1.316406-19.726563 0-99.242187 5.15625-177.039062 87.171875-176.953124 186.550781 0 4.417969 3.582031 8 8 8zm159.808593 119h38v23.699219l-16.574219-5.894531c-1.597656-.601562-3.363281-.601562-4.960937 0l-16.464844 5.894531zm98 158h-158v-158h44v34.988282c-.101562 2.5625 1.078125 5.007812 3.144531 6.519531 2.070313 1.515625 4.757813 1.902344 7.167969 1.027344l24.742188-8.699219 24.773437 8.699219c.84375.300781 1.734375.453125 2.632813.453125 1.589843 0 3.132812-.519532 4.402343-1.472656 2.054688-1.527344 3.226563-3.96875 3.136719-6.527344v-34.988282h44zm-79-183.511718-105.699219-93.488282h211.398438zm-8.964843-272.066406c2.972656-.152344 5.964843-.230469 8.964843-.234376 3.003907 0 5.992188.078126 8.96875.234376 36.613281 10.011718 66.265625 80.246093 67.867188 162.578124h-153.667969c1.601562-82.332031 31.25-152.566406 67.867188-162.578124zm179.59375 162.578124h-77.789063c-.824219-46.359374-9.828125-89.574218-25.574219-122.734374-6.53125-13.753907-13.964844-25.171876-22.074218-34.078126 71.367187 19.574219 122.011718 82.886719 125.4375 156.8125zm-291.414063-112.871093c20.9375-21.007813 47.015625-36.160157 75.632813-43.949219-8.125 8.917969-15.570313 20.355469-22.113282 34.128906-15.746094 33.160156-24.746094 76.335938-25.574218 122.691406h-77.789063c1.847656-42.550781 19.644531-82.84375 49.84375-112.871093zm0 0"/><path d="m145.1875 399.539062h54.894531c4.417969 0 8-3.582031 8-8 0-4.417968-3.582031-8-8-8h-54.898437c-4.417969 0-8 3.582032-8 8 0 4.417969 3.582031 8 8 8zm0 0"/><path d="m145.1875 412.539062c-4.417969 0-8 3.582032-8 8 0 4.417969 3.582031 8 8 8h83.796875c4.417969 0 8-3.582031 8-8 0-4.417968-3.582031-8-8-8zm0 0"/></svg>