<svg height="452pt" viewBox="-1 0 452 452.00242" width="452pt" xmlns="http://www.w3.org/2000/svg"><path d="m444.628906 187.738281-43.53125-4.199219c-4.617187-18.652343-12.128906-36.460937-22.265625-52.78125l27.796875-33.554687c1.976563-2.382813 1.8125-5.878906-.375-8.070313l-45.550781-45.546874c-2.191406-2.191407-5.6875-2.355469-8.070313-.378907l-33.511718 27.75c-16.300782-10.199219-34.136719-17.707031-52.820313-22.246093l-4.199219-43.417969c-.308593-3.050781-2.910156-5.355469-5.976562-5.292969h-62.25c-3.0625-.0585938-5.664062 2.242188-5.96875 5.292969l-4.203125 43.484375c-18.683594 4.527344-36.519531 12.027344-52.820313 22.214844l-33.511718-27.769532c-2.382813-1.976562-5.878906-1.816406-8.070313.371094l-45.550781 45.546875c-2.1875 2.191406-2.351562 5.683594-.378906 8.066406l27.789062 33.554688c-10.140625 16.320312-17.660156 34.128906-22.28125 52.78125l-43.5 4.199219c-3.066406.296874-5.3984372 2.886718-5.378906 5.96875v64.582031c-.0234375 3.082031 2.308594 5.671875 5.375 5.972656l43.527344 4.199219c4.535156 18.683594 12.039062 36.519531 22.234375 52.824218l-27.757813 33.511719c-1.976562 2.382813-1.816406 5.878907.375 8.070313l45.546875 45.546875c2.191407 2.1875 5.683594 2.355469 8.070313.378906l33.554687-27.789063c16.320313 10.140626 34.128907 17.660157 52.777344 22.28125l4.203125 43.421876c.304688 3.050781 2.90625 5.351562 5.96875 5.289062h62.25c3.066406.0625 5.664062-2.238281 5.972656-5.289062l4.199219-43.488282c18.648437-4.609375 36.457031-12.117187 52.777344-22.246094l33.558593 27.804688c2.382813 1.976562 5.878907 1.816406 8.070313-.371094l45.550781-45.550781c2.1875-2.1875 2.351563-5.679687.378906-8.066406l-27.753906-33.507813c10.199219-16.304687 17.710938-34.136718 22.246094-52.824218l43.5-4.199219c3.066406-.300781 5.398438-2.890625 5.375-5.96875v-64.582031c.023438-3.082032-2.304688-5.671876-5.371094-5.972657zm-6.628906 65.105469-42.382812 4.089844c-2.59375.25-4.722657 2.15625-5.261719 4.703125-4.378907 20.238281-12.488281 39.484375-23.910157 56.753906-1.46875 2.207031-1.316406 5.117187.378907 7.15625l27.078125 32.699219-37.824219 37.828125-32.703125-27.074219c-2.015625-1.671875-4.878906-1.839844-7.078125-.421875-17.339844 11.351563-36.59375 19.472656-56.828125 23.972656-2.535156.492188-4.441406 2.585938-4.703125 5.152344l-4.089844 42.300781h-51.351562l-4.089844-42.300781c-.253906-2.582031-2.15625-4.699219-4.699219-5.222656-20.234375-4.484375-39.484375-12.59375-56.828125-23.9375-2.203125-1.414063-5.070312-1.234375-7.082031.4375l-32.699219 27.085937-37.824219-37.828125 27.078126-32.691406c1.6875-2.042969 1.839843-4.949219.371093-7.15625-11.429687-17.269531-19.542969-36.515625-23.925781-56.753906-.527344-2.542969-2.648438-4.445313-5.234375-4.699219l-42.390625-4.09375v-53.683594l42.386719-4.089844c2.589843-.253906 4.71875-2.152343 5.261719-4.699218 4.492187-20.234375 12.609374-39.488282 23.957031-56.832032 1.417969-2.199218 1.246093-5.066406-.425781-7.078124l-27.078126-32.699219 37.824219-37.828125 32.699219 27.074218c2.042969 1.691407 4.953125 1.84375 7.15625.371094 17.269531-11.425781 36.511719-19.539062 56.75-23.921875 2.53125-.492187 4.441406-2.585937 4.699219-5.15625l4.089843-42.296875h51.351563l4.089844 42.296875c.253906 2.582031 2.160156 4.699219 4.703125 5.222657 20.234375 4.371093 39.480468 12.472656 56.753906 23.890624 2.207031 1.464844 5.117188 1.304688 7.15625-.390624l32.699219-27.082032 37.828125 37.820313-27.078125 32.695312c-1.667969 2.015625-1.839844 4.878907-.417969 7.078125 11.351562 17.34375 19.472656 36.597656 23.96875 56.832032.53125 2.542968 2.652344 4.445312 5.238281 4.699218l42.386719 4.09375zm0 0"/><path d="m225 89.609375c-75.199219 0-136.386719 61.191406-136.386719 136.390625 0 75.203125 61.1875 136.390625 136.386719 136.390625 75.203125 0 136.390625-61.183594 136.390625-136.390625 0-75.203125-61.183594-136.390625-136.390625-136.390625zm-71.992188 180.203125c-.867187-8.648438 1.964844-17.257812 7.800782-23.703125 5.832031-6.441406 14.121094-10.113281 22.8125-10.109375h3.753906l9.691406 29.765625c.894532 2.78125 3.675782 4.503906 6.5625 4.0625l-8.03125 74.765625c-.089844.78125-.027344 1.574219.183594 2.332031-15.351562-3.773437-29.859375-10.382812-42.78125-19.492187v-57.015625c0-.203125.027344-.402344.007812-.605469zm61.777344 80.15625-6.949218-6.949219 9.25-86.121093 7.476562-8.351563 8.417969 8.953125 9.183593 85.515625-6.949218 6.953125c-3.367188.273438-6.773438.421875-10.214844.421875-3.4375 0-6.84375-.144531-10.214844-.421875zm82.214844-80.15625c-.019531.199219 0 .402344 0 .601562v57.011719c-12.917969 9.113281-27.429688 15.722657-42.78125 19.496094.222656-.757813.289062-1.550781.199219-2.335937l-8.035157-74.761719c2.816407.421875 5.539063-1.207031 6.5-3.890625l10.757813-29.933594h2.753906c8.691407-.003906 16.976563 3.667969 22.808594 10.113281 5.832031 6.441407 8.667969 15.050781 7.796875 23.699219zm12 47.914062v-47.015624c1.109375-11.980469-2.878906-23.875-10.988281-32.765626-8.109375-8.886718-19.585938-13.949218-31.617188-13.945312h-6.972656c-2.53125-.003906-4.792969 1.582031-5.648437 3.964844l-8.875 24.699218-16.070313-17.101562c-1.164063-1.207031-2.769531-1.890625-4.445313-1.890625-1.683593.023437-3.277343.746094-4.402343 2l-14.730469 16.464844-7.816406-24c-.804688-2.46875-3.105469-4.136719-5.703125-4.136719h-8.109375c-12.035156-.007812-23.515625 5.054688-31.625 13.945312-8.109375 8.886719-12.101563 20.78125-10.996094 32.765626v47.015624c-37.863281-34.636718-50.566406-88.972656-31.980469-136.804687 18.589844-47.832031 64.648438-79.332031 115.964844-79.3125 68.589844 0 124.433594 55.800781 124.433594 124.390625.097656 34.914062-14.585938 68.238281-40.417969 91.726562zm0 0"/><path d="m265 170.15625c0-22.730469-18.425781-41.15625-41.152344-41.15625h-.691406c-22.730469 0-41.15625 18.425781-41.15625 41.15625v14.691406c0 22.726563 18.425781 41.152344 41.15625 41.152344h.691406c22.726563 0 41.152344-18.425781 41.152344-41.152344zm-12 14.691406c0 16.101563-13.050781 29.152344-29.152344 29.152344h-.691406c-16.101562 0-29.15625-13.050781-29.15625-29.152344v-14.691406c0-16.101562 13.054688-29.15625 29.15625-29.15625h.691406c16.101563 0 29.152344 13.054688 29.152344 29.15625zm0 0"/></svg>