<?xml version="1.0"?>
<svg xmlns="http://www.w3.org/2000/svg" id="Layer_1" data-name="Layer 1" viewBox="0 0 512 512" width="512" height="512"><title>Wallet</title><path d="M475.148,130H409V37.6A8.121,8.121,0,0,0,398.2,30.06L317.7,58.6l-29.947-29.67a8.007,8.007,0,0,0-11.294.025L207.729,97.5,94.593,130h-.037C90.138,130,87,133.942,87,138.36v161.1C53,314.611,29.074,348.7,29.074,388.234A96.984,96.984,0,0,0,212.648,432h262.5A7.724,7.724,0,0,0,483,424.179V138.36C483,133.942,479.566,130,475.148,130ZM393,48.925V130h-2.915L330.379,70.918Zm-110.866-3.39L367.355,130H197.67Zm-97.828,75.2L175.042,130h-22.8Zm-58.3,348.657a81.159,81.159,0,1,1,81.159-81.159A81.25,81.25,0,0,1,126.01,469.393ZM467,333H414.72a51.5,51.5,0,1,1,0-103H467Zm0-119H414.72a67.5,67.5,0,1,0,0,135H467v67H219.066a97.049,97.049,0,0,0-92.834-124.969A92.159,92.159,0,0,0,103,293.944V146H467Z"/><path d="M376.6,281.616a28.231,28.231,0,1,0,28.23-28.23A28.262,28.262,0,0,0,376.6,281.616Zm40.461,0a12.231,12.231,0,1,1-12.231-12.23A12.245,12.245,0,0,1,417.06,281.616Z"/><path d="M126.01,353.006A15.107,15.107,0,0,1,141.1,368.1a8,8,0,0,0,16,0A31.138,31.138,0,0,0,133,337.809V332a8,8,0,0,0-16,0v6.342a31.089,31.089,0,0,0,9.01,60.844,15.083,15.083,0,0,1,1.163,30.121,7.82,7.82,0,0,0-3.653-.165,15.1,15.1,0,0,1-12.6-14.866,8,8,0,0,0-16,0A31.144,31.144,0,0,0,117,444.03V451a8,8,0,0,0,16,0v-6.437a31.086,31.086,0,0,0-6.99-61.377,15.09,15.09,0,1,1,0-30.18Z"/></svg>
