<svg height="496pt" viewBox="0 -25 496.16134 496" width="496pt" xmlns="http://www.w3.org/2000/svg"><path d="m492.480469 120.878906c-14.65625-72.648437-67.121094-119.59375-133.660157-119.59375-35.222656 0-73.394531 13.699219-110.699218 39.675782-37.828125-27.128907-75.300782-40.8789068-111.441406-40.8789068-66.914063 0-119.148438 47.4492188-133.074219 120.8710938-20.445313 106.554687 44.4375 247.996094 235.472656 323.792969.140625.054687.28125.109375.421875.15625 5.496094 2.148437 11.601562 2.148437 17.097656 0 .160156-.054688.320313-.113282.476563-.175782 87.675781-35.523437 155.675781-87.578124 196.644531-150.542968 35.960938-55.269532 49.730469-116.796875 38.773438-173.246094zm-240.980469 308.917969c-1.085938.375-2.214844.617187-3.359375.722656-1.199219-.101562-2.382813-.347656-3.523437-.730469-33.925782-13.363281-66.300782-30.371093-96.558594-50.726562v-77.980469c.113281-22.792969 17.570312-41.746093 40.277344-43.730469 26.144531 31.546876 72.332031 37.273438 105.390624 13.066407 5.195313-3.765625 9.910157-8.152344 14.035157-13.066407 22.710937 1.980469 40.171875 20.933594 40.296875 43.730469v77.238281c-30.273438 20.527344-62.640625 37.78125-96.558594 51.476563zm188.992188-144.339844c-19.390626 29.796875-45.433594 57.078125-76.433594 81.191407v-65.566407c0-33.011719-27.222656-59.785156-60.230469-59.785156-2.539063-.019531-4.9375 1.171875-6.449219 3.207031-11.546875 15.667969-29.851562 24.917969-49.3125 24.921875-19.460937 0-37.765625-9.242187-49.316406-24.90625-1.515625-2.042969-3.910156-3.238281-6.453125-3.222656-33.011719 0-60.238281 26.773437-60.238281 59.785156v66.351563c-95-73.023438-127.445313-167.773438-112.921875-243.480469 6.175781-32.554687 20.585937-59.855469 41.5-78.960937 20.699219-18.914063 47.011719-28.910157 76-28.910157 34.121093 0 70.003906 13.84375 106.609375 41.152344 2.8125 2.09375 6.65625 2.121094 9.496094.0625 36.0625-26.175781 72.75-40.011719 106.074218-40.011719 28.910156 0 55.214844 9.953125 76.0625 28.789063 20.945313 18.921875 35.53125 45.871093 42.003906 77.9375 10.148438 52.347656-2.714843 109.6875-36.390624 161.445312zm0 0"/><path d="m248.058594 102.582031c-36.261719 0-65.660156 29.398438-65.660156 65.660157 0 36.265624 29.398437 65.660156 65.660156 65.660156 36.265625 0 65.660156-29.394532 65.660156-65.660156-.039062-36.246094-29.414062-65.617188-65.660156-65.660157zm0 115.320313c-27.425782 0-49.660156-22.230469-49.660156-49.660156 0-27.425782 22.234374-49.660157 49.660156-49.660157 27.429687 0 49.660156 22.234375 49.660156 49.660157-.027344 27.414062-22.246094 49.628906-49.660156 49.660156zm0 0"/></svg>