<?xml version="1.0" encoding="iso-8859-1"?>
<!-- Generator: Adobe Illustrator 19.0.0, SVG Export Plug-In . SVG Version: 6.00 Build 0)  -->
<svg version="1.1" id="Capa_1" xmlns="http://www.w3.org/2000/svg" xmlns:xlink="http://www.w3.org/1999/xlink" x="0px" y="0px"
	 viewBox="0 0 512 512" style="enable-background:new 0 0 512 512;" xml:space="preserve">
<g>
	<g>
		<path d="M492.943,9.529H19.057C8.531,9.529,0,18.06,0,28.586v352.556c0,10.526,8.531,19.057,19.057,19.057h185.425l129.563,98.398
			c3.379,2.56,7.432,3.875,11.523,3.875c2.89,0,5.793-0.661,8.474-1.982c6.479-3.221,10.583-9.833,10.583-17.075v-83.216h128.318
			c10.526,0,19.057-8.531,19.057-19.057V28.586C512,18.06,503.469,9.529,492.943,9.529z M473.886,362.084H345.568
			c-10.526,0-19.057,8.531-19.057,19.057v63.873l-104.09-79.055c-3.316-2.509-7.362-3.875-11.523-3.875H38.114V47.643h435.772
			V362.084z"/>
	</g>
</g>
<g>
	<g>
		<path d="M256,156.903c-28.02,0-50.819,22.799-50.819,50.819c0,28.02,22.799,50.819,50.819,50.819s50.819-22.799,50.819-50.819
			C306.819,179.702,284.02,156.903,256,156.903z M256,220.427c-7.007,0-12.705-5.698-12.705-12.705s5.698-12.705,12.705-12.705
			s12.705,5.698,12.705,12.705S263.007,220.427,256,220.427z"/>
	</g>
</g>
<g>
	<g>
		<path d="M125.777,156.903c-28.02,0-50.819,22.799-50.819,50.819c0,28.02,22.799,50.819,50.819,50.819s50.819-22.799,50.819-50.819
			C176.596,179.702,153.797,156.903,125.777,156.903z M125.777,220.427c-7.007,0-12.705-5.698-12.705-12.705
			s5.698-12.705,12.705-12.705s12.705,5.698,12.705,12.705S132.783,220.427,125.777,220.427z"/>
	</g>
</g>
<g>
	<g>
		<path d="M384.318,156.903c-28.02,0-50.819,22.799-50.819,50.819c0,28.02,22.799,50.819,50.819,50.819s50.819-22.799,50.819-50.819
			C435.136,179.702,412.338,156.903,384.318,156.903z M384.318,220.427c-7.007,0-12.705-5.698-12.705-12.705
			s5.698-12.705,12.705-12.705s12.705,5.698,12.705,12.705S391.324,220.427,384.318,220.427z"/>
	</g>
</g>
<g>
</g>
<g>
</g>
<g>
</g>
<g>
</g>
<g>
</g>
<g>
</g>
<g>
</g>
<g>
</g>
<g>
</g>
<g>
</g>
<g>
</g>
<g>
</g>
<g>
</g>
<g>
</g>
<g>
</g>
</svg>
