<?xml version="1.0"?>
<svg xmlns="http://www.w3.org/2000/svg" id="Layer_1" data-name="Layer 1" viewBox="0 0 512 512" width="512" height="512"><title>Investments</title><path d="M373.719,400.262a20.452,20.452,0,1,1-20.451,20.452,6,6,0,0,0-12,0A32.5,32.5,0,0,0,365,451.966V463a6,6,0,0,0,12,0V453a32.452,32.452,0,0,0-3.281-64.738,20.452,20.452,0,1,1,20.452-20.451,6,6,0,0,0,12,0A32.5,32.5,0,0,0,381,336.193V328a6,6,0,0,0-12,0v7.706a32.45,32.45,0,0,0,4.719,64.556Z"/><path d="M36.141,459h253.5c19.841,24,50.159,40.12,84.081,40.12a108.177,108.177,0,0,0,.084-216.354c-20.857,0-40.8,5.917-56.8,16.188V18.979A6.129,6.129,0,0,0,310.831,13H36.141A6.1,6.1,0,0,0,30,18.979V452.8A6.294,6.294,0,0,0,36.141,459ZM269,365.585V343.939a6,6,0,0,0-12,0V375H220.513c-.757-1-1.6-.542-2.483-.542s-1.725-.458-2.482.542H179V343.939a6,6,0,0,0-12,0V375H131.424c-.757-1-1.6-.542-2.483-.542s-1.725-.458-2.482.542H90V343.939a6,6,0,0,0-12,0V375H42V314h81v30.481a6,6,0,0,0,12,0V314h77v30.481a6,6,0,0,0,12,0V314h73.366C283.465,328,273,345.875,269,365.585ZM123,170v30.055a6,6,0,0,0,12,0V170h77v30.055a6,6,0,0,0,12,0V170h81v60H269V199.512a6,6,0,0,0-12,0V230H179V199.512a6,6,0,0,0-12,0V230H90V199.512a6,6,0,0,0-12,0V230H42V170Zm0,72v30.268a6,6,0,0,0,12,0V242h77v30.268a6,6,0,0,0,12,0V242h81v60H269V271.726a6,6,0,0,0-12,0V302H179V271.726a6,6,0,0,0-12,0V302H90V271.726a6,6,0,0,0-12,0V302H42V242Zm0-144v29.841a6,6,0,0,0,12,0V98h77v29.841a6,6,0,1,0,12,0V98h81v59H269V127.3a6,6,0,1,0-12,0V157H179V127.3a6,6,0,1,0-12,0V157H90V127.3a6,6,0,0,0-12,0V157H42V98ZM42,387h81V416.7a6,6,0,0,0,12,0V387h77V416.7a6,6,0,0,0,12,0V387h41.672c-.056,1-.093,2.649-.093,4.087a107.212,107.212,0,0,0,2.4,22.577A5.725,5.725,0,0,0,257,416.152V447H179V416.152a6,6,0,0,0-12,0V447H90V416.152a6,6,0,0,0-12,0V447H42Zm227,60V416.177C271,427.122,275.5,437,281.191,447Zm200.859-56.119a96.14,96.14,0,1,1-192.28,0c0-2.747.122-5.465.35-8.154a5.805,5.805,0,0,0,.313-3.111,96.12,96.12,0,0,1,35.529-63.837,5.977,5.977,0,0,0,1.419-1.114,96.087,96.087,0,0,1,154.669,76.216ZM123,25V55.628a6,6,0,0,0,12,0V25h77V55.628a6,6,0,0,0,12,0V25h81V85H269V55.085a6,6,0,1,0-12,0V85H179V55.085a6,6,0,0,0-12,0V85H90V55.085a6,6,0,0,0-12,0V85H42V25Z"/></svg>
