<svg height="482pt" viewBox="0 -1 482.00003 482" width="482pt" xmlns="http://www.w3.org/2000/svg"><path d="m473.96875 271h-31.96875v-13.058594c-.140625-4.460937-3.824219-7.992187-8.285156-7.941406h-78.164063c-4.417969 0-7.550781 3.519531-7.550781 7.941406v13.058594h-7.421875c-.761719-9-2.578125-18.265625-6.578125-26.8125v-140.1875h13.863281c4.417969 0 8.136719-3.085938 8.136719-7.5v-88.164062c-.039062-4.511719-3.628906-8.191407-8.136719-8.335938h-213.726562c-4.507813.144531-8.097657 3.824219-8.136719 8.335938v88.164062c0 4.417969 3.71875 7.5 8.136719 7.5h13.863281v140.1875c-4 8.546875-5.816406 17.8125-6.578125 26.8125h-7.421875v-13.058594c0-4.421875-3.132812-7.941406-7.550781-7.941406h-78.164063c-4.460937-.050781-8.144531 3.480469-8.285156 7.941406v13.058594h-31.96875c-4.480469.144531-8.0390625 3.824219-8.03125 8.3125v170.980469c.0195312 2.09375.882812 4.09375 2.394531 5.542969 1.511719 1.453124 3.542969 2.230468 5.636719 2.164062h31.96875v13.664062c.109375 4.539063 3.75 8.203126 8.285156 8.335938h78.164063c4.417969 0 7.550781-3.917969 7.550781-8.335938v-13.664062h214v13.664062c0 4.417969 3.132812 8.335938 7.550781 8.335938h78.164063c4.535156-.132812 8.175781-3.796875 8.285156-8.335938v-13.664062h31.96875c2.09375.066406 4.125-.710938 5.636719-2.164062 1.511719-1.449219 2.375-3.449219 2.394531-5.542969v-170.980469c.007812-4.488281-3.550781-8.167969-8.03125-8.3125zm-232.96875-75.492188c46.34375 0 83.910156 37.566407 83.910156 83.910157 0 46.339843-37.566406 83.910156-83.910156 83.910156s-83.910156-37.570313-83.910156-83.910156c.050781-46.320313 37.589844-83.859375 83.910156-83.910157zm-99-179.507812h198v72h-198zm22 88h154v112.425781c-18.746094-23.339843-47.0625-36.917969-77-36.917969s-58.253906 13.578126-77 36.917969zm-148 338v-155h24v155zm102 22h-62v-198h62zm16-22v-155h7.398438c4.117187 51.957031 47.480468 92.023438 99.601562 92.023438s95.484375-40.066407 99.601562-92.023438h7.398438v155zm292 22h-62v-198h62zm40-22h-24v-155h24zm0 0"/><path d="m241 342.464844c34.820312 0 63.046875-28.226563 63.046875-63.046875 0-34.820313-28.226563-63.046875-63.046875-63.046875s-63.046875 28.226562-63.046875 63.046875c.039063 34.800781 28.242187 63.007812 63.046875 63.046875zm0-110.09375c25.984375 0 47.046875 21.0625 47.046875 47.046875 0 25.980469-21.0625 47.046875-47.046875 47.046875s-47.046875-21.066406-47.046875-47.046875c.03125-25.972657 21.078125-47.015625 47.046875-47.046875zm0 0"/><path d="m239 288c4.417969 0 8-3.582031 8-8v-26c0-4.417969-3.582031-8-8-8s-8 3.582031-8 8v26c0 4.417969 3.582031 8 8 8zm0 0"/></svg>