<svg id="Layer_1" height="512" viewBox="0 0 512 512" width="512" xmlns="http://www.w3.org/2000/svg" data-name="Layer 1"><path d="m111.667 340h26.333v152.5c0 3.313 2.687 6.5 6 6.5h44c3.313 0 6-3.187 6-6.5v-152.5h124v152.5c0 3.313 2.687 6.5 6 6.5h44c3.313 0 6-3.187 6-6.5v-152.5h26.333c3.313 0 5.667-2.853 5.667-6.167v-50.666c0-3.314-2.354-6.167-5.667-6.167h-46.333v-35h14.667a6.437 6.437 0 0 0 6.333-6.167v-176.333c0-25.364-20.969-45.5-46.333-45.5h-145.334c-25.364 0-46.333 20.136-46.333 45.5v176.333a6.437 6.437 0 0 0 6.333 6.167h14.667v35h-46.333c-3.313 0-5.667 2.853-5.667 6.167v50.666c0 3.314 2.354 6.167 5.667 6.167zm70.333 147h-32v-147h32zm180 0h-32v-147h32zm-20-210h-26v-35h26zm-134 0v-35h96v35zm-59-217.5c0-18.748 15.585-33.5 34.333-33.5h145.334c18.748 0 34.333 14.752 34.333 33.5v170.5h-214zm21 182.5h26v35h-26zm-52 47h276v39h-276z"/></svg>