<?xml version="1.0"?>
<svg xmlns="http://www.w3.org/2000/svg" id="Layer_1" data-name="Layer 1" viewBox="0 0 512 512" width="512" height="512"><title>Poster</title><path d="M393.214,105H363V81.9a8.053,8.053,0,0,0-8.164-7.9H337V19a8,8,0,0,0-16,0V74H304.366C299.948,74,296,77.477,296,81.9V105H216V81.9c0-4.419-3.948-7.9-8.366-7.9H189V19a8,8,0,0,0-16,0V74H157.164A8.053,8.053,0,0,0,149,81.9V105H118.786c-4.418,0-7.786,4.02-7.786,8.438V493.011A7.81,7.81,0,0,0,118.786,501H393.214A7.81,7.81,0,0,0,401,493.011V113.438C401,109.02,397.632,105,393.214,105ZM327.769,90c.4,0,.811.1,1.231.1s.829-.1,1.231-.1H347v39H312V90Zm-148,0c.4,0,.812.1,1.232.1s.829-.1,1.232-.1H200v39H165V115.076c0-.529.169-1.076.169-1.638S165,112.33,165,111.8V90ZM385,485H127V121h22v15.57a8.519,8.519,0,0,0,8.164,8.43h50.47A8.7,8.7,0,0,0,216,136.57V121h80v15.57a8.7,8.7,0,0,0,8.366,8.43h50.47A8.519,8.519,0,0,0,363,136.57V121h22Z"/><path d="M366,175a8,8,0,0,0-8-8H153a8,8,0,0,0-8,8V301a8,8,0,0,0,8,8H358a8,8,0,0,0,8-8ZM351,294H161V183H351Z"/><path d="M153.484,352h110.4a8,8,0,0,0,0-16h-110.4a8,8,0,0,0,0,16Z"/><path d="M358.516,378H153.484a8,8,0,0,0,0,16H358.516a8,8,0,1,0,0-16Z"/><path d="M358.516,420H153.484a8,8,0,0,0,0,16H358.516a8,8,0,1,0,0-16Z"/></svg>
