<?xml version="1.0"?>
<svg xmlns="http://www.w3.org/2000/svg" id="Layer_1" data-name="Layer 1" viewBox="0 0 512 512" width="512" height="512"><title>Ship</title><path d="M491.812,343a96.516,96.516,0,0,0-13.32.872l16.464-79.382a7.854,7.854,0,0,0-1.628-6.607,7.937,7.937,0,0,0-6.2-2.883H443V122a8.163,8.163,0,0,0-8.188-8H413V61a8.163,8.163,0,0,0-8.188-8h-40A7.843,7.843,0,0,0,357,61v53H334.812A7.843,7.843,0,0,0,327,122V255H300V170a8.163,8.163,0,0,0-8.188-8h-236A7.843,7.843,0,0,0,48,170v85H20.188a7.923,7.923,0,0,0-6.251,12.892l73.944,92.565a82.622,82.622,0,0,1-14.956-6.545C63.106,348.8,51.979,343,30.812,343a8,8,0,1,0,0,16c17.251,0,25.349,4.215,34.724,9.1,9.613,5,20.489,10.659,40.808,10.893.071,0,.142.012.214.012.036,0,.072-.009.108-.009.328,0,.65.008.983.008,21.167,0,32.294-5.793,42.113-10.9,9.375-4.881,17.472-9.1,34.723-9.1s25.348,4.215,34.723,9.1c9.817,5.111,20.944,10.9,42.11,10.9s32.293-5.793,42.111-10.9c9.375-4.881,17.47-9.1,34.72-9.1s25.347,4.215,34.722,9.1c9.817,5.111,20.944,10.9,42.11,10.9s32.292-5.793,42.11-10.9a99.169,99.169,0,0,1,11.77-5.475,7.984,7.984,0,0,0,3.322-1.1A67.524,67.524,0,0,1,491.812,359a8,8,0,0,0,0-16ZM373,69h24v45H373Zm-30,61h84v44H343Zm0,60h84v65H343ZM240,178h44v34H240Zm0,50h44v27H240Zm-60-50h44v34H180Zm0,50h44v27H180Zm-60-50h44v34H120Zm0,50h44v27H120ZM64,178h40v34H64Zm0,50h40v27H64ZM461.208,348.5A125.206,125.206,0,0,0,449.7,353.9c-9.375,4.881-17.471,9.1-34.721,9.1s-25.346-4.215-34.721-9.1c-9.818-5.111-20.945-10.9-42.111-10.9s-32.292,5.793-42.109,10.9c-9.375,4.881-17.472,9.1-34.722,9.1s-25.346-4.215-34.721-9.1c-9.818-5.111-20.946-10.9-42.112-10.9s-32.294,5.793-42.112,10.9c-8.866,4.616-16.6,8.7-32,9.121L36.815,271H477.294Z"/><path d="M491.812,383c-21.166,0-32.292,5.793-42.11,10.9-9.375,4.881-17.471,9.1-34.721,9.1s-25.346-4.215-34.721-9.1c-9.818-5.111-20.945-10.9-42.111-10.9s-32.292,5.793-42.109,10.9c-9.375,4.881-17.472,9.1-34.722,9.1s-25.346-4.215-34.721-9.1c-9.818-5.111-20.946-10.9-42.112-10.9s-32.294,5.793-42.112,10.9C133,398.785,124.9,403,107.649,403s-25.349-4.215-34.724-9.1C63.106,388.793,51.979,383,30.812,383a8,8,0,0,0,0,16c17.251,0,25.349,4.215,34.724,9.1,9.818,5.111,20.946,10.9,42.113,10.9s32.294-5.793,42.113-10.9c9.375-4.881,17.472-9.1,34.723-9.1s25.348,4.215,34.723,9.1c9.817,5.111,20.944,10.9,42.11,10.9s32.293-5.793,42.111-10.9c9.375-4.881,17.47-9.1,34.72-9.1s25.347,4.215,34.722,9.1c9.817,5.111,20.944,10.9,42.11,10.9s32.292-5.793,42.11-10.9c9.375-4.881,17.471-9.1,34.721-9.1a8,8,0,0,0,0-16Z"/><path d="M491.812,423c-21.166,0-32.292,5.793-42.11,10.9-9.375,4.881-17.471,9.1-34.721,9.1s-25.346-4.215-34.721-9.1c-9.818-5.111-20.945-10.9-42.111-10.9s-32.292,5.793-42.109,10.9c-9.375,4.881-17.472,9.1-34.722,9.1s-25.346-4.215-34.721-9.1c-9.818-5.111-20.946-10.9-42.112-10.9s-32.294,5.793-42.112,10.9C133,438.785,124.9,443,107.649,443s-25.349-4.215-34.724-9.1C63.106,428.793,51.979,423,30.812,423a8,8,0,0,0,0,16c17.251,0,25.349,4.215,34.724,9.1,9.818,5.111,20.946,10.9,42.113,10.9s32.294-5.793,42.113-10.9c9.375-4.881,17.472-9.1,34.723-9.1s25.348,4.215,34.723,9.1c9.817,5.111,20.944,10.9,42.11,10.9s32.293-5.793,42.111-10.9c9.375-4.881,17.47-9.1,34.72-9.1s25.347,4.215,34.722,9.1c9.817,5.111,20.944,10.9,42.11,10.9s32.292-5.793,42.11-10.9c9.375-4.881,17.471-9.1,34.721-9.1a8,8,0,0,0,0-16Z"/></svg>
