<svg height="494pt" viewBox="-13 0 494 494.1688" width="494pt" xmlns="http://www.w3.org/2000/svg"><path d="m364.824219 0c-34.269531-.0429688-66.347657 16.863281-85.683594 45.160156-19.335937 28.300782-23.425781 64.328125-10.929687 96.238282 3.734374 9.539062 8.878906 18.460937 15.265624 26.46875l-14.929687 34.75c-.871094 2.027343-.558594 4.363281.808594 6.09375 1.367187 1.726562 3.570312 2.566406 5.742187 2.1875l55.050782-9.65625c11.039062 3.96875 22.679687 5.992187 34.40625 5.984374 57.226562.074219 103.675781-46.253906 103.75-103.476562.074218-57.222656-46.253907-103.671875-103.480469-103.74609375zm-.269531 195.222656c-10.820313.015625-21.558594-1.941406-31.679688-5.777344-1.015625-.386718-2.117188-.492187-3.191406-.308593l-45.730469 8.019531 12-27.9375c.90625-2.113281.527344-4.558594-.980469-6.296875-6.621094-7.695313-11.894531-16.453125-15.585937-25.910156-14.65625-37.433594-3.195313-80.046875 28.257812-105.082031 31.453125-25.035157 75.554688-26.636719 108.742188-3.953126 33.191406 22.683594 47.714843 64.351563 35.816406 102.75-11.898437 38.398438-47.441406 64.554688-87.640625 64.496094zm0 0"/><path d="m258.085938 488.335938v-55.4375c0-35.53125-28.921876-64.730469-64.453126-64.730469h-24.546874v-6.925781c7-4.863282 13.246093-10.707032 20.335937-17.789063 17.3125-17.292969 30.148437-35.476563 37.929687-54.054687 10.792969-25.761719 11.351563-53.433594 1.472657-77.917969-3.519531-8.71875-8.8125-16.238281-14.957031-21.171875-6.027344-5.074219-13.777344-7.625-21.640626-7.117188-7.601562-16.324218-19.585937-28.996094-34.839843-36.757812-16.859375-8.578125-36.664063-10.261719-55.765625-4.742188-30.382813 8.78125-55.445313 29.140625-68.761719 55.859375-7.851563 15.976563-11.542969 33.679688-10.734375 51.460938 1.894531 45.820312 27.960938 88.398437 65.960938 109.570312v9.585938h-23.777344c-35.53125 0-64.2226565 29.199219-64.2226565 64.730469v55.4375c-.0429687 1.550781.5507815 3.050781 1.6445315 4.152343 1.09375 1.101563 2.589843 1.707031 4.140625 1.679688h246.199218c1.574219.039062 3.101563-.558594 4.230469-1.65625 1.132813-1.097657 1.773438-2.601563 1.785157-4.175781zm-158-113.882813v-20.035156c9.117187 3.738281 18.875 5.65625 28.726562 5.636719h.316406c9.617188.003906 19.132813-1.96875 27.957032-5.789063v21.296875c0 15.742188-12.757813 28.5-28.5 28.5-15.738282 0-28.5-12.757812-28.5-28.5zm92-119.734375v28.648438c0 35.410156-28.167969 64.429687-63.085938 64.6875h-.367188c-16.894531-.011719-33.089843-6.746094-45.015624-18.71875-11.921876-11.972657-18.589844-28.199219-18.53125-45.09375v-8.476563c41.242187-7.132813 77.191406-32.203125 98.140624-68.4375 4.003907 1.070313 7.800782 2.804687 11.230469 5.128906 11.636719 7.734375 18.203125 20.980469 17.988281 35.425781zm-158.027344-6.199219c-.707032-15.765625 2.574218-31.457031 9.542968-45.613281 11.824219-23.726562 34.183594-41.839844 61.355469-49.683594 16.398438-4.742187 32.652344-3.390625 47 3.90625 13.507813 6.875 24.015625 18.40625 30.40625 33.355469l.414063 1.238281c.980468 2.949219 4.050781 4.65625 7.074218 3.941406 17.117188-4.058593 26.25 16.199219 27.90625 20.308594 8.691407 21.53125 8.210938 45.964844-1.351562 68.792969-4.710938 11.238281-11.691406 22.375-20.335938 33.28125 5.359376-10.769531 8.105469-22.652344 8.015626-34.679687v-28.558594l.339843-6.75c.273438-18.542969-8.429687-35.585938-23.476562-45.59375-6.027344-4.09375-12.910157-6.761719-20.125-7.800782-2.460938-.339843-4.871094.882813-6.054688 3.066407-32.527343 59.53125-90.148437 66.132812-94.269531 66.53125-4.15625.136719-7.445312 3.5625-7.414062 7.722656v12.257813c-.054688 14.148437 3.878906 28.023437 11.351562 40.035156-18.441406-21.066406-29.15625-47.789063-30.378906-75.761719zm212.027344 233.648438h-234v-49.269531c0-28.914063 23.308593-52.730469 52.222656-52.730469h23.949218c2.472657 20.488281 19.863282 35.90625 40.5 35.90625 20.640626 0 38.027344-15.417969 40.5-35.90625h24.375c28.914063 0 52.453126 23.816406 52.453126 52.730469zm0 0"/><path d="m364.097656 54.605469c11.882813.015625 21.511719 9.644531 21.527344 21.527343 0 3.3125 2.683594 6 6 6 3.3125 0 6-2.6875 6-6-.023438-16.582031-12.144531-30.664062-28.539062-33.152343v-11.8125c0-3.316407-2.6875-6-6-6s-6 2.683593-6 6v12.183593c-16.769532 3.585938-28.128907 19.253907-26.324219 36.304688 1.804687 17.054688 16.1875 30 33.335937 30 11.890625 0 21.527344 9.636719 21.527344 21.523438 0 11.890624-9.636719 21.527343-21.527344 21.527343-11.886718 0-21.523437-9.636719-21.523437-21.527343 0-3.3125-2.6875-6-6-6s-6 2.6875-6 6c.019531 15.808593 11.058593 29.460937 26.511719 32.789062v12.199219c0 3.3125 2.6875 6 6 6s6-2.6875 6-6v-11.835938c17.347656-2.613281 29.746093-18.15625 28.4375-35.652343-1.308594-17.492188-15.882813-31.019532-33.425782-31.023438-11.886718 0-21.523437-9.636719-21.523437-21.523438 0-11.890624 9.636719-21.527343 21.523437-21.527343zm0 0"/></svg>