<?xml version="1.0" encoding="iso-8859-1"?>
<!-- Generator: Adobe Illustrator 19.0.0, SVG Export Plug-In . SVG Version: 6.00 Build 0)  -->
<svg version="1.1" id="Capa_1" xmlns="http://www.w3.org/2000/svg" xmlns:xlink="http://www.w3.org/1999/xlink" x="0px" y="0px"
	 viewBox="0 0 512 512" style="enable-background:new 0 0 512 512;" xml:space="preserve">
<g>
	<g>
		<path d="M134.802,134.186H18.551C8.305,134.186,0,142.49,0,152.736v206.525c0,10.246,8.305,18.551,18.551,18.551h116.251
			c10.246,0,18.551-8.298,18.551-18.545V152.736C153.353,142.49,145.048,134.186,134.802,134.186z M116.251,340.711h-79.15V171.287
			h79.15V340.711z"/>
	</g>
</g>
<g>
	<g>
		<path d="M310.762,13.13c-6.233-3.16-13.721-2.541-19.361,1.595L123.82,137.778l21.958,29.904L283.826,66.315v379.368
			L145.784,344.316L123.82,374.22l167.581,123.053c3.24,2.387,7.099,3.599,10.976,3.599c2.863,0,5.732-0.662,8.379-1.997
			c6.239-3.16,10.172-9.56,10.172-16.553V29.683C320.928,22.69,317.001,16.29,310.762,13.13z"/>
	</g>
</g>
<g>
	<g>
		<path d="M391.575,179.715c-9.343-4.18-20.325,0.012-24.506,9.356c-4.18,9.35,0.006,20.325,9.362,24.505
			c17.784,7.952,27.981,23.417,27.981,42.426c0,19.008-10.197,34.473-27.981,42.432c-9.356,4.186-13.548,15.156-9.362,24.506
			c3.079,6.895,9.85,10.982,16.943,10.982c2.529,0,5.101-0.526,7.563-1.614c31.27-13.987,49.939-42.512,49.939-76.299
			S422.851,193.702,391.575,179.715z"/>
	</g>
</g>
<g>
	<g>
		<path d="M393.782,111.041c-10.061-2.003-19.806,4.545-21.797,14.593c-1.991,10.048,4.545,19.806,14.599,21.797
			c51.169,10.129,88.314,55.788,88.314,108.565c0,52.783-37.145,98.443-88.314,108.565c-10.055,1.991-16.584,11.749-14.599,21.797
			c1.75,8.836,9.504,14.958,18.18,14.958c1.187,0,2.399-0.118,3.617-0.359C462.284,387.403,512,326.445,512,255.996
			C512,185.559,462.284,124.595,393.782,111.041z"/>
	</g>
</g>
<g>
</g>
<g>
</g>
<g>
</g>
<g>
</g>
<g>
</g>
<g>
</g>
<g>
</g>
<g>
</g>
<g>
</g>
<g>
</g>
<g>
</g>
<g>
</g>
<g>
</g>
<g>
</g>
<g>
</g>
</svg>
