<svg height="452pt" viewBox="-1 0 452 452.00242" width="452pt" xmlns="http://www.w3.org/2000/svg"><path d="m444.628906 187.738281-43.53125-4.199219c-4.617187-18.652343-12.128906-36.460937-22.265625-52.78125l27.796875-33.554687c1.976563-2.382813 1.8125-5.878906-.375-8.070313l-45.550781-45.546874c-2.191406-2.191407-5.6875-2.355469-8.070313-.378907l-33.511718 27.75c-16.300782-10.199219-34.136719-17.707031-52.820313-22.246093l-4.199219-43.417969c-.308593-3.050781-2.910156-5.355469-5.976562-5.292969h-62.25c-3.0625-.0585938-5.664062 2.242188-5.96875 5.292969l-4.203125 43.484375c-18.683594 4.527344-36.519531 12.027344-52.820313 22.214844l-33.511718-27.769532c-2.382813-1.976562-5.878906-1.816406-8.070313.371094l-45.550781 45.546875c-2.1875 2.191406-2.351562 5.683594-.378906 8.066406l27.789062 33.554688c-10.140625 16.320312-17.660156 34.128906-22.28125 52.78125l-43.5 4.199219c-3.066406.296874-5.3984372 2.886718-5.378906 5.96875v64.582031c-.0234375 3.082031 2.308594 5.671875 5.375 5.972656l43.527344 4.199219c4.53125 18.6875 12.039062 36.519531 22.234375 52.824218l-27.757813 33.511719c-1.976562 2.382813-1.816406 5.878907.375 8.070313l45.546875 45.546875c2.191407 2.1875 5.683594 2.355469 8.070313.378906l33.554687-27.789063c16.320313 10.140626 34.128907 17.660157 52.777344 22.28125l4.203125 43.421876c.304688 3.050781 2.90625 5.351562 5.96875 5.289062h62.25c3.066406.0625 5.664062-2.238281 5.972656-5.289062l4.199219-43.488282c18.648437-4.609375 36.457031-12.117187 52.777344-22.246094l33.558593 27.804688c2.382813 1.976562 5.878907 1.816406 8.070313-.371094l45.550781-45.550781c2.1875-2.1875 2.351563-5.679687.378906-8.066406l-27.753906-33.507813c10.199219-16.304687 17.710938-34.136718 22.246094-52.824218l43.5-4.199219c3.066406-.300781 5.398438-2.890625 5.375-5.96875v-64.582031c.023438-3.082032-2.304688-5.671876-5.371094-5.972657zm-6.628906 65.105469-42.382812 4.089844c-2.59375.25-4.722657 2.15625-5.261719 4.703125-4.378907 20.238281-12.488281 39.484375-23.910157 56.753906-1.46875 2.207031-1.316406 5.117187.378907 7.15625l27.078125 32.699219-37.824219 37.828125-32.703125-27.074219c-2.015625-1.671875-4.878906-1.839844-7.078125-.421875-17.339844 11.351563-36.59375 19.472656-56.828125 23.972656-2.535156.492188-4.441406 2.585938-4.703125 5.152344l-4.089844 42.300781h-51.351562l-4.089844-42.300781c-.253906-2.582031-2.15625-4.699219-4.699219-5.222656-20.234375-4.484375-39.484375-12.59375-56.828125-23.9375-2.203125-1.414063-5.070312-1.234375-7.082031.4375l-32.699219 27.085937-37.824219-37.828125 27.074219-32.691406c1.691407-2.042969 1.84375-4.949219.375-7.15625-11.429687-17.269531-19.542969-36.515625-23.925781-56.753906-.527344-2.542969-2.648438-4.445313-5.234375-4.699219l-42.390625-4.09375v-53.683594l42.386719-4.089844c2.589843-.253906 4.71875-2.152343 5.261719-4.699218 4.492187-20.234375 12.609374-39.488282 23.957031-56.832032 1.417969-2.199218 1.246093-5.066406-.425781-7.078124l-27.078126-32.699219 37.824219-37.828125 32.699219 27.074218c2.042969 1.691407 4.953125 1.84375 7.15625.371094 17.269531-11.425781 36.511719-19.539062 56.75-23.921875 2.53125-.492187 4.441406-2.585937 4.699219-5.15625l4.089843-42.296875h51.351563l4.089844 42.296875c.253906 2.582031 2.160156 4.699219 4.703125 5.222657 20.234375 4.371093 39.480468 12.472656 56.753906 23.890624 2.207031 1.464844 5.117188 1.304688 7.15625-.390624l32.699219-27.082032 37.828125 37.820313-27.078125 32.695312c-1.667969 2.015625-1.839844 4.878907-.417969 7.078125 11.351562 17.34375 19.472656 36.597656 23.96875 56.832032.53125 2.542968 2.652344 4.445312 5.238281 4.699218l42.386719 4.09375zm0 0"/><path d="m225 90.246094c-74.855469 0-135.753906 60.898437-135.753906 135.753906s60.898437 135.757812 135.753906 135.757812 135.757812-60.902343 135.757812-135.757812-60.902343-135.753906-135.757812-135.753906zm-77.25 232.144531c1.757812-17.175781 16.164062-30.269531 33.429688-30.390625h14.566406c2.542968 14.082031 14.800781 24.324219 29.109375 24.324219 14.3125 0 26.570312-10.242188 29.113281-24.324219h14.855469c17.261719.121094 31.671875 13.21875 33.429687 30.394531-45.140625 36.195313-109.359375 36.195313-154.5 0zm48.230469-67.78125c-7.777344-7.761719-12.09375-18.332031-11.980469-29.320313v-4.109374c11-2.089844 44.285156-10.917969 65.292969-45.734376 1.96875.679688 3.835937 1.621094 5.554687 2.800782 7.367188 5.023437 11.652344 13.460937 11.363282 22.371094l-.210938 4.660156v19.417968c0 22.9375-18.191406 41.738282-40.796875 41.902344-10.960937.105469-21.496094-4.21875-29.222656-11.988281zm82.019531-49.242187.152344-4.574219c.320312-13.003907-6.019532-25.273438-16.8125-32.535157-4.335938-2.9375-9.28125-4.851562-14.464844-5.59375-2.46875-.339843-4.886719.882813-6.078125 3.066407-21.5 39.351562-59.199219 43.800781-62.152344 44.085937-3.796875.183594-6.746093 3.367188-6.644531 7.164063v8.308593c-.070312 4.042969.3125 8.082032 1.144531 12.039063-6.261719-11.128906-9.832031-23.570313-10.421875-36.328125-.484375-10.351562 1.652344-20.660156 6.210938-29.96875 7.773437-15.59375 22.464844-27.503906 40.359375-32.675781 10.636719-3.074219 21.144531-2.203125 30.417969 2.515625 8.902343 4.636718 15.871093 12.277344 19.667968 21.570312l.25.761719c.984375 2.945313 4.054688 4.65625 7.078125 3.941406 1.765625-.421875 10.863281-1.78125 16.667969 12.601563 5.703125 14.117187 5.378906 30.152344-.90625 45.148437-1.570312 3.667969-3.398438 7.222657-5.46875 10.632813.699219-3.570313 1.03125-7.199219 1-10.832032zm-71 81.058593v-10.785156c6 1.945313 11.773438 3.359375 17.851562 3.359375h.40625c5.746094-.117188 11.417969-1.28125 16.742188-3.4375v11.617188c0 9.664062-7.832031 17.5-17.5 17.5-9.664062 0-17.5-7.835938-17.5-17.5zm105.609375 26.683594c-5.652344-19.515625-23.46875-32.988281-43.785156-33.109375h-14.824219v-1.578125c5-3.230469 8.6875-7.054687 13.273438-11.636719 11.914062-11.902344 20.785156-24.429687 26.15625-37.253906 7.511718-17.933594 7.910156-37.128906 1.019531-54.199219-5.195313-12.867187-14.714844-20.332031-25.242188-20.332031h-.125c-11.089843-23.8125-38.027343-35.8125-63.152343-28.136719-21.105469 6.101563-38.527344 20.242188-47.796876 38.832031-5.523437 11.101563-8.152343 23.417969-7.652343 35.804688 1.292969 31.316406 18.519531 60.441406 44.519531 75.296875v3.203125h-13.820312c-20.316407.121094-38.136719 13.59375-43.789063 33.109375-23.15625-23.113281-36.164063-54.496094-36.144531-87.214844 0-68.238281 55.515625-123.699219 123.753906-123.699219 68.242188 0 123.757812 55.433594 123.757812 123.671876.019532 32.726562-12.988281 64.117187-36.148437 87.242187zm0 0"/></svg>