<svg id="Layer_1" height="512" viewBox="0 0 512 512" width="512" xmlns="http://www.w3.org/2000/svg" data-name="Layer 1"><path d="m427.208 92.264c-45.916-36.471-106.718-56.557-171.208-56.557s-125.292 20.086-171.208 56.557c-47.165 37.463-73.14 87.653-73.14 141.326s25.975 103.864 73.139 141.327q.363.288.73.574l-3.7 94.568a6 6 0 0 0 8.331 5.76l114.987-48.61a303.841 303.841 0 0 0 50.861 4.265c64.49 0 125.293-20.086 171.208-56.557 47.166-37.463 73.14-87.654 73.14-141.327s-25.975-103.863-73.14-141.326zm-7.463 273.257c-43.8 34.791-101.954 53.953-163.745 53.953a291.636 291.636 0 0 1 -50.531-4.386 6.018 6.018 0 0 0 -3.379.382l-107.908 45.618 3.45-88.221a6 6 0 0 0 -2.345-5l-.167-.129c-.96-.735-1.919-1.471-2.865-2.221-44.239-35.14-68.6-81.994-68.6-131.931s24.364-96.79 68.6-131.929c43.803-34.789 101.955-53.95 163.745-53.95s119.942 19.161 163.745 53.954c44.239 35.139 68.6 81.992 68.6 131.929s-24.361 96.791-68.6 131.931z"/><path d="m387 291.515v-103.23a6.014 6.014 0 0 0 -.067-.635c.012-.167.018-.332.017-.5a6.009 6.009 0 0 0 -3.938-5.575l-133.158-48.945a6.008 6.008 0 0 0 -4.142 0l-133.155 48.943a6 6 0 0 0 -3.931 5.575 6.085 6.085 0 0 0 3.918 5.648l39.456 15.319v97.617a5.913 5.913 0 0 0 3.81 5.622 263.338 263.338 0 0 0 92.017 16.594 264.155 264.155 0 0 0 92.166-16.594 6.093 6.093 0 0 0 4.007-5.622v-97.617l31-12.136v95.632a22.689 22.689 0 0 0 -16.136 21.4 22.276 22.276 0 0 0 44.552 0c0-10.267-7.416-18.926-16.416-21.496zm-223 10.014v-30.448a263.566 263.566 0 0 0 168 0v30.448c-55 19.228-114 19.228-168 0zm168-43.137c-55 19.228-114 19.228-168 0v-45.606l81.7 31.833a5.762 5.762 0 0 0 2.129.408 6.552 6.552 0 0 0 2.278-.408l81.893-31.833zm4.048-60.156a5.866 5.866 0 0 0 -.892.347l-87.376 34.006-87.38-34.007a5.915 5.915 0 0 0 -.891-.346l-27.93-10.871 116.2-42.71 116.2 42.71zm45.052 125.044a10.273 10.273 0 1 1 10.272-10.273 10.284 10.284 0 0 1 -10.272 10.273z"/></svg>