<svg height="462pt" viewBox="0 -1 462.00002 462" width="462pt" xmlns="http://www.w3.org/2000/svg"><path d="m412.507812 90.953125-172.507812-1.144531v-81.78125c.058594-2.097656-.730469-4.128906-2.191406-5.640625-1.457032-1.511719-3.460938-2.371094-5.558594-2.386719h-78c-4.472656-.0078125-8.132812 3.554688-8.25 8.027344v61.019531c0 .625-.25 1.277344-.25 1.953125s.25 1.328125.25 1.953125v16.230469l-42-.28125v-61.816406c0-4.417969-4.050781-8.085938-8.46875-8.085938h-28.421875c-35.871094-.019531-65.414063 28.171875-67.0703125 64h-.0390625v217h.105469c-.0820315 2-.105469 3.078125-.105469 4.445312v.117188c0 37.0625 30.046875 67.4375 67.117188 67.4375h284.882812v79.972656c-.074219 2.089844.703125 4.121094 2.148438 5.632813 1.445312 1.511719 3.441406 2.375 5.535156 2.394531h50.445312c28.691406-.09375 51.894532-23.390625 51.871094-52.082031v-267c0-27.554688-22.285156-49.964844-49.492188-49.964844zm-188.507812-74.953125v267h-62v-44h8c4.417969 0 8-3.582031 8-8s-3.582031-8-8-8h-8v-24h8c4.417969 0 8-3.582031 8-8s-3.582031-8-8-8h-8v-24h8c4.417969 0 8-3.582031 8-8s-3.582031-8-8-8h-8v-24h8c4.417969 0 8-3.582031 8-8s-3.582031-8-8-8h-8v-24h8c4.417969 0 8-3.582031 8-8s-3.582031-8-8-8h-8v-47zm-208 70.351562c-.050781-28.289062 22.828125-51.273437 51.117188-51.351562h20.882812v202h-20.824219c-19.78125.035156-38.523437 8.847656-51.175781 24.050781zm51.125 269.648438c-28.238281 0-51.125-23.183594-51.125-51.429688v-.113281c0-28.222656 22.960938-51.457031 51.183594-51.457031h28.347656c4.417969 0 8.46875-3.285156 8.46875-7.699219v-140.402343l42 .285156v3.863281c0 .625-.25 1.277344-.25 1.953125s.25 1.324219.25 1.953125v36.09375c0 .625-.25 1.277344-.25 1.953125s.25 1.324219.25 1.953125v36.09375c0 .625-.25 1.277344-.25 1.953125s.25 1.324219.25 1.953125v36.09375c0 .625-.25 1.277344-.25 1.953125s.25 1.324219.25 1.953125v58.074219c.121094 4.460937 3.789062 8.003906 8.25 7.972656h78c2.09375-.003906 4.097656-.851562 5.554688-2.351562 1.460937-1.5 2.25-3.527344 2.195312-5.621094v-185.21875l172.453125 1.144531c18.4375 0 33.546875 15.234375 33.546875 33.964844v229.417969c-9.679688-9.234376-22.558594-14.371094-35.9375-14.335938zm378.875 51.921875c.03125 19.863281-16.019531 36-35.882812 36.078125h-42.117188v-72h42.046875c19.804687-.058594 35.90625 15.957031 35.953125 35.761719zm0 0"/><path d="m417 335.378906v-19.777344c.046875-3.851562-.792969-7.65625-2.460938-11.125l-21.789062-44.476562h10.25v3c0 4.417969 3.582031 8 8 8s8-3.582031 8-8v-22.257812c0-4.417969-3.582031-8-8-8s-8 3.582031-8 8v3.257812h-18.121094l-23.925781-48.753906c8.101563-9.144532 10.8125-21.871094 7.132813-33.523438-3.675782-11.652344-13.199219-20.519531-25.085938-23.355468v-10.199219c0-4.417969-3.582031-8-8-8s-8 3.582031-8 8v10.199219c-11.902344 2.84375-21.4375 11.730468-25.101562 23.40625-3.667969 11.675781-.925782 24.417968 7.21875 33.554687l-23.933594 48.671875h-18.183594v-3.257812c0-4.417969-3.582031-8-8-8s-8 3.582031-8 8v22.257812c0 4.417969 3.582031 8 8 8s8-3.582031 8-8v-3h10.300781l-21.828125 44.46875c-1.671875 3.472656-2.519531 7.285156-2.472656 11.140625v19.769531c0 4.417969 3.582031 8 8 8s8-3.582031 8-8v-19.769531c-.050781-1.402344.230469-2.796875.824219-4.066406l25.3125-51.542969h79.78125l25.261719 51.542969c.589843 1.269531.871093 2.660156.820312 4.058593v19.777344c0 4.417969 3.582031 8 8 8s8-3.582031 8-8zm-82-181.953125c10.328125 0 18.699219 8.375 18.699219 18.703125 0 10.324219-8.371094 18.699219-18.699219 18.699219s-18.699219-8.375-18.699219-18.699219c.011719-10.324218 8.375-18.691406 18.699219-18.703125zm-31.976562 90.574219 19.375-39.429688c8.148437 3.09375 17.148437 3.09375 25.292968 0l19.355469 39.429688zm0 0"/></svg>