<svg height="496pt" viewBox="-109 0 496 496.58249" width="496pt" xmlns="http://www.w3.org/2000/svg"><path d="m240.664062 136.238281c-1.320312-1.761719-3.398437-2.796875-5.601562-2.796875s-4.277344 1.035156-5.597656 2.796875l-10.480469 14.023438c-5.757813 7.6875-10.679687 15.96875-14.6875 24.699219v-22.03125c-.105469-46.148438-15.082031-91.035157-42.703125-128.007813l-16.609375-22.121094c-1.324219-1.761719-3.402344-2.800781-5.609375-2.800781-2.203125 0-4.28125 1.039062-5.605469 2.800781l-16.699219 22.121094c-27.640624 36.96875-42.640624 81.851563-42.773437 128.011719v22.316406c-3.996094-8.839844-8.941406-17.21875-14.75-24.988281l-10.464844-14.023438c-1.3125-1.761719-3.382812-2.796875-5.582031-2.796875-2.195312 0-4.265625 1.035156-5.578125 2.796875l-10.292969 14.023438c-17.765625 23.898437-27.351562 52.890625-27.332031 82.667969v251.910156c-.082031 1.765625.585937 3.480468 1.832031 4.730468 1.25 1.246094 2.96875 1.910157 4.730469 1.824219h73.34375c3.867187 0 7.09375-2.6875 7.09375-6.554687v-90.136719l6.015625 35.652344c.53125 3.398437 3.410156 5.9375 6.851562 6.039062h1.960938c-.085938 1-.144531 2.238281-.148438 3.46875 0 29.414063 22.558594 54.261719 34.773438 56.699219.453125.089844.910156-.171875 1.375-.171875h2.140625c.453125.066406.914063.085937 1.371094.0625 12.363281-2.472656 35.199219-27.546875 35.199219-56.914063 0-.050781 0 .167969 0 .117188-.023438-1.175781-.085938-2.265625-.160157-3.265625h1.753907c3.441406-.101563 6.320312-2.636719 6.851562-6.039063l6.015625-35.65625v90.140626c0 3.867187 3.230469 6.554687 7.09375 6.554687h73.34375c1.765625.085937 3.480469-.578125 4.730469-1.824219s1.914062-2.960937 1.832031-4.726562v-251.910156c.019531-29.78125-9.570313-58.769532-27.335937-82.667969zm-112.394531-102.914062 11.042969-14.65625 11.054688 14.65625c25.816406 34.542969 39.820312 76.480469 39.929687 119.605469v43.863281c-9-20.242188-23.648437-40.632813-47.519531-54.125-2.179688-1.210938-4.828125-1.210938-7.007813 0-23.75 13.425781-38.472656 33.675781-47.472656 53.820312v-43.554687c.128906-43.128906 14.144531-85.070313 39.972656-119.609375zm-89.433593 125.335937 4.804687-6.554687 4.910156 6.554687c16.015625 21.453125 24.695313 47.496094 24.746094 74.269532v68.140624c-2 2.933594-3.226563 5.710938-5.308594 8.257813l-32.523437 39.765625c-10.582032 12.964844-16.367188 29.183594-16.386719 45.917969l-.007813 40.375c.003907 2.898437 1.792969 5.496093 4.5 6.539062 2.703126 1.042969 5.773438.316407 7.722657-1.832031l42.003906-46.183594v53.484375h-59v-214.464843c-.023437-26.75 8.582031-52.796876 24.539063-74.269532zm-24.539063 318.734375v-16h59v16zm148.542969-37.65625c-.042969 23.027344-17.929688 40.65625-23.488282 42.65625h-.308593c-5.472657-2-23.066407-19.648437-23.066407-42.71875.003907-1.097656.070313-2.191406.203126-3.28125h46.464843c.09375 1 .167969 2.09375.195313 3.34375zm24.441406-80.726562c-2.59375.847656-4.496094 3.066406-4.9375 5.761719l-9.816406 57.621093h-66.457032l-9.820312-57.621093c-.445312-2.667969-2.355469-4.851563-4.9375-5.652344-2.523438-.769532-5.261719-.003906-7.023438 1.957031l-50.992187 56.191406v-22.261719c-.027344-13.492187 4.597656-26.582031 13.101563-37.058593l32.441406-39.753907c8.183594-10.042968 12.652344-22.601562 12.648437-35.554687-.007812-28.5-.058593-31.980469-.269531-35.238281.066406-23.019532 10.300781-66.984375 48.039062-90.5 37.859376 23.59375 48.039063 67.765625 48.039063 90.71875v35.085937c.03125 12.914063 4.496094 25.425781 12.652344 35.445313l32.421875 39.816406h-.101563c8.453125 10.460938 13.054688 23.507812 13.027344 36.957031v22.34375l-50.988281-56.246093c-1.753906-1.976563-4.492188-2.761719-7.027344-2.011719zm18.015625 118.382812v-16h59v16zm59-30h-59v-53.484375l42.007813 46.183594c1.335937 1.460938 3.226562 2.292969 5.207031 2.292969.828125 0 1.648437-.160157 2.414062-.46875 2.675781-1.054688 4.417969-3.65625 4.371094-6.53125v-40.460938c.027344-16.667969-5.679687-32.839843-16.160156-45.800781h.058593l-32.417968-39.816406c-2.179688-2.675782-3.480469-5.613282-5.480469-8.714844v-67.664062c.070313-26.777344 8.769531-52.820313 24.800781-74.269532l4.9375-6.554687 4.710938 6.554687c15.960937 21.472656 24.570312 47.515625 24.550781 74.269532zm0 0"/><path d="m139.296875 227.449219c-13.246094.015625-23.984375 10.753906-24 24v96c.003906 1.851562.742187 3.625 2.058594 4.929687 1.3125 1.304688 3.09375 2.027344 4.941406 2.015625h34c1.851563.011719 3.632813-.710937 4.945313-2.015625 1.3125-1.304687 2.054687-3.078125 2.054687-4.929687v-96c-.015625-13.246094-10.75-23.984375-24-24zm10 112.945312h-20v-88.945312c0-5.519531 4.476563-10 10-10s10 4.480469 10 10zm0 0"/></svg>