<svg height="484pt" viewBox="-64 0 484 484.00185" width="484pt" xmlns="http://www.w3.org/2000/svg"><path d="m329.648438 64h-64.449219c-3.386719-17.367188-18.566407-29.925781-36.261719-30h-9.4375c-1.144531-19-17.242188-34-36.875-34h-8.800781c-19.628907 0-35.726563 15-36.875 34h-9.4375c-17.695313.074219-32.875 12.632812-36.265625 30h-64.894532c-14.601562.125-26.3710932 12.011719-26.351562 26.617188v367.398437c.015625 6.949219 2.808594 13.609375 7.757812 18.488281 4.949219 4.878906 11.644532 7.578125 18.59375 7.496094h303.300782c6.949218.082031 13.644531-2.617188 18.59375-7.5 4.949218-4.878906 7.738281-11.535156 7.753906-18.484375v-367.402344c.019531-14.601562-11.746094-26.488281-26.351562-26.613281zm-155.824219-48h8.800781c10.800781 0 19.71875 8 20.828125 18h-50.453125c1.101562-10 10.019531-18 20.824219-18zm-66.824219 55.273438c0-11.546876 8.957031-21.273438 20.507812-21.273438h101.429688c11.652344.15625 21.023438 9.625 21.0625 21.273438v31.726562h-143zm150.886719 47.726562c4.476562-.078125 8.074219-3.707031 8.113281-8.179688v-2.820312h41v328h-258v-328h42v2.820312c0 4.417969 3.144531 8.179688 7.5625 8.179688zm82.113281 339.015625c-.007812 2.707031-1.113281 5.296875-3.066406 7.179687-1.949219 1.878907-4.578125 2.890626-7.285156 2.804688h-303.300782c-2.707031.085938-5.332031-.925781-7.28125-2.804688-1.949218-1.882812-3.054687-4.472656-3.066406-7.179687v-367.402344c-.027344-5.769531 4.582031-10.5 10.351562-10.613281h64.648438v12h-50.265625c-2.042969-.097656-4.035156.652344-5.5 2.078125s-2.273437 3.394531-2.234375 5.441406v344.050781c0 4.421876 3.316406 8.429688 7.734375 8.429688h274.535156c4.417969 0 7.730469-4.007812 7.730469-8.429688v-344.050781c.042969-2.046875-.765625-4.015625-2.230469-5.441406-1.46875-1.425781-3.457031-2.175781-5.5-2.078125h-49.269531v-12h63.648438c5.773437.113281 10.382812 4.84375 10.351562 10.617188zm0 0"/><path d="m77.519531 360h90.601563c4.417968 0 8-3.582031 8-8s-3.582032-8-8-8h-90.601563c-4.417969 0-8 3.582031-8 8s3.582031 8 8 8zm0 0"/><path d="m69.519531 388c0 4.417969 3.582031 8 8 8h200.960938c4.417969 0 8-3.582031 8-8s-3.582031-8-8-8h-200.960938c-4.417969 0-8 3.582031-8 8zm0 0"/><path d="m271 149c0-4.417969-3.582031-8-8-8h-171c-4.417969 0-8 3.582031-8 8v157c0 4.417969 3.582031 8 8 8h171c4.417969 0 8-3.582031 8-8zm-113 8h40v23.460938l-17.421875-6.140626c-1.679687-.601562-3.511719-.601562-5.191406 0l-17.386719 6.140626zm-58 0h42v34.746094c-.03125 2.585937 1.199219 5.019531 3.300781 6.527344 2.101563 1.503906 4.804688 1.882812 7.242188 1.019531l25.476562-8.945313 25.484375 8.945313c.851563.300781 1.742188.453125 2.644532.453125 1.632812 0 3.226562-.515625 4.554687-1.472656 2.09375-1.511719 3.328125-3.945313 3.296875-6.527344v-34.746094h42v141h-156zm0 0"/><path d="m135.042969 243h56.289062c4.417969 0 8-3.582031 8-8s-3.582031-8-8-8h-56.289062c-4.417969 0-8 3.582031-8 8s3.582031 8 8 8zm0 0"/><path d="m220.957031 257h-85.914062c-4.417969 0-8 3.582031-8 8s3.582031 8 8 8h85.914062c4.417969 0 8-3.582031 8-8s-3.582031-8-8-8zm0 0"/></svg>