<?xml version="1.0"?>
<svg xmlns="http://www.w3.org/2000/svg" id="Layer_1" data-name="Layer 1" viewBox="0 0 512 512" width="512" height="512"><title>Setting</title><path d="M247.108,281.649l-54.577,51.517L166.465,306.4A8,8,0,0,0,155,317.564l31.561,32.407a8,8,0,0,0,11.223.236l60.305-56.923a8,8,0,1,0-10.983-11.635Z"/><path d="M466.207,219H406.6a8,8,0,0,0,0,16h59.611a8,8,0,0,0,0-16Z"/><path d="M406.6,213h28.118a8,8,0,0,0,0-16H406.6a8,8,0,0,0,0,16Z"/><path d="M448.607,13.386A7.931,7.931,0,0,0,442.84,11H284.289A8.134,8.134,0,0,0,276,18.859v159.29a166.511,166.511,0,0,0-30.768-10.5l-5.338-30.2a7.8,7.8,0,0,0-7.8-6.453H181.257a7.876,7.876,0,0,0-7.876,6.453l-5.415,30.3a170.333,170.333,0,0,0-44.066,17.1L96.769,166.769a8,8,0,0,0-9.934.84L50.657,201.854a8,8,0,0,0-.923,10.577L68.4,237.563a148.507,148.507,0,0,0-17.789,41.228l-32.119,5.183a7.788,7.788,0,0,0-6.489,7.9v48.111a7.788,7.788,0,0,0,6.492,7.9l32.273,5.18a152.348,152.348,0,0,0,17.71,41.2L49.764,419.431a8,8,0,0,0,.909,10.577l36.154,34.24a8,8,0,0,0,9.93.849l27.109-18.052a165.892,165.892,0,0,0,44.1,17.158l5.409,30.272A7.939,7.939,0,0,0,181.251,501h50.82a7.938,7.938,0,0,0,7.876-6.525l5.415-30.332a170.33,170.33,0,0,0,44.076-17.129l27.13,18.074a8,8,0,0,0,9.934-.845l36.162-34.237a8,8,0,0,0,.909-10.595l-19.124-25.605a148.485,148.485,0,0,0,17.776-41.2l32.935-5.183a8.078,8.078,0,0,0,6.84-7.9V291.4c0-.03-.179-.4-.179-.4h90.67A7.335,7.335,0,0,0,500,283.309V70.522a7.694,7.694,0,0,0-1.987-5.508ZM451,38.729,473.707,63H451ZM300.281,291a98.177,98.177,0,0,1,3.176,24.773A97.343,97.343,0,1,1,276,248.7v34.613c0,4.419,3.871,7.691,8.289,7.691Zm54.741,2.131L386,298.222v34.463l-31.452,4.949a8.053,8.053,0,0,0-6.6,6.158A132.743,132.743,0,0,1,328.1,389.624a8,8,0,0,0,.2,9.282l18.2,24.377-26.368,24.964-25.965-17.289a8,8,0,0,0-8.544-.2,154.579,154.579,0,0,1-48.79,18.917,7.921,7.921,0,0,0-6.285,6.366L225.372,485H187.95l-5.177-28.963a7.959,7.959,0,0,0-6.322-6.408,150.071,150.071,0,0,1-48.721-18.873,8,8,0,0,0-8.576.194L93.191,448.242l-26.38-24.976L84.563,399.35a8,8,0,0,0,.218-9.226,136.746,136.746,0,0,1-19.846-45.907,7.713,7.713,0,0,0-6.291-6.116L28,333.162V298.694l30.639-4.947a7.854,7.854,0,0,0,6.419-6.155,132.67,132.67,0,0,1,19.761-45.835,8,8,0,0,0-.226-9.264l-17.766-23.9L93.214,183.6l25.96,17.289a8,8,0,0,0,8.54.205A154.627,154.627,0,0,1,176.5,182.184a7.837,7.837,0,0,0,6.284-6.293L187.956,147h37.435l5.176,28.891a7.759,7.759,0,0,0,6.177,6.372A143.884,143.884,0,0,1,276,195.9v31.311c-19-15.458-44.117-24.077-69.478-24.077a112.79,112.79,0,0,0,.109,225.58c62.192,0,112.808-50.752,112.808-112.945a114.235,114.235,0,0,0-2.7-24.773h34.094A8.649,8.649,0,0,0,355.022,293.131ZM292,275V27H435V70.522c0,4.419,3.422,8.478,7.84,8.478H484V275Z"/><path d="M359.186,202.507l-12.973,12.134-4.246-5.257a8,8,0,1,0-12.447,10.054l9.651,11.949a8,8,0,0,0,5.666,2.953c.186.014.372.02.558.02a8,8,0,0,0,5.464-2.157l19.256-18.01a8,8,0,0,0-10.929-11.686Z"/><path d="M350.693,169.887a45.979,45.979,0,1,0,45.979,45.978A46.031,46.031,0,0,0,350.693,169.887Zm0,75.957a29.979,29.979,0,1,1,29.979-29.979A30.012,30.012,0,0,1,350.693,245.844Z"/><path d="M466.207,118H406.6a8,8,0,0,0,0,16h59.611a8,8,0,0,0,0-16Z"/><path d="M406.6,112h28.118a8,8,0,0,0,0-16H406.6a8,8,0,0,0,0,16Z"/><path d="M350.693,159.582a44.756,44.756,0,1,0-44.755-44.756A44.807,44.807,0,0,0,350.693,159.582Zm0-73.511a28.756,28.756,0,1,1-28.755,28.755A28.788,28.788,0,0,1,350.693,86.071Z"/><path d="M334.654,130.865a8,8,0,0,0,11.315,0l4.724-4.725,4.725,4.725a8,8,0,1,0,11.314-11.314l-4.724-4.725,4.724-4.724a8,8,0,1,0-11.314-11.314l-4.725,4.725-4.724-4.725A8,8,0,0,0,334.654,110.1l4.725,4.724-4.725,4.725A8,8,0,0,0,334.654,130.865Z"/></svg>
