<?xml version="1.0"?>
<svg xmlns="http://www.w3.org/2000/svg" id="Layer_1" data-name="Layer 1" viewBox="0 0 512 512" width="512" height="512"><title>Radio</title><path d="M435.732,183H137.654L262.728,93.943a34.986,34.986,0,1,0-10.083-12.464L110.077,183H76.268A46.344,46.344,0,0,0,30,229.073V434.751A46.5,46.5,0,0,0,76.268,481H435.732A46.5,46.5,0,0,0,482,434.751V229.073A46.344,46.344,0,0,0,435.732,183ZM284.246,47.249a19.07,19.07,0,1,1-19.069,19.069A19.09,19.09,0,0,1,284.246,47.249ZM465,435a30,30,0,0,1-30,30H76a30,30,0,0,1-30-30V229a30,30,0,0,1,30-30H435a30,30,0,0,1,30,30Z"/><path d="M428,281.308A43.308,43.308,0,0,0,384.692,238H327.308A43.308,43.308,0,0,0,284,281.308V382.692A43.308,43.308,0,0,0,327.308,426h57.384A43.308,43.308,0,0,0,428,382.692ZM412,382.692A27.308,27.308,0,0,1,384.692,410H327.308A27.308,27.308,0,0,1,300,382.692V281.308A27.308,27.308,0,0,1,327.308,254h57.384A27.308,27.308,0,0,1,412,281.308Z"/><path d="M219,325H89a8,8,0,0,0,0,16H219a8,8,0,0,0,0-16Z"/><path d="M219,289H89a8,8,0,0,0,0,16H219a8,8,0,0,0,0-16Z"/><path d="M219,254H89a8,8,0,0,0,0,16H219a8,8,0,0,0,0-16Z"/><path d="M219,360H89a8,8,0,0,0,0,16H219a8,8,0,0,0,0-16Z"/><path d="M219,395H89a8,8,0,0,0,0,16H219a8,8,0,0,0,0-16Z"/></svg>
