<svg height="484pt" viewBox="-143 0 484 484.496" width="484pt" xmlns="http://www.w3.org/2000/svg"><path d="m197.359375 49.976562-.011719-.058593c-6.0625-30.042969-27.921875-49.457031-55.691406-49.457031-13.5 0-27.933594 4.835937-42.054688 14.039062-14.292968-9.625-28.539062-14.5-42.421874-14.5-27.941407 0-49.714844 19.628906-55.472657 49.992188-8.0625 42 16.683594 97.414062 89.832031 127.554687v40.4375c-1.453124-1.730469-2.992187-3.625-4.625-5.246094-14.9375-14.8125-36.078124-23.242187-57.898437-23.242187h-16.820313c-4.417968 0-7.65625 4.015625-7.65625 8.433594v15.066406c0 39.222656 34.878907 71.5 78.171876 71.5h8.828124v47.539062c-1.453124-1.730468-2.992187-3.648437-4.625-5.269531-14.9375-14.816406-36.078124-23.269531-57.898437-23.269531h-16.820313c-4.417968 0-7.65625 4.0625-7.65625 8.480468v15.0625c0 39.226563 34.878907 71.457032 78.171876 71.457032h8.828124v28h-20.523437c-27.597656.03125-49.964844 22.398437-50 50 0 4.417968 3.582031 8 8 8h141.042969c4.417968 0 8-3.582032 8-8-.03125-27.601563-22.398438-49.96875-50-50h-20.519532v-28h8.824219c43.292969 0 78.175781-32.230469 78.175781-71.457032v-15.0625c0-4.417968-3.238281-8.480468-7.65625-8.480468h-16.824218c-24.035156-.097656-46.898438 10.375-62.519532 28.644531v-47.644531h8.824219c43.292969 0 78.175781-32.28125 78.175781-71.507813v-15.058593c0-4.417969-3.238281-8.433594-7.65625-8.433594h-16.824218c-25.488282 0-48.167969 11.5-62.519532 28.601562v-40.574218c73.148438-30.726563 97.890626-85.976563 89.820313-127.546876zm-36.253906 418.519532h-123.136719c3.605469-14 17.054688-26 33.046875-26h57.042969c15.992187 0 29.441406 12 33.046875 26zm-143.683594-415.5c4.328125-22.816406 19.5625-36.988282 39.757813-36.988282 11.714843 0 24.707031 5.070313 37.570312 14.667969 2.808594 2.089844 6.648438 2.117188 9.484375.058594 12.863281-9.339844 25.804687-14.273437 37.421875-14.273437 20.113281 0 35.4375 14.019531 40 36.601562 9.535156 49.207031-34.265625 90.847656-82.128906 110.472656-66.265625-26.558594-89.003906-74.59375-82.105469-110.539062zm3.117187 160v-7.5h8.546876c17.675781 0 34.628906 6.773437 46.5625 18.605468 10.019531 9.703126 15.742187 23.015626 15.890624 36.964844v7.429688h-8.828124c-34.472657 0-62.171876-25.101563-62.171876-55.5zm0 114.046875v-7.546875h8.546876c17.675781 0 34.628906 6.800781 46.5625 18.632812 10.023437 9.710938 15.742187 23.027344 15.890624 36.984375v7.382813h-8.828124c-34.472657 0-62.171876-25.054688-62.171876-55.457032zm149.519532-7.546875h8.480468v7.542968c0 30.398438-27.703124 55.457032-62.175781 55.457032h-8.824219v-7.382813c0-30.402343 28.042969-55.617187 62.519532-55.617187zm0-114h8.480468v7.492187c0 30.40625-27.703124 55.507813-62.175781 55.507813h-8.824219v-7.429688c0-30.402344 28.042969-55.570312 62.519532-55.570312zm0 0"/><path d="m103.195312 137.632812c.160157-.054687.320313-.113281.476563-.175781 17.703125-7.171875 31.511719-17.808593 39.9375-30.753906 7.675781-11.800781 10.59375-25.050781 8.214844-37.316406l-.015625-.058594c-3.390625-16.8125-15.742188-27.675781-31.46875-27.675781-6.722656 0-13.804688 2.128906-20.734375 6.203125-7.003907-4.265625-14.046875-6.425781-20.988281-6.425781-15.835938 0-28.148438 10.988281-31.371094 27.976562-4.34375 22.640625 8.878906 52.46875 48.207031 68.074219.136719.054687.273437.101562.414063.152343 2.371093.851563 4.960937.851563 7.328124 0zm-40.234374-65.230468c1.777343-9.378906 7.632812-14.972656 15.65625-14.972656 4.910156 0 10.488281 2.226562 16.136718 6.4375 2.804688 2.09375 6.648438 2.121093 9.480469.0625 5.574219-4.046876 11.300781-6.277344 16.105469-6.277344 7.882812 0 13.925781 5.675781 15.78125 14.8125 3.019531 15.644531-7.179688 36.785156-36.601563 49.390625-29.417969-12.359375-39.601562-33.597657-36.558593-49.453125zm0 0"/></svg>