<svg height="434pt" viewBox="-1 0 434 434.00013" width="434pt" xmlns="http://www.w3.org/2000/svg"><path d="m366.289062 5.03125c-1.214843-3.039062-4.15625-5.03125-7.429687-5.03125h-287.042969c-3.285156 0-6.238281 2.011719-7.441406 5.066406l-63.65625 161.121094c-.417969.925781-.6640625 1.917969-.71875 2.933594v256.878906c.152344 4.480469 3.839844 8.023438 8.324219 8h415.351562c4.484375.023438 8.171875-3.519531 8.324219-8v-255.878906c-.054688-1.027344-.304688-2.035156-.734375-2.972656zm46.1875 158.617188c-8.402343 1.640624-13.953124 5.015624-19 8.101562-6.203124 3.789062-11.082031 6.769531-21.832031 6.761719-10.742187-.027344-15.625-3.046875-21.800781-6.867188-4.257812-2.839843-8.851562-5.132812-13.683594-6.824219l-40.660156-148.820312h57.941406zm-208.476562-.421876c-8 1.664063-13.625 4.976563-18.59375 8.019532-6.167969 3.777344-11.03125 6.753906-21.675781 6.753906h-.136719c-10.738281 0-15.617188-2.980469-21.800781-6.800781-6.988281-4.320313-14.90625-9.199219-30.175781-9.199219h-.171876c-.097656 0-.199218-.050781-.304687-.050781l40.613281-145.949219h52.246094zm16-147.226562h58.917969l40 146.398438c-14.769531.125-22.578125 4.753906-29.472657 8.972656-6.171874 3.777344-11.046874 6.628906-21.691406 6.628906h-.140625c-10.738281 0-15.632812-2.910156-21.8125-6.734375-6.28125-3.886719-13.800781-8.09375-25.800781-8.960937zm-142.738281 0h57.882812l-41.390625 148.710938c-4.335937 1.683593-8.476562 3.832031-12.351562 6.410156-6.167969 3.777344-11.046875 6.878906-21.691406 6.878906h-.136719c-10.660157 0-15.300781-3.128906-21.179688-6.90625-4.941406-3.183594-10.382812-6.722656-18.921875-8.390625zm266.738281 402h-86v-160h86zm16 0v-168.253906c-.03125-2.101563-.902344-4.109375-2.421875-5.5625-1.519531-1.457032-3.558594-2.242188-5.660156-2.183594h-102.1875c-2.066407-.046875-4.0625.753906-5.523438 2.21875-1.460937 1.464844-2.257812 3.460938-2.207031 5.527344v168.253906h-226v-239.671875c6 1.097656 9.367188 3.511719 13.578125 6.21875 6.773437 4.359375 14.613281 9.453125 29.957031 9.453125h.171875c15.15625 0 23.066407-4.960938 30.046875-9.230469 6.199219-3.792969 11.085938-6.847656 21.828125-6.820312 10.742188.023437 15.621094 3.015625 21.800781 6.835937 6.988282 4.324219 14.910157 9.207032 30.175782 9.242188 15.230468.023437 23.210937-4.898438 30.21875-9.1875 6.167968-3.777344 11.046875-6.839844 21.691406-6.839844h.136719c10.738281 0 15.617187 3.113281 21.800781 6.9375 6.988281 4.320312 14.910156 9.253906 30.175781 9.292969 15.242188.058593 23.210938-5 30.21875-9.292969 6.167969-3.773438 11.046875-6.9375 21.691407-6.9375h.136718c10.738282 0 15.621094 3.480469 21.800782 7.300781 6.988281 4.320313 14.910156 8.699219 30.179687 9.699219h.171875c15.15625 0 23.226562-5.085938 30.210938-9.355469 4.40625-2.703125 8.011718-5.222656 14.011718-6.3125v238.667969zm0 0"/><path d="m183 268c0-4.417969-3.582031-8-8-8h-113c-4.417969 0-8 3.582031-8 8v97c0 4.417969 3.582031 8 8 8h113c4.417969 0 8-3.582031 8-8zm-16 41h-41v-33h41zm-57-33v33h-40v-33zm-40 49h40v32h-40zm56 32v-32h41v32zm0 0"/></svg>