<?xml version="1.0"?>
<svg xmlns="http://www.w3.org/2000/svg" id="Layer_1" data-name="Layer 1" viewBox="0 0 512 512" width="512" height="512"><title>Web Rupees</title><path d="M492,97.542C492,74.94,474.3,57,452.548,57H59.448C37.7,57,20,74.94,20,97.542V414.458C20,437.06,37.7,455,59.448,455h393.1C474.3,455,492,437.06,492,414.458V142.35c0-.026,0-.051,0-.077s0-.051,0-.077ZM476,414.458C476,428.238,465.478,439,452.548,439H59.448C46.519,439,36,428.238,36,414.458V150H476ZM476,134H36V97.542C36,83.762,46.519,73,59.448,73h393.1C465.478,73,476,83.762,476,97.542Z"/><path d="M164.276,96H122.344a8,8,0,0,0,0,16h41.932a8,8,0,0,0,0-16Z"/><path d="M96.138,96H54.206a8,8,0,0,0,0,16H96.138a8,8,0,0,0,0-16Z"/><path d="M256,393.159A97.159,97.159,0,1,0,158.841,296,97.269,97.269,0,0,0,256,393.159Zm0-178.318A81.159,81.159,0,1,1,174.841,296,81.251,81.251,0,0,1,256,214.841Z"/><path d="M256,423.441A127.441,127.441,0,1,0,128.559,296,127.586,127.586,0,0,0,256,423.441Zm0-238.882A111.441,111.441,0,1,1,144.559,296,111.567,111.567,0,0,1,256,184.559Z"/><path d="M218.018,279a8,8,0,0,0,8,8h32.958c-2.931,6-8.9,9-15.8,9H226.018a8.257,8.257,0,0,0-5.5,14.165L263.41,350.75A7.981,7.981,0,1,0,274.4,339.172l-28.391-26.7A33.5,33.5,0,0,0,275.945,287h10.037a8,8,0,0,0,0-16H275.938a30.243,30.243,0,0,0-4.085-10h14.129a8,8,0,0,0,0-16H226.018a8,8,0,0,0,0,16h17.159a17.555,17.555,0,0,1,15.8,10H226.018A8,8,0,0,0,218.018,279Z"/></svg>
