<svg id="Layer_1" height="512" viewBox="0 0 512 512" width="512" xmlns="http://www.w3.org/2000/svg" data-name="Layer 1"><path d="m99.661 198h99.692a6 6 0 0 0 0-12h-99.692a6 6 0 0 0 0 12z"/><path d="m293.937 252h-194.276a6 6 0 0 0 0 12h194.276a6 6 0 0 0 0-12z"/><path d="m293.937 318h-194.276a6 6 0 0 0 0 12h194.276a6 6 0 0 0 0-12z"/><path d="m388.658 18.868a108.01 108.01 0 0 0 -106.047 87.132h-261.411c-3.313 0-6.2 2.3-6.2 5.612v364.515a11.742 11.742 0 0 0 7 10.558 12.963 12.963 0 0 0 13.714-1.7l42.44-35.385a.892.892 0 0 1 1.055-.063l50.864 41.05a12.889 12.889 0 0 0 16.025-.1l50.146-40.916a.872.872 0 0 1 1.038-.056l50.286 41.029a12.828 12.828 0 0 0 7.978 2.785 13.022 13.022 0 0 0 8.044-2.8l50.718-40.941a.872.872 0 0 1 1.038-.052l42.493 35.445a12.536 12.536 0 0 0 13.464 1.7 11.46 11.46 0 0 0 6.7-10.558v-241.659c4 .32 7 .49 10.46.49 59.629 0 108.24-48.414 108.24-108.043a108.1 108.1 0 0 0 -108.045-108.043zm-22.658 456.955c0 .091-.4.169-.672-.058l-42.468-35.506a12.792 12.792 0 0 0 -16.07-.064l-50.69 40.94a.856.856 0 0 1 -1.025.054l-50.282-41.029a12.869 12.869 0 0 0 -16.067.057l-50.141 40.915a.878.878 0 0 1 -1.04.058l-50.856-41.05a12.861 12.861 0 0 0 -16.123.18l-42.593 35.445c-.276.228-.973.15-.973.058v-357.823h253.914c-.257 3-.593 5.908-.593 9.008a107.919 107.919 0 0 0 85.679 105.637zm22.658-252.869a96.14 96.14 0 1 1 96.141-96.14 96.248 96.248 0 0 1 -96.141 96.14z"/><path d="m388.658 83.292a20.475 20.475 0 0 1 20.452 20.452 6 6 0 1 0 12 0 32.5 32.5 0 0 0 -26.11-31.825v-7.919a6 6 0 0 0 -12 0v7.8a32.448 32.448 0 0 0 5.658 64.4 20.452 20.452 0 1 1 -20.451 20.451 6 6 0 0 0 -12 0 32.511 32.511 0 0 0 22.793 30.98v11.369a6 6 0 0 0 12 0v-10a32.447 32.447 0 0 0 -2.342-64.809 20.452 20.452 0 0 1 0-40.9z"/></svg>