<svg height="484pt" viewBox="-97 0 484 484" width="484pt" xmlns="http://www.w3.org/2000/svg"><path d="m152.761719 4.027344c-1.421875-2.417969-3.988281-3.9414065-6.792969-4.027344h-.035156c-2.792969.078125-5.351563 1.578125-6.789063 3.972656l-117.269531 188.449219c-27.148438 43.628906-29.160156 98.367187-5.289062 143.871094 23.871093 45.503906 70.054687 74.960937 121.378906 77.417969l.230468 62.113281c0 4.445312 3.554688 8.078125 8 8.175781h.03125c4.460938-.105469 8.007813-3.769531 7.972657-8.230469l-.234375-62.085937c69.550781-4.34375 126.085937-57.71875 134.414062-126.902344 3.9375-32.351562-3.015625-65.09375-19.769531-93.050781zm119.738281 280.785156c-7.808594 64.917969-63.148438 113.597656-128.53125 113.070312-34.074219-.09375-66.695312-13.816406-90.589844-38.105468l-.027344-.03125c-42.261718-42.261719-49.691406-108.128906-17.90625-158.742188l110.425782-177.363281 109.0625 178.484375c14.890625 24.839844 21.074218 53.9375 17.566406 82.6875zm0 0"/><path d="m213.574219 203h-9.929688v-38.695312c0-10.769532-8.730469-19.5-19.5-19.5s-19.5 8.730468-19.5 19.5v38.695312h-40v-38.695312c0-10.769532-8.730469-19.5-19.5-19.5s-19.5 8.730468-19.5 19.5v38.695312h-9.929687c-2.109375-.042969-4.148438.761719-5.664063 2.230469-1.515625 1.472656-2.382812 3.484375-2.40625 5.597656v38.59375c-.039062 6.660156 2.578125 13.0625 7.265625 17.792969 4.691406 4.730468 11.074219 7.398437 17.734375 7.414062 2.421875.011719 4.734375.992188 6.425781 2.71875 1.691407 1.730469 2.617188 4.066406 2.574219 6.488282v7.546874c0 10.253907 8.828125 18.617188 19.082031 18.617188h5.917969v61.363281c.015625 2.085938.871094 4.074219 2.378907 5.511719 1.507812 1.441406 3.53125 2.207031 5.613281 2.125h20.015625c2.082031.082031 4.109375-.683594 5.613281-2.125 1.507813-1.4375 2.367187-3.425781 2.378906-5.511719v-61.363281h5.917969c10.257812 0 19.082031-8.363281 19.082031-18.617188v-7.546874c-.042969-2.421876.882813-4.757813 2.574219-6.488282 1.691406-1.726562 4.007812-2.707031 6.425781-2.71875 6.664063-.015625 13.042969-2.683594 17.734375-7.414062 4.691406-4.730469 7.304688-11.132813 7.265625-17.792969v-38.59375c-.023437-2.113281-.886719-4.125-2.402343-5.597656-1.515626-1.46875-3.554688-2.273438-5.667969-2.230469zm-32.929688-38.695312c0-1.933594 1.566407-3.5 3.5-3.5 1.933594 0 3.5 1.566406 3.5 3.5v38.695312h-7zm-79 0c0-1.933594 1.566407-3.5 3.5-3.5 1.933594 0 3.5 1.566406 3.5 3.5v38.695312h-7zm45 198.695312h-4v-53h4zm59-113.578125c.042969 2.417969-.882812 4.753906-2.574219 6.484375-1.691406 1.730469-4.003906 2.710938-6.425781 2.722656-6.660156.015625-13.042969 2.683594-17.730469 7.410156-4.691406 4.730469-7.308593 11.132813-7.269531 17.796876v7.546874c0 1.433594-1.648437 2.617188-3.082031 2.617188h-47.835938c-1.433593 0-3.082031-1.183594-3.082031-2.617188v-7.546874c.039063-6.664063-2.574219-13.066407-7.265625-17.796876-4.691406-4.726562-11.074218-7.394531-17.734375-7.410156-2.417969-.011718-4.734375-.992187-6.425781-2.722656s-2.617188-4.066406-2.574219-6.484375v-30.421875h122zm0 0"/></svg>