<svg height="497pt" viewBox="0 0 497 497.34389" width="497pt" xmlns="http://www.w3.org/2000/svg"><path d="m495.589844 327.898438c-6.722656-33.332032-28.5-56.480469-57.191406-62.246094 2.964843-14.582032 4.457031-29.425782 4.460937-44.308594 0-89.523438-53.925781-170.234375-136.636719-204.496094-82.710937-34.257812-177.917968-15.320312-241.21875 47.980469-63.304687 63.304687-82.242187 158.511719-47.984375 241.21875 34.261719 82.710937 114.972657 136.640625 204.496094 136.640625 17.664063.007812 35.265625-2.09375 52.433594-6.257812 19.945312 23.148437 48.875 44.164062 88.132812 59.742187.140625.054687.28125.105469.421875.152344 3.59375 1.359375 7.558594 1.359375 11.152344 0 .160156-.054688.316406-.109375.472656-.175781 98.699219-39.988282 132.128906-113.289063 121.472656-168.191407zm-68.730469-106.554688c.003906 14.429688-1.503906 28.816406-4.5 42.929688-13.222656.316406-27.136719 4.195312-41.046875 11.382812l-3.976562-13.664062c-2.332032-8.003907-8.09375-14.558594-15.730469-17.898438-7.636719-3.335938-16.363281-3.109375-23.816407.617188l-15.578124 7.789062c-3.550782 1.777344-7.746094 1.695312-11.226563-.210938l-50.992187-27.945312c-4.667969-2.589844-7.105469-7.917969-6.015626-13.140625l12.1875-57.039063c.644532-2.949218 3.140626-5.128906 6.152344-5.367187l53.257813-3.992187c7.277343-.546876 13.855469-4.542969 17.695312-10.753907 3.839844-6.207031 4.476563-13.878906 1.710938-20.632812l-1.058594-2.585938c-3.648437-8.851562-12.417969-14.5-21.988281-14.160156l-36.25 1.398437c-2.324219.09375-4.433594-1.351562-5.191406-3.546874-.761719-2.199219.007812-4.632813 1.890624-6l21.277344-15.390626c2.726563-1.972656 4.949219-4.566406 6.484375-7.5625l11.867188-23.238281c62.523437 35.238281 104.847656 102.269531 104.847656 179.011719zm-60.238281 61.082031c-11.96875-8.050781-23.898438-13.535156-35.660156-16.410156l13.984374-6.992187c3.210938-1.605469 6.96875-1.703126 10.257813-.265626s5.769531 4.257813 6.773437 7.707032zm-58.847656-247.402343-11.882813 23.269531c-.378906.742187-.929687 1.386719-1.605469 1.875l-21.273437 15.390625c-7.597657 5.496094-10.703125 15.316406-7.640625 24.179687 3.058594 8.863281 11.558594 14.679688 20.929687 14.320313l36.246094-1.394532c2.863281-.113281 5.488281 1.578126 6.566406 4.230469l1.058594 2.582031c.824219 2.019532.636719 4.308594-.511719 6.164063-1.144531 1.851563-3.109375 3.046875-5.28125 3.207031l-53.261718 3.996094c-10.078126.796875-18.449219 8.101562-20.601563 17.980469l-12.1875 57.035156c-2.652344 12.148437 3.042969 24.585937 13.976563 30.511719l47.789062 26.195312c-24.484375 3.957032-44.121094 20.410156-54.164062 45.0625-1.414063-1.113281-3.011719-1.96875-4.71875-2.53125l-10.203126-3.285156c-1.4375-.464844-2.679687-1.394531-3.53125-2.644531-7.453124-10.941407-33.269531-39.097657-47.992187-54.910157-3.617187-3.878906-7.800781-7.191406-12.410156-9.8125l-34.988281-19.933593c-5.835938-3.300781-8.84375-10.015625-7.421876-16.570313l6.933594-32.347656c1.636719-7.527344 8.574219-12.691406 16.257813-12.097656l14.097656 1.132812c9.058594.730469 17.988281-2.503906 24.476563-8.863281 6.492187-6.359375 9.902343-15.222656 9.355468-24.292969l-.058594-.945312c-.960937-14.660156-11.914062-26.71875-26.417968-29.082032-3.507813-.558593-6.71875-2.3125-9.082032-4.964843l-40.441406-45.457031c57.667969-32.960938 127.730469-35.941407 187.988282-8zm-201.738282 16.617187 42.238282 47.472656c4.828124 5.414063 11.378906 8.996094 18.542968 10.132813 7.105469 1.15625 12.46875 7.066406 12.941406 14.25l.054688.945312c.269531 4.441406-1.398438 8.785156-4.578125 11.898438-3.179687 3.117187-7.554687 4.703125-11.988281 4.347656l-14.101563-1.136719c-15.679687-1.222656-29.851562 9.324219-33.1875 24.691407l-6.929687 32.347656c-2.90625 13.375 3.234375 27.085937 15.144531 33.828125l34.988281 19.929687c3.203125 1.824219 6.109375 4.121094 8.621094 6.816406 24.171875 25.949219 41.542969 45.765626 46.476562 53.011719 2.859376 4.1875 7.03125 7.304688 11.855469 8.867188l10.042969 3.234375c.976562.675781 2.898438 3.914062 3.152344 7.804687.152344 2.359375-.414063 3.714844-.835938 4.046875-14.234375 11.351563-32.53125 25.59375-45.371094 35.542969-8.53125 6.640625-14.007812 16.453125-15.175781 27.199219l-2.617187 24.570312c-14.03125-3.242187-27.679688-7.96875-40.714844-14.089844l-4.226562-13.257812c-.46875-1.46875-1.167969-2.851562-2.074219-4.097656l-47.074219-64.566406c-3.300781-4.527344-4.496094-10.257813-3.273438-15.730469 8.757813-39.253907 8.757813-40.554688 8.757813-41.808594 0-2.8125 0-3.320313-18.71875-35.5-9.25-15.898437-19.570313-33.398437-24.898437-42.410156-1.238282-2.085938-2.070313-4.386719-2.457032-6.785157l-7.195312-44.210937c15.566406-35.324219 40.714844-65.582031 72.601562-87.34375zm-89.863281 169.703125c-.007813-16.980469 2.09375-33.898438 6.257813-50.363281l2.40625 14.792969c.707031 4.363281 2.222656 8.554687 4.476562 12.359374 21.746094 36.785157 37.3125 63.628907 41.101562 70.855469-.664062 3.386719-2.574218 12.535157-8.085937 37.230469-2.21875 9.960938-.046875 20.394531 5.960937 28.640625l43.914063 60.238281c-59.738281-37.574218-96-103.183594-96.03125-173.753906zm205.34375 205.34375c-10.1875 0-20.363281-.753906-30.4375-2.257812l2.753906-25.859376c.699219-6.421874 3.96875-12.285156 9.0625-16.25 10.136719-7.851562 23.660157-18.375 35.9375-28.058593 1.191407 22.230469 8.933594 45.855469 24.308594 68.1875-13.695313 2.816406-27.640625 4.238281-41.625 4.238281zm146.878906 54.519531c-.117187.035157-.222656.066407-.316406.089844-.101563-.027344-.210937-.058594-.339844-.101563-90.035156-35.816406-120.867187-101.230468-111.46875-150.222656 6.007813-31.671875 27.265625-51.347656 55.476563-51.347656 16.386718 0 33.730468 6.742188 51.550781 20.03125 2.804687 2.09375 6.648437 2.121094 9.480469.0625 17.5625-12.746094 35.3125-19.484375 51.328125-19.484375 28.082031 0 49.460937 19.464844 55.792969 50.800781 13.019531 67.15625-46.574219 123.777344-111.503907 150.171875zm0 0"/></svg>