<svg height="476pt" viewBox="-40 0 476 476" width="476pt" xmlns="http://www.w3.org/2000/svg"><path d="m334.425781 31.089844c-1.5-1.886719-3.753906-3.015625-6.164062-3.089844h-30.507813l-14.558594-24.109375c-1.445312-2.402344-4.039062-3.8789062-6.847656-3.890625h-156.574218c-2.804688.0117188-5.402344 1.488281-6.847657 3.890625l-14.554687 24.109375h-30.507813c-2.410156.070312-4.667969 1.203125-6.167969 3.089844l-59.859374 72.449218c-1.976563 2.457032-2.394532 5.820313-1.074219 8.6875 1.300781 2.84375 4.109375 4.699219 7.238281 4.773438h30.0625v350.5625c0 4.417969 3.300781 8.4375 7.722656 8.4375h304.554688c4.417968 0 7.722656-4.019531 7.722656-8.4375v-350.5625h30.058594c3.121094-.054688 5.933594-1.890625 7.242187-4.726562 1.316407-2.859376.898438-6.21875-1.078125-8.667969zm-210.140625-15.089844h147.554688l26.320312 44h-200.199218zm43.777344 444h-75v-77.164062c0-20.710938 16.789062-37.5 37.5-37.5s37.5 16.789062 37.5 37.5zm174 0h-158v-77.164062c0-29.546876-23.953125-53.5-53.5-53.5s-53.5 23.953124-53.5 53.5v77.164062h-23v-343h288zm-317.0625-359 46.625-57h17.070312l-11.761718 19.648438c-1.496094 2.507812-1.539063 5.621093-.125 8.175781 1.40625 2.539062 4.066406 4.132812 6.96875 4.175781h228.566406c2.890625-.003906 5.550781-1.566406 6.96875-4.082031 1.417969-2.585938 1.371094-5.722657-.121094-8.265625l-11.765625-19.652344h17.070313l46.625 57zm0 0"/><path d="m143.0625 153c0-4.417969-3.582031-8-8-8h-55c-4.417969 0-8 3.582031-8 8v55c0 4.417969 3.582031 8 8 8h55c4.417969 0 8-3.582031 8-8zm-55 8h39v39h-39zm0 0"/><path d="m234.0625 153c0-4.417969-3.582031-8-8-8h-55c-4.417969 0-8 3.582031-8 8v55c0 4.417969 3.582031 8 8 8h55c4.417969 0 8-3.582031 8-8zm-55 8h39v39h-39zm0 0"/><path d="m325.0625 153c0-4.417969-3.582031-8-8-8h-55c-4.417969 0-8 3.582031-8 8v55c0 4.417969 3.582031 8 8 8h55c4.417969 0 8-3.582031 8-8zm-55 8h39v39h-39zm0 0"/><path d="m143.0625 247c0-4.417969-3.582031-8-8-8h-55c-4.417969 0-8 3.582031-8 8v55c0 4.417969 3.582031 8 8 8h55c4.417969 0 8-3.582031 8-8zm-55 8h39v39h-39zm0 0"/><path d="m234.0625 247c0-4.417969-3.582031-8-8-8h-55c-4.417969 0-8 3.582031-8 8v55c0 4.417969 3.582031 8 8 8h55c4.417969 0 8-3.582031 8-8zm-55 8h39v39h-39zm0 0"/><path d="m325.0625 247c0-4.417969-3.582031-8-8-8h-55c-4.417969 0-8 3.582031-8 8v55c0 4.417969 3.582031 8 8 8h55c4.417969 0 8-3.582031 8-8zm-55 8h39v39h-39zm0 0"/><path d="m325.0625 343c0-4.417969-3.582031-8-8-8h-55c-4.417969 0-8 3.582031-8 8v55c0 4.417969 3.582031 8 8 8h55c4.417969 0 8-3.582031 8-8zm-55 8h39v39h-39zm0 0"/></svg>