<?xml version="1.0"?>
<svg xmlns="http://www.w3.org/2000/svg" id="Layer_1" data-name="Layer 1" viewBox="0 0 512 512" width="512" height="512"><title>Strategy Planning</title><path d="M286.181,20c-45.922,0-92.034,17.628-126.51,48.364-35.2,31.382-54.835,72.344-55.44,115.538L45.113,293.008a8,8,0,0,0,4.531,11.409L104.9,322.631l.721,53.742a48,48,0,0,0,49.39,47.5L211,423.056V484a8.028,8.028,0,0,0,8.033,8h.1L443.5,489.118a8,8,0,0,0,7.9-7.954l.847-150.045c1.3-11.645,3.24-25.191,5.3-39.522,8-55.744,17.957-125.067.916-160.64C434.937,66.639,362.562,20,286.181,20ZM441.706,289.323c-2.1,14.634-4.085,28.457-5.409,40.455a8.25,8.25,0,0,0-.048.831l-.821,142.611L227,475.9V414.939A7.921,7.921,0,0,0,219.033,407h-.116l-64.183.9c-.043,0-.087-.013-.13-.012a32.011,32.011,0,0,1-32.982-31.7l-.8-59.476a8,8,0,0,0-5.5-7.491l-51.589-17,55.511-102.449a8,8,0,0,0,.966-3.811c0-39.326,17.793-76.847,50.1-105.65C201.9,52.149,244.133,36,286.181,36a182.075,182.075,0,0,1,96.938,28.642c28.8,18.442,50.265,44.068,60.441,72.156a7.705,7.705,0,0,0,.332.784C459.036,168.615,449.428,235.544,441.706,289.323Z"/><path d="M382.442,161.624a8,8,0,0,0-11.306-.409,8.2,8.2,0,0,0-.408,11.47L383.893,187H211.515a30.3,30.3,0,1,0,0,16H383.893l-13.165,13.989a7.917,7.917,0,0,0,5.855,13.326,8,8,0,0,0,5.859-2.571l25.675-27.612a8,8,0,0,0,0-10.9ZM182.165,209.1a14.425,14.425,0,1,1,14.425-14.425A14.441,14.441,0,0,1,182.165,209.1Z"/><path d="M281,157.622a29.353,29.353,0,1,0-29.353-29.352A29.386,29.386,0,0,0,281,157.622Zm0-42.705a13.353,13.353,0,1,1-13.353,13.353A13.369,13.369,0,0,1,281,114.917Z"/><path d="M306.354,244.405a8,8,0,0,0-11.31-.266L281,257.538l-14.044-13.4a8,8,0,0,0-11.045,11.576l13.5,12.88-13.5,12.88a8,8,0,1,0,11.045,11.576L281,279.652l14.044,13.4a8,8,0,0,0,11.045-11.576l-13.5-12.88,13.5-12.88A8,8,0,0,0,306.354,244.405Z"/></svg>
