<svg height="480pt" viewBox="-95 0 480 480" width="480pt" xmlns="http://www.w3.org/2000/svg"><path d="m281.699219 36h-12.707031l-4.386719-27.101562c-.613281-3.910157-3.941407-6.816407-7.902344-6.898438h-20.832031c-3.859375.082031-7.132813 2.855469-7.851563 6.648438l-5.316406 27.351562h-46.703125v-28.449219c0-4.417969-3.699219-7.550781-8.117188-7.550781h-45.765624c-4.417969 0-8.117188 3.132812-8.117188 7.550781v28.449219h-46.488281l-4.390625-27.101562c-.613282-3.910157-3.945313-6.816407-7.902344-6.898438h-20.832031c-3.859375.082031-7.132813 2.855469-7.851563 6.648438l-5.3125 27.351562h-12.921875c-4.417969 0-8.300781 3.261719-8.300781 7.683594v28.902344c.105469 4.558593 3.746094 8.246093 8.300781 8.414062h105.699219v23h-105.699219c-4.542969.132812-8.1875 3.792969-8.300781 8.332031v28.90625c0 4.417969 3.882812 7.761719 8.300781 7.761719h105.699219v323.449219c0 4.417969 3.699219 7.550781 8.117188 7.550781h45.765624c4.417969 0 8.117188-3.132812 8.117188-7.550781v-323.449219h105.699219c4.417969 0 8.300781-3.34375 8.300781-7.761719v-28.90625c-.113281-4.539062-3.757812-8.199219-8.300781-8.332031h-105.699219v-23h105.699219c4.554687-.167969 8.195312-3.855469 8.300781-8.414062v-28.898438c0-4.425781-3.882812-7.6875-8.300781-7.6875zm-39.242188-18h7.453125l2.871094 18h-13.773438zm-112.457031-2h30v20h-30zm-89.027344 2h7.453125l2.875 18h-13.777343zm119.027344 446h-30v-315h30zm114-331h-258v-13h258zm-114-29h-30v-23h30zm114-39h-258v-13h258zm0 0"/></svg>