<?xml version="1.0"?>
<svg xmlns="http://www.w3.org/2000/svg" id="Layer_1" data-name="Layer 1" viewBox="0 0 512 512" width="512" height="512"><title>Satellite</title><path d="M435.352,36.756a28.233,28.233,0,0,0-4.846,33.424l-36.743,36.744L342.137,55.293a8,8,0,0,0-11.315-.019A88.853,88.853,0,0,0,393.676,207h.1a88.276,88.276,0,0,0,62.91-25.985,7.817,7.817,0,0,0,0-11.161l-51.612-51.616L441.83,81.484a28.252,28.252,0,0,0,33.413-4.834h0a28.208,28.208,0,0,0-39.892-39.893ZM393.778,191h-.085A72.77,72.77,0,0,1,336.781,72.585l50.713,50.636a7.529,7.529,0,0,0,1.292,1.289l50.629,50.552A72.2,72.2,0,0,1,393.778,191ZM463.931,65.335a12.2,12.2,0,1,1,0-17.265A12.223,12.223,0,0,1,463.931,65.335Z"/><path d="M405.607,386.414l0,0,0,0-35.35-35.35,0,0,0,0-32.525-32.525a8,8,0,0,0-11.315,0l-18.92,18.92L292.639,322.6l80.674-80.674a8,8,0,0,0,0-11.314L281.39,138.688a8,8,0,0,0-11.315,0L189.4,219.361l-14.849-14.849,18.921-18.92a8,8,0,0,0,0-11.314l-35.354-35.353v0l0,0L90.234,71.041a8,8,0,0,0-11.314,0L30.837,119.124a8,8,0,0,0,0,11.314L134.074,233.675a8,8,0,0,0,11.315,0l17.849-17.849,14.849,14.849L96.6,312.164a8,8,0,0,0,0,11.314L188.521,415.4a8,8,0,0,0,11.315,0l81.489-81.488,14.849,14.849-17.85,17.849a8,8,0,0,0,0,11.314L381.562,481.163a8,8,0,0,0,11.315,0l48.083-48.084a8,8,0,0,0,0-11.313ZM163.773,192.663l-24.041-24.042,12.728-12.728L176.5,179.935ZM80.335,157.308,93.062,144.58,117.1,168.621,104.376,181.35Zm24.042-24.042L117.1,120.538l24.042,24.042-12.728,12.727Zm-19.8-45.255,21.214,21.213L93.062,121.952,71.85,100.739ZM60.535,112.053l21.214,21.213L69.021,145.994,47.808,124.781Zm79.2,104.652L115.69,192.664l12.728-12.729,24.042,24.042Zm54.448,181.726-80.611-80.61L275.732,155.658l80.611,80.61ZM327.822,404.8l12.729-12.728,24.041,24.042-12.728,12.728Zm24.042-24.042,12.728-12.727,24.042,24.041L375.905,404.8Zm-19.8-45.254,21.214,21.213-12.727,12.727-21.214-21.213ZM308.023,359.54l21.213,21.213-12.727,12.728L295.3,372.268Zm79.2,104.652-24.042-24.041,12.727-12.728,24.042,24.042Zm24.042-24.042L387.22,416.109l12.727-12.728,24.042,24.041Z"/><path d="M199.836,276.809a8,8,0,0,0-11.315,0l-35.354,35.355a8,8,0,0,0,0,11.314l35.354,35.355a8,8,0,0,0,11.315,0l35.355-35.355a8,8,0,0,0,0-11.314Zm-5.657,65.053-24.041-24.041,24.041-24.042,24.042,24.042Z"/></svg>
