<?xml version="1.0"?>
<svg xmlns="http://www.w3.org/2000/svg" id="Layer_1" data-name="Layer 1" viewBox="0 0 512 512" width="512" height="512"><title>Solar</title><path d="M465.582,35H46.418C42,35,38,38.515,38,42.934V324.912A8.442,8.442,0,0,0,46.418,333H211v84H140.506c-4.418,0-7.506,3.627-7.506,8.046v44.02c0,4.419,3.088,7.934,7.506,7.934H371.494c4.418,0,7.506-3.515,7.506-7.934v-44.02c0-4.419-3.088-8.046-7.506-8.046H301V333H465.582A8.442,8.442,0,0,0,474,324.912V42.934C474,38.515,470,35,465.582,35ZM194,51h54v55H194Zm91,282v84H227V333ZM194,122h54v54H194Zm0,70h54v54H194ZM108,317H54V262h54Zm0-71H54V192h54Zm0-70H54V122h54Zm0-70H54V51h54Zm70,211H124V262h54Zm0-71H124V192h54Zm0-70H124V122h54Zm0-70H124V51h54Zm16,211V262h54v55ZM363,433v28H149V433ZM318,317H264V262h54Zm0-71H264V192h54Zm0-70H264V122h54Zm0-70H264V51h54Zm70,211H334V262h54Zm0-71H334V192h54Zm0-70H334V122h54Zm0-70H334V51h54Zm70,211H404V262h54Zm0-71H404V192h54Zm0-70H404V122h54Zm0-70H404V51h54Z"/></svg>
