<?xml version="1.0" encoding="iso-8859-1"?>
<!-- Generator: Adobe Illustrator 19.0.0, SVG Export Plug-In . SVG Version: 6.00 Build 0)  -->
<svg version="1.1" id="Capa_1" xmlns="http://www.w3.org/2000/svg" xmlns:xlink="http://www.w3.org/1999/xlink" x="0px" y="0px"
	 viewBox="0 0 512.006 512.006" style="enable-background:new 0 0 512.006 512.006;" xml:space="preserve">
<g>
	<g>
		<path d="M219.376,337.679c-55.33,0-100.348,39.106-100.348,87.163c0,48.057,45.017,87.163,100.348,87.163
			c55.338,0,100.348-39.106,100.348-87.163C319.724,376.786,274.714,337.679,219.376,337.679z M219.376,468.051
			c-31.1,0-56.4-19.381-56.4-43.215s25.299-43.215,56.4-43.215c31.1,0,56.4,19.381,56.4,43.215S250.476,468.051,219.376,468.051z"/>
	</g>
</g>
<g>
	<g>
		<path d="M493.069,37.017L301.896,0.394c-6.438-1.238-13.089,0.476-18.136,4.644c-5.054,4.182-7.977,10.386-7.977,16.942v402.855
			h43.941V192.666l165.222,30.383c6.424,1.187,13.031-0.557,18.041-4.732c5.01-4.175,7.911-10.357,7.911-16.883V58.603
			C510.897,48.063,503.411,39.01,493.069,37.017z M466.956,175.05l-147.225-27.072V48.561l147.225,28.207V175.05z"/>
	</g>
</g>
<g>
	<g>
		<path d="M192.282,45.426H23.083c-12.137,0-21.974,9.837-21.974,21.974c0,12.137,9.837,21.974,21.974,21.974h169.199
			c12.13,0,21.974-9.837,21.974-21.974C214.256,55.263,204.419,45.426,192.282,45.426z"/>
	</g>
</g>
<g>
	<g>
		<path d="M192.282,133.322H23.083c-12.137,0-21.974,9.837-21.974,21.974c0,12.137,9.837,21.974,21.974,21.974h169.199
			c12.13,0,21.974-9.837,21.974-21.974C214.256,143.159,204.419,133.322,192.282,133.322z"/>
	</g>
</g>
<g>
	<g>
		<path d="M192.282,221.217H23.083c-12.137,0-21.974,9.837-21.974,21.974c0,12.137,9.837,21.974,21.974,21.974h169.199
			c12.13,0,21.974-9.844,21.974-21.974C214.256,231.054,204.419,221.217,192.282,221.217z"/>
	</g>
</g>
<g>
</g>
<g>
</g>
<g>
</g>
<g>
</g>
<g>
</g>
<g>
</g>
<g>
</g>
<g>
</g>
<g>
</g>
<g>
</g>
<g>
</g>
<g>
</g>
<g>
</g>
<g>
</g>
<g>
</g>
</svg>
