<svg height="462pt" viewBox="0 -10 462.18976 462" width="462pt" xmlns="http://www.w3.org/2000/svg"><path d="m94.300781 273.242188h104.386719c4.417969 0 8-3.582032 8-8 0-4.417969-3.582031-8-8-8h-104.386719c-4.417969 0-8 3.582031-8 8 0 4.417968 3.582031 8 8 8zm0 0"/><path d="m253.628906 312.242188h-159.328125c-4.417969 0-8 3.582031-8 8 0 4.417968 3.582031 8 8 8h159.328125c4.417969 0 8-3.582032 8-8 0-4.417969-3.582031-8-8-8zm0 0"/><path d="m349.964844.09375c-55.707032 0-102.0625 41.148438-110.777344 94.148438h-231.410156c-2.082032-.027344-4.085938.792968-5.550782 2.273437-1.46875 1.480469-2.2695308 3.492187-2.226562 5.574219v332.375c-.0390625 2.074218.765625 4.078125 2.234375 5.546875 1.464844 1.464843 3.46875 2.273437 5.542969 2.230469h332.378906c2.082031.042968 4.089844-.757813 5.570312-2.222657 1.480469-1.46875 2.300782-3.472656 2.273438-5.554687v-209.953125c1 .011719 1.285156.023437 1.890625.023437 61.898437 0 112.300781-50.320312 112.300781-112.21875-.058594-61.957031-50.269531-112.167968-112.226562-112.222656zm-219.964844 110.148438h88v62.96875l-41.464844-14.574219c-1.660156-.605469-3.480468-.605469-5.140625 0l-41.394531 14.574219zm202 316h-316v-316h98v74.253906c-.050781 2.578125 1.167969 5.019531 3.261719 6.527344 2.089843 1.503906 4.789062 1.886718 7.21875 1.023437l49.515625-17.386719 49.527344 17.382813c.847656.296875 1.742187.449219 2.640624.449219 1.632813 0 3.222657-.515626 4.546876-1.472657 2.09375-1.507812 3.320312-3.941406 3.289062-6.523437v-74.253906h3.734375c-.011719 1-.101563 1.378906-.101563 2.113281 0 55.835937 41.371094 102.199219 94.371094 110.761719zm17.964844-217.707032c-53.160156 0-96.257813-43.097656-96.257813-96.257812 0-53.164063 43.097657-96.261719 96.261719-96.257813 53.160156 0 96.257812 43.097657 96.257812 96.257813-.0625 53.136718-43.121093 96.199218-96.261718 96.257812zm0 0"/><path d="m401 128.886719v-19.945313c.042969-21.132812-12.792969-40.160156-32.40625-48.039062 4.15625-8.671875 1.769531-19.066406-5.753906-25.058594-7.523438-5.996094-18.1875-5.996094-25.714844 0-7.523438 5.992188-9.910156 16.386719-5.75 25.058594-19.605469 7.882812-32.429688 26.910156-32.375 48.039062v19.945313c-8 3.5-14.25 11.6875-14.25 21.28125-.003906 6.121093 2.425781 11.992187 6.753906 16.320312s10.199219 6.757813 16.320313 6.753907h15.675781c3.527344 11.664062 14.277344 19.644531 26.460938 19.644531 12.1875 0 22.9375-7.980469 26.460937-19.644531h15.679687c12.757813.011718 23.105469-10.324219 23.113282-23.078126-.15625-9.265624-5.714844-17.585937-14.214844-21.277343zm-51.035156-81.332031c2.539062.03125 4.585937 2.078124 4.617187 4.613281 0 2.550781-2.066406 4.617187-4.617187 4.617187-2.546875 0-4.613282-2.066406-4.613282-4.617187.03125-2.535157 2.078126-4.582031 4.613282-4.613281zm.035156 25.773437c19.34375 0 35 15.976563 35 35.613281v18.300782h-70v-18.300782c0-19.636718 15.660156-35.613281 35-35.613281zm-.035156 103.558594c-3.195313-.089844-6.242188-1.394531-8.515625-3.644531h17.035156c-2.273437 2.25-5.320313 3.554687-8.519531 3.644531zm42.140625-19.644531h-84.28125c-3.867188 0-7-3.132813-7-7 0-3.867188 3.132812-7 7-7h84.28125c3.867187 0 7 3.132812 7 7 0 3.867187-3.132813 7-7 7zm0 0"/></svg>