<svg height="442pt" viewBox="-8 0 442 442.0004" width="442pt" xmlns="http://www.w3.org/2000/svg"><path d="m426.003906 373.398438v-224.796876c.035156-1.527343-.5625-3-1.660156-4.0625-1.09375-1.0625-2.582031-1.621093-4.105469-1.539062h-90.234375v-58.882812c-.054687-1.566407-.707031-3.054688-1.824218-4.15625l-75.175782-78.132813c-1.164062-1.175781-2.75-1.83203125-4.402344-1.828125h-242.832031c-1.5625.00390625-3.058593.640625-4.148437 1.765625-1.085938 1.125-1.667969 2.644531-1.61718775 4.207031v430.054688c-.05078125 1.5625.53124975 3.082031 1.61718775 4.207031 1.089844 1.125 2.585937 1.761719 4.148437 1.765625h317.933594c3.367187.035156 6.15625-2.605469 6.300781-5.972656v-57.027344h90.234375c1.523438.082031 3.011719-.476562 4.105469-1.539062 1.097656-1.0625 1.695312-2.535157 1.660156-4.0625zm-171-352.523438 54.613282 57.125h-54.613282zm63 409.125h-306v-418h231v72.117188c-.085937 1.539062.464844 3.039062 1.527344 4.15625 1.058594 1.113281 2.535156 1.738281 4.070312 1.726562h69.402344v53h-194.273437c-1.519531-.082031-3.003907.480469-4.09375 1.542969-1.085938 1.0625-1.679688 2.535156-1.632813 4.058593v224.796876c-.046875 1.523437.546875 2.996093 1.632813 4.058593 1.089843 1.066407 2.574219 1.625 4.09375 1.542969h194.273437zm96-63h-284v-212h284zm0 0"/><path d="m264.722656 226h50.613282c3.3125 0 6-2.6875 6-6s-2.6875-6-6-6h-50.613282c-3.3125 0-6 2.6875-6 6s2.6875 6 6 6zm0 0"/><path d="m264.722656 272h96.042969c3.316406 0 6-2.6875 6-6s-2.683594-6-6-6h-96.042969c-3.3125 0-6 2.6875-6 6s2.6875 6 6 6zm0 0"/><path d="m264.722656 319h96.042969c3.316406 0 6-2.6875 6-6s-2.683594-6-6-6h-96.042969c-3.3125 0-6 2.6875-6 6s2.6875 6 6 6zm0 0"/><path d="m198.632812 308.734375c-8.195312-.007813-14.832031-6.648437-14.84375-14.839844 0-3.3125-2.683593-6-6-6-3.3125 0-6 2.6875-6 6 .019532 11.878907 7.828126 22.339844 19.214844 25.730469v7.375c0 3.3125 2.6875 6 6 6s6-2.6875 6-6v-6.625c13.785156-2.277344 23.523438-14.75 22.378906-28.675781-1.140624-13.925781-12.777343-24.648438-26.75-24.648438-8.199218 0-14.84375-6.644531-14.84375-14.839843 0-8.199219 6.644532-14.84375 14.84375-14.84375 8.195313 0 14.839844 6.644531 14.839844 14.84375 0 3.3125 2.6875 6 6 6 3.316406 0 6-2.6875 6-6-.015625-13.132813-9.515625-24.328126-22.46875-26.480469v-8.730469c0-3.3125-2.6875-6-6-6s-6 2.6875-6 6v9.480469c-12.785156 3.789062-20.847656 16.390625-18.933594 29.585937 1.914063 13.195313 13.226563 22.984375 26.5625 22.984375 5.332032-.042969 10.277344 2.777344 12.953126 7.386719 2.679687 4.609375 2.679687 10.300781 0 14.914062-2.675782 4.609376-7.621094 7.425782-12.953126 7.382813zm0 0"/></svg>