<svg height="492pt" viewBox="-22 0 492 492.49688" width="492pt" xmlns="http://www.w3.org/2000/svg"><path d="m441.882812 251.242188h-188.707031l-25.332031-234.75c-.382812-3.554688-3.386719-6.25-6.960938-6.25h-26c-1.96875-.058594-3.871093.742187-5.207031 2.191406-1.332031 1.453125-1.972656 3.410156-1.753906 5.371094l.746094 6.882812-52.886719-24.054688c-1.835938-.839843-3.941406-.84375-5.777344-.015624-1.839844.828124-3.230468 2.410156-3.816406 4.335937l-60 197c-.570312 1.878906-.328125 3.910156.667969 5.597656 1 1.691407 2.660156 2.882813 4.578125 3.289063l140.523437 29.8125 1.128907 10.589844h-203.203126c-2.65625-.058594-5.109374 1.429687-6.289062 3.8125-1.179688 2.382812-.875 5.234374.78125 7.3125l90 115.09375c1.316406 1.71875 3.34375 2.742187 5.507812 2.78125h252c2.171876-.046876 4.199219-1.085938 5.511719-2.8125l90-115.0625c1.648438-2.074219 1.953125-4.910157.78125-7.285157-1.183593-2.382812-3.628906-3.878906-6.292969-3.839843zm-234.738281-26.042969-125.339843-26.480469 55.449218-182.054688 53.160156 24.164063 7.113282 65.921875zm4.316407-119.675781-5.597657-69.039063c-.152343-1.769531-.992187-3.414063-2.34375-4.570313l-.84375-7.671874h11.917969l24.488281 227h-11.90625zm137.011718 260.71875h-245.179687l-79.042969-101h403.265625zm0 0"/><path d="m422.5 414.941406c-6.757812 0-9.878906-2.796875-14.199219-6.679687-5.09375-4.574219-11.433593-10.269531-23.554687-10.269531s-18.460938 5.695312-23.554688 10.269531c-4.320312 3.878906-7.441406 6.679687-14.199218 6.679687-6.757813 0-9.878907-2.796875-14.199219-6.679687-5.09375-4.574219-11.433594-10.269531-23.550781-10.269531-12.121094 0-18.460938 5.695312-23.554688 10.269531-4.320312 3.878906-7.441406 6.679687-14.199219 6.679687-6.757812 0-9.878906-2.796875-14.199219-6.679687-5.09375-4.574219-11.433593-10.269531-23.550781-10.269531-12.121093 0-18.460937 5.695312-23.554687 10.269531-4.316406 3.878906-7.441406 6.679687-14.199219 6.679687s-9.875-2.796875-14.195313-6.679687c-5.089843-4.574219-11.429687-10.269531-23.546874-10.269531-12.117188 0-18.457032 5.695312-23.550782 10.269531-4.316406 3.878906-7.4375 6.679687-14.191406 6.679687s-9.878906-2.796875-14.199219-6.679687c-5.09375-4.574219-11.433593-10.269531-23.550781-10.269531s-18.457031 5.695312-23.550781 10.269531c-4.320313 3.878906-7.441407 6.679687-14.199219 6.679687s-9.878906-2.796875-14.203125-6.679687c-5.089844-4.574219-11.429687-10.269531-23.546875-10.269531-3.867188 0-7 3.136718-7 7 0 3.867187 3.132812 7 7 7 6.753906 0 9.875 2.800781 14.199219 6.683593 5.089843 4.574219 11.429687 10.265625 23.550781 10.265625 12.117188 0 18.457031-5.691406 23.546875-10.265625 4.320313-3.878906 7.441406-6.683593 14.199219-6.683593 6.757812 0 9.878906 2.800781 14.203125 6.683593 5.09375 4.574219 11.429687 10.265625 23.550781 10.265625s18.457031-5.691406 23.546875-10.265625c4.320313-3.878906 7.441406-6.683593 14.195313-6.683593 6.753906 0 9.875 2.800781 14.191406 6.683593 5.097656 4.574219 11.433594 10.265625 23.550781 10.265625s18.460937-5.691406 23.550781-10.265625c4.320313-3.878906 7.441406-6.683593 14.203125-6.683593 6.757813 0 9.875 2.800781 14.199219 6.683593 5.09375 4.574219 11.433594 10.265625 23.550781 10.265625 12.121094 0 18.457031-5.691406 23.550781-10.265625 4.320313-3.878906 7.445313-6.683593 14.203126-6.683593 6.757812 0 9.875 2.800781 14.199218 6.683593 5.09375 4.574219 11.433594 10.265625 23.550782 10.265625 12.121093 0 18.460937-5.691406 23.554687-10.265625 4.320313-3.878906 7.441406-6.683593 14.199219-6.683593 6.757812 0 9.878906 2.800781 14.199218 6.683593 5.09375 4.574219 11.433594 10.265625 23.554688 10.265625 3.867188 0 7-3.132812 7-7 0-3.863281-3.132812-7-7-7zm0 0"/><path d="m422.5 446.71875c-6.757812 0-9.878906-2.800781-14.199219-6.683594-5.101562-4.574218-11.433593-10.265625-23.554687-10.265625s-18.460938 5.691407-23.554688 10.265625c-4.320312 3.878906-7.441406 6.683594-14.199218 6.683594-6.757813 0-9.878907-2.800781-14.199219-6.683594-5.09375-4.574218-11.433594-10.265625-23.550781-10.265625-12.121094 0-18.460938 5.691407-23.554688 10.265625-4.320312 3.878906-7.441406 6.683594-14.199219 6.683594-6.757812 0-9.878906-2.800781-14.199219-6.683594-5.09375-4.574218-11.433593-10.265625-23.550781-10.265625-12.121093 0-18.457031 5.691407-23.554687 10.265625-4.316406 3.878906-7.4375 6.683594-14.199219 6.683594-6.757813 0-9.875-2.800781-14.195313-6.683594-5.089843-4.574218-11.429687-10.265625-23.546874-10.265625-12.117188 0-18.457032 5.691407-23.550782 10.265625-4.316406 3.878906-7.4375 6.683594-14.191406 6.683594s-9.878906-2.800781-14.199219-6.683594c-5.09375-4.574218-11.433593-10.265625-23.550781-10.265625s-18.457031 5.691407-23.550781 10.265625c-4.320313 3.878906-7.441407 6.683594-14.199219 6.683594s-9.878906-2.800781-14.203125-6.683594c-5.089844-4.574218-11.429687-10.265625-23.546875-10.265625-3.867188 0-7 3.132813-7 7 0 3.867188 3.132812 7 7 7 6.753906 0 9.875 2.800781 14.199219 6.683594 5.089843 4.574219 11.429687 10.265625 23.550781 10.265625 12.117188 0 18.472656-5.691406 23.5625-10.265625 4.320312-3.878906 7.441406-6.683594 14.199219-6.683594 6.757812 0 9.875 2.800781 14.199219 6.683594 5.09375 4.574219 11.433593 10.265625 23.550781 10.265625 12.121093 0 18.457031-5.691406 23.550781-10.265625 4.320312-3.878906 7.4375-6.683594 14.191406-6.683594s9.875 2.800781 14.203125 6.683594c5.089844 4.574219 11.429688 10.265625 23.546875 10.265625 12.117188 0 18.457032-5.691406 23.550782-10.265625 4.320312-3.878906 7.441406-6.683594 14.199218-6.683594 6.761719 0 9.878906 2.800781 14.203125 6.683594 5.09375 4.574219 11.429688 10.265625 23.550781 10.265625 12.117188 0 18.457032-5.691406 23.550782-10.265625 4.320312-3.878906 7.441406-6.683594 14.199218-6.683594 6.757813 0 9.878907 2.800781 14.203126 6.683594 5.09375 4.574219 11.429687 10.265625 23.550781 10.265625 12.117187 0 18.457031-5.691406 23.554687-10.265625 4.320313-3.878906 7.441406-6.683594 14.199219-6.683594s9.878906 2.800781 14.199219 6.683594c5.09375 4.574219 11.433594 10.265625 23.554687 10.265625 3.867188 0 7-3.132812 7-7s-3.132812-7-7-7zm0 0"/><path d="m422.5 478.496094c-6.757812 0-9.878906-2.800782-14.199219-6.683594-5.101562-4.570312-11.433593-10.261719-23.554687-10.261719s-18.460938 5.691407-23.554688 10.261719c-4.320312 3.882812-7.441406 6.683594-14.199218 6.683594-6.757813 0-9.878907-2.800782-14.199219-6.683594-5.09375-4.570312-11.433594-10.261719-23.550781-10.261719-12.121094 0-18.457032 5.691407-23.554688 10.261719-4.316406 3.882812-7.441406 6.683594-14.199219 6.683594-6.757812 0-9.875-2.800782-14.199219-6.683594-5.09375-4.570312-11.433593-10.261719-23.550781-10.261719-12.117187 0-18.453125 5.691407-23.546875 10.261719-4.320312 3.882812-7.441406 6.683594-14.199218 6.683594-6.757813 0-9.875-2.800782-14.195313-6.679688-5.09375-4.574218-11.429687-10.265625-23.550781-10.265625-12.117188 0-18.453125 5.691407-23.542969 10.265625-4.320313 3.878906-7.441406 6.679688-14.195313 6.679688-6.753906 0-9.878906-2.800782-14.199218-6.683594-5.09375-4.570312-11.433594-10.261719-23.550782-10.261719-12.117187 0-18.457031 5.691407-23.550781 10.265625-4.320312 3.878906-7.441406 6.679688-14.199219 6.679688-6.757812 0-9.875-2.800782-14.199218-6.679688-5.085938-4.574218-11.425782-10.265625-23.542969-10.265625-3.867187 0-7 3.132813-7 7 0 3.863281 3.132813 7 7 7 6.753906 0 9.875 2.796875 14.199219 6.679688 5.09375 4.574219 11.429687 10.265625 23.550781 10.265625 12.117187 0 18.457031-5.691406 23.546875-10.265625 4.324219-3.878907 7.445312-6.679688 14.203125-6.679688s9.875 2.796875 14.199219 6.679688c5.09375 4.574219 11.429687 10.265625 23.550781 10.265625s18.457031-5.691406 23.546875-10.265625c4.320312-3.878907 7.441406-6.679688 14.195312-6.679688 6.753907 0 9.875 2.796875 14.199219 6.679688 5.09375 4.574219 11.433594 10.265625 23.550781 10.265625 12.117188 0 18.457032-5.691406 23.550782-10.265625 4.320312-3.878907 7.441406-6.679688 14.199218-6.679688 6.757813 0 9.878907 2.796875 14.199219 6.679688 5.09375 4.574219 11.433594 10.265625 23.554688 10.265625 12.117187 0 18.457031-5.691406 23.550781-10.265625 4.320312-3.878907 7.441406-6.679688 14.199219-6.679688 6.757812 0 9.878906 2.796875 14.199219 6.679688 5.09375 4.574219 11.433593 10.265625 23.554687 10.265625 12.117187 0 18.457031-5.691406 23.554687-10.265625 4.320313-3.878907 7.441407-6.679688 14.199219-6.679688 6.757813 0 9.878907 2.796875 14.199219 6.679688 5.09375 4.574219 11.433594 10.265625 23.554688 10.265625 3.863281 0 7-3.132813 7-7 0-3.863282-3.136719-7-7-7zm0 0"/></svg>