<svg height="478pt" viewBox="-109 0 478 478.17139" width="478pt" xmlns="http://www.w3.org/2000/svg"><path d="m33.085938 406.769531v43.570313c0 15.4375 12.949218 27.832031 28.386718 27.832031h109.390625c15.46875.078125 28.085938-12.367187 28.222657-27.832031v-43.570313c19.273437-2.136719 33.890624-18.371093 34-37.761719v-4.835937h19.417968c2.058594.019531 4.039063-.808594 5.472656-2.289063 1.433594-1.480468 2.195313-3.484374 2.109376-5.542968v-208c0-4.421875-3.164063-8.167969-7.582032-8.167969h-19.417968v-5.167969c0-20.09375-16-36.582031-36-37.898437v-89.101563c.03125-3.066406-1.707032-5.871094-4.464844-7.210937-2.757813-1.335938-6.039063-.960938-8.425782.964843l-9.554687 7.652344-15.066406-8.398437c-2.417969-1.347657-5.359375-1.347657-7.78125 0l-15.867188 8.84375-15.871093-8.839844c-2.421876-1.347656-5.367188-1.347656-7.785157 0l-15.871093 8.839844-15.871094-8.839844c-2.421875-1.347656-5.367188-1.347656-7.789063 0l-15.066406 8.394531-9.5625-7.652344c-2.40625-1.921874-5.699219-2.296874-8.472656-.964843-2.777344 1.332031-4.542969 4.132812-4.550781 7.210937v89.101563c-20 1.320312-35.0000005 17.8125-35.0000005 37.898437v234c0 19.535156 14.0000005 35.667969 33.0000005 37.765625zm137.777343 55.402344h-109.390625c-6.617187 0-12.386718-5.21875-12.386718-11.832031v-43.167969h134v43.167969c-.125 6.632812-5.585938 11.917968-12.222657 11.832031zm73.222657-306v192h-11v-192zm-192.222657-130.910156c2.539063 2.03125 6.054688 2.324219 8.898438.742187l15.871093-8.84375 15.871094 8.84375c2.421875 1.347656 5.367188 1.347656 7.789063 0l15.871093-8.84375 15.875 8.84375c2.417969 1.347656 5.363282 1.347656 7.785157 0l15.871093-8.84375 15.875 8.84375c2.8125 1.578125 6.304688 1.285156 8.816407-.742187l.699219-.617188v72.527344h-130v-72.523437zm-35.777343 109.742187c-.082032-5.769531 2.160156-11.332031 6.214843-15.4375 4.058594-4.105468 9.597657-6.410156 15.367188-6.394531h157c12.132812 0 22.417969 9.699219 22.417969 21.832031v234c0 12.132813-10.285157 22.167969-22.417969 22.167969h-157c-12.128907 0-21.582031-10.035156-21.582031-22.167969zm0 0"/><path d="m129.167969 242.171875h-26c-4.417969 0-8 3.582031-8 8s3.582031 8 8 8h26c4.417969 0 8-3.582031 8-8s-3.582031-8-8-8zm0 0"/><path d="m49.167969 258.171875h26c4.417969 0 8-3.582031 8-8s-3.582031-8-8-8h-26c-4.417969 0-8 3.582031-8 8s3.582031 8 8 8zm0 0"/><path d="m183.167969 242.171875h-26c-4.417969 0-8 3.582031-8 8s3.582031 8 8 8h26c4.417969 0 8-3.582031 8-8s-3.582031-8-8-8zm0 0"/><path d="m129.167969 286.171875h-26c-4.417969 0-8 3.582031-8 8s3.582031 8 8 8h26c4.417969 0 8-3.582031 8-8s-3.582031-8-8-8zm0 0"/><path d="m49.167969 302.171875h26c4.417969 0 8-3.582031 8-8s-3.582031-8-8-8h-26c-4.417969 0-8 3.582031-8 8s3.582031 8 8 8zm0 0"/><path d="m183.167969 286.171875h-26c-4.417969 0-8 3.582031-8 8s3.582031 8 8 8h26c4.417969 0 8-3.582031 8-8s-3.582031-8-8-8zm0 0"/><path d="m129.167969 330.171875h-26c-4.417969 0-8 3.582031-8 8s3.582031 8 8 8h26c4.417969 0 8-3.582031 8-8s-3.582031-8-8-8zm0 0"/><path d="m49.167969 346.171875h26c4.417969 0 8-3.582031 8-8s-3.582031-8-8-8h-26c-4.417969 0-8 3.582031-8 8s3.582031 8 8 8zm0 0"/><path d="m183.167969 330.171875h-26c-4.417969 0-8 3.582031-8 8s3.582031 8 8 8h26c4.417969 0 8-3.582031 8-8s-3.582031-8-8-8zm0 0"/><path d="m191.085938 156.171875c0-4.417969-3.582032-8-8-8h-134c-4.417969 0-8 3.582031-8 8v44c0 4.417969 3.582031 8 8 8h134c4.417968 0 8-3.582031 8-8zm-134 8h118v28h-118zm0 0"/><path d="m73.792969 70.171875h84.75c4.417969 0 8-3.582031 8-8s-3.582031-8-8-8h-84.75c-4.417969 0-8 3.582031-8 8s3.582031 8 8 8zm0 0"/></svg>