<svg height="500pt" viewBox="-34 0 500 500.69501" width="500pt" xmlns="http://www.w3.org/2000/svg"><path d="m432.796875 44.675781-21.371094-40.414062c-2.066406-3.90625-6.90625-5.398438-10.8125-3.332031l-73.742187 38.992187c-35.203125 18.644531-62.769532 49.019531-77.925782 85.859375l-10.730468 26.132812c.019531-.851562.03125-1.707031.03125-2.5625.011718-50.355468-36.308594-93.367187-85.953125-101.785156-49.644531-8.417968-98.121094 20.214844-114.707031 67.753906-16.589844 47.542969 3.546874 100.117188 47.652343 124.410157-9.246093 7.882812-16.46875 17.871093-21.066406 29.121093l-63.226563 153.96875c-1.675781 4.085938.277344 8.761719 4.363282 10.4375l158.59375 65.125c15.765625 6.472657 33.792968-1.058593 40.265625-16.824218l111.140625-270.667969c1.679687-4.085937-.273438-8.757813-4.359375-10.4375l-22.199219-9.117187 17.285156-42.113282c9.664063-23.488281 27.242188-42.855468 49.6875-54.742187l73.738282-39c3.902343-2.0625 5.394531-6.898438 3.335937-10.804688zm-384.972656 104.675781c0-48.167968 39.046875-87.214843 87.210937-87.214843 48.164063 0 87.210938 39.046875 87.210938 87.214843 0 48.164063-39.046875 87.210938-87.210938 87.210938-48.144531-.054688-87.15625-39.070312-87.210937-87.210938zm141.542969 326.128907c-3.125 7.582031-11.796876 11.207031-19.386719 8.097656l-97.425781-40 77.027343-139.429687c7.175781-13.042969 21.960938-19.945313 36.566407-17.074219l74.621093 14.523437-7.15625 17.425782-69.199219 17.445312c-2.921874.738281-5.179687 3.054688-5.847656 5.992188l-22.777344 100.609374c-.714843 2.816407.15625 5.800782 2.273438 7.789063 2.117188 1.992187 5.148438 2.675781 7.914062 1.792969 2.769532-.882813 4.839844-3.199219 5.410157-6.046875l21.699219-95.820313 52.964843-13.355468zm77.601562-188.976563-77.761719-15.136718c-21.421875-4.214844-43.109375 5.914062-53.628906 25.042968l-77.921875 141.046875-38.867188-15.960937 60.183594-146.570313c4.660156-11.398437 12.699219-21.09375 23.042969-27.777343 52.882813 17.839843 110.367187-9.578126 129.789063-61.898438l65.667968 26.964844zm81.273438-206.167968c-25.753907 13.640624-45.921876 35.863281-57.007813 62.8125l-17.292969 42.113281-27.488281-11.289063 17.292969-42.109375c13.730468-33.378906 38.707031-60.898437 70.597656-77.792969l66.671875-35.253906 13.890625 26.269532zm0 0"/><path d="m142.035156 213.351562v-8.03125c16.285156-3.570312 27.265625-18.839843 25.46875-35.417968-1.796875-16.574219-15.792968-29.136719-32.46875-29.132813-9.199218 0-16.660156-7.457031-16.660156-16.65625 0-9.203125 7.460938-16.660156 16.660156-16.660156 9.199219 0 16.65625 7.457031 16.65625 16.660156 0 4.417969 3.582032 8 8 8 4.417969 0 8-3.582031 8-8-.019531-14.949219-10.167968-27.980469-24.65625-31.664062v-7.097657c0-4.417968-3.582031-8-8-8-4.417968 0-8 3.582032-8 8v7.097657c-15.972656 4.039062-26.4375 19.34375-24.40625 35.695312 2.035156 16.347657 15.929688 28.625 32.40625 28.625 9.199219 0 16.660156 7.457031 16.660156 16.65625 0 9.203125-7.457031 16.660157-16.660156 16.660157-9.199218 0-16.65625-7.457032-16.65625-16.65625 0-4.417969-3.582031-8-8-8-4.417968 0-8 3.582031-8 8 .019532 14.558593 9.664063 27.355468 23.65625 31.382812v8.539062c0 4.417969 3.582032 8 8 8 4.417969 0 8-3.582031 8-8zm0 0"/></svg>