<svg height="452pt" viewBox="-1 0 452 452.00242" width="452pt" xmlns="http://www.w3.org/2000/svg"><path d="m444.628906 187.738281-43.53125-4.199219c-4.617187-18.652343-12.128906-36.460937-22.265625-52.78125l27.796875-33.554687c1.976563-2.382813 1.8125-5.878906-.375-8.070313l-45.550781-45.546874c-2.191406-2.191407-5.6875-2.355469-8.070313-.378907l-33.511718 27.75c-16.300782-10.199219-34.136719-17.707031-52.820313-22.246093l-4.199219-43.417969c-.308593-3.050781-2.910156-5.355469-5.976562-5.292969h-62.25c-3.0625-.0585938-5.664062 2.242188-5.96875 5.292969l-4.203125 43.484375c-18.683594 4.527344-36.519531 12.027344-52.820313 22.214844l-33.511718-27.769532c-2.382813-1.976562-5.878906-1.816406-8.070313.371094l-45.550781 45.546875c-2.1875 2.191406-2.351562 5.683594-.378906 8.066406l27.789062 33.554688c-10.140625 16.320312-17.660156 34.128906-22.28125 52.78125l-43.5 4.199219c-3.066406.296874-5.3984372 2.886718-5.378906 5.96875v64.582031c-.0234375 3.082031 2.308594 5.671875 5.375 5.972656l43.527344 4.199219c4.535156 18.683594 12.039062 36.519531 22.234375 52.824218l-27.757813 33.511719c-1.976562 2.382813-1.816406 5.878907.375 8.070313l45.546875 45.546875c2.191407 2.1875 5.683594 2.355469 8.070313.378906l33.554687-27.789063c16.320313 10.140626 34.128907 17.660157 52.777344 22.28125l4.203125 43.421876c.304688 3.050781 2.90625 5.351562 5.96875 5.289062h62.25c3.066406.0625 5.664062-2.238281 5.972656-5.289062l4.199219-43.488282c18.648437-4.609375 36.457031-12.117187 52.777344-22.246094l33.558593 27.804688c2.382813 1.976562 5.878907 1.816406 8.070313-.371094l45.550781-45.550781c2.1875-2.1875 2.351563-5.679687.378906-8.066406l-27.753906-33.507813c10.199219-16.304687 17.710938-34.136718 22.246094-52.824218l43.5-4.199219c3.066406-.300781 5.398438-2.890625 5.375-5.96875v-64.582031c.023438-3.082032-2.304688-5.671876-5.371094-5.972657zm-6.628906 65.105469-42.382812 4.089844c-2.59375.25-4.722657 2.15625-5.261719 4.703125-4.378907 20.238281-12.488281 39.484375-23.910157 56.753906-1.46875 2.207031-1.316406 5.117187.378907 7.15625l27.078125 32.699219-37.824219 37.828125-32.703125-27.074219c-2.015625-1.671875-4.878906-1.839844-7.078125-.421875-17.339844 11.351563-36.59375 19.472656-56.828125 23.972656-2.535156.492188-4.441406 2.585938-4.703125 5.152344l-4.089844 42.300781h-51.351562l-4.089844-42.300781c-.253906-2.582031-2.15625-4.699219-4.699219-5.222656-20.234375-4.484375-39.484375-12.59375-56.828125-23.9375-2.203125-1.414063-5.070312-1.234375-7.082031.4375l-32.699219 27.085937-37.824219-37.828125 27.078126-32.691406c1.6875-2.042969 1.839843-4.949219.371093-7.15625-11.429687-17.269531-19.542969-36.515625-23.925781-56.753906-.527344-2.542969-2.648438-4.445313-5.234375-4.699219l-42.390625-4.09375v-53.683594l42.386719-4.089844c2.589843-.253906 4.71875-2.152343 5.261719-4.699218 4.492187-20.234375 12.609374-39.488282 23.957031-56.832032 1.417969-2.199218 1.246093-5.066406-.425781-7.078124l-27.078126-32.699219 37.824219-37.828125 32.699219 27.074218c2.042969 1.691407 4.953125 1.84375 7.15625.371094 17.269531-11.425781 36.511719-19.539062 56.75-23.921875 2.53125-.492187 4.441406-2.585937 4.699219-5.15625l4.089843-42.296875h51.351563l4.089844 42.296875c.253906 2.582031 2.160156 4.699219 4.703125 5.222657 20.234375 4.371093 39.480468 12.472656 56.753906 23.890624 2.207031 1.464844 5.117188 1.304688 7.15625-.390624l32.699219-27.082032 37.828125 37.820313-27.078125 32.695312c-1.667969 2.015625-1.839844 4.878907-.417969 7.078125 11.351562 17.34375 19.472656 36.597656 23.96875 56.832032.53125 2.542968 2.652344 4.445312 5.238281 4.699218l42.386719 4.09375zm0 0"/><path d="m225.878906 90c-74.992187 0-136 61.011719-136 136 0 74.992188 61.007813 136 136 136 74.992188 0 136-61.007812 136-136 0-74.988281-61.007812-136-136-136zm0 260c-68.484375 0-124-55.515625-124-124 0-68.480469 55.515625-124 124-124s124 55.519531 124 124c-.078125 68.453125-55.550781 123.925781-124 124zm0 0"/><path d="m248 141c0-13.253906-10.742188-24-24-24-13.253906 0-24 10.746094-24 24v7c0 13.257812 10.746094 24 24 24 13.257812 0 24-10.742188 24-24zm-12 7c0 6.628906-5.371094 12-12 12-6.625 0-12-5.371094-12-12v-7c0-6.625 5.375-12 12-12 6.628906 0 12 5.375 12 12zm0 0"/><path d="m246.195312 176h-3.570312c-2.546875.039062-4.800781 1.660156-5.648438 4.0625l-2.925781 8.199219-4.957031-5.246094c-1.152344-1.222656-2.769531-1.90625-4.449219-1.882813-1.679687.023438-3.273437.75-4.394531 2.007813l-4.152344 4.640625-2.425781-7.542969c-.792969-2.492187-3.09375-4.199219-5.707031-4.238281h-4.152344c-7.039062.039062-13.738281 3.042969-18.457031 8.269531-4.621094 5.113281-7.355469 12.042969-6.355469 18.898438v34.949219c.035156 7.054687 2.914062 13.800781 7.988281 18.699218l3.28125 3.148438c2.570313 2.472656 4.101563 5.835937 4.269531 9.398437l2.871094 60.011719c.164063 3.183594 2.8125 5.667969 6 5.621094h43.28125c3.183594.042968 5.832032-2.4375 5.992188-5.621094l2.867187-60.097656c.167969-3.539063 1.675781-6.882813 4.222657-9.347656l3.308593-3.15625c5.03125-4.894532 7.882813-11.605469 7.917969-18.621094v-34.984375c1-6.855469-1.730469-13.785157-6.351562-18.898438-4.714844-5.226562-11.414063-8.230469-18.453126-8.269531zm-21.363281 20.019531 1.449219 1.542969 4.449219 41.417969-5.730469 5.730469-5.726562-5.730469 4.484374-41.765625zm34.152344 6.261719c-.003906.203125 0 .40625.015625.605469v35.265625c-.027344 3.785156-1.570312 7.398437-4.285156 10.035156l-3.285156 3.167969c-4.730469 4.554687-7.539063 10.746093-7.851563 17.304687l-2.605469 54.339844h-31.84375l-2.589844-54.296875c-.308593-6.605469-3.136718-12.84375-7.910156-17.417969l-3.300781-3.125c-2.738281-2.625-4.296875-6.246094-4.328125-10.042968v-35.230469c.019531-.199219.023438-.402344.019531-.605469-.351562-3.570312.8125-7.128906 3.203125-9.804688 2.386719-2.679687 5.789063-4.234374 9.378906-4.289062l4.308594 13.21875c.492188 1.5 1.554688 2.742188 2.960938 3.460938l-3.832032 35.6875c-.195312 1.804687.441407 3.597656 1.722657 4.882812l12 12c2.34375 2.34375 6.144531 2.34375 8.488281 0l12-12c1.28125-1.285156 1.914062-3.078125 1.722656-4.882812l-3.832031-35.675782c1.347656-.695312 2.382813-1.875 2.898437-3.300781l4.808594-13.378906c3.507813.175781 6.792969 1.777343 9.085938 4.4375 2.296875 2.664062 3.402344 6.148437 3.058594 9.644531zm0 0"/></svg>