<?xml version="1.0"?>
<svg xmlns="http://www.w3.org/2000/svg" id="Layer_1" data-name="Layer 1" viewBox="0 0 512 512" width="512" height="512"><title>Laptop</title><path d="M492.312,362H477V112.39A46.574,46.574,0,0,0,430.307,66H81.693A46.574,46.574,0,0,0,35,112.39V362H19.688C16.375,362,14,365.1,14,368.415V399.61A46.2,46.2,0,0,0,60.259,446H451.741A46.2,46.2,0,0,0,498,399.61V368.415C498,365.1,495.625,362,492.312,362ZM47,112.39A34.561,34.561,0,0,1,81.693,78H249.009S249,77.939,249,78v28a7.847,7.847,0,0,0,.659,3H201.907L194.4,92.122a6.029,6.029,0,0,0-7.931-3.086,6.116,6.116,0,0,0-3.017,8.033L188.754,109H81.159A5.911,5.911,0,0,0,75,114.726V331.057A6.09,6.09,0,0,0,81.159,337H430.841A6.09,6.09,0,0,0,437,331.057V114.726A5.911,5.911,0,0,0,430.841,109H313.087l6-15.916a5.994,5.994,0,1,0-11.215-4.233L300.247,109H260.341a7.847,7.847,0,0,0,.659-3V78c0-.061-.007,0-.009,0H430.307A34.561,34.561,0,0,1,465,112.39V362H315.518a6.212,6.212,0,0,0-4.412,2.141l-8.234,8.826A34.563,34.563,0,0,1,277.452,384h-42.9a34.465,34.465,0,0,1-25.42-10.929l-8.234-9.036A6.1,6.1,0,0,0,196.482,362H47ZM298.5,121a5.423,5.423,0,0,0,2.777,2.023,6.082,6.082,0,0,0,2.133.463c1.933,0,3.765-1.486,4.893-2.486H425V325H87V121H194.139l.9,1.869a5.936,5.936,0,0,0,5.477,3.476,5.855,5.855,0,0,0,2.453-.424A6.009,6.009,0,0,0,206.5,121ZM486,399.61A34.191,34.191,0,0,1,451.741,434H60.259A34.191,34.191,0,0,1,26,399.61V374H193.852l6.453,7a46.692,46.692,0,0,0,34.243,15h42.9A46.7,46.7,0,0,0,311.7,381l6.452-7H486Z"/><path d="M178.016,223.2A77.368,77.368,0,0,0,201.492,279H181a6,6,0,0,0,0,12H330a6,6,0,0,0,0-12H310.4a77.945,77.945,0,1,0-132.384-55.8Zm143.866,0a65.556,65.556,0,0,1-30.8,55.8H258.314A5.993,5.993,0,0,0,261,274v-5.68a24.629,24.629,0,0,0-5.051-48.735,12.629,12.629,0,1,1,12.629-12.628,6,6,0,0,0,12,0A24.668,24.668,0,0,0,261,182.851V178a6,6,0,0,0-12,0v5.332a24.627,24.627,0,0,0,6.949,48.253,12.629,12.629,0,1,1-12.629,12.629,6,6,0,0,0-12,0A24.67,24.67,0,0,0,249,267.838V274a5.993,5.993,0,0,0,2.686,5H220.819a65.933,65.933,0,1,1,101.063-55.8Z"/><path d="M351.025,153.543a5.984,5.984,0,0,0,4.243-1.757l20.022-20.023a6,6,0,1,0-8.485-8.485L346.782,143.3a6,6,0,0,0,4.243,10.243Z"/><path d="M144.7,123.615a6,6,0,1,0-8.485,8.486l20.022,20.022a6,6,0,0,0,8.486-8.485Z"/></svg>
