<svg height="480pt" viewBox="0 -10 480.00034 480" width="480pt" xmlns="http://www.w3.org/2000/svg"><path d="m110 189.386719c0-4.417969-3.582031-8-8-8h-27c-4.417969 0-8 3.582031-8 8v27c0 4.417969 3.582031 8 8 8h27c4.417969 0 8-3.582031 8-8zm-16 18h-11v-10h11zm0 0"/><path d="m186 189.386719c0-4.417969-3.582031-8-8-8h-27c-4.417969 0-8 3.582031-8 8v27c0 4.417969 3.582031 8 8 8h27c4.417969 0 8-3.582031 8-8zm-16 18h-11v-10h11zm0 0"/><path d="m262 189.386719c0-4.417969-3.582031-8-8-8h-27c-4.417969 0-8 3.582031-8 8v27c0 4.417969 3.582031 8 8 8h27c4.417969 0 8-3.582031 8-8zm-17 18h-10v-10h10zm0 0"/><path d="m337 189.386719c0-4.417969-3.582031-8-8-8h-27c-4.417969 0-8 3.582031-8 8v27c0 4.417969 3.582031 8 8 8h27c4.417969 0 8-3.582031 8-8zm-16 18h-11v-10h11zm0 0"/><path d="m413 189.386719c0-4.417969-3.582031-8-8-8h-27c-4.417969 0-8 3.582031-8 8v27c0 4.417969 3.582031 8 8 8h27c4.417969 0 8-3.582031 8-8zm-16 18h-11v-10h11zm0 0"/><path d="m110 265.386719c0-4.417969-3.582031-8-8-8h-27c-4.417969 0-8 3.582031-8 8v27c0 4.417969 3.582031 8 8 8h27c4.417969 0 8-3.582031 8-8zm-16 19h-11v-11h11zm0 0"/><path d="m186 265.386719c0-4.417969-3.582031-8-8-8h-27c-4.417969 0-8 3.582031-8 8v27c0 4.417969 3.582031 8 8 8h27c4.417969 0 8-3.582031 8-8zm-16 19h-11v-11h11zm0 0"/><path d="m262 265.386719c0-4.417969-3.582031-8-8-8h-27c-4.417969 0-8 3.582031-8 8v27c0 4.417969 3.582031 8 8 8h27c4.417969 0 8-3.582031 8-8zm-17 19h-10v-11h10zm0 0"/><path d="m337 265.386719c0-4.417969-3.582031-8-8-8h-27c-4.417969 0-8 3.582031-8 8v27c0 4.417969 3.582031 8 8 8h27c4.417969 0 8-3.582031 8-8zm-16 19h-11v-11h11zm0 0"/><path d="m413 265.386719c0-4.417969-3.582031-8-8-8h-27c-4.417969 0-8 3.582031-8 8v27c0 4.417969 3.582031 8 8 8h27c4.417969 0 8-3.582031 8-8zm-16 19h-11v-11h11zm0 0"/><path d="m110 341.386719c0-4.417969-3.582031-8-8-8h-27c-4.417969 0-8 3.582031-8 8v27c0 4.417969 3.582031 8 8 8h27c4.417969 0 8-3.582031 8-8zm-16 19h-11v-11h11zm0 0"/><path d="m186 341.386719c0-4.417969-3.582031-8-8-8h-27c-4.417969 0-8 3.582031-8 8v27c0 4.417969 3.582031 8 8 8h27c4.417969 0 8-3.582031 8-8zm-16 19h-11v-11h11zm0 0"/><path d="m262 341.386719c0-4.417969-3.582031-8-8-8h-27c-4.417969 0-8 3.582031-8 8v27c0 4.417969 3.582031 8 8 8h27c4.417969 0 8-3.582031 8-8zm-17 19h-10v-11h10zm0 0"/><path d="m337 341.386719c0-4.417969-3.582031-8-8-8h-27c-4.417969 0-8 3.582031-8 8v27c0 4.417969 3.582031 8 8 8h27c4.417969 0 8-3.582031 8-8zm-16 19h-11v-11h11zm0 0"/><path d="m413 341.386719c0-4.417969-3.582031-8-8-8h-27c-4.417969 0-8 3.582031-8 8v27c0 4.417969 3.582031 8 8 8h27c4.417969 0 8-3.582031 8-8zm-16 19h-11v-11h11zm0 0"/><path d="m257.371094 43.386719h-9.371094v-9.683594c0-4.417969-3.582031-8-8-8s-8 3.582031-8 8v9.683594h-9.367188c-4.417968 0-8 3.582031-8 8s3.582032 8 8 8h9.367188v9.054687c0 4.417969 3.582031 8 8 8s8-3.582031 8-8v-9.054687h9.371094c4.417968 0 8-3.582031 8-8s-3.582032-8-8-8zm0 0"/><path d="m7.875 460.386719h464.253906c2.066406.078125 4.078125-.691407 5.566406-2.128907 1.484376-1.441406 2.320313-3.429687 2.304688-5.5v-30c0-4.417968-3.453125-8.371093-7.871094-8.371093h-21.359375l1.664063-279.128907c.011718-2.09375-.820313-4.105468-2.308594-5.578124-1.429688-1.488282-3.402344-2.332032-5.464844-2.328126l-45.660156-.226562v-24.414062l16.117188-.324219h.046874c2.089844.046875 4.109376-.742188 5.613282-2.195313 1.503906-1.449218 2.363281-3.441406 2.386718-5.53125l.667969-84.601562c.015625-2.105469-.8125-4.132813-2.300781-5.625-1.496094-1.507813-3.527344-2.355469-5.648438-2.355469l-351-2.078125c-2.121093-.0195312-4.164062.808594-5.671874 2.300781-1.511719 1.488281-2.367188 3.519531-2.375 5.644531l-.664063 84.707032c-.019531 2.125.808594 4.167968 2.300781 5.683594 1.421875 1.503906 3.394532 2.367187 5.46875 2.382812l17.054688.097656v24.417969l-43.851563-.265625c-2.097656-.007812-4.105469.824219-5.582031 2.3125-1.492188 1.421875-2.335938 3.394531-2.332031 5.457031l-1.617188 281.648438h-19.738281c-4.417969 0-7.875 3.953125-7.875 8.371093v30c-.0117188 2.070313.820312 4.058594 2.304688 5.496094 1.488281 1.441406 3.5 2.210938 5.570312 2.132813zm64.898438-444.328125 334.992187 1.996094-.539063 68.707031-334.992187-1.996094zm24.226562 84.855468 286 1.703126v24.414062l-286-1.699219zm-51.769531 39.921876 391.15625 2.234374-1.617188 271.316407h-391.15625zm-29.230469 289.550781h448v14h-448zm0 0"/></svg>