<svg height="491pt" viewBox="-77 0 491 491.547" width="491pt" xmlns="http://www.w3.org/2000/svg"><path d="m298.773438 302.980469c-20.660157.011719-37.421876 16.722656-37.5 37.382812v38.96875c-9.3125-11.601562-23.390626-18.347656-38.269532-18.332031h-10.730468v-35.910156c-.109376-3.929688-3.3125-7.066406-7.246094-7.089844h-10.753906v-268h94.554687c13.589844 0 24.644531-11.410156 24.644531-25s-11.054687-25-24.640625-25h-241.113281c-13.589844 0-24.644531 11.410156-24.644531 25s11.054687 25 24.640625 25h94.558594v268h-10.753907c-3.933593.023438-7.136719 3.160156-7.246093 7.089844v35.910156h-10.730469c-14.875-.015625-28.957031 6.730469-38.269531 18.332031v-38.96875c0-20.710937-16.789063-37.5-37.5-37.5-20.710938 0-37.5 16.789063-37.5 37.5v63.707031c.128906 3.902344 3.355468 6.984376 7.261718 6.929688h4.738282v54.546875c0 14.359375 11.640624 26 26 26 14.359374 0 26-11.640625 26-26v-21.546875h208v21.546875c0 14.359375 11.640624 26 26 26 14.359374 0 26-11.640625 26-26v-54.546875h4.738281c3.90625.054688 7.132812-3.027344 7.261719-6.929688v-63.707031c-.078126-20.660156-16.839844-37.371093-37.5-37.382812zm-23.5 37.382812c0-12.980469 10.519531-23.5 23.5-23.5 12.980468 0 23.5 10.519531 23.5 23.5v56.636719h-47zm-179-304.363281v-22h144v22zm203.199218-11c.023438 5.945312-4.699218 10.824219-10.640625 11h-34.558593v-22h34.554687c5.945313.175781 10.667969 5.054688 10.644531 11zm-262.398437 0c-.023438-5.945312 4.699219-10.824219 10.640625-11h34.558594v22h-34.554688c-5.945312-.175781-10.667969-5.054688-10.644531-11zm119.199219 25h24v268h-24zm-18 282h60v29h-60zm-24.730469 43h109.460937c10.332032 0 20.199219 5 26.835938 12h-163.132813c6.632813-7 16.503907-12 26.835938-12zm-99.269531-34.636719c0-12.980469 10.519531-23.5 23.5-23.5 12.980468 0 23.5 10.519531 23.5 23.5v56.636719h-47zm24 137.296875c-3.199219-.007812-6.265626-1.289062-8.515626-3.5625-2.253906-2.273437-3.507812-5.347656-3.484374-8.546875v-54.550781h24v54.546875c.023437 3.199219-1.230469 6.277344-3.484376 8.550781-2.25 2.269532-5.316406 3.554688-8.515624 3.5625zm26-47.660156v-19h4.027343c1.847657.015625 3.621094-.707031 4.933594-2.011719 1.308594-1.300781 2.042969-3.070312 2.039063-4.917969v-3.070312h186v3.070312c-.003907 1.847657.730468 3.617188 2.039062 4.917969 1.3125 1.304688 3.085938 2.027344 4.933594 2.011719h4.027344v19zm246 35.546875c0 6.628906-5.371094 12-12 12-6.628907 0-12-5.371094-12-12v-54.546875h24zm0 0"/></svg>