<?xml version="1.0"?>
<svg xmlns="http://www.w3.org/2000/svg" id="Layer_1" data-name="Layer 1" viewBox="0 0 512 512" width="512" height="512"><title>Tape</title><path d="M180.861,379.9a89.457,89.457,0,1,0-89.456-89.456A89.558,89.558,0,0,0,180.861,379.9Zm0-162.913a73.457,73.457,0,1,1-73.456,73.457A73.541,73.541,0,0,1,180.861,216.99Z"/><path d="M483.326,336H341V282.074c0-80.6-59.812-147.478-137.4-158.566a39.021,39.021,0,1,0-45.355,0A160.288,160.288,0,0,0,21,282.071V409.857A48.923,48.923,0,0,0,69.83,459H291.9A49.153,49.153,0,0,0,341,409.857V352H475v48.812a8,8,0,0,0,16,0V343.863A7.612,7.612,0,0,0,483.326,336ZM157.911,91.937a22.951,22.951,0,1,1,22.95,22.95A22.976,22.976,0,0,1,157.911,91.937ZM325,409.857A33.134,33.134,0,0,1,291.9,443H69.83A32.906,32.906,0,0,1,37,409.854V282.071c0-79.43,64.4-144.065,143.8-144.192.076,0,.044,0,.12,0C260.426,137.883,325,202.567,325,282.074Z"/><path d="M61.83,408a8,8,0,0,0,8,8H291.9a8,8,0,0,0,0-16H69.83A8,8,0,0,0,61.83,408Z"/></svg>
