<?xml version="1.0"?>
<svg xmlns="http://www.w3.org/2000/svg" id="Layer_1" data-name="Layer 1" viewBox="0 0 512 512" width="512" height="512"><title>Speaker Box</title><path d="M378.533,16H133.467C115.822,16,101,30.393,101,48.038V426.625A32.76,32.76,0,0,0,133.467,459H146v29a8,8,0,0,0,16,0V459H350v29a8,8,0,0,0,16,0V459h12.533A32.76,32.76,0,0,0,411,426.625V48.038C411,30.393,396.178,16,378.533,16ZM394,427a16,16,0,0,1-16,16H133a16,16,0,0,1-16-16V48a16,16,0,0,1,16-16H378a16,16,0,0,1,16,16Z"/><path d="M256,73.873a98.378,98.378,0,1,0,98.378,98.377A98.488,98.488,0,0,0,256,73.873Zm0,180.755a82.378,82.378,0,1,1,82.378-82.378A82.472,82.472,0,0,1,256,254.628Z"/><path d="M256,132.079a40.171,40.171,0,1,0,40.171,40.171A40.217,40.217,0,0,0,256,132.079Zm0,64.342a24.171,24.171,0,1,1,24.171-24.171A24.2,24.2,0,0,1,256,196.421Z"/><path d="M256,298.112A55.184,55.184,0,1,0,311.184,353.3,55.246,55.246,0,0,0,256,298.112Zm0,94.367A39.184,39.184,0,1,1,295.184,353.3,39.229,39.229,0,0,1,256,392.479Z"/></svg>
