<svg height="436pt" viewBox="0 0 436 436" width="436pt" xmlns="http://www.w3.org/2000/svg"><path d="m436 8c0-4.417969-3.582031-8-8-8h-420c-4.417969 0-8 3.582031-8 8v420c0 4.417969 3.582031 8 8 8h420c4.417969 0 8-3.582031 8-8zm-276 8h116v84.820312l-55.335938-19.414062c-1.722656-.601562-3.597656-.601562-5.320312 0l-55.34375 19.414062zm260 404h-404v-404h128v96.101562c.007812 2.59375 1.269531 5.027344 3.390625 6.527344 2.117187 1.496094 4.832031 1.878906 7.28125 1.019532l63.328125-22.214844 63.320312 22.21875c2.453126.859375 5.167969.476562 7.289063-1.023438 2.121094-1.496094 3.382813-3.929687 3.390625-6.527344v-96.101562h128zm0 0"/><path d="m342 214c0-4.417969-3.582031-8-8-8h-231c-4.417969 0-8 3.582031-8 8v99c0 4.417969 3.582031 8 8 8h231c4.417969 0 8-3.582031 8-8zm-17 91h-214v-83h214zm0 0"/></svg>