<?xml version="1.0"?>
<svg xmlns="http://www.w3.org/2000/svg" id="Layer_1" data-name="Layer 1" viewBox="0 0 512 512" width="512" height="512"><title>Strategy</title><path d="M435.927,181.819a53.431,53.431,0,0,0-42.849,21.516l-23.542-10.959a139.551,139.551,0,0,0,6.216-41.292c0-77.206-62.812-140.018-140.018-140.018S95.717,73.878,95.717,151.084a139.206,139.206,0,0,0,23.666,77.807l-15.507,15.547a53.687,53.687,0,1,0,12.291,10.333l12.985-13.007A139.564,139.564,0,0,0,202,286.978V318h-2.327c-4.418,0-7.673,3.819-7.673,8.238V456.873a44,44,0,1,0,88,0V326.238A8.383,8.383,0,0,0,271.8,318H269V286.978a139.6,139.6,0,0,0,94.664-79.572L385.4,217.465a53.533,53.533,0,1,0,50.531-35.646ZM76.073,327.575A37.475,37.475,0,1,1,113.549,290.1,37.517,37.517,0,0,1,76.073,327.575Zm35.644-176.491a124.018,124.018,0,1,1,243.157,34.467l-67.728-31.527c0-.313.024-.624.024-.939a53.475,53.475,0,1,0-105.308,13.161l-50.933,51.068A123.275,123.275,0,0,1,111.717,151.084Zm84.5,2a37.475,37.475,0,1,1,37.474,37.476A37.517,37.517,0,0,1,196.22,153.085ZM264,334v99H208V334ZM236,484.934a28.041,28.041,0,0,1-28-28.061V449h56v7.873A28.041,28.041,0,0,1,236,484.934ZM253,318H218V289.981a138.946,138.946,0,0,0,17.5,1.121,127.682,127.682,0,0,0,17.5-1.121Zm-17.266-42.9a123.806,123.806,0,0,1-95.26-44.7L188.747,182A53.436,53.436,0,0,0,284.3,170.346L349.4,200.653A124.192,124.192,0,0,1,235.734,275.1Zm200.193-2.332A37.476,37.476,0,1,1,473.4,235.294,37.519,37.519,0,0,1,435.927,272.77Z"/></svg>
