<svg height="468pt" viewBox="-45 0 467 468" width="468pt" xmlns="http://www.w3.org/2000/svg"><path d="m334.074219 325.136719c-33.445313-101.773438-40.238281-210.421875-19.726563-315.570313.460938-2.351562-.152344-4.78125-1.671875-6.632812-1.519531-1.851563-3.785156-2.9257815-6.179687-2.933594h-234.441406c-2.394532.0078125-4.65625 1.082031-6.175782 2.929688-1.519531 1.851562-2.132812 4.28125-1.675781 6.628906 20.511719 105.148437 13.71875 213.800781-19.726563 315.574218l-43.574218 132.332032c-.8046878 2.441406-.390625 5.121094 1.113281 7.203125 1.503906 2.085937 3.914063 3.324219 6.484375 3.332031h361.550781c2.570313-.007812 4.980469-1.242188 6.484375-3.324219s1.917969-4.761719 1.117188-7.199219zm-37.21875-309.136719c-1.574219 9-2.949219 18-4.15625 26h-206.84375c-1.207031-8-2.582031-17-4.160157-26zm-237.179688 313.9375c28.789063-87.574219 38.394531-180.320312 28.164063-271.9375h202.871094c-10.230469 91.617188-.625 184.363281 28.164062 271.9375l22.679688 69.0625h-304.558594zm-40.117187 122.0625 12.167968-37h315.101563l12.167969 37zm0 0"/><path d="m221.84375 273.4375c0-17.984375-14.582031-32.566406-32.570312-32.566406-17.984376 0-32.566407 14.582031-32.566407 32.570312 0 17.984375 14.582031 32.566406 32.570313 32.566406 17.976562-.015624 32.550781-14.589843 32.566406-32.570312zm-32.566406 18.570312c-10.257813 0-18.570313-8.3125-18.570313-18.566406 0-10.257812 8.3125-18.570312 18.566407-18.570312 10.257812 0 18.570312 8.3125 18.570312 18.566406-.011719 10.25-8.316406 18.558594-18.566406 18.570312zm0 0"/><path d="m142.621094 364.144531 2.144531 1.097657c3.175781 1.628906 7.066406.605468 9.03125-2.371094l28.890625-43.75c1.171875-1.777344 1.472656-3.992188.816406-6.019532-.65625-2.023437-2.203125-3.640624-4.195312-4.390624l-3.160156-1.1875c-16.304688-6.109376-26.007813-22.90625-23.148438-40.085938l.550781-3.324219c.351563-2.101562-.277343-4.25-1.699219-5.832031-1.425781-1.582031-3.496093-2.433594-5.625-2.304688l-52.335937 3.140626c-3.550781.214843-6.378906 3.058593-6.570313 6.609374l-.128906 2.40625c-.089844 1.679688-.136718 3.464844-.136718 5.308594-.0625 38.292969 21.421874 73.367188 55.566406 90.703125zm-41.5625-91.433593 37.535156-2.253907c-.058594.992188-.089844 1.984375-.089844 2.980469.074219 19.050781 10.824219 36.453125 27.824219 45.046875l-20.714844 31.371094c-27.574219-15.542969-44.613281-44.761719-44.558593-76.417969 0-.242188.003906-.484375.003906-.726562zm0 0"/><path d="m226.703125 258.277344c-1.425781 1.585937-2.050781 3.734375-1.703125 5.835937l.554688 3.324219c2.855468 17.179688-6.847657 33.976562-23.15625 40.085938l-3.152344 1.1875c-1.996094.746093-3.539063 2.363281-4.195313 4.390624-.660156 2.023438-.359375 4.238282.816407 6.015626l28.890624 43.75c1.964844 2.980468 5.855469 4 9.03125 2.375l2.140626-1.101563c34.144531-17.335937 55.632812-52.410156 55.566406-90.707031 0-1.84375-.042969-3.628906-.132813-5.316406l-.128906-2.398438c-.191406-3.550781-3.019531-6.394531-6.570313-6.609375l-52.339843-3.140625c-2.125-.125-4.195313.726562-5.621094 2.308594zm50.789063 14.433594v.726562c.054687 31.65625-16.984376 60.875-44.558594 76.417969l-20.714844-31.371094c17.003906-8.59375 27.75-25.996094 27.824219-45.046875 0-.996094-.027344-1.988281-.085938-2.980469zm0 0"/><path d="m152.832031 245.253906c.957031 1.90625 2.726563 3.273438 4.8125 3.714844 2.085938.441406 4.261719-.089844 5.90625-1.449219l2.597657-2.148437c13.5625-10.691406 32.683593-10.691406 46.246093 0l2.597657 2.148437c1.648437 1.359375 3.820312 1.890625 5.90625 1.449219 2.085937-.441406 3.859374-1.808594 4.8125-3.714844l23.445312-46.902344c1.589844-3.179687.542969-7.050781-2.4375-8.992187l-2.011719-1.3125c-33.824219-21.535156-77.058593-21.535156-110.882812 0l-2.007813 1.308594c-2.976562 1.945312-4.027344 5.8125-2.433594 8.992187zm36.445313-59.355468c15.636718-.089844 31.011718 4.007812 44.53125 11.863281l-16.820313 33.636719c-16.914062-10.734376-38.507812-10.734376-55.425781 0l-16.820312-33.644532c13.519531-7.851562 28.898437-11.945312 44.535156-11.855468zm0 0"/></svg>