<svg height="420pt" viewBox="-8 0 420 420.00078" width="420pt" xmlns="http://www.w3.org/2000/svg"><path d="m117.308594 282h105.234375c3.316406 0 6-2.6875 6-6s-2.683594-6-6-6h-105.234375c-3.3125 0-6 2.6875-6 6s2.6875 6 6 6zm0 0"/><path d="m117.308594 337h215.210937c3.3125 0 6-2.6875 6-6s-2.6875-6-6-6h-215.210937c-3.3125 0-6 2.6875-6 6s2.6875 6 6 6zm0 0"/><path d="m224.914062 216.769531c-13.828124-.015625-25.035156-11.222656-25.050781-25.050781 0-3.3125-2.683593-6-6-6-3.3125 0-6 2.6875-6 6 .023438 17.421875 12.164063 32.480469 29.179688 36.199219v14.082031c0 3.3125 2.6875 6 6 6 3.316406 0 6-2.6875 6-6v-13.464844c19.535156-2.195312 33.957031-19.261718 32.859375-38.886718s-17.332032-34.980469-36.988282-34.980469c-13.835937 0-25.050781-11.214844-25.050781-25.050781 0-13.832032 11.214844-25.046876 25.050781-25.046876 13.835938 0 25.050782 11.214844 25.050782 25.046876 0 3.316406 2.6875 6 6 6s6-2.683594 6-6c-.023438-18.855469-14.1875-34.691407-32.921875-36.816407v-14.800781c0-3.3125-2.683594-6-6-6-3.3125 0-6 2.6875-6 6v15.417969c-18.496094 4.023437-30.984375 21.339843-28.960938 40.160156 2.019531 18.820313 17.902344 33.089844 36.832031 33.089844 13.746094.125 24.828126 11.300781 24.828126 25.050781 0 13.746094-11.082032 24.925781-24.828126 25.050781zm0 0"/><path d="m27.5 312c-15.1875 0-27.5 12.3125-27.5 27.5s12.3125 27.5 27.5 27.5h18.542969v47.078125c-.050781 1.558594.535156 3.070313 1.621093 4.1875 1.089844 1.117187 2.582032 1.742187 4.140626 1.734375h346.21875c1.585937.019531 3.113281-.597656 4.242187-1.707031 1.128906-1.113281 1.769531-2.628907 1.777344-4.214844v-408.15625c-.007813-1.585937-.648438-3.101563-1.777344-4.210937-1.128906-1.113282-2.65625-1.7304692-4.242187-1.710938h-346.21875c-1.558594-.0078125-3.050782.621094-4.140626 1.738281-1.085937 1.117188-1.671874 2.628907-1.621093 4.183594v36.078125h-18.542969c-14.910156 0-27 12.089844-27 27s12.089844 27 27 27h18.542969v36h-18.542969c-15.1875 0-27.5 12.3125-27.5 27.5s12.3125 27.5 27.5 27.5h18.542969v35h-18.542969c-15.1875 0-27.5 12.3125-27.5 27.5s12.3125 27.5 27.5 27.5h18.542969v35zm0 43c-8.558594 0-15.5-6.9375-15.5-15.5 0-8.558594 6.941406-15.5 15.5-15.5h18.542969v31zm0-271c-5.460938.15625-10.574219-2.667969-13.347656-7.375-2.777344-4.703125-2.777344-10.546875 0-15.25 2.773437-4.703125 7.886718-7.527344 13.347656-7.375h18.542969v30zm0 91c-8.558594 0-15.5-6.9375-15.5-15.5 0-8.558594 6.941406-15.5 15.5-15.5h18.542969v31zm0 90c-8.558594 0-15.5-6.9375-15.5-15.5 0-8.558594 6.941406-15.5 15.5-15.5h18.542969v31zm53.542969 23.199219c3.316406 0 6-2.683594 6-6v-22.5625c0-3.3125-2.683594-6-6-6-3.3125 0-6 2.6875-6 6v5.363281h-17v-78h17v4.953125c0 3.3125 2.6875 6 6 6 3.316406 0 6-2.6875 6-6v-22.5625c0-3.316406-2.683594-6-6-6-3.3125 0-6 2.683594-6 6v5.609375h-17v-79h17v5.699219c0 3.316406 2.6875 6 6 6 3.316406 0 6-2.683594 6-6v-22.554688c0-3.316406-2.683594-6-6-6-3.3125 0-6 2.683594-6 6v4.855469h-17v-72h334v396h-334v-41h17v5.445312c0 3.3125 2.6875 6 6 6 3.316406 0 6-2.6875 6-6v-22.5625c0-3.3125-2.683594-6-6-6-3.3125 0-6 2.6875-6 6v5.117188h-17v-78h17v5.199219c0 3.316406 2.6875 6 6 6zm0 0"/></svg>