<?xml version="1.0"?>
<svg xmlns="http://www.w3.org/2000/svg" id="Layer_1" data-name="Layer 1" viewBox="0 0 512 512" width="512" height="512"><title>Speaker</title><path d="M362.852,160.561a8,8,0,1,0-10.512,12.062,108.548,108.548,0,0,1,0,163.247,8,8,0,0,0,10.512,12.063,124.548,124.548,0,0,0,0-187.372Z"/><path d="M427.868,119.2a8,8,0,1,0-10.81,11.8,167.11,167.11,0,0,1,54.088,123.247c0,46.959-19.226,90.745-54.138,123.293a8,8,0,0,0,10.91,11.7c38.194-35.607,59.228-83.55,59.228-134.981A183.14,183.14,0,0,0,427.868,119.2Z"/><path d="M294.821,45.732a7.8,7.8,0,0,0-8.248.52L132.241,160H32.854C28.436,160,25,163.948,25,168.366V343.629c0,4.419,3.436,8.371,7.854,8.371h99.387L286.68,465.749a7.9,7.9,0,0,0,4.75,1.47,7.2,7.2,0,0,0,3.39-.9,7.876,7.876,0,0,0,4.18-7.188V52.874A7.81,7.81,0,0,0,294.821,45.732ZM41,176h88V336H41ZM283,443.283,145,340.864V171.132L283,68.716Z"/></svg>
