<svg height="494pt" viewBox="0 -12 494.7429 494" width="494pt" xmlns="http://www.w3.org/2000/svg"><path d="m488.742188 152.382812-379.34375-97.839843 9.609374-37.253907c1.105469-4.277343-1.46875-8.640624-5.746093-9.746093l-19.78125-5.097657c-35.246094-9.050781-71.164063 12.136719-80.292969 47.363282l-11.117188 43.113281c-8.125 31.667969 8.160157 64.515625 38.285157 77.222656v30.683594h-16.855469c-2.101562-.078125-4.148438.691406-5.679688 2.132813-1.53125 1.445312-2.417968 3.441406-2.464843 5.546874v73.320313c.066406 4.445313 3.699219 8.011719 8.144531 8h16.855469v39h-16.855469c-4.492188.097656-8.09375 3.738281-8.144531 8.230469v73.324218c.03125 4.535157 3.613281 8.246094 8.144531 8.445313h52.371094c4.601562-.167969 8.292968-3.847656 8.484375-8.445313v-73.324218c-.207031-4.554688-3.925781-8.160156-8.484375-8.230469h-19.515625v-39h19.515625c4.421875 0 8.484375-3.582031 8.484375-8v-73.320313c0-4.421874-4.0625-7.679687-8.484375-7.679687h-19.515625v-25.832031l12.859375 3.316406c2.054687.535156 4.238281.226562 6.066406-.851562 1.828125-1.078126 3.152344-2.839844 3.679688-4.894532l9.605468-37.253906 119.972656 31.183594-23.207031 252.332031h-41.992187c-4.417969 0-7.984375 3.101563-7.984375 7.519531v36.96875c0 4.417969 3.566406 7.511719 7.984375 7.511719h207.023437c4.417969 0 7.992188-3.101563 7.992188-7.511719v-36.96875c0-4.417968-3.574219-7.519531-7.992188-7.519531h-41.996093l-21.34375-232.089844 143.332031 36.726563v83.363281h-24.664063c-4.417968 0-8.335937 3.398437-8.335937 7.816406v95.550781c0 4.417969 3.917969 7.632813 8.335937 7.632813h68.25c4.417969 0 8.414063-3.214844 8.414063-7.632813v-95.550781c0-4.417969-3.996094-7.816406-8.414063-7.816406h-27.585937v-79.234375l21.554687 5.558594c4.277344 1.101562 8.640625-1.472656 9.742188-5.75l16.835937-65.273438c1.105469-4.28125-1.46875-8.644531-5.746093-9.746094zm-420.386719 250.445313h-37v-58h37zm0-129h-37v-57h37zm398 128h-53v-79h53zm-400.75-241.007813-12.097657-3.097656c-26.679687-6.910156-42.738281-34.101562-35.902343-60.800781l11.101562-43.109375c3.292969-12.824219 11.550781-23.808594 22.953125-30.539062 11.402344-6.730469 25.011719-8.648438 37.828125-5.335938l12.171875 3.097656-26.304687 102.53125v.007813zm276.75 294.007813h-191v-20h191zm-50.054688-36h-90.902343l22.835937-248.285156 46.332031 12.070312zm171.855469-203.167969-371.59375-95.839844 12.839844-49.785156 371.601562 95.839844zm0 0"/></svg>