<svg height="465.744pt" viewBox="0 0 465.744 465.744" width="465.744pt" xmlns="http://www.w3.org/2000/svg"><path d="m109.792969 232.863281c0 67.972657 55.101562 123.074219 123.070312 123.074219 67.972657 0 123.074219-55.101562 123.074219-123.074219 0-67.96875-55.101562-123.070312-123.074219-123.070312-67.9375.078125-122.992187 55.132812-123.070312 123.070312zm53.992187 87.15625c1.742188-14.972656 14.46875-26.238281 29.539063-26.148437h12.65625c2.484375 12 13.535156 21.949218 26.753906 21.949218 13.214844 0 24.265625-9.949218 26.75-21.949218h12.917969c15.070312-.089844 27.796875 11.175781 29.539062 26.148437-40.417968 32.214844-97.738281 32.214844-138.15625 0zm43.015625-61.777343c-6.984375-6.855469-10.925781-16.234376-10.929687-26.019532v-3.222656c24.527344-4.777344 45.90625-19.679688 58.871094-41.039062 1.613281.582031 3.152343 1.355468 4.578124 2.308593 6.578126 4.375 10.480469 11.789063 10.367188 19.683594l.183594 4.21875v17.515625c0 20.375-16.78125 37.183594-36.859375 37.183594h-.277344c-9.714844.035156-19.039063-3.789063-25.933594-10.628906zm75.070313-43.984376-.164063-4.128906c.234375-11.957031-5.636719-23.210937-15.582031-29.855468-4.011719-2.703126-8.582031-4.460938-13.371094-5.140626-2.476562-.34375-4.910156.875-6.113281 3.066407-19.1875 35.117187-53.101563 39.191406-55.910156 39.472656-3.796875.15625-6.808594 3.253906-6.859375 7.054687v7.5c.027344 2.378907.230468 4.757813.601562 7.113282-4.4375-9.074219-6.945312-18.964844-7.363281-29.054688-.40625-9.25 1.523437-18.453125 5.617187-26.757812 6.9375-13.921875 20.097657-24.558594 36.085938-29.175782 8.960938-2.773437 18.648438-1.976562 27.039062 2.226563 7.902344 4.117187 14.09375 10.902344 17.46875 19.148437l.222657.664063c.984375 2.949219 4.054687 4.660156 7.078125 3.941406 1.507812-.363281 9.300781-1.515625 14.363281 11.019531 5.082031 12.59375 4.792969 26.902344-.8125 40.292969-.882813 2.265625-1.875 4.488281-2.980469 6.65625.371094-2.1875.597656-4.394531.675782-6.613281zm-64 73.125v-8.917968c4.769531 1.675781 9.800781 2.492187 14.859375 2.40625h.371093c5.023438-.03125 10.007813-.863282 14.769532-2.464844v9.65625c0 8.28125-6.714844 15-15 15s-15-6.71875-15-15zm14.992187-165.589843c44.738281.042969 85.09375 26.898437 102.410157 68.152343 17.316406 41.25 8.21875 88.863282-23.085938 120.828126-5.535156-17.285157-21.640625-28.980469-39.785156-28.902344h-12.53125v-1.425782c4.164062-3.140624 8.066406-6.605468 11.679687-10.371093 10.796875-10.789063 18.78125-22.160157 23.65625-33.796875 6.839844-16.324219 7.164063-33.875.890625-49.421875-4.738281-11.746094-13.464844-18.671875-23.105468-18.785157-10.269532-21.496093-34.722657-32.234374-57.5-25.253906-19.199219 5.550782-35.050782 18.4375-43.484376 35.359375-4.921874 10.132813-7.203124 21.347657-6.636718 32.597657 1.171875 28.332031 16.5 54.699218 40.5 68.253906v2.84375h-12.546875c-18.144531-.078125-34.25 11.617187-39.785157 28.902344-20.367187-20.769532-31.765624-48.699219-31.746093-77.785157 0-61.25 49.824219-111.195312 111.070312-111.195312zm0 0"/><path d="m15.355469 102.292969c-1.015625-11.46875-.347657-23.023438 1.980469-34.300781 3.144531-14.21875 9.34375-26.039063 18.429687-35.121094 12.695313-12.699219 30.476563-19.660156 52.804687-20.6875 10.703126-.40625 21.417969.324218 31.964844 2.175781l2.074219-11.820313c-11.398437-1.996093-22.972656-2.785156-34.539063-2.34375-25.460937 1.167969-45.914062 9.308594-60.785156 24.191407-10.734375 10.722656-18.019531 24.523437-21.683594 41.09375-2.578124 12.449219-3.320312 25.207031-2.199218 37.871093zm0 0"/><path d="m50.683594 207.625c-4.84375-8.835938-9.289063-17.71875-13.207032-26.40625l-10.9375 4.929688c4.046876 8.972656 8.628907 18.140624 13.621094 27.246093zm0 0"/><path d="m8.007812 132.585938c1.992188 8.503906 4.414063 16.90625 7.253907 25.167968l11.351562-3.882812c-2.707031-7.878906-5.015625-15.886719-6.914062-24zm0 0"/><path d="m104.394531 304.011719c4.066407 4.628906 8.277344 9.277343 12.527344 13.816406 1.90625 2.042969 3.839844 4.078125 5.792969 6.105469l8.644531-8.320313c-1.910156-1.984375-3.804687-3.980469-5.675781-5.980469-4.160156-4.449218-8.289063-9.003906-12.273438-13.535156-.699218-.800781-1.394531-1.601562-2.089844-2.402344l-9.054687 7.875c.707031.816407 1.414063 1.628907 2.128906 2.441407zm0 0"/><path d="m83.003906 278.148438 9.472656-7.363282c-1.164062-1.5-2.316406-3.003906-3.460937-4.507812-4.890625-6.433594-9.625-12.960938-14.066406-19.410156l-9.878907 6.8125c4.546876 6.597656 9.390626 13.28125 14.390626 19.855468 1.167968 1.539063 2.347656 3.078125 3.542968 4.613282zm0 0"/><path d="m357.519531 447.335938c-3.398437-.328126-6.914062-.777344-10.441406-1.332032l-1.875 11.851563c3.769531.597656 7.527344 1.074219 11.171875 1.425781 5.144531.492188 10.148438.738281 15.019531.738281 8.949219.054688 17.875-.878906 26.617188-2.785156 16.285156-3.671875 29.929687-10.921875 40.558593-21.546875 20.925782-20.929688 28.574219-53.34375 22.109376-93.738281-3.238282-20.234375-9.941407-42.023438-19.917969-64.761719l-10.988281 4.824219c9.570312 21.800781 15.980468 42.605469 19.058593 61.835937 5.828125 36.433594-.652343 65.257813-18.746093 83.351563-9 9-20.675782 15.164062-34.710938 18.328125-11.246094 2.53125-23.984375 3.136718-37.855469 1.808594zm0 0"/><path d="m422.132812 240.324219-10.421874 5.949219c3.875 6.789062 7.523437 13.628906 10.851562 20.335937l10.75-5.335937c-3.429688-6.914063-7.191406-13.960938-11.179688-20.949219zm0 0"/><path d="m366.070312 161.359375c-6.542968-7.648437-13.382812-15.21875-20.332031-22.5l-8.675781 8.285156c6.796875 7.121094 13.488281 14.527344 19.890625 22.011719zm0 0"/><path d="m385.144531 184.933594-9.53125 7.292968c5.984375 7.824219 11.828125 15.914063 17.371094 24.046876l9.914063-6.753907c-5.664063-8.316406-11.636719-16.585937-17.753907-24.585937zm0 0"/><path d="m289.535156 465.742188 40.90625-11.703126c3.1875-.914062 5.03125-4.234374 4.117188-7.421874l-10.664063-37.265626-11.535156 3.300782 7.78125 27.191406c-20.476563-6.179688-40.285156-14.394531-59.128906-24.515625-24.574219-13.128906-47.941407-28.398437-69.832031-45.628906-16.234376-12.714844-31.761719-26.300781-46.519532-40.703125l-8.382812 8.589844c15.066406 14.699218 30.921875 28.574218 47.496094 41.554687 22.449218 17.667969 46.414062 33.328125 71.617187 46.789063 16.550781 8.835937 33.792969 16.3125 51.554687 22.351562l-20.707031 5.925781zm0 0"/><path d="m150.882812 53.917969 11.734376-2.507813-5.90625-27.632812c15.957031 5.457031 31.460937 12.160156 46.367187 20.042968 24.257813 12.804688 47.347656 27.707032 69 44.542969 10.207031 7.875 20.488281 16.417969 30.550781 25.390625 5.59375 4.992188 11.210938 10.210938 16.699219 15.515625 2.386719 2.296875 4.820313 4.699219 7.242187 7.117188l8.484376-8.488281c-2.46875-2.464844-4.953126-4.910157-7.390626-7.261719-5.597656-5.410157-11.332031-10.738281-17.042968-15.835938-10.277344-9.164062-20.777344-17.890625-31.191406-25.925781-22.203126-17.257812-45.871094-32.535156-70.742188-45.664062-12.230469-6.46875-24.847656-12.167969-37.785156-17.070313l20.613281-4.40625-2.507813-11.734375-41.613281 8.894531c-3.238281.691407-5.304687 3.878907-4.613281 7.121094zm0 0"/><path d="m2.539062 343.234375c-1.996093 11.398437-2.785156 22.972656-2.347656 34.539063 1.171875 25.460937 9.3125 45.914062 24.195313 60.792968 10.726562 10.730469 24.527343 18.011719 41.09375 21.664063 8.6875 1.804687 17.542969 2.710937 26.417969 2.710937 3.816406 0 7.632812-.164062 11.449218-.5l-1.054687-11.953125c-11.46875 1.015625-23.023438.347657-34.300781-1.984375-14.21875-3.140625-26.039063-9.332031-35.121094-18.421875-12.699219-12.699219-19.660156-30.480469-20.6875-52.808593-.402344-10.703126.324218-21.414063 2.175781-31.964844zm0 0"/><path d="m213.394531 425.683594-5.769531-10.523438c-8.832031 4.84375-17.71875 9.285156-26.40625 13.207032l4.933594 10.9375c8.972656-4.046876 18.136718-8.632813 27.242187-13.621094zm0 0"/><path d="m157.753906 450.582031-3.882812-11.355469c-7.878906 2.707032-15.886719 5.015626-24 6.917969l2.714844 11.691407c8.503906-1.996094 16.90625-4.414063 25.167968-7.253907zm0 0"/><path d="m309.632812 340.160156c-4.460937 4.171875-9.015624 8.300782-13.535156 12.269532-.796875.699218-1.59375 1.394531-2.390625 2.085937l7.863281 9.066406c.816407-.707031 1.625-1.417969 2.441407-2.132812 4.617187-4.054688 9.265625-8.269531 13.816406-12.527344 2.042969-1.910156 4.074219-3.839844 6.101563-5.792969l-8.320313-8.648437c-1.984375 1.914062-3.976563 3.808593-5.976563 5.679687zm0 0"/><path d="m246.871094 390.890625 6.808594 9.882813c6.597656-4.546876 13.285156-9.390626 19.855468-14.390626 1.542969-1.167968 3.082032-2.351562 4.617188-3.542968l-7.367188-9.476563c-1.496094 1.164063-3 2.320313-4.507812 3.464844-6.429688 4.890625-12.960938 9.621094-19.40625 14.0625zm0 0"/><path d="m343.847656 17.011719c36.4375-5.832031 65.257813.652343 83.351563 18.746093 9 9 15.164062 20.675782 18.328125 34.710938 2.53125 11.246094 3.136718 23.980469 1.808594 37.851562-.328126 3.402344-.777344 6.914063-1.332032 10.445313l11.851563 1.875c.597656-3.773437 1.074219-7.53125 1.425781-11.171875 1.449219-15.140625.761719-29.144531-2.046875-41.636719-3.671875-16.285156-10.921875-29.933593-21.550781-40.558593-20.925782-20.925782-53.339844-28.574219-93.734375-22.109376-20.234375 3.238282-42.023438 9.941407-64.761719 19.917969l4.824219 10.988281c21.800781-9.566406 42.605469-15.980468 61.835937-19.058593zm0 0"/><path d="m266.605469 43.28125-5.332031-10.75c-7.148438 3.550781-14.441407 7.453125-21.675782 11.601562l5.964844 10.414063c7.027344-4.03125 14.109375-7.820313 21.042969-11.265625zm0 0"/><path d="m169.160156 108.890625-7.800781-9.117187c-7.648437 6.542968-15.214844 13.382812-22.5 20.332031l8.289063 8.679687c7.125-6.800781 14.523437-13.492187 22.011718-19.894531zm0 0"/><path d="m209.519531 62.945312c-8.320312 5.667969-16.589843 11.640626-24.582031 17.753907l7.289062 9.53125c7.820313-5.980469 15.914063-11.824219 24.050782-17.371094zm0 0"/><path d="m454.039062 135.402344c-.914062-3.1875-4.234374-5.03125-7.421874-4.121094l-37.261719 10.664062 3.296875 11.539063 27.195312-7.78125c-6.183594 20.476563-14.398437 40.285156-24.515625 59.125-13.128906 24.574219-28.398437 47.945313-45.632812 69.835937-12.714844 16.230469-26.300781 31.761719-40.699219 46.519532l8.585938 8.378906c14.703124-15.066406 28.574218-30.917969 41.554687-47.492188 17.667969-22.449218 33.328125-46.414062 46.792969-71.617187 8.832031-16.550781 16.308594-33.792969 22.347656-51.554687l5.925781 20.707031 11.535157-3.300781zm0 0"/><path d="m14.753906 323.195312c.425782 0 .847656-.042968 1.261719-.132812l37.90625-8.097656-2.511719-11.738282-27.632812 5.90625c5.457031-15.957031 12.160156-31.460937 20.042968-46.371093 12.804688-24.253907 27.707032-47.34375 44.542969-69 7.871094-10.199219 16.414063-20.480469 25.390625-30.546875 4.980469-5.582032 10.199219-11.199219 15.511719-16.699219 2.328125-2.410156 4.722656-4.847656 7.121094-7.242187l-8.488281-8.488282c-2.445313 2.445313-4.886719 4.933594-7.261719 7.390625-5.421875 5.613281-10.75 11.347657-15.835938 17.046875-9.167969 10.28125-17.894531 20.78125-25.925781 31.1875-17.257812 22.203125-32.539062 45.875-45.664062 70.742188-6.46875 12.230468-12.167969 24.851562-17.070313 37.785156l-4.40625-20.609375-11.734375 2.507813 8.894531 41.609374c.589844 2.769532 3.03125 4.75 5.859375 4.75zm0 0"/></svg>