<?xml version="1.0"?>
<svg xmlns="http://www.w3.org/2000/svg" id="Layer_1" data-name="Layer 1" viewBox="0 0 512 512" width="512" height="512"><title>Clipboard Education</title><path d="M400.893,83H348.524a37.363,37.363,0,0,0-37.137-32H298v-.4C298,29.934,281.691,13,261.027,13h-9.575A37.562,37.562,0,0,0,214,50.6V51H201.1a37.065,37.065,0,0,0-37.14,32h-52.85C96.771,83,85,95.063,85,109.4V472.88A26.225,26.225,0,0,0,111.107,499H400.893A26.225,26.225,0,0,0,427,472.88V109.4C427,95.063,415.229,83,400.893,83ZM226,50.6A25.564,25.564,0,0,1,251.458,25h9.569C275.073,25,286,36.55,286,50.6V51H226ZM176,88.363A25.061,25.061,0,0,1,201.1,63H311.387A25.528,25.528,0,0,1,337,88.365v39l-161,0Zm166.863,51a6.162,6.162,0,0,0,4.311-1.758A6.063,6.063,0,0,0,349,133.365V127h20V441H143V127h21v6.363a5.843,5.843,0,0,0,5.812,6ZM415,472.88A14.211,14.211,0,0,1,400.893,487H111.107A14.211,14.211,0,0,1,97,472.88V109.4A14.455,14.455,0,0,1,111.107,95H164v20H136.744A5.853,5.853,0,0,0,131,121.075v326.1A5.639,5.639,0,0,0,136.744,453H375.256A5.639,5.639,0,0,0,381,447.176v-326.1A5.853,5.853,0,0,0,375.256,115H349V95h51.893A14.455,14.455,0,0,1,415,109.4Z"/><path d="M186.744,349h58.512a6,6,0,0,0,0-12H186.744a6,6,0,0,0,0,12Z"/><path d="M325.256,367H186.744a6,6,0,0,0,0,12H325.256a6,6,0,0,0,0-12Z"/><path d="M325.256,397H186.744a6,6,0,0,0,0,12H325.256a6,6,0,0,0,0-12Z"/><path d="M158.49,208.129a5.808,5.808,0,0,0,3.6,5.648L186,223.168v61.739a6.207,6.207,0,0,0,4.126,5.622,173.384,173.384,0,0,0,120.872,0,6.089,6.089,0,0,0,4-5.622V223.168l16-6.209v57.308a16.758,16.758,0,0,0-10.49,15.349,16.541,16.541,0,0,0,33.082,0A16.814,16.814,0,0,0,343,274.187v-65.3c0-.146-.078-.289-.088-.432,0-.108-.01-.214-.011-.324a6.016,6.016,0,0,0-3.946-5.575l-86.2-31.68a6.013,6.013,0,0,0-4.144,0l-86.191,31.68A6,6,0,0,0,158.49,208.129ZM198,280.683V265.4a174.374,174.374,0,0,0,105,0v15.284A162.4,162.4,0,0,1,198,280.683Zm105-27.919a162.391,162.391,0,0,1-105,0V227.838l50.281,19.483a6.58,6.58,0,0,0,2.287.409,6.513,6.513,0,0,0,2.274-.409L303,227.838Zm33.978,41.385a4.533,4.533,0,1,1,4.532-4.533A4.538,4.538,0,0,1,336.978,294.149ZM250.679,182.9l69.234,25.448-12.765,4.968a5.983,5.983,0,0,0-.731.285l-55.738,21.693L194.942,213.6a6,6,0,0,0-.732-.285l-12.765-4.968Z"/></svg>
