<?xml version="1.0"?>
<svg xmlns="http://www.w3.org/2000/svg" id="Layer_1" data-name="Layer 1" viewBox="0 0 512 512" width="512" height="512"><title>Tactics</title><path d="M492.4,410H475V45.692A7.628,7.628,0,0,0,467.135,38h-27.67C435.047,38,431,41.274,431,45.692V104H360.524a32.962,32.962,0,0,0-64.228-2H257.887a32.965,32.965,0,0,0-63.774,0H185.7a32.962,32.962,0,0,0-64.228,2H81V45.692C81,41.274,76.953,38,72.535,38H44.865A7.628,7.628,0,0,0,37,45.692V410H19.6c-4.418,0-7.6,3.767-7.6,8.186v48.122A7.411,7.411,0,0,0,19.6,474H492.4a7.411,7.411,0,0,0,7.6-7.692V418.186C500,413.767,496.816,410,492.4,410ZM459,54V410H447V54ZM92.235,224a32.96,32.96,0,0,0,63.449-1h98.45a32.961,32.961,0,0,0,63.732,0h8.45a32.96,32.96,0,0,0,63.449,1H431v88H400.439a32.96,32.96,0,0,0-64.283-1h-18.13a32.957,32.957,0,0,0-64.052,0h-58.13a32.96,32.96,0,0,0-64.283,1H81V224Zm14.619-9.429a16.963,16.963,0,1,1,16.963,16.964A16.983,16.983,0,0,1,106.854,214.571Zm162.183,0A16.963,16.963,0,1,1,286,231.535,16.982,16.982,0,0,1,269.037,214.571Zm72.183,0a16.963,16.963,0,1,1,16.963,16.964A16.982,16.982,0,0,1,341.22,214.571Zm43.926,104.214a16.963,16.963,0,1,1-16.963-16.964A16.983,16.983,0,0,1,385.146,318.785Zm-82.183,0A16.963,16.963,0,1,1,286,301.821,16.982,16.982,0,0,1,302.963,318.785Zm-122.183,0a16.963,16.963,0,1,1-16.963-16.964A16.982,16.982,0,0,1,180.78,318.785ZM132.175,328a32.961,32.961,0,0,0,63.569-1h58.329a32.968,32.968,0,0,0,63.854,0h18.329a32.961,32.961,0,0,0,63.569,1H431v82H81V328ZM328.183,93.4a16.963,16.963,0,1,1-16.963,16.963A16.983,16.983,0,0,1,328.183,93.4ZM226,93.4a16.963,16.963,0,1,1-16.963,16.963A16.982,16.982,0,0,1,226,93.4Zm-72.183,0a16.963,16.963,0,1,1-16.963,16.963A16.982,16.982,0,0,1,153.817,93.4ZM122.3,120a32.96,32.96,0,0,0,63.581-2h8.064a32.956,32.956,0,0,0,64.118,0h38.064a32.96,32.96,0,0,0,63.581,2H431v88H390.486a32.96,32.96,0,0,0-64.379-1h-8.032a32.954,32.954,0,0,0-64.15,0H155.893a32.96,32.96,0,0,0-64.379,1H81V120ZM53,54H65V410H53ZM484,458H28V426H484Z"/></svg>
