<?xml version="1.0"?>
<svg xmlns="http://www.w3.org/2000/svg" id="Layer_1" data-name="Layer 1" viewBox="0 0 512 512" width="512" height="512"><title>Tools</title><path d="M220.312,17.77A8,8,0,0,0,208,24.508V82H139V24.508a8,8,0,0,0-12.177-6.823C101.6,33.126,86.535,60.609,86.535,91.2c0,29.013,13.547,55.225,36.465,71.018V487a8,8,0,0,0,8,8h85a8,8,0,0,0,8-8V162.172a87.226,87.226,0,0,0-3.688-144.4Zm-8.621,133.413a8,8,0,0,0-3.691,6.74V479H139V157.882a8,8,0,0,0-3.825-6.824c-20.743-12.69-32.64-34.506-32.64-59.855,0-19.874,7.312-37.579,20.465-50.42V90a8,8,0,0,0,8,8h85a8,8,0,0,0,8-8V41.189a71.261,71.261,0,0,1-12.309,109.994Z"/><path d="M417.637,275H366V113h21.747a7.716,7.716,0,0,0,7.987-8.188l-4.469-78.519A7.785,7.785,0,0,0,383.277,19H331.32a7.822,7.822,0,0,0-7.987,7.337l-4.47,78.669a7.488,7.488,0,0,0,2.173,5.718A7.794,7.794,0,0,0,326.851,113H350V275H296.96a8,8,0,0,0,0,16H306V443.915a51.5,51.5,0,1,0,103,0V291h8.637a8,8,0,0,0,0-16ZM335.317,97l3.562-62h36.84l3.561,62ZM393,443.915a35.5,35.5,0,1,1-71,0V440h71ZM393,424H322V291h71Z"/></svg>
