<?xml version="1.0" encoding="iso-8859-1"?>
<!-- Generator: Adobe Illustrator 19.0.0, SVG Export Plug-In . SVG Version: 6.00 Build 0)  -->
<svg version="1.1" id="Capa_1" xmlns="http://www.w3.org/2000/svg" xmlns:xlink="http://www.w3.org/1999/xlink" x="0px" y="0px"
	 viewBox="0 0 512 512" style="enable-background:new 0 0 512 512;" xml:space="preserve">
<g>
	<g>
		<path d="M256,0C114.838,0,0,114.844,0,256s114.838,256,256,256c141.156,0,256-114.844,256-256S397.162,0,256,0z M256,477.011
			c-121.865,0-221.011-99.146-221.011-221.011S134.135,34.989,256,34.989S477.011,134.135,477.011,256S377.865,477.011,256,477.011z
			"/>
	</g>
</g>
<g>
	<g>
		<path d="M367.964,272.328H144.036c-9.663,0-17.494,7.832-17.494,17.494c0,71.383,58.075,129.458,129.458,129.458
			s129.458-58.075,129.458-129.458C385.458,280.16,377.626,272.328,367.964,272.328z M256,384.292
			c-46.109,0-84.614-33.216-92.842-76.975h185.685C340.614,351.076,302.109,384.292,256,384.292z"/>
	</g>
</g>
<g>
	<g>
		<path d="M345.221,150.451c-18.008,0-32.662,14.649-32.662,32.656s14.654,32.656,32.662,32.656
			c18.007,0,32.656-14.649,32.656-32.656S363.228,150.451,345.221,150.451z M345.221,185.44c-1.283,0-2.333-1.044-2.333-2.333
			s1.044-2.333,2.333-2.333s2.327,1.044,2.327,2.333S346.504,185.44,345.221,185.44z"/>
	</g>
</g>
<g>
	<g>
		<path d="M166.779,150.451c-18.008,0-32.656,14.649-32.656,32.656s14.649,32.656,32.656,32.656
			c18.007,0,32.656-14.649,32.656-32.656S184.786,150.451,166.779,150.451z M166.779,185.44c-1.289,0-2.333-1.044-2.333-2.333
			s1.044-2.333,2.333-2.333c1.289,0,2.333,1.044,2.333,2.333S168.068,185.44,166.779,185.44z"/>
	</g>
</g>
<g>
</g>
<g>
</g>
<g>
</g>
<g>
</g>
<g>
</g>
<g>
</g>
<g>
</g>
<g>
</g>
<g>
</g>
<g>
</g>
<g>
</g>
<g>
</g>
<g>
</g>
<g>
</g>
<g>
</g>
</svg>
