<svg height="492pt" viewBox="-34 0 492 492.64764" width="492pt" xmlns="http://www.w3.org/2000/svg"><path d="m212.257812 0c-116.859374 0-211.933593 91.050781-211.933593 202.964844 0 35.921875 11.074219 73.539062 32.917969 111.808594 17.257812 30.246093 41.269531 61 71.363281 91.402343 51.023437 51.546875 101.230469 83.863281 103.34375 85.210938 2.628906 1.679687 5.992187 1.679687 8.617187 0 2.113282-1.347657 52.324219-33.664063 103.34375-85.210938 30.09375-30.402343 54.101563-61.152343 71.367188-91.402343 21.839844-38.269532 32.917968-75.886719 32.917968-111.808594 0-111.914063-95.074218-202.964844-211.9375-202.964844zm165.199219 306.699219c-16.53125 29-39.644531 58.609375-68.699219 87.996093-29.609374 29.710938-61.914062 56.609376-96.5 80.347657-34.582031-23.738281-66.886718-50.636719-96.5-80.347657-29.054687-29.382812-52.167968-58.992187-68.699218-87.992187-20.394532-35.78125-30.734375-70.679687-30.734375-103.738281 0-103.09375 87.898437-186.964844 195.933593-186.964844 108.035157 0 195.9375 83.871094 195.9375 186.964844 0 33.058594-10.335937 67.957031-30.738281 103.738281zm0 0"/><path d="m212.257812 51.445312c-86.511718 0-156.890624 70.378907-156.890624 156.890626 0 86.511718 70.378906 156.894531 156.890624 156.894531 86.511719 0 156.894532-70.382813 156.894532-156.894531 0-86.511719-70.382813-156.890626-156.894532-156.890626zm0 297.785157c-77.6875 0-140.890624-63.199219-140.890624-140.894531 0-77.691407 63.203124-140.890626 140.890624-140.890626 77.691407 0 140.894532 63.203126 140.894532 140.890626s-63.203125 140.894531-140.894532 140.894531zm0 0"/><path d="m280.449219 164.609375c-.449219-4.078125-3.847657-7.195313-7.949219-7.285156h-15.242188v-8.707031c0-23-19.949218-41.714844-44-41.714844-24.046874 0-44 18.710937-44 41.714844v8.707031h-17.242187c-4.101563.089843-7.5 3.207031-7.945313 7.285156l-11.820312 102.835937c-.945312 8.46875 1.792969 16.941407 7.515625 23.257813 6.242187 6.859375 15.117187 10.722656 24.394531 10.621094h96.207032c9.269531.121093 18.144531-3.726563 24.390624-10.570313 5.726563-6.378906 8.457032-14.898437 7.511719-23.414062zm-95.191407-15.992187c0-14.179688 12.777344-25.714844 28-25.714844 15.226563 0 28 11.535156 28 25.714844v8.707031h-56zm87.554688 131.488281c-3.210938 3.441406-7.742188 5.339843-12.449219 5.21875h-96.203125c-4.707031.121093-9.238281-1.777344-12.449218-5.21875-2.714844-3-4.011719-7.019531-3.5625-11.039063l11-95.742187h10.109374v23.429687c0 4.417969 3.582032 8 8 8 4.417969 0 8-3.582031 8-8v-23.429687h56v23.429687c0 4.417969 3.582032 8 8 8 4.417969 0 8-3.582031 8-8v-23.429687h8.109376l11 95.742187c.453124 4.019532-.84375 8.039063-3.554688 11.039063zm0 0"/></svg>