<svg height="456pt" viewBox="-2 0 456 456.55204" width="456pt" xmlns="http://www.w3.org/2000/svg"><path d="m451.445312 140.015625c-.054687-2.695313-1.460937-5.179687-3.742187-6.613281l-120.628906-75.722656c-.246094-2.214844-.574219-4.394532-.988281-6.542969l-.011719-.058594c-6.199219-30.742187-28.5625-50.605469-56.96875-50.605469-13.851563 0-28.679688 4.976563-43.179688 14.453125-14.675781-9.90625-29.304687-14.925781-43.550781-14.925781-28.578125 0-50.855469 20.085938-56.746094 51.152344-.410156 2.144531-.738281 4.320312-.976562 6.527344l-120.628906 75.722656c-2.285157 1.4375-3.695313 3.929687-3.746094 6.625-.050782 2.699218 1.261718 5.242187 3.492187 6.761718l59.511719 40.566407-59.511719 40.5625c-2.230469 1.523437-3.546875 4.066406-3.492187 6.769531.128906 2.726562 1.609375 5.210938 3.945312 6.625l65.640625 40.925781v63.628907c-.078125 14.265624 7.265625 27.542968 19.382813 35.066406l116.835937 70.070312c12.1875 7.382813 27.460938 7.398438 39.664063.042969l117.511718-70.15625c12.164063-7.480469 19.582032-20.730469 19.605469-35.007813v-63.972656l64.875-40.597656c2.28125-1.441406 3.683594-3.929688 3.734375-6.621094.050782-2.695312-1.257812-5.234375-3.480468-6.757812l-59.089844-40.578125 59.078125-40.582031c2.21875-1.527344 3.523437-4.066407 3.464843-6.757813zm-310.097656-85.867187c4.460938-23.53125 20.183594-38.148438 41.027344-38.148438 12.078125 0 25.457031 5.222656 38.699219 15.101562 2.808593 2.09375 6.648437 2.117188 9.484375.0625 13.242187-9.613281 26.570312-14.695312 38.546875-14.695312 20.753906 0 36.566406 14.460938 41.277343 37.738281 9.816407 50.671875-35.273437 93.535157-84.53125 113.699219-68.210937-27.296875-91.605468-76.746094-84.507812-113.757812zm84.523438 210.703124-132.574219-77.519531 68.628906-40.378906c14.746094 13.875 34.105469 26.339844 58.632813 36.070313.136718.054687.277344.109374.421875.15625 3.144531 1.171874 6.609375 1.171874 9.757812 0 .160157-.054688.316407-.113282.472657-.175782 24.421874-9.894531 43.71875-22.417968 58.433593-36.28125l69.265625 40.609375zm-101.230469-188.277343c2.035156 19.339843 10.324219 39.757812 26 58.457031l-72.839844 42.855469-54.917969-37.433594zm-46.828125 120.238281 131.761719 77.042969-66.253907 36-63.167968-39.816407-57.25-35.800781zm19.714844 170.429688c-7.335938-4.59375-11.753906-12.671876-11.664063-21.324219v-53.605469l53.082031 33.574219c1.242188.800781 2.691407 1.230469 4.171876 1.230469 1.320312 0 2.617187-.335938 3.769531-.972657l70.976562-38.582031v151.488281c-1.230469-.480469-2.414062-1.070312-3.539062-1.761719zm257.457031-.054688-117.457031 70.132812c-1.167969.6875-2.394532 1.273438-3.664063 1.75v-151.507812l71.019531 38.582031c1.171876.636719 2.484376.972657 3.820313.972657 1.523437 0 3.019531-.425782 4.3125-1.230469l53.847656-33.90625v53.949219c-.011719 8.664062-4.503906 16.707031-11.878906 21.257812zm16.5625-97.132812-63.144531 39.800781-66.230469-35.988281 132.242187-77.046876 54.449219 37.394532zm2.878906-92.171876-73.488281-43.085937c15.710938-18.699219 24.039062-39.035156 26.117188-58.238281l101.824218 63.921875zm0 0"/></svg>