<svg id="Layer_1" height="512" viewBox="0 0 512 512" width="512" xmlns="http://www.w3.org/2000/svg" data-name="Layer 1"><path d="m240 132.959c-25.765 0-47 20.962-47 46.727v16.29c0 25.765 21.235 46.727 47 46.727s47-20.962 47-46.727v-16.29c0-25.765-21.235-46.727-47-46.727zm35 63.017a35 35 0 0 1 -70 0v-16.29a35 35 0 0 1 70 0z"/><path d="m416.434 284.544c.079-.318.164-.635.241-.953l43.727-4.2a6.153 6.153 0 0 0 5.6-5.972v-64.576a6.154 6.154 0 0 0 -5.6-5.972l-43.661-4.2a182.664 182.664 0 0 0 -22.287-52.8l27.746-33.525a6 6 0 0 0 -.388-8.069l-45.558-45.56a6 6 0 0 0 -8.073-.379l-33.515 27.762a177.513 177.513 0 0 0 -52.817-22.254l-4.2-43.485a5.943 5.943 0 0 0 -5.97-5.361h-62.25a5.943 5.943 0 0 0 -5.973 5.357l-4.2 43.519a177.461 177.461 0 0 0 -52.816 22.241l-33.512-27.766a6 6 0 0 0 -8.07.374l-45.558 45.546a6 6 0 0 0 -.379 8.069l27.77 33.532a182.606 182.606 0 0 0 -22.245 52.8l-43.795 4.2a6.2 6.2 0 0 0 -5.651 5.971v64.582a6.2 6.2 0 0 0 5.65 5.972l43.661 4.195a177.722 177.722 0 0 0 22.309 52.815l-27.728 33.515a6 6 0 0 0 .393 8.07l45.558 45.552a6.006 6.006 0 0 0 8.073.379l33.534-27.772a182.565 182.565 0 0 0 52.8 22.251l4.2 43.574a6 6 0 0 0 5.973 5.424h62.254a6 6 0 0 0 5.972-5.424l4.2-43.576c.776-.191 1.548-.4 2.323-.6a108.143 108.143 0 1 0 132.262-133.256zm-141.444 123.141a6 6 0 0 0 -4.675 5.282l-4.089 42.433h-51.356l-4.09-42.435a6 6 0 0 0 -4.675-5.282 170.736 170.736 0 0 1 -56.824-23.961 6 6 0 0 0 -7.115.4l-32.693 27.078-37.827-37.831 27.076-32.693a6 6 0 0 0 .381-7.14 165.759 165.759 0 0 1 -23.932-56.769 6.263 6.263 0 0 0 -5.514-4.7l-42.657-4.092v-53.683l42.657-4.086a6.129 6.129 0 0 0 5.4-4.675 170.9 170.9 0 0 1 24.007-56.831 6 6 0 0 0 -.37-7.115l-27.062-32.692 37.841-37.824 32.7 27.077a6 6 0 0 0 7.144.38 165.764 165.764 0 0 1 56.766-23.936 5.927 5.927 0 0 0 4.706-5.222l4.089-42.368h51.351l4.09 42.368a5.962 5.962 0 0 0 4.7 5.255 165.728 165.728 0 0 1 56.77 23.916 6 6 0 0 0 7.141-.39l32.692-27.08 37.832 37.831-27.076 32.692a6 6 0 0 0 -.4 7.114 170.755 170.755 0 0 1 23.956 56.825 6.2 6.2 0 0 0 5.457 4.674l42.609 4.088v53.679l-42.609 4.09a6.1 6.1 0 0 0 -5.375 4.7c-.382 1.768-.841 3.542-1.284 5.312a108.741 108.741 0 0 0 -33.626.168 135.532 135.532 0 0 0 6.326-41.113c0-74.991-61.012-136-136-136s-136 61.009-136 136 61.009 136 136 136a135.585 135.585 0 0 0 40.341-6.091 108.406 108.406 0 0 0 -.146 35.027c-2.21.587-4.427 1.135-6.637 1.62zm9.933-50.432a123.216 123.216 0 0 1 -126.923-24.785v-36.768a23.878 23.878 0 0 1 23.825-24h119.365a23.865 23.865 0 0 1 23.81 24v5.6a107.658 107.658 0 0 0 -40.077 55.953zm52.232-63.459a36.044 36.044 0 0 0 -35.949-34.1h-119.381a35.892 35.892 0 0 0 -35.825 36.006v24.1a121.515 121.515 0 0 1 -28.4-78.672c0-68.374 55.538-124 123.912-124a124.032 124.032 0 0 1 115.788 168.299 107.758 107.758 0 0 0 -20.145 8.367zm51.255 191.34a96.14 96.14 0 1 1 96.14-96.14 96.249 96.249 0 0 1 -96.14 96.14z"/><path d="m388.41 345.472a20.475 20.475 0 0 1 20.451 20.452 6 6 0 0 0 12 0 32.5 32.5 0 0 0 -26.861-31.96v-7.964a6 6 0 0 0 -12 0v8.111a32.452 32.452 0 0 0 6.41 64.264 20.452 20.452 0 1 1 -20.452 20.452 6 6 0 0 0 -12 0 32.5 32.5 0 0 0 22.042 30.729v11.444a6 6 0 0 0 12 0v-9.762a32.451 32.451 0 0 0 -1.59-64.863 20.452 20.452 0 1 1 0-40.9z"/></svg>