<svg height="484pt" viewBox="0 -26 484.338 484" width="484pt" xmlns="http://www.w3.org/2000/svg"><path d="m477.335938 346.566406c-8.011719 0-11.65625-3.277344-16.699219-7.808594-5.652344-5.074218-12.6875-11.390624-26.0625-11.390624-13.371094 0-20.402344 6.316406-26.054688 11.390624-1.671875 1.566407-3.433593 3.03125-5.28125 4.382813l35.726563-74.648437c1.453125-3.03125.542968-6.664063-2.160156-8.65625l-54.988282-40.5-22.164062-142.199219c-.527344-3.417969-3.460938-5.949219-6.921875-5.960938h-72.5625v-64.382812c.050781-1.785157-.640625-3.511719-1.910157-4.765625-1.269531-1.253906-3.003906-1.925782-4.789062-1.851563h-62.589844c-1.785156-.0781248-3.523437.59375-4.796875 1.847657-1.273437 1.253906-1.964843 2.984374-1.914062 4.769531v64.382812h-72.5625c-3.457031.015625-6.386719 2.539063-6.917969 5.953125l-22.265625 142.269532-54.882813 40.425781c-2.707031 1.996093-3.613281 5.632812-2.164062 8.664062l30.257812 63.214844c-3.300781 2.019531-6.378906 4.386719-9.175781 7.054687-5.050781 4.53125-8.695312 7.808594-16.699219 7.808594-8.007812 0-11.65625-3.277344-16.703124-7.808594-5.648438-5.074218-12.683594-11.390624-26.050782-11.390624-3.867187 0-6.99999975 3.132812-6.99999975 7 0 3.867187 3.13281275 7 6.99999975 7 8.003906 0 11.652344 3.277343 16.699219 7.808593 5.648437 5.074219 12.683594 11.390625 26.054687 11.390625 13.371094 0 20.398438-6.316406 26.050782-11.390625 5.046875-4.53125 8.695312-7.808593 16.703125-7.808593 8.003906 0 11.65625 3.277343 16.703125 7.808593 5.648437 5.074219 12.683594 11.390625 26.054687 11.390625 13.371094 0 20.398438-6.316406 26.050781-11.390625 5.046876-4.53125 8.695313-7.808593 16.703126-7.808593 8.003906 0 11.652343 3.277343 16.699218 7.808593 5.648438 5.074219 12.683594 11.390625 26.050782 11.390625 13.371093 0 20.402343-6.316406 26.058593-11.390625 5.046875-4.53125 8.691407-7.808593 16.699219-7.808593 8.003906 0 11.65625 3.277343 16.699219 7.808593 5.652343 5.074219 12.683593 11.390625 26.054687 11.390625s20.402344-6.316406 26.058594-11.390625c5.046875-4.53125 8.695312-7.808593 16.699219-7.808593 8.007812 0 11.65625 3.277343 16.699219 7.808593 5.652343 5.074219 12.6875 11.390625 26.058593 11.390625 13.371094 0 20.414063-6.316406 26.066407-11.390625 5.046874-4.535156 8.699218-7.808593 16.707031-7.808593 8.003906 0 11.65625 3.273437 16.703125 7.808593 5.65625 5.074219 12.6875 11.390625 26.0625 11.390625 3.863281 0 7-3.136718 7-7 0-3.867187-3.136719-7-7-7zm-259.167969-332.390625h48v57h-48zm-80.574219 71h209.144531l19.066407 122.339844-119.484376-87.976563c-2.472656-1.816406-5.835937-1.8125-8.300781.007813l-119.582031 88.027344zm66.480469 253.582031c-5.652344-5.074218-12.683594-11.390624-26.054688-11.390624-13.367187 0-20.398437 6.316406-26.050781 11.390624-5.046875 4.535157-8.695312 7.808594-16.703125 7.808594-8.003906 0-11.652344-3.277344-16.699219-7.808594-5.652344-5.074218-12.683594-11.390624-26.054687-11.390624-1.171875 0-2.28125.066406-3.359375.15625l-28.648438-59.847657 174.664063-128.632812v201.753906c-4 3.441406-7.652344 5.769531-14.398438 5.769531-8 0-11.648437-3.273437-16.695312-7.808594zm144.972656-11.390624c-13.371094 0-20.398437 6.316406-26.054687 11.390624-5.050782 4.53125-8.695313 7.808594-16.703126 7.808594-8.003906 0-11.652343-3.277344-16.699218-7.808594-5.648438-5.074218-12.683594-11.390624-26.054688-11.390624-4.953125-.078126-9.863281.949218-14.367187 3.015624v-191.339843l120.800781 88.964843c.742188.902344 1.699219 1.605469 2.78125 2.046876l51.082031 37.621093-37.464843 78.265625c-4.550782-1.15625-7.523438-3.824218-11.265626-7.183594-5.648437-5.074218-12.679687-11.390624-26.054687-11.390624zm0 0"/><path d="m477.335938 382.5625c-8.011719 0-11.65625-3.277344-16.699219-7.808594-5.652344-5.074218-12.6875-11.390625-26.0625-11.390625-13.371094 0-20.40625 6.3125-26.0625 11.390625-5.046875 4.53125-8.699219 7.808594-16.703125 7.808594-8.007813 0-11.65625-3.277344-16.703125-7.808594-5.652344-5.074218-12.683594-11.390625-26.054688-11.390625-13.371093 0-20.402343 6.316407-26.058593 11.390625-5.046876 4.53125-8.691407 7.808594-16.699219 7.808594-8.007813 0-11.652344-3.277344-16.699219-7.808594-5.652344-5.074218-12.6875-11.390625-26.058594-11.390625s-20.398437 6.316407-26.054687 11.390625c-5.046875 4.53125-8.695313 7.808594-16.699219 7.808594s-11.652344-3.277344-16.699219-7.808594c-5.652343-5.074218-12.683593-11.390625-26.054687-11.390625-13.367188 0-20.398438 6.316407-26.050782 11.390625-5.046874 4.53125-8.695312 7.808594-16.703124 7.808594-8.003907 0-11.652344-3.277344-16.699219-7.808594-5.648438-5.074218-12.683594-11.390625-26.054688-11.390625-13.371093 0-20.398437 6.316407-26.054687 11.390625-5.050782 4.53125-8.695313 7.808594-16.699219 7.808594-8.007813 0-11.65625-3.277344-16.703125-7.808594-5.660156-5.078125-12.695312-11.390625-26.0625-11.390625-3.867188 0-7 3.132813-7 7 0 3.867188 3.132812 7 7 7 8.007812 0 11.652344 3.273438 16.699219 7.804688 5.652343 5.078125 12.683593 11.394531 26.054687 11.394531s20.402344-6.316406 26.054688-11.386719c5.046875-4.535156 8.695312-7.808593 16.703125-7.808593 8.003906 0 11.65625 3.269531 16.703125 7.808593 5.648437 5.074219 12.683594 11.390625 26.054687 11.390625 13.371094 0 20.398438-6.320312 26.050781-11.390625 5.046876-4.53125 8.695313-7.808593 16.703126-7.808593 8.003906 0 11.652343 3.277343 16.699218 7.808593 5.648438 5.074219 12.683594 11.390625 26.050782 11.390625 13.371093 0 20.402343-6.316406 26.058593-11.390625 5.046875-4.53125 8.691407-7.808593 16.699219-7.808593 8.003906 0 11.65625 3.277343 16.699219 7.808593 5.652343 5.074219 12.683593 11.390625 26.054687 11.390625s20.402344-6.316406 26.058594-11.390625c5.046875-4.53125 8.695312-7.808593 16.699219-7.808593 8.007812 0 11.65625 3.277343 16.699219 7.808593 5.652343 5.074219 12.6875 11.390625 26.058593 11.390625 13.371094 0 20.414063-6.320312 26.066407-11.390625 5.046874-4.535156 8.699218-7.808593 16.707031-7.808593 8.003906 0 11.65625 3.273437 16.703125 7.808593 5.65625 5.074219 12.6875 11.390625 26.0625 11.390625 3.863281 0 7-3.136718 7-7 0-3.867187-3.136719-7-7-7zm0 0"/><path d="m477.335938 418.554688c-8.011719 0-11.65625-3.273438-16.699219-7.804688-5.652344-5.074219-12.6875-11.390625-26.0625-11.390625-13.371094 0-20.40625 6.316406-26.0625 11.390625-5.046875 4.53125-8.699219 7.804688-16.703125 7.804688-8.007813 0-11.65625-3.273438-16.703125-7.804688-5.652344-5.074219-12.683594-11.390625-26.054688-11.390625-13.371093 0-20.402343 6.316406-26.058593 11.390625-5.046876 4.53125-8.691407 7.804688-16.699219 7.804688-8.007813 0-11.652344-3.273438-16.699219-7.804688-5.652344-5.074219-12.6875-11.390625-26.058594-11.390625s-20.398437 6.316406-26.054687 11.390625c-5.046875 4.53125-8.695313 7.804688-16.699219 7.804688s-11.652344-3.273438-16.699219-7.804688c-5.652343-5.074219-12.683593-11.390625-26.054687-11.390625-13.367188 0-20.398438 6.316406-26.050782 11.390625-5.046874 4.53125-8.695312 7.804688-16.703124 7.804688-8.003907 0-11.652344-3.273438-16.699219-7.804688-5.648438-5.074219-12.683594-11.390625-26.054688-11.390625-13.371093 0-20.398437 6.316406-26.054687 11.390625-5.050782 4.53125-8.695313 7.804688-16.699219 7.804688-8.007813 0-11.65625-3.273438-16.703125-7.804688-5.648438-5.074219-12.683594-11.390625-26.050781-11.390625-3.867188 0-7.0000002 3.132813-7.0000002 7s3.1328122 7 7.0000002 7c8.003906 0 11.652343 3.273437 16.699219 7.804687 5.648437 5.074219 12.683593 11.390626 26.054687 11.390626s20.398437-6.316407 26.054687-11.390626c5.046876-4.53125 8.695313-7.804687 16.699219-7.804687 8.007813 0 11.65625 3.273437 16.699219 7.804687 5.652344 5.074219 12.683594 11.390626 26.054688 11.390626 13.371093 0 20.402343-6.316407 26.054687-11.390626 5.046875-4.53125 8.691406-7.804687 16.699219-7.804687 8.007812 0 11.652344 3.273437 16.699218 7.804687 5.652344 5.074219 12.683594 11.390626 26.054688 11.390626s20.398438-6.316407 26.054688-11.390626c5.050781-4.53125 8.695312-7.804687 16.699218-7.804687 8.007813 0 11.65625 3.273437 16.703125 7.804687 5.652344 5.074219 12.683594 11.390626 26.054688 11.390626 13.371093 0 20.398437-6.316407 26.058593-11.390626 5.046876-4.53125 8.691407-7.804687 16.699219-7.804687 8.003907 0 11.652344 3.273437 16.699219 7.804687 5.652344 5.078126 12.683594 11.390626 26.054688 11.390626 13.371093 0 20.410156-6.3125 26.058593-11.390626 5.050781-4.53125 8.703125-7.804687 16.707031-7.804687 8.003907 0 11.660157 3.273437 16.707032 7.804687 5.652344 5.078126 12.6875 11.390626 26.058594 11.390626 3.863281 0 7-3.132813 7-7 0-3.863282-3.136719-7-7-7zm0 0"/></svg>