<svg height="452pt" viewBox="-4 0 452 452.89503" width="452pt" xmlns="http://www.w3.org/2000/svg"><path d="m385.785156 250.585938-58.273437 43.574218c-12.117188-14.742187-31.226563-21.835937-50.027344-18.5625l-19.667969 3.429688c3.308594-4.601563 5.078125-10.132813 5.050782-15.800782v-64.617187c37-17.980469 60.453124-54.15625 60.453124-93.539063 0-57.9375-49.546874-105.070312-110.484374-105.070312s-110.738282 47.132812-110.738282 105.070312c0 39.296876 23.769532 75.46875 59.769532 93.519532v64.636718c.078124 5.890626 2.074218 11.59375 5.679687 16.25-29.917969-4.179687-60.214844 4.390626-83.507813 23.625l-2.445312-14.34375c-.355469-2.085937-1.527344-3.949218-3.253906-5.167968-1.730469-1.21875-3.875-1.699219-5.960938-1.332032l-65.3125 11.421876c-4.351562.761718-7.261718 4.910156-6.5 9.261718l25.078125 143.332032c.367188 2.089843 1.546875 3.953124 3.285157 5.171874 1.734374 1.21875 3.886718 1.695313 5.976562 1.328126l65.316406-11.425782c4.351563-.761718 7.261719-4.90625 6.5-9.257812l-1.234375-7.066406 15.199219-12.597657c5.96875-4.96875 13.636719-7.421875 21.378906-6.839843l106.515625 7.785156c.175781.011718.355469.019531.535157.019531h.652343c23.503907-.046875 46.390625-7.539063 65.371094-21.398437.304687-.222657.59375-.46875.867187-.734376l126.867188-124.222656c3.023438-2.960937 3.21875-7.765625.445312-10.960937-14.636718-16.898438-39.96875-19.3125-57.535156-5.488281zm-207.917968-28.136719h69v5h-69zm0 21h69v5h-69zm68.980468 21c-.820312 6-5.394531 10-10.917968 10h-46.519532c-5.523437 0-10.097656-4-10.914062-10zm-128.496094-159.378907c0-49.113281 42.402344-89.070312 94.515626-89.070312 52.113281 0 94.515624 39.957031 94.515624 89.070312 0 34.6875-21.871093 66.507813-55.625 81.066407-2.945312 1.257812-4.867187 4.144531-4.890624 7.347656v12.964844h-25.589844l-.058594-80.46875c4.507812 1.382812 8.605469 3.863281 11.921875 7.214843 3.109375 3.140626 8.175781 3.167969 11.316406.058594s3.164063-8.175781.054688-11.316406c-17.480469-17.515625-45.808594-17.675781-63.488281-.359375-3.15625 3.09375-3.207032 8.160156-.113282 11.3125 3.09375 3.15625 8.15625 3.210937 11.3125.117187 3.617188-3.546874 8.101563-6.082031 13-7.355468l.0625 80.800781h-27.417968v-12.96875c.097656-3.140625-1.699219-6.03125-4.558594-7.332031-33.53125-14.628906-54.957032-46.453125-54.957032-81.082032zm-78.320312 330.566407-22.316406-127.574219 49.554687-8.667969 22.316407 127.574219zm265.191406-56.214844c-16.230468 11.703125-35.738281 17.992187-55.75 17.972656l-106.242187-7.765625c-11.863281-.890625-23.613281 2.867188-32.757813 10.480469l-8.160156 6.765625-14.890625-85.140625c23.714844-23.921875 58.585937-33.011719 90.960937-23.710937l6.660157 1.898437c11.585937 3.285156 23.765625 3.917969 35.632812 1.859375l59.566407-10.421875c17.066406-2.960937 33.90625 6.304687 40.535156 22.308594l-89.171875 15.601562c-4.351563.761719-7.265625 4.90625-6.503907 9.257813.761719 4.351562 4.90625 7.265625 9.257813 6.503906l97.914063-17.128906c4.351562-.761719 7.261718-4.90625 6.5-9.257813-.636719-3.648437-1.65625-7.214843-3.039063-10.648437l59.707031-44.648438c.058594-.042968.113282-.085937.167969-.128906 8.621094-6.824219 20.613281-7.453125 29.90625-1.574219zm0 0"/></svg>