<?xml version="1.0"?>
<svg xmlns="http://www.w3.org/2000/svg" id="Layer_1" data-name="Layer 1" viewBox="0 0 512 512" width="512" height="512"><title>Tower crane</title><path d="M454.533,70H246V25.464A8.735,8.735,0,0,0,237.625,17H121.487A8.836,8.836,0,0,0,113,25.464V70H57.467A8.836,8.836,0,0,0,49,78.484V117.72A8.653,8.653,0,0,0,57.467,126H113V409H75.188C70.771,409,67,413.062,67,417.481v69.055A8.571,8.571,0,0,0,75.188,495H283.923c4.418,0,8.077-4.045,8.077-8.464V417.481c0-4.419-3.659-8.481-8.077-8.481H246V126H392v62H361.62a8.121,8.121,0,0,0-7.728,10.192l14.317,53.694A8.168,8.168,0,0,0,375.938,258H393v21.269c-13,3.31-22.192,14.29-22.192,27.29,0,15.61,13.385,28.31,29.942,28.31s29.984-12.7,29.984-28.31a8.016,8.016,0,0,0-16.031,0c0,6.788-6.3,12.31-14.032,12.31s-14.027-5.522-14.027-12.31,6.457-12.31,14.19-12.31a8.144,8.144,0,0,0,8.166-8V258H425.4a8.147,8.147,0,0,0,7.728-6.094l14.317-53.592a8.26,8.26,0,0,0-1.382-7.062A8.119,8.119,0,0,0,439.712,188H408V126h46.533A8.653,8.653,0,0,0,463,117.72V78.484A8.836,8.836,0,0,0,454.533,70ZM129,33H230V87.321L129,51.233Zm0,35.241,101,36.087v24.846L129,93.087Zm0,41.853,101,36.088v24.846L129,134.94Zm0,41.854,101,36.087v24.846L129,176.794Zm0,41.853,101,36.088v24.846L129,218.647Zm0,41.854,101,36.087v24.847L129,260.5Zm0,41.853L230,313.6v24.846L129,302.355Zm0,41.854L230,355.45V380.3L129,344.208Zm0,41.854L230,397.3V409H129ZM65,110V86h48v24ZM276,425v54H83V425ZM429.29,204l-10.036,38H382.078l-10.036-38ZM447,110H246V86H447Z"/></svg>
