<?xml version="1.0" encoding="iso-8859-1"?>
<!-- Generator: Adobe Illustrator 19.0.0, SVG Export Plug-In . SVG Version: 6.00 Build 0)  -->
<svg version="1.1" id="Capa_1" xmlns="http://www.w3.org/2000/svg" xmlns:xlink="http://www.w3.org/1999/xlink" x="0px" y="0px"
	 viewBox="0 0 512 512" style="enable-background:new 0 0 512 512;" xml:space="preserve">
<g>
	<g>
		<path d="M286.151,90.169H73.956c-9.427,0-17.067,7.64-17.067,17.067v52.907c0,9.427,7.64,17.067,17.067,17.067h212.196
			c9.427,0,17.067-7.64,17.067-17.067v-52.907C303.218,97.809,295.578,90.169,286.151,90.169z M269.084,143.076H91.022v-18.773
			h178.062V143.076z"/>
	</g>
</g>
<g>
	<g>
		<path d="M286.151,203.947H73.956c-9.427,0-17.067,7.64-17.067,17.067v126.862c0,9.427,7.64,17.067,17.067,17.067h212.196
			c9.427,0,17.067-7.64,17.067-17.067V221.013C303.218,211.587,295.578,203.947,286.151,203.947z M269.084,330.809H91.022V238.08
			h178.062V330.809z"/>
	</g>
</g>
<g>
	<g>
		<rect x="199.68" y="221.013" width="34.133" height="127.431"/>
	</g>
</g>
<g>
	<g>
		<rect x="125.724" y="221.013" width="34.133" height="127.431"/>
	</g>
</g>
<g>
	<g>
		<path d="M286.151,388.267H73.956c-9.427,0-17.067,7.64-17.067,17.067c0,9.427,7.64,17.067,17.067,17.067h212.196
			c9.427,0,17.067-7.64,17.067-17.067C303.218,395.907,295.578,388.267,286.151,388.267z"/>
	</g>
</g>
<g>
	<g>
		<path d="M343.04,33.28H17.067C7.64,33.28,0,40.92,0,50.347v411.307c0,9.426,7.64,17.067,17.067,17.067H343.04
			c9.427,0,17.067-7.64,17.067-17.067V50.347C360.107,40.92,352.466,33.28,343.04,33.28z M325.973,444.587H34.133V67.413h291.84
			V444.587z"/>
	</g>
</g>
<g>
	<g>
		<path d="M396.516,304.64H343.04v34.133h36.409v56.889H343.04v34.133h53.476c9.427,0,17.067-7.635,17.067-17.067v-91.022
			C413.582,312.28,405.942,304.64,396.516,304.64z"/>
	</g>
</g>
<g>
	<g>
		<path d="M440.889,198.258v146.204h-44.373v34.133h61.44c9.426,0,17.067-7.635,17.067-17.067V198.258H440.889z"/>
	</g>
</g>
<g>
	<g>
		<path d="M459.093,111.218c-29.173,0-52.907,23.734-52.907,52.907s23.734,52.907,52.907,52.907
			c29.173,0,52.907-23.734,52.907-52.907S488.266,111.218,459.093,111.218z M459.093,182.898c-10.354,0-18.773-8.42-18.773-18.773
			s8.425-18.773,18.773-18.773c10.354,0,18.773,8.42,18.773,18.773S469.447,182.898,459.093,182.898z"/>
	</g>
</g>
<g>
</g>
<g>
</g>
<g>
</g>
<g>
</g>
<g>
</g>
<g>
</g>
<g>
</g>
<g>
</g>
<g>
</g>
<g>
</g>
<g>
</g>
<g>
</g>
<g>
</g>
<g>
</g>
<g>
</g>
</svg>
