<svg height="487pt" viewBox="-99 0 487 487" width="487pt" xmlns="http://www.w3.org/2000/svg"><path d="m288 48c0-26.507812-21.492188-48-48-48h-192c-26.507812 0-48 21.492188-48 48v391c0 26.507812 21.492188 48 48 48h192c26.507812 0 48-21.492188 48-48zm-272 47h256v282h-256zm31.855469-79h192.289062c17.640625 0 31.855469 14.722656 31.855469 32.367188v30.632812h-256v-30.632812c0-17.644532 14.214844-32.367188 31.855469-32.367188zm192.289062 456h-192.289062c-17.640625 0-31.855469-14.722656-31.855469-32.367188v-46.632812h256v46.632812c0 17.644532-14.214844 32.367188-31.855469 32.367188zm0 0"/><path d="m109.964844 53h68.070312c4.417969 0 8-3.582031 8-8s-3.582031-8-8-8h-68.070312c-4.417969 0-8 3.582031-8 8s3.582031 8 8 8zm0 0"/><path d="m144 403.558594c-15.984375 0-28.945312 12.960937-28.945312 28.945312 0 15.988282 12.960937 28.945313 28.945312 28.945313s28.945312-12.957031 28.945312-28.945313c-.019531-15.976562-12.964843-28.925781-28.945312-28.945312zm0 41.890625c-7.148438 0-12.945312-5.792969-12.945312-12.945313 0-7.148437 5.796874-12.945312 12.945312-12.945312s12.945312 5.796875 12.945312 12.945312c-.007812 7.148438-5.800781 12.9375-12.945312 12.945313zm0 0"/><path d="m234 162c0-4.417969-3.582031-8-8-8h-164c-4.417969 0-8 3.582031-8 8v164c0 4.417969 3.582031 8 8 8h164c4.417969 0 8-3.582031 8-8zm-108 8h36v21.316406l-15.246094-5.316406c-1.769531-.601562-3.6875-.601562-5.453125 0l-15.300781 5.316406zm92 148h-148v-148h40v32.601562c.046875 2.605469 1.34375 5.03125 3.480469 6.527344 2.136719 1.492188 4.859375 1.871094 7.324219 1.019532l23.167968-8.121094 23.15625 8.121094c.851563.300781 1.75.453124 2.652344.453124 1.695312 0 3.34375-.515624 4.738281-1.476562 2.144531-1.488281 3.4375-3.917969 3.480469-6.523438v-32.601562h40zm0 0"/><path d="m104.636719 250h51.578125c4.417968 0 8-3.582031 8-8s-3.582032-8-8-8h-51.578125c-4.417969 0-8 3.582031-8 8s3.582031 8 8 8zm0 0"/><path d="m104.636719 262c-4.417969 0-8 3.582031-8 8s3.582031 8 8 8h78.726562c4.417969 0 8-3.582031 8-8s-3.582031-8-8-8zm0 0"/></svg>