<svg height="465pt" viewBox="0 -25 465.00945 465" width="465pt" xmlns="http://www.w3.org/2000/svg"><path d="m457.5 218.753906h-113.5v-117.253906c.09375-2.238281-.78125-4.40625-2.398438-5.953125l-104.019531-93.496094c-3.027343-2.742187-7.648437-2.726562-10.660156.035157l-103.082031 93.492187c-1.730469 1.496094-2.757813 3.640625-2.839844 5.921875v117.253906h-112.5c-4.417969 0-8.5 3.328125-8.5 7.746094v181c.214844 4.5625 3.933594 8.171875 8.5 8.253906h449c4.417969 0 7.5-3.835937 7.5-8.253906v-181c.101562-2.042969-.644531-4.035156-2.066406-5.503906s-3.390625-2.28125-5.433594-2.242188zm-225.101562-199.714844 83.214843 74.714844h-165.414062zm36.601562 380.714844h-72v-37.855468c0-19.882813 16.117188-36 36-36s36 16.117187 36 36zm180 0h-164v-37.855468c0-28.71875-23.28125-52-52-52s-52 23.28125-52 52v37.855468h-165v-165h113.5c4.417969 0 7.5-3.835937 7.5-8.253906v-116.746094h191v116.746094c.214844 4.5625 3.933594 8.171875 8.5 8.253906h112.5zm0 0"/><path d="m358 259.753906c0-4.421875-3.582031-8-8-8h-29c-4.417969 0-8 3.578125-8 8v37c0 4.417969 3.582031 8 8 8h29c4.417969 0 8-3.582031 8-8zm-29 8h13v21h-13zm0 0"/><path d="m420 259.753906c0-4.421875-3.582031-8-8-8h-29c-4.417969 0-8 3.578125-8 8v37c0 4.417969 3.582031 8 8 8h29c4.417969 0 8-3.582031 8-8zm-29 8h13v21h-13zm0 0"/><path d="m358 340.753906c0-4.421875-3.582031-8-8-8h-29c-4.417969 0-8 3.578125-8 8v37c0 4.417969 3.582031 8 8 8h29c4.417969 0 8-3.582031 8-8zm-16 29h-13v-21h13zm0 0"/><path d="m420 340.753906c0-4.421875-3.582031-8-8-8h-29c-4.417969 0-8 3.578125-8 8v37c0 4.417969 3.582031 8 8 8h29c4.417969 0 8-3.582031 8-8zm-29 8h13v21h-13zm0 0"/><path d="m91 259.753906c0-4.421875-3.582031-8-8-8h-29c-4.417969 0-8 3.578125-8 8v37c0 4.417969 3.582031 8 8 8h29c4.417969 0 8-3.582031 8-8zm-16 29h-13v-21h13zm0 0"/><path d="m153 259.753906c0-4.421875-3.582031-8-8-8h-29c-4.417969 0-8 3.578125-8 8v37c0 4.417969 3.582031 8 8 8h29c4.417969 0 8-3.582031 8-8zm-16 29h-13v-21h13zm0 0"/><path d="m226 259.753906c0-4.421875-3.582031-8-8-8h-29c-4.417969 0-8 3.578125-8 8v37c0 4.417969 3.582031 8 8 8h29c4.417969 0 8-3.582031 8-8zm-16 29h-13v-21h13zm0 0"/><path d="m288 259.753906c0-4.421875-3.582031-8-8-8h-29c-4.417969 0-8 3.578125-8 8v37c0 4.417969 3.582031 8 8 8h29c4.417969 0 8-3.582031 8-8zm-16 29h-13v-21h13zm0 0"/><path d="m91 340.753906c0-4.421875-3.582031-8-8-8h-29c-4.417969 0-8 3.578125-8 8v37c0 4.417969 3.582031 8 8 8h29c4.417969 0 8-3.582031 8-8zm-16 29h-13v-21h13zm0 0"/><path d="m153 340.753906c0-4.421875-3.582031-8-8-8h-29c-4.417969 0-8 3.578125-8 8v37c0 4.417969 3.582031 8 8 8h29c4.417969 0 8-3.582031 8-8zm-16 29h-13v-21h13zm0 0"/><path d="m253.738281 169.753906h-12.738281v-12.742187c0-4.417969-3.582031-8-8-8s-8 3.582031-8 8v12.742187h-12.738281c-4.417969 0-8 3.578125-8 8 0 4.417969 3.582031 8 8 8h12.738281v12.738282c0 4.417968 3.582031 8 8 8s8-3.582032 8-8v-12.738282h12.738281c4.417969 0 8-3.582031 8-8 0-4.421875-3.582031-8-8-8zm0 0"/><path d="m233 119.503906c-32.167969 0-58.246094 26.078125-58.246094 58.25 0 32.167969 26.078125 58.246094 58.246094 58.246094s58.246094-26.078125 58.246094-58.246094c-.035156-32.15625-26.089844-58.214844-58.246094-58.25zm0 100.5c-23.332031 0-42.246094-18.914062-42.246094-42.246094-.003906-23.332031 18.910156-42.25 42.242188-42.25 23.332031 0 42.25 18.910157 42.25 42.246094-.027344 23.320313-18.925782 42.21875-42.246094 42.246094zm0 0"/></svg>