<svg height="493pt" viewBox="0 -56 493.49098 493" width="493pt" xmlns="http://www.w3.org/2000/svg"><path d="m486.5 191.246094h-12.273438l-22.71875-111.621094c-.683593-3.214844-3.570312-5.480469-6.859374-5.378906h-71.898438v-67.441406c0-3.867188-3.132812-6.558594-7-6.558594h-37c-3.867188 0-7 2.691406-7 6.558594v67.441406h-11v-67.441406c0-3.867188-3.132812-6.558594-7-6.558594h-37c-3.867188 0-7 2.691406-7 6.558594v67.441406h-168.625c-2.808594-.09375-5.386719 1.550781-6.484375 4.136718l-45.9375 112.863282h-31.699219c-2.441406 0-4.707031 1.269531-5.976562 3.351562-1.273438 2.082032-1.367188 4.675782-.253906 6.847656l47.390624 92.414063c-4.140624-1.246094-6.992187-3.800781-10.523437-6.972656-5.652344-5.074219-12.683594-11.390625-26.054687-11.390625-3.867188 0-7 3.136718-7 7 0 3.867187 3.132812 7 7 7 8.007812 0 11.652343 3.277344 16.699218 7.808594 5.652344 5.074218 12.683594 11.390624 26.054688 11.390624s20.402344-6.316406 26.054687-11.390624c5.046875-4.53125 8.695313-7.808594 16.699219-7.808594 8.007812 0 11.65625 3.277344 16.703125 7.808594 5.648437 5.074218 12.683594 11.390624 26.054687 11.390624 13.371094 0 20.398438-6.316406 26.050782-11.390624 5.046875-4.53125 8.695312-7.808594 16.699218-7.808594 8.007813 0 11.652344 3.277344 16.699219 7.808594 5.652344 5.074218 12.683594 11.390624 26.054688 11.390624 13.367187 0 20.398437-6.316406 26.054687-11.390624 5.046875-4.53125 8.695313-7.808594 16.699219-7.808594 8.007813 0 11.65625 3.277344 16.699219 7.808594 5.652344 5.074218 12.6875 11.390624 26.058594 11.390624 13.371093 0 20.398437-6.316406 26.054687-11.390624 5.050781-4.53125 8.695313-7.808594 16.703125-7.808594 8.003906 0 11.652344 3.277344 16.699219 7.808594 5.648437 5.074218 12.683593 11.390624 26.054687 11.390624s20.40625-6.316406 26.058594-11.390624c5.046875-4.53125 8.699219-7.808594 16.707031-7.808594 8.003907 0 11.65625 3.277344 16.703125 7.808594 5.65625 5.074218 12.6875 11.390624 26.0625 11.390624 3.863282 0 7-3.136718 7-7 0-3.867187-3.136718-7-7-7-4.304687.152344-8.523437-1.191406-11.945312-3.800781l23.304687-90.898437c.539063-2.097656.078125-4.324219-1.246093-6.035156-1.328126-1.710938-3.367188-2.710938-5.53125-2.714844zm-127.75-177v16h-23v-16zm-23 30h23v30h-23zm-39-30v16h-23v-16zm-23 30h23v30h-23zm-177.910156 44h343.089844l21.007812 103h-406.125zm362.199218 192.824218c-5.566406-3.769531-12.167968-5.714843-18.886718-5.574218-13.371094 0-20.40625 6.316406-26.058594 11.390625-5.046875 4.53125-8.699219 7.808593-16.707031 7.808593-8.003907 0-11.652344-3.273437-16.699219-7.808593-5.652344-5.074219-12.683594-11.386719-26.054688-11.386719-13.375 0-20.402343 6.3125-26.058593 11.386719-5.046875 4.535156-8.695313 7.808593-16.699219 7.808593-8.007812 0-11.65625-3.273437-16.699219-7.808593-5.652343-5.074219-12.6875-11.386719-26.058593-11.386719-13.371094 0-20.398438 6.3125-26.054688 11.386719-5.046875 4.535156-8.695312 7.808593-16.699219 7.808593-8.003906 0-11.652343-3.273437-16.699219-7.804687-5.652343-5.074219-12.683593-11.390625-26.054687-11.390625-13.367187 0-20.398437 6.316406-26.050781 11.390625-5.046875 4.53125-8.695313 7.804687-16.703125 7.804687-8.003907 0-11.652344-3.273437-16.699219-7.804687-5.648438-5.074219-12.683594-11.390625-26.054688-11.390625-13.371093 0-20.398437 6.316406-26.054687 11.390625-2.304687 2.277344-4.902344 4.242187-7.722656 5.839844l-44.867188-87.484375h459.023438zm0 0"/><path d="m316.75 156.246094c0-3.867188-3.132812-7-7-7h-38c-3.867188 0-7 3.132812-7 7v21c0 3.867187 3.132812 7 7 7h38c3.867188 0 7-3.132813 7-7zm-15 14h-23v-7h23zm0 0"/><path d="m372.75 156.246094c0-3.867188-3.132812-7-7-7h-38c-3.867188 0-7 3.132812-7 7v21c0 3.867187 3.132812 7 7 7h38c3.867188 0 7-3.132813 7-7zm-14 14h-24v-7h24zm0 0"/><path d="m429.75 156.246094c0-3.867188-3.132812-7-7-7h-38c-3.867188 0-7 3.132812-7 7v21c0 3.867187 3.132812 7 7 7h38c3.867188 0 7-3.132813 7-7zm-14 14h-24v-7h24zm0 0"/><path d="m259.75 156.246094c0-3.867188-3.132812-7-7-7h-38c-3.867188 0-7 3.132812-7 7v21c0 3.867187 3.132812 7 7 7h38c3.867188 0 7-3.132813 7-7zm-14 14h-24v-7h24zm0 0"/><path d="m202.75 156.246094c0-3.867188-3.132812-7-7-7h-38c-3.867188 0-7 3.132812-7 7v21c0 3.867187 3.132812 7 7 7h38c3.867188 0 7-3.132813 7-7zm-14 14h-24v-7h24zm0 0"/><path d="m146.75 156.246094c0-3.867188-3.132812-7-7-7h-38c-3.867188 0-7 3.132812-7 7v21c0 3.867187 3.132812 7 7 7h38c3.867188 0 7-3.132813 7-7zm-14 14h-24v-7h24zm0 0"/><path d="m316.75 113.246094c0-3.867188-3.132812-7-7-7h-38c-3.867188 0-7 3.132812-7 7v21c0 3.867187 3.132812 7 7 7h38c3.867188 0 7-3.132813 7-7zm-15 14h-23v-7h23zm0 0"/><path d="m372.75 113.246094c0-3.867188-3.132812-7-7-7h-38c-3.867188 0-7 3.132812-7 7v21c0 3.867187 3.132812 7 7 7h38c3.867188 0 7-3.132813 7-7zm-14 14h-24v-7h24zm0 0"/><path d="m429.75 113.246094c0-3.867188-3.132812-7-7-7h-38c-3.867188 0-7 3.132812-7 7v21c0 3.867187 3.132812 7 7 7h38c3.867188 0 7-3.132813 7-7zm-14 14h-24v-7h24zm0 0"/><path d="m259.75 113.246094c0-3.867188-3.132812-7-7-7h-38c-3.867188 0-7 3.132812-7 7v21c0 3.867187 3.132812 7 7 7h38c3.867188 0 7-3.132813 7-7zm-14 14h-24v-7h24zm0 0"/><path d="m202.75 113.246094c0-3.867188-3.132812-7-7-7h-38c-3.867188 0-7 3.132812-7 7v21c0 3.867187 3.132812 7 7 7h38c3.867188 0 7-3.132813 7-7zm-14 14h-24v-7h24zm0 0"/><path d="m146.75 113.246094c0-3.867188-3.132812-7-7-7h-38c-3.867188 0-7 3.132812-7 7v21c0 3.867187 3.132812 7 7 7h38c3.867188 0 7-3.132813 7-7zm-14 14h-24v-7h24zm0 0"/><path d="m481.917969 330.691406c-8.007813 0-11.65625-3.277344-16.699219-7.808594-5.652344-5.074218-12.6875-11.390624-26.058594-11.390624-13.375 0-20.40625 6.316406-26.058594 11.390624-5.050781 4.53125-8.703124 7.808594-16.707031 7.808594-8.007812 0-11.65625-3.273437-16.699219-7.808594-5.652343-5.074218-12.6875-11.390624-26.058593-11.390624-13.371094 0-20.398438 6.316406-26.054688 11.390624-5.050781 4.53125-8.695312 7.808594-16.703125 7.808594-8.003906 0-11.652344-3.277344-16.699218-7.808594-5.652344-5.074218-12.683594-11.390624-26.054688-11.390624s-20.402344 6.316406-26.054688 11.390624c-5.050781 4.53125-8.695312 7.808594-16.699218 7.808594-8.007813 0-11.652344-3.273437-16.703125-7.808594-5.648438-5.074218-12.683594-11.390624-26.050781-11.390624-13.371094 0-20.402344 6.316406-26.054688 11.390624-5.046875 4.535157-8.691406 7.808594-16.699219 7.808594-8.007812 0-11.65625-3.273437-16.699219-7.808594-5.652343-5.074218-12.683593-11.390624-26.054687-11.390624s-20.402344 6.316406-26.058594 11.390624c-5.046875 4.535157-8.691406 7.808594-16.699219 7.808594-8.003906 0-11.652343-3.277344-16.699218-7.808594-5.652344-5.074218-12.683594-11.390624-26.054688-11.390624-3.867187 0-7 3.136718-7 7 0 3.867187 3.132813 7 7 7 8.007813 0 11.652344 3.273437 16.699219 7.808593 5.652344 5.074219 12.683594 11.390625 26.054687 11.390625 13.371094 0 20.402344-6.316406 26.058594-11.390625 5.046875-4.53125 8.691406-7.808593 16.699219-7.808593 8.003906 0 11.652344 3.277343 16.699219 7.808593 5.652344 5.074219 12.683594 11.390625 26.054687 11.390625 13.371094 0 20.398438-6.316406 26.050781-11.390625 5.046876-4.535156 8.695313-7.808593 16.703126-7.808593 8.003906 0 11.648437 3.273437 16.699218 7.808593 5.648438 5.074219 12.679688 11.390625 26.050782 11.390625 13.371093 0 20.398437-6.316406 26.054687-11.390625 5.050781-4.53125 8.695313-7.808593 16.703125-7.808593 8.003906 0 11.652344 3.277343 16.699219 7.808593 5.652343 5.074219 12.683593 11.390625 26.054687 11.390625s20.398438-6.316406 26.058594-11.390625c5.046875-4.53125 8.691406-7.808593 16.699219-7.808593 8.003906 0 11.65625 3.277343 16.699219 7.808593 5.652343 5.074219 12.683593 11.390625 26.054687 11.390625s20.410156-6.316406 26.0625-11.390625c5.046875-4.53125 8.699219-7.808593 16.703125-7.808593s11.660156 3.277343 16.707031 7.808593c5.652344 5.074219 12.6875 11.390625 26.058594 11.390625 3.867187 0 7-3.136718 7-7 0-3.867187-3.132813-7-7-7zm0 0"/><path d="m481.917969 366.683594c-8.007813 0-11.65625-3.273438-16.699219-7.804688-5.652344-5.074218-12.6875-11.390625-26.058594-11.390625-13.375 0-20.40625 6.316407-26.058594 11.390625-5.050781 4.53125-8.703124 7.804688-16.707031 7.804688-8.007812 0-11.65625-3.273438-16.699219-7.804688-5.652343-5.074218-12.6875-11.390625-26.058593-11.390625-13.371094 0-20.398438 6.316407-26.054688 11.390625-5.050781 4.53125-8.695312 7.804688-16.703125 7.804688-8.003906 0-11.652344-3.273438-16.699218-7.804688-5.652344-5.074218-12.683594-11.390625-26.054688-11.390625s-20.402344 6.316407-26.054688 11.390625c-5.050781 4.53125-8.695312 7.804688-16.699218 7.804688-8.007813 0-11.652344-3.273438-16.703125-7.804688-5.648438-5.074218-12.683594-11.390625-26.050781-11.390625-13.371094 0-20.402344 6.316407-26.054688 11.390625-5.046875 4.53125-8.691406 7.804688-16.699219 7.804688-8.007812 0-11.65625-3.273438-16.699219-7.804688-5.652343-5.074218-12.683593-11.390625-26.054687-11.390625s-20.402344 6.316407-26.058594 11.390625c-5.046875 4.53125-8.691406 7.804688-16.699219 7.804688-8.003906 0-11.652343-3.273438-16.699218-7.804688-5.652344-5.074218-12.683594-11.390625-26.054688-11.390625-3.867187 0-7 3.132813-7 7 0 3.867188 3.132813 7 7 7 8.007813 0 11.652344 3.273438 16.699219 7.808594 5.652344 5.074219 12.683594 11.386719 26.054687 11.386719 13.371094 0 20.402344-6.3125 26.058594-11.386719 5.046875-4.535156 8.691406-7.808594 16.699219-7.808594 8.003906 0 11.652344 3.273438 16.699219 7.808594 5.652344 5.074219 12.683594 11.386719 26.054687 11.386719 13.371094 0 20.398438-6.3125 26.050781-11.386719 5.046876-4.535156 8.695313-7.808594 16.703126-7.808594 8.003906 0 11.648437 3.273438 16.699218 7.808594 5.648438 5.074219 12.679688 11.386719 26.050782 11.386719 13.371093 0 20.398437-6.3125 26.054687-11.386719 5.050781-4.535156 8.695313-7.808594 16.703125-7.808594 8.003906 0 11.652344 3.273438 16.699219 7.808594 5.652343 5.074219 12.683593 11.386719 26.054687 11.386719s20.398438-6.3125 26.058594-11.386719c5.046875-4.535156 8.691406-7.808594 16.699219-7.808594 8.003906 0 11.65625 3.273438 16.699219 7.808594 5.652343 5.074219 12.683593 11.386719 26.054687 11.386719s20.410156-6.3125 26.0625-11.386719c5.046875-4.535156 8.699219-7.808594 16.703125-7.808594s11.660156 3.273438 16.707031 7.808594c5.652344 5.074219 12.6875 11.386719 26.058594 11.386719 3.867187 0 7-3.132813 7-7 0-3.863282-3.132813-7-7-7zm0 0"/></svg>