<svg id="Layer_1" height="512" viewBox="0 0 512 512" width="512" xmlns="http://www.w3.org/2000/svg" data-name="Layer 1"><path d="m232.45 168.5a30.311 30.311 0 0 0 -56.067 22.759c-6.779 13.142-39.851 73.369-87.427 96.159l-67.639 32.4a32.564 32.564 0 0 0 -15.282 43.392l22.181 46.3a32.532 32.532 0 0 0 43.384 15.29l4.177-2 49.979 54.246a31.96 31.96 0 0 0 23.015 10.384c.239.006.476.008.713.008a31.952 31.952 0 0 0 22.726-9.4 32.315 32.315 0 0 0 1.682-43.857c-6.2-7.182-17.842-22.111-29.1-44.263 49.065-20.471 110.64-8.481 124.14-5.453a30.3 30.3 0 0 0 38.662 11.079 30.352 30.352 0 0 0 14.243-40.444zm-143.721 132.337 39.917 83.328-48.52 23.242-39.917-83.328zm-38 113.985a20.4 20.4 0 0 1 -11.691-10.492l-22.181-46.305a20.55 20.55 0 0 1 9.643-27.379l2.886-1.383 39.914 83.328-2.886 1.383a20.39 20.39 0 0 1 -15.684.848zm113.013 54.711a20.233 20.233 0 0 1 -29.159-.624l-47.483-51.538 46.8-22.416c8.93 17.622 19.781 34.172 30.916 47.065a20.273 20.273 0 0 1 -1.073 27.513zm-24.214-90.433-40.042-83.583c41.7-22.581 71.26-69.185 83.194-90.568l79.445 165.843c-23.897-4.421-77.373-10.873-122.597 8.308zm162.881 5.613a18.315 18.315 0 0 1 -24.429-8.6l-89.387-186.6a18.315 18.315 0 0 1 33.036-15.825l89.387 186.6a18.335 18.335 0 0 1 -8.607 24.429z"/><path d="m440.645 112.886a102.576 102.576 0 1 0 58.429 52.434 101.911 101.911 0 0 0 -58.429-52.434zm5.055 178.435a90.575 90.575 0 1 1 42.552-120.821 89.976 89.976 0 0 1 -42.552 120.821z"/><path d="m405.355 207.107a19.01 19.01 0 1 1 8.932-25.357 6 6 0 0 0 10.822-5.185 31.055 31.055 0 0 0 -36.68-16.36l-4.033-8.418a6 6 0 0 0 -10.822 5.185l4.2 8.768a31.012 31.012 0 0 0 32.764 52.189 19.011 19.011 0 1 1 -8.932 25.358 6 6 0 0 0 -10.822 5.184 31.04 31.04 0 0 0 34.7 16.875l3.49 7.287a6 6 0 0 0 10.823-5.185l-3.322-6.934a31.009 31.009 0 0 0 -31.125-53.407z"/><path d="m277.333 164.372a26.8 26.8 0 1 0 -26.8-26.8 26.835 26.835 0 0 0 26.8 26.8zm0-41.607a14.8 14.8 0 1 1 -14.8 14.8 14.82 14.82 0 0 1 14.8-14.8z"/><path d="m422.333 387.768a18.8 18.8 0 1 0 18.8 18.8 18.822 18.822 0 0 0 -18.8-18.8zm0 25.6a6.8 6.8 0 1 1 6.8-6.8 6.808 6.808 0 0 1 -6.8 6.8z"/><path d="m462.333 306.122a34.78 34.78 0 1 0 34.779 34.778 34.818 34.818 0 0 0 -34.779-34.778zm0 57.559a22.78 22.78 0 1 1 22.779-22.78 22.8 22.8 0 0 1 -22.779 22.78z"/><path d="m369.5 327.568a27.5 27.5 0 1 0 27.5 27.5 27.53 27.53 0 0 0 -27.5-27.5zm0 43a15.5 15.5 0 1 1 15.5-15.5 15.515 15.515 0 0 1 -15.5 15.496z"/><path d="m379.667 100.568a38 38 0 1 0 -38-38 38.043 38.043 0 0 0 38 38zm0-64a26 26 0 1 1 -26 26 26.029 26.029 0 0 1 26-26z"/></svg>