<?xml version="1.0"?>
<svg xmlns="http://www.w3.org/2000/svg" id="Layer_1" data-name="Layer 1" viewBox="0 0 512 512" width="512" height="512"><title>Talking</title><path d="M225.275,372H200V352.175c1-1.048,2.532-2.123,3.621-3.242A84.486,84.486,0,0,0,228,289.911v-76.07a46.614,46.614,0,0,0,14.661-17c4.99-9.374,7.659-21.069,7.659-32.931a8.059,8.059,0,0,0-9.3-7.9l-53.676,8.436a64.477,64.477,0,0,1-26.987-1.457l-24.579-6.64a29.642,29.642,0,0,0-25.936,5.117,29.1,29.1,0,0,0-5.782,6.1A82.39,82.39,0,0,0,63,239.021v50.89a84.1,84.1,0,0,0,23.978,59.022C88.005,349.987,89,351.006,90,352v20H65.008C36.5,372,13,394.824,13,423.335v66.794A8.155,8.155,0,0,0,21.3,498h247.68A7.907,7.907,0,0,0,277,490.129V423.335A51.465,51.465,0,0,0,225.275,372ZM114,185.169a13.974,13.974,0,0,1,13.92-13.861,14.144,14.144,0,0,1,3.666.487l24.585,6.64a80.342,80.342,0,0,0,33.644,1.817l43.672-6.865c-2.134,13.359-8.866,26.235-21.019,30.36-7,1.059-69.539,10.379-98.191,10.379-.115,0-.277-.093-.277-.209Zm-.608,74.231a15.365,15.365,0,1,1-15.365,15.365A15.381,15.381,0,0,1,113.392,259.4ZM98,191.957v21.96a16.275,16.275,0,0,0,9.371,14.642c-9.255,6.282-18.926,9.351-28.856,9.153A66.61,66.61,0,0,1,98,191.957ZM79,289.911V253.7s.379.017.669.017a59.542,59.542,0,0,0,11.73-1.189,31.329,31.329,0,1,0,52.942,27.38,5,5,0,0,1,1.62,0,31.34,31.34,0,1,0,1.477-15.929,20.982,20.982,0,0,0-4.592,0,31.419,31.419,0,0,0-28.963-20.566,92.967,92.967,0,0,0,17.224-13.935C159.975,227.552,199,221.9,212,220.044v69.867a68.452,68.452,0,0,1-19.722,47.86,65.4,65.4,0,0,1-47.059,20.144c-17.647,0-34.168-7.154-46.817-20.144A68.144,68.144,0,0,1,79,289.911Zm82.526-15.146a15.365,15.365,0,1,1,15.365,15.365A15.381,15.381,0,0,1,161.526,274.765ZM145.1,373.915A79.693,79.693,0,0,0,184,363.777V375.81c-11,8.981-25.205,13.469-39.014,13.468A62.2,62.2,0,0,1,106,375.83V363.661A79.556,79.556,0,0,0,145.1,373.915ZM261,482H29V423.335C29,403.646,45.319,388,65.008,388h29.94a81.327,81.327,0,0,0,100.164,0h30.163A35.447,35.447,0,0,1,261,423.335Z"/><path d="M490.7,14H279.338C274.92,14,271,17.453,271,21.871V193.046a8.158,8.158,0,0,0,4.865,7.286,8.371,8.371,0,0,0,3.387.714,8.028,8.028,0,0,0,5.314-1.906L320.254,168H490.7a8.393,8.393,0,0,0,8.3-8.152V21.871A8.155,8.155,0,0,0,490.7,14ZM483,152H317.246a8.371,8.371,0,0,0-5.44,1.906L287,175.406V30H483Z"/><path d="M322,99H447a8,8,0,0,0,0-16H322a8,8,0,0,0,0,16Z"/><path d="M322,71h69a8,8,0,0,0,0-16H322a8,8,0,0,0,0,16Z"/><path d="M322,127H447a8,8,0,0,0,0-16H322a8,8,0,0,0,0,16Z"/></svg>
