<svg height="484pt" viewBox="-53 0 483 484" width="484pt" xmlns="http://www.w3.org/2000/svg"><path d="m224.660156 129.085938c9.226563 0 16.707032 7.476562 16.707032 16.703124 0 9.226563-7.480469 16.707032-16.707032 16.707032-9.226562 0-16.707031-7.480469-16.707031-16.707032 0-3.3125-2.683594-6-6-6-3.3125 0-6 2.6875-6 6 .019531 13.09375 8.875 24.519532 21.546875 27.800782v8.410156c0 3.3125 2.6875 6 6 6s6-2.6875 6-6v-7.921875c14.710938-2.496094 25.054688-15.851563 23.792969-30.722656-1.261719-14.871094-13.710938-26.289063-28.632813-26.269531-9.222656 0-16.699218-7.480469-16.699218-16.703126 0-9.222656 7.476562-16.699218 16.699218-16.699218s16.699219 7.476562 16.699219 16.699218c0 3.316407 2.6875 6 6 6s6-2.683593 6-6c-.015625-13.976562-10.085937-25.917968-23.859375-28.292968v-9.089844c0-3.3125-2.6875-6-6-6s-6 2.6875-6 6v9.578125c-14 3.609375-23.132812 17.0625-21.316406 31.40625s14.019531 25.097656 28.476562 25.101563zm0 0"/><path d="m370.96875 20h-288.46875v-13.8125c-.046875-3.378906-2.757812-6.109375-6.136719-6.1875h-30c-3.320312.101562-5.941406 2.863281-5.863281 6.1875v430.8125h-34.46875c-3.3125 0-5.53125 2.835938-5.53125 6.148438v34.664062c0 3.316406 2.21875 6.1875 5.53125 6.1875h120.667969c3.308593-.109375 5.90625-2.878906 5.800781-6.1875v-34.664062c.050781-1.585938-.535156-3.125-1.621094-4.28125-1.089844-1.152344-2.59375-1.824219-4.179687-1.867188h-44.199219v-208h288.46875c3.3125 0 5.53125-3.101562 5.53125-6.410156v-196.402344c0-3.316406-2.21875-6.1875-5.53125-6.1875zm-76.46875 12v185h-142v-185zm-174 440h-108v-23h108zm-68-35v-425h18v425zm30-405h58v185h-58zm282 185h-58v-185h58zm0 0"/></svg>