<?xml version="1.0"?>
<svg xmlns="http://www.w3.org/2000/svg" id="Layer_1" data-name="Layer 1" viewBox="0 0 512 512" width="512" height="512"><title>Target</title><path d="M456.623,16.477a8,8,0,0,0-11.314,0L423.07,38.715v0l0,0L394.156,67.63a8,8,0,0,0-2.327,5.162l-2.358,38.073L344.7,155.637a194.822,194.822,0,0,0-133.935-53.212c-107.82,0-195.537,87.718-195.537,195.537A195.209,195.209,0,0,0,85.651,448.113L48.93,483.337c-.04.038-.079.077-.119.117l-.756.755a8,8,0,0,0,11.314,11.314l.7-.7,38.429-36.861a195.121,195.121,0,0,0,224.537,0l38.429,36.861.7.7a8,8,0,0,0,11.315-11.314l-.756-.755c-.04-.04-.079-.079-.119-.117l-36.722-35.224A195.226,195.226,0,0,0,355.9,167.067l44.139-44.138,38.39-3.874a8,8,0,0,0,4.854-2.3L494.432,65.6a8,8,0,0,0,0-11.313ZM390.3,297.962c0,99-80.54,179.537-179.537,179.537S31.226,396.959,31.226,297.962s80.54-179.537,179.537-179.537a178.875,178.875,0,0,1,122.621,48.527l-34.655,34.655a130.028,130.028,0,0,0-87.966-34.178c-71.977,0-130.534,58.557-130.534,130.533S138.786,428.5,210.763,428.5a130.461,130.461,0,0,0,99.1-215.394l34.7-34.706A178.8,178.8,0,0,1,390.3,297.962Zm-137.231,0a42.353,42.353,0,1,1-16.894-33.8l-29.391,29.391A8,8,0,0,0,218.1,304.865l28.832-28.832A42.063,42.063,0,0,1,253.069,297.962Zm-5.508-45.187A58.43,58.43,0,1,0,258.467,264.5l40.049-40.049a114.673,114.673,0,1,1-11.11-11.519Zm186.42-149.353-28.195,2.845L407.611,76.8l21.115-21.115,26.5,26.5Zm32.553-32.553-26.5-26.495,10.927-10.927,26.5,26.495Z"/></svg>
