<svg height="465.744pt" viewBox="0 0 465.744 465.744" width="465.744pt" xmlns="http://www.w3.org/2000/svg"><path d="m109.792969 232.863281c0 67.972657 55.101562 123.074219 123.070312 123.074219 67.972657 0 123.074219-55.101562 123.074219-123.074219 0-67.96875-55.101562-123.070312-123.074219-123.070312-67.9375.078125-122.992187 55.132812-123.070312 123.070312zm59.058593 39.277344c-.761718-7.523437 1.726563-15.015625 6.832032-20.589844 5.144531-5.601562 12.421875-8.753906 20.023437-8.679687h2.929688l8.5625 26.09375c.730469 2.535156 3.15625 4.199218 5.785156 3.972656l-7.128906 66.367188c-.050781.4375-.050781.878906 0 1.316406-13.273438-3.328125-25.816407-9.097656-36.984375-17.007813v-50.871093c.003906-.199219 0-.402344-.019532-.601563zm55.117188 71.4375-5.875-5.875 8.253906-76.832031 6.132813-6.855469 6.960937 7.402344 8.191406 76.289062-5.875 5.875c-2.933593.234375-5.898437.351563-8.898437.355469s-5.960937-.113281-8.886719-.359375zm72.914062-71.4375c-.019531.199219-.011718.398437-.011718.601563v50.871093c-11.167969 7.90625-23.710938 13.671875-36.988282 17 .050782-.441406.050782-.890625 0-1.332031l-7.136718-66.394531c.4375.007812.875-.03125 1.300781-.117188 2.019531-.335937 3.703125-1.71875 4.425781-3.628906l9.511719-26.269531h2.042969c7.601562-.074219 14.878906 3.078125 20.023437 8.675781 5.105469 5.578125 7.59375 13.066406 6.832031 20.59375zm-64.019531-150.347656c61.320313.066406 111.011719 49.753906 111.089844 111.070312.210937 30.714844-12.527344 60.097657-35.082031 80.949219v-40.777344c.996094-10.878906-2.660156-21.667968-10.0625-29.703125-7.402344-8.035156-17.859375-12.558593-28.78125-12.460937h-6.253906c-2.496094-.089844-4.765626 1.421875-5.648438 3.757812l-7.632812 21.128906-13.644532-14.570312c-1.125-1.285156-2.75-2.023438-4.460937-2.03125-1.710938-.007812-3.339844.71875-4.480469 1.992188l-12.519531 13.984374-6.6875-20.328124c-.828125-2.425782-3.144531-4.023438-5.707031-3.933594h-7.285157c-10.921875-.101563-21.378906 4.425781-28.777343 12.460937-7.402344 8.035157-11.054688 18.824219-10.058594 29.703125v40.777344c-22.558594-20.851562-35.292969-50.234375-35.089844-80.949219.074219-61.316406 49.765625-111.003906 111.082031-111.070312zm0 0"/><path d="m268.871094 183.371094c0-20.710938-16.789063-37.5-37.5-37.5-20.710938 0-37.5 16.789062-37.5 37.5v13c0 20.710937 16.789062 37.5 37.5 37.5 20.710937 0 37.5-16.789063 37.5-37.5zm-12 13c0 14.085937-11.414063 25.5-25.5 25.5-14.082032 0-25.5-11.414063-25.5-25.5v-13c0-14.082032 11.417968-25.5 25.5-25.5 14.085937 0 25.5 11.417968 25.5 25.5zm0 0"/><path d="m15.355469 102.292969c-1.015625-11.46875-.347657-23.023438 1.980469-34.300781 3.144531-14.21875 9.34375-26.039063 18.429687-35.121094 12.695313-12.699219 30.476563-19.660156 52.804687-20.6875 10.703126-.40625 21.417969.324218 31.964844 2.175781l2.074219-11.820313c-11.398437-1.996093-22.972656-2.785156-34.539063-2.34375-25.460937 1.167969-45.914062 9.308594-60.785156 24.191407-10.734375 10.722656-18.019531 24.523437-21.683594 41.09375-2.578124 12.449219-3.320312 25.207031-2.199218 37.871093zm0 0"/><path d="m8.007812 132.585938c1.992188 8.503906 4.414063 16.90625 7.253907 25.167968l11.351562-3.882812c-2.707031-7.878906-5.015625-15.886719-6.914062-24zm0 0"/><path d="m50.683594 207.625c-4.84375-8.835938-9.289063-17.71875-13.207032-26.40625l-10.9375 4.929688c4.046876 8.972656 8.628907 18.140624 13.621094 27.246093zm0 0"/><path d="m116.921875 317.828125c1.90625 2.042969 3.839844 4.078125 5.792969 6.105469l8.644531-8.320313c-1.910156-1.984375-3.804687-3.980469-5.675781-5.980469-4.160156-4.449218-8.289063-9.003906-12.273438-13.535156-.699218-.800781-1.394531-1.601562-2.089844-2.402344l-9.054687 7.875c.707031.8125 1.414063 1.625 2.128906 2.4375 4.066407 4.632813 8.277344 9.28125 12.527344 13.820313zm0 0"/><path d="m83.003906 278.148438 9.472656-7.363282c-1.164062-1.5-2.316406-3.003906-3.460937-4.507812-4.890625-6.433594-9.625-12.960938-14.066406-19.410156l-9.878907 6.8125c4.546876 6.597656 9.390626 13.28125 14.390626 19.855468 1.167968 1.539063 2.347656 3.078125 3.542968 4.613282zm0 0"/><path d="m357.519531 447.335938c-3.398437-.328126-6.914062-.777344-10.441406-1.332032l-1.875 11.851563c3.769531.597656 7.527344 1.074219 11.171875 1.425781 5.144531.492188 10.148438.738281 15.019531.738281 8.949219.054688 17.875-.878906 26.617188-2.785156 16.285156-3.671875 29.929687-10.921875 40.558593-21.546875 20.925782-20.929688 28.574219-53.34375 22.109376-93.738281-3.238282-20.234375-9.941407-42.023438-19.917969-64.761719l-10.988281 4.824219c9.570312 21.800781 15.980468 42.605469 19.058593 61.835937 5.828125 36.433594-.652343 65.257813-18.746093 83.351563-9 9-20.675782 15.164062-34.710938 18.328125-11.25 2.53125-23.984375 3.136718-37.855469 1.808594zm0 0"/><path d="m422.132812 240.324219-10.421874 5.949219c3.875 6.789062 7.523437 13.628906 10.851562 20.335937l10.75-5.335937c-3.429688-6.914063-7.191406-13.960938-11.179688-20.949219zm0 0"/><path d="m366.070312 161.359375c-6.542968-7.648437-13.382812-15.21875-20.332031-22.5l-8.675781 8.285156c6.796875 7.121094 13.488281 14.527344 19.890625 22.011719zm0 0"/><path d="m385.144531 184.933594-9.53125 7.292968c5.984375 7.824219 11.828125 15.914063 17.371094 24.046876l9.914063-6.753907c-5.664063-8.316406-11.636719-16.585937-17.753907-24.585937zm0 0"/><path d="m289.535156 465.742188 40.90625-11.703126c3.1875-.914062 5.03125-4.234374 4.117188-7.421874l-10.664063-37.265626-11.535156 3.300782 7.78125 27.191406c-20.476563-6.179688-40.285156-14.394531-59.128906-24.515625-24.574219-13.128906-47.941407-28.398437-69.832031-45.628906-16.234376-12.714844-31.761719-26.300781-46.519532-40.703125l-8.382812 8.589844c15.066406 14.699218 30.921875 28.574218 47.496094 41.554687 22.449218 17.667969 46.414062 33.328125 71.617187 46.789063 16.550781 8.835937 33.792969 16.3125 51.554687 22.351562l-20.707031 5.925781zm0 0"/><path d="m150.882812 53.917969 11.734376-2.507813-5.90625-27.632812c15.957031 5.457031 31.460937 12.160156 46.367187 20.042968 24.257813 12.804688 47.347656 27.707032 69 44.542969 10.207031 7.875 20.488281 16.417969 30.550781 25.390625 5.59375 4.992188 11.210938 10.210938 16.699219 15.515625 2.386719 2.296875 4.820313 4.699219 7.242187 7.117188l8.484376-8.488281c-2.46875-2.464844-4.953126-4.910157-7.390626-7.261719-5.597656-5.410157-11.332031-10.738281-17.042968-15.835938-10.277344-9.164062-20.777344-17.890625-31.191406-25.925781-22.203126-17.257812-45.871094-32.535156-70.742188-45.664062-12.230469-6.46875-24.847656-12.167969-37.785156-17.070313l20.613281-4.40625-2.507813-11.734375-41.613281 8.894531c-3.238281.691407-5.304687 3.878907-4.613281 7.121094zm0 0"/><path d="m2.539062 343.234375c-1.996093 11.398437-2.785156 22.972656-2.347656 34.539063 1.171875 25.460937 9.3125 45.914062 24.195313 60.792968 10.726562 10.730469 24.527343 18.011719 41.09375 21.664063 8.6875 1.804687 17.542969 2.710937 26.417969 2.710937 3.816406 0 7.632812-.164062 11.449218-.5l-1.054687-11.953125c-11.46875 1.015625-23.023438.347657-34.300781-1.984375-14.21875-3.140625-26.039063-9.332031-35.121094-18.421875-12.699219-12.699219-19.660156-30.480469-20.6875-52.808593-.402344-10.703126.324218-21.414063 2.175781-31.964844zm0 0"/><path d="m157.753906 450.582031-3.882812-11.355469c-7.878906 2.707032-15.886719 5.015626-24 6.917969l2.714844 11.691407c8.503906-1.996094 16.90625-4.414063 25.167968-7.253907zm0 0"/><path d="m186.152344 439.304688c8.972656-4.046876 18.136718-8.628907 27.242187-13.621094l-5.769531-10.523438c-8.832031 4.84375-17.71875 9.285156-26.40625 13.207032zm0 0"/><path d="m246.871094 390.890625 6.808594 9.882813c6.597656-4.546876 13.285156-9.390626 19.855468-14.390626 1.542969-1.167968 3.082032-2.351562 4.617188-3.542968l-7.367188-9.476563c-1.496094 1.164063-3 2.320313-4.507812 3.464844-6.429688 4.890625-12.960938 9.621094-19.40625 14.0625zm0 0"/><path d="m309.632812 340.160156c-4.460937 4.171875-9.015624 8.300782-13.535156 12.269532-.796875.699218-1.59375 1.394531-2.390625 2.085937l7.863281 9.066406c.816407-.707031 1.625-1.417969 2.441407-2.132812 4.617187-4.054688 9.265625-8.269531 13.816406-12.527344 2.042969-1.910156 4.074219-3.839844 6.101563-5.792969l-8.320313-8.648437c-1.984375 1.914062-3.976563 3.808593-5.976563 5.679687zm0 0"/><path d="m343.847656 17.011719c36.4375-5.832031 65.257813.652343 83.351563 18.746093 9 9 15.164062 20.675782 18.328125 34.710938 2.53125 11.246094 3.136718 23.980469 1.808594 37.851562-.328126 3.402344-.777344 6.914063-1.332032 10.445313l11.851563 1.875c.597656-3.773437 1.074219-7.53125 1.425781-11.171875 1.449219-15.140625.761719-29.144531-2.046875-41.636719-3.671875-16.285156-10.921875-29.933593-21.550781-40.558593-20.925782-20.925782-53.335938-28.574219-93.734375-22.109376-20.234375 3.238282-42.023438 9.941407-64.761719 19.917969l4.824219 10.988281c21.800781-9.566406 42.605469-15.980468 61.835937-19.058593zm0 0"/><path d="m266.605469 43.28125-5.332031-10.75c-7.148438 3.550781-14.441407 7.453125-21.675782 11.601562l5.964844 10.414063c7.027344-4.03125 14.109375-7.820313 21.042969-11.265625zm0 0"/><path d="m209.519531 62.945312c-8.320312 5.667969-16.589843 11.640626-24.582031 17.753907l7.289062 9.53125c7.820313-5.980469 15.914063-11.824219 24.050782-17.371094zm0 0"/><path d="m169.160156 108.890625-7.800781-9.117187c-7.648437 6.542968-15.214844 13.382812-22.5 20.332031l8.289063 8.679687c7.125-6.800781 14.523437-13.492187 22.011718-19.894531zm0 0"/><path d="m454.039062 135.402344c-.914062-3.1875-4.234374-5.03125-7.421874-4.121094l-37.261719 10.664062 3.296875 11.539063 27.195312-7.78125c-6.183594 20.476563-14.398437 40.285156-24.515625 59.125-13.128906 24.574219-28.398437 47.945313-45.632812 69.835937-12.714844 16.230469-26.300781 31.761719-40.699219 46.519532l8.585938 8.378906c14.703124-15.066406 28.574218-30.917969 41.554687-47.492188 17.667969-22.449218 33.328125-46.414062 46.792969-71.617187 8.832031-16.550781 16.308594-33.792969 22.347656-51.554687l5.925781 20.707031 11.535157-3.300781zm0 0"/><path d="m14.753906 323.195312c.425782 0 .847656-.042968 1.261719-.132812l37.90625-8.097656-2.511719-11.738282-27.632812 5.90625c5.457031-15.957031 12.160156-31.460937 20.042968-46.371093 12.804688-24.253907 27.707032-47.34375 44.542969-69 7.871094-10.199219 16.414063-20.480469 25.390625-30.546875 4.980469-5.582032 10.199219-11.199219 15.511719-16.699219 2.328125-2.410156 4.722656-4.847656 7.121094-7.242187l-8.488281-8.488282c-2.445313 2.445313-4.886719 4.933594-7.261719 7.390625-5.421875 5.613281-10.75 11.347657-15.835938 17.046875-9.167969 10.28125-17.894531 20.78125-25.925781 31.1875-17.257812 22.203125-32.539062 45.875-45.664062 70.742188-6.46875 12.230468-12.167969 24.851562-17.070313 37.785156l-4.40625-20.609375-11.734375 2.507813 8.894531 41.609374c.589844 2.769532 3.03125 4.75 5.859375 4.75zm0 0"/></svg>