<?xml version="1.0"?>
<svg xmlns="http://www.w3.org/2000/svg" id="Layer_1" data-name="Layer 1" viewBox="0 0 512 512" width="512" height="512"><title>Cloud Book</title><path d="M472.94,198.434a87.142,87.142,0,0,0-62.1-25.717c-3.16,0-6.453.054-9.788.328C398.359,96.176,334.966,34.479,257.427,34.479a142.29,142.29,0,0,0-87.392,29.655,145.026,145.026,0,0,0-49.752,71.053A125.925,125.925,0,0,0,13.1,259.866c0,.08,0,.16,0,.239,0,.062,0,.184.006.419a1.737,1.737,0,0,0-.011.192A101.423,101.423,0,0,0,114.546,362H250v45.623A34.8,34.8,0,0,0,221.161,437h-96.5a6,6,0,0,0,0,12h96.885a35.186,35.186,0,0,0,68.908,0h96.885a6,6,0,0,0,0-12h-96.5C288.751,422,277,410.43,262,407.733V362H397.454A101.423,101.423,0,0,0,498.9,260.716a5.448,5.448,0,0,0-.26-1.669A87.512,87.512,0,0,0,472.94,198.434Zm-193.757,243.9A23.183,23.183,0,1,1,256,419.156,23.209,23.209,0,0,1,279.183,442.338ZM397.454,350H114.546A89.414,89.414,0,0,1,25.1,261.118c.011-.154.015-.227.014-.381,0-.21-.01-.434-.022-.631,0-.028,0-.106,0-.106h0A113.894,113.894,0,0,1,125.616,146.65a6.037,6.037,0,0,0,5.075-4.356,132.881,132.881,0,0,1,46.652-68.626,130.4,130.4,0,0,1,80.084-27.181c72.629,0,131.717,59.064,131.717,131.668,0,.536,0,1.062-.013,1.6a6,6,0,0,0,7.172,6.03,76.237,76.237,0,0,1,90.356,75.1,4.887,4.887,0,0,0,.228,1.475A89.414,89.414,0,0,1,397.454,350Z"/><path d="M330.782,127H199.424A24.4,24.4,0,0,0,175,151.176V297.444c0,.089.111.177.115.265,0,.162.05.123.05.285A24.11,24.11,0,0,0,199.425,322H321.07a5.613,5.613,0,0,0,5.93-5.6V286h3.782A6.2,6.2,0,0,0,337,279.987V132.97A6.166,6.166,0,0,0,330.782,127ZM187,151.176A12.383,12.383,0,0,1,199.424,139H206V274h-6.575A26.047,26.047,0,0,0,187,277.3ZM315,310H199.425a12,12,0,1,1,0-24H315Zm10-36H218V139H325Z"/></svg>
