<svg id="Layer_1" height="512" viewBox="0 0 512 512" width="512" xmlns="http://www.w3.org/2000/svg" data-name="Layer 1"><path d="m473.018 198.414a87.175 87.175 0 0 0 -62.118-25.726c-3.162 0-6.457.055-9.794.329-2.697-76.896-66.113-138.617-143.678-138.617a142.344 142.344 0 0 0 -87.423 29.665 145.088 145.088 0 0 0 -49.77 71.079 125.971 125.971 0 0 0 -107.223 124.723v.237c0 .061 0 .183.006.422a1.422 1.422 0 0 0 -.01.173 101.442 101.442 0 0 0 101.486 101.301h135.506v45.68c-15 2.472-26.733 14.32-28.85 30.32h-96.536a6 6 0 0 0 0 12h96.921a35.2 35.2 0 0 0 68.93 0h96.921a6 6 0 0 0 0-12h-96.536a35.956 35.956 0 0 0 -28.85-30.209v-45.791h135.506a101.442 101.442 0 0 0 101.482-101.3 5.413 5.413 0 0 0 -.259-1.659 87.526 87.526 0 0 0 -25.711-60.627zm-193.824 243.993a23.194 23.194 0 1 1 -23.194-23.194 23.22 23.22 0 0 1 23.194 23.194zm118.312-92.407h-283.012a89.432 89.432 0 0 1 -89.481-88.9c.01-.154.014-.218.013-.373 0-.209-.009-.429-.021-.626 0-.029 0-.1 0-.1a113.954 113.954 0 0 1 100.563-113.395 6.037 6.037 0 0 0 5.076-4.355 132.914 132.914 0 0 1 46.669-68.651 130.447 130.447 0 0 1 80.115-27.192c72.656 0 131.767 59.086 131.767 131.719 0 .536 0 1.063-.013 1.6a6 6 0 0 0 7.172 6.028 76.267 76.267 0 0 1 90.392 75.126 4.772 4.772 0 0 0 .227 1.461 89.429 89.429 0 0 1 -89.467 87.658z"/><path d="m368 267.926v-86.816c0-.188-.06-.374-.077-.558.008-.138 0-.274 0-.414a6.014 6.014 0 0 0 -3.942-5.575l-112.873-41.488a6.01 6.01 0 0 0 -4.143 0l-112.872 41.488a6 6 0 0 0 -3.931 5.575 6.107 6.107 0 0 0 3.94 5.648l32.898 12.759v82.122a5.9 5.9 0 0 0 3.789 5.622 223.791 223.791 0 0 0 156.483 0 5.844 5.844 0 0 0 3.728-5.622v-82.122l25-9.577v79.06a19.74 19.74 0 1 0 12-.1zm-189 8.53v-23.893a222.576 222.576 0 0 0 140 0v23.893a210.906 210.906 0 0 1 -140 0zm140-36.556a210.881 210.881 0 0 1 -140 0v-36.68l67.972 26.5a5.707 5.707 0 0 0 2.118.409 5.114 5.114 0 0 0 2-.409l67.91-26.505zm4.567-51.219a5.788 5.788 0 0 0 -.824.321l-73.711 28.687-73.712-28.689a5.742 5.742 0 0 0 -.824-.321l-21.38-8.321 95.916-35.258 95.915 35.255zm38.479 105.951a7.794 7.794 0 1 1 7.793-7.794 7.8 7.8 0 0 1 -7.793 7.789z"/></svg>