<?xml version="1.0"?>
<svg xmlns="http://www.w3.org/2000/svg" id="Layer_1" data-name="Layer 1" viewBox="0 0 512 512" width="512" height="512"><title>Telephone</title><path d="M360.092,23H306.415A8.733,8.733,0,0,0,298,31.422V53H222.981A78.605,78.605,0,0,0,144,131.616V380.383A78.605,78.605,0,0,0,222.985,459H298v21.578A8.733,8.733,0,0,0,306.415,489h53.677c4.418,0,7.908-4,7.908-8.422V322.834A7.782,7.782,0,0,0,360.092,315H306.415C302,315,298,318.416,298,322.834V344H244.386A13.205,13.205,0,0,1,231,330.63V181.29c0-.3,0-.617.015-.915A13.38,13.38,0,0,1,244.308,168H298v21.165a8.023,8.023,0,0,0,2.55,5.574A8.412,8.412,0,0,0,306.414,197h53.678A7.783,7.783,0,0,0,368,189.165V31.422C368,27,364.51,23,360.092,23ZM314,331h38V473H314V331ZM298,443H281V360h17ZM244.086,152.022a29.479,29.479,0,0,0-29.04,27.376c-.042.677-.046,1.375-.046,1.972V330.71A29.178,29.178,0,0,0,244.307,360H265v83H222.985A62.606,62.606,0,0,1,160,380.383V131.616A62.606,62.606,0,0,1,222.984,69H265v83H244.4C244.293,152,244.189,152.022,244.086,152.022ZM298,152H281V69h17v83Zm54,29H314V39h38Z"/></svg>
