<svg height="452pt" viewBox="0 -19 452 452" width="452pt" xmlns="http://www.w3.org/2000/svg"><path d="m322 35c0-3.3125-2.6875-6-6-6h-290c-3.3125 0-6 2.6875-6 6v30c0 3.3125 2.6875 6 6 6h290c3.3125 0 6-2.6875 6-6zm-290 6h278v18h-278zm0 0"/><path d="m452 26c0-14.359375-11.640625-26-26-26h-400c-14.359375 0-26 11.640625-26 26v361c0 14.359375 11.640625 26 26 26h400c14.359375 0 26-11.640625 26-26zm-25.800781 374h-400.398438c-3.644531.085938-7.171875-1.308594-9.769531-3.867188-2.601562-2.554687-4.054688-6.054687-4.03125-9.703124v-284.429688h428v284.429688c.023438 3.648437-1.429688 7.148437-4.03125 9.703124-2.597656 2.558594-6.125 3.953126-9.769531 3.867188zm-400.398438-388h400.398438c3.644531-.085938 7.171875 1.308594 9.769531 3.867188 2.601562 2.554687 4.054688 6.054687 4.03125 9.703124v64.429688h-428v-64.429688c-.023438-3.648437 1.429688-7.148437 4.03125-9.703124 2.597656-2.558594 6.125-3.953126 9.769531-3.867188zm0 0"/><path d="m432 35c0-3.3125-2.6875-6-6-6h-30c-3.3125 0-6 2.6875-6 6v30c0 3.3125 2.6875 6 6 6h30c3.3125 0 6-2.6875 6-6zm-30 6h18v18h-18zm0 0"/><path d="m380 35c0-3.3125-2.6875-6-6-6h-30c-3.3125 0-6 2.6875-6 6v30c0 3.3125 2.6875 6 6 6h30c3.3125 0 6-2.6875 6-6zm-30 6h18v18h-18zm0 0"/><path d="m324.933594 175h-42.933594v-6.800781c0-15.335938-12.546875-28.199219-27.878906-28.199219h-56.242188c-15.335937 0-27.878906 12.867188-27.878906 28.199219v6.800781h-42.933594c-7.6875-.058594-15.082031 2.953125-20.539062 8.367188-5.457032 5.410156-8.527344 12.78125-8.527344 20.46875v29.1875c.023438 8.066406 4.695312 15.394531 12 18.820312v84.257812c0 12.882813 10.738281 22.898438 23.621094 22.898438h184.753906c12.882812 0 23.625-10.015625 23.625-22.898438v-84.203124c7.175781-2.445313 12-9.1875 12-16.765626v-31.300781c-.003906-7.6875-3.074219-15.054687-8.53125-20.46875-5.457031-5.410156-12.847656-8.421875-20.535156-8.363281zm-142.933594-6.800781c0-8.71875 7.160156-16.199219 15.878906-16.199219h56.242188c8.71875 0 15.878906 7.484375 15.878906 16.199219v6.800781h-88zm136.375 178.800781h-184.753906c-6.265625 0-11.621094-4.632812-11.621094-10.898438v-80.449218l73 22.148437v4.652344c0 17.121094 13.878906 31 31 31s31-13.878906 31-31v-5.574219l73-21.425781v80.648437c0 6.265626-5.359375 10.898438-11.625 10.898438zm-111.375-64.546875v-21.453125h38v21.453125c0 10.492187-8.507812 19-19 19s-19-8.507813-19-19zm135-47.316406c.015625 2.457031-1.589844 4.632812-3.941406 5.347656l-81.058594 23.886719v-9.3125c-.011719-3.332032-2.703125-6.035156-6.035156-6.058594h-49.933594c-3.328125.023438-6.019531 2.726562-6.03125 6.058594v10.199218l-79.007812-24.0625c-3.589844-1.089843-6.03125-4.417968-5.992188-8.171874v-29.1875c0-4.507813 1.804688-8.824219 5.011719-11.988282 3.207031-3.164062 7.546875-4.910156 12.054687-4.847656h197.867188c4.507812-.0625 8.847656 1.683594 12.054687 4.847656 3.207031 3.164063 5.011719 7.480469 5.011719 11.988282zm0 0"/></svg>