<svg height="504pt" viewBox="0 -61 504.3307 504" width="504pt" xmlns="http://www.w3.org/2000/svg"><path d="m407.007812 149.296875v-96.457031c0-2.445313-1.484374-4.644532-3.746093-5.5625-2.265625-.917969-4.863281-.371094-6.5625 1.386718l-44.28125 45.664063-39.539063-24.921875c-2.523437-1.59375-5.835937-1.085938-7.769531 1.1875l-39.292969 46.242188-15.011718-6.320313c-2.617188-1.101563-5.652344-.214844-7.265626 2.121094l-24.964843 36.152343-42.074219-42.960937c-1.496094-1.527344-3.691406-2.144531-5.765625-1.617187-2.074219.527343-3.707031 2.117187-4.292969 4.175781l-18.898437 66.570312-9.316407-5.8125c-2.601562-1.625-6.007812-1.027343-7.898437 1.382813l-24.878906 31.671875-34.472657-36.132813c-1.417968-1.492187-3.507812-2.148437-5.523437-1.742187-1.992187.414062-3.625 1.832031-4.308594 3.746093l-19.136719 50.519532v-212.40625c-.105468-3.359375-2.867187-6.027344-6.226562-6.019532h-30.101562c-1.558594.019532-3.042969.671876-4.113282 1.804688-1.070312 1.136719-1.6328122 2.660156-1.5585935 4.214844v341.125c-.0703125 1.542968.4999995 3.042968 1.5742185 4.152344 1.074219 1.105468 2.554688 1.722656 4.097657 1.703124h304.441406c37.390625 32.589844 91.25 38.109376 134.476562 13.789063 43.226563-24.320313 66.464844-73.21875 58.023438-122.09375-8.441406-48.878906-46.734375-87.148437-95.613282-95.5625zm-338.035156 31.933594 32.632813 34.265625c1.195312 1.257812 2.878906 1.933594 4.609375 1.851562 1.730468-.085937 3.34375-.917968 4.410156-2.289062l25.824219-32.882813 11.507812 7.191407c1.597657.996093 3.574219 1.183593 5.332031.503906 1.757813-.679688 3.097657-2.144532 3.613282-3.957032l18.257812-64.300781 39.929688 40.773438c1.253906 1.28125 3.011718 1.933593 4.796875 1.78125 1.785156-.152344 3.410156-1.09375 4.425781-2.570313l26.328125-38.132812 14.570313 6.132812c2.414062 1.015625 5.207031.351563 6.902343-1.644531l38.769531-45.625 39.253907 24.746094c2.398437 1.511719 5.53125 1.136719 7.507812-.902344l37.363281-38.527344v80.222657c-2.628906-.179688-5.28125-.277344-7.953124-.277344-31.71875-.015625-62.085938 12.855468-84.132813 35.664062l-11.089844-7.054687c-2.566406-1.632813-5.945312-1.089844-7.871093 1.269531l-27.449219 33.648438-44.546875-33.640626c-2.578125-1.949218-6.234375-1.503906-8.269532 1l-44.539062 54.746094-26.5-19.65625c-1.359375-1.007812-3.078125-1.394531-4.734375-1.070312-1.660156.328125-3.101563 1.339844-3.976563 2.789062l-29.886718 49.503906-32.933594-7.125c-2.589844-.5625-5.234375.683594-6.445312 3.042969l-12.671876 23.972657v-32.398438zm-26.964844 128.953125 21.125-39.828125 32.636719 7.066406c2.5.546875 5.0625-.566406 6.375-2.761719l28.679688-47.523437 25.800781 19.140625c2.578125 1.910156 6.199219 1.457031 8.226562-1.03125l44.503907-54.707032 44.542969 33.636719c2.574218 1.941407 6.226562 1.5 8.265624-1l27.730469-33.992187 5.03125 3.199218c-26.609375 33.730469-32.59375 79.328126-15.59375 118.78125h-237.324219zm-30-298.019532h18v237.914063l-.101562.25.101562.039063v66.84375c-.050781 1.5625.535157 3.078124 1.625 4.199218 1.085938 1.125 2.582032 1.757813 4.148438 1.753906h249.566406c3.710938 6 8.015625 13 12.839844 18h-286.179688zm375.046876 357.980469c-58.140626 0-105.273438-47.132812-105.277344-105.273437 0-58.144532 47.132812-105.277344 105.277344-105.28125 58.140624 0 105.277343 47.132812 105.277343 105.277344-.066406 58.113281-47.160156 105.210937-105.277343 105.277343zm0 0"/><path d="m387.054688 216.917969c12.597656.015625 22.804687 10.222656 22.820312 22.816406 0 3.316406 2.6875 6 6 6s6-2.683594 6-6c-.023438-16.921875-12.199219-31.386719-28.867188-34.296875v-11.273438c0-3.3125-2.6875-6-6-6-3.316406 0-6 2.6875-6 6v11.289063c-17.78125 3.132813-30.21875 19.339844-28.640624 37.324219 1.574218 17.984375 16.636718 31.78125 34.6875 31.777344 12.539062.015624 22.710937 10.144531 22.785156 22.679687.074218 12.535156-9.980469 22.78125-22.515625 22.949219-.105469-.007813-.210938-.015625-.316407-.015625-.109374 0-.191406.007812-.289062.011719-12.460938-.195313-22.464844-10.34375-22.480469-22.808594 0-3.3125-2.6875-6-6-6s-6 2.6875-6 6c.023438 16.886718 12.144531 31.328125 28.769531 34.28125v11.511718c0 3.316407 2.683594 6 6 6 3.3125 0 6-2.683593 6-6v-11.5c17.804688-3.085937 30.285157-19.28125 28.734376-37.285156-1.546876-18.003906-16.617188-31.832031-34.6875-31.828125-12.601563 0-22.816407-10.21875-22.816407-22.820312 0-12.601563 10.214844-22.816407 22.816407-22.816407zm0 0"/></svg>