<?xml version="1.0"?>
<svg xmlns="http://www.w3.org/2000/svg" id="Layer_1" data-name="Layer 1" viewBox="0 0 512 512" width="512" height="512"><title>Truck</title><path d="M475.123,236.324l-30.308-13.047L419.287,173.75A38.167,38.167,0,0,0,385.127,153H332.364a8.077,8.077,0,0,0-7.7,5.927A78.319,78.319,0,0,0,252.078,110H100.887A77.7,77.7,0,0,0,23,187.9v10.913A76.8,76.8,0,0,0,55.311,262h-21.3C29.589,262,26,265.991,26,270.409v71.658A7.949,7.949,0,0,0,34.007,350h15.5c-.089,1-.15,2.439-.15,3.66a48.695,48.695,0,1,0,97.389-.008c0-1.221-.06-2.652-.149-3.652h3.7c-.089,1-.15,2.439-.15,3.66a48.695,48.695,0,1,0,97.389-.008c0-1.221-.06-2.652-.149-3.652H354.639c-.089,1-.15,2.439-.15,3.66a48.695,48.695,0,1,0,97.389-.008c0-1.221-.061-2.652-.149-3.652h14.43A22.871,22.871,0,0,0,489,326.824V257.683A23.039,23.039,0,0,0,475.123,236.324ZM183,126h69.078A61.716,61.716,0,0,1,314,187.9v10.913A61.959,61.959,0,0,1,252.078,261H183Zm-32,0h16V261H151Zm-31,0h15V261H120ZM39,198.814V187.9A61.686,61.686,0,0,1,100.887,126H104V261h-3.113A61.929,61.929,0,0,1,39,198.814ZM98.054,386.388a32.694,32.694,0,1,1,32.694-32.694A32.731,32.731,0,0,1,98.054,386.388Zm100.787,0a32.694,32.694,0,1,1,32.694-32.694A32.731,32.731,0,0,1,198.841,386.388ZM324,334H243.39a48.671,48.671,0,0,0-89.1,0H142.6a48.671,48.671,0,0,0-89.1,0H42V278H324Zm0-72H297.654A70.219,70.219,0,0,0,324,228.856Zm16-93h45.127a22.081,22.081,0,0,1,19.988,11.832L426,221H340Zm63.184,217.388a32.694,32.694,0,1,1,32.694-32.694A32.731,32.731,0,0,1,403.184,386.388ZM473,326.824A6.861,6.861,0,0,1,466.159,334H447.732a48.671,48.671,0,0,0-89.1,0H340V237h97.478l31.335,13.78A7.411,7.411,0,0,1,473,257.685Z"/></svg>
