<svg height="462pt" viewBox="0 -10 462.18976 462" width="462pt" xmlns="http://www.w3.org/2000/svg"><path d="m349.964844 30.816406c-24.277344-.035156-46.773438 12.726563-59.207032 33.578125-12.433593 20.851563-12.957031 46.714844-1.382812 68.054688l.054688.097656c3.164062 5.828125 7.132812 11.179687 11.792968 15.902344l42.945313 42.945312c3.125 3.121094 8.1875 3.121094 11.3125 0l42.945312-42.945312c26.957031-26.957031 27.082031-70.691407.285157-97.492188-12.90625-12.953125-30.460938-20.203125-48.746094-20.140625zm37.148437 106.320313-37.289062 37.289062-37.289063-37.289062c-3.589844-3.65625-6.648437-7.800781-9.089844-12.308594-12.449218-23.101563-6.082031-51.84375 14.964844-67.527344 21.042969-15.679687 50.40625-13.566406 68.984375 4.972657 20.5625 20.5625 20.433594 54.144531-.28125 74.863281zm0 0"/><path d="m349.824219 56.96875c-22.589844 0-40.902344 18.308594-40.902344 40.898438 0 22.589843 18.3125 40.898437 40.902344 40.898437 22.589843 0 40.898437-18.308594 40.898437-40.898437-.023437-22.578126-18.320312-40.875-40.898437-40.898438zm0 65.796875c-13.753907 0-24.902344-11.148437-24.902344-24.898437 0-13.753907 11.148437-24.898438 24.902344-24.898438 13.75 0 24.898437 11.144531 24.898437 24.898438-.015625 13.746093-11.152344 24.886718-24.898437 24.902343zm0 0"/><path d="m94.300781 273.242188h104.386719c4.417969 0 8-3.582032 8-8 0-4.417969-3.582031-8-8-8h-104.386719c-4.417969 0-8 3.582031-8 8 0 4.417968 3.582031 8 8 8zm0 0"/><path d="m253.628906 312.242188h-159.328125c-4.417969 0-8 3.582031-8 8 0 4.417968 3.582031 8 8 8h159.328125c4.417969 0 8-3.582032 8-8 0-4.417969-3.582031-8-8-8zm0 0"/><path d="m349.964844.09375c-55.707032 0-102.0625 41.148438-110.777344 94.148438h-231.410156c-2.082032-.027344-4.085938.792968-5.550782 2.273437-1.46875 1.480469-2.2695308 3.492187-2.226562 5.574219v332.375c-.0390625 2.074218.765625 4.078125 2.234375 5.546875 1.464844 1.464843 3.46875 2.273437 5.542969 2.230469h332.378906c2.082031.042968 4.089844-.757813 5.570312-2.222657 1.480469-1.46875 2.300782-3.472656 2.273438-5.554687v-209.953125c1 .011719 1.285156.023437 1.890625.023437 61.898437 0 112.300781-50.320312 112.300781-112.21875-.054687-61.957031-50.269531-112.167968-112.226562-112.222656zm-219.964844 110.148438h88v62.96875l-41.464844-14.574219c-1.660156-.605469-3.480468-.605469-5.144531 0l-41.390625 14.574219zm202 316h-316v-316h98v74.253906c-.050781 2.578125 1.167969 5.019531 3.261719 6.527344 2.089843 1.503906 4.789062 1.886718 7.21875 1.023437l49.515625-17.386719 49.527344 17.382813c.847656.296875 1.742187.449219 2.640624.449219 1.632813 0 3.222657-.515626 4.546876-1.472657 2.09375-1.507812 3.320312-3.941406 3.289062-6.523437v-74.253906h3.734375c-.011719 1-.101563 1.378906-.101563 2.113281 0 55.835937 41.371094 102.199219 94.371094 110.761719zm17.964844-217.707032c-53.160156 0-96.257813-43.097656-96.257813-96.257812 0-53.164063 43.097657-96.261719 96.261719-96.257813 53.160156 0 96.257812 43.097657 96.257812 96.257813-.0625 53.136718-43.121093 96.199218-96.261718 96.257812zm0 0"/></svg>