<?xml version="1.0"?>
<svg xmlns="http://www.w3.org/2000/svg" id="Layer_1" data-name="Layer 1" viewBox="0 0 512 512" width="512" height="512"><title>Mine</title><path d="M450.667,387h-22.9l28.82-170.836a6.186,6.186,0,0,0-1.335-4.955A6.084,6.084,0,0,0,450.667,209H352.258c-1.727-51-44.24-93.056-96.258-93.056S161.469,158,159.742,209H61.333a6.17,6.17,0,0,0-4.582,2.293,5.82,5.82,0,0,0-1.335,4.787L84.236,387h-22.9A6.585,6.585,0,0,0,55,393.333v30c0,3.314,3.02,5.667,6.333,5.667h51.479C106.166,436,102,444.209,102,454a34,34,0,1,0,68-.042c0-9.791-4.166-17.958-10.812-24.958H352.812C346.166,436,342,444.209,342,454a34,34,0,1,0,68-.042c0-9.791-4.166-17.958-10.812-24.958h51.479c3.313,0,6.333-2.353,6.333-5.667v-30A6.585,6.585,0,0,0,450.667,387ZM136,476.167a22,22,0,1,1,22-22A22.025,22.025,0,0,1,136,476.167Zm240,0a22,22,0,1,1,22-22A22.025,22.025,0,0,1,376,476.167ZM256,128.277A84.32,84.32,0,1,1,171.681,212.6,84.415,84.415,0,0,1,256,128.277ZM68.429,221h91.652a96.316,96.316,0,0,0,191.838,0h91.652L415.593,387H96.407ZM445,417H67V399H445Z"/><path d="M256,256.367a17.411,17.411,0,0,1-17.391-17.39,6,6,0,0,0-12,0A29.437,29.437,0,0,0,248,267.251V276a6,6,0,0,0,12,0v-7.913a29.387,29.387,0,0,0-4-58.5,17.39,17.39,0,1,1,17.391-17.39,6,6,0,0,0,12,0A29.441,29.441,0,0,0,262,163.423V156a6,6,0,0,0-12,0v7.423a29.391,29.391,0,0,0,6,58.163,17.391,17.391,0,1,1,0,34.781Z"/><path d="M256,71a6,6,0,0,0,6-6V30a6,6,0,0,0-12,0V65A6,6,0,0,0,256,71Z"/><path d="M375.378,123.6a5.983,5.983,0,0,0,4.243-1.758l25.14-25.14a6,6,0,0,0-8.487-8.486l-25.139,25.141a6,6,0,0,0,4.243,10.243Z"/><path d="M131.879,122.262a6,6,0,0,0,8.486-8.485l-25.139-25.14a6,6,0,0,0-8.487,8.485Z"/><path d="M180.922,85.815A6,6,0,1,0,191.869,80.9L177.312,48.465a6,6,0,1,0-10.947,4.913Z"/><path d="M313.462,85.2a6,6,0,0,0,7.741-3.475L333.847,48.5a6,6,0,1,0-11.215-4.268l-12.644,33.23A6,6,0,0,0,313.462,85.2Z"/></svg>
