<?xml version="1.0" encoding="iso-8859-1"?>
<!-- Generator: Adobe Illustrator 19.0.0, SVG Export Plug-In . SVG Version: 6.00 Build 0)  -->
<svg version="1.1" id="Capa_1" xmlns="http://www.w3.org/2000/svg" xmlns:xlink="http://www.w3.org/1999/xlink" x="0px" y="0px"
	 viewBox="0 0 512 512" style="enable-background:new 0 0 512 512;" xml:space="preserve">
<g>
	<g>
		<path d="M207.198,37.054c-6.394-6.702-17.015-6.948-23.705-0.548l-111.79,106.76c-6.702,6.394-6.948,17.009-0.548,23.705
			c3.292,3.449,7.708,5.187,12.129,5.187c4.164,0,8.334-1.543,11.576-4.639l111.79-106.76
			C213.352,54.365,213.598,43.75,207.198,37.054z"/>
	</g>
</g>
<g>
	<g>
		<path d="M440.298,143.261l-111.79-106.76c-6.691-6.394-17.305-6.154-23.711,0.548c-6.389,6.696-6.148,17.311,0.548,23.705
			l111.79,106.76c3.247,3.108,7.417,4.645,11.581,4.645c4.416,0,8.831-1.738,12.129-5.193
			C447.234,160.269,446.994,149.655,440.298,143.261z"/>
	</g>
</g>
<g>
	<g>
		<path d="M455.848,241.664l-39.311,204.94H94.418L56.169,241.742l-32.967,6.16l40.804,218.55
			c1.481,7.937,8.412,13.689,16.483,13.689h349.904c8.038,0,14.952-5.713,16.472-13.605l41.921-218.556L455.848,241.664z"/>
	</g>
</g>
<g>
	<g>
		<path d="M495.231,138.616H16.769C7.507,138.616,0,146.122,0,155.384v89.432c0,9.262,7.507,16.769,16.769,16.769h478.463
			c9.262,0,16.769-7.501,16.769-16.769v-89.432C512,146.122,504.493,138.616,495.231,138.616z M478.463,228.054H33.537v-55.895
			h444.926V228.054z"/>
	</g>
</g>
<g>
	<g>
		<path d="M344.801,295.944c-6.344-6.747-16.953-7.088-23.705-0.738l-80.769,75.906l-26.517-27.294
			c-6.45-6.652-17.065-6.797-23.711-0.352c-6.646,6.456-6.797,17.07-0.347,23.711l38.009,39.127
			c3.287,3.382,7.652,5.086,12.029,5.086c4.12,0,8.25-1.509,11.486-4.539l92.786-87.202
			C350.81,313.305,351.139,302.696,344.801,295.944z"/>
	</g>
</g>
<g>
</g>
<g>
</g>
<g>
</g>
<g>
</g>
<g>
</g>
<g>
</g>
<g>
</g>
<g>
</g>
<g>
</g>
<g>
</g>
<g>
</g>
<g>
</g>
<g>
</g>
<g>
</g>
<g>
</g>
</svg>
