<svg height="488pt" viewBox="-103 0 488 488.00008" width="488pt" xmlns="http://www.w3.org/2000/svg"><path d="m244 151h31c3.867188 0 7-3.132812 7-7v-51c0-3.867188-3.132812-7-7-7h-31c-3.867188 0-7 3.132812-7 7v19h-36.359375c1.265625-5.941406 4.265625-11.371094 8.621094-15.605469l21.445312-20.75c1.933594-1.875 2.625-4.691406 1.773438-7.246093l-13.960938-41.867188c-5.269531-15.855469-20.109375-26.5507812-36.820312-26.53125h-81.398438c-16.710937-.0195312-31.554687 10.675781-36.824219 26.53125l-13.957031 41.867188c-.835937 2.515624-.179687 5.289062 1.691407 7.164062l20.824218 20.820312c4.28125 4.257813 7.195313 9.695313 8.363282 15.617188h-36.398438v-19c0-3.867188-3.132812-7-7-7h-30c-3.867188 0-7 3.132812-7 7v51c0 3.867188 3.132812 7 7 7h30c3.867188 0 7-3.132812 7-7v-18h36.101562c-1.328124 5.410156-4.117187 10.351562-8.066406 14.28125l-20.898437 20.824219c-1.335938 1.304687-2.101563 3.082031-2.132813 4.949219v154.828124c.03125 1.867188.796875 3.648438 2.132813 4.953126l20.859375 20.820312c4.222656 4.1875 7.121094 9.523438 8.339844 15.34375h-36.335938v-18c0-3.867188-3.132812-7-7-7h-30c-3.867188 0-7 3.132812-7 7v51c0 3.867188 3.132812 7 7 7h30c3.867188 0 7-3.132812 7-7v-19h36.160156c-1.296875 5.515625-4.109375 10.558594-8.125 14.554688l-20.824218 20.824218c-1.863282 1.863282-2.523438 4.621094-1.699219 7.128906l14.027343 42.777344c5.207032 15.957032 20.097657 26.742188 36.882813 26.714844h81.15625c16.785156.027344 31.675781-10.757812 36.882813-26.714844l14.027343-42.785156c.835938-2.546875.144531-5.34375-1.78125-7.207031l-21.445312-20.753907c-4.089844-3.972656-6.988281-9.007812-8.375-14.539062h36.113281v19c0 3.867188 3.132812 7 7 7h31c3.867188 0 7-3.132812 7-7v-51c0-3.867188-3.132812-7-7-7h-31c-3.867188 0-7 3.132812-7 7v18h-36.300781c1.300781-5.835938 4.273437-11.164062 8.558593-15.332031l21.523438-20.753907c1.386719-1.308593 2.1875-3.121093 2.21875-5.03125v-154.828124c-.03125-1.90625-.828125-3.71875-2.214844-5.03125l-21.484375-20.75c-4.035156-3.90625-6.921875-8.84375-8.347656-14.273438h36.046875v18c0 3.867188 3.132812 7 7 7zm7-51h17v37h-17zm-221 37h-16v-37h16zm0 251h-16v-37h16zm221-37h17v37h-17zm-32-181.976562v148.894531l-19.394531 18.6875c-8.683594 8.378906-13.589844 19.921875-13.601563 31.988281-.011718 12.066406 4.875 23.617188 13.542969 32.011719l18.285156 17.699219-12.667969 38.617187c-3.332031 10.203125-12.851562 17.097656-23.585937 17.078125h-81.15625c-10.730469.019531-20.25-6.875-23.578125-17.074219l-12.691406-38.695312 17.792968-17.777344c8.382813-8.332031 13.082032-19.667969 13.054688-31.484375v-.726562c-.003906-11.824219-4.730469-23.164063-13.136719-31.484376l-18.863281-18.773437v-149.03125l18.863281-18.769531c8.402344-8.324219 13.132813-19.65625 13.136719-31.484375v-.722657c.027344-11.816406-4.671875-23.15625-13.054688-31.488281l-17.769531-17.765625 12.589844-37.761718c3.367187-10.136719 12.851563-16.972657 23.535156-16.960938h81.398438c10.683593-.011719 20.171875 6.820312 23.542969 16.960938l12.558593 37.6875-18.273437 17.6875c-8.683594 8.386718-13.582032 19.945312-13.566406 32.015624.015624 12.074219 4.941406 23.621094 13.644531 31.984376zm0 0"/><path d="m175 237h-68c-3.867188 0-7 3.132812-7 7s3.132812 7 7 7h68c3.867188 0 7-3.132812 7-7s-3.132812-7-7-7zm0 0"/><path d="m175 205h-68c-3.867188 0-7 3.132812-7 7s3.132812 7 7 7h68c3.867188 0 7-3.132812 7-7s-3.132812-7-7-7zm0 0"/><path d="m175 269h-68c-3.867188 0-7 3.132812-7 7s3.132812 7 7 7h68c3.867188 0 7-3.132812 7-7s-3.132812-7-7-7zm0 0"/></svg>