<svg height="485pt" viewBox="-151 0 485 485.9298" width="485pt" xmlns="http://www.w3.org/2000/svg"><path d="m140.8125 0h-98.695312c-22.746094 0-41.652344 18.578125-41.652344 41.328125v28.960937c0 4.421876 3.980468 7.710938 8.398437 7.710938h35.601563v81.738281l-15.351563 4.203125c-2.039062.558594-3.769531 1.910156-4.808593 3.75-1.042969 1.84375-1.304688 4.023438-.730469 6.058594.964843 3.496094 4.140625 5.914062 7.765625 5.914062.652344 0 1.300781-.09375 1.925781-.277343l11.199219-3.074219v26.335938l-15.351563 4.199218c-2.039062.5625-3.769531 1.914063-4.8125 3.753906-1.039062 1.839844-1.300781 4.023438-.726562 6.058594.960937 3.492188 4.140625 5.914063 7.765625 5.914063.648437 0 1.296875-.09375 1.921875-.28125l11.203125-3.070313v26.335938l-15.351563 4.199218c-2.039062.5625-3.773437 1.910157-4.8125 3.753907-1.039062 1.839843-1.300781 4.019531-.730469 6.054687.964844 3.496094 4.144532 5.914063 7.765626 5.917969.652343 0 1.300781-.097656 1.925781-.28125l11.199219-3.070313v26.335938l-15.351563 4.199219c-2.039063.558593-3.769531 1.910156-4.808594 3.753906-1.039062 1.839844-1.304687 4.019531-.730469 6.054687.964844 3.496094 4.140626 5.914063 7.765626 5.914063.652343 0 1.300781-.09375 1.925781-.277344l11.199219-3.074219v26.335938l-15.351563 4.199219c-2.039063.5625-3.769531 1.914062-4.808594 3.753906-1.042969 1.84375-1.304687 4.023437-.730469 6.058594.964844 3.492187 4.140626 5.910156 7.765626 5.914062.652343 0 1.300781-.09375 1.925781-.28125l11.199219-3.070312v26.335937l-15.351563 4.199219c-2.039063.558594-3.769531 1.910156-4.8125 3.753906-1.039063 1.839844-1.300781 4.019531-.726563 6.054688.964844 3.492187 4.140626 5.914062 7.761719 5.914062.714844 0 1.429688-.09375 2.117188-.277343l11.417969-3.082032c.375 12.039063 3.53125 23.832032 9.226562 34.449219l30.316406 56.414063c1.394532 2.597656 4.101563 4.21875 7.050782 4.21875 2.945312 0 5.65625-1.621094 7.050781-4.21875l30.5-56.417969c6.125-11.296875 9.375-23.933594 9.453125-36.785157v-22.847656l14.277344-3.910156c2.039062-.5625 3.769531-1.910156 4.8125-3.753906 1.039062-1.839844 1.300781-4.019532.726562-6.054688-.519531-2.039062-1.835938-3.785156-3.652344-4.84375s-3.980468-1.34375-6.011718-.792968l-10.152344 2.78125v-26.332032l14.277344-3.914062c2.039062-.558594 3.769531-1.910156 4.8125-3.75 1.039062-1.84375 1.300781-4.023438.726562-6.058594-.519531-2.039062-1.835938-3.78125-3.652344-4.839844-1.816406-1.0625-3.980468-1.347656-6.011718-.796875l-10.152344 2.78125v-26.332031l14.277344-3.910156c2.039062-.5625 3.769531-1.914063 4.8125-3.753906 1.039062-1.84375 1.300781-4.023438.726562-6.058594-.519531-2.039063-1.835938-3.78125-3.652344-4.839844-1.816406-1.0625-3.980468-1.347656-6.011718-.796875l-10.152344 2.785156v-26.335937l14.277344-3.910156c2.039062-.5625 3.769531-1.914063 4.8125-3.753907 1.039062-1.839843 1.300781-4.023437.726562-6.058593-.519531-2.035157-1.835938-3.78125-3.652344-4.839844s-3.980468-1.34375-6.011718-.792969l-10.152344 2.78125v-26.335937l14.277344-3.910157c2.039062-.558593 3.769531-1.910156 4.8125-3.753906 1.039062-1.839844 1.300781-4.019531.726562-6.054687-.519531-2.039063-1.835938-3.78125-3.652344-4.84375-1.816406-1.058594-3.980468-1.34375-6.011718-.792969l-10.152344 2.78125v-26.332031l14.277344-3.914063c2.039062-.558594 3.769531-1.910156 4.8125-3.75 1.039062-1.84375 1.300781-4.023437.726562-6.058594-.519531-2.039062-1.835938-3.78125-3.652344-4.839843-1.816406-1.058594-3.980468-1.347657-6.011718-.796876l-10.152344 2.78125v-56.539062h35.601562c4.417969 0 8.398438-3.289062 8.398438-7.710938v-28.960937c0-22.75-18.90625-41.328125-41.652344-41.328125zm-18.347656 388.507812c-.074219 10.210938-2.664063 20.246094-7.542969 29.21875l-23.363281 43.296876-23.503906-43.296876c-4.890626-8.96875-7.496094-19.003906-7.589844-29.21875v-1.972656l62-16.550781zm0-35.101562-62 16.554688v-26.335938l62-16.550781zm0-42.90625-62 16.550781v-26.332031l62-16.550781zm0-42.910156-62 16.550781v-26.332031l62-16.550782zm0-42.910156-62 16.550781v-26.332031l62-16.546876zm0-42.910157-62 16.550781v-26.332031l62-16.546875zm0-42.90625-62 16.550781v-77.414062h62zm44-76.863281h-150v-20.671875c0-13.929687 11.730468-25.328125 25.652344-25.328125h41.347656v22.109375c0 4.417969 3.582031 8 8 8 4.417968 0 8-3.582031 8-8v-22.109375h41.347656c13.921875 0 25.652344 11.398438 25.652344 25.328125zm0 0"/></svg>