<svg height="472pt" viewBox="-18 0 472 472.0005" width="472pt" xmlns="http://www.w3.org/2000/svg"><path d="m134.003906 78c0-4.417969-3.582031-8-8-8h-26c-4.417968 0-8 3.582031-8 8v26c0 4.417969 3.582032 8 8 8h26c4.417969 0 8-3.582031 8-8zm-16 18h-10v-10h10zm0 0"/><path d="m204.003906 78c0-4.417969-3.582031-8-8-8h-26c-4.417968 0-8 3.582031-8 8v26c0 4.417969 3.582032 8 8 8h26c4.417969 0 8-3.582031 8-8zm-16 18h-10v-10h10zm0 0"/><path d="m274.003906 78c0-4.417969-3.582031-8-8-8h-26c-4.417968 0-8 3.582031-8 8v26c0 4.417969 3.582032 8 8 8h26c4.417969 0 8-3.582031 8-8zm-16 18h-10v-10h10zm0 0"/><path d="m344.003906 78c0-4.417969-3.582031-8-8-8h-26c-4.417968 0-8 3.582031-8 8v26c0 4.417969 3.582032 8 8 8h26c4.417969 0 8-3.582031 8-8zm-16 18h-10v-10h10zm0 0"/><path d="m134.003906 207c0-4.417969-3.582031-8-8-8h-26c-4.417968 0-8 3.582031-8 8v26c0 4.417969 3.582032 8 8 8h26c4.417969 0 8-3.582031 8-8zm-16 18h-10v-10h10zm0 0"/><path d="m204.003906 207c0-4.417969-3.582031-8-8-8h-26c-4.417968 0-8 3.582031-8 8v26c0 4.417969 3.582032 8 8 8h26c4.417969 0 8-3.582031 8-8zm-16 18h-10v-10h10zm0 0"/><path d="m274.003906 207c0-4.417969-3.582031-8-8-8h-26c-4.417968 0-8 3.582031-8 8v26c0 4.417969 3.582032 8 8 8h26c4.417969 0 8-3.582031 8-8zm-16 18h-10v-10h10zm0 0"/><path d="m344.003906 207c0-4.417969-3.582031-8-8-8h-26c-4.417968 0-8 3.582031-8 8v26c0 4.417969 3.582032 8 8 8h26c4.417969 0 8-3.582031 8-8zm-16 18h-10v-10h10zm0 0"/><path d="m7.71875 472h420.570312c2.082032.007812 4.078126-.828125 5.535157-2.316406 1.453125-1.492188 2.242187-3.511719 2.179687-5.59375v-30c.066406-2.097656-.710937-4.140625-2.164062-5.660156-1.449219-1.523438-3.449219-2.398438-5.550782-2.429688h-49.679687l.71875-118h26.675781c4.4375-.042969 8.007813-3.65625 8-8.089844v-32c-.003906-2.113281-.851562-4.136718-2.351562-5.621094-1.503906-1.484374-3.535156-2.308593-5.648438-2.289062h-26.398437l.484375-81h25.914062c4.4375-.042969 8.007813-3.65625 8-8.089844v-32c-.003906-2.113281-.851562-4.136718-2.351562-5.621094-1.503906-1.484374-3.535156-2.308593-5.648438-2.289062h-25.625l.472656-83h25.183594c4.429688-.046875 7.992188-3.660156 7.96875-8.089844v-32c.003906-2.109375-.835937-4.132812-2.335937-5.617187-1.496094-1.484375-3.523438-2.3125002-5.632813-2.292969h-376c-2.113281-.0195312-4.152344.800781-5.660156 2.285156s-2.359375 3.507813-2.371094 5.625v32c.007813 4.441406 3.589844 8.050782 8.03125 8.089844h27.367188l-.476563 83h-26.921875c-2.113281-.019531-4.144531.804688-5.648437 2.289062-1.5 1.484376-2.347657 3.507813-2.351563 5.621094v32c-.007812 4.433594 3.566406 8.046875 8 8.089844h26.589844l-.441406 81h-26.148438c-2.113281-.019531-4.144531.804688-5.648437 2.289062-1.5 1.484376-2.347657 3.507813-2.351563 5.621094v32c-.007812 4.433594 3.566406 8.046875 8 8.089844h25.835938l-.6875 118h-47.433594c-2.101562.03125-4.101562.90625-5.550781 2.429688-1.453125 1.519531-2.230469 3.5625-2.16406275 5.660156v30c-.05859375 2.082031.72656275 4.101562 2.17968775 5.59375 1.457031 1.488281 3.453125 2.324218 5.535156 2.316406zm30.285156-456h360v16h-360zm35.398438 32.140625 251.703125-.140625h39.742187l-.476562 83h-291.449219zm-35.398438 98.859375h360v16h-360zm34.589844 32h291.5l-.484375 81h-291.457031zm-34.589844 97h360v16h-360zm33.839844 32h291.484375l-.71875 118h-98.605469v-84.089844c0-4.417968-3.082031-7.910156-7.5-7.910156h-77c-4.417968 0-8.5 3.492188-8.5 7.910156v84.089844h-99.851562zm115.160156 118v-76h61v76zm-171 16h404v14h-404zm0 0"/></svg>