<svg height="452pt" viewBox="0 0 452 452.87415" width="452pt" xmlns="http://www.w3.org/2000/svg"><path d="m226.875 88.457031c-76.085938 0-137.984375 61.898438-137.984375 137.980469 0 75.933594 61.65625 137.699219 137.535156 137.945312.363281.042969.726563.0625 1.089844.054688.402344.003906.804687-.019531 1.199219-.070312 75.234375-.996094 136.132812-62.480469 136.132812-137.945313.007813-76.085937-61.890625-137.964844-137.972656-137.964844zm8.546875 84.382813 33.488281 54.808594c8.464844 13.839843 9.523438 30.972656 2.832032 45.75-6.695313 14.777343-20.269532 25.28125-36.253907 28.050781zm-16-.496094.066406 129.3125c-10.394531-1.542969-20.007812-6.414062-27.398437-13.886719l-.03125-.03125c-16.1875-16.066406-19.023438-41.234375-6.8125-60.5zm16.089844 175.765625-.015625-30.5c21.820312-2.824219 40.726562-16.503906 50.234375-36.34375 9.511719-19.84375 8.328125-43.148437-3.140625-61.925781l-48.355469-79.101563c-1.449219-2.367187-4.023437-3.804687-6.792969-3.800781h-.035156c-2.757812-.011719-5.324219 1.402344-6.789062 3.742188l-48.941407 78.589843c-11.828125 18.925781-13.117187 42.597657-3.410156 62.695313 9.710937 20.097656 29.050781 33.804687 51.230469 36.304687l.015625 30.425781c-65.683594-3.976562-116.375-59.339843-114.558594-125.121093 1.820313-65.78125 55.492187-118.261719 121.296875-118.601563s120.015625 51.578125 122.515625 117.335938c2.5 65.757812-47.613281 121.644531-113.253906 126.300781zm0 0"/><path d="m426.722656 249.667969c2.007813-18.445313 1.527344-37.078125-1.433594-55.394531l22.910157-21.972657c2.421875-2.320312 3.136719-5.90625 1.792969-8.980469l-25.980469-59.382812c-1.355469-3.109375-4.53125-5.023438-7.914063-4.773438l-31.71875 2.332032c-11.398437-14.683594-24.933594-27.578125-40.15625-38.25l.929688-31.683594c.101562-3.390625-1.949219-6.476562-5.113282-7.699219l-60.441406-23.328125c-3.152344-1.214844-6.730468-.320312-8.9375 2.238282l-20.550781 23.820312c-18.445313-2.007812-37.078125-1.527344-55.398437 1.433594l-21.972657-22.910156c-2.324219-2.421876-5.90625-3.136719-8.980469-1.792969l-59.382812 25.980469c-3.109375 1.359374-5.023438 4.53125-4.773438 7.914062l2.335938 31.71875c-14.6875 11.398438-27.582031 24.933594-38.25 40.160156l-31.683594-.933594c-3.394531-.109374-6.484375 1.945313-7.703125 5.117188l-23.328125 60.4375c-1.214844 3.152344-.320312 6.730469 2.238282 8.9375l23.816406 20.554688c-2.007813 18.441406-1.527344 37.074218 1.433594 55.390624l-22.90625 21.972657c-2.421876 2.320312-3.136719 5.90625-1.792969 8.980469l25.980469 59.382812c1.355468 3.109375 4.53125 5.023438 7.917968 4.773438l31.714844-2.335938c11.398438 14.683594 24.933594 27.578125 40.15625 38.25l-.929688 31.683594c-.101562 3.390625 1.949219 6.480468 5.113282 7.699218l60.441406 23.328126c3.152344 1.21875 6.730469.324218 8.9375-2.234376l20.550781-23.820312c18.445313 2.007812 37.074219 1.527344 55.390625-1.433594l21.972656 22.914063c2.324219 2.417969 5.90625 3.132812 8.980469 1.789062l59.378907-25.976562c3.109374-1.359375 5.023437-4.53125 4.773437-7.917969l-2.328125-31.71875c14.683594-11.398438 27.578125-24.9375 38.25-40.160156l31.683594.933594c3.386718.085937 6.464844-1.960938 7.699218-5.117188l23.328126-60.441406c1.214843-3.152344.320312-6.726563-2.238282-8.933594zm-10.167968 78.882812-30.390626-.894531c-2.761718-.09375-5.371093 1.257812-6.894531 3.5625-10.933593 16.421875-24.644531 30.816406-40.511719 42.539062-2.207031 1.632813-3.425781 4.28125-3.222656 7.015626l2.234375 30.410156-49.078125 21.46875-21.046875-21.949219c-1.863281-1.9375-4.570312-2.8125-7.214843-2.328125-19.476563 3.566406-39.394532 4.078125-59.03125 1.523438-2.667969-.347657-5.328126.671874-7.085938 2.707031l-19.648438 22.773437-49.902343-19.257812.894531-30.394532c.082031-2.757812-1.261719-5.363281-3.558594-6.890624-16.421875-10.9375-30.816406-24.644532-42.539062-40.515626-1.632813-2.207031-4.28125-3.421874-7.019532-3.222656l-30.40625 2.238282-21.476562-49.078126 21.949219-21.050781c1.941406-1.859375 2.816406-4.570312 2.332031-7.214843-3.566406-19.476563-4.082031-39.390626-1.523438-59.027344.34375-2.667969-.671874-5.332032-2.707031-7.089844l-22.773437-19.652344 19.257812-49.898437 30.394532.894531c2.753906.070312 5.355468-1.273438 6.890624-3.5625 10.933594-16.421875 24.644532-30.816406 40.515626-42.539062 2.207031-1.632813 3.421874-4.28125 3.21875-7.015626l-2.238282-30.410156 49.078125-21.46875 21.054688 21.945313c1.859375 1.9375 4.566406 2.816406 7.210937 2.332031 19.480469-3.566406 39.398438-4.082031 59.039063-1.523438 2.667969.347657 5.332031-.671874 7.089843-2.707031l19.648438-22.773437 49.898438 19.257812-.894532 30.394532c-.078125 2.757812 1.265625 5.359374 3.558594 6.890624 16.421875 10.9375 30.816406 24.644532 42.542969 40.515626 1.632812 2.203124 4.28125 3.421874 7.019531 3.222656l30.40625-2.234375 21.46875 49.074219-21.945312 21.050781c-1.941407 1.859375-2.816407 4.570312-2.332032 7.214843 3.566406 19.476563 4.082032 39.390626 1.523438 59.027344-.347656 2.667969.671875 5.332032 2.707031 7.089844l22.769531 19.648438zm0 0"/></svg>