<?xml version="1.0"?>
<svg xmlns="http://www.w3.org/2000/svg" id="Layer_1" data-name="Layer 1" viewBox="0 0 512 512" width="512" height="512"><title>Tic</title><path d="M360.7,431H151.3a8,8,0,1,0,0,16H360.7a8,8,0,0,0,0-16Z"/><path d="M151.3,415h98.854a8,8,0,1,0,0-16H151.3a8,8,0,1,0,0,16Z"/><path d="M438,68H314V65.942c0-4.419-3.948-7.942-8.366-7.942H284.873a33.345,33.345,0,0,0,5.342-18.351,34.215,34.215,0,1,0-68.43.007A33.319,33.319,0,0,0,227.127,58H206.366C201.948,58,198,61.523,198,65.942V68H74a7.725,7.725,0,0,0-8,7.67V498.6c0,4.418,3.582,8.4,8,8.4H438c4.418,0,8-3.987,8-8.4V75.67A7.725,7.725,0,0,0,438,68ZM256,21.405A18.215,18.215,0,1,1,237.785,39.62,18.235,18.235,0,0,1,256,21.405ZM214,74h84v37H214Zm91.634,53c4.418,0,8.366-3.421,8.366-7.839V111h88V461H110V111h88v8.161c0,4.418,3.948,7.839,8.366,7.839ZM430,491H82V84H198V95H102.383C97.965,95,94,98.509,94,102.927v366.2c0,4.419,3.965,7.873,8.383,7.873H409.617c4.418,0,8.383-3.454,8.383-7.873v-366.2c0-4.418-3.965-7.927-8.383-7.927H314V84H430Z"/><path d="M185.629,161.093a8,8,0,0,0-9.935.849l-23.671,22.41a8,8,0,0,0-.922,10.579l11.1,14.944a99.861,99.861,0,0,0-10.506,24.377l-19.186,3.11a7.8,7.8,0,0,0-6.506,7.9V276.74a7.8,7.8,0,0,0,6.509,7.9l19.327,3.108A102.291,102.291,0,0,0,162.271,312.1l-11.143,14.973a8,8,0,0,0,.91,10.577l23.654,22.4a8,8,0,0,0,9.931.85l16.334-10.878a111.234,111.234,0,0,0,26.316,10.256l3.223,18.1A8.021,8.021,0,0,0,239.371,385h33.251a8.023,8.023,0,0,0,7.876-6.622l3.227-18.108a114.218,114.218,0,0,0,26.294-10.252l16.356,10.887a8,8,0,0,0,9.934-.851l23.66-22.4a8,8,0,0,0,.909-10.6L349.486,311.8a99.792,99.792,0,0,0,10.494-24.349l19.5-3.112a7.8,7.8,0,0,0,6.525-7.9V244.951a7.8,7.8,0,0,0-6.509-7.9l-19.327-3.106a102.244,102.244,0,0,0-10.435-24.351l11.147-14.972a8,8,0,0,0-.909-10.579l-23.653-22.4a7.994,7.994,0,0,0-10-.8L310,171.95a111.237,111.237,0,0,0-26.265-10.229l-3.223-18.1A8.021,8.021,0,0,0,272.634,137H239.375a8.024,8.024,0,0,0-7.876,6.622l-3.227,18.108a114.269,114.269,0,0,0-26.288,10.248ZM236.81,176.2a8.034,8.034,0,0,0,6.284-6.462L246.074,153h19.861l2.98,16.742a8.017,8.017,0,0,0,6.321,6.456,95.479,95.479,0,0,1,30.984,12.021,8,8,0,0,0,8.645-.229L330,177.686l13.828,13.094-10.156,13.678a8,8,0,0,0-.22,9.228A86.735,86.735,0,0,1,346.037,242.8a7.735,7.735,0,0,0,6.308,6.116L370,251.774V269.6l-17.958,2.869a7.867,7.867,0,0,0-6.447,6.158,83.951,83.951,0,0,1-12.5,29.037,8,8,0,0,0,.237,9.282l10.455,13.978-13.857,13.126-15.149-10.09a8,8,0,0,0-8.543-.2,98.359,98.359,0,0,1-31.05,12.039,8.031,8.031,0,0,0-6.285,6.462L265.922,369H246.07l-2.98-16.742a8.016,8.016,0,0,0-6.322-6.456,95.447,95.447,0,0,1-30.983-12.019,8,8,0,0,0-8.576.182l-15.153,10.088-13.879-13.142,10.153-13.679a8,8,0,0,0,.218-9.228,86.726,86.726,0,0,1-12.585-29.111,7.734,7.734,0,0,0-6.308-6.116L142,269.917V252.082l17.653-2.864a7.867,7.867,0,0,0,6.428-6.155,84.016,84.016,0,0,1,12.5-29.039,8,8,0,0,0-.223-9.263l-10.166-13.67,13.881-13.148,15.149,10.091a8,8,0,0,0,8.541.205A98.391,98.391,0,0,1,236.81,176.2Z"/><path d="M240.865,285.2a8,8,0,0,0,11.223.236L291.545,248.2a8,8,0,0,0-10.983-11.635L246.833,268.4l-15.155-15.561A8,8,0,0,0,220.215,264Z"/><path d="M256,331.688A70.688,70.688,0,1,0,185.312,261,70.767,70.767,0,0,0,256,331.688Zm0-125.376A54.688,54.688,0,1,1,201.312,261,54.75,54.75,0,0,1,256,206.312Z"/></svg>
