<?xml version="1.0"?>
<svg xmlns="http://www.w3.org/2000/svg" id="Layer_1" data-name="Layer 1" viewBox="0 0 512 512" width="512" height="512"><title>Compass</title><path d="M256,184.61a55.375,55.375,0,1,0-55.375-55.375A55.438,55.438,0,0,0,256,184.61Zm0-98.75a43.375,43.375,0,1,1-43.375,43.375A43.424,43.424,0,0,1,256,85.86Z"/><path d="M131.23,355h26.518l-2.125,12.649a6.291,6.291,0,0,0,1.017,4.6,6.081,6.081,0,0,0,3.884,2.508l.864.177L144.955,499.918a6.008,6.008,0,0,0,4.937,6.7l14.114,2.42a5.981,5.981,0,0,0,6.883-4.67l26.073-123.32,1.873.321a6.115,6.115,0,0,0,1.019.087,6.222,6.222,0,0,0,5.908-5.227L209.356,355H243v11.219A5.6,5.6,0,0,0,248.735,372h14.53A5.6,5.6,0,0,0,269,366.219V355h33.644l3.594,21.233a6.111,6.111,0,0,0,5.908,5.108,5.906,5.906,0,0,0,1.019-.028l1.873-.29,26.073,123.335a6.018,6.018,0,0,0,6.883,4.684l14.114-2.414a6,6,0,0,0,4.937-6.7l-16.433-124.97.864-.148a6.24,6.24,0,0,0,4.9-7.165L354.253,355H380.77c3.313,0,6.23-2.209,6.23-5.522V329.894A6.112,6.112,0,0,0,380.77,324H348.846L324.207,180.031A85.037,85.037,0,0,0,273.2,45.95L271.411,8.655A5.949,5.949,0,0,0,265.418,3H246.582a5.943,5.943,0,0,0-5.993,5.648L238.805,45.97a85.027,85.027,0,0,0-51.012,134.069L163.154,324H131.23a6.112,6.112,0,0,0-6.23,5.894v19.584C125,352.791,127.917,355,131.23,355Zm29.112,141.244-2.737-.469,15.621-118.786,11.9,2.037Zm34.6-127.95-26.482-4.653L169.923,355h27.259ZM257,360h-2V319h2Zm-8.265-53A5.913,5.913,0,0,0,243,313.152V324H214.763l19.261-112.559a85.821,85.821,0,0,0,43.953.013L297.236,324H269V313.152A5.913,5.913,0,0,0,263.265,307ZM354.4,495.775l-2.737.469L326.874,379.026l11.9-2.037ZM343.537,363.76l-26.483,4.415L314.818,355h27.26ZM375,343H269v-7H375Zm-65.589-19L289.47,207.461a85.182,85.182,0,0,0,24.513-16.01L336.671,324ZM252.3,15H259.7l1.409,29.421c-1.69-.1-3.39-.2-5.106-.2s-3.416.116-5.106.216ZM256,56.188a73.047,73.047,0,1,1-73.047,73.047A73.13,73.13,0,0,1,256,56.188ZM198.017,191.425a85.357,85.357,0,0,0,24.514,16.063L202.588,324H175.329ZM137,336H243v7H137Z"/></svg>
