<svg height="487pt" viewBox="0 -12 487.18236 487" width="487pt" xmlns="http://www.w3.org/2000/svg"><path d="m458.964844 80.832031c-.996094-3.414062-4.132813-5.757812-7.6875-5.742187h-114.578125l-27.226563-69.953125c-1.203125-3.0625-4.167968-5.0703128-7.457031-5.0468752h-254.363281c-3.230469-.0390626-6.15625 1.8867182-7.402344 4.8671872l-39.648438 96.523438c-1.015624 2.398437-.730468 5.144531.753907 7.28125 1.507812 2.160156 4.007812 3.414062 6.644531 3.328125h40.589844v342.195312c-.011719 2.09375.820312 4.101563 2.308594 5.570313 1.488281 1.472656 3.507812 2.277343 5.601562 2.234375h384.046875c2.105469.046875 4.140625-.753906 5.652344-2.21875 1.511719-1.46875 2.371093-3.480469 2.390625-5.585938v-267.195312h30.585937c2.476563.117187 4.855469-.976563 6.382813-2.929688s2.011718-4.523437 1.304687-6.898437zm-411.25-35.664062c4.199218 3.5 9.964844 8.285156 20.601562 8.285156 10.632813 0 16.390625-4.789063 20.597656-8.285156 3.441407-2.863281 5.519532-4.589844 10.367188-4.589844 4.851562 0 6.925781 1.726563 10.367188 4.589844 4.203124 3.5 9.964843 8.285156 20.601562 8.285156 10.632812 0 16.394531-4.789063 20.601562-8.285156 3.4375-2.863281 5.515626-4.589844 10.367188-4.589844s6.929688 1.726563 10.371094 4.589844c4.207031 3.5 9.964844 8.285156 20.601562 8.285156 10.632813 0 16.398438-4.789063 20.597656-8.285156 3.441407-2.863281 5.519532-4.589844 10.371094-4.589844 4.847656 0 6.929688 1.726563 10.371094 4.589844 4.207031 3.5 9.964844 8.285156 20.597656 8.285156 10.636719 0 16.402344-4.789063 20.601563-8.285156 3.441406-2.863281 5.519531-4.589844 10.375-4.589844 4.851562 0 6.929687 1.726563 10.371093 4.589844 3.480469 2.894531 8.03125 6.660156 15.519532 7.878906l5.234375 13.457031c-5.675781-4.375-12.671875-6.671875-19.835938-6.511718-11.21875 0-17.140625 4.464843-21.898437 8.050781-3.855469 2.90625-6.398438 4.824219-12.265625 4.824219-5.867188 0-8.410157-1.917969-12.265625-4.824219-4.757813-3.589844-10.675782-8.050781-21.894532-8.050781s-17.136718 4.464843-21.894531 8.050781c-3.855469 2.90625-6.402343 4.824219-12.265625 4.824219-5.867187 0-8.410156-1.917969-12.265625-4.824219-4.757812-3.585938-10.679687-8.050781-21.898437-8.050781-11.222656 0-17.140625 4.464843-21.898438 8.050781-3.855468 2.90625-6.402344 4.824219-12.265625 4.824219s-8.40625-1.917969-12.261719-4.824219c-4.757812-3.585938-10.675781-8.050781-21.894531-8.050781-11.214843 0-17.128906 4.460937-21.882812 8.046874-3.855469 2.90625-6.402344 4.824219-12.261719 4.824219-5.863281 0-8.402344-1.917969-12.257812-4.824219-3.246094-2.671874-6.90625-4.792968-10.835938-6.285156l8.300781-20.222656c1.90625.960938 3.664063 2.183594 5.226563 3.636719zm248.828125-29.078125 5.46875 13.96875c-4.882813-3.625-10.832031-5.535156-16.914063-5.433594-10.632812 0-16.398437 4.765625-20.597656 8.265625-3.441406 2.859375-5.519531 4.574219-10.375 4.574219-4.851562 0-6.929688-1.730469-10.371094-4.59375-4.203125-3.5-9.964844-8.289063-20.597656-8.289063s-16.394531 4.785157-20.601562 8.285157c-3.441407 2.859374-5.519532 4.585937-10.371094 4.585937-4.851563 0-6.925782-1.726563-10.367188-4.589844-4.207031-3.5-9.964844-8.285156-20.601562-8.285156-10.632813 0-16.394532 4.789063-20.597656 8.285156-3.441407 2.863281-5.519532 4.589844-10.371094 4.589844-4.851563 0-6.925782-1.726563-10.367188-4.589844-4.199218-3.5-9.964844-8.285156-20.601562-8.285156-10.632813 0-16.390625 4.789063-20.597656 8.285156-3.441407 2.863281-5.519532 4.589844-10.367188 4.589844-4.851562 0-6.921875-1.726563-10.367188-4.585937-2.796874-2.480469-5.960937-4.519532-9.378906-6.039063l4.449219-10.738281zm-268.453125 60.328125c2.757812.785156 4.742187 2.371093 7.300781 4.300781 4.753906 3.585938 10.675781 8.101562 21.890625 8.101562s17.136719-4.441406 21.890625-8.027343c3.855469-2.902344 6.402344-4.8125 12.261719-4.8125 5.863281 0 8.40625 1.921875 12.261718 4.828125 4.757813 3.589844 10.675782 8.054687 21.898438 8.054687s17.140625-4.460937 21.894531-8.046875c3.855469-2.90625 6.402344-4.828125 12.265625-4.828125 5.863282 0 8.40625 1.921875 12.261719 4.828125 4.757813 3.585938 10.679687 8.050782 21.902344 8.050782 11.21875 0 17.140625-4.464844 21.898437-8.050782 3.855469-2.90625 6.398438-4.828125 12.265625-4.828125 5.863281 0 8.410157 1.921875 12.265625 4.828125 4.753906 3.585938 10.675782 8.050782 21.898438 8.050782s17.136718-4.464844 21.898437-8.050782c3.855469-2.90625 6.402344-4.828125 12.269531-4.828125 5.867188 0 8.410157 1.921875 12.265626 4.828125 3.855468 2.90625 8.488281 6.207032 16.085937 7.417969l3.128906 7.859375h-307.960937zm130.5 369.671875v-98h26v98zm42 0v-105.546875c0-4.417969-3.382813-8.453125-7.800782-8.453125h-42.300781c-4.417969 0-7.898437 4.035156-7.898437 8.453125v105.546875h-9v-122h76v122zm82 0h-57v-130.226563c.03125-2.078125-.785156-4.082031-2.261719-5.546875-1.472656-1.464844-3.480469-2.269531-5.558594-2.226562h-92.257812c-2.089844-.046875-4.109375.75-5.601563 2.214844-1.492187 1.464843-2.328125 3.46875-2.320312 5.558593v130.226563h-53v-334h218zm150 0h-134v-259h134zm7.957031-275h-141.957031v-59h40.984375c2.609375.074218 5.085937-1.160156 6.597656-3.292969 1.492187-2.128906 1.8125-4.863281.855469-7.277344l-4.105469-10.429687h102.339844l23.277343 80zm0 0"/><path d="m413.589844 236.089844c0-4.417969-3.582032-8-8-8h-82c-4.417969 0-8 3.582031-8 8v74c0 4.421875 3.582031 8 8 8h82c4.417968 0 8-3.578125 8-8zm-82 8h66v58h-66zm0 0"/><path d="m387.589844 260.089844c0-4.417969-3.582032-8-8-8h-30c-4.417969 0-8 3.582031-8 8v27c0 4.421875 3.582031 8 8 8h30c4.417968 0 8-3.578125 8-8zm-16 19h-14v-11h14zm0 0"/></svg>