<svg height="481pt" viewBox="-26 0 481 481.623" width="481pt" xmlns="http://www.w3.org/2000/svg"><path d="m49.542969 352.089844c.085937-7.78125 6.394531-14.054688 14.175781-14.089844h146.824219v67h12v-67h147.578125c7.71875 0 14.421875 6.367188 14.421875 14.089844v52.910156h12v-52.910156c0-14.335938-12.085938-26.089844-26.421875-26.089844h-147.578125v-33h23.949219c3.226562-.0625 5.851562-2.621094 5.992187-5.84375l3.902344-81.777344c.246093-5.371094 2.53125-10.449218 6.382812-14.199218l4.582031-4.320313c6.445313-6.25 10.113282-14.820313 10.191407-23.792969v-47.621094c0-8.75-2.265625-17.5-8.164063-24.03125-6.046875-6.625-14.59375-10.402343-23.5625-10.414062h-4.851562c-2.53125.007812-4.789063 1.601562-5.644532 3.988281l-5.167968 14.382813-9.136719-9.714844c-1.148437-1.226562-2.761719-1.910156-4.445313-1.886719-1.679687.019531-3.273437.746094-4.394531 2l-8.136719 9.085938-4.453124-13.699219c-.800782-2.472656-3.105469-4.148438-5.703126-4.15625h-5.640624c-8.964844.011719-17.507813 3.789062-23.546876 10.414062-6.027343 6.476563-8.992187 15.222657-8.152343 24.03125v47.574219c.070312 9.011719 3.769531 17.613281 10.265625 23.859375l4.488281 4.273438c3.898437 3.738281 6.214844 8.824218 6.476563 14.21875l3.910156 81.785156c.148437 3.226562 2.777344 5.785156 6.007812 5.84375h22.851563v33h-146.824219c-14.402344.042969-26.085938 11.683594-26.175781 26.089844v52.910156h12zm167.210937-249.445313 4.070313 4.332031 6.230469 58.007813-10.027344 10.03125-10.03125-10.03125 6.277344-58.449219zm-26.960937 102.285157c-.390625-8.460938-4-16.457032-10.089844-22.34375l-4.558594-4.300782c-4.160156-3.996094-6.539062-9.496094-6.601562-15.265625v-47.863281c0-.199219.125-.402344.105469-.605469-.527344-5.519531 1.300781-11.003906 5.03125-15.109375 3.730468-4.101562 9.015624-6.441406 14.5625-6.441406h1.285156l6.332031 19.464844c.644531 1.972656 2.265625 3.472656 4.285156 3.964844l-5.382812 50.125c-.195313 1.804687.4375 3.601562 1.722656 4.886718l16.300781 16.296875c2.339844 2.34375 6.140625 2.34375 8.484375 0l16.300781-16.296875c1.28125-1.285156 1.914063-3.078125 1.722657-4.882812l-5.382813-50.117188c1.957032-.480468 3.542969-1.910156 4.222656-3.804687l7.054688-19.636719h.628906c5.53125.039062 10.796875 2.386719 14.519532 6.476562 3.722656 4.09375 5.566406 9.554688 5.082031 15.066407-.019531.199219.125.414062.125.613281v47.910156c-.074219 5.730469-2.4375 11.195313-6.566407 15.171875l-4.5 4.308594c-6.050781 5.902344-9.640624 13.882813-10.042968 22.328125l-3.660156 76.125h-47.359376zm0 0"/><path d="m246.542969 30.453125c0-16.816406-13.632813-30.453125-30.453125-30.453125h-.09375c-16.820313 0-30.453125 13.636719-30.453125 30.453125v10.09375c0 16.816406 13.632812 30.453125 30.453125 30.453125h.09375c16.820312 0 30.453125-13.636719 30.453125-30.453125zm-12 10.09375c0 10.191406-8.261719 18.453125-18.453125 18.453125h-.09375c-10.191406 0-18.453125-8.261719-18.453125-18.453125v-10.09375c0-10.191406 8.261719-18.453125 18.453125-18.453125h.09375c10.191406 0 18.453125 8.261719 18.453125 18.453125zm0 0"/><path d="m239.371094 415.351562-24.648438 24.652344-24.652344-24.652344-8.484374 8.488282 24.648437 24.648437-24.648437 24.648438 8.484374 8.484375 24.652344-24.648438 24.648438 24.648438 8.484375-8.484375-24.648438-24.648438 24.648438-24.648437zm0 0"/><path d="m32.726562 458.917969-23.59375-25.585938-8.820312 8.136719 27.644531 29.976562c2.242188 2.429688 6.027344 2.589844 8.464844.359376l52.351563-47.953126-8.105469-8.851562zm0 0"/><path d="m372.726562 458.917969-23.59375-25.585938-8.820312 8.136719 27.644531 29.976562c2.242188 2.429688 6.027344 2.589844 8.464844.359376l52.351563-47.953126-8.105469-8.851562zm0 0"/></svg>