<svg height="502pt" viewBox="-67 0 502 502.195" width="502pt" xmlns="http://www.w3.org/2000/svg"><path d="m184.140625 0c-101.480469 0-184.0429688 82.5625-184.0429688 184.046875-.0039062 73.773437 44.0429688 140.429687 111.9101558 169.351563l26.914063 38.621093c-42.628906 8.820313-69.652344 29.058594-69.652344 52.84375 0 32.148438 50.457031 57.332031 114.871094 57.332031s114.871094-25.183593 114.871094-57.332031c0-23.765625-27.03125-44.023437-69.648438-52.84375l26.910157-38.621093c67.867187-28.921876 111.914062-95.578126 111.910156-169.351563 0-101.484375-82.5625-184.046875-184.042969-184.046875zm102.871094 444.867188c0 11.09375-10.367188 22.34375-28.445313 30.867187-19.78125 9.328125-46.210937 14.464844-74.425781 14.464844s-54.644531-5.136719-74.425781-14.460938c-18.078125-8.523437-28.445313-19.777343-28.445313-30.871093 0-18.089844 26.597657-35.144532 65.15625-42.070313l32.792969 47.054687c1.121094 1.609376 2.960938 2.570313 4.921875 2.570313s3.800781-.960937 4.921875-2.570313l32.789062-47.050781c38.539063 6.921875 65.160157 23.988281 65.160157 42.066407zm39.472656-164.167969c-18.855469 27.78125-45.429687 49.4375-76.445313 62.300781-1.054687.441406-1.964843 1.171875-2.621093 2.113281l-63.277344 90.8125-63.28125-90.808593c-.652344-.941407-1.5625-1.675782-2.617187-2.117188-64.261719-26.65625-106.148438-89.386719-106.144532-158.953125 0-94.867187 77.179688-172.046875 172.042969-172.046875s172.042969 77.179688 172.042969 172.046875c.0625 34.472656-10.289063 68.164063-29.699219 96.652344zm0 0"/><path d="m184.140625 65.773438c-65.320313-.003907-118.273437 52.949218-118.273437 118.273437 0 65.320313 52.953124 118.273437 118.273437 118.273437s118.273437-52.953124 118.273437-118.273437c-.074218-65.292969-52.984374-118.199219-118.273437-118.273437zm0 224.546874c-58.695313 0-106.273437-47.578124-106.273437-106.273437-.003907-58.695313 47.578124-106.273437 106.269531-106.273437 58.695312-.003907 106.277343 47.578124 106.277343 106.273437-.066406 58.664063-47.609374 106.207031-106.273437 106.273437zm0 0"/><path d="m184.140625 120.128906c14.921875.015625 27.011719 12.105469 27.027344 27.027344 0 3.3125 2.6875 6 6 6 3.316406 0 6-2.6875 6-6-.023438-19.230469-14.03125-35.585938-33.027344-38.566406v-12.488282c0-3.316406-2.6875-6-6-6s-6 2.683594-6 6v12.488282c-20.15625 3.121094-34.511719 21.238281-32.9375 41.578125 1.570313 20.335937 18.539063 36.035156 38.9375 36.019531 14.929687 0 27.03125 12.101562 27.03125 27.03125s-12.101563 27.03125-27.03125 27.03125-27.03125-12.101562-27.027344-27.03125c0-3.316406-2.6875-6-6-6-3.316406 0-6 2.683594-6 6 .023438 19.226562 14.03125 35.582031 33.027344 38.5625v14.320312c0 3.3125 2.6875 6 6 6s6-2.6875 6-6v-14.320312c20.15625-3.121094 34.511719-21.242188 32.9375-41.578125-1.570313-20.339844-18.539063-36.035156-38.9375-36.023437-14.929687 0-27.027344-12.101563-27.027344-27.027344 0-14.929688 12.097657-27.03125 27.027344-27.03125zm0 0"/></svg>