<svg height="498pt" viewBox="-52 0 498 498.29807" width="498pt" xmlns="http://www.w3.org/2000/svg"><path d="m385.855469 147.296875h-107.667969c9.480469-14 14.984375-32.332031 14.984375-51.25.011719-53.03125-42.964844-96.03125-95.996094-96.046875s-96.035156 42.964844-96.046875 95.996094c0 18.917968 5.5 37.300781 14.984375 51.300781h-48.082031c-2.144531.074219-4.175781.988281-5.652344 2.542969l-59.738281 59.699218c-1.546875 1.523438-2.4375 3.589844-2.492187 5.757813v275.070313c.148437 4.460937 3.832031 7.984374 8.292968 7.929687h317.824219c2.117187.011719 4.152344-.816406 5.65625-2.308594l59.738281-59.574219c1.539063-1.476562 2.433594-3.503906 2.488282-5.636718v-275.074219c-.105469-4.554687-3.738282-8.238281-8.292969-8.40625zm-188.707031-131.070313c44.195312 0 80.023437 35.828126 80.023437 80.023438s-35.828125 80.019531-80.023437 80.023438c-44.191407 0-80.019532-35.828126-80.019532-80.023438.046875-44.175781 35.847656-79.972656 80.019532-80.023438zm-125.800782 147.070313h57.535156c5.074219 6 10.71875 10.105469 16.832032 14h-7.566406c-4.417969 0-8 3.582031-8 8s3.582031 8 8 8h112c4.417968 0 8-3.582031 8-8s-3.582032-8-8-8h-1.5625c6.113281-3.894531 11.757812-8 16.832031-14h101.125l-43.59375 44h-295.195313zm-55.199218 60h302v259h-302zm318 247.757813v-252.445313l44-43.59375v252.445313zm0 0"/><path d="m160.148438 106.296875h14.949218c.078125 2.878906.007813 5.753906-.214844 8.625l-.015624.207031c-.371094 4.679688-2.035157 9.164063-4.808594 12.953125l-3.695313 5.042969c-1.882812 2.570312-2.058593 6.011719-.453125 8.761719 1.609375 2.753906 4.695313 4.285156 7.859375 3.90625l13.714844-1.640625c3.859375-.464844 7.769531.234375 11.230469 2.007812 8.222656 4.226563 17.777344 5.066406 26.613281 2.335938l4.839844-1.484375c4.222656-1.292969 6.597656-5.769531 5.300781-9.996094-1.292969-4.222656-5.769531-6.597656-9.996094-5.304687l-4.835937 1.484374c-4.859375 1.503907-10.113281 1.042969-14.636719-1.285156-5.507812-2.824218-11.660156-4.15625-17.84375-3.863281 1.449219-3.738281 2.34375-7.671875 2.660156-11.667969l.019532-.210937c.257812-3.277344.335937-6.574219.265624-9.875h13.046876c4.417968 0 8-3.582031 8-8s-3.582032-8-8-8h-14.6875c-.332032-1.792969-.699219-3.585938-1.132813-5.367188-.933594-3.585937-1.453125-7.261719-1.542969-10.964843-.007812-1.789063.324219-3.558594.980469-5.222657.625-1.605469 1.5625-3.070312 2.757813-4.308593 1.234374-1.265626 2.722656-2.261719 4.363281-2.921876 1.816406-.738281 3.765625-1.101562 5.722656-1.070312 9.800781 0 12.132813 5.109375 13.066406 9.5625.910157 4.324219 5.152344 7.09375 9.476563 6.1875 4.324218-.910156 7.09375-5.152344 6.183594-9.476562-2.976563-14.15625-13.445313-22.273438-28.726563-22.273438-4.09375-.035156-8.152344.753906-11.933594 2.324219-7.222656 2.976562-12.917969 8.773437-15.769531 16.046875-1.410156 3.550781-2.128906 7.335937-2.121094 11.152344.085938 4.96875.757813 9.910156 1.992188 14.722656.128906.535156.242187 1.074218.359375 1.609375h-12.988281c-4.417969 0-8 3.582031-8 8s3.582031 8 8 8zm0 0"/></svg>