<svg height="502pt" viewBox="-42 0 502 502.32599" width="502pt" xmlns="http://www.w3.org/2000/svg"><path d="m410.808594 172.277344-38.199219-3.671875c-4.097656-16.179688-10.621094-31.640625-19.351563-45.863281l24.273438-29.328126c2.632812-3.179687 2.410156-7.839843-.511719-10.757812l-41.742187-41.738281c-2.921875-2.921875-7.582032-3.136719-10.761719-.5l-29.347656 24.300781c-14.246094-8.65625-29.691407-15.164062-45.839844-19.316406l-3.675781-38.167969c-.394532-4.105469-3.84375-7.234375-7.964844-7.234375h-57.042969c-4.121093 0-7.566406 3.128906-7.960937 7.230469l-3.679688 38.171875c-16.148437 4.152344-31.59375 10.660156-45.839844 19.3125l-29.347656-24.300782c-3.179687-2.632812-7.839844-2.414062-10.757812.5l-41.738282 41.742188c-2.917968 2.921875-3.136718 7.582031-.5 10.757812l24.285157 29.324219c-8.722657 14.226563-15.238281 29.6875-19.324219 45.867188l-38.261719 3.675781c-4.128906.382812-7.300781 3.816406-7.355469 7.960938v59.171874c.054688 4.144532 3.226563 7.582032 7.351563 7.964844l38.230469 3.675782c4.160156 16.144531 10.675781 31.589843 19.339844 45.835937l-24.289063 29.347656c-2.75 3.328125-2.367187 8.238281.867187 11.09375l31.664063 28c1.710937 1.515625 3.984375 2.226563 6.25 1.953125 2.269531-.269531 4.3125-1.496094 5.617187-3.371094l45.5-65.285156c2.214844-3.179687 1.835938-7.492187-.90625-10.230468-43.394531-43.394532-43.394531-113.75 0-157.144532 43.394532-43.394531 113.75-43.394531 157.144532 0 43.390625 43.394532 43.390625 113.75 0 157.144532-2.777344 2.773437-3.128906 7.152343-.832032 10.335937l47.097657 65.285156c1.324219 1.832031 3.359375 3.019531 5.601562 3.269531 2.246094.25 4.492188-.460937 6.183594-1.957031l31.667969-27.992187c3.238281-2.859375 3.621094-7.773438.863281-11.101563l-24.296875-29.34375c8.652344-14.25 15.15625-29.699219 19.308594-45.84375l38.285156-3.675781c4.125-.386719 7.292969-3.816406 7.351562-7.960938v-59.175781c-.054687-4.140625-3.226562-7.578125-7.355468-7.960937zm-8.644532 59.871094-36.738281 3.527343c-3.460937.328125-6.324219 2.84375-7.101562 6.234375-4.039063 18.25-11.371094 35.617188-21.628907 51.242188-1.925781 2.933594-1.71875 6.78125.515626 9.488281l23.050781 27.84375-19.246094 17.011719-38.054687-52.746094c45.71875-50.929688 42.90625-128.921875-6.367188-176.425781-49.269531-47.507813-127.308594-47.472657-176.539062.074219-49.230469 47.550781-51.976563 125.542968-6.210938 176.433593l-36.636719 52.566407-19.132812-16.917969 23.0625-27.847657c2.238281-2.703124 2.453125-6.550781.53125-9.484374-10.25-15.628907-17.570313-32.992188-21.601563-51.242188-.804687-3.398438-3.6875-5.90625-7.164062-6.230469l-36.738282-3.527343v-44.636719l36.738282-3.53125c3.480468-.332031 6.351562-2.863281 7.113281-6.273438 3.941406-18.253906 11.265625-35.609375 21.597656-51.164062 1.953125-2.9375 1.753907-6.804688-.492187-9.523438l-23.347656-28.199219 31.441406-31.4375 28.199218 23.355469c2.707032 2.238281 6.550782 2.453125 9.488282.53125 15.628906-10.253906 32.996094-17.574219 51.246094-21.605469 3.375-.710937 5.898437-3.527343 6.234374-6.957031l3.527344-36.542969h42.511719l3.527344 36.539063c.335937 3.441406 2.855469 6.269531 6.234375 7 18.246094 4.027344 35.609375 11.339844 51.238281 21.585937 2.9375 1.921876 6.785156 1.699219 9.484375-.542968l28.203125-23.359375 31.4375 31.433593-23.355469 28.203126c-2.25 2.714843-2.453125 6.578124-.507812 9.519531 10.324218 15.554687 17.640625 32.910156 21.570312 51.164062.789063 3.417969 3.679688 5.945313 7.171875 6.273438l36.738281 3.527343zm0 0"/><path d="m300.078125 354.425781-84.414063-117.769531c-1.484374-2.132812-3.898437-3.429688-6.496093-3.492188-2.59375.0625-5.007813 1.355469-6.492188 3.480469l-84.421875 117.375c-.148437.207031-.289062.460938-.417968.683594-16.980469 29.132813-16.769532 64.554687.566406 94.726563 18.539062 32.710937 53.238281 52.917968 90.835937 52.894531 37.597657-.019531 72.277344-20.265625 90.777344-52.996094 17.25-30.097656 17.421875-65.34375.464844-94.28125-.125-.214844-.257813-.421875-.402344-.621094zm-13.945313 86.953125c-15.648437 27.753906-45.035156 44.933594-76.898437 44.953125s-61.273437-17.117187-76.957031-44.855469c-14.601563-25.40625-14.886719-53.941406-.804688-78.355468l77.679688-107.941406 77.703125 108.265624c14.050781 24.21875 13.792969 52.601563-.722657 77.933594zm0 0"/><path d="m259.746094 391.464844c-4.417969 0-8 3.582031-8 8-.101563 23.789062-19.4375 43.007812-43.226563 42.957031-4.417969 0-8 3.582031-8 8s3.582031 8 8 8c32.621094.039063 59.117188-26.335937 59.226563-58.957031 0-4.417969-3.578125-8-8-8zm0 0"/></svg>