<?xml version="1.0" encoding="iso-8859-1"?>
<!-- Generator: Adobe Illustrator 19.0.0, SVG Export Plug-In . SVG Version: 6.00 Build 0)  -->
<svg version="1.1" id="Capa_1" xmlns="http://www.w3.org/2000/svg" xmlns:xlink="http://www.w3.org/1999/xlink" x="0px" y="0px"
	 viewBox="0 0 512 512" style="enable-background:new 0 0 512 512;" xml:space="preserve">
<g>
	<g>
		<path d="M256,108.285c-111.304,0-201.857,90.553-201.857,201.857S144.696,512,256,512s201.857-90.553,201.857-201.857
			S367.304,108.285,256,108.285z M256,476.69c-91.83,0-166.547-74.711-166.547-166.547S164.17,143.595,256,143.595
			s166.547,74.711,166.547,166.547S347.83,476.69,256,476.69z"/>
	</g>
</g>
<g>
	<g>
		<path d="M367.139,49.552L338.891,7.768C335.613,2.913,330.128,0,324.267,0H187.733c-5.862,0-11.341,2.913-14.624,7.762
			l-28.248,41.784c-4.396,6.503-3.972,15.13,1.042,21.169l54.731,65.913l27.171-22.552l-46.268-55.72l15.578-23.046h117.784
			l15.566,23.046l-46.262,55.72l27.16,22.557l54.731-65.913C371.112,64.677,371.535,56.055,367.139,49.552z"/>
	</g>
</g>
<g>
</g>
<g>
</g>
<g>
</g>
<g>
</g>
<g>
</g>
<g>
</g>
<g>
</g>
<g>
</g>
<g>
</g>
<g>
</g>
<g>
</g>
<g>
</g>
<g>
</g>
<g>
</g>
<g>
</g>
</svg>
