<svg height="482pt" viewBox="0 -89 482.00187 482" width="482pt" xmlns="http://www.w3.org/2000/svg"><path d="m467.507812 121.929688-34.714843-14.917969-29-56.492188c-7.007813-13.773437-21.136719-22.464843-36.589844-22.507812h-3.628906l-6.484375-23.25c-.878906-2.957031-3.675782-4.921875-6.753906-4.7500002h-19.335938c-3.078125-.1718748-5.871094 1.7968752-6.75 4.7500002l-6.484375 23.25h-19.765625c-3.933594.171875-7.023438 3.425781-7 7.363281v62.117188l-91.898438 65.519531h-192.304687c-1.816406-.035157-3.566406.671875-4.847656 1.957031-1.285157 1.285156-1.9882815 3.035156-1.949219 4.851562v51.824219c0 13.289063 10.609375 24.367188 23.902344 24.367188h10.046875c-.234375 1.960937-.351563 3.9375-.355469 5.910156-.011719 29.082031 23.558594 52.664063 52.636719 52.671875 29.082031.011719 52.664062-23.558594 52.671875-52.636719-.003906-1.988281-.125-3.972656-.359375-5.945312h196.613281c-.234375 1.960937-.351562 3.9375-.355469 5.910156-.011719 29.082031 23.558594 52.664063 52.636719 52.671875 29.082031.011719 52.664062-23.558594 52.671875-52.636719-.003906-1.988281-.125-3.972656-.359375-5.945312h18.351562c13.289063 0 23.898438-11.078125 23.898438-24.367188v-77.566406c.050781-9.621094-5.65625-18.34375-14.492188-22.148437zm-131.167968-107.917969h8.660156l4.058594 14h-16.777344zm30.863281 28c10.183594-.039063 19.527344 5.640625 24.175781 14.699219l24.910156 48.300781h-111.289062v-63zm-76.203125 72.65625v48.34375h-67.734375zm-204.753906 175.777343c-21.347656 0-38.652344-17.304687-38.65625-38.652343 0-21.351563 17.308594-38.65625 38.65625-38.65625s38.65625 17.304687 38.65625 38.652343c-.027344 21.339844-17.316406 38.632813-38.65625 38.65625zm0-91.046874c-21.3125.074218-40.5 12.929687-48.679688 32.613281h-13.664062c-5.589844-.148438-10.011719-4.777344-9.902344-10.367188v-44.632812h277v55h-156.070312c-8.179688-19.683594-27.367188-32.539063-48.683594-32.613281zm301.207031 91.046874c-21.347656 0-38.652344-17.304687-38.652344-38.65625 0-21.347656 17.304688-38.652343 38.652344-38.652343 21.351563 0 38.65625 17.304687 38.65625 38.652343-.023437 21.339844-17.316406 38.632813-38.65625 38.65625zm80.546875-68.800781c.113281 5.589844-4.308594 10.21875-9.898438 10.367188h-21.96875c-8.121093-19.730469-27.34375-32.613281-48.683593-32.613281-21.335938 0-40.5625 12.882812-48.679688 32.613281h-33.769531v-113h121.335938l35.652343 15.5625c3.707031 1.699219 6.0625 5.421875 6.011719 9.5zm0 0"/></svg>