<svg height="475pt" viewBox="0 -17 475.99148 475" width="475pt" xmlns="http://www.w3.org/2000/svg"><path d="m406.726562.496094h-203.5c-4.417968 0-8 3.582031-8 8 .363282 60.355468 49.394532 109.089844 109.75 109.089844 60.355469 0 109.382813-48.734376 109.75-109.089844 0-4.417969-3.582031-8-8-8zm-101.753906 101.75c-48.652344-.058594-89.199218-37.277344-93.414062-85.75h186.832031c-4.210937 48.472656-44.761719 85.695312-93.417969 85.75zm0 0"/><path d="m141.992188 23.496094h34c4.417968 0 8-3.582032 8-8 0-4.417969-3.582032-8-8-8h-34c-4.417969 0-8 3.582031-8 8 0 4.417968 3.582031 8 8 8zm0 0"/><path d="m467.992188 7.496094h-34c-4.417969 0-8 3.582031-8 8 0 4.417968 3.582031 8 8 8h34c4.417968 0 8-3.582032 8-8 0-4.417969-3.582032-8-8-8zm0 0"/><path d="m312.992188 169.496094v-32c0-4.417969-3.582032-8-8-8-4.417969 0-8 3.582031-8 8v32c0 4.417968 3.582031 8 8 8 4.417968 0 8-3.582032 8-8zm0 0"/><path d="m401.910156 93.316406c-3.125-3.125-8.191406-3.125-11.316406 0-3.125 3.121094-3.125 8.1875-.003906 11.3125l36.867187 36.867188c3.125 3.125 8.191407 3.125 11.3125 0 3.125-3.125 3.125-8.191406 0-11.3125zm0 0"/><path d="m171.175781 141.496094c3.125 3.125 8.191407 3.125 11.316407 0l36.859374-36.863282c2.042969-2.015624 2.847657-4.972656 2.109376-7.746093-.738282-2.773438-2.902344-4.941407-5.675782-5.675781-2.773437-.738282-5.730468.066406-7.746094 2.109374l-36.863281 36.863282c-3.125 3.121094-3.125 8.1875 0 11.3125zm0 0"/><path d="m313.363281 289.132812-279.035156-139.925781c-3.949219-1.980469-8.757813-.382812-10.738281 3.566407l-22.742188 45.355468c-1.980468 3.949219-.382812 8.757813 3.566406 10.738282l133.578126 66.980468v148.648438h-47c-4.417969 0-8 3.582031-8 8 0 4.417968 3.582031 8 8 8h111c4.417968 0 8-3.582032 8-8 0-4.417969-3.582032-8-8-8h-48v-140.625l129.457031 64.917968c1.898437.953126 4.09375 1.113282 6.109375.445313 2.011718-.671875 3.679687-2.113281 4.628906-4.011719l22.742188-45.355468c1.980468-3.949219.382812-8.753907-3.566407-10.734376zm-29.894531 41.761719-264.730469-132.746093 15.570313-31.050782 264.734375 132.75zm0 0"/></svg>