<svg height="480pt" viewBox="0 0 480 480.46065" width="480pt" xmlns="http://www.w3.org/2000/svg"><path d="m473.109375 262.453125h-10.574219c1.320313-10.066406 1.980469-20.207031 1.980469-30.359375-.015625-93.886719-56.582031-178.515625-143.328125-214.433594-86.742188-35.917968-186.578125-16.050781-252.960938 50.339844-66.386718 66.386719-86.253906 166.21875-50.339843 252.960938 35.917969 86.742187 120.539062 143.3125 214.421875 143.339843 10.152344 0 20.296875-.660156 30.359375-1.980469v10.574219c0 4.417969 3.714843 7.558594 8.132812 7.558594h202.308594c2.027344.082031 4-.6875 5.4375-2.125 1.433594-1.433594 2.207031-3.40625 2.121094-5.4375v-202.308594c0-4.417969-3.144531-8.128906-7.558594-8.128906zm-106.15625 0c.65625-7 1.070313-15 1.242187-22h80.164063c-.277344 7.363281-.941406 14.707031-1.980469 22zm-302.984375 105.359375c-29.296875-36.144531-46-80.859375-47.574219-127.359375h80.15625c.714844 32 5.710938 61.910156 14.574219 89.246094-17.324219 10.578125-33.179688 23.394531-47.15625 38.113281zm47.160156-232.824219c-8.867187 27.335938-13.859375 57.464844-14.578125 89.464844h-80.15625c1.570313-46.566406 18.273438-91.351563 47.574219-127.578125 13.980469 14.71875 29.835938 27.535156 47.15625 38.113281zm289.683594-38.152343c29.285156 36.246093 45.976562 81.042968 47.542969 127.617187h-80.160157c-.710937-32-5.683593-61.898437-14.5-89.167969 17.339844-10.671875 33.183594-23.601562 47.113282-38.449218zm-48.617188 127.617187h-111.527343v-55.621094c34.484375-.925781 68.308593-9.660156 98.925781-25.546875 7.703125 24.867188 11.921875 52.167969 12.601562 81.167969zm-111.527343-71.636719v-134.664062c43 22.425781 75.195312 60.832031 93.796875 109.667968-28.933594 15.417969-61.027344 23.96875-93.796875 24.996094zm-16-.039062c-32.738281-1.175782-64.785157-9.789063-93.703125-25.1875 18.613281-48.726563 50.703125-87.046875 93.703125-109.4375zm0 16.011718v55.664063h-112.113281c.539062-27.601563 4.902343-54.996094 12.96875-81.398437 30.710937 15.875 64.589843 24.667968 99.144531 25.734374zm-112.113281 71.664063h112.113281v55.074219c-34.574219 1.171875-68.453125 10.066406-99.144531 26.03125-8.066407-26.300782-12.433594-53.597656-12.96875-81.105469zm128.113281 71.042969c7.363281.234375 14.707031.867187 22 1.886718v118.960938c-7.089844 4.984375-14.433594 9.597656-22 13.824219zm-16 .046875v134.632812c-43-22.398437-75.097657-60.71875-93.707031-109.449219 28.921874-15.390624 60.96875-24.003906 93.707031-25.183593zm46.132812-49.089844c-4.46875.050781-8.082031 3.660156-8.132812 8.128906v26.652344c-7-.949219-15-1.527344-22-1.742187v-55.039063h111.523437c-.179687 7-.621094 15-1.308594 22zm77.867188 16h47v31l-21.09375-7.410156c-1.625-.601563-3.414063-.601563-5.039063 0l-20.867187 7.410156zm41.585937-193.898437c-12.457031 13.457031-26.597656 25.257812-42.070312 35.097656-16.171875-41.242188-41.648438-75.492188-74.800782-99.757813 42.40625 8.109375 81.378907 28.820313 111.828126 59.429688 1.71875 1.71875 3.390624 3.46875 5.042968 5.230469zm-198.882812-64.664063c-33.101563 24.222656-58.542969 58.398437-74.71875 99.542969-15.46875-9.796875-29.625-21.523438-42.132813-34.898438 1.644531-1.757812 3.3125-3.5 5.019531-5.210937 30.449219-30.609375 69.425782-51.324219 111.832032-59.433594zm-116.851563 359.898437c12.503907-13.371093 26.660157-25.101562 42.128907-34.898437 16.171874 41.144531 41.613281 75.316406 74.699218 99.539063-42.398437-8.113282-81.367187-28.824219-111.808594-59.425782-1.710937-1.71875-3.375-3.460937-5.019531-5.21875zm390.148438 84.664063h-186v-186h54v42.289063c-.109375 2.558593 1.0625 5.007812 3.128906 6.523437 2.0625 1.515625 4.75 1.898437 7.15625 1.023437l29.0625-10.214843 29.085937 10.214843c2.433594.859376 5.128907.480469 7.226563-1.019531 2.109375-1.503906 3.355469-3.9375 3.339844-6.527343v-42.289063h53zm0 0"/><path d="m323.46875 377.453125h63.53125c4.417969 0 8-3.582031 8-8s-3.582031-8-8-8h-63.53125c-4.417969 0-8 3.582031-8 8s3.582031 8 8 8zm0 0"/><path d="m323.46875 395.453125c-4.417969 0-8 3.582031-8 8s3.582031 8 8 8h96.976562c4.417969 0 8-3.582031 8-8s-3.582031-8-8-8zm0 0"/></svg>