<?xml version="1.0"?>
<svg xmlns="http://www.w3.org/2000/svg" id="Layer_1" data-name="Layer 1" viewBox="0 0 512 512" width="512" height="512"><title>Telephone2</title><path d="M446.7,113H164v-.562C164,97,151.162,84,135.723,84H80V32a8,8,0,0,0-16,0V84.471a28.3,28.3,0,0,0-27,27.967V460.027C37,475.466,49.865,488,65.305,488h70.418A28.247,28.247,0,0,0,164,460.027V460H446.7A28.414,28.414,0,0,0,475,431.859V140.6C475,125.166,462.135,113,446.7,113ZM147,460a12,12,0,0,1-12,12H65a12,12,0,0,1-12-12V112a12,12,0,0,1,12-12h70a12,12,0,0,1,12,12Zm312-28.141A12.4,12.4,0,0,1,446.7,444H164V129H446.7c6.617,0,12.305,4.989,12.305,11.6Z"/><path d="M423,164a8,8,0,0,0-8-8H207a8,8,0,0,0-8,8v44a8,8,0,0,0,8,8H415a8,8,0,0,0,8-8Zm-208,8H407v28H215Z"/><path d="M347,250a8,8,0,0,0-8-8H284a8,8,0,0,0-8,8v32a8,8,0,0,0,8,8h55a8,8,0,0,0,8-8Zm-16,24H292V258h39Z"/><path d="M265,250a8,8,0,0,0-8-8H202a8,8,0,0,0-8,8v32a8,8,0,0,0,8,8h55a8,8,0,0,0,8-8Zm-16,24H210V258h39Z"/><path d="M428,250a8,8,0,0,0-8-8H365a8,8,0,0,0-8,8v32a8,8,0,0,0,8,8h55a8,8,0,0,0,8-8Zm-15,24H373V258h40Z"/><path d="M347,313a8,8,0,0,0-8-8H284a8,8,0,0,0-8,8v32a8,8,0,0,0,8,8h55a8,8,0,0,0,8-8Zm-16,24H292V321h39Z"/><path d="M265,313a8,8,0,0,0-8-8H202a8,8,0,0,0-8,8v32a8,8,0,0,0,8,8h55a8,8,0,0,0,8-8Zm-16,24H210V321h39Z"/><path d="M428,313a8,8,0,0,0-8-8H365a8,8,0,0,0-8,8v32a8,8,0,0,0,8,8h55a8,8,0,0,0,8-8Zm-15,24H373V321h40Z"/><path d="M347,376a8,8,0,0,0-8-8H284a8,8,0,0,0-8,8v32a8,8,0,0,0,8,8h55a8,8,0,0,0,8-8Zm-16,24H292V384h39Z"/><path d="M265,376a8,8,0,0,0-8-8H202a8,8,0,0,0-8,8v32a8,8,0,0,0,8,8h55a8,8,0,0,0,8-8Zm-16,24H210V384h39Z"/><path d="M428,376a8,8,0,0,0-8-8H365a8,8,0,0,0-8,8v32a8,8,0,0,0,8,8h55a8,8,0,0,0,8-8Zm-15,24H373V384h40Z"/></svg>
