<?xml version="1.0"?>
<svg xmlns="http://www.w3.org/2000/svg" id="Layer_1" data-name="Layer 1" viewBox="0 0 512 512" width="512" height="512"><title>Television</title><path d="M482.962,123H329.6l71-69.608a8.009,8.009,0,0,0-11.2-11.453l-77.2,75.644L292.135,78.028a8.007,8.007,0,1,0-14.27,7.269L296.972,123H29.038A7.975,7.975,0,0,0,21,130.932V464.356A7.737,7.737,0,0,0,29.038,472H482.962A7.737,7.737,0,0,0,491,464.356V130.932A7.975,7.975,0,0,0,482.962,123ZM475,456H37V139H475Z"/><path d="M360,204a28,28,0,0,0-28-28H98a28,28,0,0,0-28,28V391a28,28,0,0,0,28,28H332a28,28,0,0,0,28-28ZM344,391a12,12,0,0,1-12,12H98a12,12,0,0,1-12-12V204a12,12,0,0,1,12-12H332a12,12,0,0,1,12,12Z"/><path d="M417.447,332.552a34.908,34.908,0,1,0-34.908-34.908A34.948,34.948,0,0,0,417.447,332.552Zm0-53.816a18.908,18.908,0,1,1-18.908,18.908A18.929,18.929,0,0,1,417.447,278.736Z"/><path d="M417.447,414.445a34.908,34.908,0,1,0-34.908-34.907A34.947,34.947,0,0,0,417.447,414.445Zm0-53.815a18.908,18.908,0,1,1-18.908,18.908A18.929,18.929,0,0,1,417.447,360.63Z"/></svg>
