<svg height="492pt" viewBox="0 -97 492 492" width="492pt" xmlns="http://www.w3.org/2000/svg"><path d="m444.792969 0h-128.792969c-4.429688.0273438-8.003906 3.625-8 8.054688v141.945312h-299.792969c-4.46875.011719-8.113281 3.585938-8.207031 8.054688v79.652343c.0742188 4.515625 3.691406 8.171875 8.207031 8.292969h29.175781c2.167969 29.46875 26.710938 52.265625 56.257813 52.265625s54.089844-22.796875 56.257813-52.265625h39.847656c2.191406 29.453125 26.726562 52.234375 56.257812 52.234375 29.535156 0 54.070313-22.78125 56.257813-52.234375h39.847656c2.1875 29.453125 26.722656 52.234375 56.257813 52.234375 29.535156 0 54.070312-22.78125 56.257812-52.234375h29.175781c4.511719-.125 8.125-3.777344 8.199219-8.292969v-190.652343c-.121094-25.996094-21.210938-47.0156255-47.207031-47.054688zm31.207031 47.054688v42.945312h-57.667969c-1.160156.042969-2.167969-.796875-2.332031-1.945312v-72.054688h28.792969c17.164062.027344 31.09375 13.890625 31.207031 31.054688zm-76-31.054688v72.054688c0 9.925781 8.40625 17.945312 18.332031 17.945312h57.667969v44h-152v-134zm-306.363281 265.945312c-22.328125 0-40.429688-18.101562-40.429688-40.429687s18.101563-40.429687 40.429688-40.429687 40.429687 18.101562 40.429687 40.429687c-.023437 22.320313-18.109375 40.40625-40.429687 40.429687zm152.363281 0c-22.328125 0-40.429688-18.101562-40.429688-40.429687s18.101563-40.429687 40.429688-40.429687 40.429688 18.101562 40.429688 40.429687c-.027344 22.320313-18.113282 40.40625-40.429688 40.429687zm152.363281 0c-22.332031 0-40.433593-18.101562-40.433593-40.429687s18.101562-40.429687 40.433593-40.429687c22.328125 0 40.429688 18.101562 40.425781 40.429687-.023437 22.320313-18.109374 40.40625-40.425781 40.429687zm55.175781-51.945312c-5.570312-26.023438-28.5625-44.621094-55.175781-44.621094s-49.609375 18.597656-55.179687 44.621094h-42.007813c-5.566406-26.023438-28.5625-44.621094-55.175781-44.621094s-49.609375 18.597656-55.175781 44.621094h-42.007813c-5.570312-26.023438-28.566406-44.621094-55.179687-44.621094s-49.605469 18.597656-55.175781 44.621094h-22.460938v-64h460v64zm0 0"/><path d="m246 215.226562c-14.519531 0-26.289062 11.769532-26.289062 26.289063s11.769531 26.292969 26.289062 26.292969 26.289062-11.773438 26.289062-26.292969c-.015624-14.511719-11.777343-26.273437-26.289062-26.289063zm0 36.578126c-5.683594 0-10.292969-4.605469-10.289062-10.289063 0-5.683594 4.605468-10.292969 10.289062-10.292969s10.292969 4.609375 10.289062 10.292969c-.003906 5.679687-4.609374 10.285156-10.289062 10.289063zm0 0"/><path d="m398.363281 215.226562c-14.519531 0-26.292969 11.769532-26.292969 26.289063s11.773438 26.292969 26.292969 26.292969 26.289063-11.773438 26.289063-26.292969c-.015625-14.511719-11.777344-26.273437-26.289063-26.289063zm0 36.578126c-5.683593 0-10.292969-4.605469-10.292969-10.289063s4.609376-10.292969 10.292969-10.292969c5.683594 0 10.289063 4.609375 10.289063 10.292969-.003906 5.679687-4.609375 10.285156-10.289063 10.289063zm0 0"/><path d="m93.636719 215.226562c-14.519531-.003906-26.289063 11.769532-26.289063 26.289063-.003906 14.519531 11.769532 26.292969 26.289063 26.292969s26.292969-11.773438 26.292969-26.292969c-.019532-14.511719-11.777344-26.273437-26.292969-26.289063zm0 36.578126c-5.683594 0-10.289063-4.605469-10.289063-10.289063s4.605469-10.292969 10.289063-10.292969c5.683593 0 10.292969 4.609375 10.292969 10.292969-.007813 5.679687-4.609376 10.285156-10.292969 10.289063zm0 0"/></svg>