<?xml version="1.0"?>
<svg xmlns="http://www.w3.org/2000/svg" id="Layer_1" data-name="Layer 1" viewBox="0 0 512 512" width="512" height="512"><title>Computer</title><path d="M95.746,501H287.483C303.038,501,316,487.861,316,472.306V403.458A28.72,28.72,0,0,0,287.483,375H198V348.491a25.519,25.519,0,0,0-25.5-25.432A13.505,13.505,0,0,1,159,309.625V282H301v17a26.029,26.029,0,0,0,26,26h59a14.015,14.015,0,0,1,14,14v33.628a36.073,36.073,0,0,0-29,35.308v42.726C371,470.512,387.167,487,407.018,487h1.445C428.313,487,444,470.512,444,450.662V407.936a35.649,35.649,0,0,0-32-35.824V339a26.029,26.029,0,0,0-26-26H327a14.015,14.015,0,0,1-14-14V282h29.118c3.314,0,5.882-3.081,5.882-6.395V235h40.253A5.559,5.559,0,0,0,394,229.276V17.485c0-3.314-2.434-6.485-5.747-6.485H75.627C72.313,11,70,14.171,70,17.485V229.276A5.462,5.462,0,0,0,75.627,235H116v40.605c0,3.314,2.448,6.395,5.762,6.395H147v27.625a25.52,25.52,0,0,0,25.5,25.434A13.5,13.5,0,0,1,186,348.491V375H95.746C80.191,375,68,387.9,68,403.458v68.848C68,487.861,80.191,501,95.746,501Zm312.717-26h-1.445C393.784,475,383,463.9,383,450.662V420h49v30.662C432,463.9,421.7,475,408.463,475ZM432,407.936V408H383v-.064A23.987,23.987,0,0,1,407.018,384h1.445A23.581,23.581,0,0,1,432,407.936ZM82,23H382V223H82Zm46,212H336v35H128ZM304,471.791A16.209,16.209,0,0,1,287.791,488H96.209A16.209,16.209,0,0,1,80,471.791V403.209A16.209,16.209,0,0,1,96.209,387H287.791A16.209,16.209,0,0,1,304,403.209Z"/><path d="M186,443h11a6,6,0,0,0,0-12H186a6,6,0,0,0,0,12Z"/><path d="M228,443h11a6,6,0,0,0,0-12H228a6,6,0,0,0,0,12Z"/><path d="M270,443h11a6,6,0,0,0,0-12H270a6,6,0,0,0,0,12Z"/><path d="M143,443h11a6,6,0,0,0,0-12H143a6,6,0,0,0,0,12Z"/><path d="M101,443h11a6,6,0,0,0,0-12H101a6,6,0,0,0,0,12Z"/><path d="M186,421h11a6,6,0,0,0,0-12H186a6,6,0,0,0,0,12Z"/><path d="M228,421h11a6,6,0,0,0,0-12H228a6,6,0,0,0,0,12Z"/><path d="M270,421h11a6,6,0,0,0,0-12H270a6,6,0,0,0,0,12Z"/><path d="M143,421h11a6,6,0,0,0,0-12H143a6,6,0,0,0,0,12Z"/><path d="M101,421h11a6,6,0,0,0,0-12H101a6,6,0,0,0,0,12Z"/><path d="M228,466h11a6,6,0,0,0,0-12H228a6,6,0,0,0,0,12Z"/><path d="M270,466h11a6,6,0,0,0,0-12H270a6,6,0,0,0,0,12Z"/><path d="M143,466h54a6,6,0,0,0,0-12H143a6,6,0,0,0,0,12Z"/><path d="M101,466h11a6,6,0,0,0,0-12H101a6,6,0,0,0,0,12Z"/><path d="M360,53a6,6,0,0,0-6-6H111a6,6,0,0,0-6,6V195a6,6,0,0,0,6,6H354a6,6,0,0,0,6-6ZM347,188H117V59H347Z"/></svg>
