<svg height="476pt" viewBox="0 -24 476 476" width="476pt" xmlns="http://www.w3.org/2000/svg"><path d="m469.890625 204h-27.890625v-165.011719c.089844-10.304687-3.945312-20.222656-11.199219-27.542969-7.257812-7.320312-17.136719-11.44140575-27.441406-11.445312h-364.144531c-21.585938-.0390625-39.1289065 17.402344-39.214844 38.988281v249.1875c.101562 21.554688 17.664062 38.941407 39.214844 38.824219h214.785156v95.113281c.101562 3.328125 2.863281 5.953125 6.195312 5.886719h152.445313c1.007813.109375 2.019531-.117188 2.878906-.648438.015625-.007812.027344 0 .042969-.011718.15625-.085938.304688-.171875.453125-.273438.058594-.039062.117187-.082031.175781-.125.097656-.074218.199219-.140625.289063-.21875.070312-.058594.128906-.117187.195312-.175781.082031-.074219.164063-.148437.238281-.226563l.039063-.035156 57.246094-59.152344c.015625-.015624.027343-.035156.039062-.050781.246094-.257812.46875-.535156.664063-.832031.015625-.023438.03125-.046875.042968-.070312.195313-.300782.363282-.621094.5-.953126.007813-.015624.011719-.035156.019532-.050781.136718-.339843.242187-.691406.3125-1.050781 0-.015625.058594-.027344.0625-.042969.089844-.367187.140625-.742187.160156-1.121093v-152.6875c-.03125-3.386719-2.722656-6.152344-6.109375-6.273438zm-430.675781-192h364.144531c9.332031-.019531 18.019531 4.777344 22.976563 12.683594l-192.371094 125.535156c-9.132813 5.988281-20.976563 5.894531-30.015625-.238281l-187.242188-126.007813c5.035157-7.5 13.476563-11.988281 22.507813-11.972656zm0 303c-7.167969.058594-14.066406-2.734375-19.171875-7.765625-5.105469-5.035156-8-11.890625-8.042969-19.058594v-249.1875c.019531-1.1875.113281-2.375.289062-3.550781l184.921876 124.480469c13.046874 8.832031 30.125 8.957031 43.300781.316406l189.589843-123.886719c.082032.871094-.101562 1.75-.101562 2.640625v165.011719h-169.804688c-3.40625.113281-6.125 2.871094-6.195312 6.273438v104.726562zm226.785156-99h198v141h-51.359375c-1.550781.003906-3.03125.644531-4.09375 1.773438-1.066406 1.125-1.625 2.636718-1.546875 4.1875v53.039062h-141zm189.730469 153-36.730469 38.285156v-38.285156zm0 0"/><path d="m363.285156 307.972656c-10.976562.003906-19.878906-8.898437-19.878906-19.878906s8.902344-19.878906 19.882812-19.878906c10.980469.003906 19.878907 8.90625 19.875 19.886718 0 3.3125 2.6875 6 6 6 3.316407 0 6-2.6875 6-6-.019531-15.394531-11.023437-28.585937-26.164062-31.363281v-8.738281c0-3.3125-2.6875-6-6-6s-6 2.6875-6 6v8.84375c-16.0625 3.230469-27.058594 18.109375-25.4375 34.410156 1.625 16.300782 15.339844 28.71875 31.722656 28.71875 10.980469.003906 19.878906 8.902344 19.878906 19.878906 0 10.980469-8.898437 19.878907-19.878906 19.878907-10.976562 0-19.875-8.898438-19.878906-19.878907 0-3.3125-2.683594-6-6-6-3.3125 0-6 2.6875-6 6 .023438 15.175782 10.71875 28.242188 25.59375 31.253907v10.894531c0 3.3125 2.6875 6 6 6s6-2.6875 6-6v-10.792969c16.226562-2.953125 27.519531-17.800781 26.035156-34.226562s-15.253906-29.007813-31.75-29.007813zm0 0"/></svg>