<svg height="394pt" viewBox="-9 0 394 394" width="394pt" xmlns="http://www.w3.org/2000/svg"><path d="m345.882812 0h-315.761718c-16.78125 0-30.11718775 14.019531-30.11718775 31.355469v157.457031c-.17578125 12.695312 7.34765575 24.234375 19.03124975 29.199219l69.992188 134.902343c.035156.070313.03125.097657.070312.164063 14.101563 25.269531 40.769532 40.925781 69.707032 40.921875h85.125c44.054687-.097656 79.746093-35.789062 79.84375-79.84375.027343-26.992188.054687-60.15625.074218-94.15625h22.035156c16.785157 0 30.121094-13.847656 30.121094-31.1875v-157.457031c0-17.335938-13.335937-31.355469-30.121094-31.355469zm14.121094 31.355469v35.644531h-8.023437c-23.175781 0-41.976563-20.117188-41.976563-44.523438v-6.476562h35.878906c7.964844 0 14.121094 6.84375 14.121094 15.355469zm-66 172.644531h-196.867187l-7.65625-8.570312c-2.425781-2.730469-5.164063-5.167969-8.15625-7.261719-1.976563-13.265625-8.242188-25.515625-17.839844-34.878907-10.539063-10.347656-24.691406-16.191406-39.457031-16.289062h-8.023438v-54h8.023438c32 0 57.976562-26.914062 57.976562-60.140625v-6.859375h212v6.476562c0 33.222657 25.980469 60.523438 57.976563 60.523438h8.023437v54h-8.023437c-32 0-57.976563 27.46875-57.976563 60.695312zm-276.792968-8.625c-.851563-2.082031-1.261719-4.316406-1.207032-6.5625v-35.8125h8.023438c17.078125 0 32.132812 11.300781 38.625 27.121094-14.097656-2.65625-28.636719 1.207031-39.550782 10.515625zm12.910156-179.375h35.882812v6.859375c0 24.40625-18.800781 44.140625-41.976562 44.140625h-8.023438v-35.644531c0-8.511719 6.15625-15.355469 14.117188-15.355469zm277.652344 298.140625c-.078126 35.230469-28.613282 63.773437-63.84375 63.859375h-85.125c-23.105469.007812-44.410157-12.464844-55.714844-32.613281l-72.769532-140.074219 2.652344-2.042969c.105469-.082031.207032-.160156.308594-.246093 13.117188-11.171876 32.757812-9.792969 44.1875 3.097656l21.238281 24.140625c2.199219 2.496093 5.714844 3.375 8.828125 2.199219 3.128906-1.230469 5.179688-4.25 5.179688-7.609376v-4.855468h195.128906c-.015625 34.003906-.039062 67.15625-.070312 94.144531zm38.109374-110.140625h-35.878906v-6.304688c0-24.402343 18.800782-44.695312 41.976563-44.695312h8.023437v35.8125c0 8.515625-6.15625 15.1875-14.121094 15.1875zm0 0"/><path d="m228.144531 158.554688-6.449219 1.976562c-7.136718 2.207031-14.855468 1.527344-21.5-1.886719-7.910156-4.058593-16.855468-5.660156-25.683593-4.589843l-1.125.132812c2.871093-5.894531 4.613281-12.277344 5.128906-18.816406l.023437-.292969c.390626-5.015625.492188-10.050781.300782-15.078125h21.164062c4.417969 0 8-3.582031 8-8s-3.582031-8-8-8h-22.777344c-.535156-3.246094-1.179687-6.5-1.964843-9.734375-1.296875-4.980469-2.011719-10.09375-2.132813-15.238281-.007812-2.722656.5-5.421875 1.5-7.953125.960938-2.460938 2.398438-4.707031 4.238282-6.605469 1.894531-1.945312 4.171874-3.476562 6.691406-4.496094 2.75-1.121094 5.695312-1.675781 8.664062-1.636718 11.371094 0 17.921875 4.863281 20.023438 14.867187.578125 2.804687 2.613281 5.085937 5.335937 5.980469 2.722657.894531 5.714844.265625 7.84375-1.648438 2.132813-1.914062 3.078125-4.820312 2.476563-7.621094-3.679688-17.527343-16.683594-27.578124-35.679688-27.578124-5.101562-.042969-10.160156.941406-14.875 2.890624-8.96875 3.695313-16.039062 10.890626-19.578125 19.921876-1.753906 4.414062-2.648437 9.125-2.640625 13.878906.117188 6.410156.984375 12.789062 2.582032 19 .480468 1.984375.890624 3.980468 1.265624 5.972656h-19.972656c-4.417968 0-8 3.582031-8 8s3.582032 8 8 8h21.808594c.207031 4.605469.128906 9.21875-.226562 13.816406l-.023438.292969c-.53125 6.730469-2.925781 13.179687-6.914062 18.628906l-4.925782 6.722657c-1.882812 2.570312-2.058594 6.011718-.453125 8.761718 1.609375 2.75 4.695313 4.285156 7.859375 3.90625l18.28125-2.1875c5.671875-.6875 11.417969.339844 16.5 2.945313 10.347656 5.320312 22.367188 6.375 33.480469 2.941406l6.449219-1.976563c4.226562-1.296874 6.601562-5.769531 5.304687-9.996093-1.292969-4.222657-5.769531-6.597657-9.996093-5.304688zm0 0"/></svg>