<svg height="452pt" viewBox="0 -19 452 452" width="452pt" xmlns="http://www.w3.org/2000/svg"><path d="m322 35c0-3.3125-2.6875-6-6-6h-290c-3.3125 0-6 2.6875-6 6v30c0 3.3125 2.6875 6 6 6h290c3.3125 0 6-2.6875 6-6zm-290 6h278v18h-278zm0 0"/><path d="m452 26c0-14.359375-11.640625-26-26-26h-400c-14.359375 0-26 11.640625-26 26v361c0 14.359375 11.640625 26 26 26h400c14.359375 0 26-11.640625 26-26zm-426.199219-14h400.398438c3.644531-.085938 7.171875 1.308594 9.769531 3.867188 2.601562 2.554687 4.054688 6.054687 4.03125 9.703124v64.429688h-428v-64.429688c-.023438-3.648437 1.429688-7.148437 4.03125-9.703124 2.597656-2.558594 6.125-3.953126 9.769531-3.867188zm400.398438 388h-400.398438c-3.644531.085938-7.171875-1.308594-9.769531-3.867188-2.601562-2.554687-4.054688-6.054687-4.03125-9.703124v-284.429688h428v284.429688c.023438 3.648437-1.429688 7.148437-4.03125 9.703124-2.597656 2.558594-6.125 3.953126-9.769531 3.867188zm0 0"/><path d="m432 35c0-3.3125-2.6875-6-6-6h-30c-3.3125 0-6 2.6875-6 6v30c0 3.3125 2.6875 6 6 6h30c3.3125 0 6-2.6875 6-6zm-30 6h18v18h-18zm0 0"/><path d="m380 35c0-3.3125-2.6875-6-6-6h-30c-3.3125 0-6 2.6875-6 6v30c0 3.3125 2.6875 6 6 6h30c3.3125 0 6-2.6875 6-6zm-30 6h18v18h-18zm0 0"/><path d="m249 201h82c3.3125 0 6-2.6875 6-6s-2.6875-6-6-6h-82c-3.3125 0-6 2.6875-6 6s2.6875 6 6 6zm0 0"/><path d="m391 219h-142c-3.3125 0-6 2.6875-6 6s2.6875 6 6 6h142c3.3125 0 6-2.6875 6-6s-2.6875-6-6-6zm0 0"/><path d="m391 249h-142c-3.3125 0-6 2.6875-6 6s2.6875 6 6 6h142c3.3125 0 6-2.6875 6-6s-2.6875-6-6-6zm0 0"/><path d="m391 279h-142c-3.3125 0-6 2.6875-6 6s2.6875 6 6 6h142c3.3125 0 6-2.6875 6-6s-2.6875-6-6-6zm0 0"/><path d="m391 309h-142c-3.3125 0-6 2.6875-6 6s2.6875 6 6 6h142c3.3125 0 6-2.6875 6-6s-2.6875-6-6-6zm0 0"/><path d="m175.210938 253h-79.4375c-11.542969-.070312-22.574219 4.765625-30.347657 13.296875-7.773437 8.53125-11.5625 19.960937-10.425781 31.445313v56.1875c-.070312 1.566406.496094 3.09375 1.570312 4.238281 1.070313 1.144531 2.5625 1.804687 4.128907 1.832031h149.574219c1.570312-.027344 3.0625-.6875 4.140624-1.832031 1.078126-1.140625 1.648438-2.667969 1.585938-4.238281v-56.183594c1.132812-11.488282-2.660156-22.917969-10.4375-31.449219s-18.808594-13.363281-30.351562-13.296875zm-43.160157 31h6.941407l6.582031 36.519531-9.960938 9.097657-9.300781-9.078126zm6.765625-12h-6.660156l-1.875-7h10.410156zm65.351563 24.847656c-.019531.199219-.167969.398438-.167969.605469v50.546875h-137v-50.546875c0-.199219-.160156-.398437-.183594-.605469-.851562-8.175781 1.820313-16.324218 7.347656-22.40625 5.527344-6.082031 13.390626-9.515625 21.609376-9.441406h22.15625l3.085937 12.5c0 .03125-.015625-.027344-.023437 0l-6.988282 44.324219c-.378906 1.984375.277344 4.027343 1.734375 5.421875l15.585938 14.988281c2.273437 2.1875 5.851562 2.238281 8.1875.121094l16.585937-15c1.539063-1.390625 2.246094-3.480469 1.878906-5.519531l-8.042968-44.238282 3.109375-12.601562h22.167969c8.214843-.074219 16.078124 3.359375 21.605468 9.441406 5.53125 6.082031 8.203125 14.230469 7.351563 22.40625zm0 0"/><path d="m134 249.789062c22.054688-.015624 39.941406-17.871093 40-39.925781v-33.792969c.046875-6.875-2.644531-13.488281-7.480469-18.378906-4.835937-4.890625-11.417969-7.65625-18.292969-7.691406h-27.855468c-14.335938 0-26.371094 11.734375-26.371094 26.070312v33.792969c.058594 22.054688 17.945312 39.910157 40 39.925781zm0-12c-15.429688-.007812-27.949219-12.492187-28-27.925781v-19.261719c9-.25 15.6875-3.449218 21.699219-9.355468 3.273437 3.546875 7.183593 6.445312 11.527343 8.550781 4.402344 2.121094 9.226563 3.214844 14.113282 3.203125 2.917968-.015625 5.824218-.367188 8.660156-1.046875v17.914063c-.054688 15.429687-12.570312 27.914062-28 27.921874zm28-61.71875v3.429688c-5.707031 2.148438-12.03125 1.949219-17.59375-.554688-7.472656-3.535156-12.273438-10.949218-15.109375-16.949218h18.929687c3.695313.03125 7.226563 1.53125 9.8125 4.171875 2.585938 2.644531 4.011719 6.207031 3.960938 9.902343zm-45.761719-13.421874c1.175781 3.023437 2.570313 5.957031 4.175781 8.777343-4.007812 4.511719-8.414062 6.914063-14.414062 7.175781v-2.53125c.089844-6.238281 4.246094-11.6875 10.238281-13.421874zm0 0"/></svg>