<svg height="492pt" viewBox="0 -37 492.30844 492" width="492pt" xmlns="http://www.w3.org/2000/svg"><path d="m448.726562 159.699219c-1.4375-2.445313-4.0625-3.945313-6.894531-3.945313-2.835937 0-5.457031 1.5-6.894531 3.945313l-42.480469 72.191406c-1.457031 2.507813-1.472656 5.597656-.050781 8.125 1.414062 2.511719 4.058594 4.085937 6.941406 4.125h32.140625c-7.078125 44-30.492187 84.390625-66.484375 113.722656-34.589844 28.1875-78.039062 44.308594-119.214844 44.308594-26.851562 0-54.929687-6.90625-81.199218-19.925781-26.992188-13.316406-50.621094-32.574219-69.101563-56.332032-1.710937-2.347656-4.566406-3.585937-7.453125-3.226562-2.882812.359375-5.347656 2.257812-6.433594 4.957031-1.082031 2.699219-.617187 5.773438 1.214844 8.027344 19.96875 25.679687 45.496094 46.496094 74.667969 60.886719 28.464844 14.109375 59 21.566406 88.304687 21.566406 44.792969 0 91.929688-17.382812 129.320313-47.859375 39.746094-32.386719 65.375-77.125 72.578125-126.125h36.625c2.882812-.046875 5.527344-1.613281 6.945312-4.125 1.417969-2.511719 1.398438-5.585937-.050781-8.078125zm-35.386718 68.441406 28.492187-48.421875 28.492188 48.421875zm0 0"/><path d="m99.910156 178.261719c-1.414062-2.511719-4.0625-4.085938-6.945312-4.121094h-32.140625c7.078125-44 30.492187-84.390625 66.488281-113.726563 34.585938-28.1875 78.039062-44.308593 119.210938-44.308593 26.851562 0 54.929687 6.90625 81.199218 19.929687 26.996094 13.3125 50.621094 32.570313 69.101563 56.328125 1.710937 2.351563 4.566406 3.585938 7.453125 3.226563 2.886718-.359375 5.347656-2.257813 6.433594-4.953125 1.085937-2.699219.621093-5.773438-1.214844-8.03125-19.96875-25.675781-45.496094-46.492188-74.664063-60.886719-28.46875-14.109375-59-21.566406-88.308593-21.566406-44.792969 0-91.929688 17.386718-129.320313 47.859375-39.746094 32.390625-65.375 77.128906-72.574219 126.128906h-36.628906c-2.882812.039063-5.527344 1.609375-6.949219 4.121094-1.417969 2.507812-1.398437 5.585937.050781 8.078125l42.480469 72.21875c1.433594 2.445312 4.054688 3.945312 6.890625 3.949218 2.835938.003907 5.460938-1.492187 6.898438-3.933593l42.484375-72.234375c1.457031-2.492188 1.476562-5.566406.054687-8.078125zm-49.425781 60.296875-28.496094-48.417969h56.988281zm0 0"/><path d="m336.15625 127.140625c0-4.417969-3.582031-8-8-8h-164c-4.417969 0-8 3.582031-8 8v164c0 4.417969 3.582031 8 8 8h164c4.417969 0 8-3.582031 8-8zm-108 8h36v21.3125l-15.246094-5.3125c-1.769531-.601563-3.6875-.601563-5.453125 0l-15.300781 5.3125zm92 148h-148v-148h40v32.597656c.050781 2.609375 1.34375 5.035157 3.480469 6.527344s4.859375 1.875 7.324219 1.023437l23.167968-8.121093 23.15625 8.121093c.851563.296876 1.75.449219 2.65625.449219 1.691406 0 3.339844-.511719 4.734375-1.472656 2.144531-1.488281 3.4375-3.917969 3.480469-6.527344v-32.597656h40zm0 0"/><path d="m206.792969 215.140625h51.578125c4.417968 0 8-3.582031 8-8s-3.582032-8-8-8h-51.578125c-4.417969 0-8 3.582031-8 8s3.582031 8 8 8zm0 0"/><path d="m206.792969 227.140625c-4.417969 0-8 3.582031-8 8s3.582031 8 8 8h78.730469c4.417968 0 8-3.582031 8-8s-3.582032-8-8-8zm0 0"/></svg>