<?xml version="1.0" encoding="iso-8859-1"?>
<!-- Generator: Adobe Illustrator 19.0.0, SVG Export Plug-In . SVG Version: 6.00 Build 0)  -->
<svg version="1.1" id="Capa_1" xmlns="http://www.w3.org/2000/svg" xmlns:xlink="http://www.w3.org/1999/xlink" x="0px" y="0px"
	 viewBox="0 0 512 512" style="enable-background:new 0 0 512 512;" xml:space="preserve">
<g>
	<g>
		<path d="M185.925,83.923C83.406,83.923,0,167.33,0,269.848s83.406,185.925,185.925,185.925S371.85,372.367,371.85,269.848
			S288.444,83.923,185.925,83.923z M185.925,421.866c-83.824,0-152.018-68.193-152.018-152.018S102.1,117.831,185.925,117.831
			c83.819,0,152.018,68.193,152.018,152.018S269.749,421.866,185.925,421.866z"/>
	</g>
</g>
<g>
	<g>
		<path d="M185.925,129.133c-28.041,0-50.861,22.82-50.861,50.861s22.82,50.861,50.861,50.861s50.861-22.82,50.861-50.861
			S213.966,129.133,185.925,129.133z M185.925,196.948c-9.347,0-16.954-7.607-16.954-16.954s7.607-16.954,16.954-16.954
			s16.954,7.607,16.954,16.954S195.272,196.948,185.925,196.948z"/>
	</g>
</g>
<g>
	<g>
		<path d="M185.925,309.407c-28.041,0-50.861,22.814-50.861,50.861c0,28.047,22.82,50.861,50.861,50.861
			s50.861-22.814,50.861-50.861S213.966,309.407,185.925,309.407z M185.925,377.221c-9.347,0-16.954-7.607-16.954-16.954
			s7.607-16.954,16.954-16.954s16.954,7.607,16.954,16.954S195.272,377.221,185.925,377.221z"/>
	</g>
</g>
<g>
	<g>
		<path d="M185.925,241.592c-15.58,0-28.256,12.676-28.256,28.256s12.676,28.256,28.256,28.256c15.58,0,28.256-12.676,28.256-28.256
			S201.505,241.592,185.925,241.592z M185.925,275.5c-3.114,0-5.651-2.532-5.651-5.651s2.537-5.651,5.651-5.651
			c3.114,0,5.651,2.532,5.651,5.651S189.039,275.5,185.925,275.5z"/>
	</g>
</g>
<g>
	<g>
		<path d="M275.779,218.987c-28.041,0-50.861,22.82-50.861,50.861c0,28.047,22.82,50.861,50.861,50.861
			c28.047,0,50.861-22.82,50.861-50.861S303.826,218.987,275.779,218.987z M275.779,286.802c-9.347,0-16.954-7.607-16.954-16.954
			s7.607-16.954,16.954-16.954s16.954,7.607,16.954,16.954S285.126,286.802,275.779,286.802z"/>
	</g>
</g>
<g>
	<g>
		<path d="M95.505,218.987c-28.041,0-50.861,22.82-50.861,50.861c0,28.047,22.82,50.861,50.861,50.861s50.861-22.82,50.861-50.861
			S123.547,218.987,95.505,218.987z M95.505,286.802c-9.347,0-16.954-7.607-16.954-16.954s7.607-16.954,16.954-16.954
			c9.347,0,16.954,7.607,16.954,16.954S104.853,286.802,95.505,286.802z"/>
	</g>
</g>
<g>
	<g>
		<path d="M495.046,56.227h-9.607c-42.463,0-75.726,33.263-75.726,75.726v173.492c0,64.198-52.229,116.421-116.415,116.421H185.925
			c-9.364,0-16.954,7.59-16.954,16.954c0,9.364,7.59,16.954,16.954,16.954h107.373c82.886,0,150.322-67.436,150.322-150.328V131.953
			c0-23.453,18.372-41.819,41.819-41.819h9.607c9.364,0,16.954-7.59,16.954-16.954C512,63.816,504.41,56.227,495.046,56.227z"/>
	</g>
</g>
<g>
</g>
<g>
</g>
<g>
</g>
<g>
</g>
<g>
</g>
<g>
</g>
<g>
</g>
<g>
</g>
<g>
</g>
<g>
</g>
<g>
</g>
<g>
</g>
<g>
</g>
<g>
</g>
<g>
</g>
</svg>
