<svg id="Layer_1" height="512" viewBox="0 0 512 512" width="512" xmlns="http://www.w3.org/2000/svg" data-name="Layer 1"><path d="m415.48 288.8c-3.719-59.388-43.85-109.147-99.19-130.456l62.026-107.944a17.286 17.286 0 0 0 -1.057-19.031 19.148 19.148 0 0 0 -19.541-7.253l-20.1 4.342a339.56 339.56 0 0 1 -125.876 3.352l-59.487-9.553a18.931 18.931 0 0 0 -18.785 7.827 17.327 17.327 0 0 0 -.821 18.589l61.969 110.1c-54.77 21.54-94.4 71.029-98.1 130.027l-7.738 123.638a73 73 0 0 0 72.857 77.562h188.726a73 73 0 0 0 72.857-77.561zm-272.4-246.05a5.259 5.259 0 0 1 .257-5.839 7.012 7.012 0 0 1 7.012-2.8l59.487 9.554a351.579 351.579 0 0 0 130.306-3.47l20.1-4.342a7.044 7.044 0 0 1 7.318 2.6 5.25 5.25 0 0 1 .342 5.973l-63.173 109.95a169.255 169.255 0 0 0 -98.615.353zm251.743 416.015a60.415 60.415 0 0 1 -44.46 19.235h-188.726a61 61 0 0 1 -60.881-64.812l7.743-123.64c4.575-73.087 69.362-130.338 147.512-130.338 78.13 0 142.916 57.251 147.493 130.338l7.74 123.641a60.413 60.413 0 0 1 -16.421 45.576z"/><path d="m255 252a6 6 0 0 0 6-6v-28a6 6 0 0 0 -12 0v28a6 6 0 0 0 6 6z"/><path d="m366.805 263.278-20.023 20.022a6 6 0 0 0 8.486 8.486l20.022-20.023a6 6 0 1 0 -8.485-8.485z"/><path d="m144.7 263.615a6 6 0 1 0 -8.485 8.486l20.022 20.022a6 6 0 0 0 8.486-8.485z"/><path d="m195.04 262.732a6 6 0 1 0 10.948-4.913l-11.588-25.834a6 6 0 1 0 -10.948 4.913z"/><path d="m301.279 262.886a5.994 5.994 0 0 0 7.742-3.474l10.069-26.465a6 6 0 1 0 -11.215-4.268l-10.07 26.466a6 6 0 0 0 3.474 7.741z"/><path d="m330 419h-19.6a77.93 77.93 0 1 0 -108.909 0h-20.491a6 6 0 0 0 0 12h149a6 6 0 0 0 0-12zm-139.984-55.8a65.933 65.933 0 1 1 101.064 55.8h-32.766a5.993 5.993 0 0 0 2.686-5v-5.68a24.629 24.629 0 0 0 -5.051-48.735 12.629 12.629 0 1 1 12.629-12.628 6 6 0 0 0 12 0 24.668 24.668 0 0 0 -19.578-24.106v-4.851a6 6 0 0 0 -12 0v5.332a24.627 24.627 0 0 0 6.949 48.253 12.629 12.629 0 1 1 -12.629 12.629 6 6 0 0 0 -12 0 24.67 24.67 0 0 0 17.68 23.624v6.162a5.993 5.993 0 0 0 2.686 5h-30.867a65.53 65.53 0 0 1 -30.803-55.8z"/></svg>