<svg height="498pt" viewBox="-121 0 498 498.24569" width="498pt" xmlns="http://www.w3.org/2000/svg"><path d="m128.371094 175.65625c-22 0-39.832032 17.832031-39.828125 39.828125 0 22 17.832031 39.832031 39.828125 39.828125 21.996094 0 39.828125-17.832031 39.828125-39.828125-.027344-21.988281-17.84375-39.804687-39.828125-39.828125zm0 65.65625c-14.265625 0-25.828125-11.5625-25.828125-25.828125s11.5625-25.828125 25.828125-25.828125 25.828125 11.5625 25.828125 25.828125c-.015625 14.257813-11.570313 25.8125-25.828125 25.828125zm0 0"/><path d="m128.371094 77.0625c-21.996094 0-39.828125 17.832031-39.828125 39.828125 0 22 17.832031 39.832031 39.828125 39.832031s39.828125-17.832031 39.828125-39.832031c-.023438-21.984375-17.84375-39.800781-39.828125-39.828125zm0 65.660156c-14.265625 0-25.828125-11.566406-25.828125-25.832031 0-14.261719 11.5625-25.828125 25.828125-25.828125s25.828125 11.566406 25.828125 25.828125c-.015625 14.261719-11.570313 25.816406-25.828125 25.832031zm0 0"/><path d="m128.371094 274.246094c-22 0-39.832032 17.832031-39.832032 39.832031 0 21.996094 17.832032 39.828125 39.832032 39.828125 21.996094 0 39.828125-17.832031 39.828125-39.828125-.023438-21.988281-17.84375-39.804687-39.828125-39.832031zm0 65.660156c-14.265625 0-25.832032-11.5625-25.832032-25.828125s11.5625-25.832031 25.828126-25.832031c14.265624 0 25.832031 11.566406 25.832031 25.832031-.015625 14.257813-11.570313 25.8125-25.828125 25.828125zm0 0"/><path d="m254.933594 93.179688c1.804687-2.128907 2.226562-5.105469 1.085937-7.652344-1.140625-2.550782-3.644531-4.214844-6.433593-4.285156h-48.214844v-22.609376c-.0625-3.980468-3.222656-7.222656-7.199219-7.390624h-3.800781v-10.582032c-.035156-2.445312-1.328125-4.699218-3.421875-5.964844l-54.878907-33.660156c-2.253906-1.378906-5.089843-1.378906-7.34375 0l-54.925781 33.660156c-2.097656 1.265626-3.394531 3.519532-3.429687 5.964844v10.582032h-3.800782c-3.980468.167968-7.136718 3.410156-7.199218 7.390624v22.609376h-48.214844c-2.765625.085937-5.238281 1.738281-6.375 4.261718-1.136719 2.523438-.7382812 5.46875 1.027344 7.597656l53.5625 60.832032v21.308594h-48.214844c-2.773438.113281-5.242188 1.78125-6.375 4.316406-1.136719 2.53125-.7382812 5.484375 1.027344 7.628906l53.5625 60.855469v22.199219h-48.214844c-2.710938-.09375-5.214844 1.433593-6.378906 3.882812-1.160156 2.449219-.7539065 5.355469 1.03125 7.394531l53.5625 60.636719v30.179688c.101562 3.886718 3.3125 6.964843 7.199218 6.90625h40.800782v112.242187c.027344 1.839844.792968 3.589844 2.125 4.863281 1.332031 1.269532 3.117187 1.953125 4.957031 1.894532h35.832031c1.839844.058593 3.628906-.625 4.957032-1.894532 1.332031-1.273437 2.097656-3.023437 2.128906-4.863281v-112.242187h40.800781c3.886719.058593 7.097656-3.019532 7.199219-6.90625v-30.179688l53.5625-60.757812c1.804687-1.976563 2.230468-4.851563 1.082031-7.269532-1.179687-2.460937-3.707031-3.984375-6.429687-3.886718h-48.214844v-22.199219l53.5625-60.753907c1.804687-2.144531 2.230468-5.132812 1.089844-7.695312-1.136719-2.5625-3.636719-4.253906-6.4375-4.351562h-48.214844v-21.308594zm-20.871094 2.0625-32.691406 37.542968v-37.542968zm-153.691406-50.664063 48-29.363281 48 29.363281v6.664063h-96zm-57.695313 50.664063h32.695313v37.542968zm0 94h32.695313v37.652343zm0 95h32.695313v36.765624zm116.695313 200h-22v-105h22zm48-119h-118v-300h118zm46.691406-81-32.691406 36.765624v-36.765624zm0-95-32.691406 37.652343v-37.652343zm0 0"/></svg>