<svg height="485pt" viewBox="-63 0 485 485.84406" width="485pt" xmlns="http://www.w3.org/2000/svg"><path d="m8.421875 250 13.820313-.21875v207.4375c.03125 3.578125 2.414062 6.707031 5.855468 7.6875 48.292969 13.914062 98.304688 20.960938 148.5625 20.9375 1.085938 0 2.199219 0 3.285156-.007812 49.222657-.300782 100.5-7.320313 152.246094-20.878907 3.535156-.914062 6.015625-4.085937 6.050782-7.738281v-207.535156h13.894531c2.941406-.011719 5.636719-1.632813 7.019531-4.226563s1.230469-5.738281-.398438-8.183593l-144.507812-218.875c-7.539062-11.472657-20.339844-18.3867192-34.066406-18.398438h-.015625c-13.730469.015625-26.53125 6.9375-34.058594 18.421875l-144.367187 218.921875c-1.621094 2.503906-1.757813 5.6875-.363282 8.324219 1.382813 2.621093 4.082032 4.28125 7.042969 4.332031zm313.820313 201.015625c-49 12.210937-96.304688 18.542969-142.296876 18.820313-1.058593.003906-2.222656.007812-3.28125.007812-46.769531.015625-93.328124-6.265625-138.421874-18.679688v-201.386718l284-.089844zm-38.472657-298.015625h-207.0625l46.4375-71h114.121094zm-124.304687-125.957031c4.554687-6.988281 12.371094-11.15625 20.707031-11.042969h.011719c8.335937-.113281 16.148437 4.050781 20.707031 11.03125l25.808594 38.96875h-93zm-93.3125 141.957031h228.183594l42.859374 64.789062-313.910156.152344zm0 0"/><path d="m180.242188 444.4375c29.789062-.03125 53.9375-24.152344 54-53.9375v-61.261719c0-29.820312-24.175782-54-54-54-29.820313 0-54 24.179688-54 54v61.261719c.066406 29.785156 24.214843 53.90625 54 53.9375zm-38-115.203125c0-20.984375 17.015624-38 38-38 20.988281 0 38 17.015625 38 38v61.265625c0 20.988281-17.011719 38-38 38-20.984376 0-38-17.011719-38-38zm0 0"/></svg>