<svg height="493pt" viewBox="-1 0 493 493.61828" width="493pt" xmlns="http://www.w3.org/2000/svg"><path d="m98.757812 316.289062c.101563 6.34375 5.265626 11.433594 11.609376 11.441407h.183593l57.949219-.886719c6.410156-.101562 11.527344-5.378906 11.4375-11.789062l-.722656-47.4375c-.105469-6.339844-5.269532-11.425782-11.613282-11.4375h-.179687l-57.949219.886718c-6.414062.105469-11.527344 5.378906-11.441406 11.789063zm15.757813-15.960937 16.59375-.253906.171875 11.335937-16.59375.253906zm32.765625 10.839844-.175781-11.339844 16.589843-.25.175782 11.335937zm16.171875-27.589844-16.589844.253906-.171875-11.335937 16.589844-.253906zm-32.757813-10.839844.171876 11.339844-16.589844.25-.175782-11.335937zm0 0"/><path d="m488.21875 479.09375c-1.214844-2.597656-3.144531-9.515625-4.113281-13-.921875-3.304688-1.71875-6.164062-2.421875-8.027344l-10.53125-27.378906c-2.46875-6.359375-6.8125-11.820312-12.457032-15.652344v-37.417968h19.207032c2.890625-.082032 5.523437-1.679688 6.929687-4.207032 1.429688-2.554687 1.429688-5.664062 0-8.21875l-19.257812-33.574218c2.839843.054687 5.488281-1.433594 6.925781-3.886719s1.4375-5.488281 0-7.941407l-25.238281-43.6875c-1.433594-2.472656-4.074219-3.992187-6.933594-3.988281-2.855469.003907-5.496094 1.535157-6.921875 4.011719l-25.238281 43.714844c-1.429688 2.4375-1.429688 5.457031 0 7.890625 1.445312 2.449219 4.09375 3.933593 6.933593 3.886719l-19.257812 33.472656c-1.429688 2.566406-1.429688 5.695312 0 8.261718 1.402344 2.542969 4.03125 4.160157 6.933594 4.265626h15.917968v21c-1.734374-.121094-3.476562-.101563-5.210937.050781l-9.648437.929687c-6.085938.472656-12.195313.449219-18.273438-.058594l-20.671875-2.101562c-7.070313-.558594-14.183594-.300781-21.195313.773438v-38.59375h26.394532c2.886718-.109376 5.511718-1.710938 6.925781-4.234376 1.414063-2.519531 1.414063-5.59375 0-8.117187l-26.292969-45.648437h3.726563c2.859375-.003907 5.5-1.535157 6.929687-4.011719 1.425782-2.480469 1.429688-5.53125 0-8.007813l-32.019531-55.464844c-1.429687-2.472656-4.070313-4-6.925781-4-2.859375 0-5.5 1.527344-6.929688 4l-32.019531 55.457032c-1.425781 2.480468-1.425781 5.53125 0 8.011718 1.429687 2.476563 4.066406 4.007813 6.929687 4.015626h3.726563l-26.292969 45.527343c-1.429687 2.5625-1.429687 5.679688 0 8.238281 1.402344 2.53125 4.035156 4.140626 6.929688 4.234376h28.917968v35.902343l-.953124-.269531c-5.140626-1.542969-9.964844-3.976562-14.257813-7.195312l-38.664063-31.675782c-4.535156-3.710937-9.785156-5.046875-14.429687-3.664062-.453125.136718-.898437.300781-1.332031.488281l-1.054688-69.988281.523438.5c9.308594 8.953125 24.101562 8.695312 33.089844-.574219 8.992187-9.269531 8.796874-24.0625-.433594-33.09375l-110.914063-107.578125c-9.304687-8.992188-24.132812-8.765625-33.160156.507812l-41.332031 42.613282-.589844-38.554688c-.066406-4.421875-3.703125-7.945312-8.121094-7.878906-4.417968.066406-7.945312 3.703125-7.878906 8.121094l.800781 52.292968c.011719.675782.109375 1.347657.292969 2l-50.75 52.324219c-8.855469 9.320313-8.550781 24.03125.675781 32.980469 9.230469 8.953125 23.945313 8.804688 32.988281-.332031l5.128907-5.285157 1.265625 81.28125c-12.242188 2.433594-14.621094 8.734376-15.039063 11.757813-.929687 4.390625-3.09375 8.425781-6.238281 11.628906l-1.433594 1.269531c-1.101562.914063-2.296875 1.703126-3.574218 2.351563-10.339844 5.542969-17.367188 15.734375-18.875 27.371094l-9.046876 67.246093c-.3085932 2.34375.382813 4.714844 1.902344 6.523438 1.5 1.789062 3.691406 2.855469 6.023438 2.929688h474.777344c4.136718-.085938 7.558593-3.257813 7.957031-7.378907.273437-2.699219-.78125-5.363281-2.824219-7.144531zm-52.328125-159.363281c-1.417969-2.5-4.050781-4.066407-6.925781-4.113281l11.378906-19.714844 11.378906 19.714844c-2.875.054687-5.507812 1.617187-6.929687 4.113281-1.421875 2.5-1.421875 5.558593 0 8.058593l7.40625 13.0625 11.847656 20.765626h-47.414063l19.257813-33.621094c1.429687-2.570313 1.429687-5.695313 0-8.265625zm-1.195313 57.886719h8v28.691406l-6.175781-3.175782c-.5625-.375-1.175781-.660156-1.824219-.847656zm-119.769531-79.785157c1.429688-2.511719 1.429688-5.59375 0-8.105469-1.417969-2.503906-4.054687-4.066406-6.929687-4.109374h-3.726563l18.160157-31.457032 18.167968 31.457032h-3.730468c-2.855469-.003907-5.496094 1.515624-6.925782 3.988281-1.429687 2.46875-1.429687 5.519531 0 7.992187l9.394532 16.507813 16.894531 29.511719h-67.597657zm12.769531 61.785157v40.675781c-2.683593-.003907-5.363281-.269531-8-.789063v-39.886718zm-290.984374-84.210938c-2.863282 2.953125-7.582032 3.027344-10.539063.160156-2.953125-2.863281-3.023437-7.582031-.160156-10.539062l107.585937-111.039063c1.355469-1.464843 3.242188-2.316406 5.234375-2.371093h.121094c1.949219.039062 3.804687.828124 5.183594 2.210937l110.90625 107.644531c2.914062 2.875 2.972656 7.558594.128906 10.503906-2.839844 2.945313-7.523437 3.058594-10.503906.25l-99.820313-96.816406c-3.171875-3.078125-8.238281-3-11.316406.171875zm102.738281-82.941406 77.320312 74.996094 1.5625 103.484374-5.921875 4.28125c-1.710937.980469-3.839844.863282-5.433594-.300781-4.660156-4.238281-10.339843-9.714843-11.625-11.351562-2.621093-4.484375-7.886718-4.757813-15.09375-5.128907-4.582031-.238281-10.90625-.386718-18.792968-.4375-9.132813-.058593-20.089844.007813-32.5625.203126-3.632813.054687-12.089844.578124-22.800782 1.242187-11.640624.71875-25.613281 1.585937-35.53125 1.949219l-1.5-96.375zm-121.992188 285.152344 7.828125-58.371094c.8125-6.53125 4.707032-12.28125 10.480469-15.449219 2.410156-1.25 4.660156-2.78125 6.707031-4.566406l1.4375-1.292969c4.921875-4.347656 9.371094-12.121094 11.011719-18.933594 1.253906-.515625 4.179687-1.351562 10.085937-1.441406 9.933594-.152344 27.761719-1.257812 42.085938-2.144531 10.085938-.625 18.792969-1.164063 22.050781-1.214844 32.402344-.496094 49.109375-.074219 54.714844.515625 3.910156 4.21875 8.035156 8.238281 12.355469 12.039062 7.203125 6.242188 17.714844 6.832032 25.570312 1.433594l7.308594-5.28125c4.777344-3.566406 8.753906-8.09375 11.675781-13.292968l37.640625 30.816406c6.128906 4.722656 13.109375 8.230468 20.5625 10.332031l8.84375 2.214844c1.242188.75 2.664063 1.148437 4.117188 1.148437.132812 0 .261718-.011718.394531-.019531l3.039063.761719c6.363281 1.390625 12.902343 1.785156 19.386718 1.164062 1.582032.25 3.199219.003906 4.636719-.699218l6.550781-1.242188c5.773438-.929688 11.636719-1.179688 17.46875-.75l20.582032 2.101562c7.144531.617188 14.328124.644532 21.476562.070313l9.765625-.929687c2.917969-.132813 5.84375.152343 8.679687.847656.785157.351562 1.621094.570312 2.480469.652344 1.125.328124 2.21875.753906 3.273438 1.273437l18.152343 9.328125c3.738282 2.308594 6.722657 5.65625 8.585938 9.632812l10.300781 27.378907c.453125 1.199219 1.230469 4.183593 1.980469 6.878906.6875 2.464844 1.324219 5.035156 1.949219 7.035156zm0 0"/><path d="m409.335938 4.617188c-1.289063-2.757813-4.03125-4.5468755-7.074219-4.61328175-3.050781-.08984375-5.878907 1.58593775-7.269531 4.30078175l-6.898438 13.246093-14.832031 1.828125c-3.023438.371094-5.570313 2.425782-6.574219 5.300782s-.289062 6.070312 1.84375 8.242187l10.464844 10.660156-2.847656 14.664063c-.578126 2.988281.589843 6.050781 3.011718 7.894531 2.425782 1.839844 5.683594 2.148437 8.410156.792969l13.371094-6.660156 13.066406 7.238281c2.664063 1.476562 5.933594 1.3125 8.4375-.421875 2.5-1.734375 3.800782-4.742188 3.351563-7.753906l-2.199219-14.773438 10.917969-10.191406c2.226563-2.074219 3.082031-5.238282 2.207031-8.152344-.878906-2.917969-3.335937-5.082031-6.339844-5.585938l-14.730468-2.472656zm.269531 31.109374c-1.925781 1.796876-2.84375 4.425782-2.457031 7.03125l.433593 2.898438-2.566406-1.421875c-2.304687-1.273437-5.085937-1.335937-7.445313-.164063l-2.625 1.308594.558594-2.878906c.503906-2.585938-.300781-5.25-2.144531-7.128906l-2.054687-2.097656 2.910156-.355469c2.613281-.324219 4.902344-1.910157 6.117187-4.242188l1.359375-2.601562 1.238282 2.660156c1.113281 2.386719 3.328124 4.070313 5.925781 4.507813l2.894531.484374zm0 0"/><path d="m274.664062 95.691406c-4.148437.222656-8.304687-.207031-12.324218-1.265625-2.898438-.769531-5.988282.152344-7.992188 2.386719-2.007812 2.230469-2.59375 5.398438-1.523437 8.199219 8.21875 21.667969 28.992187 35.984375 52.164062 35.949219 1 0 2.019531-.027344 3.03125-.078126 27.484375-1.464843 49.8125-22.71875 52.632813-50.09375 2.816406-27.378906-14.710938-52.734374-41.320313-59.769531-2.898437-.769531-5.988281.152344-7.992187 2.386719-2.007813 2.230469-2.59375 5.398438-1.523438 8.199219 4.550782 11.917969 3.128906 25.289062-3.820312 35.984375-6.953125 10.695312-18.59375 17.421875-31.332032 18.105468zm53.699219-42.820312c0-.074219-.007812-.152344-.011719-.230469 12.414063 8.941406 18.625 24.183594 16 39.25-2.625 15.070313-13.628906 27.3125-28.332031 31.527344-14.703125 4.210937-30.523437-.347657-40.730469-11.738281l.230469-.011719c30.8125-1.679688 54.449219-27.980469 52.84375-58.796875zm0 0"/></svg>