<svg height="472pt" viewBox="0 -33 472.00598 472" width="472pt" xmlns="http://www.w3.org/2000/svg"><path d="m464.253906 325.726562h-34.25v-198.855468c27.964844-13.933594 42.574219-45.355469 35.199219-75.71875-7.371094-30.359375-34.761719-51.585938-66-51.1445315-31.242187.4453125-58.023437 22.4374995-64.53125 52.9921875-6.507813 30.558594 8.984375 61.554688 37.332031 74.691406v198.035156h-54v-183.226562c-.121094-4.414062-3.792968-7.894531-8.207031-7.773438h-190.671875c-2.113281-.054687-4.15625.734376-5.679688 2.195313-1.527343 1.457031-2.40625 3.46875-2.441406 5.578125v183.226562h-103.25c-2.101562.019532-4.105468.882813-5.5625 2.398438-1.457031 1.511719-2.2460935 3.546875-2.18749975 5.648438v32.722656c-.02734375 10.71875 4.23828175 21.003906 11.83984375 28.5625 7.605469 7.554687 17.914062 11.757812 28.632812 11.667968h391.050782c10.722656.089844 21.03125-4.113281 28.632812-11.667968 7.605469-7.558594 11.867188-17.84375 11.84375-28.5625v-32.722656c.058594-2.101563-.730468-4.136719-2.1875-5.648438-1.457031-1.515625-3.460937-2.378906-5.5625-2.398438zm-271.25-175h43v27.761719l-19.09375-6.769531c-1.597656-.601562-3.359375-.601562-4.957031 0l-18.949219 6.769531zm-66 0h50v39.046876c-.113281 2.5625 1.058594 5.007812 3.125 6.523437s4.75 1.902344 7.160156 1.027344l27.230469-9.578125 27.261719 9.578125c.84375.296875 1.734375.449219 2.632812.449219 1.59375 0 3.144532-.515626 4.421876-1.472657 2.0625-1.523437 3.246093-3.960937 3.167968-6.527343v-39.046876h50v174h-175zm272.890625-134.5c25.613281.035157 47.210938 19.089844 50.433594 44.5h-45.324219v-25c0-4.417968-3.582031-8-8-8-4.417968 0-8 3.582032-8 8v25h-39.539062c3.222656-25.410156 24.820312-44.464843 50.429687-44.5zm-49.910156 60.5h99.824219c-4.625 23.914063-25.558594 41.1875-49.914063 41.1875s-45.289062-17.273437-49.910156-41.1875zm38.019531 56.066407c4.007813.738281 8.074219 1.113281 12.148438 1.121093 4.652344-.027343 9.292968-.511718 13.851562-1.445312v193.257812h-26zm68 233.699219c.03125 6.480468-2.546875 12.699218-7.148437 17.253906-4.605469 4.558594-10.847657 7.074218-17.328125 6.980468h-391.050782c-6.476562.09375-12.71875-2.417968-17.324218-6.976562-4.601563-4.558594-7.179688-10.777344-7.148438-17.253906v-24.769532h440zm0 0"/><path d="m168.761719 243.726562h59.878906c4.417969 0 8-3.582031 8-8 0-4.417968-3.582031-8-8-8h-59.878906c-4.417969 0-8 3.582032-8 8 0 4.417969 3.582031 8 8 8zm0 0"/><path d="m260.15625 259.726562h-91.398438c-4.417968 0-8 3.582032-8 8 0 4.417969 3.582032 8 8 8h91.398438c4.421875 0 8-3.582031 8-8 0-4.417968-3.578125-8-8-8zm0 0"/></svg>