<svg height="502pt" viewBox="0 -89 502.01629 502" width="502pt" xmlns="http://www.w3.org/2000/svg"><path d="m477.1875 170.988281.117188-.0625-28.164063-52.796875c-6.875-12.953125-20.324219-21.066406-34.988281-21.113281h-33.757813c-1.703125-11.664063-11.824219-20.238281-23.613281-20h-40.300781c-4.417969 0-8.472657 3.300781-8.472657 7.71875v104.28125h-300.449218c-4.417969 0-7.5507815 3.65625-7.5507815 8.074219v83.085937c-.09375 2.054688.6601565 4.0625 2.0859375 5.542969 1.429688 1.484375 3.40625 2.3125 5.464844 2.296875h17.148437c4.019531 21.078125 22.453125 36.328125 43.910157 36.328125 21.457031 0 39.890624-15.25 43.910156-36.328125h95.734375c4.019531 21.078125 22.449219 36.328125 43.910156 36.328125 21.457031 0 39.890625-15.25 43.910156-36.328125h62.886719c4.019531 21.078125 22.453125 36.328125 43.910156 36.328125 21.460938 0 39.890625-15.25 43.910156-36.328125h47.671876c2.058593.015625 4.03125-.8125 5.460937-2.296875 1.425781-1.484375 2.183594-3.488281 2.085937-5.542969v-63.125c.066407-8.808593-2.800781-17.386719-8.152343-24.386719zm-42.15625-45.359375 22.082031 41.386719h-68.652343c-2.03125 0-3.972657-.824219-5.378907-2.289063-1.40625-1.460937-2.15625-3.433593-2.074219-5.460937v-46.25h33.144532c8.753906.03125 16.777344 4.878906 20.878906 12.613281zm-366.414062 182.851563c-15.859376 0-28.714844-12.851563-28.714844-28.710938 0-15.855469 12.855468-28.710937 28.714844-28.710937 15.855468 0 28.710937 12.855468 28.710937 28.710937-.019531 15.851563-12.863281 28.695313-28.710937 28.710938zm183.554687 0c-15.859375 0-28.714844-12.851563-28.714844-28.710938 0-15.855469 12.855469-28.710937 28.714844-28.710937 15.855469 0 28.710937 12.855468 28.710937 28.710937-.019531 15.851563-12.863281 28.695313-28.710937 28.710938zm0-73.582031c-21.746094.050781-40.316406 15.695312-44.054687 37.117187h-95.445313c-3.6875-21.453125-22.289063-37.128906-44.054687-37.128906-21.765626 0-40.367188 15.675781-44.054688 37.128906h-8.554688v-67h292v67h-11.785156c-3.738281-21.421875-22.308594-37.066406-44.050781-37.117187zm150.707031 73.582031c-15.859375 0-28.710937-12.851563-28.710937-28.710938 0-15.855469 12.851562-28.710937 28.710937-28.710937 15.855469 0 28.710938 12.855468 28.710938 28.710937-.019532 15.851563-12.863282 28.695313-28.710938 28.710938zm83.128906-36.464844h-39.078124c-3.6875-21.449219-22.289063-37.125-44.050782-37.125-21.765625 0-40.367187 15.675781-44.054687 37.125h-34.816407v-179h32.773438c2.121094-.058594 4.179688.714844 5.738281 2.15625 1.523438 1.390625 2.421875 3.339844 2.488281 5.402344v58.691406c-.078124 6.273437 2.359376 12.3125 6.765626 16.773437 4.40625 4.460938 10.414062 6.972657 16.6875 6.976563h77.882812l14.890625 19.441406c3.167969 4.199219 4.847656 9.335938 4.773437 14.597657zm0 0"/><path d="m43.855469 188.015625h221.066406c23.074219 0 42.085937-19.195313 42.085937-42.265625v-81.511719c-.109374-23.21875-18.867187-42.039062-42.085937-42.222656h-118.914063v-14.46875c.082032-2.023437-.6875-3.992187-2.121093-5.425781-1.4375-1.429688-3.40625-2.1953128-5.429688-2.105469h-67.285156c-4.417969 0-8.164063 3.113281-8.164063 7.53125v14.46875h-19.152343c-23.074219 0-41.847657 19.148437-41.847657 42.222656v81.511719c0 23.070312 18.773438 42.265625 41.847657 42.265625zm35.152343-172h51v6h-51zm-61 48.222656c0-14.25 11.601563-26.222656 25.847657-26.222656h221.066406c14.386719.171875 25.988281 11.835937 26.085937 26.222656v81.511719c-.09375 14.394531-11.691406 26.070312-26.085937 26.265625h-221.066406c-14.246094 0-25.847657-12.015625-25.847657-26.265625zm0 0"/><path d="m158.941406 163.828125c17.019532-.066406 32.707032-9.214844 41.148438-23.988281 7.886718-13.761719 7.949218-29.90625.167968-43.1875-.125-.214844-.257812-.421875-.402343-.621094l-34.414063-47.816406c-1.519531-2.058594-3.941406-3.253906-6.5-3.199219-2.554687-.050781-4.976562 1.140625-6.496094 3.195313l-34.410156 47.746093c-.148437.210938-.289062.390625-.417968.613281-7.785157 13.359376-7.707032 29.550782.21875 43.335938 8.449218 14.742188 24.117187 23.859375 41.105468 23.921875zm-27.679687-58.921875 27.671875-38.449219 27.691406 38.585938c4.742188 8.328125 4.601562 18.089843-.417969 26.839843-5.535156 9.84375-15.949219 15.9375-27.238281 15.945313-11.292969.007813-21.710938-6.074219-27.261719-15.90625-5.046875-8.785156-5.199219-18.605469-.445312-27.015625zm0 0"/><path d="m158.679688 145.929688c15.914062.011718 28.835937-12.859376 28.882812-28.773438 0-4.417969-3.582031-8-8-8s-8 3.582031-8 8c-.039062 7.082031-5.800781 12.796875-12.882812 12.773438-4.417969 0-8 3.582031-8 8 0 4.417968 3.582031 8 8 8zm0 0"/></svg>