<svg height="452pt" viewBox="0 -19 452 452" width="452pt" xmlns="http://www.w3.org/2000/svg"><path d="m322 35c0-3.3125-2.6875-6-6-6h-290c-3.3125 0-6 2.6875-6 6v30c0 3.3125 2.6875 6 6 6h290c3.3125 0 6-2.6875 6-6zm-290 6h278v18h-278zm0 0"/><path d="m452 26c0-14.359375-11.640625-26-26-26h-400c-14.359375 0-26 11.640625-26 26v361c0 14.359375 11.640625 26 26 26h400c14.359375 0 26-11.640625 26-26zm-25.800781 374h-400.398438c-3.644531.085938-7.171875-1.308594-9.769531-3.867188-2.601562-2.554687-4.054688-6.054687-4.03125-9.703124v-284.429688h428v284.429688c.023438 3.648437-1.429688 7.148437-4.03125 9.703124-2.597656 2.558594-6.125 3.953126-9.769531 3.867188zm-400.398438-388h400.398438c3.644531-.085938 7.171875 1.308594 9.769531 3.867188 2.601562 2.554687 4.054688 6.054687 4.03125 9.703124v64.429688h-428v-64.429688c-.023438-3.648437 1.429688-7.148437 4.03125-9.703124 2.597656-2.558594 6.125-3.953126 9.769531-3.867188zm0 0"/><path d="m432 35c0-3.3125-2.6875-6-6-6h-30c-3.3125 0-6 2.6875-6 6v30c0 3.3125 2.6875 6 6 6h30c3.3125 0 6-2.6875 6-6zm-30 6h18v18h-18zm0 0"/><path d="m380 35c0-3.3125-2.6875-6-6-6h-30c-3.3125 0-6 2.6875-6 6v30c0 3.3125 2.6875 6 6 6h30c3.3125 0 6-2.6875 6-6zm-30 6h18v18h-18zm0 0"/><path d="m229 199h82c3.3125 0 6-2.6875 6-6s-2.6875-6-6-6h-82c-3.3125 0-6 2.6875-6 6s2.6875 6 6 6zm0 0"/><path d="m371 217h-142c-3.3125 0-6 2.6875-6 6s2.6875 6 6 6h142c3.3125 0 6-2.6875 6-6s-2.6875-6-6-6zm0 0"/><path d="m371 247h-142c-3.3125 0-6 2.6875-6 6s2.6875 6 6 6h142c3.3125 0 6-2.6875 6-6s-2.6875-6-6-6zm0 0"/><path d="m371 277h-142c-3.3125 0-6 2.6875-6 6s2.6875 6 6 6h142c3.3125 0 6-2.6875 6-6s-2.6875-6-6-6zm0 0"/><path d="m371 307h-142c-3.3125 0-6 2.6875-6 6s2.6875 6 6 6h142c3.3125 0 6-2.6875 6-6s-2.6875-6-6-6zm0 0"/><path d="m149 160.5c0-14.082031-11.417969-25.5-25.5-25.5s-25.5 11.417969-25.5 25.5v8c0 14.082031 11.417969 25.5 25.5 25.5s25.5-11.417969 25.5-25.5zm-12 8c0 7.457031-6.042969 13.5-13.5 13.5s-13.5-6.042969-13.5-13.5v-8c0-7.457031 6.042969-13.5 13.5-13.5s13.5 6.042969 13.5 13.5zm0 0"/><path d="m147.910156 199h-3.894531c-2.550781.050781-4.800781 1.679688-5.644531 4.085938l-3.492188 9.773437-6.007812-6.359375c-1.148438-1.226562-2.765625-1.90625-4.445313-1.875-1.683593.023438-3.277343.75-4.398437 2.003906l-5.15625 5.761719-2.9375-9.132813c-.789063-2.496093-3.085938-4.207031-5.703125-4.257812h-4.53125c-7.550781.046875-14.742188 3.257812-19.816407 8.851562-4.945312 5.46875-6.886718 12.898438-6.886718 20.234376v38.125c.074218 7.554687 3.1875 14.765624 8.640625 20l3.625 3.425781c2.910156 2.792969 4.644531 6.589843 4.84375 10.617187l3.144531 65.277344c.183594 3.15625 2.855469 5.585938 6.015625 5.46875h47.183594c3.15625.113281 5.820312-2.316406 5.992187-5.46875l3.128906-65.449219c.183594-3.984375 1.890626-7.746093 4.765626-10.511719l3.398437-3.425781c5.324219-5.25 8.304687-12.421875 8.265625-19.898437v-38.160156c.875-7.382813-1.53125-14.777344-6.582031-20.234376-4.953125-5.582031-12.046875-8.800781-19.507813-8.851562zm-23.300781 20.515625 2.109375 2.242187 4.898438 45.59375-6.808594 6.808594-6.8125-6.808594 4.9375-45.960937zm37.574219 7.679687c-.019532.199219-.183594.402344-.183594.601563v38.445313c.046875 4.246093-1.621094 8.328124-4.632812 11.328124l-3.472657 3.453126c-5.042969 4.816406-8.03125 11.394531-8.347656 18.359374l-2.816406 59.617188h-35.746094l-2.851563-59.566406c-.328124-7.039063-3.355468-13.683594-8.457031-18.550782l-3.699219-3.367187c-3.117187-2.941406-4.910156-7.019531-4.976562-11.304687v-38.410157c0-.199219.140625-.402343.121094-.601562-.386719-4.121094.96875-8.21875 3.738281-11.296875s6.699219-4.855469 10.839844-4.902344h.171875l4.8125 14.898438c.527344 1.636718 1.722656 2.976562 3.285156 3.6875l-4.214844 39.300781c-.195312 1.808593.4375 3.609375 1.722656 4.898437l13.082032 13.089844c2.339844 2.34375 6.140625 2.347656 8.484375.007812l13.082031-13.082031c1.285156-1.285156 1.917969-3.082031 1.722656-4.886719l-4.21875-39.277343c1.503906-.660157 2.667969-1.90625 3.226563-3.449219l5.375-14.957031c4.027343.097656 7.828125 1.882812 10.480469 4.914062 2.652343 3.035157 3.910156 7.039063 3.46875 11.046875zm0 0"/></svg>