<svg height="472pt" viewBox="-32 0 472 472" width="472pt" xmlns="http://www.w3.org/2000/svg"><path d="m387.777344 28h-107.800782c-3.816406-16.308594-18.304687-27.882812-35.050781-28h-209.378906c-9.5.0351562-18.59375 3.859375-25.265625 10.621094-6.671875 6.761718-10.3710938 15.910156-10.28125 25.410156v399.9375c-.0898438 9.5 3.609375 18.648438 10.28125 25.410156 6.671875 6.761719 15.765625 10.585938 25.265625 10.621094h209.375c19.894531-.03125 36.023437-16.136719 36.078125-36.03125v-243.851562l21.917969-13.117188h84.859375c11.398437 0 20.222656-9.398438 20.222656-20.800781v-109.679688c.09375-5.417969-2-10.644531-5.804688-14.503906-3.804687-3.859375-9-6.027344-14.417968-6.015625zm-352.230469-16h209.375c10.289063 0 19.191406 7 22.558594 16h-42.160157c-5.429687-.015625-10.636718 2.148438-14.457031 6.003906-3.820312 3.859375-5.929687 9.089844-5.863281 14.515625v14.480469h-193v-26.96875c0-13.230469 10.316406-24.03125 23.546875-24.03125zm209.375 448h-209.375c-13.230469 0-23.546875-10.800781-23.546875-24.03125v-41.96875h257v41.96875c-.050781 13.273438-10.808594 24.007812-24.078125 24.03125zm24.078125-78h-257v-307h193v83.199219c-.078125 5.457031 2.019531 10.722656 5.835938 14.625 3.8125 3.90625 9.027343 6.128906 14.484374 6.175781h14.132813l-2.785156 28.640625c-.160157 1.675781.398437 3.347656 1.535156 4.589844 1.136719 1.246093 2.75 1.953125 4.4375 1.941406 1.101563 0 2.183594-.300781 3.132813-.867187l23.226562-13.960938zm127-223.800781c0 4.785156-3.4375 8.800781-8.222656 8.800781h-86.527344c-1.082031-.019531-2.152344.253906-3.09375.800781l-48.390625 29.097657 2.269531-23.421876c.164063-1.667968-.394531-3.328124-1.53125-4.558593-1.140625-1.242188-2.753906-1.9375-4.441406-1.917969h-20.742188c-2.277343-.046875-4.441406-1.003906-6.003906-2.65625-1.5625-1.65625-2.398437-3.867188-2.316406-6.144531v-109.679688c-.070312-2.246093.773438-4.425781 2.34375-6.03125 1.570312-1.609375 3.730469-2.507812 5.976562-2.488281h162.457032c2.238281-.015625 4.382812.886719 5.9375 2.496094 1.554687 1.613281 2.378906 3.789062 2.285156 6.023437zm0 0"/><path d="m306.140625 71.929688c.285156.046874.574219.066406.859375.070312.214844 0 .425781-.011719.636719-.035156 6.628906.570312 11.726562 6.113281 11.734375 12.769531 0 3.3125 2.6875 6 6 6s6-2.6875 6-6c-.015625-11.21875-7.539063-21.039063-18.371094-23.96875v-4.765625c0-3.3125-2.683594-6-6-6-3.3125 0-6 2.6875-6 6v4.542969c-12.304688 2.824219-20.535156 14.4375-19.113281 26.984375 1.417969 12.546875 12.035156 22.027344 24.660156 22.03125 7.082031 0 12.824219 5.738281 12.824219 12.820312 0 7.082032-5.742188 12.824219-12.824219 12.824219s-12.820313-5.742187-12.820313-12.824219c0-3.3125-2.6875-6-6-6-3.316406 0-6 2.6875-6 6 .015626 11.566406 8.003907 21.59375 19.273438 24.191406v5.429688c0 3.3125 2.6875 6 6 6 3.316406 0 6-2.6875 6-6v-5.652344c12.023438-3.238281 19.785156-14.878906 18.15625-27.222656-1.632812-12.34375-12.15625-21.566406-24.609375-21.566406-7.003906.007812-12.714844-5.609375-12.828125-12.613282-.109375-7.003906 5.421875-12.800781 12.421875-13.015624zm0 0"/><path d="m111.035156 47h58.402344c3.3125 0 6-2.6875 6-6s-2.6875-6-6-6h-58.402344c-3.3125 0-6 2.6875-6 6s2.6875 6 6 6zm0 0"/><path d="m189.433594 417h-98.402344c-3.3125 0-6 2.6875-6 6s2.6875 6 6 6h98.402344c3.3125 0 6-2.6875 6-6s-2.6875-6-6-6zm0 0"/><path d="m140.234375 221.4375c24.535156 0 44.421875-19.890625 44.421875-44.421875 0-24.535156-19.886719-44.421875-44.421875-44.421875-24.53125 0-44.421875 19.886719-44.421875 44.421875.027344 24.519531 19.898438 44.394531 44.421875 44.421875zm0-76.84375c17.90625-.003906 32.421875 14.511719 32.421875 32.417969s-14.515625 32.425781-32.421875 32.425781-32.421875-14.515625-32.421875-32.421875c.019531-17.898437 14.523438-32.402344 32.421875-32.421875zm0 0"/><path d="m177.394531 225c-1.90625-.007812-3.703125.890625-4.835937 2.421875-7.5625 10.273437-19.5625 16.339844-32.320313 16.339844-12.757812 0-24.757812-6.0625-32.324219-16.332031-1.132812-1.535157-2.929687-2.4375-4.835937-2.429688-10.699219.023438-20.949219 4.316406-28.472656 11.925781-7.523438 7.609375-11.699219 17.902344-11.605469 28.605469v67.875c-.09375 1.496094.453125 2.964844 1.507812 4.03125 1.050782 1.066406 2.507813 1.636719 4.007813 1.5625h143.4375c3.316406 0 6.046875-2.277344 6.046875-5.59375v-67.875c-.046875-22.394531-18.210938-40.523438-40.605469-40.53125zm28.605469 102h-131v-61.46875c-.089844-14.636719 10.953125-26.949219 25.511719-28.441406 9.863281 11.835937 24.476562 18.683594 39.886719 18.683594 15.410156 0 30.023437-6.847657 39.882812-18.683594 14.605469 1.472656 25.71875 13.765625 25.71875 28.441406zm0 0"/></svg>