<?xml version="1.0"?>
<svg xmlns="http://www.w3.org/2000/svg" id="Layer_1" data-name="Layer 1" viewBox="0 0 512 512" width="512" height="512"><title>USB</title><path d="M349.657,135H334V20.172A8.2,8.2,0,0,0,325.946,12H186.054A8.2,8.2,0,0,0,178,20.172V135H162.343A8.711,8.711,0,0,0,154,143.468V444.406C154,474.966,179.2,500,209.764,500h92.472C332.8,500,358,474.966,358,444.406V143.468A8.711,8.711,0,0,0,349.657,135ZM194,28H318V135H194ZM342,444.406A39.908,39.908,0,0,1,302.236,484H209.764A39.908,39.908,0,0,1,170,444.406V151H342Z"/><path d="M224,44a8,8,0,0,0-8,8V96a8,8,0,0,0,16,0V52A8,8,0,0,0,224,44Z"/><path d="M286,44a8,8,0,0,0-8,8V96a8,8,0,0,0,16,0V52A8,8,0,0,0,286,44Z"/><path d="M290,395a8,8,0,0,0-8-8H230a8,8,0,0,0-8,8v52a8,8,0,0,0,8,8h52a8,8,0,0,0,8-8Zm-52,8h36v35H238Z"/></svg>
