<?xml version="1.0" encoding="iso-8859-1"?>
<!-- Generator: Adobe Illustrator 19.0.0, SVG Export Plug-In . SVG Version: 6.00 Build 0)  -->
<svg version="1.1" id="Capa_1" xmlns="http://www.w3.org/2000/svg" xmlns:xlink="http://www.w3.org/1999/xlink" x="0px" y="0px"
	 viewBox="0 0 512 512" style="enable-background:new 0 0 512 512;" xml:space="preserve">
<g>
	<g>
		<path d="M493.844,213.636v-36.312h-166.43c-10.028,0-18.156,8.128-18.156,18.156v121.04c0,10.028,8.128,18.156,18.156,18.156
			h166.43v-36.312H345.57v-84.728H493.844z"/>
	</g>
</g>
<g>
	<g>
		<path d="M493.844,49.021H18.156C8.128,49.021,0,57.149,0,67.177v377.645c0,10.028,8.128,18.156,18.156,18.156h475.688
			c10.028,0,18.156-8.128,18.156-18.156V67.177C512,57.149,503.872,49.021,493.844,49.021z M475.688,426.667H36.312V85.333h439.376
			V426.667z"/>
	</g>
</g>
<g>
</g>
<g>
</g>
<g>
</g>
<g>
</g>
<g>
</g>
<g>
</g>
<g>
</g>
<g>
</g>
<g>
</g>
<g>
</g>
<g>
</g>
<g>
</g>
<g>
</g>
<g>
</g>
<g>
</g>
</svg>
