<svg height="418pt" viewBox="-7 0 418 418.03424" width="418pt" xmlns="http://www.w3.org/2000/svg"><path d="m246.410156 298h-23.300781l13.445313-32.648438c1.019531-2.519531.742187-5.375-.746094-7.652343-1.46875-2.253907-3.957032-3.640625-6.648438-3.699219h-63.765625c-4.152343.050781-7.589843 3.234375-7.964843 7.367188l-7.769532 83.339843c-.210937 2.324219.53125 4.636719 2.050782 6.40625 1.488281 1.738281 3.628906 2.78125 5.914062 2.886719h20.453125l-3.273437 55.75c-.144532 2.183594.640624 4.328125 2.164062 5.90625 1.519531 1.574219 3.632812 2.4375 5.820312 2.375 2.792969-.011719 5.378907-1.476562 6.828126-3.859375l63.617187-104.140625c1.503906-2.453125 1.558594-5.527344.140625-8.03125-1.421875-2.5-4.089844-4.035156-6.964844-4zm-53.765625 80.574219 1.898438-32.5625c.128906-2.132813-.660157-4.214844-2.164063-5.730469-1.539062-1.539062-3.648437-2.367188-5.820312-2.28125h-20.152344l6.277344-68h44.515625l-13.445313 32.683594c-1.019531 2.511718-.742187 5.363281.746094 7.632812 1.46875 2.253906 3.957031 3.632813 6.648438 3.683594h21zm0 0"/><path d="m323.746094 0h-243.457032c-4.417968 0-8 3.582031-8 8 0 71.648438 58.082032 129.726562 129.726563 129.726562 71.648437 0 129.730469-58.078124 129.730469-129.726562 0-4.417969-3.582032-8-8-8zm-121.730469 121.726562c-59.675781-.074218-109.175781-46.203124-113.449219-105.726562h226.902344c-4.273438 59.523438-53.773438 105.65625-113.453125 105.726562zm0 0"/><path d="m56.015625 17c0-4.417969-3.582031-8-8-8h-40c-4.417969 0-8 3.582031-8 8s3.582031 8 8 8h40c4.417969 0 8-3.582031 8-8zm0 0"/><path d="m396.015625 9h-40c-4.417969 0-8 3.582031-8 8s3.582031 8 8 8h40c4.417969 0 8-3.582031 8-8s-3.582031-8-8-8zm0 0"/><path d="m210.015625 203v-40c0-4.417969-3.582031-8-8-8s-8 3.582031-8 8v40c0 4.417969 3.582031 8 8 8s8-3.582031 8-8zm0 0"/><path d="m316.871094 111.84375c-2.015625-2.042969-4.972656-2.847656-7.746094-2.109375s-4.9375 2.902344-5.675781 5.675781c-.738281 2.773438.066406 5.730469 2.109375 7.746094l44.097656 44.101562c3.132812 3.089844 8.171875 3.074219 11.28125-.035156s3.125-8.148437.035156-11.277344zm0 0"/><path d="m87.164062 111.84375-44.101562 44.101562c-2.042969 2.015626-2.847656 4.972657-2.109375 7.746094.738281 2.773438 2.902344 4.9375 5.675781 5.675782 2.773438.734374 5.730469-.070313 7.746094-2.109376l44.101562-44.101562c2.039063-2.015625 2.84375-4.972656 2.109376-7.746094-.738282-2.773437-2.90625-4.9375-5.679688-5.675781s-5.726562.066406-7.742188 2.109375zm0 0"/></svg>