<svg height="504pt" viewBox="0 -14 504.02928 504" width="504pt" xmlns="http://www.w3.org/2000/svg"><path d="m419.042969 245.9375v-26.847656c7.113281 3.867187 15.078125 5.90625 23.171875 5.925781h.792968c12.5625-.019531 24.585938-5.097656 33.363282-14.085937 8.808594-8.910157 13.726562-20.953126 13.671875-33.484376v-31c0-.0625-.046875-.125-.046875-.1875 0-.160156-.027344-.316406-.042969-.476562-.007813-.113281-.03125-.21875-.042969-.328125-.019531-.148437-.046875-.300781-.074218-.445313-.019532-.121093-.046876-.238281-.074219-.355468-.027344-.117188-.066407-.261719-.101563-.390625-.035156-.132813-.078125-.261719-.121094-.390625-.039062-.113282-.082031-.226563-.125-.335938-.054687-.140625-.113281-.28125-.175781-.417968-.046875-.101563-.09375-.199219-.140625-.292969-.074218-.144531-.152344-.285157-.234375-.425781-.03125-.054688-.058593-.109376-.089843-.160157l-51.351563-83.210937c-1.433594-2.410156-3.996094-3.921875-6.800781-4.011719h-43.578125v-46.570313c0-4.417968-3.28125-8.429687-7.699219-8.429687h-268.75c-4.417969 0-7.550781 4.011719-7.550781 8.429687v46.570313h-33.566407c-2.566406.085937-4.941406 1.363281-6.425781 3.457031l-61.507812 83.097656c-.03125.042969-.054688.144532-.085938.1875-.089843.125-.175781.28125-.257812.414063-.058594.09375-.121094.199219-.175781.300781-.070313.128906-.140626.265625-.207032.398438-.050781.105468-.105468.214844-.152344.324218-.054687.125-.105468.257813-.15625.386719-.050781.128907-.089843.238281-.128906.355469-.039062.121094-.074218.246094-.109375.371094-.035156.125-.074219.261718-.101562.398437-.027344.117188-.046875.234375-.066407.355469-.0273432.144531-.0507808.289062-.0664058.433594-.015625.113281-.0234374.222656-.03124995.335937-.01171875.15625.01562495.308594.01171875.460938 0 .054687.03125.101562.03125.160156v31.535156c.125 25.976563 21.191406 46.980469 47.167969 47.027344h.792968c7.746094.074219 15.367188-1.972656 22.035157-5.917969v200.335938c0 4.417968 4.058593 7.582031 8.476562 7.582031h287.84375l38.601563 45.542969c1.507812 1.816406 3.730468 2.878906 6.089844 2.921875 2.335937.015625 4.566406-.996094 6.089843-2.765625l67.5625-79.332032c5.847657-6.523437 10.429688-14.078124 13.503907-22.28125 10.679687-28.3125 6.449218-60.285156-11.003907-85.546874-15.519531-22.878907-40.601562-37.457032-68.164062-39.617188zm-115.714844-107.921875-7.171875-22h80.996094l12.398437 22zm91.714844 16v32.421875c-.15625 24.496094-19.960938 44.328125-44.460938 44.515625-24.425781-.121094-44.539062-20.09375-44.539062-44.476563v-32.460937zm-278.8125-38h77.550781l-7.171875 22h-85.03125zm-21.1875 38h89v32.421875c-.15625 24.496094-19.960938 44.324219-44.457031 44.515625-24.425782-.121094-43.542969-20.09375-44.542969-44.476563zm105 0h89v32.421875c-.15625 24.496094-19.960938 44.328125-44.460938 44.515625-24.421875-.121094-43.539062-20.09375-44.539062-44.476563zm3.332031-16 7.171875-22h68.84375l7.171875 22zm261.613281 61.671875c-5.816406 5.953125-13.78125 9.3125-22.105469 9.328125h-.339843c-.039063 0-.078125-.035156-.121094-.035156-17.25.085937-31.304687-13.835938-31.378906-31.085938v-23.878906h63v23.480469c.039062 8.304687-3.21875 16.285156-9.054688 22.191406zm-38.828125-128.671875 41.449219 67h-59.871094l-20.695312-37.28125v-29.71875zm-55.117187-55v84h-85.410157c-.242187-1-.484374-1-.726562 0h-165.863281v-84zm-297.539063 55h29.539063v36.132813l-20.457031 30.867187h-58.730469zm-25.621094 138h-.339843c-.039063 0-.078125-.035156-.121094-.035156-8.285156.042969-16.246094-3.210938-22.132813-9.042969-5.886718-5.832031-9.210937-13.765625-9.246093-22.050781v-23.871094h63v23.480469c.039062 8.304687-3.21875 16.285156-9.054688 22.191406-5.816406 5.953125-13.78125 9.3125-22.105469 9.328125zm38.160157 202v-196.652344c11 19.242188 30.585937 32.472657 53.773437 32.589844 21.742188-.164063 41.757813-11.875 52.550782-30.753906 10.710937 19.082031 30.925781 30.855469 52.808593 30.753906 21.882813-.101563 41.988281-12.058594 52.519531-31.242187 10.519532 19.3125 30.773438 31.304687 52.765626 31.242187 21.988281-.0625 42.171874-12.171875 52.582031-31.539063v30.464844c-28.984375 2.484375-55.144531 18.378906-70.699219 42.964844-15.550781 24.589844-18.710938 55.035156-8.539062 82.289062 3.152343 8.101563 7.734374 15.566407 13.527343 22.042969l15.410157 17.839844zm397.175781-45.488281c-.019531.046875-.035156.089844-.050781.136718-2.101563 5.871094-5.460938 11.371094-10.589844 17.308594l-.035156.042969-61.488281 72.226563-61.53125-72.269532c-4.558594-5.132812-8.164063-11.042968-10.636719-17.445312-8.824219-23.667969-5.464844-50.15625 8.988281-70.867188 14.359375-20.722656 37.964844-33.085937 63.175781-33.085937 25.210938 0 48.820313 12.363281 63.179688 33.085937 14.449219 20.710938 17.808593 47.199219 8.988281 70.867188zm0 0"/><path d="m411.050781 283.460938c-30.445312 0-55.125 24.679687-55.125 55.125 0 30.449218 24.679688 55.128906 55.125 55.128906 30.445313 0 55.128907-24.679688 55.128907-55.128906-.035157-30.429688-24.695313-55.089844-55.128907-55.125zm0 94.253906c-21.609375 0-39.125-17.519532-39.125-39.128906 0-21.609376 17.515625-39.125 39.125-39.125s39.128907 17.515624 39.128907 39.125c-.027344 21.601562-17.527344 39.105468-39.128907 39.128906zm0 0"/></svg>