<?xml version="1.0"?>
<svg xmlns="http://www.w3.org/2000/svg" id="Layer_1" data-name="Layer 1" viewBox="0 0 512 512" width="512" height="512"><title>Video</title><path d="M490.891,212.376a7.96,7.96,0,0,0-8.122.264L397,267.237v-30.1A41.2,41.2,0,0,0,355.757,196H280V145h14v8.518c0,4.419,3.634,8.482,8.052,8.482h62.6c24.878,0,45.118-20.623,45.118-45.5S389.529,71,364.651,71h-62.6A8.292,8.292,0,0,0,294,79.285V88H32.815A7.762,7.762,0,0,0,25,95.9v41a7.932,7.932,0,0,0,7.815,8.1H86v51H58.157A41.127,41.127,0,0,0,17,237.135V399.477C17,422.216,35.418,441,58.157,441h297.6C378.5,441,397,422.216,397,399.477V370.149l85.789,54.6A7.991,7.991,0,0,0,487.083,426a7.831,7.831,0,0,0,3.808-.988A7.961,7.961,0,0,0,495,418V219.389A7.963,7.963,0,0,0,490.891,212.376ZM310,87h54.651c16.056,0,29.118,13.445,29.118,29.5S380.707,146,364.651,146H310Zm-16,42H74V104H294ZM41,104H58v25H41Zm61,41H264v51H102ZM33,267H158V369H33ZM381,399.477A25.516,25.516,0,0,1,355.757,425H58.157C44.24,425,33,413.393,33,399.477V385H165.629c4.418,0,8.371-3.169,8.371-7.587V259.2a8.5,8.5,0,0,0-8.371-8.2H33V237.135A25.109,25.109,0,0,1,58.157,212h297.6A25.183,25.183,0,0,1,381,237.135Zm98,3.947-82-52.239V286.2l82-52.238Z"/><path d="M121,273.358a8,8,0,0,0-8,8v73.895a8,8,0,0,0,16,0V281.358A8,8,0,0,0,121,273.358Z"/></svg>
