<svg height="458pt" viewBox="0 0 458 458" width="458pt" xmlns="http://www.w3.org/2000/svg"><path d="m322.199219 135.800781c-51.386719-51.402343-135.011719-51.402343-186.398438 0-51.390625 51.398438-51.402343 135.011719 0 186.398438 51.507813 51.394531 134.898438 51.394531 186.40625 0 51.394531-51.386719 51.394531-135.011719-.007812-186.398438zm-11.308594 175.089844c-45.21875 45.171875-118.488281 45.148437-163.675781-.050781-45.1875-45.203125-45.1875-118.476563 0-163.679688 45.1875-45.199218 118.457031-45.222656 163.675781-.050781 45.152344 45.257813 45.152344 118.523437 0 163.78125zm0 0"/><path d="m112.152344 123.46875c3.125 3.125 8.191406 3.125 11.316406 0s3.125-8.191406 0-11.316406l-28.210938-28.210938c-3.125-3.125-8.191406-3.125-11.316406 0s-3.125 8.191406 0 11.316406zm0 0"/><path d="m345.847656 334.53125c-3.125-3.125-8.191406-3.125-11.316406 0s-3.125 8.191406 0 11.316406l28.210938 28.210938c3.125 3.125 8.191406 3.125 11.316406 0s3.125-8.191406 0-11.316406zm0 0"/><path d="m362.742188 83.941406-28.210938 28.210938c-3.125 3.125-3.125 8.191406 0 11.316406s8.191406 3.125 11.316406 0l28.210938-28.210938c3.125-3.125 3.125-8.191406 0-11.316406s-8.191406-3.125-11.316406 0zm0 0"/><path d="m112.152344 334.53125-28.210938 28.210938c-3.125 3.125-3.125 8.191406 0 11.316406s8.191406 3.125 11.316406 0l28.210938-28.210938c3.125-3.125 3.125-8.191406 0-11.316406s-8.191406-3.125-11.316406 0zm0 0"/><path d="m229 80c4.417969 0 8-3.582031 8-8v-64c0-4.417969-3.582031-8-8-8s-8 3.582031-8 8v64c0 4.417969 3.582031 8 8 8zm0 0"/><path d="m229 378c-4.417969 0-8 3.582031-8 8v64c0 4.417969 3.582031 8 8 8s8-3.582031 8-8v-64c0-4.417969-3.582031-8-8-8zm0 0"/><path d="m450 221h-64c-4.417969 0-8 3.582031-8 8s3.582031 8 8 8h64c4.417969 0 8-3.582031 8-8s-3.582031-8-8-8zm0 0"/><path d="m72 221h-64c-4.417969 0-8 3.582031-8 8s3.582031 8 8 8h64c4.417969 0 8-3.582031 8-8s-3.582031-8-8-8zm0 0"/><path d="m262.761719 198h-14.863281l9.136718-22.128906c1.019532-2.4375.738282-5.226563-.746094-7.410156-1.496093-2.195313-3.992187-3.496094-6.648437-3.460938h-48.5c-4.113281-.042969-7.574219 3.070312-7.964844 7.164062l-5.910156 63.300782c-.207031 2.210937.539063 4.402344 2.050781 6.027344 1.53125 1.636718 3.679688 2.546874 5.921875 2.507812h13.523438l-2.371094 40.640625c-.238281 3.671875 2.058594 7.035156 5.566406 8.152344 3.507813 1.113281 7.324219-.308594 9.246094-3.445313l48.386719-79.1875c1.507812-2.46875 1.566406-5.558594.148437-8.082031-1.414062-2.519531-4.082031-4.082031-6.976562-4.078125zm-38.53125 55.71875 1-17.09375c.128906-2.222656-.652344-4.402344-2.167969-6.035156-1.503906-1.625-3.605469-2.558594-5.820312-2.589844h-13.222657l4.414063-47h29.25l-9.132813 22.035156c-1.019531 2.457032-.734375 5.261719.75 7.46875 1.488281 2.203125 3.984375 3.519532 6.644531 3.496094h12.554688zm0 0"/></svg>