<?xml version="1.0" encoding="iso-8859-1"?>
<!-- Generator: Adobe Illustrator 19.0.0, SVG Export Plug-In . SVG Version: 6.00 Build 0)  -->
<svg version="1.1" id="Capa_1" xmlns="http://www.w3.org/2000/svg" xmlns:xlink="http://www.w3.org/1999/xlink" x="0px" y="0px"
	 viewBox="0 0 512 512" style="enable-background:new 0 0 512 512;" xml:space="preserve">
<g>
	<g>
		<path d="M427.116,48.505H84.884c-8.93,0-16.168,7.238-16.168,16.168v237.137c0,8.93,7.238,16.168,16.168,16.168h342.232
			c8.93,0,16.168-7.238,16.168-16.168V64.674C443.284,55.743,436.046,48.505,427.116,48.505z M410.947,285.642H101.053v-204.8
			h309.895V285.642z"/>
	</g>
</g>
<g>
	<g>
		<path d="M356.514,167.074H156.025c-8.93,0-16.168,7.238-16.168,16.168s7.238,16.168,16.168,16.168h200.488
			c8.936,0,16.168-7.238,16.168-16.168S365.444,167.074,356.514,167.074z"/>
	</g>
</g>
<g>
	<g>
		<path d="M243.335,107.789h-87.31c-8.93,0-16.168,7.238-16.168,16.168s7.238,16.168,16.168,16.168h87.31
			c8.93,0,16.168-7.238,16.168-16.168S252.265,107.789,243.335,107.789z"/>
	</g>
</g>
<g>
	<g>
		<path d="M356.514,226.358H156.025c-8.93,0-16.168,7.238-16.168,16.168s7.238,16.168,16.168,16.168h200.488
			c8.936,0,16.168-7.238,16.168-16.168S365.444,226.358,356.514,226.358z"/>
	</g>
</g>
<g>
	<g>
		<path d="M282.139,0H230.4c-8.93,0-16.168,7.238-16.168,16.168v48.505h32.337V32.337h19.402v32.337h32.337V16.168
			C298.307,7.238,291.069,0,282.139,0z"/>
	</g>
</g>
<g>
	<g>
		<path d="M265.971,307.2v172.463h-19.402V307.2h-32.337v188.632c0,8.93,7.238,16.168,16.168,16.168h51.739
			c8.93,0,16.168-7.238,16.168-16.168V307.2H265.971z"/>
	</g>
</g>
<g>
</g>
<g>
</g>
<g>
</g>
<g>
</g>
<g>
</g>
<g>
</g>
<g>
</g>
<g>
</g>
<g>
</g>
<g>
</g>
<g>
</g>
<g>
</g>
<g>
</g>
<g>
</g>
<g>
</g>
</svg>
