<svg height="472pt" viewBox="-14 0 472 472.00094" width="472pt" xmlns="http://www.w3.org/2000/svg"><path d="m213 167.308594c-11.914062-.011719-21.570312-9.667969-21.582031-21.582032 0-3.316406-2.6875-6-6-6s-6 2.683594-6 6c.023437 16.222657 11.625 30.117188 27.582031 33.035157v11.238281c0 3.316406 2.6875 6 6 6 3.316406 0 6-2.683594 6-6v-11.238281c17.101562-3.101563 29.011719-18.742188 27.453125-36.054688-1.558594-17.308593-16.070313-30.570312-33.453125-30.566406-11.851562-.015625-21.472656-9.59375-21.546875-21.445313-.070313-11.855468 9.433594-21.546874 21.285156-21.707031.089844 0 .175781.011719.261719.011719.089844 0 .175781-.007812.261719-.011719 11.808593.152344 21.308593 9.757813 21.324219 21.570313 0 3.3125 2.683593 6 6 6 3.3125 0 6-2.6875 6-6-.023438-16.222656-11.625-30.117188-27.585938-33.035156v-9.523438c0-3.3125-2.683594-6-6-6-3.3125 0-6 2.6875-6 6v9.523438c-17.097656 3.101562-29.003906 18.742187-27.445312 36.050781 1.558593 17.308593 16.066406 30.570312 33.445312 30.566406 11.863281.082031 21.4375 9.722656 21.4375 21.585937 0 11.863282-9.574219 21.5-21.4375 21.582032zm0 0"/><path d="m24.363281 405h128.886719l-15.277344 55h-30.316406c-3.3125 0-6 2.6875-6 6 0 3.316406 2.6875 6 6 6h228.691406c3.3125 0 6-2.683594 6-6 0-3.3125-2.6875-6-6-6h-30.320312l-15.273438-55h128.882813c6.484375.015625 12.703125-2.558594 17.277343-7.152344 4.578126-4.59375 7.128907-10.824218 7.085938-17.308594v-267.925781c.046875-6.5-2.496094-12.746093-7.070312-17.367187-4.570313-4.617188-10.792969-7.226563-17.292969-7.246094h-93.636719v-11h52.195312c1.582032-.035156 3.085938-.703125 4.179688-1.851562 1.089844-1.152344 1.675781-2.6875 1.625-4.273438v-36.34375c.015625-9.195312-3.644531-18.019531-10.167969-24.503906-6.519531-6.484375-15.363281-10.0937502-24.5625-10.027344h-208.582031c-18.53125 0-33.601562 14.738281-33.601562 33.035156l-.386719 54.964844h-82.335938c-6.496093.019531-12.71875 2.628906-17.292969 7.246094-4.570312 4.621094-7.1132808 10.867187-7.070312 17.367187v267.925781c-.0390625 6.484376 2.511719 12.714844 7.085938 17.308594 4.574218 4.59375 10.796874 7.167969 17.277343 7.152344zm269.214844 55h-143.152344l15.273438-55h112.601562zm126.058594-67h-395.273438c-3.300781.019531-6.46875-1.292969-8.796875-3.636719-2.324218-2.34375-3.609375-5.523437-3.566406-8.824219v-47.539062h420v47.539062c.042969 3.300782-1.242188 6.480469-3.566406 8.824219-2.324219 2.34375-5.496094 3.65625-8.796875 3.636719zm-70.421875-381h.046875c6.03125-.070312 11.84375 2.289062 16.121093 6.546875 4.277344 4.257813 6.660157 10.054687 6.617188 16.089844v30.363281h-46v-30.371094c.023438-6.046875 2.472656-11.832031 6.800781-16.058594 4.34375-4.28125 10.214844-6.644531 16.3125-6.570312zm-208.527344 0h182.152344c-5.648438 6.191406-8.796875 14.257812-8.839844 22.636719v212.375c.046875 8.730469-3.390625 17.121093-9.546875 23.3125-6.15625 6.191406-14.527344 9.671875-23.261719 9.675781h-.035156c-18.25-.054688-33.050781-14.808594-33.15625-33.0625v-15.191406c.046875-1.539063-.546875-3.027344-1.636719-4.117188-1.089843-1.085937-2.582031-1.675781-4.121093-1.628906h-124.5l1.339843-192.785156c.113281-11.824219 9.78125-21.316406 21.605469-21.214844zm-68.6875 234.9375v-8.9375h164v8.929688c.03125 12.59375 5.355469 24.597656 14.671875 33.070312h-145.914063c-8.730468-.035156-17.085937-3.539062-23.230468-9.742188-6.144532-6.199218-9.570313-14.589843-9.527344-23.320312zm-47.636719-146.9375h82.25l-.875 126h-39.929687c-1.546875-.050781-3.042969.539062-4.140625 1.625-1.097657 1.085938-1.699219 2.578125-1.667969 4.121094v15.277344c.019531 24.050781 18.972656 43.820312 43 44.855468v.121094h175v-.167969c1 .058594 2.300781.167969 3.226562.167969h.046876c11.914062-.023438 23.328124-4.792969 31.71875-13.246094 8.390624-8.457031 13.074218-19.902344 13.007812-31.816406v-146.9375h93.636719c3.320312.019531 6.492187 1.359375 8.8125 3.730469 2.324219 2.367187 3.601562 5.566406 3.550781 8.882812v208.386719h-420v-208.386719c-.046875-3.316406 1.230469-6.515625 3.550781-8.882812 2.324219-2.371094 5.496094-3.710938 8.8125-3.730469zm0 0"/></svg>