<svg id="Layer_1" height="512" viewBox="0 0 512 512" width="512" xmlns="http://www.w3.org/2000/svg" data-name="Layer 1"><path d="m497.782 129h-483.564a6.082 6.082 0 0 0 -6.218 5.872v105.855a6.427 6.427 0 0 0 6.218 6.273h164.053l-60.136 80.533a5.9 5.9 0 0 0 .08 7.209 5.986 5.986 0 0 0 7.039 1.813l60.52-25.245-6.894 65.2a6 6 0 0 0 10.777 4.209l66.343-89 66.343 89a6 6 0 0 0 10.777-4.219l-6.894-65.2 60.52 25.228a6 6 0 0 0 7.039-1.847 5.8 5.8 0 0 0 .08-7.141l-60.136-80.54h164.053a6.427 6.427 0 0 0 6.218-6.273v-105.855a6.082 6.082 0 0 0 -6.218-5.872zm-283.782 106v-94h84v94zm-194-94h182v94h-182zm176.391 156.051a6 6 0 0 0 -5.895-.727l-49.662 20.838 52.405-70.162h81.333l-81.458 109.135 5.657-53.574a6.12 6.12 0 0 0 -2.38-5.51zm174.775 20.111-49.666-20.77a5.965 5.965 0 0 0 -8.275 6.118l5.657 53.5-55.4-74.188 26.057-34.822h29.223zm120.834-82.162h-182v-94h182z"/></svg>