<svg height="471pt" viewBox="-49 0 471 471.53387" width="471pt" xmlns="http://www.w3.org/2000/svg"><path d="m15.265625 413.65625c9.734375 0 14.300781 3.644531 20.082031 8.253906 6.558594 5.234375 14.722656 11.746094 30.058594 11.746094s23.5-6.511719 30.058594-11.746094c5.777344-4.609375 10.34375-8.253906 20.078125-8.253906s14.300781 3.640625 20.078125 8.253906c6.5625 5.234375 14.726562 11.746094 30.0625 11.746094 15.332031 0 23.5-6.511719 30.054687-11.746094 5.78125-4.609375 10.347657-8.253906 20.082031-8.253906 9.734376 0 14.300782 3.640625 20.082032 8.253906 6.558594 5.234375 14.722656 11.746094 30.058594 11.746094 15.335937 0 23.5-6.511719 30.0625-11.746094 5.78125-4.609375 10.34375-8.253906 20.082031-8.253906s14.300781 3.644531 20.085937 8.253906c6.558594 5.234375 14.722656 11.746094 30.058594 11.746094 4.417969 0 8-3.582031 8-8s-3.582031-8-8-8c-9.734375 0-14.300781-3.644531-20.085938-8.253906-6.558593-5.234375-14.722656-11.746094-30.058593-11.746094-15.335938 0-23.5 6.511719-30.058594 11.746094-5.78125 4.609375-10.351563 8.253906-20.085937 8.253906-1 0-1.929688-.199219-2.824219-.277344l-19.332031-292.597656h33.953124c4.417969 0 8-3.582031 8-8s-3.582031-8-8-8h-3.5v-21.6875c.011719-4.484375-3.546874-8.167969-8.03125-8.3125h-22c-4.472656.152344-8.007812 3.839844-7.96875 8.3125v21.6875h-4v-36h17.5c3.238282.074219 6.1875-1.855469 7.417969-4.847656 1.234375-2.996094.496094-6.441406-1.855469-8.667969l-59-57.027344c-3.105468-2.992187-8.027343-2.984375-11.125.023438l-59 57.074219c-2.339843 2.203124-3.078124 5.625-1.851562 8.597656 1.238281 2.988281 4.179688 4.910156 7.414062 4.847656h17.5v36h-4v-21.6875c.011719-4.484375-3.546874-8.167969-8.03125-8.3125h-22c-4.472656.152344-8.007812 3.839844-7.96875 8.3125v21.6875h-3.5c-4.417968 0-8 3.582031-8 8s3.582032 8 8 8h33.941407l-18.492188 272.863281c-1.175781-.085937-2.386719-.066406-3.664062-.066406-15.335938 0-23.5 6.550781-30.058594 11.785156-5.78125 4.613281-10.34375 8.273438-20.078125 8.273438s-14.300781-3.632813-20.082031-8.242188c-6.558594-5.234375-14.722657-11.742187-30.058594-11.742187-4.417969 0-8 3.582031-8 8 0 4.417968 3.582031 8 8 8zm133.421875-214.121094c7.617188-3.3125 13.21875-2.613281 20.074219-1.753906 8.617187 1.085938 19.351562 2.4375 33.515625-5.46875 14.167968-7.902344 18.65625-17.742188 22.261718-25.648438 1.414063-3.445312 3.203126-6.726562 5.332032-9.785156l4.039062 61.121094c-12.152344 7.976562-16.691406 16.648438-20.738281 24.386719-3.964844 7.574219-7.386719 14.113281-18.683594 20.453125-11.300781 6.335937-18.671875 5.839844-27.195312 5.273437-6.785157-.453125-14.214844-.9375-23.378907 1.800781zm-5.960938 87.921875c9.285157-4.320312 15.9375-3.886719 23.5-3.378906 9.675782.648437 20.636719 1.378906 36.089844-7.285156 15.449219-8.660157 20.539063-18.398438 25.035156-26.988281 2.265626-4.339844 4.367188-8.335938 7.859376-12.152344l4.402343 66.5c-13.511719 9.015625-18.855469 18.21875-23.609375 26.425781-4.835937 8.34375-9.011718 15.546875-21.96875 23.234375-12.890625 7.644531-21.089844 7.707031-30.582031 7.777344-7.492187.058594-15.710937.121094-26.011719 3.925781zm109.53125-192.675781h6v14h-6zm-61.5-75.933594 39.222657 37.933594h-78.445313zm-25.5 53.933594h51v36h-51zm-42 22h6v14h-6zm33.914063 30h70.601563l.761718 11.710938c-11.269531 7.460937-15.289062 16.289062-18.554687 23.453124-3.300781 7.25-5.914063 13.011719-15.5 18.355469-9.585938 5.347657-15.820313 4.582031-23.722657 3.585938-5.851562-.734375-12.6875-1.734375-20.898437.265625l3.875-57.371094zm-20.960937 258.800781c11.078124-5.84375 18.683593-5.921875 27.359374-5.984375 10.316407-.078125 22.011719-.167968 38.621094-10.019531 16.542969-9.816406 22.445313-19.992187 27.648438-28.96875 3.109375-5.371094 5.964844-10.265625 11.042968-15.125l5.71875 86.492187-.722656-.574218c-6.558594-5.234375-14.722656-11.746094-30.058594-11.746094-15.335937 0-23.5 6.511719-30.058593 11.746094-5.78125 4.613281-10.347657 8.253906-20.078125 8.253906-9.734375 0-14.300782-3.640625-20.082032-8.253906-3.292968-2.78125-6.859374-5.222656-10.648437-7.28125zm0 0"/><path d="m8.265625 451.535156c9.734375 0 14.300781 3.640625 20.082031 8.253906 6.558594 5.230469 14.722656 11.746094 30.058594 11.746094s23.5-6.515625 30.058594-11.746094c5.777344-4.613281 10.34375-8.253906 20.078125-8.253906s14.300781 3.640625 20.078125 8.25c6.5625 5.234375 14.726562 11.75 30.0625 11.75 15.332031 0 23.5-6.515625 30.054687-11.746094 5.78125-4.613281 10.347657-8.253906 20.082031-8.253906 9.734376 0 14.300782 3.640625 20.082032 8.253906 6.558594 5.230469 14.722656 11.746094 30.058594 11.746094 15.335937 0 23.5-6.515625 30.0625-11.746094 5.78125-4.613281 10.34375-8.253906 20.082031-8.253906s14.300781 3.640625 20.085937 8.253906c6.558594 5.230469 14.722656 11.746094 30.058594 11.746094 4.417969 0 8-3.582031 8-8 0-4.417968-3.582031-8-8-8-9.734375 0-14.300781-3.644531-20.085938-8.253906-6.558593-5.234375-14.722656-11.746094-30.058593-11.746094-15.335938 0-23.5 6.511719-30.058594 11.746094-5.78125 4.609375-10.351563 8.253906-20.085937 8.253906-9.738282 0-14.300782-3.644531-20.082032-8.253906-6.558594-5.234375-14.722656-11.746094-30.058594-11.746094-15.335937 0-23.5 6.511719-30.058593 11.746094-5.78125 4.609375-10.347657 8.253906-20.078125 8.253906-9.734375 0-14.300782-3.644531-20.082032-8.253906-6.558593-5.234375-14.722656-11.746094-30.058593-11.746094-15.332031 0-23.5 6.511719-30.058594 11.746094-5.78125 4.609375-10.34375 8.253906-20.078125 8.253906s-14.300781-3.644531-20.082031-8.253906c-6.558594-5.234375-14.722657-11.746094-30.058594-11.746094-4.417969 0-8 3.582032-8 8 0 4.417969 3.582031 8 8 8zm0 0"/></svg>