<svg height="452pt" viewBox="0 -19 452 452" width="452pt" xmlns="http://www.w3.org/2000/svg"><path d="m322 35c0-3.3125-2.6875-6-6-6h-290c-3.3125 0-6 2.6875-6 6v30c0 3.3125 2.6875 6 6 6h290c3.3125 0 6-2.6875 6-6zm-290 6h278v18h-278zm0 0"/><path d="m452 26c0-14.359375-11.640625-26-26-26h-400c-14.359375 0-26 11.640625-26 26v361c0 14.359375 11.640625 26 26 26h400c14.359375 0 26-11.640625 26-26zm-25.800781 374h-400.398438c-3.644531.085938-7.171875-1.308594-9.769531-3.867188-2.601562-2.554687-4.054688-6.054687-4.03125-9.703124v-284.429688h428v284.429688c.023438 3.648437-1.429688 7.148437-4.03125 9.703124-2.597656 2.558594-6.125 3.953126-9.769531 3.867188zm-400.398438-388h400.398438c3.644531-.085938 7.171875 1.308594 9.769531 3.867188 2.601562 2.554687 4.054688 6.054687 4.03125 9.703124v64.429688h-428v-64.429688c-.023438-3.648437 1.429688-7.148437 4.03125-9.703124 2.597656-2.558594 6.125-3.953126 9.769531-3.867188zm0 0"/><path d="m432 35c0-3.3125-2.6875-6-6-6h-30c-3.3125 0-6 2.6875-6 6v30c0 3.3125 2.6875 6 6 6h30c3.3125 0 6-2.6875 6-6zm-30 6h18v18h-18zm0 0"/><path d="m380 35c0-3.3125-2.6875-6-6-6h-30c-3.3125 0-6 2.6875-6 6v30c0 3.3125 2.6875 6 6 6h30c3.3125 0 6-2.6875 6-6zm-30 6h18v18h-18zm0 0"/><path d="m173.957031 281h-11.957031v-.84375c4-2.84375 7.328125-6.191406 11.324219-10.1875 10.640625-10.625 18.433593-21.828125 23.238281-33.296875 6.738281-16.09375 7.027344-33.390625.84375-48.714844-4.675781-11.578125-13.285156-18.414062-22.792969-18.550781-10.144531-21.167969-34.246093-31.730469-56.691406-24.851562-18.925781 5.46875-34.546875 18.171874-42.859375 34.847656-4.910156 9.976562-7.226562 21.027344-6.730469 32.136718 1.152344 27.902344 16.667969 53.867188 39.667969 67.230469v2.230469h-11.871094c-22.707031 0-41.117187 18.402344-41.128906 41.109375v33.363281c0 3.3125 2.644531 5.527344 5.957031 5.527344h148.171875c3.3125 0 5.871094-2.214844 5.871094-5.527344v-33.363281c.03125-22.6875-18.351562-41.101563-41.042969-41.109375zm-53.957031 5.9375v-8.648438c4.800781 1.664063 9.832031 2.578126 14.910156 2.710938h.367188c5.082031 0 9.722656-1.234375 14.722656-2.765625v9.371094c0 8.28125-6.714844 15-15 15s-15-6.71875-15-15zm51-72.0625v17.242188c0 20-16.070312 36.398437-35.777344 36.539062-9.589844.074219-18.8125-3.691406-25.617187-10.457031-6.800781-6.761719-10.621094-15.960938-10.605469-25.554688v-3.089843c24.078125-4.707032 45.054688-19.363282 57.753906-40.355469 1.53125.570312 2.992188 1.320312 4.347656 2.234375 6.386719 4.316406 10.132813 11.59375 9.9375 19.300781zm-85.199219-30.117188c6.816407-13.679687 19.738281-24.132812 35.449219-28.671874 8.796875-2.722657 18.304688-1.9375 26.535156 2.1875 7.761719 4.042968 13.835938 10.703124 17.148438 18.796874l.21875.652344c.984375 2.945313 4.054687 4.65625 7.078125 3.9375 1.472656-.347656 9.074219-1.472656 14.027343 10.792969 4.992188 12.371094 4.707032 26.429687-.800781 39.585937-.855469 2.039063-1.796875 4.074219-2.878906 6.097657.265625-1.996094.40625-4.007813.421875-6.019531v-17.152344l.023438-4.0625c.265624-11.785156-5.496094-22.894532-15.285157-29.464844-3.945312-2.664062-8.441406-4.398438-13.152343-5.070312-2.472657-.34375-4.894532.878906-6.09375 3.066406-18.863282 34.527344-52.042969 38.527344-54.804688 38.800781-3.753906.171875-6.707031 3.273437-6.6875 7.03125v7.378906c-.011719 2.152344.117188 4.300781.386719 6.433594-4.226563-8.769531-6.628907-18.304687-7.054688-28.03125-.417969-9.085937 1.460938-18.125 5.46875-26.289063zm117.199219 164.242188h-136v-26.890625c.003906-16.082031 13.046875-29.117187 29.128906-29.109375h12.378906c2.539063 12.566406 13.585938 21.601562 26.40625 21.601562 12.820313 0 23.867188-9.035156 26.40625-21.601562h12.636719c7.714844 0 15.113281 3.070312 20.5625 8.53125 5.445313 5.460938 8.5 12.867188 8.480469 20.578125zm0 0"/><path d="m249 198h82c3.3125 0 6-2.6875 6-6s-2.6875-6-6-6h-82c-3.3125 0-6 2.6875-6 6s2.6875 6 6 6zm0 0"/><path d="m391 216h-142c-3.3125 0-6 2.6875-6 6s2.6875 6 6 6h142c3.3125 0 6-2.6875 6-6s-2.6875-6-6-6zm0 0"/><path d="m391 246h-142c-3.3125 0-6 2.6875-6 6s2.6875 6 6 6h142c3.3125 0 6-2.6875 6-6s-2.6875-6-6-6zm0 0"/><path d="m391 276h-142c-3.3125 0-6 2.6875-6 6s2.6875 6 6 6h142c3.3125 0 6-2.6875 6-6s-2.6875-6-6-6zm0 0"/><path d="m391 306h-142c-3.3125 0-6 2.6875-6 6s2.6875 6 6 6h142c3.3125 0 6-2.6875 6-6s-2.6875-6-6-6zm0 0"/></svg>