<svg height="495pt" viewBox="0 -149 495.996 495" width="495pt" xmlns="http://www.w3.org/2000/svg"><path d="m472.40625 77.535156h-1.222656l-30.621094-57.058594c-6.703125-12.589843-19.707031-19.941406-33.960938-19.941406h-.121093l-60.65625-.035156c-2.078125-.039062-4.082031.765625-5.554688 2.230469-1.476562 1.464843-2.292969 3.464843-2.269531 5.542969v90.261718h-24v-10.386718c0-4.417969-3.910156-7.613282-8.328125-7.613282h-297.316406c-4.417969 0-8.355469 3.199219-8.355469 7.613282v66.949218c.128906 4.574219 3.78125 8.261719 8.355469 8.4375h9.21875c2.753906 19.4375 19.390625 33.882813 39.019531 33.882813s36.265625-14.445313 39.019531-33.882813h20.796875c2.75 19.4375 19.390625 33.886719 39.019532 33.886719 19.632812 0 36.269531-14.449219 39.019531-33.886719h20.792969c2.75 19.4375 19.386718 33.886719 39.019531 33.886719 19.632812 0 36.269531-14.449219 39.019531-33.886719h12.398438c4.5625-.183594 8.203124-3.871094 8.320312-8.4375v-7.5625h24v11.601563c-.058594 2.164062.730469 4.269531 2.199219 5.863281 1.421875 1.546875 3.402343 2.457031 5.5 2.535156h.023437l58.277344-.367187c3.644531 17.425781 19.082031 29.859375 36.886719 29.703125 17.800781-.152344 33.019531-12.847656 36.363281-30.335938h10.390625c4.417969 0 8.355469-3.167968 8.355469-7.585937v-57.714844c-.140625-12.984375-10.601563-23.496094-23.589844-23.699219zm-415.8125 103.449219c-12.929688 0-23.414062-10.484375-23.414062-23.414063 0-12.933593 10.484374-23.414062 23.414062-23.414062s23.414062 10.480469 23.414062 23.414062c-.015624 12.925782-10.488281 23.398438-23.414062 23.414063zm98.832031 0c-12.933593 0-23.414062-10.484375-23.414062-23.414063 0-12.933593 10.480469-23.414062 23.414062-23.414062 12.929688 0 23.414063 10.480469 23.414063 23.414062-.015625 12.925782-10.488282 23.398438-23.414063 23.414063zm98.832031 0c-12.933593 0-23.414062-10.484375-23.414062-23.414063 0-12.933593 10.480469-23.414062 23.414062-23.414062 12.929688 0 23.414063 10.480469 23.414063 23.414062-.015625 12.925782-10.492187 23.398438-23.414063 23.414063zm43.742188-33.449219h-5.753906c-4.707032-17.097656-20.257813-28.945312-37.988282-28.945312-17.734374 0-33.285156 11.847656-37.992187 28.945312h-22.851563c-4.707031-17.097656-20.253906-28.945312-37.988281-28.945312s-33.285156 11.847656-37.992187 28.945312h-22.847656c-4.707032-17.101562-20.257813-28.949218-37.992188-28.949218-17.738281 0-33.289062 11.847656-37.992188 28.949218h-2.601562v-51h282zm108.527344-131h.074218c8.324219 0 15.921876 4.109375 19.835938 11.460938l26.617188 49.539062h-99.054688v-61.285156zm-92.527344 115v-17h24v17zm126.628906 49.449219c-11.792968 0-21.351562-9.5625-21.351562-21.351563 0-11.792968 9.558594-21.351562 21.351562-21.351562 11.792969 0 21.351563 9.5625 21.347656 21.355469-.011718 11.785156-9.5625 21.332031-21.347656 21.347656zm39.371094-30.449219h-3.050781c-4.074219-16.765625-19.125-28.542968-36.378907-28.464844-17.253906.082032-32.199218 11.992188-36.121093 28.796876l-50.449219.246093v-57.578125h118.40625c4.15625.191406 7.460938 3.542969 7.59375 7.699219zm0 0"/></svg>