<svg height="498pt" viewBox="-52 0 498 498.29807" width="498pt" xmlns="http://www.w3.org/2000/svg"><path d="m158.402344 75.296875c0 4.417969 3.582031 8 8 8h34.121094c-2.980469 6-9.257813 11-16.523438 11h-17.601562c-3.242188-.101563-6.210938 1.824219-7.433594 4.828125-1.226563 3.007812-.453125 6.460938 1.941406 8.652344l43.976562 41.5c3.226563 3.035156 8.300782 2.882812 11.335938-.34375 3.035156-3.226563 2.882812-8.300782-.34375-11.335938l-29.445312-27.917968c15.066406-.878907 27.722656-11.648438 31.007812-26.382813h10.457031c4.417969 0 8-3.582031 8-8s-3.582031-8-8-8h-10.460937c-.804688-3.585937-2.300782-6.984375-4.402344-10h14.863281c4.417969 0 8-3.582031 8-8s-3.582031-8-8-8h-61.492187c-4.417969 0-8 3.582031-8 8s3.582031 8 8 8h17.601562c6.960938-.082031 13.367188 3.792969 16.523438 10h-34.121094c-4.417969 0-8.003906 3.582031-8.003906 8zm0 0"/><path d="m385.855469 147.296875h-107.667969c9.480469-14 14.984375-32.332031 14.984375-51.25.011719-53.03125-42.964844-96.03125-95.996094-96.046875s-96.035156 42.964844-96.046875 95.996094c0 18.917968 5.5 37.300781 14.984375 51.300781h-48.082031c-2.144531.074219-4.175781.988281-5.652344 2.542969l-59.738281 59.699218c-1.546875 1.523438-2.4375 3.589844-2.492187 5.757813v275.070313c.148437 4.460937 3.832031 7.984374 8.292968 7.929687h317.824219c2.117187.011719 4.152344-.816406 5.65625-2.308594l59.738281-59.574219c1.539063-1.476562 2.433594-3.503906 2.488282-5.636718v-275.074219c-.105469-4.554687-3.738282-8.238281-8.292969-8.40625zm-188.707031-131.070313c44.195312 0 80.023437 35.828126 80.023437 80.023438s-35.828125 80.019531-80.023437 80.023438c-44.191407 0-80.019532-35.828126-80.019532-80.023438.046875-44.175781 35.847656-79.972656 80.019532-80.023438zm-125.800782 147.070313h57.535156c5.074219 6 10.71875 10.105469 16.832032 14h-7.566406c-4.417969 0-8 3.582031-8 8s3.582031 8 8 8h112c4.417968 0 8-3.582031 8-8s-3.582032-8-8-8h-1.5625c6.113281-3.894531 11.757812-8 16.832031-14h101.125l-43.59375 44h-295.195313zm-55.199218 60h302v259h-302zm318 247.757813v-252.445313l44-43.59375v252.445313zm0 0"/></svg>