<?xml version="1.0" encoding="iso-8859-1"?>
<!-- Generator: Adobe Illustrator 19.0.0, SVG Export Plug-In . SVG Version: 6.00 Build 0)  -->
<svg version="1.1" id="Capa_1" xmlns="http://www.w3.org/2000/svg" xmlns:xlink="http://www.w3.org/1999/xlink" x="0px" y="0px"
	 viewBox="0 0 512 512" style="enable-background:new 0 0 512 512;" xml:space="preserve">
<g>
	<g>
		<path d="M277.041,14.027h-42.082c-58.01,0-105.206,47.195-105.206,105.205v70.137c0,69.611,56.636,126.247,126.247,126.247
			s126.247-56.636,126.247-126.247v-70.137C382.247,61.223,335.051,14.027,277.041,14.027z M340.164,189.37
			c0,46.41-37.755,84.164-84.164,84.164s-84.164-37.755-84.164-84.164v-70.137c0-34.802,28.321-63.123,63.123-63.123h42.082
			c34.809,0,63.123,28.321,63.123,63.123V189.37z"/>
	</g>
</g>
<g>
	<g>
		<path d="M343.671,246.882c-11.622,0-21.041,9.419-21.041,21.041s9.419,21.041,21.041,21.041
			c69.611,0,126.247,57.891,126.247,129.052v37.874H42.082v-37.881c0-71.154,56.636-129.045,126.247-129.045
			c11.622,0,21.041-9.419,21.041-21.041s-9.419-21.041-21.041-21.041C75.509,246.882,0,323.654,0,418.016v58.915
			c0,11.622,9.419,21.041,21.041,21.041h469.918c11.622,0,21.041-9.419,21.041-21.041v-58.922
			C512,323.647,436.484,246.882,343.671,246.882z"/>
	</g>
</g>
<g>
</g>
<g>
</g>
<g>
</g>
<g>
</g>
<g>
</g>
<g>
</g>
<g>
</g>
<g>
</g>
<g>
</g>
<g>
</g>
<g>
</g>
<g>
</g>
<g>
</g>
<g>
</g>
<g>
</g>
</svg>
