<?xml version="1.0"?>
<svg xmlns="http://www.w3.org/2000/svg" id="Layer_1" data-name="Layer 1" viewBox="0 0 512 512" width="512" height="512"><title>Parachute</title><path d="M164.586,474a6.127,6.127,0,0,0,4.357,2H343.057a6.125,6.125,0,0,0,4.357-2l24.01-25.49A6.091,6.091,0,0,0,373,444.325V381.347a5.936,5.936,0,0,0-1.548-4.095l-23.706-25.386A5.89,5.89,0,0,0,343.394,350H168.943a5.966,5.966,0,0,0-4.357,1.835l-24.01,25.406A5.89,5.89,0,0,0,139,381.347v62.978a6.091,6.091,0,0,0,1.576,4.187ZM361,383.713v58.222L340.476,464H273.268a53.878,53.878,0,0,0,.007-102h67.512Zm-105,70.9a41.777,41.777,0,1,1,41.777-41.777A41.824,41.824,0,0,1,256,454.613ZM151,383.737,171.524,362h67.2a53.878,53.878,0,0,0,.007,102H171.525L151,441.935Z"/><path d="M256,395.671a6.38,6.38,0,0,1,6.373,6.373,6,6,0,0,0,12,0A18.39,18.39,0,0,0,262,384.7V381a6,6,0,0,0-12,0v3.7a18.362,18.362,0,0,0,6,35.719,6.369,6.369,0,0,1,.31,12.731A6.011,6.011,0,0,0,255,433c-.117,0-.231.011-.346.018a6.382,6.382,0,0,1-5.027-6.227,6,6,0,0,0-12,0A18.4,18.4,0,0,0,249,443.771V447a6,6,0,0,0,12,0v-2.546a18.364,18.364,0,0,0-5-36.037,6.373,6.373,0,0,1,0-12.746Z"/><path d="M360.887,52.177c-31.9-29.106-75.933-43.261-120.795-38.832-44.013,4.343-83.587,26.307-108.607,60.3-22.8,31.565-32.908,71.4-27.745,109.261,5.253,40.272,26.791,76.055,45.828,107.783,7.086,11.515,14.265,23.31,21.315,35.31H121.465A6.607,6.607,0,0,0,115,332.224V493.448c0,3.314,3.151,5.552,6.465,5.552h269.07c3.314,0,6.465-2.238,6.465-5.552V332.224A6.607,6.607,0,0,0,390.535,326H340.508c2.834-4,5.661-9.345,8.431-13.989,4.638-7.775,9.434-15.759,14.153-23.531,18.727-31.035,39.954-66.182,45.243-106.145C414.648,134.7,396.473,84.846,360.887,52.177ZM313.323,249H262V27.677c15,1.048,29.851,13.211,41.932,34.583,16.265,29.82,24.644,76.474,21.435,119.267C323.917,204.243,319.488,225,313.323,249ZM198.2,249c-6.165-24-10.534-44.759-11.989-67.54-3.2-42.726,5.355-89.491,21.576-119.232C219.906,40.783,235,28.725,250,27.677V249ZM141.181,80.716c18.541-25.191,45.881-43.2,77.1-51.329-7.032,6.18-14.2,14.91-21.1,27.127-17.3,31.709-26.3,80.971-22.937,125.777,1.448,22.68,5.647,43.709,11.578,66.709h-46.2c-11.277-21-20.842-43.866-23.977-67.9C110.88,146.227,120.2,109.764,141.181,80.716ZM385,487H127V338H385ZM352.826,282.1c-4.735,7.8-9.543,15.857-14.192,23.652C334.653,312.425,330.559,320,326.5,326H184.835c-8.228-14-16.689-28.237-25.012-41.763C155.34,276.766,150.713,269,146.205,261H365.221C361.1,269,356.9,275.343,352.826,282.1Zm43.612-101.534C393.209,204.964,383.377,228,371.912,249H325.705c5.931-23,10.13-44.025,11.573-66.642,3.366-44.873-5.635-94.246-22.976-126.034-6.987-12.363-14.251-21.092-21.374-27.274a139.362,139.362,0,0,1,59.858,31.841C385.519,90.941,402.246,136.746,396.438,180.566Z"/></svg>
