<?xml version="1.0"?>
<svg xmlns="http://www.w3.org/2000/svg" id="Layer_1" data-name="Layer 1" viewBox="0 0 512 512" width="512" height="512"><title>Wifi tower</title><path d="M458.38,77.461a8,8,0,1,0-11.315,11.313,128.582,128.582,0,0,1,0,181.847,8,8,0,0,0,11.315,11.314,144.585,144.585,0,0,0,0-204.474Z"/><path d="M426.965,108.876a8,8,0,0,0-11.315,11.313,84.253,84.253,0,0,1,0,119.017,8,8,0,0,0,11.315,11.314A100.272,100.272,0,0,0,426.965,108.876Z"/><path d="M380.021,144.505a8,8,0,0,0,0,11.313,33.809,33.809,0,0,1,0,47.759,8,8,0,0,0,11.314,11.314,49.828,49.828,0,0,0,0-70.386A8,8,0,0,0,380.021,144.505Z"/><path d="M336,421H264V245.724a69.021,69.021,0,1,0-16,0V421H176a8,8,0,0,0,0,16H336a8,8,0,0,0,0-16ZM202.979,177.181A53.021,53.021,0,1,1,256,230.2,53.081,53.081,0,0,1,202.979,177.181Z"/><path d="M27.272,179.7A127.74,127.74,0,0,1,64.935,88.774,8,8,0,0,0,53.62,77.461a144.585,144.585,0,0,0,0,204.474,8,8,0,1,0,11.315-11.314A127.739,127.739,0,0,1,27.272,179.7Z"/><path d="M96.35,108.876a8,8,0,0,0-11.315,0,100.272,100.272,0,0,0,0,141.644A8,8,0,0,0,96.35,239.206a84.253,84.253,0,0,1,0-119.017A8,8,0,0,0,96.35,108.876Z"/><path d="M131.979,144.505a8,8,0,0,0-11.314,0,49.77,49.77,0,0,0,0,70.385,8,8,0,0,0,11.314-11.313,33.771,33.771,0,0,1,0-47.759A8,8,0,0,0,131.979,144.505Z"/></svg>
