<svg height="445pt" viewBox="-8 0 445 445.5" width="445pt" xmlns="http://www.w3.org/2000/svg"><path d="m420.25 245.5h-20v-143.132812c.167969-.902344.167969-1.832032 0-2.734376v-17.265624c.167969-.902344.167969-1.832032 0-2.734376v-15.632812c-.101562-17.859375-12.558594-33.269531-30-37.117188v-11.882812c0-4.417969-3.582031-8-8-8s-8 3.582031-8 8v11.824219c-17.480469 3.820312-29.957031 19.28125-30 37.175781v181.5h-40v-99.5c-.003906-.367188-.03125-.734375-.085938-1.101562-1.621093-37.078126-28.160156-67.226563-61.914062-71.386719v-19.511719c0-4.417969-3.582031-8-8-8s-8 3.582031-8 8v19.507812c-33.753906 4.164063-60.292969 34.3125-61.914062 71.390626-.054688.363281-.082032.730468-.085938 1.097656v99.503906h-40v-143.132812c.167969-.902344.167969-1.832032 0-2.734376v-17.265624c.167969-.902344.167969-1.832032 0-2.734376v-15.632812c.09375-17.546875-11.929688-32.835938-29-36.886719v-19.113281c0-4.417969-3.582031-8-8-8s-8 3.582031-8 8v18.636719c-18.058594 3.234375-31.152344 19.019531-31 37.363281v181.5h-20c-4.417969 0-8 3.082031-8 7.5v184c0 4.417969 3.582031 8.5 8 8.5h412c4.417969 0 8-4.082031 8-8.5v-184c0-4.417969-3.582031-7.5-8-7.5zm-80-156h44v4h-44zm22-47.5c12.144531.015625 21.984375 9.855469 22 22v9.5h-44v-9.5c.015625-12.144531 9.855469-21.984375 22-22zm-22 67.5h44v136h-44zm-180 44h108v4h-108zm54-64c26.199219 0 48.101562 20 52.976562 48h-105.953124c4.875-28 26.777343-48 52.976562-48zm-54 84h108v72h-108zm-116-84h44v4h-44zm22-47.5c12.144531.015625 21.984375 9.855469 22 22v9.5h-44v-9.5c.015625-12.144531 9.855469-21.984375 22-22zm-22 67.5h44v136h-44zm40.5 255.5c10.695312 0 19.5 9.789062 19.5 21.824219v42.675781h-39v-42.675781c0-12.035157 8.804688-21.824219 19.5-21.824219zm99.5 64.5v-56.898438c0-18.527343 13.34375-33.601562 30-33.601562s30 15.070312 30 33.601562v56.898438zm159.5-64.5c10.695312 0 19.5 9.789062 19.5 21.824219v42.675781h-39v-42.675781c0-12.035157 8.804688-21.824219 19.5-21.824219zm68.5 64.5h-33v-43.777344c-.019531-.289062-.050781-.578125-.101562-.863281-.957032-19.945313-16.472657-35.859375-35.371094-35.859375-18.902344 0-34.453125 15.914062-35.414063 35.859375-.054687.285156-.089843.574219-.113281.863281v43.777344h-48v-58.441406c.03125-.308594.046875-.621094.046875-.929688-1.199219-26.199218-21.390625-47.128906-46.101563-47.128906-24.710937 0-44.816406 20.921875-46.019531 47.128906.007813.308594.03125.621094.070313.929688v58.441406h-47.996094v-43.777344c-.019531-.289062-.050781-.578125-.101562-.863281-.957032-19.945313-16.472657-35.859375-35.371094-35.859375-18.902344 0-34.453125 15.914062-35.414063 35.859375-.054687.285156-.089843.574219-.113281.863281v43.777344h-33v-168h396zm0 0"/></svg>