<svg height="486pt" viewBox="0 -105 486.00386 486" width="486pt" xmlns="http://www.w3.org/2000/svg"><path d="m454.925781 109.8125c-.65625-.632812-1.433593-1.128906-2.28125-1.464844l-31.71875-47.390625c-7.867187-11.878906-21.183593-19-35.429687-18.949219h-64.496094v-4.347656c.023438-10.015625-3.953125-19.625-11.046875-26.695312-7.097656-7.070313-16.722656-11.0156252-26.738281-10.9570315h-276.363282c-1.804687-.0742187-3.558593.5976565-4.851562 1.8554685-1.296875 1.257813-2.0195312 2.992188-2 4.796875v218.074219c-.0898438 3.890625 2.964844 7.128906 6.851562 7.273437h13.535157c3.375 25.539063 25.148437 44.621094 50.90625 44.621094 25.761719 0 47.535156-19.082031 50.910156-44.621094h78.183594c3.378906 25.535157 25.148437 44.617188 50.910156 44.617188 25.757813 0 47.527344-19.082031 50.90625-44.617188h50.386719c3.382812 25.53125 25.152344 44.609376 50.90625 44.609376s47.523437-19.078126 50.90625-44.609376h24.75c3.886718-.144531 6.941406-3.382812 6.847656-7.273437v-66.75c.003906-11.523437-4.65625-22.558594-12.921875-30.59375zm-69.429687-53.804688c9.570312-.011718 18.503906 4.792969 23.773437 12.78125l26.207031 39.21875h-114.476562v-52zm-371.496094-42h269.214844c6.304687-.0625 12.371094 2.40625 16.84375 6.851563 4.46875 4.445313 6.972656 10.496094 6.941406 16.800781v180.347656h-4.863281c-3.609375-25.304687-25.28125-44.105468-50.84375-44.105468s-47.230469 18.800781-50.839844 44.105468h-78.316406c-3.609375-25.304687-25.28125-44.105468-50.84375-44.105468s-47.230469 18.800781-50.839844 44.105468h-6.453125zm57.292969 248.34375c-20.632813 0-37.363281-16.726562-37.363281-37.363281 0-20.632812 16.730468-37.363281 37.363281-37.363281 20.636719 0 37.363281 16.730469 37.363281 37.363281-.019531 20.625-16.738281 37.34375-37.363281 37.363281zm180 0c-20.632813 0-37.363281-16.726562-37.363281-37.363281 0-20.632812 16.730468-37.363281 37.363281-37.363281 20.636719 0 37.363281 16.730469 37.363281 37.363281-.019531 20.625-16.738281 37.34375-37.363281 37.363281zm152.199219 0c-20.632813 0-37.363282-16.726562-37.363282-37.363281 0-20.632812 16.730469-37.363281 37.363282-37.363281 20.636718 0 37.367187 16.730469 37.367187 37.363281-.023437 20.625-16.734375 37.335938-37.359375 37.363281zm68.507812-44.34375h-17.660156c-3.609375-25.308593-25.28125-44.109374-50.84375-44.109374s-47.234375 18.800781-50.839844 44.109374h-31.65625v-96h126.242188l16.117187 15.539063c5.535156 5.359375 8.652344 12.734375 8.640625 20.4375zm0 0"/><path d="m144.164062 75.007812h106.300782c3.867187 0 7-3.132812 7-7 0-3.867187-3.132813-7-7-7h-106.300782c-3.863281 0-7 3.132813-7 7 0 3.867188 3.136719 7 7 7zm0 0"/><path d="m58.277344 110.007812h192.191406c3.863281 0 7-3.132812 7-7 0-3.867187-3.136719-7-7-7h-192.191406c-3.867188 0-7 3.132813-7 7 0 3.867188 3.132812 7 7 7zm0 0"/><path d="m250.46875 131.007812h-130.6875c-3.863281 0-7 3.132813-7 7 0 3.867188 3.136719 7 7 7h130.6875c3.863281 0 7-3.132812 7-7 0-3.867187-3.136719-7-7-7zm0 0"/></svg>