<svg height="490pt" viewBox="0 -17 490.00062 490" width="490pt" xmlns="http://www.w3.org/2000/svg"><path d="m488.800781 171.308594-51.351562-82.746094c-1.484375-2.296875-4.066407-3.644531-6.800781-3.550781h-43.648438v-77.496094c.066406-2.03125-.71875-3.996094-2.167969-5.421875s-3.425781-2.1835938-5.457031-2.0859375h-268.75c-2.03125-.0976563-4.007812.6601565-5.457031 2.0859375s-2.234375 3.390625-2.167969 5.421875v77.492187h-33.492188c-2.5-.089843-4.890624 1.027344-6.429687 3l-61.503906 82.863282.003906-.054688c-1.023437 1.351563-1.578125 3.003906-1.578125 4.699219v31.539063c.160156 25.941406 21.210938 46.902343 47.152344 46.953124h.882812c8.019532-.027343 15.90625-2.035156 22.964844-5.839843v200.332031c-.082031 2.023438.6875 3.988281 2.121094 5.417969 1.4375 1.425781 3.40625 2.1875 5.429687 2.089843h332.898438c2.023437.097657 3.992187-.664062 5.429687-2.089843 1.433594-1.429688 2.203125-3.394531 2.121094-5.417969v-200.339844c7.113281 3.835938 15.070312 5.847656 23.152344 5.847656h.882812c26.078125-.15625 47.097656-21.414062 46.964844-47.492187v-31c0-1.488281-.414062-2.945313-1.199219-4.207031zm-62.609375-70.300782 41.449219 67h-59.871094l-20.769531-38.207031v-28.792969zm-309.929687 44h77.550781l-7.171875 23h-85.03125zm-20.261719 39h89v31.5c-1 24.425782-20.113281 44.402344-44.460938 44.519532-24.425781-.125-44.539062-20.097656-44.539062-44.484375zm105 0h88v31.5c.011719 24.300782-19.679688 44.011719-43.980469 44.019532-24.300781.011718-44.007812-19.679688-44.019531-43.980469zm2.40625-16 7.171875-23h68.84375l7.171875 23zm99.953125 0-7.171875-23h81l12.402344 23zm2.640625 16h89v31.5c-.203125 24.480469-19.980469 44.285157-44.460938 44.519532-24.425781-.121094-44.539062-20.09375-44.539062-44.480469zm-187-168h252v113h-252zm-45.464844 85h29.464844v35.207032l-20.382812 31.792968h-58.730469zm-25.601562 137h-.484375c-17.257813.109376-31.339844-13.792968-31.449219-31.050781v-22.949219h63v22.558594c.058594 6.929688-2.203125 13.683594-6.429688 19.175782-.238281.265624-.457031.542968-.660156.835937-.605468.738281-1.246094 1.453125-1.929687 2.144531-5.796875 5.933594-13.742188 9.28125-22.042969 9.285156zm39.066406 202v-196.574218c10.074219 19.671875 30.164062 32.195312 52.265625 32.582031 22.097656.382813 42.613281-11.4375 53.367187-30.746094 10.671876 19.078125 30.859376 30.851563 52.71875 30.753907 21.859376-.101563 41.941407-12.066407 52.433594-31.242188 10.492188 19.304688 30.726563 31.300781 52.699219 31.238281 21.96875-.0625 42.136719-12.171875 52.515625-31.539062v195.527343zm387-233.441406c.105469 17.257813-13.800781 31.335938-31.0625 31.441406h-.488281c-8.289063.046876-16.253907-3.195312-22.15625-9.011718-.773438-.765625-1.507813-1.570313-2.199219-2.40625-.214844-.3125-.449219-.613282-.703125-.890625-4.121094-5.382813-6.367187-11.964844-6.390625-18.742188v-22.949219h63zm0 0"/></svg>