<svg height="462pt" viewBox="0 -10 462.18976 462" width="462pt" xmlns="http://www.w3.org/2000/svg"><path d="m378.066406 98.199219c10.886719 0 20.597656-6.84375 24.261719-17.09375 3.664063-10.253907.488281-21.703125-7.933594-28.601563-8.421875-6.902344-20.269531-7.765625-29.601562-2.15625s-14.132813 16.476563-11.992188 27.152344l-34.652343 16.628906c-9.828126-9.910156-25.757813-10.203125-35.9375-.652344-10.179688 9.546876-10.90625 25.464844-1.640626 35.902344 9.265626 10.4375 25.15625 11.605469 35.84375 2.628906l36.132813 16.570313c-1.765625 12.570313 5.871094 24.558594 18.007813 28.269531 12.136718 3.714844 25.175781-1.945312 30.75-13.347656 5.574218-11.402344 2.027343-25.167969-8.359376-32.460938-10.386718-7.296874-24.539062-5.957031-33.371093 3.160157l-34.65625-15.894531c.78125-3.234376.925781-6.59375.429687-9.882813l35.355469-16.964844c4.738281 4.34375 10.933594 6.75 17.363281 6.742188zm0 44.15625c5.394532-.003907 9.769532 4.371093 9.769532 9.769531 0 5.394531-4.371094 9.769531-9.769532 9.769531-5.394531 0-9.769531-4.375-9.769531-9.769531.007813-5.394531 4.375-9.765625 9.769531-9.769531zm-78.199218-20.308594c-5.398438 0-9.769532-4.375-9.769532-9.769531 0-5.398438 4.375-9.769532 9.769532-9.769532 5.394531 0 9.769531 4.375 9.769531 9.769532-.007813 5.394531-4.378907 9.765625-9.769531 9.769531zm78.199218-59.386719c5.394532 0 9.769532 4.375 9.769532 9.769532 0 5.394531-4.371094 9.769531-9.769532 9.769531-5.394531 0-9.769531-4.371094-9.769531-9.769531.007813-5.390626 4.375-9.761719 9.769531-9.769532zm0 0"/><path d="m94.300781 273.242188h104.386719c4.417969 0 8-3.582032 8-8 0-4.417969-3.582031-8-8-8h-104.386719c-4.417969 0-8 3.582031-8 8 0 4.417968 3.582031 8 8 8zm0 0"/><path d="m253.628906 312.242188h-159.328125c-4.417969 0-8 3.582031-8 8 0 4.417968 3.582031 8 8 8h159.328125c4.417969 0 8-3.582032 8-8 0-4.417969-3.582031-8-8-8zm0 0"/><path d="m349.964844.09375c-55.707032 0-102.0625 41.148438-110.777344 94.148438h-231.410156c-2.082032-.027344-4.085938.792968-5.550782 2.273437-1.46875 1.480469-2.2695308 3.492187-2.226562 5.574219v332.375c-.0390625 2.074218.765625 4.078125 2.234375 5.546875 1.464844 1.464843 3.46875 2.273437 5.542969 2.230469h332.378906c2.082031.042968 4.089844-.757813 5.570312-2.222657 1.480469-1.46875 2.300782-3.472656 2.273438-5.554687v-209.953125c1 .011719 1.285156.023437 1.890625.023437 61.898437 0 112.300781-50.320312 112.300781-112.21875-.058594-61.957031-50.269531-112.167968-112.226562-112.222656zm-219.964844 110.148438h88v62.96875l-41.464844-14.574219c-1.660156-.605469-3.480468-.605469-5.140625 0l-41.394531 14.574219zm202 316h-316v-316h98v74.253906c-.050781 2.578125 1.167969 5.019531 3.261719 6.527344 2.089843 1.503906 4.789062 1.886718 7.21875 1.023437l49.515625-17.386719 49.527344 17.382813c.847656.296875 1.742187.449219 2.640624.449219 1.632813 0 3.222657-.515626 4.546876-1.472657 2.09375-1.507812 3.320312-3.941406 3.289062-6.523437v-74.253906h3.734375c-.011719 1-.101563 1.378906-.101563 2.113281 0 55.835937 41.371094 102.199219 94.371094 110.761719zm17.964844-217.707032c-53.160156 0-96.257813-43.097656-96.257813-96.257812 0-53.164063 43.097657-96.261719 96.261719-96.257813 53.160156 0 96.257812 43.097657 96.257812 96.257813-.0625 53.136718-43.121093 96.199218-96.261718 96.257812zm0 0"/></svg>