<svg height="477pt" viewBox="-116 0 477 477.93" width="477pt" xmlns="http://www.w3.org/2000/svg"><path d="m184.8125 205c0 4.417969 3.582031 8 8 8s8-3.582031 8-8v-18c0-4.417969-3.582031-8-8-8s-8 3.582031-8 8zm0 0"/><path d="m184.8125 149c0 4.417969 3.582031 8 8 8s8-3.582031 8-8v-94c0-4.417969-3.582031-8-8-8s-8 3.582031-8 8zm0 0"/><path d="m192.8125 33c4.417969 0 8-3.582031 8-8v-17c0-4.417969-3.582031-8-8-8s-8 3.582031-8 8v17c0 4.417969 3.582031 8 8 8zm0 0"/><path d="m137.8125 145c0 4.417969 3.582031 8 8 8s8-3.582031 8-8v-41c0-4.417969-3.582031-8-8-8s-8 3.582031-8 8zm0 0"/><path d="m145.8125 73c4.417969 0 8-3.582031 8-8v-28c0-4.417969-3.582031-8-8-8s-8 3.582031-8 8v28c0 4.417969 3.582031 8 8 8zm0 0"/><path d="m106.8125 135v-105c0-4.417969-3.582031-8-8-8s-8 3.582031-8 8v105c0 4.417969 3.582031 8 8 8s8-3.582031 8-8zm0 0"/><path d="m43.8125 159c0 4.417969 3.582031 8 8 8s8-3.582031 8-8v-71c0-4.417969-3.582031-8-8-8s-8 3.582031-8 8zm0 0"/><path d="m51.8125 66c4.417969 0 8-3.582031 8-8v-40c0-4.417969-3.582031-8-8-8s-8 3.582031-8 8v40c0 4.417969 3.582031 8 8 8zm0 0"/><path d="m229.953125 304.042969-100.640625-140.46875c-1.476562-2.152344-3.886719-3.480469-6.5-3.574219-2.605469.09375-5.015625 1.417969-6.492188 3.566406l-100.644531 139.964844c-.148437.207031-.289062.484375-.417969.699219-19.960937 34.25-19.707031 75.914062.683594 111.402343 22.070313 38.417969 63.023438 62.296876 106.871094 62.296876 43.925781 0 84.921875-23.910157 106.980469-62.40625 20.289062-35.402344 20.5-76.847657.5625-110.867188-.125-.210938-.257813-.414062-.402344-.613281zm-14.039063 103.53125c-19.085937 33.460937-54.582031 54.1875-93.101562 54.371093-38.136719 0-73.773438-20.789062-93-54.25-17.699219-30.800781-18.027344-65.410156-.917969-95.015624l93.90625-130.492188 93.933594 130.878906c17.070313 29.375 16.777344 63.796875-.820313 94.507813zm0 0"/><path d="m172.4375 323h-20.816406l12.175781-29.351562c1.023437-2.398438.742187-5.15625-.746094-7.300782-1.507812-2.167968-4.007812-3.425781-6.648437-3.347656h-59.265625c-4.105469-.058594-7.566407 3.039062-7.964844 7.128906l-7.21875 77.34375c-.210937 2.207032.535156 4.402344 2.050781 6.023438 1.527344 1.632812 3.671875 2.542968 5.910156 2.503906h18.410157l-3.007813 51.527344c-.234375 3.671875 2.0625 7.03125 5.570313 8.144531 3.507812 1.113281 7.320312-.308594 9.242187-3.445313l59.132813-96.773437c1.507812-2.523437 1.566406-5.652344.152343-8.226563-1.402343-2.558593-4.0625-4.167968-6.976562-4.226562zm-49.277344 73.453125 1.636719-27.90625c.132813-2.207031-.648437-4.371094-2.15625-5.988281-1.511719-1.613282-3.617187-2.539063-5.828125-2.558594h-18.113281l5.726562-61h40.019531l-12.175781 29.367188c-1.019531 2.394531-.738281 5.148437.746094 7.289062 1.507813 2.167969 4.011719 3.425781 6.648437 3.34375h18.511719zm0 0"/></svg>