<?xml version="1.0"?>
<svg xmlns="http://www.w3.org/2000/svg" id="Layer_1" data-name="Layer 1" viewBox="0 0 512 512" width="512" height="512"><title>Desk</title><path d="M492.721,205H454V72.951a47,47,0,1,0-94,0V79h-5.216a26.1,26.1,0,0,0-25.706,20.508l-7.748,34.667a5.5,5.5,0,0,0,1.174,4.818A5.786,5.786,0,0,0,327.186,141h75.705a5.688,5.688,0,0,0,5.855-6.98L401,99.454A26.056,26.056,0,0,0,375.292,79H372V72.951a35,35,0,1,1,70,0V205H272.635c.026,0,.365-.091.365-.327V151.792c0-3.313-3.009-5.792-6.322-5.792H246V98.912A5.727,5.727,0,0,0,240.237,93H41.935A5.87,5.87,0,0,0,36,98.912v52.88A6.126,6.126,0,0,0,41.935,158H62v46.673c0,.236.392.327.418.327H19.279A6.568,6.568,0,0,0,13,211.368V418.145A6.124,6.124,0,0,0,19.279,424H38v56.291A5.407,5.407,0,0,0,43.573,486H95.55c3.313,0,6.45-2.4,6.45-5.709V424H410v56.291c0,3.313,3.137,5.709,6.45,5.709h51.977A5.407,5.407,0,0,0,474,480.291V424h18.721A6.124,6.124,0,0,0,499,418.145V211.368A6.568,6.568,0,0,0,492.721,205ZM389.287,101.905,395.4,129h-60.73l6.116-27.095a13.989,13.989,0,0,1,14-10.9h20.508A13.988,13.988,0,0,1,389.287,101.905ZM228,158v41H207V158Zm33,41H240V158h21Zm-27-53H114V105H234ZM81,146V105h21v41ZM48,105H69v41H48Zm147,53v41H74V158Zm292,59V356H25V217ZM90,474H50V424H90Zm372,0H422V424h40Zm6.427-62H25V368H487v44Z"/><path d="M195.619,144.9a19.551,19.551,0,1,0-19.551-19.551A19.574,19.574,0,0,0,195.619,144.9Zm0-27.1a7.551,7.551,0,1,1-7.551,7.551A7.56,7.56,0,0,1,195.619,117.8Z"/><path d="M112.993,197.784a19.551,19.551,0,1,0-19.551-19.551A19.574,19.574,0,0,0,112.993,197.784Zm0-27.1a7.551,7.551,0,1,1-7.551,7.551A7.56,7.56,0,0,1,112.993,170.682Z"/></svg>
