<?xml version="1.0"?>
<svg xmlns="http://www.w3.org/2000/svg" id="Layer_1" data-name="Layer 1" viewBox="0 0 512 512" width="512" height="512"><title>Diploma</title><path d="M24.587,398H191v80.149a5.983,5.983,0,0,0,9.614,4.773L256,440.716,311.4,482.922a6,6,0,0,0,3.637,1.227,5.978,5.978,0,0,0,5.968-6V398H487.413c3.314,0,5.587-2.994,5.587-6.308V33.851A5.534,5.534,0,0,0,487.413,28H24.587A5.534,5.534,0,0,0,19,33.851V391.692C19,395.006,21.273,398,24.587,398Zm266.336-72.74a30.436,30.436,0,0,0-18.323,4.952l-6.546,4.316a18.244,18.244,0,0,1-20.108,0l-6.546-4.316a30.481,30.481,0,0,0-16.692-5c-.543,0-1.088.015-1.631.045l-8.013.441a18.28,18.28,0,0,1-17.3-10l-3.571-7.065a30.052,30.052,0,0,0-13.367-13.368l-7.066-3.569a18.264,18.264,0,0,1-10-17.307l.44-8.012a30.461,30.461,0,0,0-4.952-18.323l-4.316-6.545a18.243,18.243,0,0,1,0-20.107l4.316-6.547a30.455,30.455,0,0,0,4.952-18.321l-.44-8.014a18.263,18.263,0,0,1,10-17.306l7.066-3.569a30.054,30.054,0,0,0,13.367-13.367l3.571-7.067a18.287,18.287,0,0,1,17.3-10l8.013.441A30.425,30.425,0,0,0,239.4,132.7l6.546-4.316a18.244,18.244,0,0,1,20.108,0L272.6,132.7a30.434,30.434,0,0,0,18.323,4.952l8.013-.441a18.278,18.278,0,0,1,17.3,10l3.571,7.066a30.052,30.052,0,0,0,13.367,13.368l7.066,3.569a18.264,18.264,0,0,1,10,17.307l-.44,8.012a30.461,30.461,0,0,0,4.952,18.323l4.316,6.545a18.243,18.243,0,0,1,0,20.107l-4.316,6.547a30.455,30.455,0,0,0-4.952,18.321l.44,8.014a18.263,18.263,0,0,1-10,17.306l-7.066,3.569a30.054,30.054,0,0,0-13.367,13.367L316.24,315.7a18.292,18.292,0,0,1-17.3,10ZM321,329.139a40.83,40.83,0,0,0,5.936-8.028l3.578-7.067a18.148,18.148,0,0,1,8.07-8.067l7.068-3.569a30.265,30.265,0,0,0,16.574-28.676l-.44-8.014a18.39,18.39,0,0,1,2.987-11.057l4.317-6.546a30.228,30.228,0,0,0,0-33.318l-4.317-6.546a18.391,18.391,0,0,1-2.987-11.058l.441-8.012A30.265,30.265,0,0,0,345.654,160.5l-7.066-3.569a18.137,18.137,0,0,1-8.067-8.067l-3.57-7.066a30.244,30.244,0,0,0-28.676-16.573l-8.012.441a18.415,18.415,0,0,1-11.058-2.988l-6.546-4.316a30.226,30.226,0,0,0-33.318,0l-6.546,4.316a18.47,18.47,0,0,1-11.058,2.988l-8.012-.441A30.265,30.265,0,0,0,185.049,141.8l-3.57,7.067a18.137,18.137,0,0,1-8.067,8.067l-7.066,3.569a30.265,30.265,0,0,0-16.573,28.676l.441,8.014a18.39,18.39,0,0,1-2.987,11.057L142.91,214.8a30.228,30.228,0,0,0,0,33.318l4.317,6.546a18.391,18.391,0,0,1,2.987,11.058l-.441,8.012a30.265,30.265,0,0,0,16.573,28.677l7.066,3.569a18.144,18.144,0,0,1,8.067,8.068l3.585,7.065A40.878,40.878,0,0,0,191,329.143V344H130.9a48.414,48.414,0,0,0-17.723-31.222C102.924,304.289,89,299.049,73,297.85V127.686C105,125.263,126.936,108,130.9,82H381.679C385.619,108,408,125.246,439,127.682V297.857C407,300.28,385.062,318,381.1,344H321Zm-118,7.187a29.019,29.019,0,0,0,10.746,1.357l2.254-.125V456.116l-13,9.919ZM252.369,428.4,228,446.973V338.005a14.617,14.617,0,0,1,4.8,2.225l6.543,4.316a30.224,30.224,0,0,0,33.316,0l6.54-4.316a14.6,14.6,0,0,1,4.8-2.222V446.973L259.634,428.4A5.988,5.988,0,0,0,252.369,428.4ZM296,456.116V337.558l2.254.125A28.968,28.968,0,0,0,309,336.325v129.71ZM31,40H481V386H321V356h65.517a6.172,6.172,0,0,0,5.993-5.916,38.009,38.009,0,0,1,13.947-27.96c9.439-7.885,22.813-12.237,38.6-12.491A6.076,6.076,0,0,0,451,303.584V121.958a6.033,6.033,0,0,0-5.941-6c-30.418-.49-50.818-16.278-51.943-40.272A5.99,5.99,0,0,0,387.1,70H125.48a5.972,5.972,0,0,0-5.993,5.688,37.771,37.771,0,0,1-13.946,27.846c-9.439,7.884-22.812,12.179-38.6,12.434a6.024,6.024,0,0,0-5.94,5.99V303.584a6.031,6.031,0,0,0,5.94,6c30.8.5,51.432,16.513,52.528,40.495A6.188,6.188,0,0,0,125.48,356H191v30H31Z"/><path d="M341.839,231.456A85.839,85.839,0,1,0,256,317.3,85.936,85.936,0,0,0,341.839,231.456ZM256,305.3a73.839,73.839,0,1,1,73.839-73.839A73.923,73.923,0,0,1,256,305.3Z"/><path d="M310.087,217.658a6,6,0,0,0-4.844-4.083l-30.308-4.4-13.554-27.465a6,6,0,0,0-10.762,0l-13.554,27.465-30.308,4.4a6,6,0,0,0-3.326,10.234l21.931,21.378-5.177,30.187a6,6,0,0,0,8.706,6.325L256,267.447,283.109,281.7a6,6,0,0,0,8.706-6.325l-5.177-30.187,21.931-21.378A6,6,0,0,0,310.087,217.658ZM276,238.8a6,6,0,0,0-1.726,5.31l3.657,21.314-19.141-10.063a6,6,0,0,0-5.584,0L234.067,265.42l3.657-21.314A6,6,0,0,0,236,238.8L220.513,223.7l21.4-3.11a6,6,0,0,0,4.519-3.282L256,197.919l9.569,19.391a6,6,0,0,0,4.519,3.282l21.4,3.11Z"/></svg>
