<svg height="485pt" viewBox="0 -34 485.821 485" width="485pt" xmlns="http://www.w3.org/2000/svg"><path d="m483.234375 2.675781c-1.507813-1.476562-3.542969-2.292969-5.652344-2.265625h-.007812l-469.582031.402344c-2.117188-.007812-4.152344.828125-5.652344 2.324219-1.5 1.496093-2.339844 3.527343-2.339844 5.644531l.242188 242.636719c0 4.417969 3.582031 8 8 8h.007812l10.910156-.023438.152344 149.105469c.003906 2.113281.851562 4.136719 2.351562 5.621094 1.503907 1.488281 3.535157 2.3125 5.648438 2.296875h.007812l47.46875-.027344c.027344 0 .050782.027344.074219.027344l70.738281-.023438c.027344 0 .054688.023438.082032.019531l313.390625-.300781c4.417969-.003906 7.992187-3.582031 7.992187-8l-.148437-149.179687 10.910156-.007813c4.417969-.003906 7.996094-3.589843 7.992187-8.007812l-.238281-242.621094c0-2.113281-.847656-4.136719-2.347656-5.621094zm-400.472656 302.816407 54.730469-.054688.101562 95.003906-54.734375.058594zm70.828125 94.933593-.105469-103.015625c-.003906-4.414062-3.582031-7.996094-8-8h-.007813l-70.730468.082032c-4.421875.003906-8 3.589843-7.992188 8.011718l.101563 103.007813-31.554688.035156-.140625-141.183594 415.761719-.417969.140625 141.183594zm305.332031-157.015625h-431.78125l-10.90625-.007812-.222656-226.660156 453.585937-.460938.226563 226.886719zm0 0"/><path d="m413.25 289.410156h-.007812l-203.460938.171875c-2.113281-.019531-4.148438.8125-5.652344 2.304688-1.5 1.492187-2.339844 3.523437-2.335937 5.640625l.082031 64.726562c-.007812 4.445313 3.550781 8.078125 8 8.15625h.007812l203.457032-.433594c4.4375-.089843 7.988281-3.707031 7.992187-8.144531l-.082031-64.492187c-.003906-2.113282-.851562-4.140625-2.351562-5.628906-1.503907-1.484376-3.535157-2.3125-5.648438-2.300782zm-195.386719 64.632813-.058593-48.558594 187.457031-.234375.058593 48.558594zm0 0"/><path d="m58.140625 48.824219 51.085937-.050781.015626 16-51.082032.050781zm0 0"/><path d="m137.714844 48.746094 51.085937-.050782.015625 16-51.082031.050782zm0 0"/><path d="m217.289062 48.664062 51.085938-.050781.015625 16-51.085937.050781zm0 0"/><path d="m296.863281 48.585938 51.085938-.054688.015625 16-51.085938.054688zm0 0"/><path d="m376.4375 48.503906 51.085938-.050781.015624 16-51.085937.050781zm0 0"/><path d="m58.191406 98.929688 51.085938-.054688.015625 16-51.082031.054688zm0 0"/><path d="m137.765625 98.847656 51.085937-.050781.015626 16-51.082032.050781zm0 0"/><path d="m217.339844 98.765625 51.085937-.050781.015625 16-51.085937.050781zm0 0"/><path d="m296.914062 98.6875 51.085938-.054688.015625 16-51.085937.054688zm0 0"/><path d="m376.488281 98.605469 51.082031-.050781.019532 16-51.085938.050781zm0 0"/><path d="m58.246094 149.03125 51.082031-.054688.015625 16-51.082031.054688zm0 0"/><path d="m137.816406 148.949219 51.085938-.050781.015625 16-51.082031.050781zm0 0"/><path d="m217.390625 148.867188 51.085937-.050782.015626 16-51.085938.050782zm0 0"/><path d="m296.964844 148.792969 51.082031-.054688.015625 16-51.082031.054688zm0 0"/><path d="m376.539062 148.707031 51.085938-.050781.015625 16-51.085937.050781zm0 0"/><path d="m58.300781 199.105469h51.085938v16h-51.085938zm0 0"/><path d="m137.875 199.027344h51.085938v16h-51.085938zm0 0"/><path d="m217.449219 198.945312h51.082031v16h-51.082031zm0 0"/><path d="m297.023438 198.867188h51.082031v16h-51.082031zm0 0"/><path d="m376.597656 198.789062h51.082032v16h-51.082032zm0 0"/></svg>