<svg height="495pt" viewBox="0 0 495 495.99746" width="495pt" xmlns="http://www.w3.org/2000/svg"><path d="m248.5 398.558594c83.015625 0 150.558594-67.539063 150.558594-150.558594s-67.542969-150.558594-150.558594-150.558594c-83.019531 0-150.5625 67.539063-150.5625 150.558594s67.542969 150.558594 150.5625 150.558594zm0-289.117188c76.398438 0 138.558594 62.15625 138.558594 138.558594s-62.160156 138.558594-138.558594 138.558594c-76.402344 0-138.5625-62.160156-138.5625-138.558594s62.160156-138.558594 138.5625-138.558594zm0 0"/><path d="m475.976562 242h-52.925781c-3.3125 0-6 2.6875-6 6s2.6875 6 6 6h52.925781l-18.679687 18.613281c-1.535156 1.507813-2.148437 3.726563-1.597656 5.8125.546875 2.082031 2.171875 3.710938 4.253906 4.269531 2.082031.554688 4.300781-.046874 5.816406-1.582031l28.960938-28.863281c1.128906-1.125 1.765625-2.65625 1.765625-4.25s-.636719-3.125-1.765625-4.25l-28.960938-28.863281c-2.355469-2.308594-6.125-2.285157-8.453125.046875-2.324218 2.335937-2.332031 6.109375-.019531 8.453125zm0 0"/><path d="m248.5 416.550781c-3.316406 0-6 2.6875-6 6v52.929688l-18.617188-18.679688c-2.335937-2.347656-6.136718-2.355469-8.484374-.015625-2.347657 2.339844-2.351563 6.136719-.015626 8.484375l28.867188 28.964844c1.125 1.128906 2.652344 1.761719 4.25 1.761719 1.59375 0 3.121094-.632813 4.25-1.761719l28.863281-28.964844c2.339844-2.347656 2.332031-6.144531-.015625-8.484375s-6.144531-2.332031-8.484375.015625l-18.613281 18.679688v-52.929688c0-3.3125-2.6875-6-6-6zm0 0"/><path d="m223.882812 39.199219 18.617188-18.679688v52.929688c0 3.3125 2.683594 6 6 6 3.3125 0 6-2.6875 6-6v-52.929688l18.613281 18.679688c2.339844 2.347656 6.136719 2.355469 8.484375.015625s2.355469-6.140625.015625-8.484375l-28.863281-28.964844c-1.128906-1.128906-2.65625-1.765625-4.25-1.765625-1.597656 0-3.125.636719-4.25 1.765625l-28.867188 28.960937c-2.335937 2.347657-2.332031 6.144532.015626 8.484376 2.347656 2.339843 6.148437 2.335937 8.484374-.011719zm0 0"/><path d="m31.226562 281.113281c1.511719 1.535157 3.734376 2.136719 5.816407 1.582031 2.082031-.558593 3.707031-2.1875 4.253906-4.269531.546875-2.085937-.0625-4.304687-1.601563-5.8125l-18.675781-18.613281h52.925781c3.3125 0 6-2.6875 6-6s-2.6875-6-6-6h-52.925781l18.679688-18.613281c2.316406-2.34375 2.304687-6.117188-.019531-8.453125-2.324219-2.332032-6.097657-2.355469-8.453126-.046875l-28.964843 28.863281c-1.128907 1.125-1.761719 2.65625-1.761719 4.25s.632812 3.125 1.761719 4.25zm0 0"/><path d="m378.726562 413c-3.3125.011719-5.992187 2.699219-6 6.015625 0 1.585937.632813 3.105469 1.757813 4.226563 1.125 1.117187 2.648437 1.742187 4.234375 1.734374l40.890625.023438h.007813c1.585937.027344 3.117187-.585938 4.246093-1.699219 1.128907-1.113281 1.761719-2.636719 1.753907-4.222656l-.066407-40.988281c0-3.328125-2.671875-6.042969-6-6.089844h-.011719c-3.335937.058594-6.003906 2.789062-5.988281 6.125l.042969 26.425781-37.425781-37.398437c-2.347657-2.34375-6.152344-2.335938-8.496094.011718-2.339844 2.347657-2.335937 6.152344.011719 8.496094l37.425781 37.398438-26.371094-.058594zm0 0"/><path d="m129.3125 367.183594c-2.34375-2.339844-6.140625-2.339844-8.484375 0l-37.429687 37.425781.046874-26.484375c.011719-3.335938-2.652343-6.0625-5.988281-6.125h-.007812c-3.332031.054688-6.003907 2.773438-6 6.105469l-.070313 40.945312c0 1.585938.632813 3.109375 1.761719 4.226563 1.125 1.117187 2.652344 1.734375 4.238281 1.722656h.007813l40.890625-.011719c2.199218.089844 4.273437-1.035156 5.398437-2.925781 1.125-1.894531 1.121094-4.25-.003906-6.140625-1.128906-1.894531-3.203125-3.011719-5.402344-2.921875h-.011719l-26.371093.070312 37.425781-37.414062c1.125-1.121094 1.757812-2.644531 1.757812-4.234375s-.632812-3.113281-1.757812-4.238281zm0 0"/><path d="m371.925781 130.574219c1.589844 0 3.117188-.632813 4.242188-1.757813l37.429687-37.425781-.042968 26.484375c-.015626 3.335938 2.652343 6.066406 5.988281 6.125h.011719c3.332031-.054688 6-2.773438 6-6.105469l.066406-40.945312c0-1.589844-.632813-3.109375-1.757813-4.226563-1.128906-1.117187-2.65625-1.738281-4.242187-1.722656h-.007813l-40.890625.007812c-2.199218-.085937-4.273437 1.035157-5.398437 2.929688-1.125 1.890625-1.125 4.25.003906 6.140625s3.199219 3.011719 5.398437 2.921875h.011719l26.371094-.070312-37.425781 37.414062c-1.714844 1.710938-2.230469 4.292969-1.300782 6.53125.929688 2.242188 3.117188 3.699219 5.542969 3.699219zm0 0"/><path d="m77.449219 124h.007812c3.335938-.058594 6.003907-2.789062 5.992188-6.125l-.050781-26.429688 37.425781 37.402344c2.351562 2.34375 6.15625 2.335938 8.496093-.015625 2.34375-2.347656 2.339844-6.152343-.011718-8.496093l-37.421875-37.402344 26.371093.066406h.011719c3.3125-.011719 5.996094-2.699219 6-6.015625 0-1.585937-.632812-3.109375-1.757812-4.226563-1.125-1.121093-2.648438-1.746093-4.234375-1.734374l-40.890625-.023438h-.007813c-1.585937-.027344-3.117187.585938-4.246094 1.699219-1.128906 1.113281-1.761718 2.636719-1.753906 4.222656l.070313 40.988281c-.003907 3.328125 2.667969 6.042969 6 6.089844zm0 0"/><path d="m162.5 261.628906v60.71875c-.085938 4.914063 1.804688 9.652344 5.246094 13.160156 3.441406 3.507813 8.148437 5.484376 13.0625 5.492188h135.378906c4.914062-.007812 9.617188-1.984375 13.0625-5.492188 3.441406-3.507812 5.332031-8.246093 5.25-13.160156v-60.570312c6-2.191406 9-7.515625 9-13.414063v-45.339843c0-12.664063-9.847656-23.023438-22.507812-23.023438h-29.492188v-3.089844c0-12.121094-10.277344-21.910156-22.402344-21.910156h-41.210937c-12.117188 0-22.386719 9.789062-22.386719 21.910156v3.089844h-29.496094c-12.660156 0-22.503906 10.359375-22.503906 23.023438v43.796874c0 6.363282 3 12 9 14.808594zm153.6875 67.371094h-135.378906c-1.730469-.003906-3.386719-.71875-4.582032-1.972656-1.191406-1.257813-1.816406-2.949219-1.726562-4.679688v-56.785156l50 15.25v2.222656c0 13.253906 10.742188 24 24 24 13.253906 0 24-10.746094 24-24v-2.882812l50-14.753906v56.953124c.085938 1.730469-.542969 3.421876-1.734375 4.675782-1.191406 1.257812-2.847656 1.96875-4.578125 1.972656zm-79.6875-45.964844v-14.035156h24v14.035156c0 6.628906-5.375 12-12 12-6.628906 0-12-5.371094-12-12zm-19-106.125c0-5.5 4.886719-9.910156 10.390625-9.910156h41.207031c5.5 0 10.402344 4.40625 10.402344 9.910156v3.089844h-62zm-52 26.113282c0-6.046876 4.460938-11.023438 10.503906-11.023438h144.988282c6.042968 0 10.507812 4.976562 10.507812 11.023438v45.339843c.027344 1.085938-.667969 2.058594-1.703125 2.382813l-57.296875 16.898437v-4.679687c.0625-1.554688-.507812-3.070313-1.585938-4.199219-1.074218-1.125-2.566406-1.761719-4.121093-1.765625h-36.589844c-1.554687.003906-3.042969.640625-4.121094 1.765625s-1.648437 2.640625-1.582031 4.195313v5.308593l-55.785156-17c-1.945313-.597656-3.257813-2.417969-3.214844-4.453125zm0 0"/></svg>