<svg height="474pt" viewBox="-33 0 474 474.01269" width="474pt" xmlns="http://www.w3.org/2000/svg"><path d="m203.933594 117.105469c-7.269532-.007813-13.164063-5.902344-13.171875-13.175781 0-3.3125-2.6875-6-6-6s-6 2.6875-6 6c.015625 11.203124 7.417969 21.046874 18.171875 24.175781v6.859375c0 3.316406 2.6875 6 6 6 3.316406 0 6-2.683594 6-6v-6.363282c12.675781-2.566406 21.34375-14.316406 20.050781-27.183593-1.289063-12.867188-12.117187-22.660157-25.050781-22.660157-7.273438 0-13.171875-5.898437-13.171875-13.171874 0-7.277344 5.898437-13.175782 13.171875-13.175782 7.277344 0 13.175781 5.898438 13.175781 13.175782 0 3.3125 2.683594 6 6 6 3.3125 0 6-2.6875 6-6-.015625-11.972657-8.445313-22.28125-20.175781-24.671876v-6.949218c0-3.3125-2.683594-6-6-6-3.3125 0-6 2.6875-6 6v7.445312c-12.039063 3.484375-19.683594 15.300782-17.921875 27.710938 1.761719 12.414062 12.386719 21.636718 24.921875 21.636718 7.277344 0 13.175781 5.898438 13.175781 13.171876 0 7.277343-5.898437 13.175781-13.175781 13.175781zm0 0"/><path d="m277.816406 45.84375c-13.914062-28.078125-42.542968-45.84375-73.882812-45.84375-31.335938 0-59.964844 17.765625-73.878906 45.84375-78.445313 30.464844-130.1054692 106-130.0468755 190.152344.0039063 3.011718 2.2421875 5.554687 5.2265625 5.941406 2.988281.386719 5.800781-1.5 6.570313-4.414062 1.414062-5.367188 6.441406-20.699219 12.746093-27.527344 8.308594-8.011719 19.394531-12.5 30.9375-12.53125 11.53125-.050782 22.621094 4.425781 30.878907 12.476562 8.054687 8.316406 12.570312 19.429688 12.601562 31.007813 0 3.3125 2.6875 6 6 6s6-2.6875 6-6c-.179688-11.585938 4.347656-22.75 12.539062-30.945313 8.195313-8.191406 19.359376-12.714844 30.945313-12.539062 11.53125-.054688 22.621094 4.425781 30.882813 12.472656 8.050781 8.316406 12.570312 19.429688 12.597656 31.007812v118.019532h-6.828125c-3.3125 0-6.171875 2.324218-6.171875 5.640625v59.40625c0 6.628906-5.371094 12-12 12-6.625 0-12-5.371094-12-12v-12.828125c-.144532-3.425782-2.929688-6.144532-6.355469-6.21875h-25.65625c-3.351563.105468-6.011719 2.867187-5.988281 6.21875v12.828125c0 27.613281 22.386718 50 50 50 27.617187 0 50-22.386719 50-50v-59.40625c0-3.316407-2.855469-5.640625-6.171875-5.640625h-6.828125v-118.019532c-.175782-11.585937 4.347656-22.746093 12.542968-30.941406 8.191407-8.191406 19.355469-12.714844 30.941407-12.539062 11.53125-.054688 22.621093 4.425781 30.878906 12.476562 8.054687 8.316406 12.570313 19.429688 12.601563 31.007813 0 3.3125 2.6875 6 6 6s6-2.6875 6-6c-.179688-11.585938 4.347656-22.75 12.539062-30.941407 8.195312-8.195312 19.359375-12.71875 30.945312-12.542968 11.53125-.050782 22.621094 4.425781 30.878907 12.472656 6.308593 6.765625 11.375 22.199219 12.796875 27.589844.773437 2.914062 3.585937 4.800781 6.574218 4.414062 2.984376-.386718 5.222657-2.929687 5.226563-5.941406.058594-84.152344-51.597656-159.691406-130.042969-190.15625zm-66.882812 378.167969c0 20.988281-17.011719 38-38 38-20.984375 0-38-17.011719-38-38v-7.046875h14v7.046875c0 13.605469 10.394531 24.265625 24 24.265625 13.609375 0 24-10.660156 24-24.265625v-53.046875h14zm-7-412.011719c38.9375 0 70.5 31.5625 70.5 70.5s-31.5625 70.5-70.5 70.5c-38.933594 0-70.5-31.5625-70.5-70.5.046875-38.917969 31.585937-70.457031 70.5-70.5zm188 189.644531c-.039063-.042969-.082032-.085937-.125-.128906-10.519532-10.332031-24.683594-16.097656-39.429688-16.054687-14.640625 0-28.230468 5.507812-39.300781 15.929687-.085937.082031-.171875.167969-.253906.253906-3.964844 4.179688-7.308594 8.910157-9.925781 14.039063-2.621094-5.128906-5.964844-9.859375-9.925782-14.039063-.042968-.042969-.085937-.085937-.128906-.128906-10.519531-10.332031-24.6875-16.097656-39.429688-16.054687-14.640624 0-28.230468 5.507812-39.300781 15.929687-.085937.082031-.171875.167969-.257812.253906-3.960938 4.179688-7.300781 8.910157-9.921875 14.039063-2.617188-5.128906-5.960938-9.859375-9.925782-14.039063-.039062-.042969-.082031-.085937-.125-.128906-10.519531-10.332031-24.6875-16.097656-39.429687-16.054687-14.640625 0-28.230469 5.507812-39.300781 15.929687-.085938.082031-.171875.167969-.257813.253906-3.960937 4.179688-7.304687 8.910157-9.925781 14.039063-2.617188-5.128906-5.960938-9.859375-9.921875-14.039063-.042969-.042969-.085937-.085937-.128906-.128906-10.519531-10.332031-24.6875-16.097656-39.429688-16.054687-14.640625 0-28.230469 5.507812-39.300781 15.929687-.089844.082031-.171875.167969-.257812.253906-.371094.394531-.734376.804688-1.09375 1.230469 10.90625-62.320312 51.816406-115.269531 109.367187-141.550781-8.898437 33.480469 4.070313 68.953125 32.457031 88.800781 28.390625 19.851562 66.160156 19.851562 94.546875 0 28.390625-19.847656 41.359375-55.320312 32.460938-88.800781 57.550781 26.28125 98.460937 79.226562 109.367187 141.550781-.359375-.425781-.726562-.835938-1.101562-1.230469zm0 0"/></svg>