<svg height="465pt" viewBox="-52 0 465 465.93356" width="465pt" xmlns="http://www.w3.org/2000/svg"><path d="m151.800781 193.382812-64.054687-89.148437c-1.511719-2.066406-3.929688-3.269531-6.488282-3.234375-2.558593-.039062-4.980468 1.164062-6.496093 3.226562l-64.0625 88.953126c-.148438.207031-.289063.398437-.417969.621093-13.234375 22.707031-13.078125 50.28125.425781 73.78125 14.417969 25.414063 41.386719 41.113281 70.605469 41.089844 29.21875-.019531 56.167969-15.753906 70.546875-41.1875 13.4375-23.449219 13.566406-50.917969.34375-73.480469-.125-.214844-.257813-.421875-.402344-.621094zm-13.824219 66.140626c-11.527343 20.464843-33.1875 33.132812-56.675781 33.148437s-45.164062-12.625-56.722656-33.074219c-10.707031-18.632812-10.941406-39.550781-.664063-57.445312l57.320313-79.644532 57.339844 79.894532c10.261719 17.746094 10.046875 38.546875-.597657 57.121094zm0 0"/><path d="m119.632812 220.6875c-4.421874 0-8 3.582031-8 8-.074218 16.984375-13.890624 30.707031-30.875 30.664062-4.417968 0-8 3.582032-8 8 0 4.417969 3.582032 8 8 8 25.816407.027344 46.785157-20.847656 46.871094-46.664062 0-4.417969-3.582031-8-7.996094-8zm0 0"/><path d="m350.742188 333.386719-74.824219-104.152344c-1.511719-2.066406-3.933594-3.273437-6.492188-3.234375-2.5625-.039062-4.980469 1.164062-6.496093 3.226562l-74.828126 103.917969c-.148437.207031-.289062.398438-.417968.617188-15.21875 26.105469-15.03125 57.816406.5 84.847656 16.597656 29.269531 47.660156 47.347656 81.308594 47.324219 33.652343-.023438 64.6875-18.144532 81.246093-47.441406 15.453125-26.964844 15.605469-58.550782.40625-84.484376-.125-.207031-.257812-.421874-.402343-.621093zm-13.886719 77.148437c-13.707031 24.320313-39.453125 39.375-67.371094 39.390625-27.921875.019531-53.6875-15-67.425781-39.300781-12.765625-22.21875-13.027344-47.164062-.738282-68.5l68.089844-94.625 68.113282 94.898438c12.261718 21.179687 12.023437 45.988281-.667969 68.136718zm0 0"/><path d="m314.257812 365.84375c-4.417968 0-8 3.578125-8 8-.089843 20.582031-16.824218 37.207031-37.410156 37.164062-4.417968 0-8 3.582032-8 8 0 4.417969 3.582032 8 8 8 29.417969.035157 53.308594-23.75 53.410156-53.164062 0-4.421875-3.582031-8-8-8zm0 0"/><path d="m299.457031 205c0 4.417969 3.582031 8 8 8s8-3.582031 8-8v-18c0-4.417969-3.582031-8-8-8s-8 3.582031-8 8zm0 0"/><path d="m299.457031 149c0 4.417969 3.582031 8 8 8s8-3.582031 8-8v-94c0-4.417969-3.582031-8-8-8s-8 3.582031-8 8zm0 0"/><path d="m307.457031 33c4.417969 0 8-3.582031 8-8v-17c0-4.417969-3.582031-8-8-8s-8 3.582031-8 8v17c0 4.417969 3.582031 8 8 8zm0 0"/><path d="m252.457031 185c0 4.417969 3.582031 8 8 8s8-3.582031 8-8v-81c0-4.417969-3.582031-8-8-8s-8 3.582031-8 8zm0 0"/><path d="m268.457031 65v-28c0-4.417969-3.582031-8-8-8s-8 3.582031-8 8v28c0 4.417969 3.582031 8 8 8s8-3.582031 8-8zm0 0"/><path d="m205.457031 206c0 4.417969 3.582031 8 8 8s8-3.582031 8-8v-41c0-4.417969-3.582031-8-8-8s-8 3.582031-8 8zm0 0"/><path d="m213.457031 143c4.417969 0 8-3.582031 8-8v-105c0-4.417969-3.582031-8-8-8s-8 3.582031-8 8v105c0 4.417969 3.582031 8 8 8zm0 0"/><path d="m166.457031 80c-4.417969 0-8 3.582031-8 8v71c0 4.417969 3.582031 8 8 8s8-3.582031 8-8v-71c0-4.417969-3.582031-8-8-8zm0 0"/><path d="m166.457031 10c-4.417969 0-8 3.582031-8 8v40c0 4.417969 3.582031 8 8 8s8-3.582031 8-8v-40c0-4.417969-3.582031-8-8-8zm0 0"/></svg>