<svg height="454pt" viewBox="0 -2 454.00147 454" width="454pt" xmlns="http://www.w3.org/2000/svg"><path d="m450.964844 170.972656-218.820313-169.300781c-2.871093-2.226563-6.886719-2.230469-9.765625-.003906l-219.34375 169.300781c-1.941406 1.523438-3.066406 3.863281-3.035156 6.332031v89.429688c-.0273438 3.039062 1.679688 5.828125 4.402344 7.183593 2.644531 1.34375 5.835937 1.011719 8.148437-.847656l36.449219-28.324218v197.335937c0 4.417969 4.042969 7.964844 8.460938 7.964844h335.183593c4.480469.042969 8.183594-3.488281 8.355469-7.964844v-200.421875l40.421875 31.402344c1.367187 1.085937 3.0625 1.675781 4.808594 1.671875 1.183593.003906 2.351562-.277344 3.40625-.816407 2.714843-1.359374 4.410156-4.148437 4.363281-7.183593v-89.429688c.027344-2.464843-1.09375-4.804687-3.035156-6.328125zm-65.964844 263.070313h-320v-201.648438l162.226562-124.851562 157.773438 121.734375zm53-183.613281-205.890625-159.320313c-2.839844-2.226563-6.832031-2.230469-9.675781-.007813l-206.433594 159.355469v-69.222656l211.277344-163.121094 210.722656 163.113281zm0 0"/><path d="m188.222656 215.707031c-25.917968 0-46.117187 18.183594-51.449218 46.3125-7.523438 39.207031 15.898437 91.070313 85.175781 118.558594.136719.054687.277343.105469.417969.152344 2.988281 1.105469 6.273437 1.105469 9.257812 0 .160156-.054688.316406-.113281.472656-.175781 69.25-28.054688 92.652344-79.757813 85.121094-118.550782l-.011719-.058594c-5.617187-27.835937-25.886719-45.820312-51.644531-45.820312-12.367188 0-25.578125 4.378906-38.5 12.71875-13.070312-8.722656-26.113281-13.136719-38.839844-13.136719zm77.339844 16.417969c18.066406 0 31.84375 12.625 35.953125 32.953125 8.640625 44.589844-31.0625 82.378906-74.527344 100.28125-60.113281-24.1875-80.753906-67.746094-74.5-100.34375 3.898438-20.546875 17.589844-33.308594 35.734375-33.308594 10.578125 0 22.332032 4.597657 33.988282 13.292969 2.804687 2.09375 6.648437 2.117188 9.484374.058594 11.660157-8.460938 23.371094-12.933594 33.867188-12.933594zm0 0"/></svg>