<svg height="488pt" viewBox="-22 0 487 488" width="488pt" xmlns="http://www.w3.org/2000/svg"><path d="m207 8c0-4.417969-3.582031-8-8-8h-160c-4.417969 0-8 3.582031-8 8v160c0 4.417969 3.582031 8 8 8h160c4.417969 0 8-3.582031 8-8zm-105 8h34v20.332031l-14.5-5.097656c-1.65625-.601563-3.472656-.601563-5.132812 0l-14.367188 5.097656zm-55 0h39v31.617188c-.066406 2.574218 1.136719 5.019531 3.226562 6.527343 2.085938 1.511719 4.78125 1.890625 7.207032 1.023438l22.5-7.910157 22.519531 7.910157c.847656.296875 1.738281.449219 2.640625.449219 1.640625 0 3.242188-.515626 4.578125-1.472657 2.105469-1.503906 3.347656-3.9375 3.328125-6.527343v-31.617188h39v144h-144zm0 0"/><path d="m80.453125 95h50.375c4.421875 0 8-3.582031 8-8s-3.578125-8-8-8h-50.375c-4.417969 0-8 3.582031-8 8s3.582031 8 8 8zm0 0"/><path d="m157.347656 105h-76.894531c-4.417969 0-8 3.582031-8 8s3.582031 8 8 8h76.894531c4.417969 0 8-3.582031 8-8s-3.582031-8-8-8zm0 0"/><path d="m375.875 320.832031c-18.171875-.011719-35.535156 7.5-47.976562 20.746094-26.113282 27.171875-26.125 71.582031-.007813 99.019531l42.210937 44.085938c1.507813 1.578125 3.59375 2.46875 5.777344 2.46875 2.179688 0 4.269532-.890625 5.777344-2.46875l42.199219-44.074219c26.117187-27.171875 26.128906-71.582031.027343-99-12.441406-13.265625-29.820312-20.785156-48.007812-20.777344zm36.433594 108.699219-36.433594 38.054688-36.414062-38.035157c-20.285157-21.308593-20.296876-55.800781 0-76.910156 9.425781-10.085937 22.609374-15.808594 36.414062-15.808594s26.988281 5.722657 36.417969 15.808594c20.28125 21.304687 20.292969 55.792969.015625 76.890625zm0 0"/><path d="m375.875 349.699219c-18.261719 0-33.066406 14.804687-33.066406 33.066406 0 18.265625 14.804687 33.070313 33.066406 33.070313s33.066406-14.804688 33.066406-33.070313c-.015625-18.253906-14.808594-33.046875-33.066406-33.066406zm0 50.136719c-9.425781 0-17.066406-7.644532-17.066406-17.070313s7.640625-17.066406 17.066406-17.066406 17.066406 7.640625 17.066406 17.066406c-.007812 9.421875-7.644531 17.058594-17.066406 17.070313zm0 0"/><path d="m40 367h146c11.875 0 21.5 9.625 21.5 21.5s-9.625 21.5-21.5 21.5h-81.5c-21.539062 0-39 17.460938-39 39s17.460938 39 39 39h222c4.417969 0 8-3.582031 8-8s-3.582031-8-8-8h-222c-12.703125 0-23-10.296875-23-23s10.296875-23 23-23h81.5c20.710938 0 37.5-16.789062 37.5-37.5s-16.789062-37.5-37.5-37.5h-146c-12.980469 0-23.5-10.519531-23.5-23.5s10.519531-23.5 23.5-23.5h362.5c17.121094 0 31-13.878906 31-31s-13.878906-31-31-31h-295c-8.285156 0-15-6.714844-15-15s6.714844-15 15-15h116.5c17.367188 0 31.441406-14.078125 31.441406-31.441406 0-17.367188-14.074218-31.445313-31.441406-31.445313-4.425781 0-8.015625 3.589844-8.015625 8.015625 0 4.425782 3.589844 8.011719 8.015625 8.011719 8.519531 0 15.429688 6.910156 15.429688 15.429687 0 8.523438-6.910157 15.429688-15.429688 15.429688h-116.5c-17.121094 0-31 13.878906-31 31s13.878906 31 31 31h295c8.285156 0 15 6.714844 15 15s-6.714844 15-15 15h-362.5c-21.816406 0-39.5 17.683594-39.5 39.5s17.683594 39.5 39.5 39.5zm0 0"/></svg>