<svg height="456pt" viewBox="-4 0 456 456.00513" width="456pt" xmlns="http://www.w3.org/2000/svg"><path d="m431.339844 56.3125c-3.355469-32.113281-30.496094-56.457031-62.78125-56.3125h-288.894532c-32.285156-.144531-59.425781 24.199219-62.78125 56.3125l-16.835937 159.222656c-.238281 2.199219.496094 4.386719 2.007813 6 1.535156 1.636719 3.703124 2.535156 5.945312 2.464844h76.109375v224.367188c-.054687 2.050781.738281 4.035156 2.195313 5.480468 1.457031 1.445313 3.445312 2.222656 5.496093 2.152344h264.621094c2.050781.070312 4.039063-.707031 5.496094-2.152344 1.457031-1.445312 2.25-3.429687 2.191406-5.480468v-224.367188h76.113281c2.25.054688 4.414063-.859375 5.945313-2.507812 1.511719-1.621094 2.246093-3.820313 2.007812-6.027344zm-143.5625-40.3125c-3.773438 31-30.875 56.53125-63.667969 56.53125-32.789063 0-59.890625-25.53125-63.664063-56.53125zm76.332031 192v-51.808594c0-4.417968-3.578125-8-8-8-4.417969 0-8 3.582032-8 8v283.808594h-248v-283.808594c0-4.417968-3.578125-8-8-8-4.417969 0-8 3.582032-8 8v51.808594h-67.21875l15.902344-150.148438c2.519531-23.9375 22.804687-42.046874 46.871093-41.851562h64.683594c3.84375 40 38.140625 72.53125 79.761719 72.53125s75.921875-32.53125 79.765625-72.53125h64.683594c24.066406-.191406 44.347656 17.917969 46.867187 41.851562l15.90625 150.148438zm0 0"/><path d="m303.691406 206.867188c-4.992187-24.746094-23.046875-40.738282-46-40.738282-10.789062 0-22.28125 3.746094-33.519531 10.878906-11.371094-7.464843-22.730469-11.246093-33.839844-11.246093-23.097656 0-41.085937 16.171875-45.828125 41.179687-6.632812 34.566406 13.933594 80.257813 74.824219 104.417969.136719.054687.277344.105469.417969.152344 1.402344.484375 2.875.746093 4.359375.777343 1.484375-.023437 2.953125-.285156 4.355469-.777343.160156-.050781.316406-.109375.472656-.171875 60.863281-24.660156 81.40625-70.210938 74.769531-104.414063zm-79.597656 89.164062c-51.511719-20.875-69.226562-58.1875-63.871094-86.089844 3.300782-17.378906 14.832032-28.179687 30.109375-28.179687 8.992188 0 19.015625 3.933593 28.988281 11.375 2.808594 2.09375 6.652344 2.121093 9.484376.0625 9.980468-7.242188 19.96875-11.070313 28.890624-11.070313 15.214844 0 26.824219 10.679688 30.304688 27.871094 5.339844 27.558594-12.390625 64.714844-63.90625 86.03125zm0 0"/></svg>