<?xml version="1.0"?>
<svg xmlns="http://www.w3.org/2000/svg" id="Layer_1" data-name="Layer 1" viewBox="0 0 512 512" width="512" height="512"><title>Report</title><path d="M192,322v-6.047a24.626,24.626,0,0,0-5.565-48.615,12.629,12.629,0,1,1,12.629-12.629,6,6,0,0,0,12,0A24.67,24.67,0,0,0,193,230.975V225a6,6,0,0,0-12,0v5.692a24.626,24.626,0,0,0,5.435,48.646,12.629,12.629,0,1,1-12.629,12.628,6,6,0,0,0-12,0A24.669,24.669,0,0,0,180,315.737V322a6,6,0,0,0,12,0Z"/><path d="M184,160a6,6,0,0,0,6-6V126a6,6,0,0,0-12,0v28A6,6,0,0,0,184,160Z"/><path d="M281.511,201.3a5.982,5.982,0,0,0,4.243-1.757l20.022-20.022a6,6,0,0,0-8.485-8.486l-20.022,20.023a6,6,0,0,0,4.242,10.242Z"/><path d="M75.181,171.368a6,6,0,0,0-8.485,8.485l20.022,20.022A6,6,0,0,0,95.2,191.39Z"/><path d="M125.526,170.484a6,6,0,1,0,10.948-4.913l-11.593-25.834a6,6,0,0,0-10.948,4.913Z"/><path d="M231.765,170.639a6,6,0,0,0,7.742-3.474l10.07-26.466a6,6,0,0,0-11.216-4.267L228.291,162.9A6,6,0,0,0,231.765,170.639Z"/><path d="M260,328H239.571A77.933,77.933,0,1,0,133.3,328H111a6,6,0,0,0,0,12H260a6,6,0,0,0,0-12Zm-106.954,0a6.029,6.029,0,0,0-1.018-.788,65.933,65.933,0,1,1,68.965-.093,6,6,0,0,0-1.1.881H153.046Z"/><path d="M443.734,419.912a6,6,0,0,0-8.485,0l-7.019,7.019-8.305-8.305a87.634,87.634,0,0,0,21.551-57.963c0-46.623-36.476-84.91-82.476-88.018V93.2a5.807,5.807,0,0,0-1.528-4.243h.114l-80.9-80.956.029-.124A6.026,6.026,0,0,0,272.5,6H19.514C16.2,6,14,8.934,14,12.248V455.257A5.388,5.388,0,0,0,19.514,461H353.458A5.41,5.41,0,0,0,359,455.257v-6.576a88.131,88.131,0,0,0,52.209-21.571l8.421,8.306-7.058,7.116a6,6,0,0,0,.028,8.485l48.312,48.3c.2.2.4.38.6.559l.142.126c.074.073.152.146.23.216a21.994,21.994,0,0,0,30.146-32.006ZM279,26.733,338.973,87H279ZM26,449V18H267V93.2c0,3.313,2.188,5.8,5.5,5.8H347V272.641c-45,3.08-82.306,41.379-82.306,88.022S302,445.605,347,448.685V449Zm327.429-12.109a76.228,76.228,0,1,1,76.276-76.228A76.339,76.339,0,0,1,353.429,436.891ZM483.5,490.883a10.041,10.041,0,0,1-13.507.478c-.146-.141-.292-.275-.439-.407l-44.192-44.18,14.135-14.134,44.022,44.023A9.933,9.933,0,0,1,483.5,490.883Z"/></svg>
