<svg height="496pt" viewBox="-82 0 496 496.93298" width="496pt" xmlns="http://www.w3.org/2000/svg"><path d="m5.71875 417.363281 223.132812 79.109375c2 .710938 4.199219.59375 6.113282-.316406 1.933594-1 3.402344-2.710938 4.101562-4.769531l28.597656-80.898438h57.808594c4.417969 0 8.460938-3.144531 8.460938-7.5625v-291.882812c-.085938-1.828125-.773438-3.578125-1.960938-4.972657l-48.019531-60.476562c-1.554687-1.933594-3.894531-3.074219-6.378906-3.097656h-82.953125c-.316406 0-.632813-.808594-.957032-1.242188-11.816406-15.882812-26.296874-28.429687-40.765624-35.394531-16.144532-7.765625-30.703126-7.808594-40.992188-.152344-10.289062 7.660157-14.417969 21.628907-11.613281 39.320313 1.628906 9.496094 4.628906 18.707031 8.898437 27.34375l-26.628906 33.703125c-1.089844 1.421875-1.664062 3.175781-1.628906 4.96875v70.789062l-79.980469 225.316407c-.730469 1.988281-.636719 4.183593.257813 6.101562.898437 1.914062 2.519531 3.394531 4.507812 4.113281zm115.738281-398.878906c9.667969-7.195313 32.492188 1.003906 52.6875 24.003906h-37.5c-2.449219.03125-4.757812 1.171875-6.269531 3.101563l-9.941406 12.542968c-7.234375-18.609374-6.378906-34.144531 1.023437-39.648437zm-24.523437 95.34375 20.878906-26.449219c1.523438 2.320313 3.066406 4.621094 4.753906 6.886719 11.816406 15.882813 26.269532 28.464844 40.742188 35.429687 3.101562 1.503907 6.316406 2.765626 9.609375 3.769532 2.304687 17.285156 17.160156 30.125 34.597656 29.902344 17.4375-.222657 31.960937-13.433594 33.828125-30.773438 1.863281-17.339844-9.519531-33.339844-26.511719-37.261719-16.992187-3.925781-34.238281 5.464844-40.164062 21.863281-12.042969-4.488281-26.617188-15.417968-39.316407-32.480468-2.546874-3.445313-4.914062-7.015625-7.097656-10.699219l12.253906-15.527344h133.199219l44.226563 55.339844v280.660156h-221zm118.453125-1.398437c7.421875 3.707031 11.460937 11.90625 9.882812 20.054687-1.578125 8.144531-8.386719 14.242187-16.65625 14.910156-8.269531.671875-15.972656-4.25-18.84375-12.035156 5.246094-.476563 10.257813-2.375 14.5-5.492187 5.503907-4.09375 9.257813-10.03125 11.117188-17.441407zm-20.664063 4.597656c-.898437.65625-1.886718 1.179687-2.933594 1.550781 1.675782-2.464844 3.917969-4.492187 6.539063-5.914063-.851563 1.710938-2.085937 3.207032-3.605469 4.367188zm-113.789062 112.6875v173.210937c-.027344 2.054688.796875 4.03125 2.269531 5.464844 1.476563 1.429687 3.476563 2.191406 5.53125 2.097656h161.957031l-24.035156 68.015625-207.953125-73.65625zm0 0"/><path d="m287.757812 357.488281h-161.300781c-4.417969 0-8 3.582031-8 8 0 4.421875 3.582031 8 8 8h161.300781c4.417969 0 8-3.578125 8-8 0-4.417969-3.582031-8-8-8zm0 0"/><path d="m287.757812 319.488281h-161.300781c-4.417969 0-8 3.582031-8 8 0 4.421875 3.582031 8 8 8h161.300781c4.417969 0 8-3.578125 8-8 0-4.417969-3.582031-8-8-8zm0 0"/><path d="m148.316406 250.382812c0-20.164062-25.359375-18.644531-25.359375-26.644531 0-2.476562 2.320313-4.796875 8-4.796875 6.5625 0 8.082031 3.039063 10.960938 3.039063 3.519531 0 4.960937-4.402344 4.960937-6.558594 0-6.242187-11.679687-7.042969-15.921875-7.042969-10 0-20.480469 4.5625-20.480469 16.5625 0 18.71875 25.359376 17.039063 25.359376 26.71875 0 3.839844-4.078126 5.28125-7.757813 5.28125-7.441406 0-9.839844-5.921875-13.601563-5.921875-3.039062 0-5.4375 4-5.4375 6.722657 0 5.277343 8.796876 10.398437 19.28125 10.398437 11.597657 0 19.996094-6.238281 19.996094-17.757813zm0 0"/><path d="m181.394531 267.820312c11.039063 0 19.539063-5.121093 19.539063-18.878906v-21.199218c0-13.761719-8.5-18.882813-19.539063-18.882813-11.039062 0-19.460937 5.121094-19.460937 18.878906v21.203125c0 13.757813 8.421875 18.878906 19.460937 18.878906zm-7.460937-40.082031c0-5.519531 2.980468-8 7.460937-8s7.539063 2.480469 7.539063 8v21.203125c0 5.519532-3.058594 8-7.539063 8s-7.460937-2.480468-7.460937-8zm0 0"/><path d="m222.554688 267.488281h25.28125c2.398437 0 3.597656-2.777343 3.597656-5.5 0-2.71875-1.199219-5.5-3.597656-5.5h-17.902344v-43.867187c0-2.640625-3.378906-3.761719-6.5-3.761719-3.117188 0-6.5 1.121094-6.5 3.761719v50.878906c0 2.5625 2.902344 3.988281 5.621094 3.988281zm0 0"/><path d="m284.074219 208.488281h-14.160157c-3.28125 0-4.980468 2.132813-4.980468 4.132813v50.960937c0 2 1.703125 3.90625 4.980468 3.90625h14.160157c11.042969 0 19.859375-5.265625 19.859375-19.027343v-20.722657c0-13.757812-8.816406-19.25-19.859375-19.25zm6.859375 39.972657c0 5.441406-2.378906 8.027343-6.859375 8.027343h-7.140625v-37h7.140625c4.480469 0 6.859375 2.8125 6.859375 8.25zm0 0"/></svg>