<svg height="509pt" viewBox="-84 0 509 509.5" width="509pt" xmlns="http://www.w3.org/2000/svg"><path d="m8.75 509.5h325c4.417969 0 7.5-4.082031 7.5-8.5v-31c.09375-2.015625-.664062-3.980469-2.09375-5.40625-1.425781-1.429688-3.390625-2.1875-5.40625-2.09375h-52.5v-348.5c0-4.417969-3.582031-7.5-8-7.5h-26v-33.5c.09375-2.015625-.664062-3.980469-2.09375-5.40625-1.425781-1.429688-3.390625-2.1875-5.40625-2.09375h-16.5v-23.5c0-4.417969-3.582031-7.5-8-7.5h-36v-26.5c0-4.417969-3.582031-8-8-8s-8 3.582031-8 8v26.5h-36c-4.417969 0-8 3.082031-8 7.5v23.5h-16.5c-4.417969 0-8.5 3.082031-8.5 7.5v33.5h-25c-4.417969 0-8 3.082031-8 7.5v348.5h-52.5c-4.417969 0-8.5 3.082031-8.5 7.5v31c.195312 4.613281 3.886719 8.304688 8.5 8.5zm126.5-459h72v15h-72zm-25 31h121v25h-121zm-33 41h188v340h-24v-311.5c0-4.417969-3.582031-8-8-8s-8 3.582031-8 8v311.5h-25v-311.5c0-4.417969-3.582031-8-8-8s-8 3.582031-8 8v311.5h-26v-311.5c0-4.417969-3.582031-8-8-8s-8 3.582031-8 8v311.5h-26v-311.5c0-4.417969-3.582031-8-8-8s-8 3.582031-8 8v311.5h-23zm-61 356h309v15h-309zm0 0"/></svg>