<?xml version="1.0" encoding="iso-8859-1"?>
<!-- Generator: Adobe Illustrator 19.0.0, SVG Export Plug-In . SVG Version: 6.00 Build 0)  -->
<svg version="1.1" id="Capa_1" xmlns="http://www.w3.org/2000/svg" xmlns:xlink="http://www.w3.org/1999/xlink" x="0px" y="0px"
	 viewBox="0 0 512 512" style="enable-background:new 0 0 512 512;" xml:space="preserve">
<g>
	<g>
		<path d="M472.504,117.622H39.495c-9.554,0-17.297,7.743-17.297,17.297v307.892c0,9.554,7.743,17.297,17.297,17.297h433.009
			c9.554,0,17.297-7.743,17.297-17.297V134.919C489.802,125.365,482.058,117.622,472.504,117.622z M455.207,425.514H56.793V152.216
			h398.414V425.514z"/>
	</g>
</g>
<g>
	<g>
		<path d="M169.485,431.302c-6.688-6.832-17.643-6.959-24.464-0.271l-52.469,51.31c-6.827,6.677-6.948,17.626-0.271,24.458
			c3.39,3.459,7.876,5.201,12.368,5.201c4.365,0,8.729-1.638,12.097-4.93l52.468-51.31
			C176.04,449.084,176.161,438.135,169.485,431.302z"/>
	</g>
</g>
<g>
	<g>
		<path d="M420.964,481.568l-53.622-50.739c-6.93-6.573-17.88-6.262-24.447,0.675c-6.567,6.936-6.267,17.88,0.675,24.447
			l53.622,50.739c3.35,3.165,7.622,4.734,11.883,4.734c4.59,0,9.168-1.81,12.564-5.408
			C428.206,499.079,427.906,488.135,420.964,481.568z"/>
	</g>
</g>
<g>
	<g>
		<path d="M414.847,59.387H98.883c-9.554,0-17.297,7.743-17.297,17.297c0,9.554,7.743,17.297,17.297,17.297h315.964
			c9.554,0,17.297-7.743,17.297-17.297C432.144,67.131,424.401,59.387,414.847,59.387z"/>
	</g>
</g>
<g>
	<g>
		<path d="M308.757,0h-104.36c-9.554,0-17.297,7.743-17.297,17.297s7.743,17.297,17.297,17.297h104.36
			c9.56,0,17.297-7.743,17.297-17.297S318.311,0,308.757,0z"/>
	</g>
</g>
<g>
	<g>
		<path d="M432.721,362.09H119.063V200.649c0-9.554-7.743-17.297-17.297-17.297c-9.554,0-17.297,7.743-17.297,17.297v178.739
			c0,9.554,7.743,17.297,17.297,17.297h330.955c9.56,0,17.297-7.743,17.297-17.297C450.018,369.834,442.275,362.09,432.721,362.09z"
			/>
	</g>
</g>
<g>
	<g>
		<path d="M168.649,282.523c-9.554,0-17.297,7.743-17.297,17.297v79.568c0,9.554,7.743,17.297,17.297,17.297
			c9.554,0,17.297-7.743,17.297-17.297V299.82C185.946,290.266,178.203,282.523,168.649,282.523z"/>
	</g>
</g>
<g>
	<g>
		<path d="M239.568,236.396c-9.554,0-17.297,7.743-17.297,17.297v125.694c0,9.554,7.743,17.297,17.297,17.297
			s17.297-7.743,17.297-17.297V253.694C256.865,244.14,249.121,236.396,239.568,236.396z"/>
	</g>
</g>
<g>
	<g>
		<path d="M309.91,300.973c-9.554,0-17.297,7.743-17.297,17.297v61.117c0,9.554,7.743,17.297,17.297,17.297
			c9.56,0,17.297-7.743,17.297-17.297V318.27C327.207,308.716,319.464,300.973,309.91,300.973z"/>
	</g>
</g>
<g>
	<g>
		<path d="M380.829,288.865c-9.554,0-17.297,7.743-17.297,17.297v73.225c0,9.554,7.743,17.297,17.297,17.297
			c9.56,0,17.297-7.743,17.297-17.297v-73.225C398.126,296.608,390.383,288.865,380.829,288.865z"/>
	</g>
</g>
<g>
</g>
<g>
</g>
<g>
</g>
<g>
</g>
<g>
</g>
<g>
</g>
<g>
</g>
<g>
</g>
<g>
</g>
<g>
</g>
<g>
</g>
<g>
</g>
<g>
</g>
<g>
</g>
<g>
</g>
</svg>
