<svg height="459pt" viewBox="-1 0 459 459.72056" width="459pt" xmlns="http://www.w3.org/2000/svg"><path d="m304.859375 261.859375c-15.574219-24.03125-36.464844-44.164063-61.054687-58.847656l-38.960938-23.800781c-1.84375-9.371094-6.527344-17.953126-13.410156-24.578126l2.035156-37.433593c1.75-32.464844-5.019531-64.820313-19.636719-93.855469l-9.546875-18.941406c-1.398437-2.773438-4.273437-4.4882815-7.375-4.39843775-3.105468.08984375-5.878906 1.96874975-7.109375 4.81640575l-9.882812 22.820313c-11.433594 26.488281-16.585938 55.261719-15.054688 84.074219l2.351563 42.441406c-7.660156 7.152344-12.683594 16.675781-14.261719 27.035156l-36.601563 21.773438c-24.621093 14.691406-45.535156 34.84375-61.132812 58.902344l-13.578125 21c-1.6835938 2.605468-1.7109375 5.949218-.066406 8.582031 1.644531 2.632812 4.664062 4.074219 7.742187 3.703125l20.839844-2.511719c32.339844-3.910156 63.089844-16.226563 89.183594-35.730469l13.921875-10.257812-20.101563 204.011718c-.21875 2.289063.515625 4.570313 2.035156 6.296876 1.503907 1.707031 3.652344 2.707031 5.925782 2.757812h81.214844c2.308593-.0625 4.480468-1.089844 5.992187-2.832031 1.507813-1.742188 2.21875-4.042969 1.953125-6.332031l-24.703125-204.839844 15.117187 11.171875c26.101563 19.515625 56.871094 31.84375 89.226563 35.753906l20.839844 2.511719c3.082031.371094 6.101562-1.070313 7.746093-3.703125 1.644532-2.636719 1.617188-5.980469-.070312-8.585938zm-145.78125-43.039063c-16.925781 0-30.648437-13.71875-30.648437-30.644531s13.722656-30.644531 30.644531-30.644531c16.925781 0 30.648437 13.71875 30.648437 30.644531-.019531 16.917969-13.730468 30.625-30.644531 30.644531zm-18.238281-107.984374c-1.398438-26.332032 3.308594-52.628907 13.757812-76.839844l3.089844-7.132813 1.855469 3.675781c13.359375 26.542969 19.550781 56.117188 17.949219 85.789063l-1.542969 28.378906c-10.679688-4.160156-22.515625-4.234375-33.246094-.203125zm-31.039063 133.226562c-23.863281 17.839844-51.984375 29.109375-81.558593 32.6875l-3.902344.46875 4.316406-6.671875c14.253906-21.988281 33.371094-40.40625 55.875-53.832031l29.25-17.398438c2.789062 11.269532 9.671875 21.101563 19.308594 27.582032zm20.148438 199.65625 20.628906-209.546875c5.78125.976563 11.6875.960937 17.464844-.050781l25.269531 209.597656zm161.886719-166.96875c-29.589844-3.582031-57.722657-14.859375-81.589844-32.714844l-24.144532-17.878906c9.515626-6.773438 16.152344-16.863281 18.597657-28.285156l30.847656 18.84375c22.503906 13.425781 41.621094 31.84375 55.878906 53.832031l4.3125 6.671875zm0 0"/><path d="m159.078125 166.542969c-11.949219 0-21.636719 9.683593-21.636719 21.632812s9.6875 21.636719 21.632813 21.636719c11.949219 0 21.636719-9.6875 21.636719-21.636719-.011719-11.941406-9.691407-21.621093-21.632813-21.632812zm0 27.269531c-3.113281 0-5.636719-2.523438-5.636719-5.632812 0-3.113282 2.523438-5.636719 5.632813-5.636719 3.113281 0 5.636719 2.523437 5.636719 5.632812-.003907 3.113281-2.523438 5.632813-5.632813 5.636719zm0 0"/><path d="m428.933594 58.1875c-16.039063.015625-29.039063 13.015625-29.058594 29.058594 0 4.417968 3.582031 8 8 8s8-3.582032 8-8c.007812-7.210938 5.851562-13.050782 13.058594-13.058594 7.25.105469 13.070312 6.015625 13.070312 13.265625s-5.820312 13.160156-13.070312 13.265625h-154.515625c-4.417969 0-8 3.582031-8 8 0 4.421875 3.582031 8 8 8h156.175781c.617188-.070312 1.226562-.210938 1.8125-.421875 15.273438-1.886719 26.449219-15.320313 25.53125-30.683594-.914062-15.363281-13.613281-27.371093-29.003906-27.425781zm0 0"/><path d="m274.417969 146.71875h172.738281c4.417969 0 8-3.578125 8-8 0-4.417969-3.582031-8-8-8h-172.738281c-4.417969 0-8 3.582031-8 8 0 4.421875 3.582031 8 8 8zm0 0"/><path d="m432.40625 160.042969c-.589844-.175781-1.199219-.285157-1.8125-.324219h-156.175781c-4.417969 0-8 3.582031-8 8 0 4.421875 3.582031 8 8 8h154.515625c7.253906-.042969 13.171875 5.800781 13.222656 13.054688.050781 7.253906-5.789062 13.175781-13.042969 13.226562-7.253906.054688-13.179687-5.777344-13.238281-13.03125-.003906-4.417969-3.589844-7.996094-8.011719-7.988281-4.417969.003906-7.992187 3.589843-7.988281 8.007812.050781 15.585938 12.386719 28.355469 27.964844 28.945313 15.574218.589844 28.839844-11.214844 30.066406-26.753906 1.226562-15.539063-10.027344-29.277344-25.5-31.136719zm0 0"/></svg>