<svg height="492pt" viewBox="-1 0 492 492.28125" width="492pt" xmlns="http://www.w3.org/2000/svg"><path d="m318.5 285.28125h-.371094c-2.949218-.121094-5.902344.273438-8.714844 1.171875v-14.765625c-.011718-8.429688-4.3125-16.273438-11.410156-20.816406-7.097656-4.546875-16.019531-5.167969-23.679687-1.652344-3.664063-9.597656-12.867188-15.9375-23.140625-15.9375h-.390625c-6.515625.011719-12.757813 2.628906-17.335938 7.265625s-7.113281 10.910156-7.042969 17.425781v1.109375c-2.855468-1.027343-5.863281-1.566406-8.898437-1.585937-13.660156.007812-24.746094 11.046875-24.8125 24.707031l-.109375 84.800781c-12.089844-13.09375-32.332031-14.378906-45.980469-2.921875l-4.921875 3.800781c-3.128906 2.417969-4.019531 6.761719-2.09375 10.21875l48.425782 86.699219c9.53125 17.015625 27.527343 27.53125 47.027343 27.480469h54.316407c29.667968.035156 53.757812-23.960938 53.839843-53.628906.050781-46.882813.09375-99.113282.019531-129-.039062-6.511719-2.667968-12.742188-7.308593-17.316406-4.636719-4.570313-10.90625-7.109376-17.417969-7.054688zm8.707031 153.355469c-.0625 20.839843-16.996093 37.691406-37.839843 37.644531h-54.316407c-13.699219.054688-26.351562-7.316406-33.054687-19.261719l-45.089844-80.785156c7.179688-6.035156 17.863281-5.242187 24.074219 1.785156l13.550781 15.421875c2.199219 2.5 5.710938 3.375 8.824219 2.207032 3.109375-1.171876 5.175781-4.144532 5.183593-7.46875l.082032-105.964844c-.003906-4.746094 3.785156-8.621094 8.527344-8.730469 4.742187-.109375 8.703124 3.589844 8.917968 8.328125 0 10.589844 0 22.101562.007813 33.074219.003906 25.222656.007812 47.003906 0 49.097656-.019531 4.421875 3.550781 8.015625 7.96875 8.03125s8.011719-3.550781 8.03125-7.96875c.007812-2.132813 0-23.929687 0-49.167969 0-7.847656.164062-15.976562.164062-23.847656 0-.117188.175781-.234375.175781-.355469v-8.453125c0-.234375-.171874-.464844-.179687-.695312 0-8.78125-.085937-16.898438-.085937-23.539063-.015626-2.304687.890624-4.515625 2.511718-6.152343 1.621094-1.632813 3.828125-2.554688 6.132813-2.554688h.390625c2.242187-.007812 4.386718.910156 5.921875 2.539062 1.574219 1.65625 2.40625 3.878907 2.308593 6.160157v106.035156c0 4.417969 3.582032 8 8 8 4.417969 0 8-3.582031 8-8v-92.328125c0-4.972656 4.03125-9 9-9s9 4.027344 9 9v92.328125c0 4.417969 3.582032 8 8 8 4.417969 0 8-3.582031 8-8v-54.425781c0-4.8125 3.898438-8.308594 8.714844-8.308594h.371094c2.277344-.0625 4.488281.796875 6.128906 2.378906 1.640625 1.582032 2.574219 3.753906 2.597656 6.035156.074219 29.859376.03125 82.074219-.019531 128.941407zm0 0"/><path d="m142.429688 232.359375c2.109374-2.109375 3.820312-4.582031 5.046874-7.300781l10.4375 10.445312c5.96875 5.957032 14.554688 8.464844 22.789063 6.65625 8.234375-1.804687 14.984375-7.679687 17.910156-15.585937 9.375 4.210937 20.378907 2.199219 27.652344-5.0625l.273437-.273438c9.636719-9.660156 9.636719-25.300781 0-34.964843l-.777343-.773438c7.382812-3.359375 12.648437-10.121094 14.105469-18.101562 1.453124-7.976563-1.09375-16.164063-6.816407-21.910157l-59.910156-60.007812c17.804687.722656 33.03125-12.6875 34.566406-30.4375l.78125-6.164063c.5-3.921875-1.945312-7.621094-5.75-8.699218l-95.660156-27.175782c-18.785156-5.328125-38.980469-.078125-52.789063 13.722656l-38.410156 38.410157c-20.96875 21.023437-20.988281 55.050781-.039062 76.097656 33.179687 33.25 70.34375 70.476563 91.40625 91.433594 9.667968 9.589843 25.269531 9.570312 34.914062-.042969zm-11.308594-11.320313-.269532.269532c-3.402343 3.394531-8.90625 3.402344-12.320312.015625-21.042969-20.9375-58.195312-58.152344-91.367188-91.390625-14.722656-14.792969-14.707031-38.707032.027344-53.484375l38.410156-38.410157c9.707032-9.699218 23.898438-13.386718 37.101563-9.644531l89.058594 25.300781c-.796875 9.339844-8.894531 16.34375-18.253907 15.785157l-20.472656-1.308594c-3.320312-.210937-6.429687 1.652344-7.800781 4.6875-1.371094 3.03125-.722656 6.59375 1.628906 8.949219l74.871094 74.988281c3.363281 3.347656 3.429687 8.773437.152344 12.207031-3.277344 3.433594-8.695313 3.617188-12.199219.414063-7.601562-7.597657-15.882812-15.875-23.75-23.738281-17.652344-17.644532-32.898438-32.882813-34.367188-34.359376-3.109374-3.136718-8.175781-3.15625-11.3125-.042968-3.136718 3.109375-3.15625 8.175781-.042968 11.3125 1.488281 1.5 16.746094 16.75 34.410156 34.40625l17.222656 17.214844c.082032.089843.164063.175781.25.261718l5.972656 5.976563c.164063.164062.332032.324219.5.484375 6.210938 6.207031 11.960938 11.957031 16.65625 16.65625 3.402344 3.410156 3.398438 8.933594-.007812 12.339844l-.273438.273437c-3.410156 3.402344-8.929687 3.402344-12.339843 0l-9.667969-9.667969-.027344-.023437-65.285156-65.289063c-3.140625-3.03125-8.128906-2.988281-11.214844.097656-3.085937 3.085938-3.128906 8.078126-.097656 11.214844l65.308594 65.300782c3.410156 3.421874 3.402344 8.957031-.019532 12.367187-3.417968 3.414063-8.957031 3.40625-12.367187-.015625l-65.289063-65.28125c-3.128906-3.09375-8.167968-3.078125-11.28125.03125-3.109374 3.113281-3.125 8.152344-.035156 11.28125l26.785156 26.777344.054688.054687 11.664062 11.667969c3.390626 3.410156 3.382813 8.917969-.011718 12.320312zm0 0"/><path d="m436.539062 15.738281c-21.027343-20.96875-55.050781-20.988281-76.101562-.039062-33.25 33.183593-70.480469 70.347656-91.429688 91.40625-9.59375 9.671875-9.570312 25.273437.046876 34.921875l.261718.261718c2.105469 2.109376 4.578125 3.820313 7.292969 5.046876l-10.441406 10.445312c-5.945313 5.972656-8.445313 14.554688-6.644531 22.785156 1.800781 8.230469 7.660156 14.980469 15.554687 17.921875-4.199219 9.375-2.179687 20.367188 5.078125 27.636719l.277344.277344c9.660156 9.640625 25.300781 9.640625 34.964844 0l.785156-.785156c3.351562 7.386718 10.113281 12.660156 18.089844 14.117187 7.980468 1.453125 16.164062-1.089844 21.910156-6.816406l60.007812-59.917969c-.71875 17.804688 12.683594 33.027344 30.4375 34.566406l6.164063.785156c3.921875.496094 7.617187-1.949218 8.699219-5.75l27.171874-95.667968c5.324219-18.78125.074219-38.976563-13.722656-52.785156zm36.738282 86.824219-25.300782 89.0625c-9.34375-.792969-16.351562-8.898438-15.785156-18.257812l1.304688-20.472657c.214844-3.320312-1.652344-6.425781-4.683594-7.800781-3.03125-1.371094-6.597656-.722656-8.953125 1.628906l-74.984375 74.875c-3.355469 3.339844-8.761719 3.394532-12.1875.125-3.425781-3.269531-3.617188-8.675781-.433594-12.179687l23.089844-23.101563c17.230469-17.242187 33.507812-33.523437 35.007812-35.011718 2.0625-2.007813 2.890626-4.964844 2.164063-7.753907-.722656-2.785156-2.886719-4.964843-5.667969-5.710937s-5.746094.058594-7.765625 2.109375c-1.523437 1.507812-17.0625 17.054687-35.058593 35.058593l-16.570313 16.578126c-.085937.078124-.171875.160156-.253906.242187l-5.976563 5.976563c-.164062.164062-.324218.328124-.480468.492187-6.210938 6.210937-11.960938 11.96875-16.660157 16.664063-3.410156 3.402343-8.929687 3.402343-12.335937 0l-.28125-.277344c-3.40625-3.410156-3.40625-8.933594 0-12.339844l27.796875-27.796875 47.183593-47.1875c3.125-3.121094 3.125-8.1875 0-11.3125-3.121093-3.125-8.1875-3.125-11.3125 0l-65.285156 65.289063c-3.417968 3.414062-8.953125 3.414062-12.371094 0-3.414062-3.417969-3.414062-8.957032 0-12.371094l38.464844-38.464844 26.824219-26.820312c2.039063-2.019532 2.84375-4.972657 2.109375-7.746094-.738281-2.773438-2.90625-4.941406-5.679688-5.679688-2.773437-.734375-5.726562.070313-7.742187 2.109375l-38.488281 38.488281c-3.410156 3.402344-8.929688 3.402344-12.339844 0l-.261719-.261718c-3.394531-3.40625-3.402343-8.910156-.019531-12.324219 20.933594-21.039063 58.152344-58.191406 91.390625-91.367187 14.792969-14.722657 38.707031-14.707032 53.488281.027343l38.410156 38.410157c9.699219 9.707031 13.386719 23.902343 9.644532 37.101562zm0 0"/></svg>