<svg height="472pt" viewBox="-14 0 472 472.00018" width="472pt" xmlns="http://www.w3.org/2000/svg"><path d="m343.164062 6v42h-61.269531c-3.3125 0-5.730469 3.019531-5.730469 6.332031v175.667969h-68v12h68v175.667969c0 3.3125 2.417969 6.332031 5.730469 6.332031h61.269531v42c.117188 3.359375 2.886719 6.019531 6.25 6h88.722657c3.316406 0 6.011719-2.679688 6.027343-6v-94.894531c-.003906-3.339844-2.6875-6.058594-6.027343-6.105469h-88.722657c-3.382812.03125-6.140624 2.726562-6.25 6.105469v40.894531h-55v-170h55v41.445312c0 3.316407 2.9375 5.554688 6.25 5.554688h88.722657c3.3125 0 6.027343-2.238281 6.027343-5.554688v-94.890624c0-3.316407-2.714843-5.554688-6.027343-5.554688h-88.722657c-3.3125 0-6.25 2.238281-6.25 5.554688v41.445312h-55v-170h55v40.894531c.109376 3.378907 2.867188 6.074219 6.25 6.105469h88.722657c3.339843-.046875 6.023437-2.765625 6.027343-6.105469v-94.894531c-.015624-3.320312-2.710937-6-6.027343-6h-88.722657c-3.363281-.0195312-6.132812 2.640625-6.25 6zm12 371h77v83h-77zm0-182h77v82h-77zm0-183h77v83h-77zm0 0"/><path d="m121.164062 74.183594c0-22.191406-17.992187-40.183594-40.183593-40.183594h-.632813c-22.191406 0-40.183594 17.992188-40.183594 40.183594v14.632812c0 22.191406 17.992188 40.183594 40.183594 40.183594h.632813c22.191406 0 40.183593-17.992188 40.183593-40.183594zm-12 14.632812c0 15.566406-12.617187 28.183594-28.183593 28.183594h-.632813c-15.566406 0-28.183594-12.617188-28.183594-28.183594v-14.632812c0-15.566406 12.617188-28.183594 28.183594-28.183594h.632813c15.566406 0 28.183593 12.617188 28.183593 28.183594zm0 0"/><path d="m.164062 259.011719c.066407 11.9375 4.945313 23.347656 13.535157 31.636719l6.238281 5.972656c5.875 5.648437 9.367188 13.335937 9.753906 21.480468l5.457032 114.164063c.15625 3.207031 2.796874 5.726563 6.003906 5.734375h82.203125c3.203125-.007812 5.839843-2.527344 5.992187-5.730469l5.445313-114.238281c.375-8.101562 3.824219-15.757812 9.644531-21.40625l6.300781-6.019531c8.519531-8.285157 13.355469-19.644531 13.425781-31.53125v-66.675781c1.039063-11.691407-2.898437-23.28125-10.847656-31.921876-7.945312-8.644531-19.167968-13.535156-30.90625-13.476562h-6.78125c-2.511718-.042969-4.777344 1.507812-5.648437 3.863281l-8.539063 23.710938-15.441406-16.453125c-1.148438-1.230469-2.757812-1.917969-4.441406-1.902344-1.679688.015625-3.277344.738281-4.402344 1.992188l-14.136719 15.789062-7.507812-22.964844c-.816407-2.445312-3.121094-4.078125-5.699219-4.035156h-7.894531c-11.738281-.0625-22.960938 4.832031-30.910157 13.472656-7.945312 8.640625-11.882812 20.234375-10.84375 31.925782zm81.574219-87.929688 8.023438 8.53125 8.914062 83.027344-16.511719 16.519531-16.519531-16.519531 8.976563-83.609375zm-61.875-2.394531c5.652344-6.203125 13.664063-9.722656 22.054688-9.6875h3.53125l9.386719 28.730469c.871093 2.695312 3.542968 4.386719 6.351562 4.015625l-7.785156 72.480468c-.191406 1.804688.441406 3.597657 1.726562 4.878907l22.789063 22.785156c2.34375 2.34375 6.140625 2.34375 8.484375 0l22.789062-22.789063c1.285156-1.285156 1.917969-3.078124 1.722656-4.882812l-7.785156-72.5c.625.070312 1.253906.042969 1.867188-.078125 2.03125-.382813 3.714844-1.800781 4.429687-3.742187l10.421875-28.898438h2.5625c8.390625-.027344 16.402344 3.496094 22.054688 9.695312 5.652344 6.203126 8.417968 14.503907 7.617187 22.855469-.019531.199219.082031.351563.082031.550781v66.972657c-.0625 8.644531-3.589843 16.90625-9.792968 22.925781l-6.246094 6.019531c-8.011719 7.769531-12.765625 18.300781-13.289062 29.449219l-5.203126 108.53125h-70.757812l-5.167969-108.449219c-.519531-11.199219-5.308593-21.773437-13.382812-29.550781l-6.285157-5.976562c-6.257812-6.027344-9.816406-14.324219-9.875-23.011719v-66.910157c0-.203124.101563-.351562.078126-.554687-.800782-8.351563 1.96875-16.65625 7.621093-22.859375zm0 0"/></svg>