<?xml version="1.0" encoding="iso-8859-1"?>
<!-- Generator: Adobe Illustrator 19.0.0, SVG Export Plug-In . SVG Version: 6.00 Build 0)  -->
<svg version="1.1" id="Capa_1" xmlns="http://www.w3.org/2000/svg" xmlns:xlink="http://www.w3.org/1999/xlink" x="0px" y="0px"
	 viewBox="0 0 512 512" style="enable-background:new 0 0 512 512;" xml:space="preserve">
<g>
	<g>
		<path d="M307.751,387.028H245.54c-9.122,0-16.516,7.394-16.516,16.516v88.086h33.032v-71.57h29.179v71.57h33.032v-88.086
			C324.267,394.421,316.873,387.028,307.751,387.028z"/>
	</g>
</g>
<g>
	<g>
		<path d="M491.063,19.637c-0.391-8.831-7.663-15.784-16.5-15.784h-96.895c-8.842,0-16.109,6.953-16.5,15.784l-20.92,471.26
			c-0.198,4.498,1.453,8.891,4.564,12.15c3.116,3.254,7.432,5.098,11.936,5.098h138.735c4.503,0,8.82-1.844,11.936-5.098
			c3.111-3.259,4.762-7.652,4.564-12.15L491.063,19.637z M374.013,475.114l19.456-438.228h65.294l19.461,438.228H374.013z"/>
	</g>
</g>
<g>
	<g>
		<rect x="372.714" y="113.411" width="102.951" height="33.032"/>
	</g>
</g>
<g>
	<g>
		<path d="M209.204,225.434l151.585,57.57l11.732-30.88l-173.97-66.065c-5.076-1.932-10.779-1.239-15.244,1.844
			c-4.465,3.083-7.135,8.164-7.135,13.593V491.63c0,9.122,7.394,16.516,16.516,16.516h178.374v-33.032H209.204V225.434z"/>
	</g>
</g>
<g>
	<g>
		<path d="M131.578,387.028H69.368c-9.122,0-16.516,7.394-16.516,16.516v88.086h33.032v-71.57h29.179v71.57h33.032v-88.086
			C148.095,394.421,140.701,387.028,131.578,387.028z"/>
	</g>
</g>
<g>
	<g>
		<path d="M33.032,225.434l151.591,57.57l11.726-30.88l-173.97-66.065c-5.07-1.927-10.774-1.244-15.244,1.844
			C2.67,190.987,0,196.068,0,201.497V491.63c0,9.122,7.394,16.516,16.516,16.516H194.89v-33.032H33.032V225.434z"/>
	</g>
</g>
<g>
</g>
<g>
</g>
<g>
</g>
<g>
</g>
<g>
</g>
<g>
</g>
<g>
</g>
<g>
</g>
<g>
</g>
<g>
</g>
<g>
</g>
<g>
</g>
<g>
</g>
<g>
</g>
<g>
</g>
</svg>
