<svg height="429pt" viewBox="0 -5 429.70244 429" width="429pt" xmlns="http://www.w3.org/2000/svg"><path d="m5.574219 240.453125 38.972656 3.746094c4.101563 16.644531 10.804687 32.539062 19.867187 47.089843l-24.761718 29.925782c-1.972656 2.386718-1.804688 5.882812.386718 8.070312l41.121094 41.113282c2.191406 2.191406 5.6875 2.355468 8.074219.378906l29.964844-24.816406c14.566406 9.003906 30.4375 15.703124 47.046875 19.863281l3.75 39c.285156 3.097656 2.863281 5.480469 5.972656 5.527343h58.289062c3.109376-.046874 5.6875-2.429687 5.972657-5.523437l2.359375-24.511719c24.132812 30.597656 63.253906 45.28125 101.558594 38.117188 38.308593-7.160156 69.480468-34.984375 80.929687-72.238282 11.449219-37.25 1.285156-77.777343-26.390625-105.21875l5.101562-.519531c3.03125-.324219 5.304688-2.929687 5.210938-5.976562v-58.292969c.09375-3.050781-2.183594-5.652344-5.21875-5.96875l-38.800781-3.75c-4.070313-16.640625-10.746094-32.535156-19.777344-47.089844l24.808594-29.925781c1.96875-2.371094 1.820312-5.847656-.339844-8.042969l-40.589844-41.117187c-2.183593-2.210938-5.699219-2.386719-8.09375-.40625l-29.964843 24.816406c-14.566407-9-30.433594-15.699219-47.042969-19.859375l-3.75-38.984375c-.289063-3.09375-2.863281-5.46875-5.972657-5.507813h-58.289062c-3.105469.039063-5.679688 2.417969-5.96875 5.507813l-3.75 38.941406c-16.644531 4.09375-32.535156 10.792969-47.085938 19.851563l-29.929687-24.769532c-2.386719-1.972656-5.878906-1.808593-8.070313.382813l-41.113281 41.117187c-2.191406 2.191407-2.355469 5.6875-.378906 8.074219l24.816406 29.964844c-9.003906 14.566406-15.703125 30.433594-19.863281 47.046875l-39.050781 3.75c-3.109375.28125-5.5078128 2.851562-5.574219 5.96875v58.292969c.0703125 3.117187 2.46875 5.6875 5.574219 5.972656zm412.125 74.882813c0 51.277343-41.566407 92.847656-92.847657 92.847656-51.277343.003906-92.847656-41.566406-92.847656-92.847656 0-51.277344 41.570313-92.847657 92.847656-92.847657 51.253907.058594 92.789063 41.59375 92.847657 92.847657zm-197.628907-3.484376c-4.957031.679688-9.953124 1.007813-14.957031.976563-59.363281.003906-107.492187-48.121094-107.496093-107.488281 0-59.363282 48.121093-107.492188 107.488281-107.492188 59.367187-.003906 107.492187 48.121094 107.496093 107.488282v1.4375c0 1.527343.007813 3.007812-.042968 4.4375-51.433594 6.140624-90.703125 48.875-92.488282 100.640624zm-208.070312-130.210937 37.921875-3.644531c2.617187-.242188 4.777344-2.140625 5.363281-4.699219 4.058594-18.195313 11.378906-35.507813 21.601563-51.101563 1.425781-2.191406 1.261719-5.058593-.402344-7.078124l-24.089844-29.101563 33.402344-33.390625 29.101563 24.101562c2.042968 1.691407 4.953124 1.839844 7.15625.371094 15.527343-10.273437 32.832031-17.566406 51.027343-21.507812 2.5625-.59375 4.457031-2.757813 4.699219-5.375l3.636719-37.863282h47.390625l3.640625 37.859376c.25 2.605468 2.144531 4.757812 4.703125 5.328124 18.195312 4.054688 35.507812 11.363282 51.097656 21.578126 2.199219 1.421874 5.0625 1.257812 7.078125-.410157l29.078125-24.070312 32.917969 33.34375-24.121094 29.128906c-1.691406 2.042969-1.839844 4.953125-.371094 7.15625 10.273438 15.527344 17.566407 32.832031 21.507813 51.027344.460937 2.523437 2.535156 4.4375 5.085937 4.699219l37.574219 3.648437v47.398437l-11.28125 1.121094c-17.746094-12.8125-39.082031-19.695312-60.96875-19.671875-.085938 0-.121094 0-.210938 0 .023438-1.265625.046876-2.519531.042969-3.757812l.011719-1.398438c-.230469-49.40625-30.972656-93.527343-77.238281-110.847656-46.269531-17.324219-98.429688-4.242187-131.046875 32.863281-32.617188 37.105469-38.902344 90.511719-15.789063 134.175782 23.113281 43.664062 70.8125 68.496093 119.839844 62.386718 1.136719 14.101563 5.128906 27.828125 11.726563 40.339844l-3.277344 34.101562h-47.390625l-3.640625-37.875c-.246094-2.609374-2.144532-4.761718-4.703125-5.339843-18.195313-4.050781-35.503907-11.363281-51.097657-21.582031-2.195312-1.421876-5.0625-1.253907-7.082031.410156l-29.097656 24.09375-33.398437-33.394532 24.101562-29.101562c1.691406-2.039062 1.839844-4.949219.371094-7.152344-10.273438-15.527344-17.566406-32.832031-21.507813-51.03125-.621093-2.566406-2.804687-4.457031-5.4375-4.699218l-37.925781-3.648438zm0 0"/><path d="m323.535156 263.164062c.9375.242188 1.921875.25 2.863282.015626 11.9375.824218 21.207031 10.742187 21.222656 22.710937 0 3.3125 2.6875 6 6 6s6-2.6875 6-6c-.023438-16.820313-12.070313-31.21875-28.621094-34.210937v-10.328126c0-3.3125-2.6875-6-6-6s-6 2.6875-6 6v10.273438c-17.804688 3.039062-30.3125 19.207031-28.789062 37.207031 1.527343 17.996094 16.582031 31.828125 34.644531 31.824219 12.574219 0 22.765625 10.195312 22.765625 22.769531s-10.191406 22.769531-22.769532 22.765625c-12.574218 0-22.765624-10.191406-22.765624-22.765625 0-3.316406-2.6875-6-6-6s-6 2.683594-6 6c.023437 16.929688 12.226562 31.390625 28.914062 34.261719v11.664062c0 3.3125 2.6875 6 6 6s6-2.6875 6-6v-11.714843c17.722656-3.179688 30.085938-19.367188 28.488281-37.300781-1.597656-17.9375-16.628906-31.683594-34.632812-31.679688-12.320313.003906-22.40625-9.792969-22.761719-22.105469s9.144531-22.675781 21.441406-23.386719zm0 0"/></svg>