<svg height="496pt" viewBox="-82 0 496 496.93298" width="496pt" xmlns="http://www.w3.org/2000/svg"><path d="m5.71875 417.363281 223.132812 79.109375c2 .710938 4.199219.59375 6.113282-.316406 1.933594-1 3.402344-2.710938 4.101562-4.769531l28.597656-80.898438h57.808594c4.417969 0 8.460938-3.144531 8.460938-7.5625v-291.882812c-.085938-1.828125-.773438-3.578125-1.960938-4.972657l-48.019531-60.476562c-1.554687-1.933594-3.894531-3.074219-6.378906-3.097656h-82.953125c-.316406 0-.632813-.808594-.957032-1.242188-11.816406-15.882812-26.296874-28.429687-40.765624-35.394531-16.144532-7.765625-30.703126-7.808594-40.992188-.152344-10.289062 7.660157-14.417969 21.628907-11.613281 39.320313 1.628906 9.496094 4.628906 18.707031 8.898437 27.34375l-26.628906 33.703125c-1.089844 1.421875-1.664062 3.175781-1.628906 4.96875v70.789062l-79.980469 225.316407c-.730469 1.988281-.636719 4.183593.257813 6.101562.898437 1.914062 2.519531 3.394531 4.507812 4.113281zm115.738281-398.878906c9.667969-7.195313 32.492188 1.003906 52.6875 24.003906h-37.5c-2.449219.03125-4.757812 1.171875-6.269531 3.101563l-9.941406 12.542968c-7.234375-18.609374-6.378906-34.144531 1.023437-39.648437zm-24.523437 95.34375 20.878906-26.449219c1.523438 2.320313 3.066406 4.621094 4.753906 6.886719 11.816406 15.882813 26.269532 28.464844 40.742188 35.429687 3.101562 1.503907 6.316406 2.765626 9.609375 3.769532 2.304687 17.285156 17.160156 30.125 34.597656 29.902344 17.4375-.222657 31.960937-13.433594 33.828125-30.773438 1.863281-17.339844-9.519531-33.339844-26.511719-37.261719-16.992187-3.925781-34.238281 5.464844-40.164062 21.863281-12.042969-4.488281-26.617188-15.417968-39.316407-32.480468-2.546874-3.445313-4.914062-7.015625-7.097656-10.699219l12.253906-15.527344h133.199219l44.226563 55.339844v280.660156h-221zm118.453125-1.398437c7.421875 3.707031 11.460937 11.90625 9.882812 20.054687-1.578125 8.144531-8.386719 14.242187-16.65625 14.910156-8.269531.671875-15.972656-4.25-18.84375-12.035156 5.246094-.476563 10.257813-2.375 14.5-5.492187 5.503907-4.09375 9.257813-10.03125 11.117188-17.441407zm-20.664063 4.597656c-.898437.65625-1.886718 1.179687-2.933594 1.550781 1.675782-2.464844 3.917969-4.492187 6.539063-5.914063-.851563 1.710938-2.085937 3.207032-3.605469 4.367188zm-113.789062 112.6875v173.210937c-.027344 2.054688.796875 4.03125 2.269531 5.464844 1.476563 1.429687 3.476563 2.191406 5.53125 2.097656h161.957031l-24.035156 68.015625-207.953125-73.65625zm0 0"/><path d="m287.757812 357.488281h-161.300781c-4.417969 0-8 3.582031-8 8 0 4.421875 3.582031 8 8 8h161.300781c4.417969 0 8-3.578125 8-8 0-4.417969-3.582031-8-8-8zm0 0"/><path d="m287.757812 319.488281h-161.300781c-4.417969 0-8 3.582031-8 8 0 4.421875 3.582031 8 8 8h161.300781c4.417969 0 8-3.578125 8-8 0-4.417969-3.582031-8-8-8zm0 0"/></svg>