<svg height="488pt" viewBox="-19 0 488 488" width="488pt" xmlns="http://www.w3.org/2000/svg"><path d="m382.21875 320.570312c-18.175781-.011718-35.542969 7.5-47.980469 20.746094-26.113281 27.171875-26.128906 71.582032-.011719 99.019532l42.210938 44.085937c1.511719 1.578125 3.597656 2.46875 5.78125 2.46875 2.179688 0 4.269531-.890625 5.777344-2.46875l42.199218-44.074219c26.117188-27.171875 26.128907-71.582031.027344-99-12.441406-13.265625-29.820312-20.785156-48.003906-20.777344zm36.433594 108.699219-36.433594 38.050781-36.417969-38.035156c-20.28125-21.304687-20.292969-55.792968 0-76.90625 9.425781-10.085937 22.613281-15.808594 36.417969-15.808594s26.988281 5.722657 36.417969 15.808594c20.28125 21.304688 20.292969 55.792969.015625 76.890625zm0 0"/><path d="m382.21875 349.4375c-18.265625 0-33.070312 14.804688-33.070312 33.070312 0 18.261719 14.804687 33.066407 33.066406 33.066407 18.265625 0 33.070312-14.804688 33.070312-33.066407-.019531-18.253906-14.8125-33.046874-33.066406-33.070312zm0 50.136719c-9.425781 0-17.070312-7.640625-17.070312-17.066407 0-9.429687 7.640624-17.070312 17.070312-17.070312 9.425781 0 17.066406 7.644531 17.066406 17.070312-.011718 9.421876-7.644531 17.054688-17.066406 17.066407zm0 0"/><path d="m332.84375 472h-222c-12.703125 0-23-10.296875-23-23s10.296875-23 23-23h81.5c20.707031 0 37.5-16.789062 37.5-37.5s-16.792969-37.5-37.5-37.5h-146c-12.980469 0-23.5-10.519531-23.5-23.5s10.519531-23.5 23.5-23.5h362.5c17.117188 0 31-13.878906 31-31s-13.882812-31-31-31h-295c-8.285156 0-15-6.714844-15-15s6.714844-15 15-15h116.5c4.417969 0 8-3.582031 8-8s-3.582031-8-8-8h-116.5c-17.121094 0-31 13.878906-31 31s13.878906 31 31 31h295c8.28125 0 15 6.714844 15 15s-6.71875 15-15 15h-362.5c-21.816406 0-39.5 17.683594-39.5 39.5s17.683594 39.5 39.5 39.5h146c11.871094 0 21.5 9.625 21.5 21.5s-9.628906 21.5-21.5 21.5h-81.5c-21.539062 0-39 17.460938-39 39s17.460938 39 39 39h222c4.417969 0 8-3.582031 8-8s-3.582031-8-8-8zm0 0"/><path d="m23.136719 155c3.394531 15 17.425781 27.59375 34.175781 27.59375s30.789062-12.59375 34.175781-27.59375h140.011719c3.398438 15 17.425781 27.59375 34.179688 27.59375 16.75 0 30.78125-12.59375 34.175781-27.59375h9.023437c4.496094-.125 8.085938-3.789062 8.121094-8.285156v-53.03125c-.046875-5.8125-2.40625-11.367188-6.558594-15.4375-4.148437-4.066406-9.75-6.316406-15.5625-6.246094h-.734375l-27.953125-52.707031c-6.210937-11.804688-18.429687-19.2265628-31.773437-19.292969h-.113281l-56.097657.226562c-4.464843.023438-8.101562 3.59375-8.207031 8.054688v63.71875h-161.84375c-2.101562-.078125-4.148438.691406-5.683594 2.136719-1.53125 1.445312-2.4218748 3.441406-2.472656 5.546875v67.03125c.0507812 4.503906 3.652344 8.164062 8.15625 8.285156zm34.175781 11.308594c-10.476562-.003906-18.964844-8.492188-18.964844-18.96875 0-10.472656 8.492188-18.964844 18.964844-18.964844 10.476562 0 18.964844 8.492188 18.964844 18.964844-.007813 10.472656-8.496094 18.957031-18.964844 18.96875zm208.367188 0c-10.472657 0-18.964844-8.492188-18.964844-18.96875 0-10.472656 8.488281-18.964844 18.964844-18.964844 10.476562 0 18.964843 8.492188 18.964843 18.964844-.011719 10.46875-8.496093 18.953125-18.964843 18.96875zm35.320312-72.625v45.316406h-1.433594c-3.945312-15.492188-17.898437-26.335938-33.886718-26.335938-15.988282 0-29.941407 10.84375-33.886719 26.335938h-45.792969v-51h108.878906c1.570313-.074219 3.101563.488281 4.253906 1.554688 1.152344 1.070312 1.824219 2.558593 1.867188 4.128906zm-115-77.425782 48.355469-.257812h.0625c7.425781.078125 14.210937 4.230469 17.652343 10.8125l23.945313 45.1875h-90.015625zm-170 71.742188h154v51h-78.800781c-3.945313-15.492188-17.898438-26.335938-33.886719-26.335938s-29.941406 10.84375-33.886719 26.335938h-7.425781zm0 0"/></svg>