<svg height="458pt" viewBox="-8 0 458 458" width="458pt" xmlns="http://www.w3.org/2000/svg"><path d="m132 334c0-4.417969-3.582031-8-8-8h-41c-4.417969 0-8 3.582031-8 8v38c0 4.417969 3.582031 8 8 8h41c4.417969 0 8-3.582031 8-8zm-16 30h-25v-22h25zm0 0"/><path d="m212 334c0-4.417969-3.582031-8-8-8h-41c-4.417969 0-8 3.582031-8 8v38c0 4.417969 3.582031 8 8 8h41c4.417969 0 8-3.582031 8-8zm-17 30h-24v-22h24zm0 0"/><path d="m291 334c0-4.417969-3.582031-8-8-8h-41c-4.417969 0-8 3.582031-8 8v38c0 4.417969 3.582031 8 8 8h41c4.417969 0 8-3.582031 8-8zm-16 30h-25v-22h25zm0 0"/><path d="m373 334c0-4.417969-3.582031-8-8-8h-41c-4.417969 0-8 3.582031-8 8v38c0 4.417969 3.582031 8 8 8h41c4.417969 0 8-3.582031 8-8zm-16 30h-25v-22h25zm0 0"/><path d="m132 258c0-4.417969-3.582031-8-8-8h-41c-4.417969 0-8 3.582031-8 8v38c0 4.417969 3.582031 8 8 8h41c4.417969 0 8-3.582031 8-8zm-16 29h-25v-21h25zm0 0"/><path d="m212 258c0-4.417969-3.582031-8-8-8h-41c-4.417969 0-8 3.582031-8 8v38c0 4.417969 3.582031 8 8 8h41c4.417969 0 8-3.582031 8-8zm-17 29h-24v-21h24zm0 0"/><path d="m291 258c0-4.417969-3.582031-8-8-8h-41c-4.417969 0-8 3.582031-8 8v38c0 4.417969 3.582031 8 8 8h41c4.417969 0 8-3.582031 8-8zm-16 29h-25v-21h25zm0 0"/><path d="m373 258c0-4.417969-3.582031-8-8-8h-41c-4.417969 0-8 3.582031-8 8v38c0 4.417969 3.582031 8 8 8h41c4.417969 0 8-3.582031 8-8zm-16 29h-25v-21h25zm0 0"/><path d="m132 182c0-4.417969-3.582031-8-8-8h-41c-4.417969 0-8 3.582031-8 8v38c0 4.417969 3.582031 8 8 8h41c4.417969 0 8-3.582031 8-8zm-16 29h-25v-21h25zm0 0"/><path d="m212 182c0-4.417969-3.582031-8-8-8h-41c-4.417969 0-8 3.582031-8 8v38c0 4.417969 3.582031 8 8 8h41c4.417969 0 8-3.582031 8-8zm-17 29h-24v-21h24zm0 0"/><path d="m291 182c0-4.417969-3.582031-8-8-8h-41c-4.417969 0-8 3.582031-8 8v38c0 4.417969 3.582031 8 8 8h41c4.417969 0 8-3.582031 8-8zm-16 29h-25v-21h25zm0 0"/><path d="m373 182c0-4.417969-3.582031-8-8-8h-41c-4.417969 0-8 3.582031-8 8v38c0 4.417969 3.582031 8 8 8h41c4.417969 0 8-3.582031 8-8zm-16 29h-25v-21h25zm0 0"/><path d="m132 106c0-4.417969-3.582031-8-8-8h-41c-4.417969 0-8 3.582031-8 8v38c0 4.417969 3.582031 8 8 8h41c4.417969 0 8-3.582031 8-8zm-16 29h-25v-21h25zm0 0"/><path d="m212 106c0-4.417969-3.582031-8-8-8h-41c-4.417969 0-8 3.582031-8 8v38c0 4.417969 3.582031 8 8 8h41c4.417969 0 8-3.582031 8-8zm-17 29h-24v-21h24zm0 0"/><path d="m433.5 412h-15.5v-272.773438c.066406-4.441406-3.453125-8.109374-7.894531-8.226562h-86.105469v-65.820312c-.070312-4.488282-3.691406-8.109376-8.179688-8.179688h-94.820312v-48.714844c-.039062-4.5-3.628906-8.160156-8.128906-8.285156h-174.550782c-4.535156.109375-8.191406 3.75-8.320312 8.285156v403.714844h-21.5c-4.417969 0-8.5 3.300781-8.5 7.714844v30c.210938 4.566406 3.925781 8.191406 8.5 8.285156h425c4.417969 0 7.5-3.867188 7.5-8.285156v-30c.101562-2.039063-.648438-4.027344-2.070312-5.492188-1.421876-1.460937-3.390626-2.269531-5.429688-2.222656zm-387.5-396h159v49.179688c-.023438 2.089843.800781 4.097656 2.285156 5.570312 1.480469 1.476562 3.496094 2.285156 5.585938 2.25h95.128906v66.226562c-.03125 2.078126.785156 4.082032 2.257812 5.546876 1.476563 1.46875 3.484376 2.269531 5.5625 2.226562h86.179688v265h-356zm379 426h-409v-14h409zm0 0"/></svg>