<?xml version="1.0"?>
<svg xmlns="http://www.w3.org/2000/svg" id="Layer_1" data-name="Layer 1" viewBox="0 0 512 512" width="512" height="512"><title>Education Mobile</title><path d="M401.821,14H209.536C184.172,14,164,35.005,164,60.369v99.267L68.34,194.712a6.11,6.11,0,0,0-4.045,5.575,5.882,5.882,0,0,0,3.691,5.648L110,222.338v104.18a6.293,6.293,0,0,0,4.211,5.622A278.008,278.008,0,0,0,164,345.562V451.631C164,477,184.172,498,209.536,498H401.821C427.186,498,448,477,448,451.631V60.369C448,35.005,427.186,14,401.821,14Zm-189.9,140.636L336.712,200.5l-30.7,11.95a5.907,5.907,0,0,0-.922.358l-93.163,36.259L118.76,212.812a5.946,5.946,0,0,0-.922-.358l-30.7-11.95ZM209.672,261.1a6.2,6.2,0,0,0,2.213.408,6.934,6.934,0,0,0,2.347-.408L302,227.008v49.386a269.6,269.6,0,0,1-180,0V227.008ZM122,289.093a281.391,281.391,0,0,0,180,0v33.223a269.614,269.614,0,0,1-180,0Zm90.155,60.686A280.448,280.448,0,0,0,310.06,332.14a6.034,6.034,0,0,0,3.94-5.622V222.338l34-13.221v41.391a23.187,23.187,0,1,0,12-.1V201.493c0-.221-.18-.439-.2-.654.015-.184-.044-.365-.046-.552a6.038,6.038,0,0,0-3.971-5.575l-141.765-52.1a5.4,5.4,0,0,0-3.919,0L176,155.225V105H436V391H176V347.4A275.914,275.914,0,0,0,212.155,349.779ZM353.847,261.67a11.322,11.322,0,1,1-11.322,11.322A11.335,11.335,0,0,1,353.847,261.67ZM401.821,486H209.536C190.788,486,176,470.378,176,451.631V403H436v48.631A34.509,34.509,0,0,1,401.821,486ZM436,93H176V60.369C176,41.622,190.788,26,209.536,26H401.821A34.509,34.509,0,0,1,436,60.369Z"/><path d="M339.715,51H271.644a6,6,0,0,0,0,12h68.071a6,6,0,0,0,0-12Z"/><path d="M305.679,417.56a26.945,26.945,0,1,0,26.945,26.945A26.976,26.976,0,0,0,305.679,417.56Zm0,41.89a14.945,14.945,0,1,1,14.945-14.945A14.962,14.962,0,0,1,305.679,459.45Z"/></svg>
