<?xml version="1.0" encoding="iso-8859-1"?>
<!-- Generator: Adobe Illustrator 19.0.0, SVG Export Plug-In . SVG Version: 6.00 Build 0)  -->
<svg version="1.1" id="Capa_1" xmlns="http://www.w3.org/2000/svg" xmlns:xlink="http://www.w3.org/1999/xlink" x="0px" y="0px"
	 viewBox="0 0 512 512" style="enable-background:new 0 0 512 512;" xml:space="preserve">
<g>
	<g>
		<rect x="221.604" y="209.266" width="126.031" height="31.508"/>
	</g>
</g>
<g>
	<g>
		<path d="M442.683,461.464v-15.371c0-2.169-0.446-4.311-1.318-6.302l-45.166-103.456c-24.907-56.929-37.536-117.529-37.536-180.109
			v-6.302c0-8.701-7.052-15.754-15.754-15.754H226.33c-8.701,0-15.754,7.052-15.754,15.754v1.575
			c0,66.171-13.821,129.675-41.107,188.789l-45.686,99.774c-0.94,2.058-1.428,4.296-1.428,6.559v18.905
			c0,8.701,7.052,15.754,15.754,15.754h289.346c8.707,0,15.754-7.052,15.759-15.759
			C443.214,464.122,443.024,462.761,442.683,461.464z M411.175,449.775H153.994l44.106-96.319
			c27.233-59.003,41.937-122.103,43.785-187.77h85.36c1.213,63.598,14.683,125.212,40.088,183.27l43.843,100.431V449.775z"/>
	</g>
</g>
<g>
	<g>
		<rect x="74.568" y="280.684" width="88.747" height="31.508"/>
	</g>
</g>
<g>
	<g>
		<path d="M62.601,388.666c18.81-40.592,29.244-84.094,31.093-129.507h51.426c1.171,35.598,7.767,70.362,19.64,103.513
			l29.659-10.623c-11.931-33.309-17.98-68.45-17.98-104.443v-4.201c0-8.701-7.052-15.754-15.754-15.754H78.239
			c-8.701,0-15.754,7.052-15.754,15.754v1.05c0,46.127-9.578,90.186-28.472,130.967L1.455,445.784
			C0.499,447.858,0,450.111,0,452.401v13.128c0,8.701,7.052,15.754,15.754,15.754h151.762v-31.508H34.328L62.601,388.666z"/>
	</g>
</g>
<g>
	<g>
		<path d="M480.204,138.321c-2.652-3.949-5.955-7.488-9.757-10.455c0.047-0.866,0.068-1.738,0.068-2.626
			c0-23.384-17.266-42.814-39.715-46.211c-8.906-28.341-35.299-48.312-66.36-48.312c-14.341,0-27.911,4.185-39.385,11.989
			c-11.332-7.725-24.728-11.989-38.34-11.989c-37.347,0-67.736,30.389-67.736,67.742c0,0.242,0,0.488,0,0.735
			c-11.863,9.473-18.905,23.72-18.905,39.175c0,14.142,5.719,27.207,16.1,36.785l21.362-23.158
			c-3.839-3.545-5.955-8.381-5.955-13.627c0-7.221,4.012-13.538,10.723-16.893c6.349-3.172,9.794-10.203,8.407-17.166
			c-0.221-1.103-0.221-3.844-0.221-5.85c0-20.317,15.911-36.234,36.229-36.234c9.941,0,19.745,4.338,26.902,11.889
			c2.977,3.14,7.105,4.92,11.427,4.92c0.005,0,0.005,0,0.01,0c4.317,0,8.455-1.775,11.427-4.905
			c7.389-7.782,17.061-11.899,27.958-11.899c19.729,0,36.013,14.646,37.877,34.065c0.462,4.779,3.072,9.085,7.094,11.7
			c3.728,2.426,8.313,3.156,12.582,2.032c0.567-0.026,1.176-0.01,1.785-0.01c8.392,0,15.223,6.832,15.223,15.229
			c0,2.557-0.431,3.455-0.436,3.461c-1.99,3.996-2.206,8.649-0.567,12.803c1.628,4.154,4.947,7.42,9.127,8.99
			c4.017,1.507,7.215,4.695,8.35,8.329c1.371,4.411,4.616,7.992,8.869,9.799c3.23,1.376,6.816,1.617,10.167,0.74
			c3.224,0.179,5.981,3.04,5.981,6.291c0,3.382-3.445,6.827-6.827,6.827c-1.155,0-1.266-0.01-1.423-0.052
			c-5.577-1.392-11.479,0.357-15.391,4.579c-3.912,4.217-5.209,10.235-3.387,15.691c0.536,1.607,0.767,3.098,0.767,4.994
			c0,9.111-7.698,16.804-16.804,16.804c-9.106,0-16.804-7.698-16.804-16.804c0-2.794,0.488-5.125,1.486-7.126
			c2.851-5.698,1.99-12.556-2.179-17.371c-4.18-4.815-10.86-6.638-16.888-4.626c-3.776,1.255-6.774,1.817-9.725,1.817
			c-10.146,0-19.451-6.328-23.148-15.738c-2.022-5.141-6.585-8.854-12.036-9.773c-5.461-0.924-10.975,1.082-14.578,5.272
			c-1.707,1.98-4.374,4.122-7.95,6.354l5.881,9.41l-0.641,0.252c7.898,20.112,27.044,34.013,48.438,35.577
			c2.064,24.755,22.869,44.258,48.144,44.258c25.18,0,45.917-19.361,48.118-43.98c15.176-5.136,26.451-19.719,26.451-36.37
			C512,156.853,498.205,141.21,480.204,138.321z"/>
	</g>
</g>
<g>
</g>
<g>
</g>
<g>
</g>
<g>
</g>
<g>
</g>
<g>
</g>
<g>
</g>
<g>
</g>
<g>
</g>
<g>
</g>
<g>
</g>
<g>
</g>
<g>
</g>
<g>
</g>
<g>
</g>
</svg>
