<svg height="468pt" viewBox="-34 0 468 468" width="468pt" xmlns="http://www.w3.org/2000/svg"><path d="m219.351562 329h-120.042968c-3.3125 0-6 2.6875-6 6s2.6875 6 6 6h120.042968c3.3125 0 6-2.6875 6-6s-2.6875-6-6-6zm0 0"/><path d="m76.304688 465.914062c1.105468 1.242188 2.664062 1.996094 4.324218 2.085938h242.832032c3.3125 0 5.550781-3.171875 5.550781-6.484375v-243.515625h65.480469c3.316406 0 5.519531-2.742188 5.519531-6.054688v-205.460937c0-3.3125-2.203125-6.484375-5.519531-6.484375h-145.667969c-3.3125 0-5.8125 3.171875-5.8125 6.484375v18.515625h-237.484375c-3.316406 0-5.5156252 3.144531-5.5156252 6.457031v351.910157c-.0898438 1.558593.4218752 3.089843 1.4296872 4.277343zm-1.292969-19.300781-55.402344-57.613281h55.402344zm180-434.613281h133v194h-133zm-12 25v174.945312c-.046875 1.578126.546875 3.105469 1.636719 4.242188 1.09375 1.140625 2.597656 1.792969 4.175781 1.8125h68.1875v238h-230v-72.632812c-.148438-3.457032-2.921875-6.226563-6.382813-6.367188h-68.617187v-340zm0 0"/><path d="m63.792969 312h207.21875c3.3125 0 6-2.6875 6-6s-2.6875-6-6-6h-207.21875c-3.316407 0-6 2.6875-6 6s2.683593 6 6 6zm0 0"/><path d="m381.011719 26c0-3.3125-2.6875-6-6-6h-106c-3.316407 0-6 2.6875-6 6v27c0 3.3125 2.683593 6 6 6h106c3.3125 0 6-2.6875 6-6zm-12 21h-94v-15h94zm0 0"/><path d="m298.011719 77c0-3.3125-2.6875-6-6-6h-23c-3.316407 0-6 2.6875-6 6v23c0 3.3125 2.683593 6 6 6h23c3.3125 0 6-2.6875 6-6zm-13 17h-10v-11h10zm0 0"/><path d="m298.011719 121c0-3.3125-2.6875-6-6-6h-23c-3.316407 0-6 2.6875-6 6v23c0 3.3125 2.683593 6 6 6h23c3.3125 0 6-2.6875 6-6zm-13 17h-10v-11h10zm0 0"/><path d="m298.011719 164c0-3.3125-2.6875-6-6-6h-23c-3.316407 0-6 2.6875-6 6v23c0 3.3125 2.683593 6 6 6h23c3.3125 0 6-2.6875 6-6zm-13 17h-10v-11h10zm0 0"/><path d="m339.011719 77c0-3.3125-2.6875-6-6-6h-23c-3.316407 0-6 2.6875-6 6v23c0 3.3125 2.683593 6 6 6h23c3.3125 0 6-2.6875 6-6zm-12 17h-11v-11h11zm0 0"/><path d="m339.011719 121c0-3.3125-2.6875-6-6-6h-23c-3.316407 0-6 2.6875-6 6v23c0 3.3125 2.683593 6 6 6h23c3.3125 0 6-2.6875 6-6zm-12 17h-11v-11h11zm0 0"/><path d="m339.011719 164c0-3.3125-2.6875-6-6-6h-23c-3.316407 0-6 2.6875-6 6v23c0 3.3125 2.683593 6 6 6h23c3.3125 0 6-2.6875 6-6zm-12 17h-11v-11h11zm0 0"/><path d="m381.011719 77c0-3.3125-2.6875-6-6-6h-23c-3.316407 0-6 2.6875-6 6v23c0 3.3125 2.683593 6 6 6h23c3.3125 0 6-2.6875 6-6zm-12 17h-11v-11h11zm0 0"/><path d="m381.011719 121c0-3.3125-2.6875-6-6-6h-23c-3.316407 0-6 2.6875-6 6v67c0 3.3125 2.683593 6 6 6h23c3.3125 0 6-2.6875 6-6zm-12 60h-11v-54h11zm0 0"/><path d="m72.011719 266.414062c-.054688 1.519532.53125 2.988282 1.617187 4.050782 1.085938 1.0625 2.566406 1.617187 4.082032 1.535156h149.570312c1.519531.082031 3.003906-.472656 4.089844-1.535156 1.089844-1.0625 1.683594-2.53125 1.640625-4.050782v-56.183593c1.082031-11.5-2.660157-22.933594-10.332031-31.570313-7.761719-8.660156-18.832032-13.625-30.460938-13.660156h-79.4375c-11.632812.035156-22.699219 5-30.460938 13.664062-7.664062 8.636719-11.398437 20.070313-10.308593 31.566407zm77.046875-69.414062h6.941406l6.582031 36.261719-9.960937 8.96875-9.300782-8.886719zm6.765625-12h-6.660157l-1.875-8h10.410157zm-64.753907 1.710938c5.546876-6.152344 13.429688-9.679688 21.710938-9.710938h22.15625l3.085938 12.75c-.003907.027344-.015626.089844-.023438.121094l-6.988281 44.390625c-.378907 1.992187.273437 4.039062 1.730469 5.449219l15.585937 15c2.269531 2.1875 5.847656 2.242187 8.1875.128906l16.585937-15c1.539063-1.390625 2.25-3.476563 1.878907-5.519532l-8.042969-44.480468 3.109375-12.839844h22.171875c8.273438.007812 16.15625 3.53125 21.679688 9.691406 5.527343 6.160156 8.171874 14.382813 7.277343 22.609375-.019531.199219-.164062.4375-.164062.636719v50.0625h-137v-50.0625c0-.199219-.164063-.4375-.183594-.636719-.882813-8.21875 1.746094-16.421875 7.242187-22.589843zm0 0"/><path d="m151.011719 162.277344c22.054687-.019532 39.9375-17.871094 40-39.925782v-33.792968c.023437-6.824219-2.691407-13.375-7.535157-18.179688-4.847656-4.804687-11.417968-7.460937-18.242187-7.378906h-27.855469c-14.335937 0-26.367187 11.222656-26.367187 25.558594v33.792968c.058593 22.054688 17.945312 39.90625 40 39.925782zm0-12c-15.433594-.011719-27.949219-12.496094-28-27.925782v-19.261718c9-.246094 15.6875-3.445313 21.699219-9.355469 3.273437 3.546875 7.183593 6.449219 11.523437 8.550781 4.402344 2.117188 9.226563 3.210938 14.113281 3.195313 2.917969-.015625 5.824219-.363281 8.664063-1.046875v17.917968c-.054688 15.429688-12.570313 27.914063-28 27.925782zm28-61.71875v3.429687c-6 2.140625-12.339844 2.191407-17.597657-.300781-7.472656-3.53125-12.273437-11.6875-15.113281-16.6875h18.933594c3.640625-.085938 7.164063 1.304688 9.757813 3.859375 2.597656 2.554687 4.046874 6.054687 4.019531 9.699219zm-45.765625-13.425782c1.175781 3.027344 2.574218 5.960938 4.179687 8.777344-4.007812 4.511719-8.414062 6.914063-14.414062 7.179688v-2.53125c.085937-6.238282 4.242187-11.6875 10.234375-13.425782zm0 0"/></svg>