<svg id="Layer_1" height="512" viewBox="0 0 512 512" width="512" xmlns="http://www.w3.org/2000/svg" data-name="Layer 1"><path d="m204.135 187.812a86.357 86.357 0 1 0 -86.358-86.357 86.455 86.455 0 0 0 86.358 86.357zm0-160.714a74.357 74.357 0 1 1 -74.358 74.357 74.441 74.441 0 0 1 74.358-74.355z"/><path d="m461.221 311.113-18.889-14.148 10.885-20.952a6.6 6.6 0 0 0 -4.6-9.52l-23.147-4.5.738-23.622a6.6 6.6 0 0 0 -8.272-6.6l-22.848 5.983-9.6-21.608a6.6 6.6 0 0 0 -10.312-2.348l-17.986 15.302-16.07-13.8a78.357 78.357 0 0 0 -59.272-27.3 6.128 6.128 0 0 0 -4.835 2.577 90.276 90.276 0 0 1 -145.753-.032 6.092 6.092 0 0 0 -4.837-2.545c-43.171 0-78.423 35.414-78.423 78.582v141.964a6.52 6.52 0 0 0 6.135 6.454h238.965l-19.077 46.087a11.719 11.719 0 0 0 2.292 12.629 11.881 11.881 0 0 0 12.526 3.214l23.134-7.5 10.125 20.737a11.865 11.865 0 0 0 10.782 6.742c.14 0 .28 0 .419-.01a11.882 11.882 0 0 0 10.73-7.471l13.515-33.1 12.805 31.295a11.883 11.883 0 0 0 10.731 7.469c.14 0 .279.007.418.007a11.873 11.873 0 0 0 10.782-6.751l10.146-20.763 23.11 7.484a12.02 12.02 0 0 0 14.817-16.013l-24.055-58.415 1.639.429a6.6 6.6 0 0 0 8.274-6.592l-.738-23.624 23.144-4.5a6.6 6.6 0 0 0 4.6-9.525l-10.89-20.959 18.9-14.2a6.6 6.6 0 0 0 -.01-10.561zm-401.221 91.887v-136.418a66.463 66.463 0 0 1 63.426-66.256 102.5 102.5 0 0 0 161.34 0 66.259 66.259 0 0 1 42.966 18.417l-8.443 19.01-22.842-5.982a6.6 6.6 0 0 0 -8.274 6.592l.738 23.624-23.146 4.5a6.6 6.6 0 0 0 -4.6 9.524l10.882 20.948-18.89 14.148a6.6 6.6 0 0 0 -.006 10.563l18.9 14.194-10.884 20.953a6.6 6.6 0 0 0 4.6 9.525l23.148 4.506-.738 23.622a6.6 6.6 0 0 0 8.271 6.594l2.475-.421-.879 2.357zm272.884 81.891-10.121-20.752a12.076 12.076 0 0 0 -14.507-6.166l-23.135 7.458 28.345-68.819 5.826-1.525 9.6 21.615a6.6 6.6 0 0 0 10.31 2.341l2.289-1.948 9.564 23.373zm96.35-21.24-23.11-7.484a12.073 12.073 0 0 0 -14.506 6.166l-10.16 20.747-30.348-74.169 6.08-5.174 17.985 15.3a6.634 6.634 0 0 0 4.292 1.574 6.591 6.591 0 0 0 6.022-3.92l9.6-21.609 6.658 1.744zm2.232-134.63a6.584 6.584 0 0 0 -1.889 8.32l9.665 18.605-20.564 4a6.574 6.574 0 0 0 -5.341 6.687l.656 20.994-20.3-5.316a6.582 6.582 0 0 0 -7.707 3.706l-8.53 19.2-15.982-13.6a6.577 6.577 0 0 0 -8.561 0l-15.985 13.6-8.53-19.2a6.574 6.574 0 0 0 -6.017-3.927 6.657 6.657 0 0 0 -1.69.219l-20.3 5.315.655-20.992a6.572 6.572 0 0 0 -5.337-6.687l-20.567-4 9.664-18.605a6.58 6.58 0 0 0 -1.894-8.323l-16.8-12.618 16.8-12.579a6.581 6.581 0 0 0 1.9-8.327l-9.665-18.6 20.562-4a6.576 6.576 0 0 0 5.343-6.688l-.655-20.993 20.3 5.316a6.576 6.576 0 0 0 7.705-3.707l8.53-19.2 15.987 13.6a6.574 6.574 0 0 0 8.556 0l15.985-13.6 8.533 19.209a6.579 6.579 0 0 0 7.7 3.7l20.3-5.316-.656 20.993a6.574 6.574 0 0 0 5.337 6.688l20.568 4-9.665 18.6a6.585 6.585 0 0 0 1.9 8.328l16.79 12.577z"/><path d="m357.19 252.516a63.9 63.9 0 1 0 63.9 63.9 63.977 63.977 0 0 0 -63.9-63.9zm0 115.809a51.9 51.9 0 1 1 51.9-51.9 51.963 51.963 0 0 1 -51.9 51.9z"/><path d="m357.19 292.483a9.407 9.407 0 0 1 9.4 9.4 6 6 0 0 0 12 0 21.42 21.42 0 0 0 -15.59-20.577v-5.306a6 6 0 0 0 -12 0v5.4a21.393 21.393 0 0 0 6.19 41.871 9.4 9.4 0 1 1 0 18.791c-.176 0-.347-.017-.521-.026s-.328-.026-.494-.031a9.408 9.408 0 0 1 -8.381-9.339 6 6 0 1 0 -12 0 21.412 21.412 0 0 0 14.206 20.134v5.2a6 6 0 0 0 12 0v-4.5a21.386 21.386 0 0 0 -4.81-42.226 9.4 9.4 0 0 1 0-18.792z"/></svg>