<?xml version="1.0" encoding="iso-8859-1"?>
<!-- Generator: Adobe Illustrator 19.0.0, SVG Export Plug-In . SVG Version: 6.00 Build 0)  -->
<svg version="1.1" id="Capa_1" xmlns="http://www.w3.org/2000/svg" xmlns:xlink="http://www.w3.org/1999/xlink" x="0px" y="0px"
	 viewBox="0 0 512 512" style="enable-background:new 0 0 512 512;" xml:space="preserve">
<g>
	<g>
		<path d="M435.419,431.59v47.59h-53.06v-47.59h-32.821v64c0,9.064,7.346,16.41,16.41,16.41h85.88c9.064,0,16.41-7.346,16.41-16.41
			v-64H435.419z"/>
	</g>
</g>
<g>
	<g>
		<path d="M129.641,431.59v47.59h-53.06v-47.59h-32.82v64c0,9.064,7.346,16.41,16.41,16.41h85.88c9.058,0,16.41-7.346,16.41-16.41
			v-64H129.641z"/>
	</g>
</g>
<g>
	<g>
		<path d="M488.73,286.977l-26.803-37.744l-26.765,19.003l23.778,33.477v111.825H53.06V302.693l29.249-33.089L57.72,247.866
			L24.353,285.61c-2.648,3.003-4.114,6.87-4.114,10.869v133.47c0,9.064,7.346,16.41,16.41,16.41H475.35
			c9.064,0,16.41-7.346,16.41-16.41v-133.47C491.761,293.076,490.699,289.756,488.73,286.977z"/>
	</g>
</g>
<g>
	<g>
		<path d="M465.368,253.511l-31.727-106.667c-2.073-6.958-8.473-11.733-15.732-11.733H100.097c-7.259,0-13.659,4.775-15.727,11.733
			L52.644,253.511c-1.477,4.967-0.52,10.333,2.576,14.49c3.102,4.152,7.975,6.597,13.156,6.597h381.265
			c5.18,0,10.06-2.445,13.145-6.597C465.887,263.85,466.844,258.478,465.368,253.511z M90.377,241.778l21.968-73.846h293.328
			l21.962,73.846H90.377z"/>
	</g>
</g>
<g>
	<g>
		<path d="M147.692,309.06H86.974c-9.064,0-16.41,7.346-16.41,16.41v49.778c0,9.064,7.346,16.41,16.41,16.41h60.718
			c9.058,0,16.41-7.346,16.41-16.41V325.47C164.103,316.406,156.756,309.06,147.692,309.06z M131.282,358.838h-27.897V341.88h27.897
			V358.838z"/>
	</g>
</g>
<g>
	<g>
		<path d="M425.026,309.06h-60.718c-9.064,0-16.41,7.346-16.41,16.41v49.778c0,9.064,7.346,16.41,16.41,16.41h60.718
			c9.064,0,16.41-7.346,16.41-16.41V325.47C441.436,316.406,434.09,309.06,425.026,309.06z M408.615,358.838h-27.897V341.88h27.897
			V358.838z"/>
	</g>
</g>
<g>
	<g>
		<path d="M310.695,330.94H201.294c-9.064,0-16.41,7.346-16.41,16.41c0,9.064,7.346,16.41,16.41,16.41h109.402
			c9.069,0,16.41-7.346,16.41-16.41C327.106,338.286,319.759,330.94,310.695,330.94z"/>
	</g>
</g>
<g>
	<g>
		<path d="M355.009,68.376H156.991c-9.064,0-16.41,7.346-16.41,16.41v68.376h32.821v-51.966h165.197v51.966h32.82V84.786
			C371.419,75.722,364.073,68.376,355.009,68.376z"/>
	</g>
</g>
<g>
	<g>
		<rect x="204.581" y="84.786" width="32.82" height="68.376"/>
	</g>
</g>
<g>
	<g>
		<rect x="274.598" y="84.786" width="32.82" height="68.376"/>
	</g>
</g>
<g>
	<g>
		<path d="M249.436,0c-9.064,0-16.41,7.346-16.41,16.41v24.615c0,9.064,7.346,16.41,16.41,16.41c9.058,0,16.41-7.346,16.41-16.41
			V16.41C265.846,7.346,258.5,0,249.436,0z"/>
	</g>
</g>
<g>
	<g>
		<path d="M349.095,6.887c-8.287-3.681-17.975,0.049-21.662,8.331l-10.94,24.615c-3.681,8.276,0.044,17.975,8.325,21.656
			c2.172,0.968,4.431,1.422,6.657,1.422c6.291,0,12.286-3.638,15.004-9.753l10.94-24.615
			C361.102,20.267,357.377,10.568,349.095,6.887z"/>
	</g>
</g>
<g>
	<g>
		<path d="M182.373,39.833l-10.94-24.615c-3.676-8.282-13.369-12.012-21.656-8.331c-8.282,3.676-12.012,13.374-8.331,21.656
			l10.94,24.615c2.719,6.116,8.719,9.753,15.004,9.753c2.226,0,4.491-0.459,6.652-1.422
			C182.323,57.813,186.054,48.115,182.373,39.833z"/>
	</g>
</g>
<g>
</g>
<g>
</g>
<g>
</g>
<g>
</g>
<g>
</g>
<g>
</g>
<g>
</g>
<g>
</g>
<g>
</g>
<g>
</g>
<g>
</g>
<g>
</g>
<g>
</g>
<g>
</g>
<g>
</g>
</svg>
