<svg height="498pt" viewBox="-52 0 498 498.29807" width="498pt" xmlns="http://www.w3.org/2000/svg"><path d="m385.855469 147.296875h-107.667969c9.480469-14 14.984375-32.332031 14.984375-51.25.011719-53.03125-42.964844-96.03125-95.996094-96.046875s-96.035156 42.964844-96.046875 95.996094c0 18.917968 5.5 37.300781 14.984375 51.300781h-48.082031c-2.144531.074219-4.175781.988281-5.652344 2.542969l-59.738281 59.699218c-1.546875 1.523438-2.4375 3.589844-2.492187 5.757813v275.070313c.148437 4.460937 3.832031 7.984374 8.292968 7.929687h317.824219c2.117187.011719 4.152344-.816406 5.65625-2.308594l59.738281-59.574219c1.539063-1.476562 2.433594-3.503906 2.488282-5.636718v-275.074219c-.105469-4.554687-3.738282-8.238281-8.292969-8.40625zm-188.707031-131.070313c44.195312 0 80.023437 35.828126 80.023437 80.023438s-35.828125 80.019531-80.023437 80.023438c-44.191407 0-80.019532-35.828126-80.019532-80.023438.046875-44.175781 35.847656-79.972656 80.019532-80.023438zm-125.800782 147.070313h57.535156c5.074219 6 10.71875 10.105469 16.832032 14h-7.566406c-4.417969 0-8 3.582031-8 8s3.582031 8 8 8h112c4.417968 0 8-3.582031 8-8s-3.582032-8-8-8h-1.5625c6.113281-3.894531 11.757812-8 16.832031-14h101.125l-43.59375 44h-295.195313zm-55.199218 60h302v259h-302zm318 247.757813v-252.445313l44-43.59375v252.445313zm0 0"/><path d="m189.132812 97.886719-.015624 2.410156h-13.96875c-4.417969 0-8 3.582031-8 8s3.582031 8 8 8h13.871093l-.015625 3h-13.855468c-4.417969 0-8 3.582031-8 8s3.582031 8 8 8h13.753906l-.039063 6.757813c-.050781 4.460937 3.492188 8.132812 7.949219 8.242187h.050781c4.433594-.085937 7.988281-3.695313 8-8.132813l.042969-6.867187h14.242188c4.417968 0 8-3.582031 8-8s-3.582032-8-8-8h-14.144532l.015625-3h14.128907c4.417968 0 8-3.582031 8-8s-3.582032-8-8-8h-14.03125l.015624-2.363281 28.804688-40.6875c2.554688-3.609375 1.703125-8.601563-1.90625-11.15625-3.605469-2.550782-8.597656-1.699219-11.152344 1.90625l-23.730468 33.523437-23.730469-33.523437c-2.554688-3.605469-7.546875-4.457032-11.152344-1.90625-3.605469 2.554687-4.460937 7.546875-1.90625 11.152344zm0 0"/></svg>