<svg height="477pt" viewBox="-37 0 477 477.51129" width="477pt" xmlns="http://www.w3.org/2000/svg"><path d="m377.222656 247.246094c6.597656.011718 12.925782-2.59375 17.609375-7.238282 4.691407-4.585937 7.363281-10.855468 7.421875-17.414062v-1.90625c0-13.589844-11.449218-24.175781-25.039062-24.175781l-55.019532-.21875.121094-76.851563 11.9375-.058594v-.03125c9.125.015626 17.558594-4.863281 22.09375-12.777343 4.539063-7.917969 4.484375-17.660157-.136718-25.527344-4.625-7.863281-13.109376-12.648437-22.234376-12.535156h-.007812l-56.480469-.175781c-4.261719-38.871094-37.085937-68.3085942-76.191406-68.335938-39.101563-.0273438-71.964844 29.371094-76.28125 68.234375l-56.488281-.007813c-14.160156.003907-25.640625 11.484376-25.636719 25.648438 0 14.160156 11.484375 25.636719 25.644531 25.636719h.003906l11.785157.128906.011719 76.871094h-55.242188c-13.59375 0-24.839844 10.675781-24.839844 24.265625v1.902344c.1875 13.71875 11.320313 24.761718 25.039063 24.832031l15.902343-.101563.039063 178.519532-15.945313-.019532c-6.59375-.015625-12.925781 2.582032-17.609374 7.226563-4.691407 4.582031-7.363282 10.847656-7.425782 17.40625v1.898437c.167969 13.765625 11.277344 24.886719 25.039063 25.070313l351.925781-.292969c13.71875-.097656 24.847656-11.144531 25.035156-24.867188v-1.898437c-.183594-13.734375-11.300781-24.808594-25.035156-24.941406h-.007812l-15.898438.152343-.039062-178.492187zm-71.035156-51.183594-24.085938.003906-.015624-76.726562 24.085937-.007813zm-176.117188.039062-.015624-76.714843 22.007812-.007813.015625 76.71875zm38.007813-.007812-.015625-76.71875 22.007812-.007812.015626 76.722656zm38.007813-.007812-.015626-76.722657 22.007813-.007812.015625 76.726562zm38.007812-.007813-.015625-76.726563 22.007813-.007812.015624 76.730469zm-42.839844-180.140625c30.230469.039062 55.839844 22.285156 60.113282 52.210938l-20.703126.003906c-3.800781-18.746094-20.285156-32.222656-39.417968-32.21875-19.128906.007812-35.605469 13.492187-39.394532 32.246094l-20.703124.003906c4.253906-29.941406 29.867187-52.203125 60.105468-52.246094zm22.847656 52.222656-45.699218.011719c3.386718-9.71875 12.550781-16.234375 22.84375-16.234375 10.292968-.003906 19.464844 6.503906 22.855468 16.222656zm-155.566406 35.242188c-5.300781.003906-9.601562-4.292969-9.601562-9.59375 0-5.304688 4.296875-9.601563 9.597656-9.605469l265.445312-.078125c5.300782 0 9.597657 4.296875 9.597657 9.597656 0 5.304688-4.296875 9.601563-9.597657 9.601563zm27.789063 15.992187h17.730469l.015624 76.714844h-17.734374zm-71.222657 111.929688c-4.8125.011719-8.746093-3.835938-8.847656-8.644531v-1.902344c.097656-4.808594 4.03125-8.65625 8.84375-8.644532l352.214844-.082031c4.832031-.019531 8.796875 3.8125 8.941406 8.640625v1.898438c-.070312 2.355468-1.050781 4.589844-2.738281 6.234375-1.636719 1.671875-3.863281 2.632812-6.199219 2.683593h-.050781l-23.140625.023438c-.285156-.023438-.574219-.03125-.859375-.023438-.285156 0-.5625-.136718-.839844-.109374l-36.332031.082031c-.277344-.003907-.558594.003906-.839844.03125-.28125 0-.5625-.132813-.835937-.101563l-36.328125.078125c-.277344-.027343-.554688.027344-.839844.027344s-.5625-.128906-.839844-.101563l-36.328125.078126c-.277343-.007813-.558593 0-.839843.023437-.28125 0-.5625-.125-.839844-.097656l-36.328125.074219c-.277344-.007813-.558594 0-.835938.023437-.285156 0-.566406-.121094-.839843-.09375l-36.328126.074219c-.28125-.007813-.5625-.003906-.839843.019531-.285157 0-.5625-.117187-.839844-.089844l-36.328125.070313c-.28125-.007813-.558594 0-.839844.019531-.277344-.042969-.554687-.070313-.835937-.082031l-36.332031.066406c-.273438-.027344-.554688.015625-.835938.015625-.277344-.042969-.558594-.066406-.839844-.078125l-36.328125.0625c-.273437-.027344-.554687.015625-.839843.015625-.285157 0-.660157-.101563-.9375-.074219zm70.152344 194.546875-.039062-178.5625 22.007812-.003906.03125 178.5625zm38-.007813-.039062-178.5625h22.011718l.035157 178.5625zm38.007813-.007812-.035157-178.5625h22.007813l.039063 178.5625zm38.011719-.007813-.039063-178.566406h22.007813l.039062 178.566406zm38.007812-.007812-.039062-178.566406h22.007812l.039062 178.566406zm38.007812-.011719-.035156-178.5625h22.007813l.042969 178.5625zm-228.085937-178.511719h22.007813l.042968 178.558594h-22.007812zm320.011719 194.195313c4.898437.132812 8.851562 4.042969 9.039062 8.941406v1.902344c-.074218 2.246093-1.066406 4.359375-2.738281 5.855469-1.675781 1.5625-3.910156 2.390624-6.199219 2.300781h-.050781l-352.144531.328125c-4.765625.125-8.734375-3.632813-8.867188-8.398438v-1.898437c.210938-4.800781 4.136719-8.597657 8.941406-8.652344l23.164063-.210937c.273437.027343.597656-.164063.882813-.164063.285156 0 .566406.191406.839843.164063l36.332031-.109376c.28125-.003906.5625-.023437.839844-.058593.285156 0 .566406.1875.839844.160156l36.332031-.109375c.277344 0 .558594-.019531.835938-.050781.28125 0 .5625.183593.839843.15625l36.332032-.101563c.277344-.003906.554687-.019531.835937-.050781.28125 0 .558594.179687.835938.152344l36.332031-.101563c.277344-.003906.558594-.019531.835938-.050781.285156 0 .566406.175781.839843.148437l36.328125-.101562c.277344.027344.554688-.046875.839844-.046875s.5625.171875.839844.144531l36.328125-.101562c.277343.027344.554687-.046875.839843-.046875.28125 0 .5625.167969.835938.136719l36.332031-.097657c.277344 0 .558594-.015625.835938-.042969.285156 0 .5625.164063.839843.132813l36.332032-.09375c.277344.003906.558594-.011719.835937-.039063.277344.007813.558594 0 .835938-.019531zm-31.90625-15.699219-22.007813.003906-.039062-178.5625h22.007812zm0 0"/></svg>