<svg height="501pt" viewBox="0 0 501 501.29239" width="501pt" xmlns="http://www.w3.org/2000/svg"><path d="m250.796875 198.449219c11.878906.011719 21.511719 9.644531 21.523437 21.523437 0 3.316406 2.6875 6 6 6s6-2.683594 6-6c-.023437-16.574218-12.136718-30.65625-28.523437-33.148437v-12.1875c0-3.3125-2.6875-6-6-6-3.316406 0-6 2.6875-6 6v12.554687c-16.777344 3.582032-28.140625 19.246094-26.339844 36.304688 1.800781 17.054687 16.1875 30.003906 33.339844 30.003906 11.886719 0 21.523437 9.636719 21.523437 21.523438 0 11.890624-9.636718 21.527343-21.527343 21.527343-11.886719 0-21.523438-9.640625-21.523438-21.527343 0-3.3125-2.6875-6-6-6s-6 2.6875-6 6c.023438 15.808593 11.070313 29.460937 26.527344 32.785156v11.828125c0 3.3125 2.683594 6 6 6 3.3125 0 6-2.6875 6-6v-11.460938c17.34375-2.617187 29.742187-18.164062 28.429687-35.660156-1.3125-17.492187-15.890624-31.015625-33.429687-31.015625-11.890625 0-21.527344-9.636719-21.527344-21.527344 0-11.886718 9.636719-21.523437 21.527344-21.523437zm0 0"/><path d="m467.414062 216.613281c-16.085937.023438-29.964843 11.289063-33.296874 27.023438h-13.140626c-1.699218-40.527344-17.855468-79.109375-45.546874-108.75l9.339843-9.339844c14.546875 9.945313 34.28125 7.140625 45.480469-6.472656 11.195312-13.609375 10.144531-33.515625-2.421875-45.871094-12.566406-12.359375-32.488281-13.074219-45.90625-1.652344-13.421875 11.421875-15.898437 31.203125-5.710937 45.582031l-9.261719 9.261719c-30.476563-28.550781-70.40625-44.863281-112.152344-45.816406v-12.777344c17.492187-2.074219 30.511719-17.164062 29.996094-34.777343-.515625-17.609376-14.390625-31.914063-31.976563-32.9648442-17.589844-1.0468748-33.066406 11.5039062-35.671875 28.9296872s8.527344 33.953125 25.652344 38.09375v13.640625c-40.144531 1.863282-78.328125 17.910156-107.746094 45.289063l-9.34375-9.339844c9.964844-14.546875 7.167969-34.289063-6.4375-45.5-13.605469-11.207031-33.519531-10.171875-45.886719 2.386719-12.371093 12.5625-13.101562 32.488281-1.683593 45.921875 11.414062 13.433593 31.199219 15.921875 45.589843 5.738281l9.253907 9.257812c-28.15625 29.941407-44.488281 69.085938-45.96875 110.160157h-12.914063c-3.109375-17.347657-18.949218-29.449219-36.503906-27.890625-17.554688 1.5625-31.011719 16.269531-31.011719 33.890625 0 17.625 13.457031 32.328125 31.011719 33.890625 17.554688 1.558594 33.394531-10.542969 36.503906-27.890625h12.898438c1.375 41.472656 17.894531 81.003906 46.4375 111.121093l-8.894532 8.894532c-14.054687-10.578125-33.859374-8.671875-45.644531 4.390625-11.78125 13.066406-11.636719 32.960937.328125 45.855469 11.96875 12.894531 31.796875 14.519531 45.703125 3.742187 13.902344-10.773437 17.28125-30.382813 7.78125-45.1875l9.265625-9.269531c29.613282 27.34375 67.988282 43.25 108.261719 44.878906v12.902344c-17.25 3.621094-28.878906 19.816406-26.796875 37.320312 2.082031 17.5 17.183594 30.515625 34.804688 29.992188 17.617187-.523438 31.917968-14.414063 32.957031-32.007813 1.035156-17.597656-11.53125-33.070312-28.964844-35.664062v-12.46875c41.855469-1.203125 81.792969-17.835938 112.128906-46.699219l8.882813 8.882812c-10.609375 14.070313-8.722656 33.910157 4.351562 45.726563 13.074219 11.8125 33.007813 11.691406 45.933594-.285156 12.925781-11.976563 14.566406-31.839844 3.785156-45.777344-10.785156-13.933594-30.425781-17.332031-45.261718-7.824219l-9.277344-9.28125c27.722656-30.144531 43.613281-69.300781 44.730468-110.242187h12.691407c2.664062 17.945312 18.941406 30.640625 36.992187 28.859375 18.054688-1.78125 31.535156-17.414063 30.640625-35.53125-.890625-18.117188-15.839843-32.351563-33.980469-32.351563zm-433.238281 56.046875c-12.164062 0-22.023437-9.859375-22.023437-22.023437.003906-12.164063 9.863281-22.023438 22.023437-22.023438 12.164063 0 22.023438 9.859375 22.023438 22.023438-.011719 12.160156-9.867188 22.011719-22.023438 22.023437zm354.21875-190.769531c8.601563-8.601563 22.546875-8.601563 31.148438 0 8.601562 8.601563 8.601562 22.546875 0 31.148437-8.601563 8.601563-22.546875 8.597657-31.148438 0-4.148437-4.121093-6.480469-9.726562-6.480469-15.574218s2.332032-11.453125 6.480469-15.574219zm-159.625-47.871094c0-12.164062 9.863281-22.023437 22.027344-22.023437 12.160156 0 22.023437 9.859375 22.023437 22.023437 0 12.164063-9.863281 22.023438-22.023437 22.023438-12.160156-.015625-22.011719-9.867188-22.027344-22.023438zm-146.71875 79.019531c-8.601562-8.601562-8.601562-22.546874-.003906-31.148437 8.601563-8.601563 22.546875-8.601563 31.148437 0 8.601563 8.601563 8.601563 22.546875 0 31.148437-8.605468 8.585938-22.539062 8.585938-31.144531 0zm31.144531 306.34375c-7.429687 7.429688-19.070312 8.574219-27.808593 2.738282-8.734375-5.835938-12.128907-17.03125-8.109375-26.738282 4.023437-9.707031 14.339844-15.222656 24.644531-13.171874 10.300781 2.050781 17.722656 11.09375 17.722656 21.597656 0 5.84375-2.320312 11.441406-6.449219 15.574218zm159.625 47.875c0 12.164063-9.859374 22.027344-22.023437 22.027344-12.164063.003906-22.023437-9.859375-22.027344-22.023437 0-12.164063 9.859375-22.023438 22.027344-22.023438 12.152344.011719 22.003906 9.863281 22.023437 22.019531zm146.71875-79.019531c8.601563 8.601563 8.601563 22.542969.003907 31.144531-8.601563 8.601563-22.546875 8.601563-31.148438 0-8.601562-8.601562-8.601562-22.542968 0-31.144531 4.109375-4.167969 9.71875-6.511719 15.574219-6.511719 5.851562 0 11.460938 2.34375 15.570312 6.511719zm-168.742187 20.980469c-87.3125 0-158.347656-71.035156-158.347656-158.34375 0-87.3125 71.035156-158.347656 158.347656-158.347656 87.308594 0 158.34375 71.035156 158.34375 158.347656 0 87.308594-71.035156 158.34375-158.34375 158.34375zm216.617187-136.558594c-12.164062 0-22.023437-9.859375-22.023437-22.023437 0-12.164063 9.863281-22.023438 22.023437-22.023438 12.164063 0 22.023438 9.859375 22.023438 22.023438-.011719 12.160156-9.867188 22.011719-22.023438 22.023437zm0 0"/><path d="m250.796875 127.253906c-68.273437 0-123.621094 55.347656-123.621094 123.621094s55.347657 123.617188 123.621094 123.617188 123.617187-55.34375 123.617187-123.617188c-.078124-68.242188-55.378906-123.542969-123.617187-123.621094zm0 235.238282c-61.648437 0-111.621094-49.972657-111.621094-111.617188 0-61.648438 49.972657-111.621094 111.621094-111.621094 61.644531 0 111.617187 49.972656 111.617187 111.621094-.070312 61.617188-50.003906 111.546875-111.617187 111.617188zm0 0"/></svg>