<svg height="468pt" viewBox="-33 0 467 468" width="468pt" xmlns="http://www.w3.org/2000/svg"><path d="m93.808594 294c0 3.3125 2.6875 6 6 6h207.214844c3.3125 0 6-2.6875 6-6s-2.6875-6-6-6h-207.214844c-3.3125 0-6 2.6875-6 6zm0 0"/><path d="m219.851562 329h-120.042968c-3.3125 0-6 2.6875-6 6s2.6875 6 6 6h120.042968c3.3125 0 6-2.6875 6-6s-2.6875-6-6-6zm0 0"/><path d="m394.992188 0h-145.667969c-3.316407 0-5.816407 3.171875-5.816407 6.484375v18.515625h-237.480468c-3.316406 0-5.519532 3.144531-5.519532 6.457031v351.910157c-.085937 1.519531.429688 3.015624 1.433594 4.15625l74.984375 78.390624c1.058594 1.238282 2.578125 1.992188 4.203125 2.085938h242.832032c3.3125 0 5.546874-3.171875 5.546874-6.484375v-243.515625h65.484376c3.316406 0 5.515624-2.742188 5.515624-6.054688v-205.460937c0-3.3125-2.199218-6.484375-5.515624-6.484375zm-319.484376 446.613281-55.398437-57.613281h55.398437zm242 9.386719h-230v-72.632812c-.148437-3.457032-2.917968-6.226563-6.378906-6.367188h-68.621094v-340h231v174.945312c-.042968 1.578126.550782 3.105469 1.640626 4.242188 1.09375 1.140625 2.597656 1.792969 4.175781 1.8125h68.183593zm71-250h-133v-194h133zm0 0"/><path d="m381.507812 26c0-3.3125-2.683593-6-6-6h-106c-3.3125 0-6 2.6875-6 6v27c0 3.3125 2.6875 6 6 6h106c3.316407 0 6-2.6875 6-6zm-106 6h94v15h-94zm0 0"/><path d="m298.507812 77c0-3.3125-2.683593-6-6-6h-23c-3.3125 0-6 2.6875-6 6v23c0 3.3125 2.6875 6 6 6h23c3.316407 0 6-2.6875 6-6zm-23 6h10v11h-10zm0 0"/><path d="m298.507812 121c0-3.3125-2.683593-6-6-6h-23c-3.3125 0-6 2.6875-6 6v23c0 3.3125 2.6875 6 6 6h23c3.316407 0 6-2.6875 6-6zm-23 6h10v11h-10zm0 0"/><path d="m298.507812 164c0-3.3125-2.683593-6-6-6h-23c-3.3125 0-6 2.6875-6 6v23c0 3.3125 2.6875 6 6 6h23c3.316407 0 6-2.6875 6-6zm-23 6h10v11h-10zm0 0"/><path d="m339.507812 77c0-3.3125-2.683593-6-6-6h-23c-3.3125 0-6 2.6875-6 6v23c0 3.3125 2.6875 6 6 6h23c3.316407 0 6-2.6875 6-6zm-12 17h-11v-11h11zm0 0"/><path d="m339.507812 121c0-3.3125-2.683593-6-6-6h-23c-3.3125 0-6 2.6875-6 6v23c0 3.3125 2.6875 6 6 6h23c3.316407 0 6-2.6875 6-6zm-12 17h-11v-11h11zm0 0"/><path d="m339.507812 164c0-3.3125-2.683593-6-6-6h-23c-3.3125 0-6 2.6875-6 6v23c0 3.3125 2.6875 6 6 6h23c3.316407 0 6-2.6875 6-6zm-12 17h-11v-11h11zm0 0"/><path d="m381.507812 77c0-3.3125-2.683593-6-6-6h-23c-3.3125 0-6 2.6875-6 6v23c0 3.3125 2.6875 6 6 6h23c3.316407 0 6-2.6875 6-6zm-12 17h-11v-11h11zm0 0"/><path d="m381.507812 121c0-3.3125-2.683593-6-6-6h-23c-3.3125 0-6 2.6875-6 6v67c0 3.3125 2.6875 6 6 6h23c3.316407 0 6-2.6875 6-6zm-12 60h-11v-54h11zm0 0"/><path d="m217.507812 270.15625v-31.167969c-.15625-21.535156-17.625-38.925781-39.15625-38.988281h-10.84375v-.015625c3-2.640625 6.808594-5.742187 10.5-9.429687 9.976563-9.964844 17.300782-20.476563 21.8125-31.238282 6.335938-15.125 6.613282-31.398437.800782-45.808594-4.390625-10.878906-12.464844-17.335937-21.410156-17.574218-9.628907-19.8125-32.253907-29.65625-53.316407-23.199219-17.785156 5.140625-32.46875 17.082031-40.28125 32.757813-4.59375 9.386718-6.742187 19.78125-6.246093 30.214843 1.074218 26.113281 15.140624 50.429688 37.140624 63.015625v1.277344h-10.871093c-21.527344.0625-38.984375 17.457031-39.128907 38.988281v31.167969c.144532 3.332031 2.9375 5.9375 6.273438 5.84375h138.429688c3.339843.09375 6.140624-2.503906 6.296874-5.84375zm-89-64.03125v-7.535156c4.296876 1.511718 8.808594 2.328125 13.363282 2.410156h.34375c4.53125-.113281 9.019531-.941406 13.292968-2.453125v8.203125c0 7.457031-6.042968 13.5-13.5 13.5-7.453124 0-13.5-6.042969-13.5-13.5zm47-67.324219v16.109375c0 18.421875-14.769531 33.4375-33.1875 33.742188-8.898437.082031-17.457031-3.378906-23.800781-9.617188-6.339843-6.238281-9.941406-14.742187-10.011719-23.636718v-2.558594c22.445313-4.34375 42-17.980469 53.832032-37.539063 1.308594.507813 2.558594 1.152344 3.726562 1.929688 5.902344 3.9375 9.402344 10.601562 9.292969 17.695312zm1.320313-30.648437c7.511719-1.789063 11.855469 7.886718 12.648437 9.84375 4.625 11.460937 4.359376 24.488281-.746093 36.683594-.535157 1.277343-.933594 2.550781-1.566407 3.824218.09375-1.1875.34375-2.386718.34375-3.597656v-16.015625l-.132812-3.792969c.199219-10.601562-4.742188-20.640625-13.261719-26.953125.890625.226563 1.824219.230469 2.714844.007813zm-80.484375 2.6875c6.320312-12.683594 18.300781-22.375 32.875-26.582032 8.121094-2.515624 16.898438-1.796874 24.5 2.011719 7.160156 3.734375 12.769531 9.878907 15.832031 17.351563l.199219.59375c.21875.644531.542969 1.25.964844 1.789062-3.214844-1.839844-6.75-3.050781-10.417969-3.570312-2.46875-.34375-4.894531.878906-6.085937 3.066406-17.5 32.023438-48.328126 35.777344-50.980469 36.046875-3.738281.160156-6.691407 3.222656-6.722657 6.964844v6.886719c0 1.230468.121094 2.449218.214844 3.660156-3.292968-7.542969-5.15625-15.632813-5.5-23.855469-.367187-8.421875 1.394532-16.800781 5.121094-24.359375zm109.164062 153.160156h-127v-25.011719c.132813-14.90625 12.226563-26.933593 27.128907-26.988281h11.246093c2.535157 11.773438 12.945313 20.183594 24.992188 20.183594 12.042969 0 22.453125-8.410156 24.992188-20.183594h11.484374c14.910157.054688 27.007813 12.078125 27.15625 26.988281zm0 0"/></svg>