<?xml version="1.0"?>
<svg xmlns="http://www.w3.org/2000/svg" id="Layer_1" data-name="Layer 1" viewBox="0 0 512 512" width="512" height="512"><title>Savings</title><path d="M392,122.752V94h4.325A5.8,5.8,0,0,0,402,87.926V25.772C402,16.719,394.96,9,385.907,9H126.093C117.04,9,110,16.719,110,25.772V87.926A5.8,5.8,0,0,0,115.675,94H120v28.774C89,137.042,68,169.3,68,204.329V454.993C68,481.192,89.743,503,115.96,503h280.1c26.2,0,47.942-21.808,47.942-48.024V204.333a90.791,90.791,0,0,0-15.206-50.266A86.184,86.184,0,0,0,392,122.752ZM122,25.772c0-2.436,1.657-4.772,4.093-4.772H385.907c2.436,0,4.093,2.336,4.093,4.772V82H122ZM432,454.958C432,474.579,415.644,491,396.04,491H115.978A36.353,36.353,0,0,1,80,454.976V204.329c0-31.572,19.41-60.521,48.1-72.037a6.122,6.122,0,0,0,3.9-5.568V94H380v32.729a6.121,6.121,0,0,0,3.928,5.58C412.6,143.631,432,172.575,432,204.333Z"/><path d="M270.172,273.591A78.968,78.968,0,1,0,191.2,194.623,79.058,79.058,0,0,0,270.172,273.591Zm0-145.935A66.968,66.968,0,1,1,203.2,194.623,67.043,67.043,0,0,1,270.172,127.656Z"/><path d="M270.172,228.832a12.911,12.911,0,0,1-12.9-12.9,6,6,0,1,0-12,0A24.941,24.941,0,0,0,264,240.057V245a6,6,0,0,0,12,0v-4.864a24.894,24.894,0,0,0-5.828-49.1,12.9,12.9,0,1,1,12.9-12.9,6,6,0,0,0,12,0A24.936,24.936,0,0,0,276,153.941V150a6,6,0,0,0-12,0v4.021a24.9,24.9,0,0,0,6.172,49.018,12.9,12.9,0,0,1,0,25.793Z"/><path d="M346.788,278H182.927A6.009,6.009,0,0,0,177,284.083V322H165.212A6.51,6.51,0,0,0,159,328.37v43.4A6.384,6.384,0,0,0,165.212,378H177v33H165.212A6.137,6.137,0,0,0,159,416.943v43.4c0,3.314,2.9,5.656,6.212,5.656H329.073A5.653,5.653,0,0,0,335,460.344V422h11.788A6.136,6.136,0,0,0,353,416.058v-43.4c0-3.313-2.9-5.656-6.212-5.656H335V333h11.788c3.314,0,6.212-2.2,6.212-5.516v-43.4A6.255,6.255,0,0,0,346.788,278ZM244,410V379h15v31Zm9-44V334h15v32Zm-12-32v32H227V334Zm-9,45v31H218V379Zm39,31V379h14v31Zm9-44V334h14v32Zm-9-45V290h14v31Zm-12,0H244V290h15Zm-27,0H218V290h14Zm-17,13v32H200V334Zm-9,76H189V379h17Zm9,13v31H200V423Zm12,0h14v31H227Zm26,0h15v31H253Zm27,0h14v31H280Zm17-13V379h15v31Zm9-76h17v32H306Zm-9-13V290h15v31ZM189,290h17v31H189Zm-18,44h17v32H171Zm0,89h17v31H171Zm152,31H306V423h17Zm18-44H324V379h17Zm0-89H324V290h17Z"/></svg>
