<svg id="Layer_1" height="512" viewBox="0 0 512 512" width="512" xmlns="http://www.w3.org/2000/svg" data-name="Layer 1"><path d="m476 111.639a5.481 5.481 0 0 0 -5.736-5.639h-68.264v-18.893c0-.228.2-.452.175-.674.018-.2.15-.394.148-.6a5.951 5.951 0 0 0 -3.876-5.575l-149.647-55.01a5.954 5.954 0 0 0 -4.127 0l-149.66 55.014a6 6 0 0 0 -3.927 5.575 6.247 6.247 0 0 0 3.826 5.829l36.369 14.334h-89.546a5.48 5.48 0 0 0 -5.735 5.639v301.952c0 3.314 2.422 6.409 5.735 6.409h149.546l-15.569 55h-27.2a6 6 0 0 0 0 12h214.974a6 6 0 0 0 0-12h-27.2l-15.569-55h149.547c3.313 0 5.736-3.1 5.736-6.409v-65.006-12zm-231.231 38.1a5.525 5.525 0 0 0 2.083.409 6.051 6.051 0 0 0 2.185-.409l92.963-36.18v52.874c-62 21.9-129 21.9-190 0v-52.875zm-92.769 29.4a291.088 291.088 0 0 0 95 15.738 295.542 295.542 0 0 0 95-15.738v35.784c-62 21.9-129 21.9-190 0zm238-73.139h-27.761l27.761-11.333zm-143.24-68.728 132.716 48.782-33.264 12.946a6 6 0 0 0 -.95.37l-98.5 38.336-98.5-38.337a5.875 5.875 0 0 0 -.952-.369l-33.265-12.946zm-198.76 80.728h92v101.123a5.837 5.837 0 0 0 3.72 5.622 295.071 295.071 0 0 0 103.132 18.6 295.63 295.63 0 0 0 103.234-18.6 6.008 6.008 0 0 0 3.914-5.622v-101.123h36v21.116a24.323 24.323 0 0 0 6.512 47.779 24.267 24.267 0 0 0 5.488-47.873v-21.022h62v219h-416zm348.62 32.314a12.291 12.291 0 1 1 -12.29 12.29 12.3 12.3 0 0 1 12.29-12.29zm-72.795 324.686h-135.65l15.569-55h104.512zm140.175-67h-416v-59h416z"/></svg>