<svg height="497pt" viewBox="0 -93 497.538 497" width="497pt" xmlns="http://www.w3.org/2000/svg"><path d="m432.945312 180.269531h-86.175781v-171.519531c0-4.417969-3.65625-8.480469-8.074219-8.480469h-179.855468c-4.417969 0-8.070313 4.0625-8.070313 8.480469v171.519531h-86.179687c-35.613282 0-64.589844 29.382813-64.589844 65 0 35.617188 28.976562 65 64.589844 65h368.355468c35.617188 0 64.59375-29.382812 64.59375-65 0-35.617187-28.976562-65-64.59375-65zm-79 65c0 24.566407 18.117188 45 41.695313 49h-87.960937c23.574218-4 41.691406-24.433593 41.691406-49 0-24.570312-18.113282-45-41.6875-49h87.957031c-23.570313 4-41.691406 24.433594-41.691406 49zm49.160157-33.230469c18.3125 0 33.15625 14.847657 33.15625 33.15625 0 18.3125-14.84375 33.160157-33.15625 33.160157s-33.160157-14.847657-33.160157-33.160157c.023438-18.304687 14.859376-33.136718 33.164063-33.15625zm-259.519531 33.230469c0-24.566406-18.113282-45-41.6875-49h87.957031c-23.574219 4-41.691407 24.433594-41.691407 49 0 24.566407 18.117188 45 41.695313 49h-87.964844c23.574219-4 41.691407-24.433593 41.691407-49zm-49.15625 33.085938c-18.3125 0-33.15625-14.847657-33.15625-33.160157 0-18.308593 14.84375-33.15625 33.15625-33.15625s33.15625 14.847657 33.15625 33.15625c-.019532 18.304688-14.851563 33.136719-33.15625 33.160157zm102.894531-66.316407c18.3125 0 33.15625 14.84375 33.160156 33.15625 0 18.3125-14.84375 33.15625-33.15625 33.160157-18.3125 0-33.160156-14.847657-33.160156-33.160157.023437-18.300781 14.851562-33.132812 33.15625-33.15625zm49.15625 33.230469c0-24.566406-18.117188-45-41.691407-49h87.957032c-23.574219 4-41.6875 24.433594-41.6875 49 0 24.566407 18.117187 45 41.691406 49h-87.964844c23.578125-4 41.695313-24.433593 41.695313-49zm53.734375-33.230469c18.3125 0 33.15625 14.847657 33.15625 33.15625 0 18.3125-14.84375 33.160157-33.15625 33.160157s-33.15625-14.847657-33.15625-33.160157c.023437-18.300781 14.855468-33.132812 33.15625-33.15625zm-71.445313-195.769531h40v25.789063l-17.472656-6.175782c-1.652344-.601562-3.464844-.601562-5.117187 0l-17.410157 6.175782zm-62 0h46v37.074219c-.054687 2.578125 1.160157 5.015625 3.25 6.523438 2.089844 1.507812 4.789063 1.890624 7.214844 1.023437l25.566406-8.980469 25.578125 8.980469c.847656.300781 1.738282.453125 2.640625.453125 1.617188-.003906 3.191407-.519531 4.5-1.476562 2.082031-1.511719 3.296875-3.949219 3.25-6.523438v-37.074219h46v164h-164zm-150.769531 229c0-26.792969 21.800781-49 48.589844-49h22.371094c-23.574219 4-41.691407 24.433594-41.691407 49 0 24.566407 18.121094 45 41.699219 49h-22.378906c-26.792969 0-48.589844-22.207031-48.589844-49zm416.945312 49h-22.375c23.574219-4 41.691407-24.433593 41.691407-49 0-24.570312-18.113281-45-41.6875-49h22.371093c26.792969 0 48.589844 22.207031 48.589844 49s-21.796875 49-48.589844 49zm0 0"/><path d="m94.429688 218.332031c-14.835938 0-26.863282 12.027344-26.863282 26.863281 0 14.835938 12.027344 26.867188 26.863282 26.867188 14.835937 0 26.863281-12.027344 26.863281-26.867188-.015625-14.828124-12.035157-26.84375-26.863281-26.863281zm0 37.730469c-6 0-10.863282-4.863281-10.863282-10.863281s4.863282-10.867188 10.863282-10.867188 10.863281 4.863281 10.863281 10.863281c-.007813 6-4.867188 10.859376-10.863281 10.867188zm0 0"/><path d="m197.324219 272.0625c14.835937 0 26.863281-12.027344 26.863281-26.867188 0-14.835937-12.027344-26.863281-26.863281-26.863281-14.835938 0-26.863281 12.027344-26.863281 26.863281.015624 14.832032 12.03125 26.847657 26.863281 26.867188zm0-37.730469c6 0 10.863281 4.863281 10.863281 10.863281s-4.863281 10.867188-10.863281 10.867188-10.863281-4.867188-10.863281-10.867188c.003906-5.996093 4.863281-10.855468 10.863281-10.863281zm0 0"/><path d="m300.214844 272.0625c14.835937 0 26.863281-12.027344 26.863281-26.863281.003906-14.839844-12.023437-26.867188-26.863281-26.867188-14.835938 0-26.863282 12.027344-26.863282 26.863281.015626 14.832032 12.035157 26.847657 26.863282 26.867188zm0-37.730469c6 0 10.863281 4.863281 10.863281 10.863281.003906 6-4.863281 10.867188-10.863281 10.867188s-10.863282-4.867188-10.863282-10.867188c.007813-5.996093 4.867188-10.855468 10.863282-10.863281zm0 0"/><path d="m403.109375 272.0625c14.835937 0 26.863281-12.027344 26.863281-26.863281 0-14.839844-12.027344-26.867188-26.863281-26.867188s-26.863281 12.027344-26.863281 26.863281c.015625 14.832032 12.03125 26.847657 26.863281 26.867188zm0-37.730469c6 0 10.863281 4.863281 10.863281 10.863281s-4.863281 10.867188-10.863281 10.867188-10.863281-4.867188-10.863281-10.867188c.003906-5.996093 4.863281-10.855468 10.863281-10.863281zm0 0"/><path d="m205.664062 105.269531h56.480469c4.417969 0 8-3.582031 8-8s-3.582031-8-8-8h-56.480469c-4.417968 0-8 3.582031-8 8s3.582032 8 8 8zm0 0"/><path d="m291.875 118.269531h-86.210938c-4.417968 0-8 3.582031-8 8s3.582032 8 8 8h86.210938c4.417969 0 8-3.582031 8-8s-3.582031-8-8-8zm0 0"/></svg>