<?xml version="1.0" encoding="iso-8859-1"?>
<!-- Generator: Adobe Illustrator 19.0.0, SVG Export Plug-In . SVG Version: 6.00 Build 0)  -->
<svg version="1.1" id="Capa_1" xmlns="http://www.w3.org/2000/svg" xmlns:xlink="http://www.w3.org/1999/xlink" x="0px" y="0px"
	 viewBox="0 0 512 512" style="enable-background:new 0 0 512 512;" xml:space="preserve">
<g>
	<g>
		<path d="M378.79,257.953c-6.712-5.186-16.165-4.982-22.649,0.505l-89.642,75.766l-120.032-95.916
			c-6.803-5.432-16.526-5.228-23.1,0.499L6.184,340.967l23.695,27.18l105.831-92.274l119.857,95.778
			c6.725,5.372,16.31,5.24,22.89-0.318l89.834-75.941l114.671,88.458l22.024-28.545L378.79,257.953z"/>
	</g>
</g>
<g>
	<g>
		<path d="M259.005,132.207c-34.794,0-63.099,28.31-63.099,63.099s28.304,63.099,63.099,63.099s63.099-28.304,63.099-63.099
			S293.799,132.207,259.005,132.207z M259.005,222.347c-14.909,0-27.042-12.133-27.042-27.042s12.133-27.042,27.042-27.042
			s27.042,12.133,27.042,27.042S273.914,222.347,259.005,222.347z"/>
	</g>
</g>
<g>
	<g>
		<path d="M493.972,51.681H18.028C8.071,51.681,0,59.751,0,69.709v372.582c0,9.958,8.071,18.028,18.028,18.028h475.944
			c9.958,0,18.028-8.071,18.028-18.028V69.709C512,59.751,503.929,51.681,493.972,51.681z M475.944,424.263H36.056V87.737h439.887
			V424.263z"/>
	</g>
</g>
<g>
</g>
<g>
</g>
<g>
</g>
<g>
</g>
<g>
</g>
<g>
</g>
<g>
</g>
<g>
</g>
<g>
</g>
<g>
</g>
<g>
</g>
<g>
</g>
<g>
</g>
<g>
</g>
<g>
</g>
</svg>
