<?xml version="1.0"?>
<svg xmlns="http://www.w3.org/2000/svg" id="Layer_1" data-name="Layer 1" viewBox="0 0 512 512" width="512" height="512"><title>Education Tab</title><path d="M312.458,443H286.141a6,6,0,0,0,0,12h26.317a6,6,0,1,0,0-12Z"/><path d="M29.429,213.721,74,230.992v109.43a5.825,5.825,0,0,0,3.706,5.622A271.542,271.542,0,0,0,112,356.516v89.132C112,472,133.583,493,159.947,494H449.521A37.612,37.612,0,0,0,487,455.9V66.352A50.2,50.2,0,0,0,438.636,18H159.93C133.583,19,112,40.005,112,66.37V172.112L29.336,202.5a5.91,5.91,0,0,0-3.83,5.575A6.089,6.089,0,0,0,29.429,213.721Zm148.617,57.841a5.5,5.5,0,0,0,2.079.408,4.67,4.67,0,0,0,1.905-.408l91.97-35.9v52.411a279.2,279.2,0,0,1-188,0V235.662ZM323,216.9v44.043A23.632,23.632,0,0,0,304.849,284.3a24.184,24.184,0,0,0,48.367,0A24.674,24.674,0,0,0,335,260.851V209.335c0-.227-.193-.451-.218-.671.018-.2-.047-.391-.049-.591a6.042,6.042,0,0,0-3.974-5.575L182.12,147.872a6.257,6.257,0,0,0-4.234,0L166,152.206V71H432V406H166V364.186c5,.218,9.323.335,13.945.335a292.544,292.544,0,0,0,102.332-18.477A5.841,5.841,0,0,0,286,340.422V230.992Zm5.833,55.237A12.162,12.162,0,1,1,316.671,284.3,12.174,12.174,0,0,1,328.833,272.14ZM86,300.778a290.811,290.811,0,0,0,188,0v35.444a279.233,279.233,0,0,1-188,0ZM124,66.387C124,46.619,140.2,30,159.947,30H438.618C458.387,30,475,46.619,475,66.37V455.987c0,.061-.211.122-.209.184a24.816,24.816,0,0,1-7.024,17.948A25.51,25.51,0,0,1,449.521,482H159.965C140.2,482,124,465.381,124,445.63V359.112a295.177,295.177,0,0,0,30,4.266v48.315A6.412,6.412,0,0,0,160.165,418H438.433c3.313,0,5.567-2.993,5.567-6.307V65c0-3.313-2.254-6-5.567-6H160.165A6.144,6.144,0,0,0,154,65v91.617L124,167.7ZM180.027,159.9,311.689,208.29l-32.925,12.815a6,6,0,0,0-.94.365l-97.8,38.062L82.23,221.47a5.951,5.951,0,0,0-.939-.365L48.365,208.29Z"/></svg>
