<svg height="468pt" viewBox="-34 0 468 468" width="468pt" xmlns="http://www.w3.org/2000/svg"><path d="m63.792969 353h120.039062c3.316407 0 6-2.6875 6-6s-2.683593-6-6-6h-120.039062c-3.316407 0-6 2.6875-6 6s2.683593 6 6 6zm0 0"/><path d="m76.304688 465.914062c1.105468 1.242188 2.664062 1.996094 4.324218 2.085938h242.832032c3.3125 0 5.550781-3.171875 5.550781-6.484375v-243.515625h65.480469c3.316406 0 5.519531-2.742188 5.519531-6.054688v-205.460937c0-3.3125-2.203125-6.484375-5.519531-6.484375h-145.667969c-3.3125 0-5.8125 3.171875-5.8125 6.484375v18.515625h-237.484375c-3.316406 0-5.5156252 3.144531-5.5156252 6.457031v351.910157c-.0898438 1.558593.4218752 3.089843 1.4296872 4.277343zm-1.292969-19.300781-55.402344-57.613281h55.402344zm180-434.613281h133v194h-133zm-12 25v174.945312c-.046875 1.578126.546875 3.105469 1.636719 4.242188 1.09375 1.140625 2.597656 1.792969 4.175781 1.8125h68.1875v238h-230v-72.632812c-.148438-3.457032-2.921875-6.226563-6.382813-6.367188h-68.617187v-340zm0 0"/><path d="m63.792969 312h207.21875c3.3125 0 6-2.6875 6-6s-2.6875-6-6-6h-207.21875c-3.316407 0-6 2.6875-6 6s2.683593 6 6 6zm0 0"/><path d="m381.011719 26c0-3.3125-2.6875-6-6-6h-106c-3.316407 0-6 2.6875-6 6v27c0 3.3125 2.683593 6 6 6h106c3.3125 0 6-2.6875 6-6zm-12 21h-94v-15h94zm0 0"/><path d="m298.011719 77c0-3.3125-2.6875-6-6-6h-23c-3.316407 0-6 2.6875-6 6v23c0 3.3125 2.683593 6 6 6h23c3.3125 0 6-2.6875 6-6zm-13 17h-10v-11h10zm0 0"/><path d="m298.011719 121c0-3.3125-2.6875-6-6-6h-23c-3.316407 0-6 2.6875-6 6v23c0 3.3125 2.683593 6 6 6h23c3.3125 0 6-2.6875 6-6zm-13 17h-10v-11h10zm0 0"/><path d="m298.011719 164c0-3.3125-2.6875-6-6-6h-23c-3.316407 0-6 2.6875-6 6v23c0 3.3125 2.683593 6 6 6h23c3.3125 0 6-2.6875 6-6zm-13 17h-10v-11h10zm0 0"/><path d="m339.011719 77c0-3.3125-2.6875-6-6-6h-23c-3.316407 0-6 2.6875-6 6v23c0 3.3125 2.683593 6 6 6h23c3.3125 0 6-2.6875 6-6zm-12 17h-11v-11h11zm0 0"/><path d="m339.011719 121c0-3.3125-2.6875-6-6-6h-23c-3.316407 0-6 2.6875-6 6v23c0 3.3125 2.683593 6 6 6h23c3.3125 0 6-2.6875 6-6zm-12 17h-11v-11h11zm0 0"/><path d="m339.011719 164c0-3.3125-2.6875-6-6-6h-23c-3.316407 0-6 2.6875-6 6v23c0 3.3125 2.683593 6 6 6h23c3.3125 0 6-2.6875 6-6zm-12 17h-11v-11h11zm0 0"/><path d="m381.011719 77c0-3.3125-2.6875-6-6-6h-23c-3.316407 0-6 2.6875-6 6v23c0 3.3125 2.683593 6 6 6h23c3.3125 0 6-2.6875 6-6zm-12 17h-11v-11h11zm0 0"/><path d="m381.011719 121c0-3.3125-2.6875-6-6-6h-23c-3.316407 0-6 2.6875-6 6v67c0 3.3125 2.683593 6 6 6h23c3.3125 0 6-2.6875 6-6zm-12 60h-11v-54h11zm0 0"/><path d="m145.011719 77.730469c0-14.210938-11.523438-25.730469-25.734375-25.730469h-.535156c-14.210938 0-25.730469 11.519531-25.730469 25.730469v8.539062c0 14.210938 11.519531 25.730469 25.730469 25.730469h.535156c14.210937 0 25.734375-11.519531 25.734375-25.730469zm-12 8.539062c-.003907 7.582031-6.148438 13.730469-13.734375 13.730469h-.535156c-7.585938 0-13.730469-6.148438-13.730469-13.730469v-8.539062c0-7.582031 6.144531-13.730469 13.730469-13.730469h.535156c7.585937 0 13.730468 6.148438 13.734375 13.730469zm0 0"/><path d="m70.011719 184.769531c-.03125 7.554688 2.996093 14.800781 8.398437 20.085938l3.5 3.445312c2.914063 2.816407 4.636719 6.648438 4.8125 10.699219l3.121094 66.085938c.132812 3.238281 2.742188 5.820312 5.980469 5.914062h47.445312c3.242188-.09375 5.859375-2.675781 5.992188-5.917969l3.144531-66.03125c.1875-4.046875 1.902344-7.875 4.800781-10.707031l3.457031-3.5c5.363282-5.285156 8.371094-12.507812 8.347657-20.039062v-38.371094c.859375-7.453125-1.570313-14.914063-6.652344-20.433594-4.980469-5.636719-12.113281-8.90625-19.632813-9h-3.917968c-2.570313.097656-4.8125 1.765625-5.644532 4.199219l-3.53125 9.933593-6.074218-6.40625c-1.144532-1.230468-2.765625-1.910156-4.445313-1.863281-1.683593.027344-3.28125.757813-4.402343 2.015625l-5.21875 5.839844-2.972657-9.351562c-.777343-2.515626-3.0625-4.269532-5.699219-4.367188h-4.550781c-7.519531.09375-14.648437 3.363281-19.625 9-5.078125 5.523438-7.5 12.980469-6.632812 20.433594zm49.285156-47 2.152344 2.289063 4.925781 45.867187-6.882812 6.882813-6.878907-6.878906 4.964844-46.242188zm-33.878906-3.722656c2.738281-3.148437 6.679687-4.980469 10.851562-5.046875h.199219l4.847656 15.121094c.527344 1.65625 1.726563 3.019531 3.304688 3.75l-4.242188 39.570312c-.195312 1.816406.4375 3.617188 1.722656 4.914063l13.152344 13.167969c2.339844 2.347656 6.140625 2.351562 8.488282.011718l13.152343-13.152344c1.28125-1.285156 1.910157-3.082031 1.714844-4.882812l-4.246094-39.519531c1.515625-.65625 2.691407-1.90625 3.25-3.457031l5.414063-15.0625c4.074218.066406 7.933594 1.851562 10.625 4.914062 2.6875 3.0625 3.957031 7.121094 3.496094 11.171875-.023438.199219-.144532.398437-.144532.605469v38.65625c.03125 4.28125-1.664062 8.394531-4.707031 11.410156l-3.515625 3.476562c-5.082031 5.011719-8.078125 11.757813-8.394531 18.886719l-2.839844 60.417969h-36l-2.867187-60.371094c-.324219-7.140625-3.363282-13.882812-8.492188-18.859375l-3.441406-3.5c-3.0625-3.039062-4.769532-7.1875-4.734375-11.5v-38.621093c0-.199219-.136719-.519532-.15625-.71875-.488281-4.128907.808593-8.269532 3.5625-11.382813zm0 0"/></svg>