<svg height="471pt" viewBox="0 -1 471.00782 471" width="471pt" xmlns="http://www.w3.org/2000/svg"><path d="m463.5.0117188h-455c-4.417969 0-8.5 3.0820312-8.5 7.5000002v131c.195312 4.613281 3.886719 8.304687 8.5 8.5h11.5v313.5c.195312 4.613281 3.886719 8.304687 8.5 8.5h26c4.417969 0 7.5-4.082031 7.5-8.5v-313.5h347v313.5c.195312 4.613281 3.886719 8.304687 8.5 8.5h26c4.417969 0 7.5-4.082031 7.5-8.5v-313.5h12.5c4.417969 0 7.5-4.082031 7.5-8.5v-131c.09375-2.015625-.664062-3.980469-2.09375-5.40625-1.425781-1.429688-3.390625-2.1875002-5.40625-2.0937502zm-417.5 453.0000002h-10v-306h10zm389 0h-10v-306h10zm20-322h-439v-115h439zm0 0"/><path d="m236.5 116.511719c20.621094-.023438 37.332031-16.734375 37.355469-37.355469 0-19-26.855469-42.3125-32.238281-46.792969-2.964844-2.46875-7.269532-2.46875-10.234376 0-5.382812 4.480469-32.238281 27.800781-32.238281 46.792969.023438 20.621094 16.734375 37.332031 37.355469 37.355469zm0-67.3125c9.96875 9.324219 21.351562 22.742187 21.351562 29.957031 0 11.792969-9.5625 21.355469-21.355468 21.355469-11.792969 0-21.355469-9.5625-21.355469-21.355469.003906-7.191406 11.390625-20.621094 21.359375-29.957031zm0 0"/><path d="m161 273.011719h28v16h-28zm0 0"/><path d="m282 273.011719h28v16h-28zm0 0"/><path d="m383.5 411.011719h-28.5v-22.863281c-.144531-4.507813-3.824219-8.097657-8.332031-8.136719h-8.667969v-113.140625c.074219-6.09375-2.316406-11.960938-6.628906-16.265625-4.316406-4.304688-10.1875-6.683594-16.28125-6.59375h-37.453125c-12.882813 0-23.636719 9.980469-23.636719 22.859375v113.140625h-36v-113.140625c0-12.878906-10.753906-22.859375-23.636719-22.859375h-37.453125c-6.09375-.089844-11.964844 2.289062-16.28125 6.59375-4.3125 4.304687-6.703125 10.171875-6.628906 16.265625v113.140625h-8.667969c-4.507812.039062-8.1875 3.628906-8.332031 8.136719v22.863281h-28.5c-4.417969 0-8.5 3.082031-8.5 7.5v30c.195312 4.613281 3.886719 8.304687 8.5 8.5h295c4.417969 0 7.5-4.082031 7.5-8.5v-30c.09375-2.015625-.664062-3.980469-2.09375-5.40625-1.425781-1.429688-3.390625-2.1875-5.40625-2.09375zm-61.5-92h-52v-4h52zm-44.363281-59h37.453125c1.851562-.09375 3.65625.597656 4.972656 1.902343 1.316406 1.304688 2.019531 3.105469 1.9375 4.957032v32.140625h-52v-32.140625c0-4.058594 3.578125-6.859375 7.636719-6.859375zm-7.636719 75h52v45h-52zm-68-16h-52v-4h52zm-45.089844-59h37.453125c4.058594 0 7.636719 2.800781 7.636719 6.859375v32.140625h-52v-32.140625c-.082031-1.851563.621094-3.652344 1.9375-4.957032 1.316406-1.304687 3.121094-1.996093 4.972656-1.902343zm-6.910156 75h52v45h-52zm-17 61h206v15h-206zm242 45h-279v-14h279zm0 0"/></svg>