<?xml version="1.0" encoding="iso-8859-1"?>
<!-- Generator: Adobe Illustrator 19.0.0, SVG Export Plug-In . SVG Version: 6.00 Build 0)  -->
<svg version="1.1" id="Capa_1" xmlns="http://www.w3.org/2000/svg" xmlns:xlink="http://www.w3.org/1999/xlink" x="0px" y="0px"
	 viewBox="0 0 512 512" style="enable-background:new 0 0 512 512;" xml:space="preserve">
<g>
	<g>
		<path d="M494.14,43.163H17.86C7.996,43.163,0,51.158,0,61.023v389.953c0,9.865,7.996,17.86,17.86,17.86H494.14
			c9.865,0,17.86-7.996,17.86-17.86V61.023C512,51.158,504.004,43.163,494.14,43.163z M476.279,433.116H35.721V78.884h440.558
			V433.116z"/>
	</g>
</g>
<g>
	<g>
		<path d="M191.107,122.344c-36.108,0-65.488,29.38-65.488,65.488c0,36.108,29.38,65.488,65.488,65.488
			c36.114,0,65.488-29.38,65.488-65.488C256.595,151.725,227.215,122.344,191.107,122.344z M191.107,217.6
			c-16.414,0-29.767-13.354-29.767-29.767c0-16.414,13.354-29.767,29.767-29.767c16.414,0,29.767,13.354,29.767,29.767
			C220.874,204.246,207.521,217.6,191.107,217.6z"/>
	</g>
</g>
<g>
	<g>
		<path d="M352.714,269.223c-5.817-2.661-12.627-2-17.825,1.738L105.085,435.873l20.825,29.023l221.398-158.881l139.419,63.571
			l14.824-32.5L352.714,269.223z"/>
	</g>
</g>
<g>
	<g>
		
			<rect x="104.778" y="197.42" transform="matrix(0.4613 -0.8873 0.8873 0.4613 -213.8806 278.792)" width="35.723" height="236.204"/>
	</g>
</g>
<g>
</g>
<g>
</g>
<g>
</g>
<g>
</g>
<g>
</g>
<g>
</g>
<g>
</g>
<g>
</g>
<g>
</g>
<g>
</g>
<g>
</g>
<g>
</g>
<g>
</g>
<g>
</g>
<g>
</g>
</svg>
