<svg height="472pt" viewBox="0 -32 472 472" width="472pt" xmlns="http://www.w3.org/2000/svg"><path d="m472 99.199219v-58.65625c0-22.601563-17.699219-40.542969-39.453125-40.542969h-393.097656c-21.75 0-39.449219 17.941406-39.449219 40.542969v326.914062c0 22.601563 17.699219 40.542969 39.449219 40.542969h393.097656c21.753906 0 39.453125-17.941406 39.453125-40.542969v-268.105469c0-.027343 0-.050781 0-.078124 0-.027344 0-.050782 0-.074219zm-456 7.800781h34.34375l-34.34375 35.441406zm2 61h60v9.742188c-.125 16.230468-13.34375 29.308593-29.570312 29.257812h-.648438c-16.109375 0-28.78125-12.761719-29.78125-28.894531zm11.410156-16 42.917969-44h46.570313l-37.007813 44zm110.410156-44h58.988282l-18.117188 44h-77.882812zm-45.820312 60h84v18.246094c-.160156 23.113281-18.847656 41.8125-41.960938 41.992187-23.039062-.117187-42.039062-18.953125-42.039062-41.953125zm100 0h84v18.246094c-.164062 23.113281-18.847656 41.8125-41.960938 41.992187-23.039062-.117187-42.039062-18.953125-42.039062-41.953125zm4-16 18.113281-44h39.777344l18.109375 44zm95.953125 0h-2.644531l-18.113282-44h67.128907l30.714843 44zm.046875 16h84v18.246094c-.160156 23.113281-18.847656 41.8125-41.960938 41.992187-23.039062-.117187-41.039062-18.953125-42.039062-41.953125zm100.390625-16h-3.832031l-30.710938-44h49.058594l35.832031 44zm59.609375 16v9.742188c-.117188 16.242187-13.355469 29.328124-29.601562 29.257812h-.648438c-7.765625.074219-15.25-2.917969-20.824219-8.328125-5.628906-5.371094-8.847656-12.785156-8.925781-20.566406v-10.105469zm-24.761719-61h26.761719v33.101562zm-389.789062-91h393.097656c12.929687 0 23.453125 10.761719 23.453125 24.542969v50.457031h-440v-50.457031c0-13.78125 10.519531-24.542969 23.449219-24.542969zm393.097656 376h-393.097656c-12.929688 0-23.449219-10.761719-23.449219-24.542969v-157.199219c8.5 8.273438 19.917969 12.851563 31.777344 12.742188h.75c12.988281.011719 25.34375-5.601562 33.871094-15.394531 8.117187 20.613281 27.320312 34.753906 49.410156 36.398437 22.089844 1.640625 43.171875-9.511718 54.242187-28.699218 10.324219 17.960937 29.496094 29 50.210938 28.910156 20.71875-.089844 39.792969-11.292969 49.960937-29.34375 10.882813 19.300781 31.859375 30.664062 53.972656 29.238281 22.113282-1.425781 41.457032-15.390625 49.773438-35.933594.617188.6875 1.246094 1.21875 1.910156 1.875 8.457032 8.355469 19.882813 13.011719 31.769532 12.949219h.851562c11.886719 0 23.5-4.398438 31.5-12.714844v157.171875c0 13.78125-10.523438 24.542969-23.453125 24.542969zm0 0"/><path d="m123.308594 83.03125c15.972656 0 28.96875-13.453125 28.96875-29.992188 0-16.539062-12.996094-29.996093-28.96875-29.996093-15.96875 0-28.964844 13.457031-28.964844 29.996093 0 16.535157 12.996094 29.992188 28.964844 29.992188zm0-43.988281c7.152344 0 12.96875 6.277343 12.96875 13.996093 0 7.714844-5.816406 13.992188-12.96875 13.992188-7.148438 0-12.964844-6.277344-12.964844-13.992188 0-7.71875 5.816406-13.996093 12.964844-13.996093zm0 0"/><path d="m191.449219 83.03125c15.972656 0 28.964843-13.453125 28.964843-29.992188 0-16.539062-12.992187-29.996093-28.964843-29.996093-15.972657 0-28.96875 13.457031-28.96875 29.996093 0 16.535157 12.996093 29.992188 28.96875 29.992188zm0-43.988281c7.148437 0 12.964843 6.277343 12.964843 13.996093 0 7.714844-5.816406 13.992188-12.964843 13.992188-7.152344 0-12.96875-6.277344-12.96875-13.992188 0-7.71875 5.820312-13.996093 12.96875-13.996093zm0 0"/><path d="m55.171875 83.03125c15.972656 0 28.964844-13.453125 28.964844-29.992188 0-16.539062-12.992188-29.996093-28.964844-29.996093s-28.964844 13.457031-28.964844 29.996093c0 16.535157 12.992188 29.992188 28.964844 29.992188zm0-43.988281c7.148437 0 12.964844 6.277343 12.964844 13.996093 0 7.714844-5.816407 13.992188-12.964844 13.992188s-12.964844-6.277344-12.964844-13.992188c0-7.71875 5.816407-13.996093 12.964844-13.996093zm0 0"/></svg>