<svg height="502pt" viewBox="0 -104 502.00196 502" width="502pt" xmlns="http://www.w3.org/2000/svg"><path d="m461.175781 123.902344-22.976562-5.160156-24.347657-47.339844c-6.40625-12.535156-19.300781-20.414063-33.375-20.402344h-43.476562v-42.652344c0-4.417968-3.277344-8.347656-7.699219-8.347656h-321.472656c-4.417969 0-7.828125 3.929688-7.828125 8.347656v211.777344c-.0742188 12.5625 10.050781 22.804688 22.613281 22.875h6.558594c-.074219 1-.125 2.128906-.125 3.230469.117187 26.132812 21.332031 47.253906 47.464844 47.257812 26.128906.003907 47.351562-21.113281 47.472656-47.246093 0-1.097657-.050781-2.242188-.125-3.242188h226.785156c-.070312 1-.125 2.128906-.125 3.230469.117188 26.132812 21.332031 47.253906 47.464844 47.257812 26.132813.003907 47.351563-21.113281 47.472656-47.246093 0-1.097657-.050781-2.242188-.125-3.242188h48.839844c2.113281-.027344 4.128906-.894531 5.597656-2.414062 1.46875-1.519532 2.273438-3.5625 2.230469-5.675782v-59.910156c.148438-24.53125-16.867188-45.828125-40.824219-51.097656zm-80.699219-56.902344c8.109376.054688 15.507813 4.636719 19.171876 11.871094l20.074218 39.128906h-82.722656v-51zm-59.476562 87h-25v-138h25zm-265 0v-138h24v138zm40-138h24v138h-24zm40 0h24v138h-24zm40 0h24v138h-24zm40 0h24v138h-24zm40 0h24v138h-24zm-216 0v138h-24v-138zm36.515625 261.65625c-17.378906 0-31.46875-14.089844-31.46875-31.46875 0-17.382812 14.089844-31.472656 31.46875-31.46875 17.378906 0 31.46875 14.089844 31.46875 31.46875-.019531 17.371094-14.097656 31.449219-31.46875 31.46875zm0-78.847656c-18.800781-.148438-35.871094 10.949218-43.363281 28.191406h-10.539063c-1.789062-.027344-3.496093-.769531-4.734375-2.0625-1.242187-1.289062-1.917968-3.019531-1.878906-4.8125v-50.125h305v57h-201.121094c-7.492187-17.242188-24.5625-28.339844-43.363281-28.191406zm321.472656 78.847656c-17.378906 0-31.46875-14.089844-31.46875-31.46875 0-17.382812 14.089844-31.472656 31.46875-31.46875 17.382813 0 31.46875 14.089844 31.46875 31.46875-.015625 17.371094-14.09375 31.449219-31.46875 31.46875zm88.011719-50.65625h-44.648438c-7.609374-17.140625-24.605468-28.191406-43.363281-28.191406-18.753906 0-35.75 11.050781-43.359375 28.191406h-17.628906v-93h94.957031l25.71875 5.652344c16.613281 3.601562 28.429688 18.347656 28.324219 35.347656zm0 0"/></svg>