<?xml version="1.0"?>
<svg xmlns="http://www.w3.org/2000/svg" id="Layer_1" data-name="Layer 1" viewBox="0 0 512 512" width="512" height="512"><title>Suitcase</title><path d="M451.6,115H356V83.577A35.627,35.627,0,0,0,320.063,48H191.937A35.627,35.627,0,0,0,156,83.577V115H60.4C35.039,115,14,135.487,14,160.851V418.423C14,443.788,35.039,464,60.4,464H451.6c25.364,0,46.4-20.212,46.4-45.577V160.851C498,135.487,476.962,115,451.6,115ZM168,83.577A23.615,23.615,0,0,1,191.937,60H320.063A23.615,23.615,0,0,1,344,83.577V115H168ZM485,419a34,34,0,0,1-34,34H60a34,34,0,0,1-34-34V161a34,34,0,0,1,34-34H451a34,34,0,0,1,34,34Z"/><path d="M259.728,281.9a67.713,67.713,0,1,0-67.714-67.713A67.79,67.79,0,0,0,259.728,281.9Zm0-123.426a55.713,55.713,0,1,1-55.714,55.713A55.776,55.776,0,0,1,259.728,158.472Z"/><path d="M259.728,242.192a9.994,9.994,0,0,1-9.983-9.982,6,6,0,0,0-12,0A22.015,22.015,0,0,0,255,253.674V258a6,6,0,0,0,12,0v-5.05a21.98,21.98,0,0,0-7.272-42.722,9.982,9.982,0,1,1,9.981-9.982,6,6,0,1,0,12,0A22.018,22.018,0,0,0,266,179.18V175a6,6,0,0,0-12,0v4.025a21.981,21.981,0,0,0,5.728,43.2,9.982,9.982,0,0,1,0,19.964Z"/><path d="M333.938,287H175.217c-3.314,0-6.217,2.29-6.217,5.6V330H158.058c-3.314,0-6.058,2.187-6.058,5.5v42.04c0,3.314,2.744,6.46,6.058,6.46H169v36.438c0,3.313,2.9,5.562,6.217,5.562H333.938c3.313,0,6.062-2.249,6.062-5.562V378.4a6.406,6.406,0,0,0-6.062-6.4H323V341h10.938A6.369,6.369,0,0,0,340,334.643V292.6C340,289.29,337.251,287,333.938,287ZM243,372V342h14v30Zm-12-30v30H218V342Zm38,30V342h14v30Zm-8-43V299h13v30Zm-12,0H235V299h14Zm-26,0H209V299h14Zm-17,13v30H192V342Zm17,42v30H209V384Zm12,0h14v30H235Zm26,0h13v30H261Zm25,0h14v30H286Zm9-42h16v30H295Zm-9-13V299h14v30ZM181,299h16v30H181Zm-17,43h16v30H164Zm17,42h16v30H181Zm147,30H312V384h16Zm0-85H312V299h16Z"/></svg>
