<svg height="460pt" viewBox="0 -13 460.18317 460" width="460pt" xmlns="http://www.w3.org/2000/svg"><path d="m128.183594 44.609375c0-23.433594-18.996094-42.433594-42.429688-42.433594h-.140625c-23.433593 0-42.429687 19-42.429687 42.433594v15.136719c0 23.433594 18.996094 42.429687 42.429687 42.429687h.140625c23.433594 0 42.429688-18.996093 42.429688-42.429687zm-12 15.136719c0 16.808594-13.625 30.429687-30.429688 30.429687h-.140625c-16.804687 0-30.429687-13.621093-30.429687-30.429687v-15.140625c0-16.804688 13.625-30.429688 30.429687-30.429688h.140625c16.804688 0 30.429688 13.625 30.429688 30.429688zm0 0"/><path d="m129.613281 122.175781h-7.230469c-2.558593.070313-4.804687 1.714844-5.644531 4.132813l-9.320312 26.007812-16.789063-17.816406c-.640625-.710938-1.441406-1.257812-2.335937-1.589844-2.328125-.886718-4.957031-.246094-6.613281 1.613282l-15.515626 17.34375-8.21875-25.390626c-.785156-2.503906-3.074218-4.230468-5.699218-4.300781h-8.410156c-12.449219.074219-24.285157 5.40625-32.585938 14.683594-8.179688 9.277344-12.179688 21.511719-11.066406 33.828125v71.011719c-.015625 12.589843 5.0625 24.648437 14.078125 33.433593l6.535156 6.363282c6.320313 6.097656 10.066406 14.386718 10.460937 23.160156l5.785157 121.726562c.132812 3.214844 2.761719 5.761719 5.976562 5.800782h87.601563c3.21875-.039063 5.847656-2.585938 5.992187-5.800782l5.800781-121.773437c.40625-8.738281 4.125-16.996094 10.398438-23.089844l6.449219-6.425781c8.929687-8.789062 13.945312-20.796875 13.921875-33.324219v-71.082031c1.128906-12.3125-2.859375-24.546875-11.03125-33.828125-8.28125-9.277344-20.101563-14.609375-32.539063-14.683594zm-43.351562 25.234375 8.933593 9.5 9.539063 88.800782-18.015625 18.015624-18.011719-18.011718 9.597657-89.417969zm75.097656 22.378906c-.019531.203126-.175781.402344-.175781.609376v71.371093c.035156 9.285157-3.675782 18.195313-10.289063 24.710938l-6.519531 6.417969c-8.453125 8.238281-13.449219 19.386718-13.984375 31.179687l-5.492187 116.097656h-76.15625l-5.527344-116.011719c-.546875-11.84375-5.605469-23.027343-14.136719-31.257812l-6.480469-6.386719c-6.679687-6.527343-10.4375-15.480469-10.414062-24.820312v-71.300781c0-.199219-.121094-.402344-.140625-.605469-.949219-9.039063 1.960937-18.0625 8.015625-24.84375 6.050781-6.78125 14.6875-10.691407 23.777344-10.773438h4.046874l10.09375 31.164063c.707032 2.203125 2.601563 3.816406 4.886719 4.164062.648438.097656 1.308594.089844 1.953125-.023437l-8.351562 77.785156c-.191406 1.808594.441406 3.605469 1.722656 4.894531l24.285156 24.289063c2.34375 2.34375 6.144532 2.34375 8.488282 0l24.285156-24.285157c1.285156-1.285156 1.917968-3.078124 1.722656-4.882812l-8.347656-77.757812c.777344.152343 1.578125.148437 2.355468-.007813 2.0625-.492187 3.730469-2.003906 4.425782-4.007813l11.203125-31.332031h3.007812c9.085938.082031 17.714844 4 23.757813 10.78125 6.046875 6.78125 8.945312 15.800781 7.988281 24.832031zm0 0"/><path d="m281.503906 36.503906c.003906-19.335937-15.105468-35.300781-34.410156-36.359375-19.308594-1.054687-36.070312 13.167969-38.175781 32.386719-2.101563 19.21875 11.1875 36.730469 30.265625 39.875v108.871094c-17.550782 2.925781-30.410156 18.113281-30.410156 35.902344 0 17.792968 12.859374 32.976562 30.410156 35.90625v108.859374c-18.644532 3.121094-31.785156 20.015626-30.21875 38.855469 1.566406 18.839844 17.3125 33.332031 36.21875 33.332031 18.902344 0 34.652344-14.492187 36.214844-33.332031 1.566406-18.839843-11.570313-35.734375-30.214844-38.855469v-108.867187c17.550781-2.929687 30.410156-18.113281 30.410156-35.90625 0-17.789063-12.859375-32.976563-30.410156-35.902344v-108.863281c17.46875-3.042969 30.246094-18.167969 30.320312-35.902344zm-60.902344 0c0-13.480468 10.929688-24.40625 24.40625-24.40625 13.480469-.003906 24.410157 10.925782 24.410157 24.40625 0 13.476563-10.929688 24.40625-24.40625 24.40625-13.476563-.015625-24.394531-10.933594-24.410157-24.40625zm48.816407 361.347656c0 13.476563-10.925781 24.40625-24.40625 24.40625s-24.410157-10.925781-24.410157-24.40625c0-13.480468 10.929688-24.40625 24.410157-24.40625 13.472656.015626 24.386719 10.933594 24.40625 24.40625zm0-180.675781c0 13.480469-10.929688 24.40625-24.40625 24.40625-13.480469 0-24.410157-10.925781-24.410157-24.40625 0-13.476562 10.929688-24.40625 24.410157-24.40625 13.472656.015625 24.390625 10.933594 24.40625 24.40625zm0 0"/><path d="m415.183594 7.175781c0-3.3125-2.6875-6-6-6h-109c-3.3125 0-6 2.6875-6 6v58c0 3.316407 2.6875 6 6 6h109c3.3125 0 6-2.683593 6-6zm-109 6h97v46h-97zm0 0"/><path d="m460.183594 188.175781c0-3.3125-2.6875-6-6-6h-154c-3.3125 0-6 2.6875-6 6v58c0 3.316407 2.6875 6 6 6h154c3.3125 0 6-2.683593 6-6zm-12 52h-142v-46h142zm0 0"/><path d="m415.183594 369.175781c0-3.3125-2.6875-6-6-6h-109c-3.3125 0-6 2.6875-6 6v58c0 3.316407 2.6875 6 6 6h109c3.3125 0 6-2.683593 6-6zm-12 52h-97v-46h97zm0 0"/></svg>