<svg id="Layer_1" height="512" viewBox="0 0 512 512" width="512" xmlns="http://www.w3.org/2000/svg" data-name="Layer 1"><path d="m256.613 108.431c-81.669 0-148.112 66.286-148.112 147.764s66.443 147.764 148.112 147.764 148.112-66.287 148.112-147.759-66.443-147.769-148.112-147.769zm0 283.528c-75.052 0-136.112-60.9-136.112-135.764s61.06-135.764 136.112-135.764 136.112 60.9 136.112 135.764-61.06 135.764-136.112 135.764z"/><path d="m496.514 250h-44c-3.141-103-86.514-186.582-189.514-189.7v-44.2a6 6 0 1 0 -12 0v44.2c-104 3.118-187.146 86.7-190.285 189.7h-45.229a6 6 0 1 0 0 12h45.227c3.107 103 86.287 186.971 190.287 190.094v43.812a6 6 0 0 0 12 0v-43.812c103-3.123 186.406-87.094 189.514-190.094h44a6 6 0 0 0 0-12zm-239.9 190.2c-101.458 0-184-82.542-184-184s82.542-184 184-184 184 82.542 184 184-82.543 184-184.001 184z"/><path d="m407.936 104.876a212.472 212.472 0 0 1 60.7 122.144 6 6 0 0 0 5.935 5.181 6.108 6.108 0 0 0 .828-.057 6 6 0 0 0 5.123-6.764 226.121 226.121 0 0 0 -193.092-193.1 6 6 0 0 0 -1.641 11.888 212.461 212.461 0 0 1 122.147 60.708z"/><path d="m227.434 468.221a214.121 214.121 0 0 1 -182.848-182.841 6 6 0 1 0 -11.886 1.641 226.124 226.124 0 0 0 193.093 193.088 6.119 6.119 0 0 0 .828.057 6 6 0 0 0 .813-11.945z"/><path d="m38.65 232.2a6 6 0 0 0 5.936-5.18 214.122 214.122 0 0 1 182.848-182.846 6 6 0 0 0 -1.641-11.888 226.124 226.124 0 0 0 -193.093 193.094 6 6 0 0 0 5.123 6.764 6.13 6.13 0 0 0 .827.056z"/><path d="m286.605 480.17a6.131 6.131 0 0 0 .829-.056 226.123 226.123 0 0 0 193.092-193.093 6 6 0 1 0 -11.886-1.641 214.122 214.122 0 0 1 -182.847 182.846 6 6 0 0 0 .812 11.944z"/><path d="m352 225.761c0-.162.168-.321.155-.479.007-.12.116-.237.115-.359a5.961 5.961 0 0 0 -3.885-5.575l-96.285-35.398a5.963 5.963 0 0 0 -4.13 0l-96.3 35.4a6 6 0 0 0 -.093 11.223l27.423 10.666v69.467a5.991 5.991 0 0 0 3.9 5.622 192.185 192.185 0 0 0 134.263 0 5.941 5.941 0 0 0 3.84-5.622v-69.467l19-7.486v23.927c-6 2.5-11.467 9.015-11.467 16.659a17.866 17.866 0 0 0 17.859 17.769 17.73 17.73 0 0 0 5.605-34.517zm-161 80.727v-18.538a191.928 191.928 0 0 0 118 0v18.537a179.94 179.94 0 0 1 -118 .001zm118-31.188a179.959 179.959 0 0 1 -118 0v-29.391l56.887 22.143a5.962 5.962 0 0 0 2.172.409 5.647 5.647 0 0 0 2.111-.409l56.83-22.143zm4.375-43.918a5.836 5.836 0 0 0 -.771.3l-62.549 24.343-62.555-24.348a5.8 5.8 0 0 0 -.765-.3l-16.031-6.24 79.35-29.166 79.346 29.169zm33.106 48.729a5.769 5.769 0 1 1 5.769-5.769 5.775 5.775 0 0 1 -5.769 5.766z"/></svg>