<svg height="472pt" viewBox="0 -37 472 472" width="472pt" xmlns="http://www.w3.org/2000/svg"><path d="m472 109.199219v-68.65625c0-22.601563-17.699219-40.542969-39.453125-40.542969h-393.097656c-21.75 0-39.449219 17.941406-39.449219 40.542969v316.914062c0 22.601563 17.699219 40.542969 39.449219 40.542969h393.097656c21.753906 0 39.453125-17.941406 39.453125-40.542969v-248.105469c0-.027343 0-.050781 0-.078124 0-.027344 0-.050782 0-.074219zm-432.550781-93.199219h393.097656c12.929687 0 23.453125 10.761719 23.453125 24.542969v60.457031h-440v-60.457031c0-13.78125 10.519531-24.542969 23.449219-24.542969zm393.097656 366h-393.097656c-12.929688 0-23.449219-10.761719-23.449219-24.542969v-240.457031h440v240.457031c0 13.78125-10.523438 24.542969-23.453125 24.542969zm0 0"/><path d="m123.308594 87.03125c15.972656 0 28.96875-13.453125 28.96875-29.992188 0-16.539062-12.996094-29.996093-28.96875-29.996093-15.96875 0-28.964844 13.457031-28.964844 29.996093 0 16.535157 12.996094 29.992188 28.964844 29.992188zm0-43.988281c7.152344 0 12.96875 6.277343 12.96875 13.996093 0 7.714844-5.816406 13.992188-12.96875 13.992188-7.148438 0-12.964844-6.277344-12.964844-13.992188 0-7.71875 5.816406-13.996093 12.964844-13.996093zm0 0"/><path d="m191.449219 87.03125c15.972656 0 28.964843-13.453125 28.964843-29.992188 0-16.539062-12.992187-29.996093-28.964843-29.996093-15.972657 0-28.96875 13.457031-28.96875 29.996093 0 16.535157 12.996093 29.992188 28.96875 29.992188zm0-43.988281c7.148437 0 12.964843 6.277343 12.964843 13.996093 0 7.714844-5.816406 13.992188-12.964843 13.992188-7.152344 0-12.96875-6.277344-12.96875-13.992188 0-7.71875 5.820312-13.996093 12.96875-13.996093zm0 0"/><path d="m55.171875 87.03125c15.972656 0 28.964844-13.453125 28.964844-29.992188 0-16.539062-12.992188-29.996093-28.964844-29.996093s-28.964844 13.457031-28.964844 29.996093c0 16.535157 12.992188 29.992188 28.964844 29.992188zm0-43.988281c7.148437 0 12.964844 6.277343 12.964844 13.996093 0 7.714844-5.816407 13.992188-12.964844 13.992188s-12.964844-6.277344-12.964844-13.992188c0-7.71875 5.816407-13.996093 12.964844-13.996093zm0 0"/><path d="m298.453125 213.125c-.460937-4.046875-3.878906-7.109375-7.953125-7.125h-13.5v-7.398438c0-21.234374-17.820312-38.5-40-38.5s-40 17.269532-40 38.5v7.398438h-15.5c-4.070312.019531-7.488281 3.078125-7.949219 7.125l-10.691406 92.96875c-.878906 7.941406 1.660156 15.882812 6.984375 21.839844 5.769531 6.421875 14 10.082031 22.632812 10.066406h87.046876c8.632812.023438 16.867187-3.636719 22.636718-10.058594 5.328125-5.949218 7.867188-13.886718 6.984375-21.824218zm-85.453125-14.523438c0-12.410156 10.644531-22.5 24-22.5s24 10.09375 24 22.5v7.398438h-48zm77.21875 118.699219c-2.734375 3.015625-6.625 4.722657-10.695312 4.699219h-87.046876c-4.070312.023438-7.960937-1.683594-10.695312-4.699219-2.308594-2.542969-3.414062-5.957031-3.03125-9.371093l9.878906-85.929688h8.371094v20.152344c0 4.417968 3.582031 8 8 8s8-3.582032 8-8v-20.152344h48v20.152344c0 4.417968 3.582031 8 8 8s8-3.582032 8-8v-20.152344h6.371094l9.878906 85.925781c.382812 3.417969-.722656 6.832031-3.03125 9.375zm0 0"/><path d="m385.125 197.125c-28.648438 0-51.875 23.226562-51.875 51.875s23.226562 51.875 51.875 51.875 51.875-23.226562 51.875-51.875c-.03125-28.636719-23.238281-51.84375-51.875-51.875zm0 87.75c-19.8125 0-35.875-16.0625-35.875-35.875s16.0625-35.875 35.875-35.875 35.875 16.0625 35.875 35.875c-.023438 19.804688-16.070312 35.851562-35.875 35.875zm0 0"/><path d="m382.753906 223.066406c-3.125-3.121094-8.191406-3.121094-11.3125 0-3.125 3.125-3.125 8.191406 0 11.316406l14.617188 14.617188-14.617188 14.617188c-3.125 3.125-3.125 8.191406 0 11.316406 3.121094 3.121094 8.1875 3.121094 11.3125 0l20.273438-20.277344c3.125-3.125 3.125-8.1875 0-11.3125zm0 0"/><path d="m86.875 197.125c-28.648438 0-51.875 23.222656-51.875 51.875 0 28.648438 23.222656 51.875 51.875 51.875 28.648438 0 51.875-23.226562 51.875-51.875-.035156-28.636719-23.238281-51.84375-51.875-51.875zm0 87.75c-19.8125 0-35.875-16.0625-35.875-35.875s16.058594-35.875 35.875-35.875c19.8125 0 35.875 16.0625 35.875 35.875-.023438 19.804688-16.070312 35.851562-35.875 35.875zm0 0"/><path d="m100.558594 223.066406c-3.121094-3.121094-8.1875-3.121094-11.3125 0l-20.273438 20.277344c-3.125 3.125-3.125 8.1875 0 11.3125l20.273438 20.277344c3.125 3.121094 8.191406 3.121094 11.3125 0 3.125-3.125 3.125-8.191406 0-11.316406l-14.617188-14.617188 14.617188-14.617188c3.125-3.125 3.125-8.191406 0-11.316406zm0 0"/></svg>