<svg height="502pt" viewBox="0 -33 502 501" width="502pt" xmlns="http://www.w3.org/2000/svg"><path d="m322.609375 36.933594c.003906-19.316406-15.074219-35.277344-34.363281-36.375-19.285156-1.097656-36.078125 13.050781-38.265625 32.246094-2.191407 19.191406 10.980469 36.757812 30.019531 40.035156v108.867187c-17.550781 2.929688-30.410156 18.113281-30.410156 35.90625s12.859375 32.976563 30.410156 35.902344v108.863281c-19.035156 3.257813-32.21875 20.808594-30.039062 40 2.175781 19.1875 18.953124 33.339844 38.234374 32.25 19.28125-1.085937 34.359376-17.039062 34.363282-36.351562.199218-17.914063-12.839844-33.234375-30.558594-35.898438v-108.871094c18-2.871093 30.40625-17.871093 30.40625-35.898437s-12.40625-33.035156-30.40625-35.902344v-108.867187c17.730469-2.660156 30.789062-17.976563 30.609375-35.90625zm-60.609375 0c0-13.476563 10.925781-24.40625 24.40625-24.40625s24.40625 10.925781 24.40625 24.40625c0 13.480468-10.925781 24.40625-24.40625 24.40625-13.472656-.015625-24.390625-10.929688-24.40625-24.40625zm48.8125 361.347656c0 13.480469-10.925781 24.40625-24.40625 24.410156-13.480469 0-24.40625-10.929687-24.40625-24.410156s10.925781-24.40625 24.40625-24.40625c13.472656.015625 24.390625 10.933594 24.40625 24.40625zm0-180.671875c0 13.480469-10.925781 24.40625-24.40625 24.40625s-24.40625-10.929687-24.40625-24.40625c0-13.480469 10.925781-24.410156 24.40625-24.40625 13.472656.015625 24.390625 10.933594 24.40625 24.40625zm0 0"/><path d="m457 7.609375c0-3.316406-2.6875-6-6-6h-109c-3.3125 0-6 2.683594-6 6v58c0 3.3125 2.6875 6 6 6h109c3.3125 0 6-2.6875 6-6zm-12 52h-97v-46h97zm0 0"/><path d="m502 188.609375c0-3.316406-2.6875-6-6-6h-154c-3.3125 0-6 2.683594-6 6v58c0 3.3125 2.6875 6 6 6h154c3.3125 0 6-2.6875 6-6zm-12 52h-142v-46h142zm0 0"/><path d="m457 369.609375c0-3.316406-2.6875-6-6-6h-109c-3.3125 0-6 2.683594-6 6v58c0 3.3125 2.6875 6 6 6h109c3.3125 0 6-2.6875 6-6zm-12 52h-97v-46h97zm0 0"/><path d="m123.070312 94.535156c-67.96875 0-123.070312 55.101563-123.070312 123.074219 0 67.96875 55.101562 123.070313 123.070312 123.070313 67.972657 0 123.074219-55.101563 123.074219-123.070313-.078125-67.941406-55.132812-122.996094-123.074219-123.074219zm-64.050781 162.347656c-.753906-7.527343 1.738281-15.015624 6.851563-20.59375 5.152344-5.597656 12.4375-8.753906 20.046875-8.679687h2.925781l8.5625 26.097656c.75 2.527344 3.164062 4.179688 5.789062 3.972657l-7.132812 66.371093c-.0625.4375-.078125.878907-.042969 1.320313-13.285156-3.332032-25.835937-9.101563-37.019531-17.011719v-50.871094c0-.203125.039062-.402343.019531-.605469zm55.15625 71.441407-5.875-5.875 8.253907-76.832031 6.136718-6.859376 6.957032 7.402344 8.195312 76.289063-5.875 5.875c-2.933594.234375-5.902344.351562-8.902344.355469-3 .003906-5.964844-.113282-8.890625-.355469zm72.875-71.441407c-.019531.199219-.050781.398438-.050781.605469v50.871094c-11.15625 7.90625-23.683594 13.671875-36.949219 17 .058594-.441406.0625-.890625.019531-1.335937l-7.125-66.394532c.4375.011719.875-.027344 1.304688-.113281 2.015625-.335937 3.703125-1.722656 4.425781-3.632813l9.523438-26.273437h2.042969c7.578124-.097656 14.839843 3.042969 19.960937 8.632813 5.117187 5.589843 7.613281 13.097656 6.851563 20.640624zm11.949219 41.671876v-40.773438c1.011719-10.871094-2.628906-21.660156-10.015625-29.695312-7.386719-8.039063-17.832031-12.570313-28.75-12.476563h-6.257813c-2.496093-.089844-4.765624 1.425781-5.648437 3.757813l-7.628906 21.132812-13.742188-14.8125c-1.117187-1.257812-2.691406-2.007812-4.371093-2.078125h-.074219c-1.703125.0625-3.296875.835937-4.398438 2.136719l-12.519531 14.054687-6.695312-20.292969c-.828126-2.414062-3.144532-4-5.699219-3.898437h-7.28125c-10.933594-.101563-21.398438 4.421875-28.8125 12.453125-7.414063 8.035156-11.082031 18.828125-10.105469 29.71875v40.773438c-21-20.273438-35.050781-49.058594-35.050781-80.945313.183593-61.21875 49.863281-110.75 111.082031-110.75 61.214844 0 110.894531 49.53125 111.078125 110.75.199219 30.71875-12.546875 60.101563-35.109375 80.945313zm0 0"/><path d="m159 168.109375c0-20.710937-16.789062-37.5-37.5-37.5s-37.5 16.789063-37.5 37.5v13c0 20.710937 16.789062 37.5 37.5 37.5s37.5-16.789063 37.5-37.5zm-12 13c0 14.082031-11.417969 25.5-25.5 25.5s-25.5-11.417969-25.5-25.5v-13c0-14.085937 11.417969-25.5 25.5-25.5s25.5 11.414063 25.5 25.5zm0 0"/></svg>