<svg id="Layer_1" height="512" viewBox="0 0 512 512" width="512" xmlns="http://www.w3.org/2000/svg" data-name="Layer 1"><path d="m295.439 251a6 6 0 0 0 -6-6h-54.439v-77.173a6 6 0 0 0 -12 0v82.935c0 3.314 2.319 6.238 5.632 6.238h60.807a6 6 0 0 0 6-6z"/><path d="m450.971 276.291a218.862 218.862 0 0 0 3.477-38.808 216.965 216.965 0 0 0 -370.383-153.418 216.966 216.966 0 0 0 153.418 370.383 219 219 0 0 0 38.808-3.477 123.66 123.66 0 1 0 174.68-174.68zm-213.488 166.157c-113.019 0-204.966-91.947-204.966-204.965s91.947-204.966 204.966-204.966 204.965 91.947 204.965 204.966a207.362 207.362 0 0 1 -2.195 30.1 123.333 123.333 0 0 0 -37.973-18.623c.262-3.818.4-7.659.4-11.477 0-91.092-74.109-165.2-165.2-165.2s-165.2 74.109-165.2 165.2 74.109 165.2 165.2 165.2c3.821 0 7.663-.141 11.477-.4a123.341 123.341 0 0 0 18.617 37.971 207.356 207.356 0 0 1 -30.091 2.194zm6.572-74.679a123.942 123.942 0 0 0 2.088 22.664c-2.884.161-5.778.25-8.66.25-84.475 0-153.2-68.725-153.2-153.2s68.726-153.2 153.2-153.2 153.2 68.726 153.2 153.2c0 2.881-.09 5.775-.25 8.66a123.743 123.743 0 0 0 -146.378 121.626zm123.714 111.714a111.714 111.714 0 1 1 111.713-111.714 111.841 111.841 0 0 1 -111.713 111.714z"/><path d="m425.033 293h-101.278c-11.049 0-19.755 9.387-19.755 20.436v112.774c0 .075-.14.149-.137.223 0 .118-.074.324-.074.442a20.075 20.075 0 0 0 19.967 20.125h93.789a6.558 6.558 0 0 0 6.455-6.177v-21.823h1.033a6.19 6.19 0 0 0 5.967-6.25v-113.35c0-3.315-2.653-6.4-5.967-6.4zm-109.033 20.436c0-4.436 3.323-8.436 7.755-8.436h10.245v102h-10.244c-2.858 0-5.756.352-7.756 1.434zm96 121.564h-88.244a8 8 0 1 1 0-16h88.244zm7-28h-73v-102h73z"/></svg>