<svg height="485pt" viewBox="0 -61 485.57379 485" width="485pt" xmlns="http://www.w3.org/2000/svg"><path d="m485.441406 262.863281-.527344-2.4375c-.417968-11.742187-2.917968-23.320312-7.375-34.191406l-41.761718-193.535156c-3.285156-15.585938-16.480469-27.121094-32.363282-28.300781l-51.992187-4.09375c-3.304687-.257813-6.195313 2.210937-6.457031 5.515624-.257813 3.304688 2.210937 6.195313 5.515625 6.453126l51.992187 4.09375c10.585938.785156 19.382813 8.476562 21.574219 18.863281l34.863281 161.5625c-24.777344-27.277344-62.539062-38.738281-98.296875-29.828125-35.753906 8.914062-63.722656 36.753906-72.800781 72.46875-27.777344-16.390625-62.269531-16.390625-90.050781 0-9.074219-35.714844-37.042969-63.554688-72.800781-72.46875-35.757813-8.910156-73.519532 2.550781-98.292969 29.828125l34.859375-161.5625c2.191406-10.390625 10.988281-18.078125 21.578125-18.863281l51.992187-4.09375c3.304688-.257813 5.769532-3.148438 5.511719-6.453126-.261719-3.300781-3.152344-5.7695308-6.453125-5.507812l-51.992188 4.089844c-15.886718 1.179687-29.078124 12.714844-32.363281 28.300781l-41.761719 193.53125c-4.460937 10.871094-6.957031 22.449219-7.378906 34.191406l-.523437 2.4375c-.289063 1.320313-.1171878 2.699219.484375 3.910157.960937 36.890624 22.136718 70.257812 55.101562 86.839843s72.378906 13.6875 102.570313-7.53125c30.191406-21.21875 46.261719-57.320312 41.828125-93.957031 25.804687-17.316406 59.519531-17.316406 85.328125 0-4.4375 36.636719 11.636719 72.738281 41.828125 93.957031 30.1875 21.21875 69.601562 24.113281 102.566406 7.53125 32.96875-16.582031 54.140625-49.949219 55.105469-86.839843.601562-1.210938.777343-2.589844.492187-3.910157zm-384.726562 89.398438c-48.648438-.054688-88.074219-39.480469-88.128906-88.128907 0-.734374.007812-1.46875.027343-2.203124l6.933594-32.125c17.191406-40.65625 61.8125-62.320313 104.398437-50.6875 42.582032 11.636718 69.988282 52.980468 64.117188 96.734374-5.867188 43.75-43.203125 76.410157-87.347656 76.410157zm284.144531 0c-44.144531 0-81.480469-32.660157-87.347656-76.414063-5.871094-43.75 21.535156-85.097656 64.121093-96.730468 42.582032-11.636719 87.207032 10.03125 104.398438 50.6875l6.933594 32.125c.015625.734374.027344 1.46875.027344 2.203124-.058594 48.648438-39.484376 88.070313-88.132813 88.125zm0 0"/><path d="m101.789062 221.472656c10.074219.011719 18.238282 8.179688 18.25 18.253906 0 3.3125 2.6875 6 6 6 3.316407 0 6-2.6875 6-6-.019531-14.769531-10.6875-27.375-25.25-29.835937v-9.617187c0-3.3125-2.6875-6-6-6-3.316406 0-6 2.6875-6 6v10.023437c-14.925781 3.550781-24.832031 17.714844-23.042968 32.953125 1.785156 15.238281 14.699218 26.722656 30.042968 26.722656 10.078126 0 18.253907 8.171875 18.253907 18.253906 0 10.082032-8.171875 18.253907-18.253907 18.253907-10.082031 0-18.253906-8.171875-18.253906-18.253907 0-3.3125-2.683594-6-6-6-3.3125 0-6 2.6875-6 6 .019532 14.003907 9.632813 26.167969 23.253906 29.425782v9.621094c0 3.316406 2.683594 6 6 6 3.3125 0 6-2.683594 6-6v-9.214844c15.515626-2.601563 26.449219-16.664063 25.144532-32.34375-1.304688-15.679688-14.410156-27.742188-30.144532-27.742188-9.976562-.144531-17.984374-8.273437-17.984374-18.25 0-9.972656 8.007812-18.101562 17.984374-18.25zm0 0"/><path d="m384.789062 221.472656c10.074219.011719 18.238282 8.179688 18.25 18.253906 0 3.3125 2.6875 6 6 6 3.316407 0 6-2.6875 6-6-.019531-14.769531-10.6875-27.375-25.25-29.835937v-9.617187c0-3.3125-2.6875-6-6-6-3.316406 0-6 2.6875-6 6v10.023437c-14.925781 3.550781-24.832031 17.714844-23.042968 32.953125 1.785156 15.238281 14.699218 26.722656 30.042968 26.722656 10.078126 0 18.253907 8.171875 18.253907 18.253906 0 10.082032-8.171875 18.253907-18.253907 18.253907-10.082031 0-18.253906-8.171875-18.253906-18.253907 0-3.3125-2.683594-6-6-6-3.3125 0-6 2.6875-6 6 .019532 14.003907 9.632813 26.167969 23.253906 29.425782v9.621094c0 3.316406 2.683594 6 6 6 3.3125 0 6-2.683594 6-6v-9.214844c15.515626-2.601563 26.449219-16.664063 25.144532-32.34375-1.304688-15.679688-14.410156-27.742188-30.144532-27.742188-9.976562-.144531-17.984374-8.273437-17.984374-18.25 0-9.972656 8.007812-18.101562 17.984374-18.25zm0 0"/></svg>