<?xml version="1.0"?>
<svg xmlns="http://www.w3.org/2000/svg" id="Layer_1" data-name="Layer 1" viewBox="0 0 512 512" width="512" height="512"><title>Tab</title><path d="M435,446.652V75.122A46.345,46.345,0,0,0,388.894,29H123.075A46.333,46.333,0,0,0,77,75.139V436.878A46.333,46.333,0,0,0,123.093,483H399.275A35.67,35.67,0,0,0,435,446.652ZM416.378,463.7a23.693,23.693,0,0,1-17.1,7.3H123.11A34.322,34.322,0,0,1,89,436.861V75.157A34.322,34.322,0,0,1,123.093,41H388.876A34.334,34.334,0,0,1,423,75.139v371.6c0,.061-.052.157-.05.219A22.954,22.954,0,0,1,416.378,463.7Z"/><path d="M394,74a6,6,0,0,0-6-6H123a6,6,0,0,0-6,6V405a6,6,0,0,0,6,6H388a6,6,0,0,0,6-6ZM383,398H129V80H383Z"/><path d="M268.55,434h-25.1a6,6,0,0,0,0,12h25.1a6,6,0,0,0,0-12Z"/><path d="M255,152a6,6,0,0,0,6-6V118a6,6,0,0,0-12,0v28A6,6,0,0,0,255,152Z"/><path d="M351.025,193.543a5.982,5.982,0,0,0,4.243-1.757l20.022-20.023a6,6,0,1,0-8.484-8.485L346.783,183.3a6,6,0,0,0,4.242,10.243Z"/><path d="M156.232,192.123a6,6,0,0,0,8.485-8.485l-20.023-20.023a6,6,0,0,0-8.484,8.486Z"/><path d="M195.04,162.732a6,6,0,1,0,10.947-4.913L194.4,131.985a6,6,0,1,0-10.948,4.913Z"/><path d="M301.279,162.886a5.994,5.994,0,0,0,7.742-3.474l10.069-26.465a6,6,0,1,0-11.215-4.268l-10.069,26.466A6,6,0,0,0,301.279,162.886Z"/><path d="M181,331H330a6,6,0,0,0,0-12H310.4a77.928,77.928,0,1,0-108.908,0H181a6,6,0,0,0,0,12Zm9.017-67.8A65.933,65.933,0,1,1,291.08,319H258.313A5.992,5.992,0,0,0,261,314v-5.68a24.629,24.629,0,0,0-5.051-48.735,12.629,12.629,0,1,1,12.629-12.628,6,6,0,0,0,12,0A24.668,24.668,0,0,0,261,222.851V218a6,6,0,0,0-12,0v5.332a24.627,24.627,0,0,0,6.949,48.253,12.629,12.629,0,1,1-12.629,12.629,6,6,0,0,0-12,0A24.67,24.67,0,0,0,249,307.838V314a5.992,5.992,0,0,0,2.687,5H220.818A65.532,65.532,0,0,1,190.017,263.2Z"/></svg>
