<?xml version="1.0" encoding="iso-8859-1"?>
<!-- Generator: Adobe Illustrator 19.0.0, SVG Export Plug-In . SVG Version: 6.00 Build 0)  -->
<svg version="1.1" id="Capa_1" xmlns="http://www.w3.org/2000/svg" xmlns:xlink="http://www.w3.org/1999/xlink" x="0px" y="0px"
	 viewBox="0 0 511.996 511.996" style="enable-background:new 0 0 511.996 511.996;" xml:space="preserve">
<g>
	<g>
		<path d="M441.429,192.513H26.278c-9.785,0-17.716,7.931-17.716,17.716v75.589c0,58.729,21.756,114.223,61.416,157.09v51.371
			c0,9.785,7.931,17.716,17.716,17.716h292.318c9.785,0,17.716-7.925,17.722-17.716v-51.371
			c39.655-42.885,61.41-98.378,61.41-157.09v-75.589C459.146,200.444,451.215,192.513,441.429,192.513z M423.701,285.824
			c0,51.82-20.002,100.676-56.32,137.567c-3.26,3.307-5.09,7.777-5.09,12.425v40.747H105.405v-40.747
			c0-4.654-1.831-9.112-5.096-12.431c-36.318-36.873-56.32-85.729-56.32-137.561v-57.873h379.713V285.824z"/>
	</g>
</g>
<g>
	<g>
		<rect x="26.272" y="272.827" width="415.151" height="35.433"/>
	</g>
</g>
<g>
	<g>
		<path d="M498.446,79.802L426.4,5.394c-6.59-6.809-17.386-7.228-24.478-0.933l-217.91,193.107l23.498,26.515L412.735,42.214
			l48.466,50.06l-99.973,105.79l25.759,24.336l111.607-118.108C505.107,97.406,505.036,86.611,498.446,79.802z"/>
	</g>
</g>
<g>
</g>
<g>
</g>
<g>
</g>
<g>
</g>
<g>
</g>
<g>
</g>
<g>
</g>
<g>
</g>
<g>
</g>
<g>
</g>
<g>
</g>
<g>
</g>
<g>
</g>
<g>
</g>
<g>
</g>
</svg>
