<svg height="482pt" viewBox="-2 0 482 482.40897" width="482pt" xmlns="http://www.w3.org/2000/svg"><path d="m412.910156 89.410156c-36.300781.054688-65.710937 29.476563-65.75 65.777344 0 4.421875 3.578125 8.015625 8 8.03125h49.269532v72h-58.226563c-.359375.03125-.71875.089844-1.074219.171875-16.710937 1.171875-29.675781 15.0625-29.699218 31.816406v8.011719h-44v-8.011719c-.027344-4.175781 1.605468-8.1875 4.542968-11.152343 2.9375-2.964844 6.933594-4.636719 11.105469-4.648438 4.417969.011719 8.007813-3.5625 8.019531-7.980469.011719-4.417969-3.5625-8.007812-7.980468-8.019531-17.535157.027344-31.722657 14.265625-31.6875 31.800781v100.199219c-.046876.285156-.082032.570312-.101563.859375-7.0625 4.433594-13.597656 8.140625-26.558594 8.140625-13.5625 0-20.050781-4.0625-27.523437-8.769531-8.355469-5.265625-17.84375-11.230469-36.03125-11.230469-18.183594 0-27.664063 5.964844-36.019532 11.230469-7.46875 4.707031-13.925781 8.769531-27.488281 8.769531-13.566406 0-20.019531-4.0625-27.488281-8.769531-8.355469-5.265625-17.828125-11.230469-36.011719-11.230469-4.417969 0-8 3.582031-8 8s3.582031 8 8 8c13.5625 0 20.011719 4.0625 27.484375 8.769531 8.355469 5.265625 17.828125 11.230469 36.011719 11.230469s27.65625-5.964844 36.011719-11.230469c7.46875-4.707031 13.917968-8.769531 27.484375-8.769531 13.566406 0 20.015625 4.0625 27.484375 8.769531 8.355468 5.265625 17.828125 11.230469 36.015625 11.230469 18.183593 0 27.652343-5.964844 36.011719-11.230469 7.46875-4.707031 13.921874-8.769531 27.488281-8.769531 13.566406 0 20.015625 4.0625 27.484375 8.769531 8.359375 5.265625 17.832031 11.230469 36.015625 11.230469 18.1875 0 27.660156-5.964844 36.015625-11.230469 7.472656-4.707031 13.921875-8.769531 27.488281-8.769531 4.417969 0 8-3.582031 8-8s-3.582031-8-8-8c-18.183594 0-27.65625 5.964844-36.011719 11.230469-7.472656 4.699219-13.925781 8.769531-27.492187 8.769531-11.632813 0-18.050781-2.992188-24.351563-6.8125.058594-.390625.085938-.789062.082032-1.1875v-101.199219c.007812-8.765625 7.066406-15.890625 15.828124-15.988281h115.945313c4.417969 0 8-3.582031 8-8 0-4.421875-3.582031-8-8-8h-42.773437v-72h50.226562c4.421875-.015625 8-3.609375 8-8.03125-.039062-36.300781-29.449219-65.722656-65.746094-65.777344zm-141.480468 231.808594h44v10h-44zm44-30v14h-44v-14zm-44 68.609375v-12.609375h44v13.464844c-7.328126-2.980469-15.191407-4.4375-23.101563-4.273438-8.765625 0-15.898437 1.390625-20.898437 3.417969zm92.375-212.609375c3.925781-24.070312 24.714843-41.746094 49.101562-41.746094s45.179688 17.675782 49.105469 41.746094zm0 0"/><path d="m419.203125 401.410156c-18.183594 0-27.65625 5.964844-36.011719 11.230469-7.472656 4.699219-13.925781 8.769531-27.492187 8.769531-13.566407 0-20.015625-4.066406-27.488281-8.769531-8.355469-5.265625-17.828126-11.230469-36.011719-11.230469-18.183594 0-27.660157 5.964844-36.015625 11.230469-7.46875 4.707031-13.921875 8.769531-27.484375 8.769531-13.566407 0-20.019531-4.0625-27.488281-8.769531-8.355469-5.265625-17.828126-11.230469-36.011719-11.230469-18.183594 0-27.65625 5.964844-36.011719 11.230469-7.46875 4.707031-13.921875 8.769531-27.484375 8.769531-13.566406 0-20.015625-4.0625-27.484375-8.769531-8.355469-5.265625-17.828125-11.230469-36.015625-11.230469-4.417969 0-8 3.582032-8 8 0 4.417969 3.582031 8 8 8 13.566406 0 20.015625 4.0625 27.488281 8.769532 8.355469 5.261718 17.828125 11.230468 36.011719 11.230468s27.65625-5.96875 36.011719-11.230468c7.46875-4.707032 13.917968-8.769532 27.484375-8.769532 13.566406 0 20.015625 4.0625 27.484375 8.769532 8.355468 5.261718 17.828125 11.230468 36.015625 11.230468 18.183593 0 27.652343-5.96875 36.011719-11.230468 7.46875-4.707032 13.921874-8.769532 27.488281-8.769532 13.566406 0 20.015625 4.0625 27.484375 8.769532 8.359375 5.261718 17.832031 11.230468 36.015625 11.230468 18.1875 0 27.660156-5.96875 36.015625-11.230468 7.472656-4.707032 13.921875-8.769532 27.488281-8.769532 4.417969 0 8-3.582031 8-8 0-4.417968-3.582031-8-8-8zm0 0"/><path d="m419.203125 446.410156c-18.183594 0-27.65625 5.964844-36.011719 11.230469-7.472656 4.699219-13.925781 8.769531-27.492187 8.769531-13.566407 0-20.015625-4.066406-27.488281-8.769531-8.355469-5.265625-17.828126-11.230469-36.011719-11.230469-18.183594 0-27.660157 5.964844-36.015625 11.230469-7.46875 4.707031-13.921875 8.769531-27.484375 8.769531-13.566407 0-20.019531-4.0625-27.488281-8.769531-8.355469-5.265625-17.828126-11.230469-36.011719-11.230469-18.183594 0-27.65625 5.964844-36.011719 11.230469-7.46875 4.707031-13.921875 8.769531-27.484375 8.769531-13.566406 0-20.015625-4.0625-27.484375-8.769531-8.355469-5.265625-17.828125-11.230469-36.015625-11.230469-4.417969 0-8 3.582032-8 8 0 4.417969 3.582031 8 8 8 13.566406 0 20.015625 4.0625 27.488281 8.769532 8.355469 5.261718 17.828125 11.230468 36.011719 11.230468s27.65625-5.96875 36.011719-11.230468c7.46875-4.707032 13.917968-8.769532 27.484375-8.769532 13.566406 0 20.015625 4.0625 27.484375 8.769532 8.355468 5.261718 17.828125 11.230468 36.015625 11.230468 18.183593 0 27.652343-5.96875 36.011719-11.230468 7.46875-4.707032 13.921874-8.769532 27.488281-8.769532 13.566406 0 20.015625 4.0625 27.484375 8.769532 8.359375 5.261718 17.832031 11.230468 36.015625 11.230468 18.1875 0 27.660156-5.96875 36.015625-11.230468 7.472656-4.707032 13.921875-8.769532 27.488281-8.769532 4.417969 0 8-3.582031 8-8 0-4.417968-3.582031-8-8-8zm0 0"/><path d="m9.339844 208.21875h228c4.417968 0 8-3.582031 8-8 0-4.421875-3.582032-8-8-8h-36.910156v-98h21.140624c3.414063.054688 6.476563-2.097656 7.582032-5.328125 1.101562-3.234375-.003906-6.808594-2.742188-8.851563l-103.226562-78.417968c-2.867188-2.167969-6.824219-2.160156-9.683594.019531l-103.222656 78.453125c-2.734375 2.035156-3.839844 5.605469-2.734375 8.828125s4.167969 5.363281 7.574219 5.296875h21.3125v98h-27.089844c-4.417969 0-8 3.578125-8 8 0 4.417969 3.582031 8 8 8zm121.089844-16h-24v-37h24zm-12.089844-174.402344 79.480468 60.402344h-158.953124zm-65.910156 76.402344h132v98h-38v-44.808594c-.027344-4.472656-3.617188-8.109375-8.089844-8.191406h-40c-4.4375.097656-7.964844 3.75-7.910156 8.191406v44.808594h-38zm0 0"/><path d="m240.203125 238.21875c4.417969 0 8-3.582031 8-8 0-4.421875-3.582031-8-8-8h-232c-4.417969 0-8 3.578125-8 8 0 4.417969 3.582031 8 8 8zm0 0"/></svg>