<svg height="469pt" viewBox="0 0 469 469" width="469pt" xmlns="http://www.w3.org/2000/svg"><path d="m461.5 286h-86.5v-37.167969c0-4.417969-3.957031-7.832031-8.375-7.832031h-28.625v-49.167969c0-4.417969-3.082031-7.832031-7.5-7.832031h-11.351562c-2.90625-31.597656-23.167969-58.945312-52.546876-70.929688-.992187-6.730468-4.128906-12.960937-8.945312-17.761718-4.113281-3.957032-9.152344-6.820313-14.65625-8.328125v-28.980469h54.566406c3.03125.042969 5.816406-1.65625 7.171875-4.363281 1.359375-2.710938 1.042969-5.960938-.808593-8.359375l-12.304688-16.132813 12.304688-16.144531c1.84375-2.441406 2.15625-5.707031.8125-8.453125s-4.117188-4.5039062-7.175782-4.546875h-63c-4.417968 0-7.566406 3.746094-7.566406 8.167969v79.035156c-5.582031 1.34375-10.652344 4.277344-14.601562 8.441406-4.695313 4.746094-7.800782 10.835938-8.878907 17.421875-29.414062 11.972656-49.714843 39.316406-52.667969 70.933594h-11.351562c-4.417969 0-8.5 3.414062-8.5 7.832031v49.167969h-27.375c-2.066406-.023438-4.050781.800781-5.492188 2.28125-1.441406 1.480469-2.210937 3.488281-2.132812 5.550781v37.167969h-87.5c-4.417969 0-8.5 3.414062-8.5 7.832031v166c0 4.421875 4.082031 8.167969 8.5 8.167969h95 .0625.0625 357.875c4.417969 0 7.5-3.746094 7.5-8.167969v-166c0-4.417969-3.082031-7.832031-7.5-7.832031zm-218.5-270h38.414062l-6.214843 8.234375c-2.183594 2.847656-2.183594 6.808594 0 9.65625l6.214843 8.109375h-38.414062zm79 225h-14v-41h14zm-128-41v41h-16v-41zm16 0h17v41h-17zm33 0h16v41h-16zm32 0h17v41h-17zm-51.410156-93.175781c2.953125-3.0625 7.019531-4.800781 11.277344-4.824219h.136718c4.203125.003906 8.238282 1.667969 11.21875 4.632812.339844.335938.660156.710938.96875 1.070313-8.082031-1.171875-16.289062-1.175781-24.371094-.003906.25-.292969.496094-.597657.769532-.875zm11.410156 16.175781c35.234375 0 64.332031 27 68.082031 61h-136.164062c3.75-34 32.847656-61 68.082031-61zm-88 77h15v41h-15zm-52 252h-79v-150h79zm17-195h247v35.46875c0 .441406-1 .898438-1 1.363281v158.167969h-19v-77.953125c0-16.292969-13.207031-29.5-29.5-29.5s-29.5 13.207031-29.5 29.5v77.953125h-16v-77.953125c0-16.015625-12.984375-29-29-29s-29 12.984375-29 29v77.953125h-16v-77.953125c0-16.292969-13.207031-29.5-29.5-29.5s-29.5 13.207031-29.5 29.5v77.953125h-19zm211 195h-27v-77.953125c0-7.457031 6.042969-13.5 13.5-13.5s13.5 6.042969 13.5 13.5zm-75 0h-26v-77.953125c0-7.179687 5.820312-13 13-13s13 5.820313 13 13zm-74 0h-27v-77.953125c0-7.457031 6.042969-13.5 13.5-13.5s13.5 6.042969 13.5 13.5zm279 0h-78v-150h78zm0 0"/></svg>