<?xml version="1.0"?>
<svg xmlns="http://www.w3.org/2000/svg" id="Layer_1" data-name="Layer 1" viewBox="0 0 512 512" width="512" height="512"><title>Education Web</title><path d="M490,130.17V65.516C490,44.017,473.2,27,452.548,27H59.448C38.8,27,22,44.017,22,65.516V382.432C22,403.931,38.8,421,59.448,421H145v41.235a6.225,6.225,0,0,0,4.143,5.622,280.776,280.776,0,0,0,195.9,0A6.044,6.044,0,0,0,349,462.235V421h20.636c4.166,7,11.365,10.609,19.537,10.609S404.545,428,408.711,421h43.837C473.2,421,490,403.931,490,382.432V130.324c0-.026,0-.051,0-.077S490,130.2,490,130.17ZM59.448,39h393.1C466.58,39,478,50.634,478,65.516V124H34V65.516C34,50.634,45.416,39,59.448,39ZM341.334,348.171a5.95,5.95,0,0,0-.922.359l-93.163,36.258-93.158-36.256a5.9,5.9,0,0,0-.929-.362l-30.7-11.949,124.789-45.868,124.789,45.868Zm-96.5,48.647a6.648,6.648,0,0,0,2.295.409,6.259,6.259,0,0,0,2.224-.409L337,362.726v49.386c-58,20.62-121,20.62-180,0V362.726ZM157,458.033V424.81a285.7,285.7,0,0,0,90,14.781,281.124,281.124,0,0,0,90-14.781v33.223C279,478.654,216,478.653,157,458.033ZM349,409V358.055l34-13.221v41.391A22.964,22.964,0,0,0,365.855,408.5c0,.238.007.5.014.5Zm40.173,11.031A11.322,11.322,0,1,1,400.5,408.709,11.335,11.335,0,0,1,389.173,420.031ZM452.548,409H412.477s.022-.263.022-.5A23.174,23.174,0,0,0,395,386.123V337.21a5.888,5.888,0,0,0-.041-.654c.015-.183.038-.365.036-.552a6,6,0,0,0-3.931-5.575l-141.744-52.1a5.993,5.993,0,0,0-4.141,0l-141.744,52.1A6,6,0,0,0,99.505,336a5.792,5.792,0,0,0,3.586,5.648L145,358.056V409H59.448C45.416,409,34,397.314,34,382.432V136H478V382.432C478,397.314,466.58,409,452.548,409Z"/><path d="M143.31,110.006c14.869,0,26.966-12.558,26.966-27.994s-12.1-27.994-26.966-27.994-26.966,12.558-26.966,27.994S128.44,110.006,143.31,110.006Zm0-43.988c8.252,0,14.966,7.175,14.966,15.994s-6.714,15.994-14.966,15.994-14.966-7.175-14.966-15.994S135.058,66.018,143.31,66.018Z"/><path d="M211.448,110.006c14.869,0,26.966-12.558,26.966-27.994s-12.1-27.994-26.966-27.994-26.966,12.558-26.966,27.994S196.579,110.006,211.448,110.006Zm0-43.988c8.252,0,14.966,7.175,14.966,15.994S219.7,98.006,211.448,98.006s-14.966-7.175-14.966-15.994S203.2,66.018,211.448,66.018Z"/><path d="M75.172,110.006c14.869,0,26.966-12.558,26.966-27.994s-12.1-27.994-26.966-27.994S48.206,66.576,48.206,82.012,60.3,110.006,75.172,110.006Zm0-43.988c8.252,0,14.966,7.175,14.966,15.994S83.424,98.006,75.172,98.006,60.206,90.831,60.206,82.012,66.92,66.018,75.172,66.018Z"/></svg>
