<svg height="502pt" viewBox="0 -68 502.14599 502" width="502pt" xmlns="http://www.w3.org/2000/svg"><path d="m454.863281 111.171875c-1.445312-2.980469-5.035156-4.226563-8.015625-2.78125l-33.4375 16.199219c-2.980468 1.445312-4.226562 5.03125-2.78125 8.015625l1.417969 2.925781-48.394531 23.488281c-11.886719-90.929687-89.363282-158.941406-181.066406-158.9453122-100.679688 0-182.585938 81.9062502-182.585938 182.5859372 0 100.679688 81.90625 182.585938 182.585938 182.585938 50.652343-.007813 99.03125-21.054688 133.566406-58.113282 12.125 9.292969 28.925781 9.476563 41.25.445313 12.324218-9.03125 17.214844-25.105469 12.007812-39.46875l86.578125-41.875 1.324219 2.734375c1.445312 2.980469 5.035156 4.226562 8.015625 2.785156l33.433594-16.203125c2.980469-1.445312 4.230469-5.03125 2.785156-8.015625zm-442.851562 71.488281c0-94.0625 76.519531-170.585937 170.582031-170.585937 87.207031.003906 160.371094 65.777343 169.628906 152.492187l-53.992187 26.207032c-2.980469 1.445312-4.222657 5.03125-2.785157 8.011718l8.101563 16.742188-11.679687 5.699218c-3.078126-9.933593-8.839844-18.820312-16.644532-25.691406-10.121094-8.882812-23.113281-13.8125-36.582031-13.875h-9.441406c-2.566407.082032-4.8125 1.742188-5.648438 4.167969l-13.191406 36.816406-24.035156-25.515625c-.640625-.707031-1.441407-1.253906-2.335938-1.585937-2.328125-.886719-4.960937-.242188-6.617187 1.617187l-22.414063 25.050782-11.726562-36.214844c-.785157-2.507813-3.070313-4.25-5.699219-4.335938h-10.988281c-15.785157.085938-30.800781 6.828125-41.351563 18.570313-10.480468 11.59375-16.117187 27.328125-14.117187 42.875v68.519531c-37.457031-32.390625-59.003907-79.445312-59.0625-128.964844zm293.980469 82.398438-38.605469 18.644531-14.5625-30.058594 55.941406-27.316406 11.390625 23.554687c-6.164062 3.492188-11.105469 8.789063-14.164062 15.175782zm-85.699219 78.433594-11.253907-104.761719c1.148438.878906 2.570313 1.320312 4.011719 1.242187 2.429688-.222656 4.5-1.851562 5.292969-4.15625l15.074219-42.15625h5.222656c19.84375 0 37.261719 13.890625 42.28125 32.710938l-33.328125 16.375-1.464844-2.96875c-.695312-1.429688-1.929687-2.523438-3.433594-3.042969-1.503906-.515625-3.152343-.414063-4.582031.285156l-22.199219 10.761719c-2.980468 1.449219-4.226562 5.039062-2.78125 8.027344l27.898438 57.597656c1.445312 2.984375 5.03125 4.230469 8.015625 2.785156l22.199219-10.753906c2.980468-1.441406 4.226562-5.03125 2.785156-8.011719l-1.4375-2.917969 9.480469-4.59375v31.257813c-19.339844 13.996094-41.4375 23.710937-64.824219 28.5l1.304688-1.292969c1.289062-1.285156 1.925781-3.078125 1.734374-4.886718zm40.324219-46.234376-11.398438 5.519532-22.671875-46.796875 11.402344-5.519531zm-177.589844-55.050781c-1.261719-12.347656 2.742187-24.652343 11.023437-33.894531 8.285157-9.242188 20.082031-14.5625 32.492188-14.652344h6.628906l13.601563 41.984375c.710937 2.226563 2.625 3.851563 4.9375 4.191407 1.570312.214843 3.160156-.199219 4.421874-1.15625l-11.253906 104.789062c-.191406 1.808594.441406 3.605469 1.722656 4.894531l1.34375 1.332031c-23.402343-4.84375-45.507812-14.585937-64.871093-28.589843v-78.292969c0-.203125-.023438-.40625-.046875-.605469zm84.765625 110.390625-10.675781-10.675781 12.707031-118.324219 12.128906-13.546875 13.476563 14.332031 12.625 117.539063-10.671876 10.671875c-4.902343.425781-9.835937.644531-14.800781.652344-4.980469 0-9.910156-.230469-14.789062-.648438zm126.28125-40.890625v-27.589843l8.558593-4.121094c.019532 6.472656 1.875 12.804687 5.355469 18.265625-4.347656 4.773437-8.992187 9.265625-13.914062 13.445312zm42.988281-9.464843c-10.789062.011718-20.054688-7.667969-22.042969-18.273438-1.988281-10.601562 3.863281-21.117188 13.925781-25.015625.6875-.070313 1.363282-.261719 1.988282-.5625.132812-.066406.261718-.144531.390625-.214844 8.410156-2.226562 17.351562.613281 22.929687 7.289063 5.578125 6.675781 6.789063 15.976562 3.105469 23.859375-3.6875 7.882812-11.597656 12.917969-20.296875 12.917969zm26.308594-44.542969c-7.78125-9.28125-19.875-13.773438-31.828125-11.824219l-22.683594-46.914062 108.414063-52.636719 33.480468 69.109375zm102.121094-39.363281-41.449219-85.566407 22.636719-10.964843 41.453124 85.566406zm0 0"/><path d="m235.074219 107.269531c0-29.609375-24.003907-53.609375-53.609375-53.609375h-.78125c-29.609375 0-53.609375 24-53.609375 53.609375v19.78125c0 29.605469 24 53.609375 53.609375 53.609375h.78125c29.605468 0 53.609375-24.003906 53.609375-53.609375zm-12 19.78125c0 22.980469-18.628907 41.609375-41.609375 41.609375h-.78125c-22.980469 0-41.609375-18.628906-41.609375-41.609375v-19.78125c0-22.980469 18.628906-41.609375 41.609375-41.609375h.78125c22.980468 0 41.609375 18.628906 41.609375 41.609375zm0 0"/></svg>