<?xml version="1.0" encoding="iso-8859-1"?>
<!-- Generator: Adobe Illustrator 19.0.0, SVG Export Plug-In . SVG Version: 6.00 Build 0)  -->
<svg version="1.1" id="Capa_1" xmlns="http://www.w3.org/2000/svg" xmlns:xlink="http://www.w3.org/1999/xlink" x="0px" y="0px"
	 viewBox="0 0 512 512" style="enable-background:new 0 0 512 512;" xml:space="preserve">
<g>
	<g>
		<path d="M438.495,182.495H73.505c-10.5,0-19.01,8.51-19.01,19.01v122.297c0,10.5,8.51,19.01,19.01,19.01h124.198V492.99
			c0,10.5,8.51,19.01,19.01,19.01h78.574c10.5,0,19.01-8.51,19.01-19.01V342.812h124.198c10.5,0,19.01-8.51,19.01-19.01V201.505
			C457.505,191.005,448.995,182.495,438.495,182.495z M419.485,304.792H295.287c-10.5,0-19.01,8.51-19.01,19.01V473.98h-40.554
			V323.802c0-10.5-8.51-19.01-19.01-19.01H92.515v-84.277h326.97V304.792z"/>
	</g>
</g>
<g>
	<g>
		<path d="M438.495,0H73.505c-10.5,0-19.01,8.51-19.01,19.01v182.495h38.02V38.02h326.97v163.485h38.02V19.01
			C457.505,8.51,448.995,0,438.495,0z"/>
	</g>
</g>
<g>
	<g>
		<rect x="141.941" y="21.545" width="38.02" height="183.762"/>
	</g>
</g>
<g>
	<g>
		<rect x="230.654" y="21.545" width="38.02" height="183.762"/>
	</g>
</g>
<g>
	<g>
		<rect x="325.703" y="21.545" width="38.02" height="183.762"/>
	</g>
</g>
<g>
	<g>
		<rect x="216.713" y="304.792" width="78.574" height="38.02"/>
	</g>
</g>
<g>
</g>
<g>
</g>
<g>
</g>
<g>
</g>
<g>
</g>
<g>
</g>
<g>
</g>
<g>
</g>
<g>
</g>
<g>
</g>
<g>
</g>
<g>
</g>
<g>
</g>
<g>
</g>
<g>
</g>
</svg>
