<svg height="504pt" viewBox="0 -45 504.01387 504" width="504pt" xmlns="http://www.w3.org/2000/svg"><path d="m496.40625.0078125h-488.800781c-2.074219.0039063-4.058594.8515625-5.492188 2.3515625-1.433593 1.5-2.1953122 3.519531-2.1054685 5.59375v398.109375c-.0898437 2.070312.6718755 4.089844 2.1054685 5.589844 1.433594 1.5 3.417969 2.351562 5.492188 2.355468h488.800781c2.074219-.003906 4.058594-.855468 5.492188-2.355468 1.4375-1.5 2.195312-3.519532 2.109374-5.589844v-398.109375c.085938-2.074219-.671874-4.09375-2.109374-5.59375-1.433594-1.5-3.417969-2.3476562-5.492188-2.3515625zm-480.398438 15.9999995h472v104h-472zm394.808594 276h-44.808594v-97.582031c-.046874-4.535156-3.640624-8.234375-8.167968-8.417969h-105.710938c-.042968 0-.082031 0-.121094.003907-.042968.007812-.082031-.003907-.121093-.003907h-105.710938c-4.53125.183594-8.121093 3.882813-8.167969 8.417969v97.582031h-44.808593c-4.523438.144532-8.128907 3.820313-8.191407 8.339844v97.660156h-27v-262h388v262h-27v-97.660156c-.0625-4.519531-3.671874-8.195312-8.191406-8.339844zm-61.808594 16h18v7.265626l-6.175781-2.089844c-1.8125-.601563-3.773437-.601563-5.585937 0l-6.238282 2.089844zm-106 0h18v7.265626l-6.152343-2.089844c-1.816407-.601563-3.78125-.601563-5.597657 0l-6.25 2.089844zm-106 0h18v7.265626l-6.125-2.089844c-1.824218-.601563-3.789062-.601563-5.613281 0l-6.261719 2.089844zm53-106h18v7.34375l-6.140624-2.089843c-1.820313-.601563-3.78125-.601563-5.601563 0l-6.257813 2.089843zm-12.414062 25.152344c2.152344 1.503906 4.898438 1.882813 7.378906 1.023438l14-4.898438 13.976563 4.898438c.855469.300781 1.757812.453125 2.664062.453125 1.71875 0 3.398438-.511719 4.820313-1.476563 2.167968-1.476562 3.496094-3.902344 3.574218-6.523437v-18.628907h20v90h-90v-90h20v18.628907c.082032 2.621093 1.414063 5.046875 3.585938 6.523437zm118.414062-25.152344h18v7.34375l-6.164062-2.089843c-1.816406-.601563-3.777344-.601563-5.589844 0l-6.246094 2.089843zm-12.4375 25.152344c2.148438 1.503906 4.890626 1.882813 7.367188 1.023438l14-4.898438 13.976562 4.898438c.855469.300781 1.753907.453125 2.65625.453125 1.726563 0 3.414063-.511719 4.847657-1.476563 2.171875-1.476562 3.503906-3.902344 3.589843-6.523437v-18.628907h20v90h-90v-90h20v18.628907c.074219 2.621093 1.398438 5.046875 3.5625 6.523437zm-267.5625-91.152344h26v262h-26zm85 262v-90h20v18.550782c.085938 2.625 1.425782 5.050781 3.597657 6.527344 2.179687 1.5 4.941406 1.878906 7.445312 1.023437l13.976563-4.902344 13.964844 4.902344c2.507812.855469 5.273437.476563 7.460937-1.023437 2.160156-1.480469 3.484375-3.90625 3.554687-6.527344v-18.550782h20v90zm106 0v-90h20v18.550782c.089844 2.621094 1.417969 5.039062 3.574219 6.527344 2.160157 1.488281 4.894531 1.867187 7.375 1.023437l14-4.902344 13.976563 4.902344c.851562.296875 1.753906.449219 2.660156.449219 1.71875 0 3.40625-.511719 4.832031-1.472656 2.171875-1.476563 3.5-3.902344 3.582031-6.527344v-18.550782h20v90zm106 0v-90h20v18.550782c.082032 2.617187 1.398438 5.039062 3.550782 6.527344 2.15625 1.488281 4.886718 1.867187 7.363281 1.023437l13.992187-4.902344 13.976563 4.902344c.851563.296875 1.75.449219 2.65625.449219 1.730469 0 3.421875-.511719 4.859375-1.472656 2.171875-1.476563 3.507812-3.902344 3.597656-6.527344v-18.550782h20v90zm149 0v-262h26v262zm0 0"/><path d="m475.007812 38.007812c0-4.417968-3.582031-8-8-8h-429c-4.417968 0-8 3.582032-8 8v60c0 4.417969 3.582032 8 8 8h429c4.417969 0 8-3.582031 8-8zm-17 52h-412v-44h412zm0 0"/><path d="m226.671875 360.007812h33.199219c4.417968 0 8-3.582031 8-8 0-4.417968-3.582032-8-8-8h-33.199219c-4.417969 0-8 3.582032-8 8 0 4.417969 3.582031 8 8 8zm0 0"/><path d="m277.34375 366.007812h-50.671875c-4.417969 0-8 3.582032-8 8 0 4.417969 3.582031 8 8 8h50.671875c4.417969 0 8-3.582031 8-8 0-4.417968-3.582031-8-8-8zm0 0"/><path d="m332.625 360.007812h33.199219c4.417969 0 8-3.582031 8-8 0-4.417968-3.582031-8-8-8h-33.199219c-4.417969 0-8 3.582032-8 8 0 4.417969 3.582031 8 8 8zm0 0"/><path d="m383.296875 366.007812h-50.671875c-4.417969 0-8 3.582032-8 8 0 4.417969 3.582031 8 8 8h50.671875c4.417969 0 8-3.582031 8-8 0-4.417968-3.582031-8-8-8zm0 0"/><path d="m120.71875 360.007812h33.199219c4.417969 0 8-3.582031 8-8 0-4.417968-3.582031-8-8-8h-33.199219c-4.421875 0-8 3.582032-8 8 0 4.417969 3.578125 8 8 8zm0 0"/><path d="m171.390625 366.007812h-50.671875c-4.421875 0-8 3.582032-8 8 0 4.417969 3.578125 8 8 8h50.671875c4.417969 0 8-3.582031 8-8 0-4.417968-3.582031-8-8-8zm0 0"/><path d="m165.695312 246.007812c0 4.417969 3.582032 8 8 8h33.199219c4.417969 0 8-3.582031 8-8 0-4.417968-3.582031-8-8-8h-33.199219c-4.417968 0-8 3.582032-8 8zm0 0"/><path d="m165.695312 268.007812c0 4.417969 3.582032 8 8 8h50.671876c4.417968 0 8-3.582031 8-8 0-4.417968-3.582032-8-8-8h-50.671876c-4.417968 0-8 3.582032-8 8zm0 0"/><path d="m271.648438 246.007812c0 4.417969 3.582031 8 8 8h33.199218c4.417969 0 8-3.582031 8-8 0-4.417968-3.582031-8-8-8h-33.199218c-4.417969 0-8 3.582032-8 8zm0 0"/><path d="m271.648438 268.007812c0 4.417969 3.582031 8 8 8h50.671874c4.417969 0 8-3.582031 8-8 0-4.417968-3.582031-8-8-8h-50.671874c-4.417969 0-8 3.582032-8 8zm0 0"/></svg>