<?xml version="1.0"?>
<svg xmlns="http://www.w3.org/2000/svg" id="Layer_1" data-name="Layer 1" viewBox="0 0 512 512" width="512" height="512"><title>Time and Money</title><path d="M226.448,193.6a92.35,92.35,0,1,0-92.348-92.35A92.455,92.455,0,0,0,226.448,193.6Zm0-172.7A80.35,80.35,0,1,1,146.1,101.253,80.44,80.44,0,0,1,226.448,20.9Z"/><path d="M226.448,142.836a16.38,16.38,0,0,1-16.361-16.362,6,6,0,1,0-12,0A28.413,28.413,0,0,0,218,153.551V161a6,6,0,0,0,12,0v-6.394a28.358,28.358,0,0,0-3.552-56.494A16.362,16.362,0,1,1,242.811,81.75a6,6,0,1,0,12,0A28.4,28.4,0,0,0,231,53.758V48a6,6,0,0,0-12,0v6.387a28.36,28.36,0,0,0,7.448,55.725,16.362,16.362,0,1,1,0,32.724Z"/><path d="M301.524,301.182A87.678,87.678,0,1,0,389.2,388.86,87.777,87.777,0,0,0,301.524,301.182Zm0,163.356A75.678,75.678,0,1,1,377.2,388.86,75.763,75.763,0,0,1,301.524,464.538Z"/><path d="M333.312,390H303V347.993a6,6,0,1,0-12,0v47.68A6.274,6.274,0,0,0,296.983,402h36.329a6,6,0,0,0,0-12Z"/><path d="M302,274.633V264h15.115c3.314,0,5.885-2.208,5.885-5.521v-51.36A6.006,6.006,0,0,0,317.115,201H123.2a6.28,6.28,0,0,0-6.2,6.119V254H102.24c-3.313,0-6.24,2.214-6.24,5.527v51.361A6.307,6.307,0,0,0,102.24,317H117v41H102.24A6.512,6.512,0,0,0,96,364.345v51.36a6.467,6.467,0,0,0,6.24,6.3h89.868a114.342,114.342,0,0,0,109.416,81.244c62.99,0,114.16-51.32,114.16-114.31A114.3,114.3,0,0,0,302,274.633ZM163,357V318h20v39Zm30-91v39H174V266Zm31.162,39H205V266h20v38.441C224,304.589,224.323,305,224.162,305ZM258,252V213h19v39Zm-12,0H226V213h20Zm-32,0H195V213h19Zm-31,0H163V213h20Zm-21,14v39H142V266Zm-11,91H129V318h22Zm11,13v40H142V370Zm33-21.647V318h17.038A106.078,106.078,0,0,0,195,348.353ZM237,266h19v18.06a102.308,102.308,0,0,0-19,10.834Zm31,0h22v9.189a120.936,120.936,0,0,0-22,4.432Zm43-14H289V213h22ZM129,213h22v39H129Zm-21,53h22v39H108Zm0,104h22v40H108Zm66,40V370h14.8a118.358,118.358,0,0,0-1.508,18.835A120.039,120.039,0,0,0,189.2,410Zm127.524,81.1A102.236,102.236,0,1,1,403.76,388.86,102.352,102.352,0,0,1,301.524,491.1Z"/></svg>
