<?xml version="1.0"?>
<svg xmlns="http://www.w3.org/2000/svg" id="Layer_1" data-name="Layer 1" viewBox="0 0 512 512" width="512" height="512"><title>Email</title><path d="M20.087,298H295.1a28.576,28.576,0,0,0,15.2,22.985l6.351,3.1a15.59,15.59,0,0,1,6.984,6.926l3.156,6.324a29.687,29.687,0,0,0,5.2,7.176V478.185a6.061,6.061,0,0,0,9.714,4.772L391.15,445.3l49.429,37.656a6.009,6.009,0,0,0,3.641,1.228,5.544,5.544,0,0,0,2.553-.624A5.9,5.9,0,0,0,450,478.185V344.5a30.391,30.391,0,0,0,5.368-7.2l3.264-6.35a15.758,15.758,0,0,1,7.012-6.984l6.364-3.208a27.82,27.82,0,0,0,15.236-26.351l-.393-7.2a15.908,15.908,0,0,1,2.588-9.571l3.88-5.885a27.776,27.776,0,0,0,0-30.616l-3.879-5.883a15.921,15.921,0,0,1-2.587-9.572l.4-7.2a27.813,27.813,0,0,0-15.229-26.35l-6.351-3.209a15.707,15.707,0,0,1-6.984-6.982l-3.208-6.352a27.632,27.632,0,0,0-26.221-15.228L423,160.71V33.815A6.075,6.075,0,0,0,416.739,28H20.087A5.92,5.92,0,0,0,14,33.815V291.554C14,294.868,16.773,298,20.087,298ZM411,157.1l-4.4-2.814a27.887,27.887,0,0,0-30.68,0L370,158.167a15.966,15.966,0,0,1-9.586,2.587l-7.211-.4a27.8,27.8,0,0,0-26.355,15.228l-3.21,6.351a15.7,15.7,0,0,1-4.871,5.7l-28.025-27.4L411,47.985ZM295.075,218.479l.4,7.2a15.922,15.922,0,0,1-2.586,9.571l-3.88,5.884a27.778,27.778,0,0,0,0,30.617l3.879,6.106a16.116,16.116,0,0,1,2.579,8.14H34.951L157.17,170.711,214.316,224a5.93,5.93,0,0,0,4.1,1.56,6.014,6.014,0,0,0,4.1-1.644l59.327-55.454,25.886,25.183A27.788,27.788,0,0,0,295.075,218.479Zm-76.662-7.007L34.9,40H401.906ZM148.3,162.278,26,277.417V48.01ZM344,351.51a29.63,29.63,0,0,0,9.351,1.023l1.649-.077V458.079l-11,7.991Zm43.73,81.476L367,448.936v-95.9a20.093,20.093,0,0,1,3.175,1.685l5.783,3.879a27.647,27.647,0,0,0,30.538,0l6-3.88a22.657,22.657,0,0,1,3.5-1.68v95.893l-20.965-15.95A6.047,6.047,0,0,0,387.73,432.986ZM438,466.07l-10-7.991V352.456l1.149.077A26.586,26.586,0,0,0,438,351.506Zm-8.212-293.731A15.833,15.833,0,0,1,444.769,181l3.208,6.352a27.623,27.623,0,0,0,12.283,12.282l6.351,3.209a15.812,15.812,0,0,1,8.658,14.98l-.4,7.2a28,28,0,0,0,4.551,16.837l3.88,5.884a15.793,15.793,0,0,1,0,17.4l-3.881,5.885a28,28,0,0,0-4.55,16.836l.4,7.2a15.813,15.813,0,0,1-8.659,14.981l-6.349,3.208a27.627,27.627,0,0,0-12.284,12.283l-3.208,6.352a15.816,15.816,0,0,1-14.981,8.657l-7.2-.4a27.981,27.981,0,0,0-16.836,4.55l-5.885,3.879a15.787,15.787,0,0,1-17.4,0l-5.885-3.878a28.006,28.006,0,0,0-15.339-4.592q-.749,0-1.5.041l-7.2.4a15.816,15.816,0,0,1-14.98-8.657l-3.208-6.352a27.637,27.637,0,0,0-12.284-12.283l-6.351-3.208a15.811,15.811,0,0,1-8.657-14.981l.4-7.2a28,28,0,0,0-4.551-16.837l-3.88-5.883a15.794,15.794,0,0,1,0-17.405l3.881-5.885a28,28,0,0,0,4.55-16.836l-.4-7.2a15.809,15.809,0,0,1,8.658-14.98l6.349-3.209a27.625,27.625,0,0,0,12.285-12.283L337.558,181a15.821,15.821,0,0,1,14.98-8.658l7.2.4a27.93,27.93,0,0,0,16.836-4.55l5.885-3.88a15.793,15.793,0,0,1,17.4,0l5.885,3.88a27.966,27.966,0,0,0,16.837,4.55Z"/><path d="M313.4,256.445a77.763,77.763,0,1,0,77.763-77.763A77.851,77.851,0,0,0,313.4,256.445Zm143.526,0a65.763,65.763,0,1,1-65.763-65.763A65.837,65.837,0,0,1,456.926,256.445Z"/><path d="M385.782,211.459l-12.042,24.4-26.928,3.913a6,6,0,0,0-3.325,10.234L362.972,269l-4.6,26.818a6,6,0,0,0,8.706,6.326l24.085-12.663,24.085,12.663a6,6,0,0,0,8.706-6.326L419.354,269l19.485-18.994a6,6,0,0,0-3.325-10.234l-26.928-3.913-12.042-24.4a6,6,0,0,0-10.762,0ZM399.221,244a6,6,0,0,0,4.517,3.282l18.019,2.618-13.038,12.709a6,6,0,0,0-1.726,5.311l3.078,17.946-16.116-8.473a6,6,0,0,0-5.584,0l-16.116,8.473,3.078-17.946a6,6,0,0,0-1.726-5.311L360.569,249.9l18.019-2.618A6,6,0,0,0,383.105,244l8.058-16.328Z"/></svg>
