<svg height="475pt" viewBox="-9 0 475 475.67814" width="475pt" xmlns="http://www.w3.org/2000/svg"><path d="m365.691406 0c-30.25-.0390625-58.5625 14.886719-75.628906 39.863281-17.066406 24.976563-20.679688 56.777344-9.648438 84.945313 3.242188 8.28125 7.691407 16.035156 13.199219 23.015625l-12.890625 30.011719c-.796875 1.855468-.609375 3.984374.5 5.667968 1.109375 1.6875 2.992188 2.699219 5.011719 2.699219.347656 0 .691406-.027344 1.035156-.089844l48-8.414062c9.691407 3.457031 19.902344 5.21875 30.191407 5.214843 32.738281.140626 63.058593-17.230468 79.492187-45.546874 16.4375-28.316407 16.480469-63.257813.121094-91.617188-16.363281-28.359375-46.636719-45.8085938-79.378907-45.75zm-.234375 170.914062c-9.382812.011719-18.691406-1.683593-27.46875-5.007812-1.015625-.390625-2.117187-.496094-3.191406-.308594l-38.675781 6.78125 9.960937-23.1875c.910157-2.113281.53125-4.5625-.976562-6.300781-5.746094-6.667969-10.316407-14.265625-13.519531-22.464844-12.714844-32.46875-2.777344-69.429687 24.503906-91.144531 27.28125-21.710938 65.53125-23.101562 94.316406-3.429688 28.785156 19.675782 41.382812 55.816407 31.0625 89.121094-10.320312 33.304688-41.144531 55.988282-76.011719 55.9375zm0 0"/><path d="m76.136719 166.367188c-.261719 2.667968-.464844 22.476562-.464844 22.667968v27.757813c0 37.832031 30.671875 68.5 68.5 68.5 37.832031 0 68.5-30.667969 68.5-68.5v-43.585938c.042969-22.691406-11.175781-43.921875-29.945313-56.675781 4.601563-16.257812-1.539062-33.652344-15.328124-43.425781-13.789063-9.769531-32.234376-9.792969-46.050782-.0625s-20.003906 27.109375-15.449218 43.382812c-16.871094 11.378907-27.78125 29.691407-29.761719 49.941407zm68.035156 106.921874c-31.1875-.035156-56.464844-25.308593-56.5-56.5v-23.351562c3.167969.667969 6.390625 1.015625 9.625 1.039062 14.410156 0 27.945313-4.476562 37.992187-12.613281 4.496094-3.585937 8.269532-7.988281 11.125-12.980469 2.847657 4.992188 6.617188 9.394532 11.105469 12.980469 10.050781 8.136719 23.402344 12.613281 37.8125 12.613281 1.800781.03125 3.597657-.179687 5.339844-.621093v22.933593c-.035156 31.191407-25.308594 56.464844-56.5 56.5zm-27.734375-167.832031c-.003906-10.609375 5.992188-20.308593 15.480469-25.050781 9.492187-4.738281 20.847656-3.707031 29.324219 2.667969 8.480468 6.375 12.628906 16.996093 10.710937 27.429687-17.542969-7.699218-37.503906-7.726562-55.070313-.078125-.292968-1.640625-.445312-3.304687-.445312-4.96875zm27.863281 11.253907c31.164063.042968 56.394531 25.332031 56.371094 56.496093v8.296875c-1.726563.554688-3.519531.882813-5.332031.980469-24.113282 0-42.234375-14.535156-42.234375-33.800781.011719-1.585938-.605469-3.109375-1.722657-4.238282-1.113281-1.125-2.632812-1.757812-4.21875-1.761718h-1.4375c-3.316406 0-6 2.6875-6 6 0 19.269531-18.1875 33.800781-42.300781 33.800781-3.191406-.066406-6.363281-.515625-9.449219-1.335937.050782-5.753907.070313-12.472657.167969-13.59375 2.773438-28.910157 27.113281-50.949219 56.15625-50.84375zm0 0"/><path d="m217.601562 298.679688h-146.335937c-20.023437.046874-39.101563 8.539062-52.539063 23.386718-13.4375 14.84375-19.992187 34.671875-18.054687 54.601563v92.6875c-.03125 3.375 2.613281 6.167969 5.980469 6.324219h275.542968c3.46875-.113282 6.28125-2.855469 6.476563-6.324219v-92.6875c1-19.808594-4.855469-39.730469-18.210937-54.507813-13.539063-14.90625-32.722657-23.429687-52.859376-23.480468zm-83.929687 50.351562h21.542969l13.171875 64.574219-23.84375 20.125-22.335938-20.066407zm20.800781-12.351562h-20.097656l-6.054688-26h32.210938zm121.988282 39.085937c-.019532.203125.210937.402344.210937.605469v87.308594h-264v-87.308594c0-.199219-.019531-.398438-.039063-.605469-1.6875-16.601563 3.71875-33.140625 14.890626-45.539063 11.167968-12.398437 27.054687-19.5 43.742187-19.546874h44.734375l6.988281 30.269531c-.109375.320312-.191406.648437-.25.980469l-12.882812 72.648437c-.464844 2.113281.238281 4.316406 1.847656 5.765625l28.710937 25.800781c2.226563 2.003907 5.589844 2.058594 7.878907.125l30.558593-25.792969c1.675782-1.414062 2.445313-3.632812 2.007813-5.78125l-14.867187-72.859374c-.039063-.199219-.113282-.5-.171876-.699219l7.027344-30.457031h44.753906c16.707032.039062 32.625 7.128906 43.832032 19.519531 11.207031 12.394531 16.664062 28.9375 15.03125 45.566406zm0 0"/><path d="m365.1875 54.027344c9.121094.011718 16.511719 7.402344 16.519531 16.519531 0 3.3125 2.6875 6 6 6 3.316407 0 6-2.6875 6-6-.015625-13.628906-9.660156-25.347656-23.035156-27.984375v-8.882812c0-3.316407-2.683594-6-6-6-3.3125 0-6 2.683593-6 6v9.105468c-14.097656 3.308594-23.476563 16.660156-21.8125 31.042969 1.664063 14.386719 13.847656 25.242187 28.328125 25.238281 9.125.003906 16.519531 7.398438 16.519531 16.523438 0 9.121094-7.394531 16.519531-16.519531 16.519531s-16.519531-7.398437-16.519531-16.519531c0-3.316406-2.6875-6-6-6s-6 2.683594-6 6c.019531 13.230468 9.125 24.71875 22.003906 27.757812v9.332032c0 3.3125 2.6875 6 6 6 3.316406 0 6-2.6875 6-6v-9.101563c14.410156-2.824219 24.316406-16.128906 22.898437-30.742187-1.417968-14.613282-13.699218-25.761719-28.382812-25.761719-5.929688.046875-11.433594-3.09375-14.414062-8.222657-2.980469-5.132812-2.980469-11.464843 0-16.597656 2.980468-5.128906 8.484374-8.269531 14.414062-8.222656zm0 0"/></svg>