<?xml version="1.0"?>
<svg xmlns="http://www.w3.org/2000/svg" id="Layer_1" data-name="Layer 1" viewBox="0 0 512 512" width="512" height="512"><title>Timer</title><path d="M256,137.356c-87.287,0-158.3,71.013-158.3,158.3s71.014,158.3,158.3,158.3,158.3-71.013,158.3-158.3S343.287,137.356,256,137.356ZM369.058,302h33.11a147.133,147.133,0,0,1-38.616,92.9l-23.366-23.453a5.977,5.977,0,1,0-8.485,8.421l23.365,23.355A145.725,145.725,0,0,1,262,441.824v-33.11a6,6,0,1,0-12,0v33.11a145.74,145.74,0,0,1-93.067-38.616L180.3,379.843a6,6,0,0,0-8.485-8.486L148.448,394.9A147.133,147.133,0,0,1,109.832,302h33.11a6,6,0,0,0,0-12h-33.11a145.8,145.8,0,0,1,38.616-93.239l23.366,23.281a5.938,5.938,0,0,0,4.243,1.714,6.027,6.027,0,0,0,4.242-10.275L156.933,188.11A145.751,145.751,0,0,1,250,149.489V182.6a6,6,0,0,0,12,0v-33.11A145.745,145.745,0,0,1,355.067,188.1L331.7,211.47a6,6,0,0,0,8.485,8.486l23.366-23.195A145.8,145.8,0,0,1,402.168,290h-33.11a6,6,0,0,0,0,12Z"/><path d="M293,99.4V59h13.833A6.438,6.438,0,0,0,313,52.667v-30c0-3.314-2.854-5.667-6.167-5.667H205.167C201.854,17,199,19.353,199,22.667v30A6.438,6.438,0,0,0,205.167,59H219V99.4C127,116.732,56.24,198.136,56.24,295.656c0,110.1,89.616,199.677,199.718,199.677s199.781-89.574,199.781-199.677C455.739,198.136,385,116.732,293,99.4ZM211,29h90V47H211Zm20,30h50V97.522a203.3,203.3,0,0,0-50,0Zm25,424.333c-103.485,0-187.677-84.191-187.677-187.677,0-92.763,67.654-170.01,156.208-185.024a6.07,6.07,0,0,0,.636.035,5.978,5.978,0,0,0,2.5-.55,188.831,188.831,0,0,1,56.67,0,5.978,5.978,0,0,0,2.5.55,6.07,6.07,0,0,0,.636-.035c88.554,15.014,156.208,92.261,156.208,185.024C443.677,399.142,359.485,483.333,256,483.333Z"/><path d="M256,240.488a24.261,24.261,0,0,1,24.233,24.234,6,6,0,0,0,12,0A36.283,36.283,0,0,0,261,228.841V218a6,6,0,0,0-12,0v11.173a36.233,36.233,0,0,0,7,71.783,24.234,24.234,0,1,1-24.233,24.233,6,6,0,0,0-12,0A36.3,36.3,0,0,0,247,360.291V372a6,6,0,0,0,12,0V361.289a36.229,36.229,0,0,0-3-72.333,24.234,24.234,0,0,1,0-48.468Z"/></svg>
