<?xml version="1.0" encoding="iso-8859-1"?>
<!-- Generator: Adobe Illustrator 19.0.0, SVG Export Plug-In . SVG Version: 6.00 Build 0)  -->
<svg version="1.1" id="Capa_1" xmlns="http://www.w3.org/2000/svg" xmlns:xlink="http://www.w3.org/1999/xlink" x="0px" y="0px"
	 viewBox="0 0 512 512" style="enable-background:new 0 0 512 512;" xml:space="preserve">
<g>
	<g>
		<path d="M492.728,79.337H19.272C8.628,79.337,0,87.965,0,98.61v182.444c0,10.645,8.628,19.272,19.272,19.272h473.455
			c10.645,0,19.272-8.628,19.272-19.272V98.61C512,87.965,503.372,79.337,492.728,79.337z M473.455,261.782H38.545v-143.9h434.911
			V261.782z"/>
	</g>
</g>
<g>
	<g>
		<path d="M492.085,20.236c-10.645,0-19.272,8.628-19.272,19.272v432.984c0,10.645,8.628,19.272,19.272,19.272
			c10.645,0,19.272-8.621,19.272-19.272V39.508C511.358,28.863,502.73,20.236,492.085,20.236z"/>
	</g>
</g>
<g>
	<g>
		<path d="M19.272,20.236C8.628,20.236,0,28.863,0,39.508v432.984c0,10.645,8.628,19.272,19.272,19.272s19.272-8.621,19.272-19.272
			V39.508C38.545,28.863,29.917,20.236,19.272,20.236z"/>
	</g>
</g>
<g>
	<g>
		<rect x="236.407" y="98.61" width="38.544" height="183.087"/>
	</g>
</g>
<g>
	<g>
		<rect x="124.627" y="98.61" width="38.545" height="183.087"/>
	</g>
</g>
<g>
	<g>
		<rect x="354.61" y="98.61" width="38.545" height="183.087"/>
	</g>
</g>
<g>
	<g>
		<rect x="19.272" y="171.844" width="472.813" height="38.545"/>
	</g>
</g>
<g>
</g>
<g>
</g>
<g>
</g>
<g>
</g>
<g>
</g>
<g>
</g>
<g>
</g>
<g>
</g>
<g>
</g>
<g>
</g>
<g>
</g>
<g>
</g>
<g>
</g>
<g>
</g>
<g>
</g>
</svg>
