<svg height="465pt" viewBox="0 -23 465.0082 465" width="465pt" xmlns="http://www.w3.org/2000/svg"><path d="m457.5 221.003906h-143.5v-67.445312c.035156-2.324219-.957031-4.546875-2.707031-6.078125l-71.292969-61.132813v-28.34375h55.320312c3.007813.105469 5.804688-1.542968 7.171876-4.226562 1.363281-2.683594 1.050781-5.917969-.808594-8.285156l-12.304688-16.101563 12.304688-16.125c1.84375-2.496094 2.15625-5.8125.804687-8.609375-1.328125-2.769531-4.09375-4.5664062-7.167969-4.65234375h-63c-4.566406.18359375-8.207031 3.87890575-8.320312 8.44531275v78.011719l-70.167969 61.066406c-1.765625 1.507812-2.796875 3.707031-2.832031 6.03125v67.445312h-142.5c-4.417969 0-8.5 3.136719-8.5 7.554688v181c.199219 4.601562 3.898438 8.277344 8.5 8.445312h449c4.417969 0 7.5-4.027344 7.5-8.445312v-181c.097656-2.023438-.660156-3.992188-2.085938-5.429688-1.425781-1.433594-3.390624-2.207031-5.414062-2.125zm-217.5-205h39.167969l-6.210938 8.375c-2.183593 2.824219-2.183593 6.761719 0 9.585938l6.210938 8.039062h-39.167969zm44.859375 130h-104l51.550781-44.921875zm-15.859375 256h-72v-38.046875c0-19.882812 16.117188-36 36-36s36 16.117188 36 36zm180 0h-164v-38.046875c0-28.71875-23.28125-52-52-52s-52 23.28125-52 52v38.046875h-165v-165h143.5c4.417969 0 7.5-4.027344 7.5-8.445312v-66.554688h131v66.554688c.199219 4.601562 3.898438 8.277344 8.5 8.445312h142.5zm0 0"/><path d="m358 262.003906c0-4.417968-3.582031-8-8-8h-29c-4.417969 0-8 3.582032-8 8v37c0 4.417969 3.582031 8 8 8h29c4.417969 0 8-3.582031 8-8zm-29 8h13v21h-13zm0 0"/><path d="m420 262.003906c0-4.417968-3.582031-8-8-8h-29c-4.417969 0-8 3.582032-8 8v37c0 4.417969 3.582031 8 8 8h29c4.417969 0 8-3.582031 8-8zm-29 8h13v21h-13zm0 0"/><path d="m358 343.003906c0-4.417968-3.582031-8-8-8h-29c-4.417969 0-8 3.582032-8 8v37c0 4.417969 3.582031 8 8 8h29c4.417969 0 8-3.582031 8-8zm-29 8h13v21h-13zm0 0"/><path d="m420 343.003906c0-4.417968-3.582031-8-8-8h-29c-4.417969 0-8 3.582032-8 8v37c0 4.417969 3.582031 8 8 8h29c4.417969 0 8-3.582031 8-8zm-29 8h13v21h-13zm0 0"/><path d="m91 262.003906c0-4.417968-3.582031-8-8-8h-29c-4.417969 0-8 3.582032-8 8v37c0 4.417969 3.582031 8 8 8h29c4.417969 0 8-3.582031 8-8zm-16 29h-13v-21h13zm0 0"/><path d="m153 262.003906c0-4.417968-3.582031-8-8-8h-29c-4.417969 0-8 3.582032-8 8v37c0 4.417969 3.582031 8 8 8h29c4.417969 0 8-3.582031 8-8zm-16 29h-13v-21h13zm0 0"/><path d="m226 262.003906c0-4.417968-3.582031-8-8-8h-29c-4.417969 0-8 3.582032-8 8v37c0 4.417969 3.582031 8 8 8h29c4.417969 0 8-3.582031 8-8zm-16 29h-13v-21h13zm0 0"/><path d="m288 262.003906c0-4.417968-3.582031-8-8-8h-29c-4.417969 0-8 3.582032-8 8v37c0 4.417969 3.582031 8 8 8h29c4.417969 0 8-3.582031 8-8zm-16 29h-13v-21h13zm0 0"/><path d="m91 343.003906c0-4.417968-3.582031-8-8-8h-29c-4.417969 0-8 3.582032-8 8v37c0 4.417969 3.582031 8 8 8h29c4.417969 0 8-3.582031 8-8zm-16 29h-13v-21h13zm0 0"/><path d="m153 343.003906c0-4.417968-3.582031-8-8-8h-29c-4.417969 0-8 3.582032-8 8v37c0 4.417969 3.582031 8 8 8h29c4.417969 0 8-3.582031 8-8zm-16 29h-13v-21h13zm0 0"/></svg>