<svg id="Layer_1" height="512" viewBox="0 0 512 512" width="512" xmlns="http://www.w3.org/2000/svg" data-name="Layer 1"><path d="m357.069 47.9a6 6 0 0 0 -7.606-3.768l-97.463 32.859v-20.627a6.316 6.316 0 0 0 -5.994-6.364h-212.945a6.373 6.373 0 0 0 -6.061 6.364v399.272a6.373 6.373 0 0 0 6.061 6.364h212.945a6.316 6.316 0 0 0 5.994-6.364v-348.526l120.358 356.99a6 6 0 0 0 7.605 3.768l100.893-34.015a6 6 0 0 0 3.769-7.6zm-318.069 281.1h95v54h-95zm107 0h94v54h-94zm94-12h-94v-255h94zm-106-255v255h-95v-255zm-95 333h95v55h-95zm107 55v-55h94v55zm197.13-110.166 89.522-30.181 17.426 51.687-89.522 30.181zm4.484-282.413 81.2 240.861-89.514 30.181-81.207-240.863zm34.2 397.158-17.426-51.687 89.522-30.181 17.427 51.689z"/><path d="m340.27 183.494a33.074 33.074 0 1 0 -10.664 1.761 33.322 33.322 0 0 0 10.664-1.761zm-30.8-24.741a21.284 21.284 0 1 1 10.715 12.27 21.139 21.139 0 0 1 -10.716-12.27z"/><path d="m192.77 179.484a33.284 33.284 0 1 0 -33.284-33.284 33.321 33.321 0 0 0 33.284 33.284zm0-54.567a21.284 21.284 0 1 1 -21.284 21.283 21.307 21.307 0 0 1 21.284-21.283z"/><path d="m86.3 179.484a33.284 33.284 0 1 0 -33.287-33.284 33.322 33.322 0 0 0 33.287 33.284zm0-54.567a21.284 21.284 0 1 1 -21.287 21.283 21.307 21.307 0 0 1 21.287-21.283z"/></svg>