<svg height="490pt" viewBox="-147 0 490 490.3535" width="490pt" xmlns="http://www.w3.org/2000/svg"><path d="m166.445312.00390625h-136.535156c-1.527344-.06640625-3.011718.50390575-4.101562 1.57812475-1.085938 1.070313-1.679688 2.550781-1.632813 4.078125v108.34375h-17.597656c-3.3125 0-6.402344 2.375-6.402344 5.6875v273.0625c0 53.816406 44.183594 97.597656 98 97.597656 53.816407 0 98-43.78125 98-97.597656v-273.0625c0-3.3125-3.085937-5.6875-6.398437-5.6875h-17.601563v-108.34375c.046875-1.527344-.542969-3.007812-1.632812-4.078125-1.085938-1.074219-2.574219-1.644531-4.097657-1.57812475zm-130.269531 11.99999975h33v53.101563c0 3.3125 2.6875 6 6 6 3.316407 0 6-2.6875 6-6v-53.101563h34v53.101563c0 3.3125 2.6875 6 6 6 3.316407 0 6-2.6875 6-6v-53.101563h33v102h-124zm148 380.75c0 47.199219-38.800781 85.597656-86 85.597656s-86-38.398437-86-85.597656v-266.75h172zm0 0"/><path d="m98.175781 434.367188c17.851563 0 32.324219-14.46875 32.324219-32.320313s-14.472656-32.324219-32.324219-32.324219c-17.851562 0-32.320312 14.472656-32.320312 32.324219.019531 17.84375 14.480469 32.300781 32.320312 32.320313zm0-52.640626c11.226563 0 20.324219 9.097657 20.324219 20.320313 0 11.226563-9.101562 20.324219-20.324219 20.324219-11.222656-.003906-20.320312-9.101563-20.320312-20.324219.011719-11.21875 9.101562-20.308594 20.320312-20.320313zm0 0"/></svg>