<svg height="483pt" viewBox="0 -25 483.0085 483" width="483pt" xmlns="http://www.w3.org/2000/svg"><path d="m412 234.390625c0-4.417969-3.582031-8-8-8h-280c-4.417969 0-8 3.582031-8 8v108c0 4.417969 3.582031 8 8 8h280c4.417969 0 8-3.582031 8-8zm-234.523438 72.394531c-4.144531 0-7.5-3.359375-7.5-7.5 0-4.144531 3.355469-7.5 7.5-7.5 4.140626 0 7.5 3.355469 7.5 7.5-.003906 4.140625-3.359374 7.492188-7.5 7.5zm0 19.105469c6.128907.046875 11.796876 3.261719 14.980469 8.5h-29.957031c3.179688-5.238281 8.847656-8.453125 14.976562-8.5zm218.523438 8.5h-186.261719c-2.390625-8.109375-7.707031-15.046875-14.925781-19.457031 3.964844-4.285156 6.167969-9.910156 6.164062-15.746094-.019531-12.980469-10.558593-23.484375-23.535156-23.464844-12.980468.019532-23.484375 10.558594-23.464844 23.535156-.003906 5.8125 2.199219 11.410157 6.164063 15.664063-7.21875 4.414063-12.535156 11.355469-14.925781 19.46875h-13.214844v-92h264zm0 0"/><path d="m218.738281 268.390625h151.261719v41h-131.765625c-4.417969 0-8 3.582031-8 8s3.582031 8 8 8h139.855469c4.425781-.074219 7.960937-3.714844 7.910156-8.144531v-56.460938c0-4.417968-3.492188-8.394531-7.910156-8.394531h-159.351563c-4.417969 0-8 3.582031-8 8s3.582031 8 8 8zm0 0"/><path d="m475.5 377.390625h-27.5v-190.382813c10.675781-8.015624 18-20.777343 18-35.125v-61.824218c0-.480469-.058594-.980469-.058594-1.492188 0-25.097656-24.363281-47.992187-68.417968-64.460937-41.578126-15.546875-96.738282-24.10156275-155.234376-24.10156275-58.496093 0-113.632812 8.55859375-155.207031 24.10156275-42.722656 15.96875-67.042969 37.988281-68.464843 62.1875-.335938.792969-.542969 1.632812-.617188 2.492187v63.097656c0 14.347657 7.324219 27.109376 18 35.125v190.382813h-27.5c-4.59375.144531-8.296875 3.804687-8.5 8.394531v39c0 4.417969 4.082031 7.605469 8.5 7.605469h467c2.027344.070313 3.992188-.710937 5.417969-2.15625s2.179687-3.421875 2.082031-5.449219v-39c0-4.417968-3.082031-8.394531-7.5-8.394531zm-25.5-225.507813c0 15.464844-12.535156 28-28 28s-28-12.535156-28-28v-55.492187h56zm-357.34375-112.992187c39.832031-14.886719 92.953125-22.992187 149.582031-22.992187 56.628907 0 109.75 8.054687 149.578125 22.945312 31.414063 11.75 51.382813 26.546875 56.566406 41.546875h-134.394531c-.0625 0-.125.007813-.1875.011719-.0625 0-.125-.011719-.1875-.011719h-277.511719c5.175782-15 25.144532-29.75 56.554688-41.5zm285.34375 112.992187c0 15.464844-12.535156 28-28 28s-28-12.535156-28-28v-55.492187h56zm-128-55.492187h56v55.492187c0 15.464844-12.535156 28-28 28s-28-12.535156-28-28zm-72 0h56v55.492187c0 15.464844-12.535156 28-28 28s-28-12.535156-28-28zm-72 0h56v55.492187c0 15.464844-12.535156 28-28 28s-28-12.535156-28-28zm-72 0h56v55.492187c0 15.464844-12.535156 28-28 28s-28-12.535156-28-28zm18 98.160156c17.527344 4.25 35.867188-2.671875 46.207031-17.449219 8.207031 11.710938 21.605469 18.679688 35.902344 18.679688s27.695313-6.96875 35.898437-18.679688c8.203126 11.710938 21.605469 18.679688 35.898438 18.679688 14.296875 0 27.695312-6.96875 35.902344-18.679688 8.238281 11.757813 21.707031 18.734376 36.0625 18.683594 14.355468-.054687 27.777344-7.132812 35.925781-18.945312 8.152344 11.8125 21.570313 18.890625 35.925781 18.945312 14.355469.050782 27.828125-6.925781 36.066406-18.683594 10.339844 14.777344 28.683594 21.703126 46.210938 17.449219v182.839844h-380zm415 221.839844h-451v-23h451zm0 0"/></svg>