<svg height="488pt" viewBox="-10 0 488 488.00673" width="488pt" xmlns="http://www.w3.org/2000/svg"><path d="m451.980469 226c0-91.40625-55.0625-173.816406-139.511719-208.796875-84.453125-34.980469-181.65625-15.644531-246.292969 48.992187-78.027343 78.050782-88.273437 201.042969-24.234375 290.933594 64.039063 89.886719 183.632813 120.378906 282.890625 72.125l-2.082031 49.402344v.253906c-.011719 3.542969 2.039062 6.769532 5.246094 8.273438 3.199218 1.476562 6.96875.925781 9.613281-1.402344l44.371094-38.230469 44.386719 38.242188c1.632812 1.417969 3.71875 2.203125 5.878906 2.214843 1.285156-.003906 2.554687-.285156 3.722656-.824218 3.210938-1.5 5.257812-4.726563 5.25-8.273438 0-.082031 0-.167968 0-.253906l-4.210938-98.945312c35.882813-29.808594 41.378907-82.828126 12.371094-119.363282 1.730469-11.367187 2.601563-22.847656 2.601563-34.347656zm-440 0c0-86.554688 52.140625-164.585938 132.105469-197.710938 79.96875-33.121093 172.011718-14.8125 233.214843 46.390626 40.265625 40.046874 62.835938 94.535156 62.679688 151.320312-.003907 7.730469-.417969 15.457031-1.246094 23.140625-22.824219-20.015625-54.507813-26.519531-83.371094-17.109375-28.863281 9.414062-50.625 33.34375-57.257812 62.96875h-24.125v-7.378906c7-4.839844 13.136719-10.648438 20.1875-17.6875 17.222656-17.203125 29.984375-35.300782 37.726562-53.78125 10.738281-25.636719 11.285157-53.171875 1.453125-77.539063-3.5-8.675781-8.773437-16.160156-14.890625-21.070312-5.996093-5.046875-13.707031-7.589844-21.53125-7.089844-7.558593-16.238281-19.488281-28.839844-34.664062-36.558594-16.777344-8.539062-36.484375-10.214843-55.5-4.71875-30.230469 8.734375-55.167969 29-68.417969 55.582031-7.859375 15.886719-11.585938 33.5-10.828125 51.207032 1.882813 45.582031 27.464844 87.941406 65.464844 109.015625v10.019531h-23.320313c-16.933594-.019531-33.171875 6.714844-45.125 18.703125-11.949218 11.992187-18.628906 28.253906-18.554687 45.183594v44.050781c-11.140625-7.546875-21.550781-16.125-31.09375-25.617188-40.324219-40.019531-62.976563-94.503906-62.90625-151.320312zm193 74.746094v-19.882813c9.113281 3.703125 18.855469 5.601563 28.695312 5.589844h.417969c9.589844 0 19.078125-1.953125 27.886719-5.742187v21.136718c0 15.738282-12.757813 28.5-28.5 28.5-15.738281 0-28.5-12.761718-28.5-28.5zm-16.078125-44.707032c-12.089844-11.867187-18.90625-28.089843-18.921875-45.03125v-8.398437c15-2.179687 66.089843-13.695313 97.851562-68.070313 4.007813 1.0625 7.8125 2.78125 11.261719 5.085938 11.566406 7.691406 18.269531 20.859375 18.0625 35.214844l-.175781 6.800781v28.5c0 35.207031-28.214844 64.058594-62.933594 64.316406-16.910156.15625-33.171875-6.480469-45.144531-18.417969zm120.078125-74.3125.214843-6.710937c.269532-18.457031-8.453124-35.421875-23.429687-45.382813-6.011719-4.078124-12.871094-6.734374-20.0625-7.765624-2.464844-.339844-4.882813.882812-6.070313 3.066406-32.363281 59.230468-89.90625 65.773437-94 66.164062-4.203124.117188-7.570312 3.511719-7.652343 7.714844v12.195312c.027343 13.972657 3.953125 27.660157 11.332031 39.519532-18.140625-20.925782-28.644531-47.386719-29.800781-75.058594-.6875-15.679688 2.59375-31.28125 9.535156-45.359375 11.757813-23.589844 34.015625-41.601563 61.035156-49.40625 16.308594-4.714844 32.480469-3.371094 46.738281 3.886719 13.429688 6.832031 23.882813 18.300781 30.238282 33.164062l.410156 1.230469c.984375 2.949219 4.054688 4.65625 7.078125 3.9375 17-4.035156 26.078125 16.101563 27.722656 20.183594 8.644531 21.414062 8.167969 45.707031-1.34375 68.410156-5.117187 11.800781-11.816406 22.855469-19.90625 32.855469 5.28125-10.636719 8.007813-22.359375 7.960938-34.234375zm-191 228.84375v-51.683593c-.078125-13.746094 5.335937-26.960938 15.039062-36.699219 9.699219-9.742188 22.890625-15.210938 36.640625-15.1875h23.800782c2.480468 20.382812 19.78125 35.707031 40.3125 35.707031s37.832031-15.324219 40.316406-35.707031h22.199218c-.183593 2-.300781 4.464844-.300781 6.800781-.003906 25.503907 11.351563 49.683594 30.976563 65.972657l-1.542969 35.777343c-30.597656 16.070313-64.640625 24.464844-99.199219 24.46875-38.769531-.003906-76.242187-10.261719-108.242187-29.449219zm310.945312 61.585938-40.863281-35.207031c-3.402344-3.25-8.757812-3.25-12.160156 0l-40.867188 35.210937 2.214844-52.59375 1.367188-31.671875c26.773437 15.707031 59.949218 15.707031 86.722656 0zm-46.945312-84.480469c-40.867188 0-74-33.132812-74-74 0-40.867187 33.132812-74 74-74 40.871093 0 74 33.132813 74 74-.046875 40.851563-33.148438 73.953125-74 74zm0 0"/><path d="m419.046875 280.34375-48.683594 48.679688-25.429687-25.679688c-2.335938-2.328125-6.113282-2.335938-8.457032-.011719-2.34375 2.320313-2.375 6.097657-.070312 8.457031l29.675781 30.199219c1.097657 1.199219 2.621094 1.921875 4.246094 2.011719h.015625c1.621094-.085938 3.140625-.800781 4.242188-1.992188l52.945312-53.0625c2.34375-2.367187 2.34375-6.179687 0-8.542968-2.324219-2.359375-6.125-2.386719-8.484375-.058594zm0 0"/></svg>