<svg height="485pt" viewBox="0 -18 485.47556 485" width="485pt" xmlns="http://www.w3.org/2000/svg"><path d="m228.023438 352.144531c11.773437 11.765625 29.371093 15.496094 44.910156 9.519531 3.089844-1.191406 4.632812-4.660156 3.441406-7.753906s-4.664062-4.636718-7.753906-3.445312c-13.703125 5.28125-29.21875-.097656-36.714844-12.722656h27.835938c3.316406 0 6-2.6875 6-6 0-3.316407-2.683594-6-6-6h-31.839844c-.1875-1.660157-.234375-3.335938-.144532-5h35.984376c3.316406 0 6-2.6875 6-6 0-3.316407-2.683594-6-6-6h-32.769532c6.992188-13.757813 23.253906-19.992188 37.648438-14.4375 3.09375 1.191406 6.566406-.351563 7.757812-3.441407 1.191406-3.09375-.351562-6.566406-3.445312-7.757812-10.675782-4.109375-22.566406-3.699219-32.9375 1.136719-10.367188 4.832031-18.324219 13.675781-22.039063 24.5h-7.214843c-3.3125 0-6 2.683593-6 6 0 3.3125 2.6875 6 6 6h4.992187c-.019531.546874-.039063 1.097656-.039063 1.644531 0 1.125.054688 2.242187.144532 3.355469h-5.097656c-3.3125 0-6 2.683593-6 6 0 3.3125 2.6875 6 6 6h7.84375c2.113281 5.402343 5.328124 10.304687 9.4375 14.402343zm0 0"/><path d="m395.335938 291.046875c-1.085938-1.8125-3.039063-2.921875-5.152344-2.921875-2.109375 0-4.066406 1.109375-5.148438 2.921875l-30.441406 50.882813-103.851562-173.488282v-69.535156l7.550781 4.125c16.9375 9.1875 37.671875 7.679688 53.101562-3.863281 11.675781-8.730469 27.363281-9.867188 40.175781-2.917969l16.445313 8.949219c1.859375 1.011719 4.113281.96875 5.933594-.113281 1.816406-1.082032 2.933593-3.042969 2.933593-5.15625v-79.5c0-2.199219-1.203124-4.222657-3.132812-5.269532l-16.445312-8.953125c-16.945313-9.183593-37.683594-7.675781-53.117188 3.863281-11.679688 8.730469-27.367188 9.871094-40.183594 2.917969l-16.449218-8.949219c-1.851563-1.011718-4.101563-.964843-5.914063.117188-1.808594 1.085938-2.914063 3.046875-2.898437 5.15625v158.914062l-82.503907 137.738282-32.394531-54.074219c-1.085938-1.8125-3.042969-2.917969-5.152344-2.917969-2.113281 0-4.066406 1.105469-5.15625 2.917969l-112.683594 188.175781c-1.109374 1.78125-1.136718 4.027344-.070312 5.835938 1.085938 1.832031 3.089844 2.917968 5.21875 2.839844h293.175781c.546875 0 1.121094 1 1.710938 1h178.597656c2.191406-.109376 4.171875-1.351563 5.222656-3.277344 1.050781-1.929688 1.023438-4.261719-.074219-6.164063zm-5.148438 14.757813 26.542969 44.335937c-3.597657 1.753906-6.957031 3.964844-9.988281 6.578125-4.742188 3.800781-8.492188 6.792969-16.523438 6.792969s-11.78125-3-16.523438-6.792969c-3.046874-2.628906-6.421874-4.851562-10.042968-6.605469zm-139.445312-286.394532 7.550781 4.125c16.9375 9.183594 37.671875 7.679688 53.105469-3.859375 11.675781-8.734375 27.363281-9.875 40.175781-2.921875l13.3125 7.246094v65.832031l-7.578125-4.125c-16.945313-9.183593-37.683594-7.675781-53.121094 3.863281-11.667969 8.730469-27.347656 9.871094-40.15625 2.921876l-13.289062-7.246094zm-6.121094 162.261719 102.957031 171.800781-49.941406 83.269532h-62.960938l-71.472656-119.230469zm-125.941406 84.976563 35.769531 59.742187c-5.777344 2.296875-10.015625 5.683594-13.894531 8.785156-6.226563 4.980469-11.144532 8.917969-21.832032 8.917969-10.683594 0-15.597656-3.9375-21.832031-8.917969-3.890625-3.113281-8.152344-6.511719-13.964844-8.8125zm-42.042969 70.011718c5.105469 1.558594 8.707031 4.542969 12.757812 7.78125 6.765625 5.414063 14.433594 11.601563 29.328125 11.601563 14.894532 0 22.5625-6.109375 29.332032-11.523438 4.027343-3.222656 7.617187-6.207031 12.683593-7.773437l59.949219 100h-204.101562zm331.105469 101.082032v-1h-96.117188l45.800781-76.351563c3.324219 1.207031 5.820313 3.265625 8.777344 5.632813 5.25 4.199218 11.78125 9.457031 24.023437 9.457031 12.242188 0 18.773438-5.210938 24.019532-9.410157 2.585937-2.246093 5.535156-4.035156 8.726562-5.289062l45.929688 76.960938zm0 0"/></svg>