<?xml version="1.0"?>
<svg xmlns="http://www.w3.org/2000/svg" id="Layer_1" data-name="Layer 1" viewBox="0 0 512 512" width="512" height="512"><title>Wallet</title><path d="M396.5,214H360.17l25.309-47.945a5.723,5.723,0,0,0,.418-4.463,5.892,5.892,0,0,0-2.938-3.474L253.98,90.372a6,6,0,0,0-4.573-.4,5.673,5.673,0,0,0-3.529,2.725L182.023,214H121.346C99.421,214,82,232.278,82,254.2v197.64C82,473.769,99.421,492,121.346,492H396.5c21.925,0,39.5-18.231,39.5-40.156V254.2C436,232.278,418.42,214,396.5,214ZM253.71,103.593l118.355,62.081L346.614,214H335.345l5.328-9.919a5.87,5.87,0,0,0-2.276-7.856c-10.055-5.9-12.687-18.7-6.4-31.214a5.969,5.969,0,0,0-2.57-7.978l-44.162-23.192a6,6,0,0,0-8.051,2.431c-6.748,12.3-18.491,17.192-29.23,12.178a5.914,5.914,0,0,0-7.85,2.426L206.849,214H195.58Zm73.917,99.518L321.789,214H220.4l27.915-52.9c13.361,3.634,27.189-1.683,36.253-14.159l34.391,18.016C313.893,179.465,317.258,194.177,327.627,203.111ZM396.5,480H121.346C106.037,480,94,467.152,94,451.844V254.2C94,238.9,106.037,226,121.346,226H396.5c15.309,0,27.5,12.9,27.5,28.2V285H371.542A39.656,39.656,0,0,0,332,324.805v56.437A39.616,39.616,0,0,0,371.542,421H424v30.844C424,467.152,411.8,480,396.5,480ZM424,297V409H371.542A27.6,27.6,0,0,1,344,381.242V324.805A27.642,27.642,0,0,1,371.542,297Z"/><path d="M385,378.8a6,6,0,0,0,6-6V333.246a6,6,0,0,0-12,0V372.8A6,6,0,0,0,385,378.8Z"/><path d="M143.461,155.831A67.719,67.719,0,1,0,75.742,88.112,67.8,67.8,0,0,0,143.461,155.831Zm0-123.437A55.719,55.719,0,1,1,87.742,88.112,55.781,55.781,0,0,1,143.461,32.394Z"/><path d="M144.023,116.094A5.942,5.942,0,0,0,143,116a6.032,6.032,0,0,0-.715.047,9.994,9.994,0,0,1-8.807-9.908,6,6,0,0,0-12,0A22.02,22.02,0,0,0,137,127.152V131a6,6,0,0,0,12,0v-3.586a21.984,21.984,0,0,0-5.539-43.259,9.978,9.978,0,0,1-2.69-19.588,5.948,5.948,0,0,0,4.8-.15,10,10,0,0,1,7.877,9.755,6,6,0,0,0,12,0A22.022,22.022,0,0,0,149,52.9V50a6,6,0,0,0-12,0v3.159a21.984,21.984,0,0,0,6.461,43,9.977,9.977,0,0,1,.562,19.939Z"/></svg>
