<svg height="495pt" viewBox="0 -31 495 495" width="495pt" xmlns="http://www.w3.org/2000/svg"><path d="m207.015625 51h24c4.417969 0 8-3.578125 8-8 0-4.417969-3.582031-8-8-8h-24c-4.417969 0-8 3.582031-8 8 0 4.421875 3.582031 8 8 8zm0 0"/><path d="m260.015625 51h24c4.417969 0 8-3.578125 8-8 0-4.417969-3.582031-8-8-8h-24c-4.417969 0-8 3.582031-8 8 0 4.421875 3.582031 8 8 8zm0 0"/><path d="m207.015625 86h24c4.417969 0 8-3.578125 8-8 0-4.417969-3.582031-8-8-8h-24c-4.417969 0-8 3.582031-8 8 0 4.421875 3.582031 8 8 8zm0 0"/><path d="m260.015625 86h24c4.417969 0 8-3.578125 8-8 0-4.417969-3.582031-8-8-8h-24c-4.417969 0-8 3.582031-8 8 0 4.421875 3.582031 8 8 8zm0 0"/><path d="m207.015625 122h24c4.417969 0 8-3.578125 8-8 0-4.417969-3.582031-8-8-8h-24c-4.417969 0-8 3.582031-8 8 0 4.421875 3.582031 8 8 8zm0 0"/><path d="m260.015625 122h24c4.417969 0 8-3.578125 8-8 0-4.417969-3.582031-8-8-8h-24c-4.417969 0-8 3.582031-8 8 0 4.421875 3.582031 8 8 8zm0 0"/><path d="m207.015625 157h24c4.417969 0 8-3.578125 8-8 0-4.417969-3.582031-8-8-8h-24c-4.417969 0-8 3.582031-8 8 0 4.421875 3.582031 8 8 8zm0 0"/><path d="m260.015625 157h24c4.417969 0 8-3.578125 8-8 0-4.417969-3.582031-8-8-8h-24c-4.417969 0-8 3.582031-8 8 0 4.421875 3.582031 8 8 8zm0 0"/><path d="m207.015625 193h24c4.417969 0 8-3.578125 8-8 0-4.417969-3.582031-8-8-8h-24c-4.417969 0-8 3.582031-8 8 0 4.421875 3.582031 8 8 8zm0 0"/><path d="m260.015625 193h24c4.417969 0 8-3.578125 8-8 0-4.417969-3.582031-8-8-8h-24c-4.417969 0-8 3.582031-8 8 0 4.421875 3.582031 8 8 8zm0 0"/><path d="m207.015625 228h24c4.417969 0 8-3.578125 8-8 0-4.417969-3.582031-8-8-8h-24c-4.417969 0-8 3.582031-8 8 0 4.421875 3.582031 8 8 8zm0 0"/><path d="m260.015625 228h24c4.417969 0 8-3.578125 8-8 0-4.417969-3.582031-8-8-8h-24c-4.417969 0-8 3.582031-8 8 0 4.421875 3.582031 8 8 8zm0 0"/><path d="m207.015625 264h24c4.417969 0 8-3.578125 8-8 0-4.417969-3.582031-8-8-8h-24c-4.417969 0-8 3.582031-8 8 0 4.421875 3.582031 8 8 8zm0 0"/><path d="m260.015625 264h24c4.417969 0 8-3.578125 8-8 0-4.417969-3.582031-8-8-8h-24c-4.417969 0-8 3.582031-8 8 0 4.421875 3.582031 8 8 8zm0 0"/><path d="m207.015625 299h24c4.417969 0 8-3.578125 8-8 0-4.417969-3.582031-8-8-8h-24c-4.417969 0-8 3.582031-8 8 0 4.421875 3.582031 8 8 8zm0 0"/><path d="m260.015625 299h24c4.417969 0 8-3.578125 8-8 0-4.417969-3.582031-8-8-8h-24c-4.417969 0-8 3.582031-8 8 0 4.421875 3.582031 8 8 8zm0 0"/><path d="m207.015625 335h24c4.417969 0 8-3.578125 8-8 0-4.417969-3.582031-8-8-8h-24c-4.417969 0-8 3.582031-8 8 0 4.421875 3.582031 8 8 8zm0 0"/><path d="m260.015625 335h24c4.417969 0 8-3.578125 8-8 0-4.417969-3.582031-8-8-8h-24c-4.417969 0-8 3.582031-8 8 0 4.421875 3.582031 8 8 8zm0 0"/><path d="m207.015625 370h24c4.417969 0 8-3.578125 8-8 0-4.417969-3.582031-8-8-8h-24c-4.417969 0-8 3.582031-8 8 0 4.421875 3.582031 8 8 8zm0 0"/><path d="m260.015625 370h24c4.417969 0 8-3.578125 8-8 0-4.417969-3.582031-8-8-8h-24c-4.417969 0-8 3.582031-8 8 0 4.421875 3.582031 8 8 8zm0 0"/><path d="m98.078125 70h-24c-4.417969 0-8 3.582031-8 8 0 4.421875 3.582031 8 8 8h24c4.417969 0 8-3.578125 8-8 0-4.417969-3.582031-8-8-8zm0 0"/><path d="m98.078125 106h-24c-4.417969 0-8 3.582031-8 8 0 4.421875 3.582031 8 8 8h24c4.417969 0 8-3.578125 8-8 0-4.417969-3.582031-8-8-8zm0 0"/><path d="m127.078125 122h24c4.417969 0 8-3.578125 8-8 0-4.417969-3.582031-8-8-8h-24c-4.417969 0-8 3.582031-8 8 0 4.421875 3.582031 8 8 8zm0 0"/><path d="m98.078125 141h-24c-4.417969 0-8 3.582031-8 8 0 4.421875 3.582031 8 8 8h24c4.417969 0 8-3.578125 8-8 0-4.417969-3.582031-8-8-8zm0 0"/><path d="m151.078125 141h-24c-4.417969 0-8 3.582031-8 8 0 4.421875 3.582031 8 8 8h24c4.417969 0 8-3.578125 8-8 0-4.417969-3.582031-8-8-8zm0 0"/><path d="m98.078125 177h-24c-4.417969 0-8 3.582031-8 8 0 4.421875 3.582031 8 8 8h24c4.417969 0 8-3.578125 8-8 0-4.417969-3.582031-8-8-8zm0 0"/><path d="m151.078125 177h-24c-4.417969 0-8 3.582031-8 8 0 4.421875 3.582031 8 8 8h24c4.417969 0 8-3.578125 8-8 0-4.417969-3.582031-8-8-8zm0 0"/><path d="m98.078125 212h-24c-4.417969 0-8 3.582031-8 8 0 4.421875 3.582031 8 8 8h24c4.417969 0 8-3.578125 8-8 0-4.417969-3.582031-8-8-8zm0 0"/><path d="m151.078125 212h-24c-4.417969 0-8 3.582031-8 8 0 4.421875 3.582031 8 8 8h24c4.417969 0 8-3.578125 8-8 0-4.417969-3.582031-8-8-8zm0 0"/><path d="m98.078125 248h-24c-4.417969 0-8 3.582031-8 8 0 4.421875 3.582031 8 8 8h24c4.417969 0 8-3.578125 8-8 0-4.417969-3.582031-8-8-8zm0 0"/><path d="m151.078125 248h-24c-4.417969 0-8 3.582031-8 8 0 4.421875 3.582031 8 8 8h24c4.417969 0 8-3.578125 8-8 0-4.417969-3.582031-8-8-8zm0 0"/><path d="m98.078125 283h-24c-4.417969 0-8 3.582031-8 8 0 4.421875 3.582031 8 8 8h24c4.417969 0 8-3.578125 8-8 0-4.417969-3.582031-8-8-8zm0 0"/><path d="m151.078125 283h-24c-4.417969 0-8 3.582031-8 8 0 4.421875 3.582031 8 8 8h24c4.417969 0 8-3.578125 8-8 0-4.417969-3.582031-8-8-8zm0 0"/><path d="m98.078125 319h-24c-4.417969 0-8 3.582031-8 8 0 4.421875 3.582031 8 8 8h24c4.417969 0 8-3.578125 8-8 0-4.417969-3.582031-8-8-8zm0 0"/><path d="m151.078125 319h-24c-4.417969 0-8 3.582031-8 8 0 4.421875 3.582031 8 8 8h24c4.417969 0 8-3.578125 8-8 0-4.417969-3.582031-8-8-8zm0 0"/><path d="m98.078125 354h-24c-4.417969 0-8 3.582031-8 8 0 4.421875 3.582031 8 8 8h24c4.417969 0 8-3.578125 8-8 0-4.417969-3.582031-8-8-8zm0 0"/><path d="m151.078125 354h-24c-4.417969 0-8 3.582031-8 8 0 4.421875 3.582031 8 8 8h24c4.417969 0 8-3.578125 8-8 0-4.417969-3.582031-8-8-8zm0 0"/><path d="m340.015625 161h24c4.417969 0 8-3.578125 8-8 0-4.417969-3.582031-8-8-8h-24c-4.417969 0-8 3.582031-8 8 0 4.421875 3.582031 8 8 8zm0 0"/><path d="m393.015625 161h24c4.417969 0 8-3.578125 8-8 0-4.417969-3.582031-8-8-8h-24c-4.417969 0-8 3.582031-8 8 0 4.421875 3.582031 8 8 8zm0 0"/><path d="m340.015625 196h24c4.417969 0 8-3.578125 8-8 0-4.417969-3.582031-8-8-8h-24c-4.417969 0-8 3.582031-8 8 0 4.421875 3.582031 8 8 8zm0 0"/><path d="m393.015625 196h24c4.417969 0 8-3.578125 8-8 0-4.417969-3.582031-8-8-8h-24c-4.417969 0-8 3.582031-8 8 0 4.421875 3.582031 8 8 8zm0 0"/><path d="m340.015625 231h24c4.417969 0 8-3.578125 8-8 0-4.417969-3.582031-8-8-8h-24c-4.417969 0-8 3.582031-8 8 0 4.421875 3.582031 8 8 8zm0 0"/><path d="m393.015625 231h24c4.417969 0 8-3.578125 8-8 0-4.417969-3.582031-8-8-8h-24c-4.417969 0-8 3.582031-8 8 0 4.421875 3.582031 8 8 8zm0 0"/><path d="m340.015625 266h24c4.417969 0 8-3.578125 8-8 0-4.417969-3.582031-8-8-8h-24c-4.417969 0-8 3.582031-8 8 0 4.421875 3.582031 8 8 8zm0 0"/><path d="m393.015625 266h24c4.417969 0 8-3.578125 8-8 0-4.417969-3.582031-8-8-8h-24c-4.417969 0-8 3.582031-8 8 0 4.421875 3.582031 8 8 8zm0 0"/><path d="m340.015625 300h24c4.417969 0 8-3.578125 8-8 0-4.417969-3.582031-8-8-8h-24c-4.417969 0-8 3.582031-8 8 0 4.421875 3.582031 8 8 8zm0 0"/><path d="m393.015625 300h24c4.417969 0 8-3.578125 8-8 0-4.417969-3.582031-8-8-8h-24c-4.417969 0-8 3.582031-8 8 0 4.421875 3.582031 8 8 8zm0 0"/><path d="m340.015625 335h24c4.417969 0 8-3.578125 8-8 0-4.417969-3.582031-8-8-8h-24c-4.417969 0-8 3.582031-8 8 0 4.421875 3.582031 8 8 8zm0 0"/><path d="m393.015625 335h24c4.417969 0 8-3.578125 8-8 0-4.417969-3.582031-8-8-8h-24c-4.417969 0-8 3.582031-8 8 0 4.421875 3.582031 8 8 8zm0 0"/><path d="m340.015625 370h24c4.417969 0 8-3.578125 8-8 0-4.417969-3.582031-8-8-8h-24c-4.417969 0-8 3.582031-8 8 0 4.421875 3.582031 8 8 8zm0 0"/><path d="m393.015625 370h24c4.417969 0 8-3.578125 8-8 0-4.417969-3.582031-8-8-8h-24c-4.417969 0-8 3.582031-8 8 0 4.421875 3.582031 8 8 8zm0 0"/><path d="m487.5 386h-34.5v-270c.003906-2.117188-.835938-4.152344-2.332031-5.652344-1.5-1.5-3.53125-2.34375-5.652344-2.347656h-125.015625v-100c.003906-2.117188-.835938-4.152344-2.332031-5.652344-1.5-1.5-3.53125-2.34374975-5.652344-2.347656h-133c-4.421875 0-8.007813 3.582031-8.015625 8v47.585938l-121.640625-54.875c-2.484375-1.121094-5.363281-.90625-7.65625.566406-2.292969 1.46875-3.683594 4-3.703125 6.722656v378h-29.5c-4.417969 0-8.5 3.582031-8.5 8v30c0 4.417969 4.082031 8 8.5 8h479c4.417969 0 7.5-3.582031 7.5-8v-30c0-4.417969-3.082031-8-7.5-8zm-50.5-262v262h-117v-262zm-133-108v370h-117v-370zm-250 4.386719 117 52.753906v312.859375h-117zm425 395.613281h-463v-14h463zm0 0"/></svg>