<?xml version="1.0" encoding="iso-8859-1"?>
<!-- Generator: Adobe Illustrator 19.0.0, SVG Export Plug-In . SVG Version: 6.00 Build 0)  -->
<svg version="1.1" id="Capa_1" xmlns="http://www.w3.org/2000/svg" xmlns:xlink="http://www.w3.org/1999/xlink" x="0px" y="0px"
	 viewBox="0 0 511.995 511.995" style="enable-background:new 0 0 511.995 511.995;" xml:space="preserve">
<g>
	<g>
		<path d="M504.898,154.612L345.079,9.256c-6.342-5.771-15.497-7.268-23.365-3.789c-7.861,3.478-12.923,11.252-12.923,19.844
			v307.345c0,11.983,9.712,21.695,21.695,21.695c11.983,0,21.695-9.712,21.695-21.695V74.37l123.524,112.344
			c8.873,8.063,22.577,7.412,30.648-1.454C514.408,176.394,513.764,162.675,504.898,154.612z"/>
	</g>
</g>
<g>
	<g>
		<path d="M292.158,301.559c-57.021,0-103.412,46.391-103.412,103.412c0,57.021,46.391,103.412,103.412,103.412
			c57.021,0,103.412-46.391,103.412-103.412C395.571,347.95,349.18,301.559,292.158,301.559z M292.158,464.994
			c-33.092,0-60.023-26.931-60.023-60.023s26.923-60.023,60.023-60.023c33.099,0,60.023,26.931,60.023,60.023
			S325.25,464.994,292.158,464.994z"/>
	</g>
</g>
<g>
	<g>
		<path d="M225.627,14.463H21.695C9.712,14.463,0,24.175,0,36.158c0,11.983,9.712,21.695,21.695,21.695h203.932
			c11.983,0,21.695-9.712,21.695-21.695C247.322,24.175,237.61,14.463,225.627,14.463z"/>
	</g>
</g>
<g>
	<g>
		<path d="M225.627,115.706H21.695C9.712,115.706,0,125.418,0,137.401s9.712,21.695,21.695,21.695h203.932
			c11.983,0,21.695-9.712,21.695-21.695S237.61,115.706,225.627,115.706z"/>
	</g>
</g>
<g>
	<g>
		<path d="M225.627,217.672H21.695C9.712,217.672,0,227.384,0,239.367c0,11.983,9.712,21.695,21.695,21.695h203.932
			c11.983,0,21.695-9.712,21.695-21.695C247.322,227.384,237.61,217.672,225.627,217.672z"/>
	</g>
</g>
<g>
</g>
<g>
</g>
<g>
</g>
<g>
</g>
<g>
</g>
<g>
</g>
<g>
</g>
<g>
</g>
<g>
</g>
<g>
</g>
<g>
</g>
<g>
</g>
<g>
</g>
<g>
</g>
<g>
</g>
</svg>
