<svg height="488pt" viewBox="-10 0 488 488.00673" width="488pt" xmlns="http://www.w3.org/2000/svg"><path d="m451.980469 226c0-91.40625-55.0625-173.816406-139.511719-208.796875-84.453125-34.980469-181.65625-15.644531-246.292969 48.992187-78.027343 78.050782-88.273437 201.042969-24.234375 290.933594 64.039063 89.886719 183.632813 120.378906 282.890625 72.125l-2.082031 49.402344v.253906c-.011719 3.542969 2.039062 6.769532 5.246094 8.273438 3.199218 1.476562 6.96875.925781 9.613281-1.402344l44.371094-38.230469 44.386719 38.242188c1.632812 1.417969 3.71875 2.203125 5.878906 2.214843 1.285156-.003906 2.554687-.285156 3.722656-.824218 3.210938-1.5 5.257812-4.726563 5.25-8.273438 0-.082031 0-.167968 0-.25l-4.171875-98.984375c35.851563-29.816406 41.328125-82.808593 12.332031-119.328125 1.730469-11.367187 2.601563-22.847656 2.601563-34.347656zm-226 214c-86.554688 0-164.585938-52.136719-197.710938-132.105469-33.121093-79.964843-14.8125-172.011719 46.390625-233.214843 61.203125-61.203126 153.25-79.511719 233.214844-46.390626 79.964844 33.125 132.105469 111.15625 132.105469 197.710938-.003907 7.730469-.417969 15.457031-1.246094 23.140625-23.253906-20.488281-55.738281-26.871094-85.015625-16.707031-29.277344 10.167968-50.8125 35.3125-56.363281 65.800781-5.550781 30.492187 5.746093 61.613281 29.566406 81.441406l-1.511719 35.84375c-30.679687 16.074219-64.796875 24.476563-99.429687 24.480469zm202.949219 32.160156-40.867188-35.210937c-3.402344-3.25-8.757812-3.25-12.160156 0l-40.867188 35.210937 3.550782-84.28125c26.792968 15.730469 60 15.730469 86.792968 0zm-46.949219-84.484375c-40.867188 0-74-33.132812-74-74 0-40.867187 33.132812-74 74-74 40.871093 0 74 33.132813 74 74-.046875 40.851563-33.148438 73.953125-74 74zm0 0"/><path d="m419.046875 280.34375-48.683594 48.679688-25.429687-25.679688c-2.335938-2.328125-6.113282-2.335938-8.457032-.011719-2.34375 2.320313-2.375 6.097657-.070312 8.457031l29.675781 30.199219c1.097657 1.199219 2.621094 1.921875 4.246094 2.011719h.015625c1.621094-.085938 3.140625-.800781 4.242188-1.992188l52.945312-53.0625c2.34375-2.367187 2.34375-6.179687 0-8.542968-2.324219-2.359375-6.125-2.386719-8.484375-.058594zm0 0"/><path d="m257.980469 97c0-19.328125-15.667969-35-35-35-19.328125 0-35 15.671875-35 35v12c0 19.332031 15.671875 35 35 35 19.332031 0 35-15.667969 35-35zm-12 12c0 12.703125-10.296875 23-23 23s-23-10.296875-23-23v-12c0-12.703125 10.296875-23 23-23s23 10.296875 23 23zm0 0"/><path d="m258.179688 158h-5.761719c-2.554688.0625-4.804688 1.703125-5.644531 4.117188l-6.757813 18.882812-12.113281-12.847656c-1.15625-1.21875-2.769532-1.898438-4.453125-1.871094-1.679688.023438-3.273438.753906-4.390625 2.007812l-10.964844 12.257813-5.902344-18.257813c-.789062-2.5-3.078125-4.222656-5.699218-4.289062h-6.703126c-10.214843.085938-19.921874 4.472656-26.738281 12.082031-6.816406 7.613281-10.109375 17.746094-9.070312 27.910157v56.5625c-.050781 10.351562 4.09375 20.285156 11.492187 27.53125l5.15625 5.070312c4.808594 4.652344 7.652344 10.96875 7.941406 17.652344l4.601563 97.234375c.121094 3.242187 2.722656 5.839843 5.964844 5.957031h69.84375c3.25-.109375 5.867187-2.707031 6-5.957031l4.628906-97.179688c.308594-6.675781 3.140625-12.980469 7.921875-17.644531l5.0625-5.144531c7.332031-7.253907 11.4375-17.152344 11.386719-27.464844v-56.617187c1.039062-10.164063-2.253907-20.292969-9.066407-27.90625-6.8125-7.609376-16.519531-11.996094-26.734374-12.085938zm-34.542969 23.171875 5.9375 6.316406 7.5 69.816407-13.09375 13.097656-13.089844-13.09375 7.550781-70.328125zm58.570312 15.929687c-.019531.199219-.226562.398438-.226562.597657v56.910156c.054687 7.066406-2.742188 13.855469-7.757813 18.832031l-5.160156 5.113282c-6.960938 6.859374-11.066406 16.097656-11.496094 25.855468l-4.304687 91.589844h-58.398438l-4.351562-91.519531c-.449219-9.78125-4.613281-19.019531-11.644531-25.832031l-5.058594-5.132813c-5.0625-5.003906-7.882813-11.84375-7.828125-18.960937v-56.855469c0-.199219-.207031-.398438-.226563-.597657-.746094-6.859374 1.4375-13.714843 6.011719-18.875 4.578125-5.160156 11.125-8.148437 18.023437-8.226562h2.34375l7.773438 24.027344c.703125 2.1875 2.578125 3.792968 4.847656 4.152344.136719.019531.269532.058593.40625.066406l-6.507812 60.613281c-.195313 1.808594.4375 3.605469 1.722656 4.894531l19.363281 19.367188c2.34375 2.34375 6.140625 2.34375 8.484375 0l19.367188-19.367188c1.28125-1.28125 1.914062-3.078125 1.722656-4.882812l-6.507812-60.570313c.257812-.019531.511718-.054687.765624-.109375 2.0625-.484375 3.730469-1.988281 4.425782-3.992187l8.644531-24.199219h1.539063c6.875.0625 13.402343 3.03125 17.964843 8.171875 4.589844 5.179687 6.789063 12.046875 6.0625 18.929687zm0 0"/></svg>