<svg height="482pt" viewBox="0 -13 482.00513 482" width="482pt" xmlns="http://www.w3.org/2000/svg"><path d="m474.242188 411.007812h-25.238282v-272h7.566406c4.417969 0 8.433594-3.582031 8.433594-8v-36c0-4.417968-4.015625-8-8.433594-8h-28.566406v-53c-.023437-2.46875-1.175781-4.789062-3.128906-6.300781l-33.183594-26c-2.890625-2.261719-6.945312-2.273437-9.851562-.03125l-33.664063 26c-1.976562 1.507813-3.148437 3.84375-3.171875 6.332031v53h-28.566406c-4.421875 0-8.433594 3.582032-8.433594 8v36c0 4.417969 4.011719 8 8.433594 8h7.566406v42h-166v-42h7.566406c4.417969 0 8.433594-3.582031 8.433594-8v-36c0-4.417968-4.015625-8-8.433594-8h-28.566406v-53c-.023437-2.46875-1.175781-4.789062-3.128906-6.300781l-33.183594-26c-2.890625-2.261719-6.945312-2.273437-9.851562-.03125l-33.664063 26c-1.976562 1.507813-3.148437 3.84375-3.171875 6.332031v53h-28.566406c-4.421875 0-8.433594 3.582032-8.433594 8v36c0 4.417969 4.011719 8 8.433594 8h7.566406v272h-25.238281c-2.097656.007813-4.101563.863282-5.5625 2.367188-1.460937 1.507812-2.2539062 3.535156-2.19921875 5.632812v29c-.05468745 2.097657.73828175 4.125 2.19921875 5.632813 1.460937 1.503906 3.464844 2.355469 5.5625 2.367187h175.476563c2.09375-.011718 4.101562-.863281 5.5625-2.367187 1.457031-1.507813 2.25-3.535156 2.199218-5.632813v-29c.050782-2.097656-.742187-4.125-2.199218-5.632812-1.460938-1.503906-3.46875-2.359375-5.5625-2.367188h-25.238282v-93h166v93h-25.238281c-2.097656.007813-4.101563.863282-5.5625 2.367188-1.460937 1.507812-2.253906 3.535156-2.199219 5.632812v29c-.054687 2.097657.738282 4.125 2.199219 5.632813 1.460937 1.503906 3.464844 2.355469 5.5625 2.367187h175.476563c2.09375-.011718 4.101562-.863281 5.5625-2.367187 1.457031-1.507813 2.25-3.535156 2.199218-5.632813v-29c.050782-2.097656-.742187-4.125-2.199218-5.632812-1.460938-1.503906-3.46875-2.359375-5.5625-2.367188zm-113.238282-373.078124 25.6875-19.78125 25.3125 19.753906v49.105468h-18v-43c0-4.417968-3.582031-8-8-8-4.417968 0-8 3.582032-8 8v43h-17zm-37 65.078124h125v20h-125zm0 169h-166v-45h166zm0-75v14h-166v-14zm-254-159.078124 25.6875-19.78125 25.3125 19.753906v49.105468h-18v-43c0-4.417968-3.582031-8-8-8-4.417968 0-8 3.582032-8 8v43h-17zm-37 65.078124h125v20h-125zm142 337h-159v-13h159zm-65-29h-30v-180.113281c0-11.863281 6.867188-21.886719 15-21.886719 8.128906 0 15 10.023438 15 21.886719zm16 0v-180.113281c0-20.886719-13.910156-37.886719-31-37.886719-17.09375 0-31 17-31 37.886719v180.113281h-15v-272h93v272zm32-109v-14h166v14zm182-163h93v272h-16v-180.113281c0-20.886719-13.910156-37.886719-31-37.886719-17.09375 0-31 17-31 37.886719v180.113281h-15zm61 272h-30v-180.113281c0-11.863281 6.867188-21.886719 15-21.886719 8.128906 0 15 10.023438 15 21.886719zm65 29h-159v-13h159zm0 0"/></svg>