<?xml version="1.0"?>
<svg xmlns="http://www.w3.org/2000/svg" id="Layer_1" data-name="Layer 1" viewBox="0 0 512 512" width="512" height="512"><title>World</title><path d="M256,14.641A241.36,241.36,0,0,0,85.333,426.667,241.36,241.36,0,0,0,426.667,85.333,239.782,239.782,0,0,0,256,14.641ZM425.044,101A227.244,227.244,0,0,1,376.405,141.4C358.282,93.73,328.338,54.867,288.869,28.974A227.64,227.64,0,0,1,418.182,93.818Q421.7,97.342,425.044,101ZM380.5,359.056c9.786-29.578,15.212-62.234,15.77-97.056H485.28A227.467,227.467,0,0,1,433,401.894,239.4,239.4,0,0,0,380.5,359.056ZM79.026,401.919A227.462,227.462,0,0,1,26.72,262h89.011c.56,34.911,6.011,67.643,15.845,97.281A242.054,242.054,0,0,0,79.026,401.919Zm52.553-249.2c-9.834,29.638-15.287,62.37-15.848,97.282H26.72A227.462,227.462,0,0,1,79.026,110.081,242.042,242.042,0,0,0,131.579,152.718Zm220.013,15.087q9.312-4.008,18.258-8.779a305.382,305.382,0,0,1,13.425,69.84A129.916,129.916,0,0,0,351.592,167.805ZM256,374.13A118.13,118.13,0,1,1,374.13,256,118.264,118.264,0,0,1,256,374.13Zm86.284-215.449A129.581,129.581,0,0,0,262,126.014V27.367c47.937,23.827,83.752,66.077,103.86,120.152A225.9,225.9,0,0,1,342.284,158.681ZM250,126.014A129.587,129.587,0,0,0,169.922,158.5a228.01,228.01,0,0,1-23.7-11.209C166.35,93.323,202.132,51.161,250,27.367Zm-89.411,41.6a129.908,129.908,0,0,0-31.864,61.255,305.241,305.241,0,0,1,13.5-70.08Q151.21,163.591,160.589,167.611ZM128.723,283.128a129.909,129.909,0,0,0,31.866,61.261q-9.364,4.029-18.365,8.828A305.286,305.286,0,0,1,128.723,283.128Zm41.2,70.373A129.583,129.583,0,0,0,250,385.986v98.661c-47.87-23.8-83.653-65.967-103.777-119.934A228.35,228.35,0,0,1,169.92,353.5ZM262,385.986a129.588,129.588,0,0,0,80.286-32.668,225.814,225.814,0,0,1,23.577,11.163C345.755,418.558,309.939,460.813,262,484.647Zm89.593-41.793a129.913,129.913,0,0,0,31.684-61.065,305.444,305.444,0,0,1-13.424,69.846Q360.922,348.192,351.593,344.193ZM396.269,250c-.56-34.823-5.986-67.478-15.773-97.056A239.417,239.417,0,0,0,433,110.106,227.463,227.463,0,0,1,485.28,250ZM223.131,28.974c-39.408,25.854-69.321,64.637-87.452,112.21a229.867,229.867,0,0,1-48.7-40.206q3.34-3.638,6.844-7.16A227.64,227.64,0,0,1,223.131,28.974ZM86.974,411.022a229.791,229.791,0,0,1,48.7-40.2c18.127,47.565,48.032,86.347,87.431,112.205a227.637,227.637,0,0,1-129.29-64.841Q90.305,414.668,86.974,411.022Zm201.918,72c39.46-25.9,69.4-64.759,87.516-112.426A227.228,227.228,0,0,1,425.044,411q-3.35,3.647-6.862,7.179A227.637,227.637,0,0,1,288.892,483.023Z"/><path d="M256,201.817a26.176,26.176,0,0,1,26.146,26.146,6,6,0,1,0,12,0A38.2,38.2,0,0,0,262,190.293V179a6,6,0,0,0-12,0v11.293a38.145,38.145,0,0,0,6,75.816,26.147,26.147,0,1,1-26.146,26.147,6,6,0,0,0-12,0A38.2,38.2,0,0,0,249,329.747V344a6,6,0,0,0,12,0V330.064a38.142,38.142,0,0,0-5-75.955,26.146,26.146,0,1,1,0-52.292Z"/></svg>
