<?xml version="1.0" encoding="iso-8859-1"?>
<!-- Generator: Adobe Illustrator 19.0.0, SVG Export Plug-In . SVG Version: 6.00 Build 0)  -->
<svg version="1.1" id="Capa_1" xmlns="http://www.w3.org/2000/svg" xmlns:xlink="http://www.w3.org/1999/xlink" x="0px" y="0px"
	 viewBox="0 0 512 512" style="enable-background:new 0 0 512 512;" xml:space="preserve">
<g>
	<g>
		<path d="M422.416,231.145c-49.036,0-88.93,39.894-88.93,88.93c0,49.036,39.894,88.936,88.93,88.936
			c49.036,0,88.93-39.894,88.93-88.93S471.452,231.145,422.416,231.145z M422.416,369.784c-27.405,0-49.696-22.298-49.696-49.703
			c0-27.405,22.298-49.696,49.696-49.696c27.405,0,49.696,22.291,49.703,49.696C472.119,347.493,449.821,369.784,422.416,369.784z"
			/>
	</g>
</g>
<g>
	<g>
		<path d="M492.383,12.097h-334.14c-10.835,0-19.617,8.782-19.617,19.617v382.529h39.234V51.331h294.907v265.481H512V31.714
			C512,20.879,503.218,12.097,492.383,12.097z"/>
	</g>
</g>
<g>
	<g>
		<path d="M88.93,322.043c-49.036,0-88.93,39.894-88.93,88.93s39.894,88.93,88.93,88.93s88.93-39.894,88.93-88.93
			S137.965,322.043,88.93,322.043z M88.93,460.669c-27.405,0-49.696-22.291-49.696-49.696c0-27.405,22.291-49.696,49.696-49.696
			c27.405,0,49.696,22.291,49.696,49.696S116.335,460.669,88.93,460.669z"/>
	</g>
</g>
<g>
	<g>
		<rect x="158.243" y="148.761" width="334.14" height="39.234"/>
	</g>
</g>
<g>
</g>
<g>
</g>
<g>
</g>
<g>
</g>
<g>
</g>
<g>
</g>
<g>
</g>
<g>
</g>
<g>
</g>
<g>
</g>
<g>
</g>
<g>
</g>
<g>
</g>
<g>
</g>
<g>
</g>
</svg>
