<?xml version="1.0"?>
<svg xmlns="http://www.w3.org/2000/svg" id="Layer_1" data-name="Layer 1" viewBox="0 0 512 512" width="512" height="512"><title>Flow</title><path d="M463.431,397H425V369.2c0-25.365-21.054-46.2-46.418-46.2H262V241.669c54.393-3.112,97.69-48.241,97.69-103.274,0-57.043-46.515-103.451-103.69-103.451S152.31,81.352,152.31,138.4c0,55.033,43.3,100.162,97.69,103.274V323H133.418C108.054,323,87,343.833,87,369.2V397H48.569A5.485,5.485,0,0,0,43,402.808v68.248C43,474.37,45.256,477,48.569,477h87.747A5.69,5.69,0,0,0,142,471.056V402.808A5.577,5.577,0,0,0,136.316,397H99V369.2c0-18.747,15.67-34.2,34.418-34.2H250v62H212.126A5.949,5.949,0,0,0,206,402.808v68.248A6.061,6.061,0,0,0,212.126,477h87.748A6.061,6.061,0,0,0,306,471.056V402.808A5.949,5.949,0,0,0,299.874,397H262V335H378.582C397.33,335,413,350.451,413,369.2V397H375.684A5.577,5.577,0,0,0,370,402.808v68.248A5.69,5.69,0,0,0,375.684,477h87.747c3.313,0,5.569-2.63,5.569-5.944V402.808A5.485,5.485,0,0,0,463.431,397ZM164.31,138.4c0-50.426,41.131-91.451,91.69-91.451s91.69,41.025,91.69,91.451S306.559,229.846,256,229.846,164.31,188.821,164.31,138.4ZM130,465H55V409h75Zm164,0H218V409h76Zm163,0H382V409h75Z"/><path d="M301,196.311V180h-.369A6.7,6.7,0,0,0,307,173.578V81.787c0-3.313-3.056-5.787-6.369-5.787H218.617C209.041,76,201,83.578,201,93.154v91.323c0,.065.126.129.128.194,0,.091.06.027.06.118A17.307,17.307,0,0,0,218.617,202h75.95C297.881,202,301,199.624,301,196.311ZM213,93.154A5.416,5.416,0,0,1,218.617,88H225v80h-6.383a19.688,19.688,0,0,0-5.617.426ZM289,190H218.617a5.012,5.012,0,1,1,0-10H289Zm-52-22V88h58v79.578a5.117,5.117,0,0,1-.509.422Z"/></svg>
