<svg height="444pt" viewBox="0 -7 444.21791 444" width="444pt" xmlns="http://www.w3.org/2000/svg"><path d="m371.171875 284.457031c3.09375 1.1875 6.566406-.351562 7.757813-3.445312 1.191406-3.09375-.351563-6.566407-3.441407-7.757813-11.460937-4.410156-24.230469-3.925781-35.320312 1.34375-11.09375 5.269532-19.535157 14.859375-23.355469 26.53125h-7.703125c-3.316406 0-6 2.6875-6 6s2.683594 6 6 6h5.546875c-.027344.632813-.046875 1.265625-.046875 1.898438 0 1.042968.046875 2.074218.117187 3.101562h-5.617187c-3.316406 0-6 2.6875-6 6s2.683594 6 6 6h8.097656c4.078125 11.351563 12.558594 20.578125 23.527344 25.597656 10.964844 5.023438 23.492187 5.410157 34.75 1.078126 3.09375-1.1875 4.632813-4.660157 3.441406-7.753907-1.1875-3.09375-4.660156-4.636719-7.753906-3.445312-15.582031 5.992187-33.175781-.667969-40.886719-15.476563h31.824219c3.3125 0 6-2.6875 6-6s-2.6875-6-6-6h-35.351563c-.101562-1.023437-.148437-2.058594-.148437-3.101562 0-.636719.023437-1.269532.058594-1.898438h40.441406c3.3125 0 6-2.6875 6-6s-2.6875-6-6-6h-37.417969c7.320313-15.570312 25.421875-22.847656 41.480469-16.671875zm0 0"/><path d="m434.609375 317.027344c-.011719-27.59375-13.824219-53.359375-36.800781-68.640625 2.789062-12.730469 4.199218-25.726563 4.199218-38.757813 0-99.203125-80.699218-179.902344-179.898437-179.902344-99.203125 0-179.902344 80.703126-179.902344 179.898438-.03125 46.335938 17.875 90.882812 49.96875 124.304688-12.902343 3.644531-23.585937 12.71875-29.269531 24.863281l-29.238281 62.867187c-.863281 1.851563-.71875 4.015625.386719 5.734375 1.101562 1.71875 3.011718 2.75 5.054687 2.734375h366c2.042969.015625 3.953125-1.019531 5.058594-2.742187 1.101562-1.722657 1.246093-3.890625.378906-5.742188l-15.824219-34.015625c24.738282-14.929687 39.867188-41.707031 39.886719-70.601562zm-212.5-275.304688c92.578125 0 167.898437 75.320313 167.898437 167.898438-.003906 10.941406-1.070312 21.855468-3.179687 32.589844-6.984375-3.261719-14.398437-5.519532-22.015625-6.707032 1.539062-8.542968 2.316406-17.203125 2.316406-25.882812 0-79.964844-65.054687-145.023438-145.023437-145.023438-79.964844 0-145.023438 65.058594-145.023438 145.027344 0 79.964844 65.058594 145.023438 145.027344 145.023438 17.90625.03125 35.660156-3.273438 52.355469-9.75 2.617187 7.253906 6.242187 14.101562 10.765625 20.347656-20.042969 8.15625-41.484375 12.328125-63.121094 12.28125-92.582031 0-167.902344-75.320313-167.902344-167.898438s75.320313-167.90625 167.902344-167.90625zm47.5 275.300782c0 5.457031.539063 10.898437 1.613281 16.25-15.625 6.222656-32.296875 9.40625-49.113281 9.375-73.351563 0-133.027344-59.675782-133.027344-133.023438 0-73.351562 59.675781-133.027344 133.027344-133.027344 73.347656 0 133.023437 59.675782 133.023437 133.027344-.003906 8.359375-.789062 16.703125-2.34375 24.917969-.226562 0-.453124-.019531-.679687-.019531-45.546875.054687-82.453125 36.960937-82.5 82.503906zm126.089844 101.105468h-347.183594l25.273437-54.308594c5.347657-11.40625 16.546876-18.9375 29.128907-19.582031 52.171875 46.261719 126.386719 58.195313 190.429687 30.617188 23.628906 24.101562 59.582032 31.320312 90.679688 18.207031zm-43.589844-30.601562c-38.9375 0-70.5-31.5625-70.5-70.5 0-38.933594 31.5625-70.5 70.5-70.5 38.933594 0 70.5 31.566406 70.5 70.5-.046875 38.917968-31.585937 70.457031-70.5 70.5zm0 0"/><path d="m132.167969 26.402344c-.007813-1.601563-.65625-3.136719-1.800781-4.257813-30.023438-29.398437-78.386719-29.378906-107.8125.046875-14.550782 14.40625-22.679688 34.066406-22.554688 54.542969.046875 20.101563 8.195312 39.335937 22.601562 53.359375 2.351563 2.300781 6.113282 2.277344 8.441407-.046875l99.363281-99.371094c1.136719-1.132812 1.769531-2.671875 1.761719-4.273437zm-105.222657 90.769531c-9.621093-11.308594-14.914062-25.65625-14.945312-40.5-.101562-17.269531 6.761719-33.851563 19.039062-45.996094 12.003907-11.964843 28.277344-18.652343 45.226563-18.582031 14.992187-.015625 29.535156 5.136719 41.175781 14.582031zm0 0"/><path d="m313.847656 22.144531c-1.144531 1.121094-1.792968 2.65625-1.800781 4.257813-.007813 1.601562.625 3.140625 1.757813 4.273437l99.371093 99.371094c2.328125 2.324219 6.089844 2.347656 8.441407.046875 14.40625-14.023438 22.550781-33.257812 22.597656-53.359375.128906-20.476563-8.003906-40.136719-22.554688-54.542969-29.421875-29.425781-77.785156-29.445312-107.8125-.046875zm103.421875 95.027344-90.5-90.496094c25.46875-20.699219 63.039063-19.367187 86.402344 4 12.277344 12.148438 19.140625 28.730469 19.039063 46-.03125 14.839844-5.324219 29.191407-14.941407 40.496094zm0 0"/><path d="m300.109375 221.128906c0-3.3125-2.6875-6-6-6h-67v-76c0-3.3125-2.6875-6-6-6-3.316406 0-6 2.6875-6 6v82c0 3.3125 2.683594 6 6 6h73c3.3125 0 6-2.6875 6-6zm0 0"/></svg>