<svg height="483pt" viewBox="0 0 483 483" width="483pt" xmlns="http://www.w3.org/2000/svg"><path d="m195.804688 295c-5.398438-4.988281-12.503907-7.722656-19.855469-7.640625l-120.523438.925781-16.5.136719c-15.421875.128906-27.878906 12.335937-27.753906 27.207031l.457031 62.109375c.058594 7.261719 3.113282 14.175781 8.441406 19.113281 5.277344 4.941407 12.242188 7.679688 19.472657 7.648438h.246093l54.691407-.332031 45.933593 26.792969c.917969.535156 1.960938.816406 3.023438.816406 1.058594 0 2.101562-.277344 3.019531-.800782 1.871094-1.066406 3.03125-3.046874 3.042969-5.199218v-22.15625l27.265625-.207032c7.316406-.023437 14.339844-2.878906 19.59375-7.96875 5.308594-4.992187 8.335937-11.949218 8.367187-19.238281l-.226562-62.097656c-1-7.265625-3.308594-14.050781-8.695312-19.109375zm-7.820313 91.839844c-3.050781 2.933594-7.113281 4.574218-11.34375 4.578125l-33.21875.25c-3.289063.027343-5.9375 2.710937-5.921875 6v17.660156l-38.355469-22.183594c-.945312-.480469-2-.703125-3.054687-.640625h-56.53125c-4.183594.027344-8.21875-1.550781-11.277344-4.402344-2.929688-2.695312-4.617188-6.476562-4.664062-10.457031l-.464844-62.109375c-.066406-8.257812 7.035156-15.039062 15.835937-15.113281l16.46875-.066406 120.464844-.855469h.144531c4.175782-.058594 8.210938 1.488281 11.277344 4.316406 2.929688 2.679688 4.617188 6.449219 4.664062 10.417969l.464844 62.085937c.019532 3.976563-1.605468 7.78125-4.488281 10.515626zm0 0"/><path d="m297.644531 125.539062 27.285157.589844-.308594 22.148438c-.03125 2.148437 1.089844 4.148437 2.9375 5.246094 1.847656 1.09375 4.140625 1.117187 6.011718.0625l46.300782-26.160157 54.667968 1.082031c7.316407.199219 14.425782-2.441406 19.84375-7.363281 5.398438-4.855469 8.550782-11.726562 8.714844-18.988281l1.324219-62.085938c.164063-7.257812-2.679687-14.261718-7.859375-19.351562-5.1875-5.164062-12.175781-8.121094-19.5-8.242188l-16.460938-.367187-120.488281-2.601563c-15.414062-.355468-28.613281 11.476563-28.613281 26.347657v.003906l-1.273438 62.085937c-.328124 14.875 11.996094 27.253907 27.417969 27.59375zm-14.039062-89.417968c.183593-8.253906 7.511719-14.8125 16.300781-14.617188l120.429688 2.601563 16.46875.367187c4.230468.058594 8.273437 1.757813 11.285156 4.734375 2.84375 2.78125 4.417968 6.617188 4.339844 10.597657l-1.328126 62.089843c-.105468 3.976563-1.84375 7.738281-4.8125 10.390625-3.140624 2.84375-7.261718 4.359375-11.5 4.226563l-56.320312-1.113281c-1.074219-.019532-2.132812.25-3.070312.777343l-38.632813 21.824219.246094-17.660156c.042969-3.292969-2.578125-6.007813-5.871094-6.082032l-33.234375-.714843c-8.800781-.199219-15.8125-7.070313-15.628906-15.332031zm0 0"/><path d="m123.070312 246.144531c67.972657 0 123.074219-55.101562 123.074219-123.074219 0-67.96875-55.101562-123.070312-123.074219-123.070312-67.96875 0-123.070312 55.101562-123.070312 123.070312.078125 67.941407 55.132812 122.996094 123.070312 123.074219zm-69.078124-36.207031c1.714843-15.03125 14.414062-26.394531 29.542968-26.4375h12.65625c2.542969 12.757812 13.742188 21.941406 26.75 21.941406 13.007813 0 24.203125-9.183594 26.75-21.941406h12.914063c15.128906.039062 27.828125 11.40625 29.539062 26.4375-40.417969 32.210938-97.734375 32.210938-138.152343 0zm43.226562-61.46875c-6.929688-6.886719-10.792969-16.273438-10.71875-26.039062v-3.21875c24.464844-4.796876 45.769531-19.703126 58.660156-41.042969 1.582032.585937 3.082032 1.359375 4.476563 2.308593 6.484375 4.414063 10.265625 11.839844 10.019531 19.683594l-.15625 4.214844v17.519531c0 20.375-16.207031 37.074219-36.28125 37.21875-9.753906.121094-19.132812-3.722656-26-10.644531zm74.28125-44 .125-4.128906c.289062-11.933594-5.53125-23.191406-15.4375-29.855469-3.988281-2.699219-8.535156-4.453125-13.300781-5.136719-2.46875-.34375-4.890625.878906-6.078125 3.066406-19.195313 35.132813-52.878906 39.195313-55.679688 39.472657-3.75.175781-6.679687 3.292969-6.628906 7.046875v7.5c-.039062 2.375.089844 4.753906.394531 7.113281-4.472656-9.066406-7.015625-18.957031-7.46875-29.054687-.425781-9.246094 1.488281-18.449219 5.5625-26.757813 6.941407-13.925781 20.074219-24.558594 36.0625-29.179687 8.957031-2.773438 18.640625-1.976563 27.023438 2.226562 7.902343 4.117188 14.089843 10.902344 17.464843 19.148438l.21875.664062c.984376 2.949219 4.054688 4.65625 7.078126 3.941406 1.511718-.359375 9.296874-1.511718 14.363281 11.019532 5.082031 12.59375 4.789062 26.902343-.816407 40.292968-.933593 2.226563-2.074218 4.445313-3.273437 6.660156.277344-2.195312.410156-4.402343.390625-6.613281zm-64 73.121094v-8.917969c4.96875 1.734375 10.175781 2.6875 15.4375 2.828125h.371094c5.199218 0 10.191406-1.304688 15.191406-2.886719v9.65625c0 8.558594-6.941406 15.5-15.5 15.5s-15.5-6.941406-15.5-15.5zm15.570312-165.589844c44.710938-.039062 85.078126 26.753906 102.402344 67.96875 17.328125 41.210938 8.234375 88.800781-23.074218 120.71875-5.503907-17.347656-21.589844-29.144531-39.789063-29.1875h-12.109375v-.84375c3-2.894531 7.390625-6.300781 11.46875-10.371094 10.796875-10.792968 18.675781-22.164062 23.550781-33.800781 6.839844-16.324219 7.113281-33.875.839844-49.417969-4.742187-11.75-13.492187-18.675781-23.132813-18.789062-10.277343-21.496094-34.738281-32.234375-57.519531-25.25-19.199219 5.546875-35.054687 18.433594-43.484375 35.355468-5.015625 10.109376-7.398437 21.324219-6.929687 32.597657 1.171875 28.335937 17.207031 54.707031 40.207031 68.257812v2.261719h-11.964844c-18.199218.042969-34.28125 11.839844-39.789062 29.1875-31.304688-31.917969-40.398438-79.503906-23.074219-120.71875 17.328125-41.214844 57.691406-68.007812 102.398437-67.96875zm0 0"/><path d="m359.929688 236.855469c-67.972657 0-123.074219 55.101562-123.074219 123.074219 0 67.96875 55.101562 123.070312 123.074219 123.070312 67.96875 0 123.070312-55.101562 123.070312-123.070312-.078125-67.941407-55.132812-122.996094-123.070312-123.074219zm-64.230469 162.34375c-.714844-7.617188 1.8125-15.183594 6.96875-20.835938 5.152343-5.65625 12.453125-8.875 20.105469-8.863281h2.925781l8.566406 26.3125c.710937 2.183594 2.609375 3.773438 4.886719 4.085938.300781.039062.601562.054687.902344.046874l-7.132813 66.398438c-.121094.4375-.195313.882812-.222656 1.335938-13.339844-3.328126-25.953125-9.09375-37.199219-17v-50.871094c0-.203125.21875-.410156.199219-.609375zm55.332031 71.441406-5.871094-5.875 8.25-76.835937 6.136719-6.855469 6.960937 7.402343 8.191407 76.289063-5.875 5.875c-2.933594.230469-5.898438.351563-8.894531.355469-2.996094.003906-5.964844-.113282-8.898438-.351563zm72.703125-71.441406c-.019531.199219-.230469.402343-.230469.605469v50.871093c-11.09375 7.902344-23.5625 13.667969-36.769531 17 .085937-.441406.121094-.886719.105469-1.335937l-7.078125-66.394532c.445312.011719.886719-.027343 1.324219-.113281 2.046874-.425781 3.730468-1.882812 4.441406-3.847656l9.523437-26.484375h2.042969c7.605469.011719 14.851562 3.253906 19.933594 8.917969 5.078125 5.664062 7.515625 13.21875 6.703125 20.78125zm11.765625 41.675781v-40.773438c1.109375-10.875-2.433594-21.707031-9.753906-29.824218-7.316406-8.113282-17.726563-12.757813-28.652344-12.777344h-6.261719c-2.53125 0-4.792969 1.589844-5.648437 3.972656l-7.628906 21.238282-13.746094-14.621094c-1.152344-1.222656-2.761719-1.910156-4.445313-1.886719-1.679687.019531-3.273437.746094-4.394531 1.996094l-12.523438 13.988281-6.683593-20.542969c-.804688-2.46875-3.105469-4.144531-5.707031-4.144531h-7.28125c-11.011719-.019531-21.53125 4.578125-28.992188 12.675781-7.464844 8.09375-11.195312 18.949219-10.28125 29.925781v40.777344c-21-20.277344-34.871094-49.0625-34.871094-80.949218 0-61.246094 49.9375-111.074219 111.183594-111.074219s110.929688 49.828125 110.929688 111.074219c.148437 30.734374-12.640626 60.113281-35.242188 80.945312zm0 0"/><path d="m396.5 310c0-20.710938-16.789062-37.5-37.5-37.5s-37.5 16.789062-37.5 37.5v13c0 20.710938 16.789062 37.5 37.5 37.5s37.5-16.789062 37.5-37.5zm-12 13c0 14.082031-11.417969 25.5-25.5 25.5s-25.5-11.417969-25.5-25.5v-13c0-14.082031 11.417969-25.5 25.5-25.5s25.5 11.417969 25.5 25.5zm0 0"/></svg>