<?xml version="1.0" encoding="iso-8859-1"?>
<!-- Generator: Adobe Illustrator 19.0.0, SVG Export Plug-In . SVG Version: 6.00 Build 0)  -->
<svg version="1.1" id="Capa_1" xmlns="http://www.w3.org/2000/svg" xmlns:xlink="http://www.w3.org/1999/xlink" x="0px" y="0px"
	 viewBox="0 0 512 512" style="enable-background:new 0 0 512 512;" xml:space="preserve">
<g>
	<g>
		<path d="M145.528,300.477c-33.784,0-61.275,24.05-61.275,53.616c0,29.571,27.485,53.622,61.275,53.622
			c33.79,0,61.275-24.05,61.275-53.622C206.803,324.528,179.312,300.477,145.528,300.477z M145.528,372.37
			c-14.052,0-25.924-8.366-25.924-18.271c0-9.898,11.872-18.265,25.924-18.265s25.924,8.366,25.924,18.265
			C171.452,364.003,159.58,372.37,145.528,372.37z"/>
	</g>
</g>
<g>
	<g>
		<path d="M313.445,262.77c-33.784,0-61.275,24.05-61.275,53.622c0,29.565,27.491,53.616,61.275,53.616
			c33.79,0,61.275-24.05,61.275-53.616S347.229,262.77,313.445,262.77z M313.445,334.662c-14.052,0-25.924-8.366-25.924-18.265
			c0-9.904,11.866-18.271,25.924-18.271c14.052,0,25.924,8.366,25.918,18.271C339.363,326.295,327.497,334.662,313.445,334.662z"/>
	</g>
</g>
<g>
	<g>
		<path d="M367.774,114.991c-4.366-3.352-10.057-4.46-15.36-3.023l-167.322,45.367c-7.701,2.092-13.05,9.085-13.05,17.063v179.701
			h35.351V187.92l131.971-35.781v164.252h35.351v-187.36C374.714,123.528,372.146,118.337,367.774,114.991z"/>
	</g>
</g>
<g>
	<g>
		
			<rect x="186.684" y="193.542" transform="matrix(0.9651 -0.2617 0.2617 0.9651 -45.7502 78.9045)" width="173.359" height="35.349"/>
	</g>
</g>
<g>
	<g>
		<path d="M498.413,191.001c7.966-1.891,13.587-9.009,13.587-17.192V41.243C512,18.5,493.494,0,470.757,0H41.243
			C18.5,0,0,18.5,0,41.243v429.514C0,493.494,18.5,512,41.243,512h429.514C493.5,512,512,493.5,512,470.757V338.78
			c0-8.16-5.585-15.26-13.522-17.181c-29.718-7.188-51.288-34.656-51.288-65.305C447.19,225.033,468.259,198.183,498.413,191.001z
			 M476.649,351.648v119.109c0,3.193-2.698,5.892-5.892,5.892H41.243c-3.193,0-5.892-2.698-5.892-5.892V41.243
			c0-3.193,2.698-5.892,5.892-5.892h429.514c3.193,0,5.892,2.698,5.892,5.892v119.61c-38.774,15.124-64.81,52.573-64.81,95.442
			C411.839,298.28,438.382,336.353,476.649,351.648z"/>
	</g>
</g>
<g>
</g>
<g>
</g>
<g>
</g>
<g>
</g>
<g>
</g>
<g>
</g>
<g>
</g>
<g>
</g>
<g>
</g>
<g>
</g>
<g>
</g>
<g>
</g>
<g>
</g>
<g>
</g>
<g>
</g>
</svg>
