<svg height="479pt" viewBox="0 -44 479.47994 479" width="479pt" xmlns="http://www.w3.org/2000/svg"><path d="m285.785156 151.941406-77.101562-.160156 16.300781-16.296875c2.34375-2.34375 2.34375-6.144531 0-8.488281s-6.140625-2.34375-8.484375 0l-26.511719 26.511718c-.007812.007813-.011719.019532-.023437.027344-.265625.273438-.507813.566406-.71875.882813-.023438.035156-.042969.070312-.0625.101562-.191406.292969-.355469.605469-.492188.929688-.015625.039062-.027344.082031-.042968.121093-.128907.324219-.230469.65625-.300782 1-.007812.035157-.007812.074219-.015625.109376-.066406.34375-.097656.695312-.101562 1.046874v.070313c.003906.347656.039062.691406.101562 1.035156.003907.027344.007813.058594.011719.085938.070312.347656.171875.6875.300781 1.019531.011719.03125.023438.066406.035157.097656.140624.332032.304687.652344.5.953125.019531.027344.035156.058594.050781.082031.21875.328126.46875.632813.746093.914063l.003907.007813 26.511719 26.507812c2.347656 2.3125 6.121093 2.296875 8.449218-.035156 2.328125-2.328125 2.34375-6.101563.035156-8.449219l-16.238281-16.085937 77.019531.308593h.011719c3.3125-.117187 5.933594-2.832031 5.9375-6.144531.003907-3.3125-2.613281-6.03125-5.925781-6.15625zm0 0"/><path d="m290.824219 235.957031c.191406-.296875.351562-.605469.488281-.929687.019531-.042969.03125-.082032.046875-.121094.128906-.324219.226563-.660156.296875-1 .007812-.039062.011719-.074219.019531-.113281.0625-.34375.097657-.691407.097657-1.042969 0-.023438 0-.046875 0-.070312 0-.347657-.035157-.695313-.097657-1.035157 0-.03125-.007812-.058593-.015625-.085937-.066406-.347656-.167968-.691406-.296875-1.019532-.015625-.03125-.023437-.066406-.039062-.101562-.136719-.332031-.304688-.648438-.5-.953125-.015625-.027344-.03125-.054687-.046875-.082031-.21875-.328125-.46875-.632813-.746094-.910156l-.007812-.007813-26.507813-26.511719c-2.347656-2.308594-6.121094-2.292968-8.453125.035156-2.328125 2.332032-2.34375 6.101563-.03125 8.449219l16.234375 16.089844-77.027344-.308594h-.011719c-3.335937.074219-6.003906 2.800781-6 6.140625-.011718 3.328125 2.660157 6.046875 5.988282 6.089844l77.101562.199219-16.300781 16.316406c-1.5625 1.503906-2.191406 3.738281-1.644531 5.835937.550781 2.101563 2.1875 3.742188 4.285156 4.292969 2.101562.554688 4.335938-.070312 5.84375-1.628906l26.511719-26.507813c.007812-.011718.011719-.019531.019531-.03125.269531-.269531.511719-.566406.722656-.882812.027344-.035156.046875-.070312.070313-.105469zm0 0"/><path d="m438 39.160156c0-21.496094-17.425781-38.921875-38.917969-38.921875h-.164062c-21.492188 0-38.917969 17.425781-38.917969 38.921875v13.160156c0 21.496094 17.425781 38.917969 38.917969 38.917969h.164062c21.492188 0 38.917969-17.421875 38.917969-38.917969zm-12 13.160156c0 14.867188-12.050781 26.917969-26.917969 26.917969h-.164062c-14.867188 0-26.917969-12.050781-26.917969-26.917969v-13.160156c0-14.867187 12.050781-26.921875 26.917969-26.921875h.164062c14.867188 0 26.917969 12.054688 26.917969 26.921875zm0 0"/><path d="m439.28125 109.238281h-6.53125c-2.519531-.027343-4.78125 1.535157-5.644531 3.902344l-8.101563 22.507813-14.523437-15.457032c-1.136719-1.277344-2.761719-2.007812-4.46875-2.011718-1.707031 0-3.335938.726562-4.472657 2l-13.355468 14.917968-7.113282-21.78125c-.8125-2.453125-3.117187-4.101562-5.699218-4.078125h-7.601563c-11.347656-.011719-22.167969 4.804688-29.75 13.25-7.570312 8.378907-12.019531 19.535157-10.019531 30.769531v64.140626c-.058594 11.515624 4.546875 22.566406 12.773438 30.628906l5.839843 5.75c5.597657 5.410156 8.90625 12.757812 9.242188 20.535156l5.210937 110.070312c.128906 3.21875 2.742188 5.789063 5.964844 5.855469h79.15625c3.230469-.066406 5.855469-2.628906 5.996094-5.855469l5.242187-110.074218c.359375-7.753906 3.65625-15.085938 9.222657-20.5l5.710937-5.8125c8.148437-8.066406 12.707031-19.070313 12.640625-30.535156v-64.199219c2-11.238281-2.425781-22.394531-10-30.777344-7.570312-8.441406-18.378906-13.257813-29.71875-13.246094zm-39.164062 23.8125 7.507812 7.988281 8.570312 79.773438-15.675781 15.675781-15.671875-15.675781 8.628906-80.339844zm67.160156 19.3125c-.019532.199219-.277344.398438-.277344.605469v64.492188c.074219 8.222656-3.175781 16.125-9.007812 21.917968l-5.835938 5.800782c-7.734375 7.578124-12.304688 17.816406-12.777344 28.636718l-4.910156 104.421875h-67.714844l-4.96875-104.351562c-.5-10.859375-5.132812-21.117188-12.949218-28.671875l-5.726563-5.785156c-5.890625-5.808594-9.175781-13.757813-9.109375-22.03125v-64.429688c0-.199219-.238281-.402344-.257812-.605469-.855469-7.949219 1.710937-15.882812 7.0625-21.824219 5.347656-5.9375 12.972656-9.320312 20.964843-9.300781h3.238281l8.992188 27.550781c.808594 2.625 3.347656 4.320313 6.078125 4.066407l-7.46875 69.539062c-.191406 1.804688.441406 3.597657 1.726563 4.878907l21.945312 21.945312c2.34375 2.34375 6.140625 2.34375 8.484375 0l21.945313-21.949219c1.285156-1.28125 1.917968-3.078125 1.722656-4.882812l-7.46875-69.535157c.535156.035157 1.070312-.003906 1.59375-.109374 2.039062-.398438 3.714844-1.832032 4.429687-3.777344l9.980469-27.726563h2.3125c7.988281-.015625 15.609375 3.367188 20.953125 9.308594 5.34375 5.9375 7.90625 13.871094 7.046875 21.816406zm0 0"/><path d="m120.210938 224.238281h-12.210938v-.644531c4.101562-3.105469 7.945312-6.542969 11.484375-10.277344 10.71875-10.699218 18.601563-21.992187 23.4375-33.542968 6.789063-16.199219 7.089844-33.625.863281-49.058594-4.707031-11.660156-13.378906-18.539063-22.949218-18.664063-10.207032-21.328125-34.480469-31.980469-57.085938-25.046875-19.0625 5.507813-34.796875 18.296875-43.164062 35.097656-4.914063 10.054688-7.210938 21.1875-6.675782 32.363282 1.164063 28.109375 17.089844 54.273437 40.089844 67.726562v2.046875h-12.226562c-22.984376.101563-41.613282 18.675781-41.773438 41.660157v33.625c0 3.316406 3.011719 5.714843 6.324219 5.714843h149.332031c3.3125 0 6.34375-2.398437 6.34375-5.714843v-33.625c-.171875-22.984376-18.800781-41.558594-41.789062-41.660157zm-54.210938 6.210938v-8.78125c4.785156 1.636719 9.800781 2.503906 14.859375 2.570312h.367187c5.03125-.101562 10.015626-.988281 14.773438-2.625v9.511719c0 8.285156-6.714844 15-15 15s-15-6.714844-15-15zm51-72.625v17.375c0 20.1875-16.078125 36.730469-35.964844 36.875-9.609375.105469-18.84375-3.699219-25.585937-10.546875-6.816407-6.839844-10.585938-16.140625-10.449219-25.792969v-3.15625c10-2.050781 39.417969-10.199219 58.042969-40.691406 1.53125.578125 2.984375 1.339843 4.332031 2.269531 6.402344 4.382812 10.117188 11.734375 9.847656 19.488281zm-85.675781-30.375c6.878906-13.800781 19.910156-24.339844 35.753906-28.917969 8.878906-2.75 18.472656-1.957031 26.78125 2.207031 7.828125 4.078125 13.960937 10.796875 17.304687 18.964844l.21875.660156c.984376 2.949219 4.054688 4.65625 7.078126 3.941407 1.492187-.355469 9.1875-1.496094 14.191406 10.898437 5.035156 12.480469 4.75 26.660156-.808594 39.929687-.894531 2.132813-2.019531 4.257813-3.160156 6.375.242187-2.09375.347656-4.203124.316406-6.3125v-17.28125l.164062-4.09375c.292969-11.851562-5.480468-23.035156-15.316406-29.65625-3.957031-2.679687-8.46875-4.421874-13.199218-5.097656-2.464844-.34375-4.886719.878906-6.074219 3.066406-19.027344 34.816407-52.289063 38.847657-55.074219 39.125-3.722656.1875-6.609375 3.316407-6.5 7.039063v7.4375c-.078125 2.257813 0 4.519531.234375 6.765625-4.371094-8.910156-6.867187-18.621094-7.335937-28.53125-.449219-9.15625 1.414062-18.277344 5.425781-26.519531zm118.675781 165.789062h-138v-27.339843c.15625-16.359376 13.410156-29.566407 29.773438-29.660157h12.511718c2.542969 12.664063 13.664063 21.773438 26.578125 21.773438 12.914063 0 24.035157-9.109375 26.574219-21.773438h12.773438c16.363281.09375 29.625 13.296875 29.789062 29.660157zm0 0"/></svg>