<svg id="Layer_1" height="512" viewBox="0 0 512 512" width="512" xmlns="http://www.w3.org/2000/svg" data-name="Layer 1"><path d="m143.771 198.387a57.613 57.613 0 1 0 57.613 57.613 57.678 57.678 0 0 0 -57.613-57.613zm0 103.226a45.613 45.613 0 1 1 45.613-45.613 45.665 45.665 0 0 1 -45.613 45.613z"/><path d="m368.229 198.387a57.613 57.613 0 1 0 57.612 57.613 57.678 57.678 0 0 0 -57.612-57.613zm0 103.226a45.613 45.613 0 1 1 45.612-45.613 45.665 45.665 0 0 1 -45.612 45.613z"/><path d="m493 250h-30.876a94.093 94.093 0 0 0 -186.9-8.339 30.508 30.508 0 0 0 -38.456 0 94.093 94.093 0 0 0 -186.892 8.339h-30.876a6 6 0 0 0 0 12h30.876a94.089 94.089 0 0 0 187.555 3h.408a18.161 18.161 0 0 1 36.322 0h.408a94.089 94.089 0 0 0 187.555-3h30.876a6 6 0 0 0 0-12zm-349.229 88.092a82.092 82.092 0 1 1 82.092-82.092 82.185 82.185 0 0 1 -82.092 82.092zm224.458 0a82.092 82.092 0 1 1 82.092-82.092 82.185 82.185 0 0 1 -82.092 82.092z"/></svg>