<svg height="469pt" viewBox="0 -5 469 468" width="469pt" xmlns="http://www.w3.org/2000/svg"><path d="m231.613281 266.5h22.40625c4.417969 0 8-3.582031 8-8s-3.582031-8-8-8h-14.019531v-21.210938c0-4.417968-3.582031-8-8-8s-8 3.582032-8 8v29.410157c-.082031 2.058593.691406 4.0625 2.128906 5.539062 1.441406 1.472657 3.421875 2.292969 5.484375 2.261719zm0 0"/><path d="m234.414062 326.582031c39.808594 0 72.082032-32.273437 72.082032-72.082031s-32.273438-72.082031-72.082032-72.082031c-39.808593 0-72.082031 32.273437-72.082031 72.082031.046875 39.792969 32.289063 72.035156 72.082031 72.082031zm0-128.164062c30.972657 0 56.082032 25.109375 56.082032 56.082031s-25.109375 56.082031-56.082032 56.082031c-30.972656 0-56.082031-25.109375-56.082031-56.082031.035157-30.957031 25.125-56.046875 56.082031-56.082031zm0 0"/><path d="m461.5 276.5h-86.5v-117c-.175781-4.488281-3.882812-8.027344-8.375-8h-28.625v-19c0-4.417969-3.082031-8-7.5-8h-11.351562c-2.859376-31.59375-23.144532-58.941406-52.546876-70.847656-2.050781-12.539063-11.304687-22.691406-23.601562-25.890625v-19.261719c0-4.417969-3.582031-8-8-8s-8 3.582031-8 8v19.253906c-12.308594 3.183594-21.566406 13.347656-23.59375 25.898438-29.410156 11.902344-49.695312 39.25-52.554688 70.847656h-11.351562c-4.417969 0-8.5 3.582031-8.5 8v19h-27.375c-2.082031.015625-4.070312.875-5.507812 2.382812-1.4375 1.507813-2.203126 3.535157-2.117188 5.617188v117h-87.5c-4.417969 0-8.5 3.582031-8.5 8v166c0 4.417969 4.082031 8 8.5 8h95 .0625.0625 357.875c4.417969 0 7.5-3.582031 7.5-8v-166c0-4.417969-3.082031-8-7.5-8zm-139.5-125h-14v-11h14zm-128-11v11h-16v-11zm16 0h17v11h-17zm33 0h16v11h-16zm32 0h17v11h-17zm-51.410156-93.09375c2.945312-3.082031 7.011718-4.851562 11.277344-4.90625h.132812c4.707031.046875 9.15625 2.15625 12.175781 5.765625-8.082031-1.113281-16.277343-1.105469-24.355469.03125.25-.289063.496094-.613281.769532-.890625zm11.410156 16.09375c34.910156.046875 64.21875 26.304688 68.082031 61h-136.164062c3.863281-34.695312 33.171875-60.953125 68.082031-61zm-88 77h15v11h-15zm-52 302h-79v-150h79zm17-275h247v115.632812c0 .445313-1 .902344-1 1.367188v158h-19v-77.785156c0-16.292969-13.207031-29.5-29.5-29.5s-29.5 13.207031-29.5 29.5v77.785156h-16v-77.785156c0-16.019532-12.984375-29-29-29s-29 12.980468-29 29v77.785156h-16v-77.785156c0-16.292969-13.207031-29.5-29.5-29.5s-29.5 13.207031-29.5 29.5v77.785156h-19zm211 275h-27v-77.785156c0-7.457032 6.042969-13.5 13.5-13.5s13.5 6.042968 13.5 13.5zm-75 0h-26v-77.785156c0-7.179688 5.820312-13 13-13s13 5.820312 13 13zm-74 0h-27v-77.785156c0-7.457032 6.042969-13.5 13.5-13.5s13.5 6.042968 13.5 13.5zm279 0h-78v-150h78zm0 0"/></svg>