<svg id="Layer_1" height="512" viewBox="0 0 512 512" width="512" xmlns="http://www.w3.org/2000/svg" data-name="Layer 1"><path d="m256 149.13a81.077 81.077 0 1 0 81.077 81.077 81.169 81.169 0 0 0 -81.077-81.077zm55.731 86.87h13.069a67.74 67.74 0 0 1 -15.927 38.491l-9.223-9.17a6.013 6.013 0 0 0 -8.484 8.524l9.222 9.228a68.771 68.771 0 0 1 -38.388 15.934v-13.069a6 6 0 0 0 -12 0v13.069a68.77 68.77 0 0 1 -38.388-15.927l9.222-9.222a6 6 0 0 0 -8.484-8.485l-9.223 9.118a67.74 67.74 0 0 1 -15.927-38.491h13.069a6 6 0 0 0 0-12h-13.069a70.084 70.084 0 0 1 15.927-38.285l9.223 9.274a5.984 5.984 0 1 0 8.484-8.44l-9.222-9.218a68.752 68.752 0 0 1 38.388-15.924v13.068a6 6 0 1 0 12 0v-13.068a68.756 68.756 0 0 1 38.388 15.927l-9.222 9.222a6 6 0 1 0 8.484 8.485l9.223-9.326a70.084 70.084 0 0 1 15.927 38.285h-13.069a6 6 0 0 0 0 12z"/><path d="m309 143.585v-81.785a53 53 0 0 0 -106 0v81.782a101.417 101.417 0 0 0 0 173.244v133.374a53 53 0 0 0 106 0v-133.371a101.417 101.417 0 0 0 0-173.244zm-94-81.785a41 41 0 0 1 82 0v75.505a102.316 102.316 0 0 0 -82 0zm82 388.4a41 41 0 0 1 -82 0v-127.095a102.3 102.3 0 0 0 82 0zm-41-130.52a89.473 89.473 0 1 1 89.473-89.473 89.575 89.575 0 0 1 -89.473 89.473z"/><path d="m256 206.054a8.913 8.913 0 0 1 8.9 8.9 6 6 0 0 0 12 0 20.934 20.934 0 0 0 -14.9-20.013v-3.941a6 6 0 0 0 -12 0v3.941a20.9 20.9 0 0 0 6 40.92 8.9 8.9 0 1 1 -8.9 8.9 6 6 0 0 0 -12 0 20.92 20.92 0 0 0 13.9 19.677v3.562a6 6 0 0 0 12 0v-2.961a20.891 20.891 0 0 0 -5-41.178 8.9 8.9 0 0 1 0-17.807z"/><path d="m241 363.424a15 15 0 1 0 15-15 15.015 15.015 0 0 0 -15 15zm18 0a3 3 0 1 1 -3-3 3 3 0 0 1 3 3z"/><path d="m256 387.508a15 15 0 1 0 15 15 15.015 15.015 0 0 0 -15-15zm0 18a3 3 0 1 1 3-3 3 3 0 0 1 -3 2.992z"/><path d="m256 426.591a15 15 0 1 0 15 15 15.015 15.015 0 0 0 -15-15zm0 18a3 3 0 1 1 3-3 3 3 0 0 1 -3 2.996z"/></svg>