<?xml version="1.0"?>
<svg xmlns="http://www.w3.org/2000/svg" id="Layer_1" data-name="Layer 1" viewBox="0 0 512 512" width="512" height="512"><title>Graduate</title><path d="M388.648,232.6a25.754,25.754,0,1,0,51.507,0A25.387,25.387,0,0,0,420,207.488V88.789c0-.239.207-.473.18-.7a6.337,6.337,0,0,0,.157-.664,5.949,5.949,0,0,0-3.874-5.575L254.62,22.346a5.963,5.963,0,0,0-4.126,0L88.631,81.845A6,6,0,0,0,84.7,87.42a5.911,5.911,0,0,0,3.723,5.648L137,112.011V171.4a5.987,5.987,0,0,0,3.891,5.622c1.038.387,2.109.748,3.109,1.124v51.016c0,29.03,11.546,56.571,31.972,77.549A93.921,93.921,0,0,0,192,320.136V346H147.465C105.613,346,72,380.376,72,422.228v61.794c0,3.313,2.25,5.978,5.564,5.978H427.579c3.314,0,6.421-2.665,6.421-5.978V422.228C434,380.376,399.53,346,357.678,346H313V320.329a97.4,97.4,0,0,0,16.164-13.616A110.816,110.816,0,0,0,361,229.164V178.153c1-.377,2.073-.741,3.116-1.129A5.981,5.981,0,0,0,368,171.4V112.011L408,96.25V207.582A25.879,25.879,0,0,0,388.648,232.6Zm39.788,0a13.782,13.782,0,1,1-13.782-13.781A13.8,13.8,0,0,1,428.436,232.6ZM422,422.228V478H84V422.228C84,386.993,112.23,358,147.465,358h48.389l51.981,34.118a6,6,0,0,0,6.452-.011L308.945,358h48.733C392.913,358,422,386.993,422,422.228ZM301,349l-49.741,31.148L204,349.08V327.468a104.323,104.323,0,0,0,97,.147Zm48-119.831a98.763,98.763,0,0,1-28.318,69.177c-18.31,18.8-42.5,29.16-68.088,29.16a94.773,94.773,0,0,1-68.193-29.16A98.845,98.845,0,0,1,156,229.164V182.217a323.425,323.425,0,0,0,96.507,14.9A318.612,318.612,0,0,0,349,182.221Zm7-61.959a308.031,308.031,0,0,1-207,0V116.682l101.3,39.384a6.267,6.267,0,0,0,4.454,0L356,116.682Zm4.292-65.09a5.972,5.972,0,0,0-.994.387l-106.72,41.534L145.858,102.5a5.9,5.9,0,0,0-.993-.386l-37.2-14.479L252.578,34.371,397.494,87.637Z"/></svg>
