<?xml version="1.0" encoding="iso-8859-1"?>
<!-- Generator: Adobe Illustrator 19.0.0, SVG Export Plug-In . SVG Version: 6.00 Build 0)  -->
<svg version="1.1" id="Capa_1" xmlns="http://www.w3.org/2000/svg" xmlns:xlink="http://www.w3.org/1999/xlink" x="0px" y="0px"
	 viewBox="0 0 512 512" style="enable-background:new 0 0 512 512;" xml:space="preserve">
<g>
	<g>
		<path d="M240.578,15.422C107.921,15.422,0,123.343,0,256s107.921,240.578,240.578,240.578S481.157,388.657,481.157,256
			S373.236,15.422,240.578,15.422z M240.578,459.566c-112.245,0-203.566-91.321-203.566-203.566S128.333,52.434,240.578,52.434
			S444.145,143.755,444.145,256S352.823,459.566,240.578,459.566z"/>
	</g>
</g>
<g>
	<g>
		<path d="M162.236,129.542c-30.954,0-56.135,25.187-56.135,56.135s25.181,56.135,56.135,56.135
			c30.948,0,56.135-25.187,56.135-56.135S193.191,129.542,162.236,129.542z M162.236,204.8c-10.542,0-19.123-8.581-19.123-19.123
			c0-10.542,8.581-19.123,19.123-19.123c10.542,0,19.123,8.581,19.123,19.123C181.359,196.219,172.778,204.8,162.236,204.8z"/>
	</g>
</g>
<g>
	<g>
		<path d="M303.499,270.182c-30.961,0-56.141,25.18-56.141,56.141c0,30.954,25.181,56.135,56.141,56.135
			c30.954,0,56.135-25.181,56.135-56.135C359.634,295.362,334.453,270.182,303.499,270.182z M303.499,345.452
			c-10.548,0-19.129-8.581-19.129-19.123c0-10.548,8.581-19.129,19.129-19.129c10.542,0,19.123,8.574,19.123,19.129
			C322.622,336.871,314.041,345.452,303.499,345.452z"/>
	</g>
</g>
<g>
	<g>
		<path d="M303.499,129.542c-30.954,0-56.141,25.187-56.141,56.135s25.181,56.135,56.141,56.135
			c30.954,0,56.135-25.187,56.135-56.135S334.453,129.542,303.499,129.542z M303.499,204.8c-10.548,0-19.129-8.581-19.129-19.123
			c0-10.542,8.581-19.123,19.129-19.123c10.542,0,19.123,8.581,19.123,19.123C322.622,196.219,314.041,204.8,303.499,204.8z"/>
	</g>
</g>
<g>
	<g>
		<path d="M162.236,270.182c-30.954,0-56.135,25.18-56.135,56.141c0,30.954,25.181,56.135,56.135,56.135
			c30.948,0,56.135-25.181,56.135-56.135C218.371,295.362,193.191,270.182,162.236,270.182z M162.236,345.452
			c-10.542,0-19.123-8.581-19.123-19.123c0-10.548,8.581-19.129,19.123-19.129c10.542,0,19.123,8.574,19.123,19.129
			C181.359,336.871,172.778,345.452,162.236,345.452z"/>
	</g>
</g>
<g>
	<g>
		<path d="M493.494,459.566H234.41c-10.221,0-18.506,8.285-18.506,18.506c0,10.221,8.285,18.506,18.506,18.506h259.084
			c10.221,0,18.506-8.285,18.506-18.506C512,467.851,503.715,459.566,493.494,459.566z"/>
	</g>
</g>
<g>
</g>
<g>
</g>
<g>
</g>
<g>
</g>
<g>
</g>
<g>
</g>
<g>
</g>
<g>
</g>
<g>
</g>
<g>
</g>
<g>
</g>
<g>
</g>
<g>
</g>
<g>
</g>
<g>
</g>
</svg>
