<svg height="459pt" viewBox="-15 0 459 459.99307" width="459pt" xmlns="http://www.w3.org/2000/svg"><path d="m34.421875 340.035156c15.757813.132813 29.5-10.691406 33.0625-26.042968h91v32h-50.519531c-3.316406 0-6.480469 2.445312-6.480469 5.757812v34.644531c-6.699219 1.339844-12.871094 4.601563-17.753906 9.382813-9.871094 9.734375-12.878907 24.464844-7.617188 37.289062 5.257813 12.824219 17.746094 21.199219 31.605469 21.199219 13.863281 0 26.347656-8.375 31.609375-21.199219 5.261719-12.824218 2.25-27.554687-7.617187-37.289062-4.925782-4.984375-11.308594-8.269532-18.226563-9.382813v-28.402343h51.382813c3.3125 0 5.617187-2.925782 5.617187-6.242188v-37.757812h39v78.660156c-17.296875 3.105468-29.363281 18.90625-27.800781 36.414062 1.558594 17.507813 16.226562 30.925782 33.800781 30.925782 17.578125 0 32.246094-13.417969 33.804687-30.925782 1.5625-17.507812-10.503906-33.308594-27.804687-36.414062v-78.660156h39v37.757812c0 3.316406 2.308594 6.242188 5.621094 6.242188h51.378906v28.402343c-6.917969 1.113281-13.304687 4.398438-18.230469 9.382813-13.171875 13.238281-13.136718 34.644531.082032 47.835937 13.214843 13.195313 34.617187 13.195313 47.835937 0 13.214844-13.191406 13.253906-34.597656.082031-47.835937-4.890625-4.785156-11.0625-8.042969-17.769531-9.382813v-34.644531c0-3.3125-3.164063-5.757812-6.476563-5.757812h-50.523437v-32h91c3.589844 15.347656 17.300781 26.183593 33.0625 26.125 13.738281-.011719 26.117187-8.296876 31.363281-20.996094 5.242188-12.695313 2.324219-27.300782-7.402344-37.003906-13.230468-13.230469-35.023437-13.238282-48.023437 0v.164062c-5.058594 5.484375-8.378906 12.34375-9.554687 19.710938h-141.445313v-55.996094c66.722656-3.253906 118.664063-59.144532 117.035156-125.925782-1.628906-66.78125-56.230469-120.070312-123.035156-120.070312-66.800781 0-121.40625 53.289062-123.035156 120.070312-1.628907 66.78125 50.3125 122.671876 117.035156 125.925782v56h-141.445313c-.984374-7.441406-4.363281-14.363282-9.625-19.71875-13.238281-13.253906-34.707031-13.292969-47.988281-.085938-9.699219 9.695313-12.597656 24.28125-7.34375 36.949219 5.257813 12.667969 17.628907 20.917969 31.34375 20.898437zm95.476563 79.738282c.023437 12.082031-9.71875 21.914062-21.800782 22-12.082031.085937-21.960937-9.609376-22.101562-21.691407-.144532-12.082031 9.503906-22.007812 21.585937-22.210937.125.007812.253907.023437.382813.023437s.253906-.015625.382812-.023437c11.957032.1875 21.554688 9.9375 21.550782 21.902344zm107.519531 6.277343c.003906 9.925781-6.664063 18.617188-16.253907 21.1875-9.589843 2.566407-19.710937-1.625-24.671874-10.222656-4.964844-8.59375-3.535157-19.453125 3.484374-26.476563 3.984376-4 9.371094-6.292968 15.015626-6.398437.164062.011719.328124.023437.492187.023437.167969 0 .328125-.011718.492187-.023437 11.917969.25 21.449219 9.988281 21.441407 21.910156zm101.101562 9.230469c-6.980469 7.003906-17.78125 8.472656-26.378906 3.585938-8.59375-4.890626-12.855469-14.921876-10.40625-24.503907 2.449219-9.578125 11.007813-16.335937 20.890625-16.496093.128906.007812.253906.019531.382812.019531.128907 0 .257813-.011719.386719-.019531 8.800781.140624 16.664063 5.535156 19.960938 13.695312 3.300781 8.160156 1.394531 17.503906-4.835938 23.71875zm42.523438-144.6875c8.566406-8.566406 22.453125-8.566406 31.019531 0 8.566406 8.5625 8.566406 22.453125 0 31.019531-8.566406 8.5625-22.453125 8.5625-31.019531 0-8.550781-8.574219-8.550781-22.449219 0-31.019531zm-191.625-142.125c-6.988281-6.863281-10.925781-16.242188-10.933594-26.039062v-3.21875c24.53125-4.773438 45.910156-19.675782 58.875-41.042969 1.613281.585937 3.152344 1.359375 4.582031 2.308593 6.574219 4.375 10.476563 11.789063 10.363282 19.6875l.179687 4.214844v17.515625c.066406 14.964844-8.878906 28.503907-22.671875 34.3125-13.792969 5.8125-29.726562 2.757813-40.394531-7.742187zm75.066406-44-.160156-4.125c.238281-11.957031-5.636719-23.210938-15.582031-29.855469-4.007813-2.703125-8.582032-4.457031-13.367188-5.136719-2.476562-.34375-4.90625.875-6.113281 3.066407-19.199219 35.132812-53.113281 39.191406-55.914063 39.46875-3.792968.15625-6.808594 3.25-6.863281 7.046875v7.5c.03125 2.382812.234375 4.761718.609375 7.117187-4.4375-9.074219-6.945312-18.964843-7.359375-29.058593-.410156-9.246094 1.523437-18.449219 5.617187-26.753907 6.9375-13.921875 20.097657-24.558593 36.085938-29.179687 8.960938-2.773438 18.648438-1.972656 27.039062 2.230468 7.902344 4.113282 14.09375 10.898438 17.46875 19.144532l.222657.667968c.984375 2.945313 4.054687 4.65625 7.078125 3.9375 1.507812-.359374 9.300781-1.511718 14.363281 11.023438 5.085937 12.597656 4.792969 26.898438-.816406 40.289062-.878907 2.269532-1.875 4.492188-2.980469 6.660157.371094-2.1875.597656-4.398438.671875-6.617188zm-64 73.125v-8.921875c4 1.601563 9.601563 2.320313 14.867187 2.320313h.371094c5.015625 0 10-.804688 14.761719-2.375v9.65625c0 8.28125-6.714844 15-15 15-8.28125 0-15-6.71875-15-15zm-11.878906 6.398438c2.484375 12 13.535156 21.949218 26.75 21.949218 13.21875 0 24.269531-9.949218 26.753906-21.949218h12.914063c15.082031-.070313 27.804687 11.210937 29.539062 26.191406-40.464844 32.0625-97.667969 32.082031-138.15625.050781 1.734375-14.992187 14.449219-26.289063 29.542969-26.242187zm-84.191407-60.917969c.050782-50.117188 33.664063-93.992188 82.039063-107.09375 48.375-13.101563 99.53125 7.816406 124.867187 51.0625 25.335938 43.242187 18.574219 98.097656-16.507812 133.890625-5.53125-17.292969-21.632812-29.003906-39.789062-28.941406h-12.539063v-1.335938c4.164063-3.140625 8.070313-6.609375 11.679687-10.371094 10.800782-10.789062 18.789063-22.160156 23.664063-33.800781 6.835937-16.324219 7.164063-33.875.890625-49.417969-4.738281-11.75-13.464844-18.671875-23.105469-18.785156-10.265625-21.5-34.722656-32.238281-57.5-25.253906-19.199219 5.546875-35.050781 18.433594-43.484375 35.355468-4.921875 10.132813-7.207031 21.347657-6.640625 32.601563 1.171875 28.332031 16.5 54.699219 40.5 68.253906v2.753907h-12.539062c-18.15625-.058594-34.253907 11.652343-39.789063 28.941406-20.367187-20.796875-31.765625-48.75-31.746094-77.859375zm-85.503906 167.519531c7.398438-7.402344 18.996094-8.542969 27.695313-2.730469 8.703125 5.816407 12.082031 16.964844 8.078125 26.632813-4.003906 9.667968-14.28125 15.160156-24.546875 13.117187-10.261719-2.042969-17.652344-11.050781-17.652344-21.515625-.003906-5.816406 2.304687-11.398437 6.425781-15.503906zm0 0"/></svg>