<svg height="495pt" viewBox="-24 0 495 495.5" width="495pt" xmlns="http://www.w3.org/2000/svg"><path d="m11.25 474.5h421c4.417969 0 8-4.082031 8-8.5v-65c0-4.417969-3.582031-7.5-8-7.5h-47v-33.5c0-4.417969-3.582031-7.5-8-7.5h-46v-82.332031c0-4.421875-3.957031-7.667969-8.375-7.667969h-202c-2.046875-.0625-4.03125.730469-5.472656 2.179688-1.445313 1.453124-2.226563 3.441406-2.152344 5.488281v82.332031h-47c-4.417969 0-8 3.082031-8 7.5v33.5h-47c-4.417969 0-8 3.082031-8 7.5v65c0 4.417969 3.582031 8.5 8 8.5zm413-65v49h-39v-49zm-55-41v90h-38v-90zm-240-90h186v180h-186zm-55 90h39v90h-39zm-55 41h39v49h-39zm0 0"/><path d="m274.25 293.5c0-4.417969-3.582031-8-8-8h-88c-4.417969 0-8 3.582031-8 8v148c0 4.417969 3.582031 8 8 8h88c4.417969 0 8-3.582031 8-8zm-16 141h-72v-133h72zm0 0"/><path d="m245.25 327.5c0-4.417969-3.582031-8-8-8h-31c-4.417969 0-8 3.582031-8 8v82c0 4.417969 3.582031 8 8 8h31c4.417969 0 8-3.582031 8-8zm-31 8h15v66h-15zm0 0"/><path d="m117.875 257.5h208c2.644531-.113281 5.078125-1.476562 6.558594-3.671875 1.480468-2.195313 1.835937-4.960937.953125-7.457031l-23.101563-63.097656c-.15625-1.117188-.546875-2.1875-1.140625-3.144532l-45.757812-124.617187c-1.183594-3.097657-4.199219-5.109375-7.511719-5.011719h-4.394531c-2.398438-12.429688-11.898438-22.273438-24.230469-25.117188v-17.382812c0-4.417969-3.582031-8-8-8s-8 3.582031-8 8v17.636719c-11.753906 3.339843-20.695312 12.910156-23.230469 24.863281h-.144531c-3.3125-.105469-6.328125 1.902344-7.511719 5l-45.757812 124.726562c-.597657.921876-.984375 1.960938-1.140625 3.050782l-23.101563 63c-.898437 2.53125-.546875 5.339844.953125 7.566406 1.472656 2.203125 3.910156 3.5625 6.558594 3.65625zm52.589844-129h102.820312l17.445313 48h-137.710938zm49.285156-87.5c6.441406-.15625 12.335938 3.597656 14.921875 9.5h-29.84375c2.585937-5.902344 8.480469-9.65625 14.921875-9.5zm-26.289062 25.5h56.824218l17.136719 46h-91.09375zm-46.304688 126h149.4375l17.828125 49h-185.101563zm0 0"/><path d="m242.25 205.5c0-4.417969-3.582031-8-8-8h-24c-4.417969 0-8 3.582031-8 8v23c0 4.417969 3.582031 8 8 8h24c4.417969 0 8-3.582031 8-8zm-16 15h-8v-7h8zm0 0"/><path d="m242.25 141.5c0-4.417969-3.582031-8-8-8h-24c-4.417969 0-8 3.582031-8 8v23c0 4.417969 3.582031 8 8 8h24c4.417969 0 8-3.582031 8-8zm-24 8h8v7h-8zm0 0"/><path d="m242.25 78.5c0-4.417969-3.582031-8-8-8h-24c-4.417969 0-8 3.582031-8 8v23c0 4.417969 3.582031 8 8 8h24c4.417969 0 8-3.582031 8-8zm-24 8h8v6h-8zm0 0"/><path d="m8.25 495.5h430c4.417969 0 8-3.582031 8-8s-3.582031-8-8-8h-430c-4.417969 0-8 3.582031-8 8s3.582031 8 8 8zm0 0"/></svg>