<?xml version="1.0" encoding="iso-8859-1"?>
<!-- Generator: Adobe Illustrator 19.0.0, SVG Export Plug-In . SVG Version: 6.00 Build 0)  -->
<svg version="1.1" id="Capa_1" xmlns="http://www.w3.org/2000/svg" xmlns:xlink="http://www.w3.org/1999/xlink" x="0px" y="0px"
	 viewBox="0 0 512 512" style="enable-background:new 0 0 512 512;" xml:space="preserve">
<g>
	<g>
		<path d="M279.273,0h-46.545C152.524,0,87.273,65.251,87.273,145.455v221.091C87.273,446.749,152.524,512,232.727,512h46.545
			c80.204,0,145.455-65.251,145.455-145.455V145.455C424.727,65.251,359.476,0,279.273,0z M389.818,366.545
			c0,60.957-49.588,110.545-110.545,110.545h-46.545c-60.957,0-110.545-49.588-110.545-110.545V145.455
			c0-60.957,49.588-110.545,110.545-110.545h46.545c60.957,0,110.545,49.588,110.545,110.545V366.545z"/>
	</g>
</g>
<g>
	<g>
		<path d="M256,110.545c-25.449,0-45.382,19.933-45.382,45.382V204.8c0,25.449,19.933,45.382,45.382,45.382
			s45.382-19.933,45.382-45.382v-48.873C301.382,130.479,281.449,110.545,256,110.545z M266.473,204.8
			c0,6.068-4.404,10.473-10.473,10.473s-10.473-4.404-10.473-10.473v-48.873c0-6.068,4.404-10.473,10.473-10.473
			s10.473,4.404,10.473,10.473V204.8z"/>
	</g>
</g>
<g>
</g>
<g>
</g>
<g>
</g>
<g>
</g>
<g>
</g>
<g>
</g>
<g>
</g>
<g>
</g>
<g>
</g>
<g>
</g>
<g>
</g>
<g>
</g>
<g>
</g>
<g>
</g>
<g>
</g>
</svg>
