<?xml version="1.0"?>
<svg xmlns="http://www.w3.org/2000/svg" id="Layer_1" data-name="Layer 1" viewBox="0 0 512 512" width="512" height="512"><title>Graduation</title><path d="M364.19,16.085A6.253,6.253,0,0,0,359.864,14H117.032C113.719,14,111,17.172,111,20.486V55H77.032C73.719,55,71,58.144,71,61.458V491.514c0,3.314,2.719,6.486,6.032,6.486H394.968c3.313,0,6.032-3.172,6.032-6.486V457h33.968c3.313,0,6.032-3.144,6.032-6.458V98.633a6.31,6.31,0,0,0-1.69-4.279Zm1.81,19.3L420.879,93H366ZM389,486H83V67h28V450.542c0,3.314,2.719,6.458,6.032,6.458H389ZM123,445V26H354V98.633c0,3.313,2.55,6.367,5.864,6.367H429V445Z"/><path d="M376.7,375H169.486a6,6,0,0,0,0,12H376.7a6,6,0,0,0,0-12Z"/><path d="M169.486,336H289.528a6,6,0,0,0,0-12H169.486a6,6,0,0,0,0,12Z"/><path d="M382,200.547v-35.8c0-.179.143-.356.128-.531.007-.131.105-.259.1-.392a5.963,5.963,0,0,0-3.891-5.575l-106.89-39.3a5.963,5.963,0,0,0-4.13,0l-106.9,39.3a6,6,0,0,0-3.928,5.575,5.927,5.927,0,0,0,3.743,5.648L191,181.482V259.05a6.074,6.074,0,0,0,3.987,5.622,213.046,213.046,0,0,0,74.372,13.4,213.944,213.944,0,0,0,74.534-13.4A6.19,6.19,0,0,0,348,259.05V181.482l22-8.824v27.988a19.65,19.65,0,0,0-12.775,18.033,19.046,19.046,0,1,0,38.092,0A18.759,18.759,0,0,0,382,200.547Zm-179,54.29V232.871a214.377,214.377,0,0,0,133,0v21.966A202.45,202.45,0,0,1,203,254.837Zm133-34.628a202.456,202.456,0,0,1-133,0V186.153l64.142,24.931a6.226,6.226,0,0,0,2.217.409,7.127,7.127,0,0,0,2.379-.409L336,186.153Zm3.9-48.593a5.967,5.967,0,0,0-.807.314L269.4,199.054,199.706,171.93a5.916,5.916,0,0,0-.807-.314l-19.454-7.571L269.4,130.981l89.954,33.064Zm36.545,54.128a7.065,7.065,0,1,1,7.065-7.065A7.073,7.073,0,0,1,376.445,225.744Z"/></svg>
