<svg height="468pt" viewBox="0 -21 468 468" width="468pt" xmlns="http://www.w3.org/2000/svg"><path d="m253.066406 139.933594c3.09375 1.1875 6.566406-.351563 7.757813-3.445313 1.1875-3.09375-.351563-6.566406-3.445313-7.757812-11.527344-4.433594-24.375-3.917969-35.507812 1.433593-11.132813 5.351563-19.558594 15.0625-23.296875 26.835938h-7.574219c-3.3125 0-6 2.6875-6 6s2.6875 6 6 6h5.539062c-.015624.5-.035156 1-.035156 1.507812 0 1.171876.058594 2.335938.144532 3.492188h-5.648438c-3.3125 0-6 2.6875-6 6s2.6875 6 6 6h8.253906c4.15625 11.242188 12.644532 20.351562 23.566406 25.289062 10.921876 4.941407 23.367188 5.296876 34.558594.992188 3.089844-1.191406 4.632813-4.664062 3.441406-7.753906-1.191406-3.09375-4.664062-4.636719-7.753906-3.445313-15.425781 5.921875-32.847656-.535156-40.683594-15.082031h31.617188c3.3125 0 6-2.6875 6-6s-2.6875-6-6-6h-35.308594c-.125-1.160156-.1875-2.328125-.1875-3.492188 0-.5.011719-1.007812.035156-1.507812h40.460938c3.3125 0 6-2.6875 6-6s-2.6875-6-6-6h-37.59375c7.175781-15.824219 25.445312-23.308594 41.660156-17.066406zm0 0"/><path d="m427.191406 65h-98.191406v-22.9375c0-23.433594-18.542969-42.0625-41.046875-42.0625h-107.90625c-22.503906 0-41.046875 18.628906-41.046875 42.0625v22.9375h-98.191406c-22.5 0-40.808594 18.71875-40.808594 42.152344v276.785156c0 23.433594 18.308594 42.0625 40.808594 42.0625h386.382812c22.5 0 40.808594-18.628906 40.808594-42.0625v-276.785156c0-23.433594-18.308594-42.152344-40.808594-42.152344zm-276.191406-22.9375c0-16.816406 13.160156-30.0625 29.046875-30.0625h107.90625c15.886719 0 29.046875 13.246094 29.046875 30.0625v22.9375h-166zm276.191406 371.9375h-386.382812c-15.882813 0-28.808594-13.246094-28.808594-30.0625v-91.59375c7.476562 7.96875 17.882812 12.539062 28.808594 12.65625h136.191406v20.613281c0 3.3125 2.191406 6.386719 5.5 6.386719h103c3.3125 0 5.5-3.074219 5.5-6.386719v-20.613281h136.191406c10.925782-.117188 21.332032-4.6875 28.808594-12.65625v91.59375c0 16.816406-12.925781 30.0625-28.808594 30.0625zm-238.191406-94v-34h90v34zm267-57.726562c0 16.816406-12.925781 30.726562-28.808594 30.726562h-136.191406v-13.160156c0-3.3125-2.191406-5.839844-5.5-5.839844h-103c-3.3125 0-5.5 2.527344-5.5 5.839844v13.160156h-136.191406c-15.882813 0-28.808594-13.910156-28.808594-30.726562v-155.121094c0-16.816406 12.925781-30.152344 28.808594-30.152344h386.382812c15.882813 0 28.808594 13.335938 28.808594 30.152344zm0 0"/><path d="m234 90c-45.5625 0-82.5 36.9375-82.5 82.5s36.9375 82.5 82.5 82.5 82.5-36.9375 82.5-82.5c-.050781-45.542969-36.957031-82.449219-82.5-82.5zm0 153c-38.9375 0-70.5-31.5625-70.5-70.5s31.5625-70.5 70.5-70.5 70.5 31.5625 70.5 70.5c-.042969 38.917969-31.582031 70.457031-70.5 70.5zm0 0"/></svg>