<?xml version="1.0" encoding="iso-8859-1"?>
<!-- Generator: Adobe Illustrator 19.0.0, SVG Export Plug-In . SVG Version: 6.00 Build 0)  -->
<svg version="1.1" id="Capa_1" xmlns="http://www.w3.org/2000/svg" xmlns:xlink="http://www.w3.org/1999/xlink" x="0px" y="0px"
	 viewBox="0 0 512 512" style="enable-background:new 0 0 512 512;" xml:space="preserve">
<g>
	<g>
		<path d="M256,0c-52.383,0-95.004,42.621-95.004,95.004v160.427c0,52.389,42.621,95.004,95.004,95.004
			c52.389,0,95.004-42.877,95.004-95.573V95.004C351.004,42.621,308.389,0,256,0z M316.871,254.862
			c0,33.877-27.307,61.44-60.871,61.44s-60.871-27.307-60.871-60.871V95.004c0-33.564,27.307-60.871,60.871-60.871
			s60.871,27.307,60.871,60.871V254.862z"/>
	</g>
</g>
<g>
	<g>
		<rect x="238.933" y="397.084" width="34.133" height="101.262"/>
	</g>
</g>
<g>
	<g>
		<path d="M318.009,477.867H193.991c-9.426,0-17.067,7.64-17.067,17.067S184.565,512,193.991,512h124.012
			c9.432,0,17.072-7.64,17.072-17.067S327.435,477.867,318.009,477.867z"/>
	</g>
</g>
<g>
	<g>
		<path d="M393.671,174.08c-9.426,0-17.067,7.64-17.067,17.067v64.284c0,66.503-54.107,120.604-120.604,120.604
			c-66.503,0-120.604-54.101-120.604-120.604v-64.284c0-9.427-7.64-17.067-17.067-17.067c-9.426,0-17.067,7.64-17.067,17.067v64.284
			c0,85.322,69.416,154.738,154.738,154.738s154.738-69.422,154.738-154.738v-64.284C410.738,181.72,403.098,174.08,393.671,174.08z
			"/>
	</g>
</g>
<g>
	<g>
		<path d="M270.791,101.262h-29.582c-9.426,0-17.067,7.64-17.067,17.067c0,9.427,7.64,17.067,17.067,17.067h29.582
			c9.426,0,17.067-7.64,17.067-17.067C287.858,108.902,280.218,101.262,270.791,101.262z"/>
	</g>
</g>
<g>
	<g>
		<path d="M270.791,158.151h-29.582c-9.426,0-17.067,7.64-17.067,17.067s7.64,17.067,17.067,17.067h29.582
			c9.426,0,17.067-7.64,17.067-17.067C287.858,165.791,280.218,158.151,270.791,158.151z"/>
	</g>
</g>
<g>
	<g>
		<path d="M270.791,215.04h-29.582c-9.426,0-17.067,7.64-17.067,17.067c0,9.426,7.64,17.067,17.067,17.067h29.582
			c9.426,0,17.067-7.64,17.067-17.067C287.858,222.68,280.218,215.04,270.791,215.04z"/>
	</g>
</g>
<g>
</g>
<g>
</g>
<g>
</g>
<g>
</g>
<g>
</g>
<g>
</g>
<g>
</g>
<g>
</g>
<g>
</g>
<g>
</g>
<g>
</g>
<g>
</g>
<g>
</g>
<g>
</g>
<g>
</g>
</svg>
