<svg height="483pt" viewBox="0 -9 483.88269 483" width="483pt" xmlns="http://www.w3.org/2000/svg"><path d="m360.859375.441406c-50.84375.039063-96.441406 31.292969-114.824219 78.695313h-239.960937c-3.359375.074219-6.0507815 2.808593-6.07031275 6.171875v72.289062c-.04687505 1.523438.49999975 3.011719 1.53124975 4.140625l133.46875 140.105469v157.902344c.121094 3.453125 2.871094 6.234375 6.324219 6.390625h119.0625c3.3125 0 5.613281-3.078125 5.613281-6.390625v-157.902344l58.089844-60.71875c11.875 3.6875 24.234375 5.554688 36.667969 5.546875 67.863281 0 123.121093-55.253906 123.121093-123.117187 0-67.863282-55.164062-123.113282-123.023437-123.113282zm-118.765625 90.695313c-2.882812 10.585937-4.332031 21.511719-4.308594 32.484375.007813 9.253906 1.035156 18.484375 3.0625 27.515625h-228.84375v-60zm13.761719 204.164062c-1.121094 1.097657-1.78125 2.578125-1.851563 4.140625v154.695313h-107v-154.695313c.054688-1.488281-.484375-2.941406-1.5-4.03125l-126.058594-132.273437h224.785157c11.203125 32.960937 35.796875 59.664062 67.722656 73.539062zm41.058593-132.425781c-.78125-7.589844 1.683594-15.152344 6.789063-20.820312 5.105469-5.667969 12.371094-8.90625 20-8.917969h2.925781l8.5625 26.328125c.730469 2.238281 2.695313 3.84375 5.03125 4.113281.25.027344.503906.042969.757813.042969l-7.128907 66.386718c-.03125.445313-.007812.894532.0625 1.335938-13.25-3.328125-25.769531-9.09375-36.910156-17v-50.863281c0-.203125-.070312-.40625-.089844-.605469zm55.046876 71.4375-5.875-5.871094 8.253906-76.835937 6.136718-6.855469 6.957032 7.398438 8.195312 76.289062-5.875 5.875c-2.933594.234375-5.898437.351562-8.898437.355469-3 .003906-5.964844-.113281-8.894531-.355469zm72.984374-71.4375c.007813.199219.027344.402344.058594.605469v50.867187c-11.195312 7.910156-23.761718 13.671875-37.054687 17 .035156-.441406.023437-.890625-.039063-1.332031l-7.152344-66.398437c.433594.007812.867188-.03125 1.292969-.113282 2.042969-.433594 3.71875-1.898437 4.417969-3.867187l9.511719-26.5h2.042969c7.640624.003906 14.921874 3.238281 20.050781 8.902343 5.125 5.664063 7.621093 13.230469 6.871093 20.835938zm12.058594 41.671875v-40.777344c.976563-10.941406-2.6875-21.792969-10.101562-29.902343-7.414063-8.109376-17.894532-12.726563-28.878906-12.730469h-6.261719c-2.535157.007812-4.792969 1.605469-5.648438 3.992187l-7.628906 21.246094-13.746094-14.617188c-1.152343-1.222656-2.761719-1.910156-4.445312-1.886718-1.679688.019531-3.273438.746094-4.394531 2l-12.519532 13.988281-6.6875-20.558594c-.800781-2.476562-3.101562-4.152343-5.699218-4.164062h-7.289063c-10.960937.015625-21.40625 4.648437-28.773437 12.761719-7.367188 8.117187-10.972657 18.960937-9.925782 29.871093v40.777344c-22.578125-20.84375-35.339844-50.222656-35.160156-80.949219.054688-61.308594 49.734375-111 111.042969-111.070312 61.246093 0 111.144531 49.824218 111.144531 111.070312 0 31.886719-14.027344 60.671875-35.027344 80.949219zm0 0"/><path d="m397.003906 73.636719c0-20.710938-16.789062-37.5-37.5-37.5-20.710937 0-37.5 16.789062-37.5 37.5v13c0 20.710937 16.789063 37.5 37.5 37.5 20.710938 0 37.5-16.789063 37.5-37.5zm-12 13c0 14.082031-11.417968 25.5-25.5 25.5-14.085937 0-25.5-11.417969-25.5-25.5v-13c0-14.082031 11.414063-25.5 25.5-25.5 14.082032 0 25.5 11.417969 25.5 25.5zm0 0"/></svg>