<svg id="Layer_1" height="512" viewBox="0 0 512 512" width="512" xmlns="http://www.w3.org/2000/svg" data-name="Layer 1"><path d="m468.6 111.454a6 6 0 0 0 0-8.485l-56.528-56.528a6 6 0 0 0 -8.485 0l-2.816 2.816-15.577-15.577-8.485 8.486 15.577 15.577-8.486 8.485-15.576-15.577-8.486 8.485 15.577 15.577-10.607 10.607-15.576-15.577-8.486 8.485 15.577 15.577-3.743 3.743a6 6 0 0 0 0 8.486l11.244 11.244-74.475 74.475a112.706 112.706 0 0 0 -139.375 14.708 111.406 111.406 0 0 0 -23.666 34.268 56.6 56.6 0 0 1 -28.914 28.913 112.224 112.224 0 1 0 147.772 148.85 59.923 59.923 0 0 1 29.992-29.992 112.327 112.327 0 0 0 48.252-162.73l74.453-74.453 11.244 11.244a6 6 0 0 0 8.486 0l3.743-3.743 15.577 15.582 8.485-8.486-15.577-15.577 10.607-10.606 15.577 15.569 8.485-8.486-15.577-15.576 8.485-8.486 15.577 15.578 8.486-8.486-15.577-15.574zm-139.964 182.824a100.1 100.1 0 0 1 -58.513 83.284 71.909 71.909 0 0 0 -36 35.994 99.505 99.505 0 0 1 -20.423 29.527c-38.7 38.7-101.962 39.012-141.029.7a100.224 100.224 0 0 1 29.479-163.167 68.569 68.569 0 0 0 35.032-35.032 99.807 99.807 0 0 1 83.939-59.1 100.947 100.947 0 0 1 59.405 13.993l-126.5 126.5a41.528 41.528 0 0 0 -47.921 47.923l-12.82 12.821a24.069 24.069 0 0 0 34.039 34.039l12.821-12.821a41.89 41.89 0 0 0 6.941.591 41.527 41.527 0 0 0 40.981-48.513l126.519-126.52a100.554 100.554 0 0 1 14.05 59.781zm-210.959 103.086a41.456 41.456 0 0 0 9.8 7.267l-8.64 8.64a12.069 12.069 0 0 1 -17.066-17.071l8.639-8.639a41.5 41.5 0 0 0 7.267 9.803zm8.486-8.486a29.59 29.59 0 1 1 20.923 8.667 29.393 29.393 0 0 1 -20.923-8.667zm57.6-40.531a41.542 41.542 0 0 0 -17.068-17.068l205.514-205.516 17.069 17.069zm181.445-246.556 42.622-42.622 48.042 48.042-42.622 42.622z"/><path d="m63.29 133.958a25.776 25.776 0 0 0 12.577 3.2 28.057 28.057 0 0 0 5.471-.542c13.418-2.662 22.452-14.508 20.091-26.407a24.183 24.183 0 0 0 -2.429-6.355v-55.404l51-7.85v37.283a26.218 26.218 0 0 0 -13.411-.731c-13.417 2.662-22.322 14.508-19.961 26.407 2.039 10.281 11.943 17.289 23.241 17.289a28.072 28.072 0 0 0 5.441-.536c13.417-2.662 22.243-14.508 19.883-26.408-.523-2.633-1.193-5.08-3.193-7.265v-53.027a5.728 5.728 0 0 0 -6.633-5.931l-63.356 9.684a5.928 5.928 0 0 0 -5.011 5.935v51.087a26.865 26.865 0 0 0 -14.186-.934c-13.414 2.662-22.431 14.508-20.071 26.408a20.677 20.677 0 0 0 10.547 14.097zm79.71-25.416c-6.927 1.372-13.436-1.909-14.509-7.318s3.689-10.927 10.616-12.3a16.224 16.224 0 0 1 3.145-.313 13.768 13.768 0 0 1 6.721 1.676 8.91 8.91 0 0 1 4.644 5.954c1.071 5.407-3.692 10.926-10.617 12.301zm-67.887-3.318c6.924-1.37 13.436 1.909 14.509 7.317s-3.691 10.927-10.622 12.302a14.483 14.483 0 0 1 -9.865-1.363 8.9 8.9 0 0 1 -4.644-5.954c-1.07-5.409 3.693-10.926 10.62-12.302z"/><path d="m227.625 104.868a17.38 17.38 0 0 0 5.267 26.553 21.674 21.674 0 0 0 10.574 2.69 23.6 23.6 0 0 0 4.577-.452c11.305-2.243 19.1-12.286 17.1-22.389a19.647 19.647 0 0 0 -2.143-5.809v-41.723a6.367 6.367 0 0 0 -7.25-5.931l-50.462 7.673a6.175 6.175 0 0 0 -5.288 5.932v38.8a22.125 22.125 0 0 0 -10.071-.275h.071c-11.3 2.243-18.839 12.286-16.835 22.389 1.734 8.739 10.086 14.7 19.622 14.7a23.446 23.446 0 0 0 4.542-.448 22.229 22.229 0 0 0 13.153-7.853 17.777 17.777 0 0 0 3.585-14.536 15.077 15.077 0 0 0 -2.067-5.108v-42.516l39-5.842v26.444a24.142 24.142 0 0 0 -10-.151h-.115a22.5 22.5 0 0 0 -13.26 7.852zm-26.546 26.4a10.363 10.363 0 0 1 -6.079 3.537c-4.733.939-9.328-1.268-10.032-4.818s2.7-7.344 7.433-8.283a11.344 11.344 0 0 1 2.214-.219 9.8 9.8 0 0 1 4.753 1.164 5.414 5.414 0 0 1 1.711 8.622zm35.951-18.948a10.362 10.362 0 0 1 6.078-3.533 11.344 11.344 0 0 1 2.214-.219 9.8 9.8 0 0 1 4.753 1.164 5.952 5.952 0 0 1 3.065 3.873c.7 3.551-2.7 7.344-7.433 8.283a10.35 10.35 0 0 1 -6.967-.946 5.414 5.414 0 0 1 -1.711-8.622z"/><path d="m46.322 223.738a18.078 18.078 0 0 0 3.5-.346c8.846-1.756 14.91-9.7 13.321-17.711-.258-1.3-1.147-2.513-1.147-3.642v-27.523l23-3.5v14.1a18.871 18.871 0 0 0 -5.507.243 17.511 17.511 0 0 0 -10.313 6.116 13.873 13.873 0 0 0 4.13 21.187 16.854 16.854 0 0 0 8.229 2.1 18.109 18.109 0 0 0 3.53-.35 17.258 17.258 0 0 0 10.217-6.112 14.364 14.364 0 0 0 3.138-11.594c-.3-1.494-1.42-2.917-1.42-4.224v-28.452a6.308 6.308 0 0 0 -7.2-5.931l-34.821 5.332a5.9 5.9 0 0 0 -4.979 5.931v24.775a18.607 18.607 0 0 0 -5.779.2h-.08c-8.847 1.756-14.79 9.7-13.2 17.711 1.375 6.942 7.896 11.69 15.381 11.69zm39.552-22.89a5.7 5.7 0 0 1 -6.739 1.337 1.956 1.956 0 0 1 -.646-3.257 5.348 5.348 0 0 1 3.145-1.8 6.151 6.151 0 0 1 1.192-.118 4.949 4.949 0 0 1 2.4.578 1.957 1.957 0 0 1 .646 3.257zm-39.474 5.259c2.447-.483 4.562.608 4.82 1.909s-1.28 3.12-3.726 3.605-4.562-.608-4.82-1.909 1.277-3.12 3.726-3.605z"/></svg>