<svg height="475pt" viewBox="0 -1 475.00782 475" width="475pt" xmlns="http://www.w3.org/2000/svg"><path d="m467.5 113.011719h-37.5v-21.5c.09375-2.015625-.664062-3.980469-2.09375-5.40625-1.425781-1.425781-3.390625-2.1875-5.40625-2.09375h-22.5v-20.5c0-4.417969-4-7.5-8.417969-7.5h-26.582031v-20.5c0-4.417969-4-7.5-8.417969-7.5h-26.582031v-20.5c0-4.417969-4-7.5000002-8.417969-7.5000002h-159c-2.023437-.0976563-3.996093.6601562-5.4375 2.0859372-1.441406 1.425782-2.21875 3.390625-2.144531 5.414063v20.5h-27.417969c-2.023437-.097657-3.996093.660156-5.4375 2.085937-1.441406 1.425782-2.21875 3.390625-2.144531 5.414063v20.5h-27.417969c-2.023437-.097657-3.996093.660156-5.4375 2.085937-1.441406 1.425782-2.21875 3.390625-2.144531 5.414063v20.5h-31.5c-4.417969 0-8.5 3.082031-8.5 7.5v21.5h-36.5c-4.417969 0-8.5 3.082031-8.5 7.5v28c.195312 4.613281 3.886719 8.304687 8.5 8.5h27.5v270h-27.5c-4.417969 0-8.5 3.082031-8.5 7.5v30c.195312 4.613281 3.886719 8.304687 8.5 8.5h459c4.417969 0 7.5-4.082031 7.5-8.5v-30c.09375-2.015625-.664062-3.980469-2.09375-5.40625-1.425781-1.425781-3.390625-2.1875-5.40625-2.09375h-27.5v-270h27.5c4.417969 0 7.5-4.082031 7.5-8.5v-28c.09375-2.015625-.664062-3.980469-2.09375-5.40625-1.425781-1.425781-3.390625-2.1875-5.40625-2.09375zm-296.5-97h143v12h-143zm-35 28h213v12h-213zm-35 28h283v12h-283zm-40 28h353v13h-353zm398 357h-443v-14h443zm-310-30h-60v-48.5c0-16.566407 13.429688-30 30-30s30 13.433593 30 30zm275 0h-259v-48.5c0-25.40625-20.59375-46-46-46s-46 20.59375-46 46v48.5h-21v-270h372zm35-286h-443v-12h443zm0 0"/><path d="m130 185.011719c0-4.417969-3.582031-8-8-8h-43c-4.417969 0-8 3.582031-8 8v41c0 4.417969 3.582031 8 8 8h43c4.417969 0 8-3.582031 8-8zm-43 8h27v24h-27zm0 0"/><path d="m200 185.011719c0-4.417969-3.582031-8-8-8h-43c-4.417969 0-8 3.582031-8 8v41c0 4.417969 3.582031 8 8 8h43c4.417969 0 8-3.582031 8-8zm-43 8h27v24h-27zm0 0"/><path d="m269 185.011719c0-4.417969-3.582031-8-8-8h-43c-4.417969 0-8 3.582031-8 8v41c0 4.417969 3.582031 8 8 8h43c4.417969 0 8-3.582031 8-8zm-43 8h27v24h-27zm0 0"/><path d="m338 185.011719c0-4.417969-3.582031-8-8-8h-43c-4.417969 0-8 3.582031-8 8v41c0 4.417969 3.582031 8 8 8h43c4.417969 0 8-3.582031 8-8zm-43 8h27v24h-27zm0 0"/><path d="m130 269.011719c0-4.417969-3.582031-8-8-8h-43c-4.417969 0-8 3.582031-8 8v41c0 4.417969 3.582031 8 8 8h43c4.417969 0 8-3.582031 8-8zm-43 8h27v24h-27zm0 0"/><path d="m200 269.011719c0-4.417969-3.582031-8-8-8h-43c-4.417969 0-8 3.582031-8 8v41c0 4.417969 3.582031 8 8 8h43c4.417969 0 8-3.582031 8-8zm-43 8h27v24h-27zm0 0"/><path d="m269 269.011719c0-4.417969-3.582031-8-8-8h-43c-4.417969 0-8 3.582031-8 8v41c0 4.417969 3.582031 8 8 8h43c4.417969 0 8-3.582031 8-8zm-43 8h27v24h-27zm0 0"/><path d="m338 269.011719c0-4.417969-3.582031-8-8-8h-43c-4.417969 0-8 3.582031-8 8v41c0 4.417969 3.582031 8 8 8h43c4.417969 0 8-3.582031 8-8zm-43 8h27v24h-27zm0 0"/><path d="m269 353.011719c0-4.417969-3.582031-8-8-8h-43c-4.417969 0-8 3.582031-8 8v41c0 4.417969 3.582031 8 8 8h43c4.417969 0 8-3.582031 8-8zm-43 8h27v25h-27zm0 0"/><path d="m338 353.011719c0-4.417969-3.582031-8-8-8h-43c-4.417969 0-8 3.582031-8 8v41c0 4.417969 3.582031 8 8 8h43c4.417969 0 8-3.582031 8-8zm-43 8h27v25h-27zm0 0"/><path d="m407 185.011719c0-4.417969-3.582031-8-8-8h-43c-4.417969 0-8 3.582031-8 8v41c0 4.417969 3.582031 8 8 8h43c4.417969 0 8-3.582031 8-8zm-43 8h27v24h-27zm0 0"/><path d="m407 269.011719c0-4.417969-3.582031-8-8-8h-43c-4.417969 0-8 3.582031-8 8v41c0 4.417969 3.582031 8 8 8h43c4.417969 0 8-3.582031 8-8zm-43 8h27v24h-27zm0 0"/><path d="m407 353.011719c0-4.417969-3.582031-8-8-8h-43c-4.417969 0-8 3.582031-8 8v41c0 4.417969 3.582031 8 8 8h43c4.417969 0 8-3.582031 8-8zm-43 8h27v25h-27zm0 0"/></svg>