<svg height="458pt" viewBox="0 -50 458.00438 458" width="458pt" xmlns="http://www.w3.org/2000/svg"><path d="m3.820312 308.328125c-.277343 2.144531.320313 4.3125 1.664063 6.007813 1.34375 1.691406 3.320313 2.773437 5.46875 2.988281l404.753906 40.625c.269531.023437.535157.039062.800781.039062 2.152344.003907 4.214844-.863281 5.71875-2.402343 1.503907-1.542969 2.320313-3.625 2.261719-5.777344l32.167969-110.058594c1.042969-1.558594 1.503906-3.4375 1.300781-5.300781l-4-37c-.476562-4.394531-4.421875-7.570313-8.8125-7.09375-4.394531.472656-7.570312 4.421875-7.09375 8.8125l1.292969 11.964843-185.949219-207.015624c-1.300781-2.347657-3.691406-3.882813-6.367187-4.0898442-2.675782-.2070318-5.273438.9414062-6.921875 3.0585942l-222.582031 285.847656-1.578126-12.613282c-.335937-2.851562-2.175781-5.304687-4.820312-6.429687-2.640625-1.121094-5.683594-.742187-7.96875.996094s-3.464844 4.570312-3.0859375 7.417969zm417.425782-4.441406-.253906-4.074219c-.316407-4.378906-4.101563-7.683594-8.480469-7.410156-4.378907.273437-7.722657 4.027344-7.488281 8.410156l.578124 9.285156-125.464843-252.265625 160.726562 178.933594zm-196.152344-255.476563c-3.6875 8.25-5.46875 17.230469-5.203125 26.269532.472656 16.597656 6.8125 24.992187 12.410156 32.398437 4.949219 6.546875 8.855469 11.71875 9.183594 23.207031.332031 11.488282-3.277344 16.875-7.84375 23.691406-5.164063 7.714844-11.015625 16.457032-10.542969 33.054688.125 4.324219 3.667969 7.769531 7.996094 7.769531h.230469c4.417969-.125 7.894531-3.808593 7.769531-8.222656-.328125-11.488281 3.277344-16.875 7.84375-23.695313 5.164062-7.710937 11.015625-16.453124 10.542969-33.050781-.472657-16.597656-6.820313-24.992187-12.414063-32.398437-4.949218-6.546875-8.855468-11.71875-9.183594-23.207032-.34375-11.957031 3.773438-19.824218 8.535157-28.929687 1.933593-3.695313 3.964843-7.582031 5.710937-11.867187l152.765625 307.152343-375.929687-37.734375zm0 0"/></svg>