<?xml version="1.0"?>
<svg xmlns="http://www.w3.org/2000/svg" id="Layer_1" data-name="Layer 1" viewBox="0 0 512 512" width="512" height="512"><title>Id</title><path d="M356,123a6,6,0,0,0-6-6H161a6,6,0,0,0-6,6V324a6,6,0,0,0,6,6H350a6,6,0,0,0,6-6Zm-189,6H345V318H167Z"/><path d="M349.554,424H162.668a6,6,0,0,0,0,12H349.554a6,6,0,0,0,0-12Z"/><path d="M162.668,393H277.7a6,6,0,0,0,0-12H162.668a6,6,0,0,0,0,12Z"/><path d="M302.318,20H209.682A5.433,5.433,0,0,0,204,25.634V46H101.372A6.545,6.545,0,0,0,95,52.248V486.366c0,3.313,3.059,5.634,6.372,5.634H410.628c3.313,0,6.372-2.321,6.372-5.634V52.248A6.545,6.545,0,0,0,410.628,46H308V25.634A5.433,5.433,0,0,0,302.318,20ZM216,32h80V69H216ZM405,58V480H107V58h97V75.416A5.393,5.393,0,0,0,209.682,81h92.636A5.393,5.393,0,0,0,308,75.416V58Z"/></svg>
