<svg height="483pt" viewBox="0 -9 483.88269 483" width="483pt" xmlns="http://www.w3.org/2000/svg"><path d="m360.859375.441406c-50.84375.039063-96.441406 31.292969-114.824219 78.695313h-239.960937c-3.359375.074219-6.0507815 2.808593-6.07031275 6.171875v72.289062c-.04687505 1.523438.49999975 3.011719 1.53124975 4.140625l133.46875 140.105469v157.902344c.121094 3.453125 2.871094 6.234375 6.324219 6.390625h119.0625c3.3125 0 5.613281-3.078125 5.613281-6.390625v-157.902344l58.089844-60.71875c11.871094 3.6875 24.234375 5.554688 36.667969 5.546875 67.863281 0 123.121093-55.253906 123.121093-123.117187 0-67.863282-55.164062-123.113282-123.023437-123.113282zm-118.765625 90.695313c-2.882812 10.585937-4.332031 21.511719-4.308594 32.484375.007813 9.253906 1.035156 18.484375 3.0625 27.515625h-228.84375v-60zm13.761719 204.164062c-1.121094 1.097657-1.78125 2.578125-1.851563 4.140625v154.695313h-107v-154.695313c.054688-1.488281-.484375-2.941406-1.5-4.03125l-126.058594-132.273437h224.785157c11.203125 32.960937 35.796875 59.664062 67.722656 73.539062zm105-60.628906c-61.34375-.003906-111.070313-49.734375-111.070313-111.078125.003906-61.339844 49.734375-111.066406 111.074219-111.066406 61.34375 0 111.070313 49.726562 111.070313 111.070312-.070313 61.316406-49.757813 111.003906-111.070313 111.074219zm0 0"/><path d="m400.003906 72.136719v-1.988281c0-11.171876-9.582031-20.011719-20.753906-20.011719h-36.785156c-11.175782-.121094-20.335938 8.835937-20.460938 20.011719v1.988281h-25.847656c-11.707031.09375-21.148438 9.609375-21.152344 21.316406v19.089844c-.082031 5.671875 3 10.917969 8 13.605469v53.808593c.03125 4.589844 1.886719 8.980469 5.15625 12.203125 3.273438 3.222656 7.691406 5.011719 12.28125 4.976563h120.832032c9.570312 0 17.730468-7.609375 17.730468-17.179688v-53.640625c4-2.152344 8-7.015625 8-12.390625v-20.472656c-.140625-11.761719-9.679687-21.246094-21.441406-21.316406zm-66-1.988281c.058594-2.183594.980469-4.257813 2.570313-5.761719 1.585937-1.5 3.707031-2.3125 5.890625-2.25h36.785156c4.550781 0 8.753906 3.453125 8.753906 8.011719v1.988281h-54zm87.269532 114.988281h-120.832032c-1.410156.039062-2.777344-.484375-3.800781-1.457031-1.019531-.972657-1.609375-2.3125-1.636719-3.722657v-49.8125l44 13.21875v1.5c0 12.152344 9.847656 22 22 22 12.148438 0 22-9.847656 22-22v-2.089843l44-12.792969v49.972656c0 2.957031-2.777344 5.183594-5.730468 5.183594zm-70.269532-40.269531v-11.730469h20v11.730469c.113282 3.648437-1.765625 7.070312-4.90625 8.929687-3.144531 1.855469-7.046875 1.855469-10.1875 0-3.140625-1.859375-5.023437-5.28125-4.90625-8.929687zm84-51.414063v20.472656c-.109375.730469-.652344 1.328125-1.371094 1.503907l-50.628906 14.839843v-3.316406c.03125-1.554687-.570312-3.054687-1.667968-4.152344-1.097657-1.097656-2.597657-1.699219-4.148438-1.664062h-32.65625c-3.316406 0-5.527344 2.5-5.527344 5.816406v3.867187l-49.273437-14.917968c-1.53125-.421875-2.628907-1.773438-2.726563-3.359375v-19.089844c-.003906-5.082031 4.070313-9.230469 9.152344-9.316406h129.40625c5.136719.0625 9.308594 4.179687 9.441406 9.316406zm0 0"/></svg>