<?xml version="1.0" encoding="iso-8859-1"?>
<!-- Generator: Adobe Illustrator 19.0.0, SVG Export Plug-In . SVG Version: 6.00 Build 0)  -->
<svg version="1.1" id="Capa_1" xmlns="http://www.w3.org/2000/svg" xmlns:xlink="http://www.w3.org/1999/xlink" x="0px" y="0px"
	 viewBox="0 0 512 512" style="enable-background:new 0 0 512 512;" xml:space="preserve">
<g>
	<g>
		<path d="M421.915,135.697H17.105C7.657,135.697,0,143.354,0,152.802v279.947c0,9.448,7.657,17.105,17.105,17.105h404.811
			c9.447,0,17.105-7.657,17.105-17.105V152.802C439.02,143.354,431.363,135.697,421.915,135.697z M404.811,415.644H34.209V169.906
			h370.601V415.644z"/>
	</g>
</g>
<g>
	<g>
		<path d="M411.892,139.272L221.22,303.551L30.549,139.266L8.222,165.186l201.835,173.898c3.204,2.771,7.184,4.151,11.164,4.151
			c3.98,0,7.954-1.38,11.164-4.145l201.835-173.898L411.892,139.272z"/>
	</g>
</g>
<g>
	<g>
		
			<rect x="336.898" y="246.763" transform="matrix(0.7615 -0.6481 0.6481 0.7615 -143.9329 313.4539)" width="34.202" height="211.12"/>
	</g>
</g>
<g>
	<g>
		
			<rect x="-20.714" y="335.221" transform="matrix(0.6465 -0.7629 0.7629 0.6465 -238.8631 189.1376)" width="210.762" height="34.209"/>
	</g>
</g>
<g>
	<g>
		<path d="M494.895,62.147H90.085c-9.447,0-17.105,7.657-17.105,17.105v73.55h34.209V96.356h370.601v245.737h-55.305v34.209h72.41
			c9.447,0,17.105-7.657,17.105-17.105V79.252C512,69.804,504.343,62.147,494.895,62.147z"/>
	</g>
</g>
<g>
</g>
<g>
</g>
<g>
</g>
<g>
</g>
<g>
</g>
<g>
</g>
<g>
</g>
<g>
</g>
<g>
</g>
<g>
</g>
<g>
</g>
<g>
</g>
<g>
</g>
<g>
</g>
<g>
</g>
</svg>
