<?xml version="1.0" encoding="iso-8859-1"?>
<!-- Generator: Adobe Illustrator 19.0.0, SVG Export Plug-In . SVG Version: 6.00 Build 0)  -->
<svg version="1.1" id="Capa_1" xmlns="http://www.w3.org/2000/svg" xmlns:xlink="http://www.w3.org/1999/xlink" x="0px" y="0px"
	 viewBox="0 0 512 512" style="enable-background:new 0 0 512 512;" xml:space="preserve">
<g>
	<g>
		<path d="M376.471,0H136.109c-9.597,0-17.376,7.778-17.376,17.376v90.932c0,9.597,7.778,17.376,17.376,17.376h240.362
			c9.597,0,17.376-7.779,17.376-17.376V17.376C393.846,7.778,386.068,0,376.471,0z M359.095,90.932H153.484V34.751h205.611V90.932z"
			/>
	</g>
</g>
<g>
	<g>
		<path d="M425.244,200.375l-56.303-46.92v-45.727H334.19v53.864c0,5.155,2.294,10.049,6.249,13.344l56.303,46.92v255.392H115.258
			V221.863l56.297-46.92c3.962-3.301,6.255-8.195,6.255-13.35v-53.864h-34.751v45.721l-56.297,46.92
			c-3.962,3.301-6.255,8.195-6.255,13.35v280.905c0,9.597,7.779,17.376,17.376,17.376h316.235c9.597,0,17.376-7.773,17.376-17.37
			V213.725C431.493,208.57,429.205,203.676,425.244,200.375z"/>
	</g>
</g>
<g>
	<g>
		<path d="M334.769,238.624H176.652c-9.597,0-17.376,7.778-17.376,17.376v156.38c0,9.597,7.779,17.376,17.376,17.376h158.123
			c9.597,0,17.376-7.778,17.37-17.376V256C352.145,246.403,344.366,238.624,334.769,238.624z M317.394,395.005H194.027V273.376
			h123.367V395.005z"/>
	</g>
</g>
<g>
</g>
<g>
</g>
<g>
</g>
<g>
</g>
<g>
</g>
<g>
</g>
<g>
</g>
<g>
</g>
<g>
</g>
<g>
</g>
<g>
</g>
<g>
</g>
<g>
</g>
<g>
</g>
<g>
</g>
</svg>
