<svg height="483pt" viewBox="0 -9 483.88269 483" width="483pt" xmlns="http://www.w3.org/2000/svg"><path d="m141.328125 466.136719h119.0625c3.3125 0 5.613281-3.078125 5.613281-6.390625v-157.902344l58.089844-60.71875c11.875 3.6875 24.234375 5.554688 36.667969 5.546875 67.863281 0 123.121093-55.210937 123.121093-123.074219 0-67.859375-55.1875-123.15625-123.050781-123.15625-50.832031.039063-96.425781 31.292969-114.796875 78.695313h-239.960937c-3.359375.074219-6.0507815 2.808593-6.07031275 6.171875v72.289062c-.04687505 1.523438.49999975 3.011719 1.53124975 4.140625l133.46875 140.105469v157.902344c.121094 3.453125 2.871094 6.234375 6.324219 6.390625zm150.453125-255.617188c1.71875-15.019531 14.421875-26.367187 29.539062-26.382812h12.65625c2.484376 12 13.535157 21.949219 26.753907 21.949219 13.214843 0 24.265625-9.949219 26.75-21.949219h12.914062c15.117188.015625 27.824219 11.363281 29.542969 26.382812-40.417969 32.210938-97.738281 32.210938-138.15625 0zm43.082031-61.28125c-6.972656-6.96875-10.882812-16.425781-10.859375-26.28125v-3.21875c24.507813-4.785156 45.859375-19.6875 58.796875-41.042969 1.605469.582032 3.128907 1.359376 4.546875 2.308594 6.460938 4.429688 10.203125 11.859375 9.917969 19.6875l-.261719 4.210938v17.515625c.023438 20.179687-15.84375 36.804687-36 37.71875h-.277344c-9.726562-.066407-19.027343-3.984375-25.863281-10.898438zm74.140625-44.246093.265625-4.125c.316407-11.925782-5.476562-23.1875-15.367187-29.855469-3.972656-2.699219-8.507813-4.457031-13.261719-5.140625-2.460937-.339844-4.878906.882812-6.0625 3.066406-19.199219 35.132812-53.011719 39.195312-55.8125 39.472656-3.777344.164063-6.753906 3.269532-6.761719 7.050782v7.5c.003906 2.378906.183594 4.757812.535156 7.113281-4.449218-9.070313-6.96875-18.960938-7.402343-29.054688-.414063-9.246093 1.511719-18.449219 5.601562-26.753906 6.9375-13.925781 20.089844-24.5625 36.078125-29.179687 8.960938-2.777344 18.648438-1.976563 27.035156 2.226562 7.902344 4.117188 14.089844 10.902344 17.46875 19.148438l.222657.667968c.980469 2.945313 4.054687 4.652344 7.074219 3.9375 1.511718-.359375 9.300781-1.511718 14.363281 11.019532 5.082031 12.597656 4.792969 26.90625-.816407 40.292968-.929687 2.222656-2.210937 4.445313-3.410156 6.65625.226563-2.195312.3125-4.40625.246094-6.613281zm-64 73.125v-8.917969c5.058594 1.769531 10.363282 2.761719 15.722656 2.9375h.367188c5.199219-1 9.910156-1.414063 14.910156-3v9.652343c0 8.5625-6.941406 15.5-15.5 15.5-8.5625 0-15.5-6.9375-15.5-15.5v-.675781zm15.855469-165.589844c44.710937-.023438 85.074219 26.78125 102.398437 68.003906 17.324219 41.21875 8.230469 88.8125-23.074218 120.738281-5.511719-17.332031-21.601563-29.113281-39.789063-29.132812h-12.390625v-.957031c4.136719-3.140626 8.019532-6.609376 11.605469-10.371094 10.800781-10.785156 18.75-22.160156 23.628906-33.796875 6.835938-16.324219 7.148438-33.875.875-49.421875-4.742187-11.746094-13.480469-18.671875-23.117187-18.785156-10.269532-21.496094-34.730469-32.238282-57.507813-25.253907-19.199219 5.550781-35.050781 18.4375-43.484375 35.355469-5.058594 10.101562-7.488281 21.3125-7.066406 32.601562 1.164062 28.335938 17.066406 54.703126 40.066406 68.257813v2.371094h-11.683594c-18.1875.019531-34.273437 11.796875-39.785156 29.128906-31.304687-31.925781-40.402344-79.515625-23.078125-120.734375 17.324219-41.222656 57.6875-68.027344 102.402344-68.003906zm-118.765625 78.609375c-2.882812 10.585937-4.332031 21.511719-4.308594 32.484375.007813 9.253906 1.035156 18.484375 3.0625 27.515625h-228.84375v-60zm-222.648438 72h224.785157c11.242187 32.96875 35.867187 59.667969 67.820312 73.539062l-56.199219 58.679688c-1.117187 1.078125-1.777343 2.539062-1.847656 4.085937v154.695313h-107v-154.695313c.054688-1.488281-.484375-2.941406-1.5-4.03125zm0 0"/></svg>