<svg height="483pt" viewBox="0 -14 483 482" width="483pt" xmlns="http://www.w3.org/2000/svg"><path d="m15.5 399h95 .0625 357.9375c4.417969 0 7.5-4.082031 7.5-8.5v-156c.09375-2.015625-.664062-3.980469-2.09375-5.40625-1.425781-1.429688-3.390625-2.1875-5.40625-2.09375h-86.5v-37.5c0-4.417969-3.957031-7.5-8.375-7.5h-28.625v-49.5c.09375-2.015625-.664062-3.980469-2.09375-5.40625-1.425781-1.429688-3.390625-2.1875-5.40625-2.09375h-11.351562c-2.605469-31.75-22.960938-59.289062-52.546876-71.101562-2.03125-12.601563-11.273437-22.835938-23.601562-26.140626v-19.257812c0-4.417969-3.582031-8-8-8s-8 3.582031-8 8v19.265625c-12.320312 3.308594-21.554688 13.539063-23.589844 26.132813-29.589844 11.808593-49.949218 39.347656-52.558594 71.101562h-11.351562c-4.417969 0-8.5 3.082031-8.5 7.5v49.5h-27.375c-2.027344-.097656-4.007812.65625-5.457031 2.078125-1.445313 1.425781-2.234375 3.390625-2.167969 5.421875v37.5h-87.5c-4.417969 0-8.5 3.082031-8.5 7.5v156c.195312 4.613281 3.886719 8.304688 8.5 8.5zm165.5-16h-27v-98.285156c0-7.457032 6.042969-13.5 13.5-13.5s13.5 6.042968 13.5 13.5zm74 0h-26v-98.285156c0-7.179688 5.820312-13 13-13s13 5.820312 13 13zm75 0h-27v-98.285156c0-7.457032 6.042969-13.5 13.5-13.5s13.5 6.042968 13.5 13.5zm130-140v140h-78v-140zm-131-61h-14v-41h14zm-128-41v41h-16v-41zm16 0h17v41h-17zm33 0h16v41h-16zm32 0h17v41h-17zm-40.132812-98.253906c4.730468-.027344 9.234374 2.039062 12.296874 5.644531-8.066406-1.1875-16.265624-1.1875-24.335937 0 3-3.542969 7.394531-5.601563 12.039063-5.644531zm.132812 21.253906c35.015625-.230469 64.480469 26.167969 68.082031 61h-136.164062c3.601562-34.832031 33.066406-61.230469 68.082031-61zm-88 77h15v41h-15zm-35 57h247v35.132812c0 .445313-1 .902344-1 1.367188v148.5h-19v-98.285156c0-16.292969-13.207031-29.5-29.5-29.5s-29.5 13.207031-29.5 29.5v98.285156h-16v-98.285156c0-16.019532-12.984375-29-29-29s-29 12.980468-29 29v98.285156h-16v-98.285156c0-16.292969-13.207031-29.5-29.5-29.5s-29.5 13.207031-29.5 29.5v98.285156h-19zm-96 45h79v140h-79zm0 0"/><path d="m483 419c0-4.417969-3.582031-8-8-8h-467c-4.417969 0-8 3.582031-8 8v27c0 4.417969 3.582031 8 8 8h467c4.417969 0 8-3.582031 8-8zm-16 19h-451v-11h451zm0 0"/></svg>