<?xml version="1.0"?>
<svg xmlns="http://www.w3.org/2000/svg" id="Layer_1" data-name="Layer 1" viewBox="0 0 512 512" width="512" height="512"><title>Lamp</title><path d="M444,122.2V90.732A5.564,5.564,0,0,0,438.255,85h-8.874L408.735,15.442A6.139,6.139,0,0,0,402.984,11h-78.9a6.016,6.016,0,0,0-5.751,4.307L311.884,37H214.1a6,6,0,0,0-5.343,3.27L126.913,200.427c-1.3-.092-2.609-.156-3.933-.156a55.149,55.149,0,0,0-3.924,110.164L169.552,455H83.527C80.214,455,78,457.991,78,461.3v33.66c0,3.313,2.214,6.036,5.527,6.036h215.2A6.272,6.272,0,0,0,305,494.964V461.3a6.506,6.506,0,0,0-6.274-6.3H210.072l-54.208-155.3a55.025,55.025,0,0,0,6.407-83.011L233.9,76h66.382l-2.6,9h-8.874A5.618,5.618,0,0,0,283,90.732V122.2a5.674,5.674,0,0,0,5.812,5.8h35.757a38.975,38.975,0,0,0,77.929,0h35.757A5.62,5.62,0,0,0,444,122.2ZM328.558,23h69.951l18.349,62H310.208ZM293,489H90V467H293Zm-95.637-34h-15.1L131.584,309.916a54.881,54.881,0,0,0,13.718-4.131ZM122.98,298.742a43.236,43.236,0,1,1,43.236-43.235A43.284,43.284,0,0,1,122.98,298.742ZM230.223,64a6,6,0,0,0-5.348,3.278L152.737,209.009a55.007,55.007,0,0,0-13.515-6.3L217.771,49h90.543l-4.461,15Zm133.31,90.08A26.65,26.65,0,0,1,336.569,128H390.5A26.65,26.65,0,0,1,363.533,154.08ZM432,116H295V97H432Z"/><path d="M122.98,225.167a30.34,30.34,0,1,0,30.34,30.34A30.374,30.374,0,0,0,122.98,225.167Zm0,48.679a18.34,18.34,0,1,1,18.34-18.339A18.36,18.36,0,0,1,122.98,273.846Z"/><path d="M358,186v31a6,6,0,0,0,12,0V186a6,6,0,0,0-12,0Z"/><path d="M399.862,169.655a6,6,0,0,0-.207,8.483l20,21a6,6,0,0,0,8.69-8.276l-20-21A6,6,0,0,0,399.862,169.655Z"/><path d="M319.655,169.862l-20,21a6,6,0,0,0,8.69,8.276l20-21a6,6,0,0,0-8.69-8.276Z"/></svg>
