<svg height="442pt" viewBox="-8 0 442 442.0004" width="442pt" xmlns="http://www.w3.org/2000/svg"><path d="m426.003906 373.398438v-224.796876c.035156-1.527343-.5625-3-1.660156-4.0625-1.09375-1.0625-2.582031-1.621093-4.105469-1.539062h-90.234375v-58.882812c-.054687-1.566407-.707031-3.054688-1.824218-4.15625l-75.175782-78.132813c-1.164062-1.175781-2.75-1.83203125-4.402344-1.828125h-242.832031c-1.5625.00390625-3.058593.640625-4.148437 1.765625-1.085938 1.125-1.667969 2.644531-1.61718775 4.207031v430.054688c-.05078125 1.5625.53124975 3.082031 1.61718775 4.207031 1.089844 1.125 2.585937 1.761719 4.148437 1.765625h317.933594c3.367187.035156 6.15625-2.605469 6.300781-5.972656v-57.027344h90.234375c1.523438.082031 3.011719-.476562 4.105469-1.539062 1.097656-1.0625 1.695312-2.535157 1.660156-4.0625zm-171-352.523438 54.613282 57.125h-54.613282zm63 409.125h-306v-418h231v72.117188c-.085937 1.539062.464844 3.039062 1.527344 4.15625 1.058594 1.113281 2.535156 1.738281 4.070312 1.726562h69.402344v53h-194.273437c-1.519531-.082031-3.003907.480469-4.09375 1.542969-1.085938 1.0625-1.679688 2.535156-1.632813 4.058593v224.796876c-.046875 1.523437.546875 2.996093 1.632813 4.058593 1.089843 1.066407 2.574219 1.625 4.09375 1.542969h194.273437zm96-63h-284v-212h284zm0 0"/><path d="m264.722656 226h50.613282c3.3125 0 6-2.6875 6-6s-2.6875-6-6-6h-50.613282c-3.3125 0-6 2.6875-6 6s2.6875 6 6 6zm0 0"/><path d="m264.722656 272h96.042969c3.316406 0 6-2.6875 6-6s-2.683594-6-6-6h-96.042969c-3.3125 0-6 2.6875-6 6s2.6875 6 6 6zm0 0"/><path d="m264.722656 319h96.042969c3.316406 0 6-2.6875 6-6s-2.683594-6-6-6h-96.042969c-3.3125 0-6 2.6875-6 6s2.6875 6 6 6zm0 0"/><path d="m151.003906 279c0 3.3125 2.6875 6 6 6h8.765625c4.324219 12.070312 13.335938 21.882812 24.988281 27.222656 11.65625 5.339844 24.972657 5.757813 36.9375 1.152344 3.09375-1.191406 4.636719-4.664062 3.445313-7.753906-1.191406-3.09375-4.664063-4.636719-7.757813-3.445313-17.0625 6.566407-36.324218-.855469-44.566406-17.175781h35.1875c3.3125 0 6-2.6875 6-6s-2.6875-6-6-6h-38.753906c-.152344-1.332031-.230469-2.667969-.230469-4.007812 0-.667969.019531-1.332032.058594-1.992188h43.925781c3.3125 0 6-2.6875 6-6s-2.6875-6-6-6h-41.128906c7.546875-17.589844 27.648438-26.066406 45.511719-19.191406 3.089843 1.1875 6.5625-.351563 7.753906-3.445313s-.351563-6.566406-3.441406-7.757812c-12.3125-4.734375-26.03125-4.148438-37.894531 1.609375-11.867188 5.761718-20.808594 16.183594-24.703126 28.785156h-8.097656c-3.3125 0-6 2.6875-6 6s2.6875 6 6 6h6.0625c-.027344.660156-.046875 1.324219-.046875 1.992188 0 1.347656.066407 2.679687.175781 4.007812h-6.191406c-3.3125 0-6 2.6875-6 6zm0 0"/></svg>