<svg height="494pt" viewBox="-43 0 494 494.0747" width="494pt" xmlns="http://www.w3.org/2000/svg"><path d="m265.476562 241.074219h-120.039062c-3.3125 0-6 2.6875-6 6s2.6875 6 6 6h120.039062c3.3125 0 6-2.6875 6-6s-2.6875-6-6-6zm0 0"/><path d="m265.476562 281.074219h-200.039062c-3.3125 0-6 2.6875-6 6s2.6875 6 6 6h200.039062c3.3125 0 6-2.6875 6-6s-2.6875-6-6-6zm0 0"/><path d="m265.476562 321.074219h-200.039062c-3.3125 0-6 2.6875-6 6s2.6875 6 6 6h200.039062c3.3125 0 6-2.6875 6-6s-2.6875-6-6-6zm0 0"/><path d="m265.476562 361.074219h-200.039062c-3.3125 0-6 2.6875-6 6s2.6875 6 6 6h200.039062c3.3125 0 6-2.6875 6-6s-2.6875-6-6-6zm0 0"/><path d="m315.453125 0c-21.941406-.132812-43.183594 7.710938-59.769531 22.074219h-174.09375c-1.007813 0-2 .257812-2.882813.746093-.035156.015626-.066406.042969-.09375.058594-.140625.078125-.277343.164063-.402343.25-.058594.039063-.113282.085938-.167969.128906-.101563.074219-.199219.148438-.300781.230469-.0625.050781-.121094.105469-.179688.164063-.085938.078125-.171875.15625-.253906.238281l-.042969.039063-75.105469 78.144531c-.015625.015625-.027344.035156-.039062.050781-.242188.257812-.460938.535156-.65625.828125-.015625.023437-.03125.050781-.046875.074219-.191407.300781-.355469.617187-.488281.945312-.007813.019532-.011719.039063-.019532.058594-.136718.335938-.238281.6875-.308594 1.042969 0 .015625-.230468.03125-.230468.042969-.144532.363281-.257813.734374-.3320315 1.117187v351.90625c0 3.316406 3.1328125 5.933594 6.4492185 5.933594h33.550781v24.066406c0 3.316406 3.132813 5.933594 6.449219 5.933594h317.933594c1.542969 0 3.019531-.636719 4.082031-1.757813s1.617188-2.632812 1.535156-4.175781v-322.097656c23.589844-17.210938 37.488282-44.699219 37.359376-73.902344.03125-50.824219-41.121094-92.0664062-91.945313-92.140625zm-239.414063 42.988281v57.085938h-55.464843zm-64 69.085938h69.550782c3.3125 0 6.449218-2.527344 6.449218-5.839844v-72.160156h155.929688c-22.40625 27.546875-26.980469 65.519531-11.753906 97.597656 15.226562 32.078125 47.539062 52.546875 83.046875 52.601563.992187 0 1.777343-.015626 2.777343-.046876v267.847657h-306zm346 370h-306v-18h272.382813c1.542969 0 3.019531-.636719 4.082031-1.757813s1.617188-2.632812 1.535156-4.175781v-275.085937c9.808594-1.5 19.28125-4.691407 28-9.429688zm-42.585937-309.800781c-44.257813 0-80.132813-35.878907-80.132813-80.132813 0-44.257813 35.875-80.136719 80.132813-80.136719s80.136719 35.878906 80.136719 80.136719c-.050782 44.234375-35.898438 80.085937-80.136719 80.132813zm0 0"/><path d="m341.273438 54.554688c3.09375 1.191406 6.566406-.351563 7.757812-3.445313s-.351562-6.566406-3.445312-7.753906c-13.40625-5.175781-28.351563-4.601563-41.320313 1.589843-12.96875 6.191407-22.816406 17.449219-27.222656 31.128907h-12.003907c-3.316406 0-6 2.6875-6 6s2.683594 6 6 6h9.648438c-.3125 4.003906-.164062 8.03125.4375 12h-10.085938c-3.316406 0-6 2.6875-6 6s2.683594 6 6 6h13.410157c10.835937 26.246093 40.632812 39.054687 67.136719 28.855469 3.09375-1.191407 4.632812-4.664063 3.441406-7.757813s-4.664063-4.632813-7.753906-3.441406c-18.59375 7.175781-39.644532-.332031-49.496094-17.65625h37.261718c3.3125 0 6-2.6875 6-6s-2.6875-6-6-6h-41.742187c-.785156-3.949219-.980469-7.992188-.578125-12h47.320312c3.3125 0 6-2.6875 6-6s-2.6875-6-6-6h-44.191406c8.597656-19.800781 31.285156-29.296875 51.425782-21.519531zm0 0"/></svg>