<?xml version="1.0" encoding="iso-8859-1"?>
<!-- Generator: Adobe Illustrator 19.0.0, SVG Export Plug-In . SVG Version: 6.00 Build 0)  -->
<svg version="1.1" id="Capa_1" xmlns="http://www.w3.org/2000/svg" xmlns:xlink="http://www.w3.org/1999/xlink" x="0px" y="0px"
	 viewBox="0 0 512 512" style="enable-background:new 0 0 512 512;" xml:space="preserve">
<g>
	<g>
		<path d="M328.055,0H184.531c-9.707,0-17.574,7.867-17.574,17.574v91.973c0,9.707,7.867,17.574,17.574,17.574h143.524
			c9.707,0,17.574-7.867,17.574-17.574V17.574C345.629,7.867,337.762,0,328.055,0z M310.481,91.973H202.105V35.149h108.375V91.973z"
			/>
	</g>
</g>
<g>
	<g>
		<path d="M389.788,226.698l-57.632-53.362v-64.375h-35.149v72.055c0,4.892,2.044,9.566,5.635,12.894l57.632,53.362v229.58H151.725
			v-229.58l57.632-53.362c3.591-3.327,5.635-8.002,5.635-12.894v-72.055h-35.149v64.381l-57.632,53.362
			c-3.591,3.327-5.635,8.002-5.635,12.894v254.828c0,9.707,7.867,17.574,17.574,17.574h243.698c9.707,0,17.574-7.862,17.574-17.58
			V239.591C395.423,234.7,393.379,230.025,389.788,226.698z"/>
	</g>
</g>
<g>
	<g>
		<path d="M315.167,264.787h-118.92c-9.707,0-17.574,7.867-17.574,17.574v152.311c0,9.707,7.867,17.574,17.574,17.574h118.926
			c9.707,0,17.574-7.867,17.568-17.574V282.362C332.741,272.655,324.874,264.787,315.167,264.787z M297.593,417.098h-83.771V299.936
			h83.771V417.098z"/>
	</g>
</g>
<g>
</g>
<g>
</g>
<g>
</g>
<g>
</g>
<g>
</g>
<g>
</g>
<g>
</g>
<g>
</g>
<g>
</g>
<g>
</g>
<g>
</g>
<g>
</g>
<g>
</g>
<g>
</g>
<g>
</g>
</svg>
