<svg height="493pt" viewBox="0 -1 493.028 493" width="493pt" xmlns="http://www.w3.org/2000/svg"><path d="m487.027344 239.914062h-44.613282c-3.125-103.316406-86.585937-186.777343-189.898437-189.898437v-44c0-3.316406-2.6875-6-6-6-3.316406 0-6 2.683594-6 6v44c-103.316406 3.121094-186.777344 86.582031-189.902344 189.898437h-44.613281c-3.3125 0-6 2.6875-6 6s2.6875 6 6 6h44.613281c3.125 103.316407 86.585938 186.777344 189.902344 189.898438v44.007812c0 3.3125 2.683594 6 6 6 3.3125 0 6-2.6875 6-6v-44c103.3125-3.125 186.773437-86.585937 189.898437-189.902343h44.613282c3.3125 0 6-2.683594 6-6 0-3.3125-2.6875-6-6-6zm-240.511719 190c-101.460937 0-184-82.542968-184-184 0-101.457031 82.539063-184 184-184 101.457031 0 184 82.542969 184 184 0 101.457032-82.542969 184-184 184zm0 0"/><path d="m277.324219 22c-3.285157-.449219-6.308594 1.851562-6.753907 5.132812-.449218 3.285157 1.851563 6.308594 5.132813 6.757813 94.738281 12.914063 169.921875 88.097656 182.835937 182.835937.40625 2.96875 2.9375 5.183594 5.9375 5.1875.273438 0 .546876-.019531.816407-.054687 3.285156-.449219 5.582031-3.472656 5.136719-6.757813-13.640626-100.054687-93.046876-179.464843-193.105469-193.101562zm0 0"/><path d="m215.703125 469.828125c.273437.039063.546875.054687.820313.058594 3.160156 0 5.777343-2.449219 5.988281-5.601563.210937-3.152344-2.058594-5.929687-5.191407-6.347656-94.734374-12.914062-169.921874-88.097656-182.832031-182.835938-.449219-3.28125-3.472656-5.582031-6.757812-5.132812-3.28125.449219-5.582031 3.472656-5.132813 6.757812 13.640625 100.054688 93.046875 179.464844 193.105469 193.101563zm0 0"/><path d="m215.703125 22c-100.058594 13.636719-179.464844 93.046875-193.097656 193.097656-.449219 3.285156 1.851562 6.308594 5.132812 6.757813.273438.035156.546875.054687.820313.054687 2.996094-.003906 5.53125-2.21875 5.933594-5.1875 12.914062-94.738281 88.101562-169.921875 182.835937-182.835937 3.285156-.449219 5.582031-3.472657 5.136719-6.757813-.449219-3.28125-3.472656-5.582031-6.753906-5.132812zm0 0"/><path d="m465.292969 269.96875c-3.28125-.445312-6.304688 1.851562-6.753907 5.132812-12.914062 94.738282-88.101562 169.921876-182.835937 182.835938-3.132813.417969-5.402344 3.195312-5.191406 6.347656.210937 3.152344 2.832031 5.601563 5.992187 5.601563.273438-.003907.546875-.019531.816406-.058594 100.0625-13.636719 179.46875-93.046875 193.105469-193.097656.453125-3.285157-1.847656-6.3125-5.132812-6.761719zm0 0"/><path d="m277.515625 124.613281c0-17.507812-14.195313-31.699219-31.703125-31.699219h-.597656c-17.507813 0-31.699219 14.191407-31.699219 31.699219v10.601563c0 17.507812 14.191406 31.699218 31.699219 31.699218h.59375c17.507812.003907 31.707031-14.191406 31.707031-31.699218zm-12 10.601563c0 10.878906-8.820313 19.699218-19.703125 19.699218h-.597656c-10.878906 0-19.699219-8.820312-19.699219-19.699218v-10.601563c0-10.878906 8.820313-19.699219 19.699219-19.699219h.59375c10.882812-.003906 19.707031 8.816407 19.707031 19.699219zm0 0"/><path d="m276.777344 176.914062h-5.101563c-2.566406.09375-4.8125 1.757813-5.644531 4.1875l-5.601562 15.6875-9.945313-10.523437c-1.160156-1.214844-2.773437-1.890625-4.453125-1.863281s-3.273438.757812-4.390625 2.011718l-8.898437 9.953126-4.847657-15.097657c-.78125-2.515625-3.066406-4.261719-5.699219-4.355469h-5.929687c-9.324219.085938-18.175781 4.097657-24.394531 11.042969-6.226563 6.855469-9.261719 16.023438-8.355469 25.238281v50.019532c.023437 9.371094 3.832031 18.335937 10.5625 24.855468l4.652344 4.488282c4.140625 3.988281 6.597656 9.410156 6.863281 15.15625l4.09375 85.652344c.171875 3.167968 2.828125 5.625 6 5.542968h61.800781c3.167969.078125 5.824219-2.375 5.992188-5.542968l4.09375-85.796876c.265625-5.703124 2.699219-11.085937 6.800781-15.054687l4.664062-4.5c6.675782-6.507813 10.449219-15.429687 10.476563-24.75v-50.070313c.90625-9.214843-2.128906-18.382812-8.355469-25.238281-6.210937-6.945312-15.0625-10.953125-24.382812-11.042969zm-30.554688 22.390626 4.578125 4.871093 6.578125 61.21875-10.863281 10.863281-10.863281-10.863281 6.621094-61.679687zm51.308594 13c-.019531.203124-.015625.402343-.015625.605468v50.355469c-.019531 6.085937-2.484375 11.914063-6.839844 16.167969l-4.660156 4.527344c-6.285156 6.035156-10.015625 14.25-10.425781 22.953124l-3.824219 80h-50.363281l-3.816406-79.941406c-.410157-8.769531-4.171876-17.050781-10.515626-23.125l-4.65625-4.449218c-4.394531-4.238282-6.882812-10.078126-6.898437-16.183594v-50.300782c0-.199218 0-.398437-.019531-.605468-.625-5.933594 1.292968-11.859375 5.277344-16.300782 3.917968-4.460937 9.546874-7.042968 15.484374-7.09375h1.574219l6.722657 20.871094c.667968 2.085938 2.402343 3.660156 4.546874 4.117188l-5.6875 53.011718c-.195312 1.8125.4375 3.617188 1.722657 4.910157l17.136719 17.148437c2.339843 2.347656 6.140624 2.351563 8.484374.011719l17.136719-17.136719c1.28125-1.28125 1.914063-3.078125 1.722657-4.878906l-5.6875-52.941406c.019531 0 .039062 0 .058593-.007813 2.070313-.515625 3.738281-2.046875 4.425781-4.0625l7.484376-21.042969h.878906c5.933594.050782 11.5625 2.628907 15.476562 7.089844 3.984375 4.441406 5.90625 10.363282 5.277344 16.300782zm0 0"/></svg>