<?xml version="1.0" encoding="iso-8859-1"?>
<!-- Generator: Adobe Illustrator 19.0.0, SVG Export Plug-In . SVG Version: 6.00 Build 0)  -->
<svg version="1.1" id="Capa_1" xmlns="http://www.w3.org/2000/svg" xmlns:xlink="http://www.w3.org/1999/xlink" x="0px" y="0px"
	 viewBox="0 0 512 512" style="enable-background:new 0 0 512 512;" xml:space="preserve">
<g>
	<g>
		<path d="M489.33,247.706H337.279v-37.045c0-5.739-2.975-11.075-7.857-14.099c-4.882-3.024-10.975-3.312-16.123-0.752
			l-81.638,40.601v-25.749c0-5.883-3.113-11.324-8.183-14.304c-5.07-2.975-11.34-3.052-16.477-0.182l-71.542,39.882v-25.395
			c0-5.883-3.113-11.324-8.183-14.304c-5.07-2.975-11.335-3.052-16.477-0.182l-96.207,53.633c-5.253,2.925-8.509,8.471-8.509,14.486
			v231.119c0,9.162,7.426,16.587,16.587,16.587H489.33c9.162,0,16.587-7.426,16.587-16.587V264.294
			C505.918,255.132,498.492,247.706,489.33,247.706z M472.743,478.825H39.257V274.042l63.032-35.143v25.395
			c0,5.883,3.113,11.324,8.183,14.304c5.07,2.975,11.335,3.058,16.477,0.182l71.542-39.887v24.29c0,5.745,2.969,11.075,7.851,14.099
			c4.882,3.035,10.981,3.301,16.123,0.758l81.638-40.601v26.855c0,9.162,7.426,16.588,16.587,16.588h152.052V478.825z"/>
	</g>
</g>
<g>
	<g>
		<path d="M155.369,345.019H81.279c-9.162,0-16.587,7.426-16.587,16.587v63.585c0,9.162,7.426,16.587,16.587,16.587h74.091
			c9.156,0,16.587-7.42,16.587-16.587v-63.585C171.957,352.445,164.531,345.019,155.369,345.019z M138.782,408.605H97.866v-30.41
			h40.916V408.605z"/>
	</g>
</g>
<g>
	<g>
		<path d="M293.045,345.019h-74.091c-9.162,0-16.587,7.426-16.587,16.587v63.585c0,9.162,7.426,16.587,16.587,16.587h74.091
			c9.162,0,16.587-7.42,16.587-16.587v-63.585C309.633,352.445,302.207,345.019,293.045,345.019z M276.458,408.605h-40.916v-30.41
			h40.916V408.605z"/>
	</g>
</g>
<g>
	<g>
		<path d="M431.274,345.019h-74.091c-9.162,0-16.587,7.426-16.587,16.587v63.585c0,9.162,7.426,16.587,16.587,16.587h74.091
			c9.162,0,16.587-7.42,16.587-16.587v-63.585C447.862,352.445,440.436,345.019,431.274,345.019z M414.687,408.605h-40.916v-30.41
			h40.916V408.605z"/>
	</g>
</g>
<g>
	<g>
		<path d="M453.811,14.459C452.733,6.187,445.694,0,437.356,0h-60.821c-8.338,0-15.382,6.187-16.455,14.459l-32.069,247.706
			l32.904,4.257l30.195-233.248h31.665l30.195,233.248l32.91-4.257L453.811,14.459z"/>
	</g>
</g>
<g>
	<g>
		<rect x="371.007" y="52.527" width="72.432" height="33.175"/>
	</g>
</g>
<g>
	<g>
		<rect x="366.03" y="100.078" width="82.937" height="33.175"/>
	</g>
</g>
<g>
</g>
<g>
</g>
<g>
</g>
<g>
</g>
<g>
</g>
<g>
</g>
<g>
</g>
<g>
</g>
<g>
</g>
<g>
</g>
<g>
</g>
<g>
</g>
<g>
</g>
<g>
</g>
<g>
</g>
</svg>
