<svg height="493pt" viewBox="0 -1 493.028 493" width="493pt" xmlns="http://www.w3.org/2000/svg"><path d="m487.027344 239.914062h-44c-3.140625-103-86.511719-186.582031-189.511719-189.699218v-44.199219c0-3.316406-2.6875-6-6-6-3.316406 0-6 2.683594-6 6v44.199219c-104 3.117187-187.148437 86.699218-190.289063 189.699218h-45.226562c-3.3125 0-6 2.6875-6 6s2.6875 6 6 6h45.226562c3.105469 103 86.289063 186.972657 190.289063 190.101563v43.808594c0 3.3125 2.683594 6 6 6 3.3125 0 6-2.6875 6-6v-43.808594c103-3.128906 186.40625-87.101563 189.511719-190.101563h44c3.3125 0 6-2.6875 6-6s-2.6875-6-6-6zm-239.898438 190.199219c-101.457031 0-184-82.542969-184-184s82.542969-184 184-184c101.457032 0 184 82.542969 184 184s-82.542968 184-184 184zm0 0"/><path d="m277.9375 22.191406c-3.285156-.445312-6.308594 1.851563-6.757812 5.136719-.449219 3.28125 1.851562 6.308594 5.132812 6.757813 94.738281 12.910156 169.921875 88.097656 182.835938 182.835937.40625 2.96875 2.941406 5.183594 5.9375 5.1875.273437 0 .546874-.019531.820312-.054687 3.28125-.445313 5.582031-3.472657 5.132812-6.753907-13.636718-100.0625-93.042968-179.46875-193.101562-193.109375zm0 0"/><path d="m217.9375 458.132812c-94.738281-12.910156-169.921875-88.097656-182.835938-182.832031-.285156-2.128906-1.6875-3.9375-3.671874-4.753906-1.984376-.8125-4.253907-.5-5.949219.8125-1.695313 1.316406-2.5625 3.433594-2.269531 5.5625 13.640624 100.054687 93.046874 179.464844 193.101562 193.097656.269531.039063.542969.054688.816406.054688 3.15625 0 5.773438-2.449219 5.984375-5.597657.210938-3.148437-2.054687-5.925781-5.183593-6.347656zm0 0"/><path d="m216.3125 22.191406c-100.054688 13.640625-179.460938 93.046875-193.097656 193.109375-.449219 3.28125 1.851562 6.308594 5.132812 6.753907.273438.035156.546875.054687.816406.054687 3-.003906 5.535157-2.21875 5.941407-5.1875 12.910156-94.738281 88.09375-169.925781 182.832031-182.835937 3.28125-.449219 5.582031-3.476563 5.132812-6.757813-.449218-3.285156-3.472656-5.582031-6.757812-5.136719zm0 0"/><path d="m465.90625 270.164062c-3.28125-.441406-6.304688 1.855469-6.753906 5.136719-12.914063 94.734375-88.097656 169.921875-182.839844 182.832031-3.128906.421876-5.394531 3.199219-5.183594 6.347657.210938 3.148437 2.828125 5.597656 5.984375 5.597656.273438 0 .546875-.015625.820313-.054687 100.054687-13.636719 179.464844-93.046876 193.101562-193.097657.453125-3.285156-1.84375-6.3125-5.128906-6.761719zm0 0"/><path d="m246.515625 98.097656c-81.507813 0-147.820313 66.308594-147.820313 147.816406 0 81.507813 66.3125 147.816407 147.820313 147.816407s147.816406-66.308594 147.816406-147.816407c0-81.507812-66.308593-147.816406-147.816406-147.816406zm-78.914063 195.519532c-.949218-9.597657 2.183594-19.152344 8.636719-26.324219 6.449219-7.175781 15.617188-11.300781 25.265625-11.375h4.464844l10.660156 32.914062c.722656 2.265625 2.703125 3.902344 5.066406 4.1875.726563.09375 1.460938.054688 2.167969-.121093l-8.808593 82.042968c-.15625 1.097656-.007813 2.21875.433593 3.234375-17.261719-3.988281-33.566406-11.355469-47.972656-21.671875v-62.277344c0-.203124.105469-.40625.085937-.609374zm67.5625 87.636718-7.867187-7.867187 10.097656-94.085938 8.628907-9.640625 9.667968 10.28125 10.035156 93.441406-7.867187 7.871094c-3.746094.3125-7.527344.476563-11.347656.476563-3.824219 0-7.597657-.164063-11.347657-.476563zm90.261719-87.636718c.019531.207031.046875.40625.089844.609374v62.277344c-14.410156 10.316406-30.714844 17.6875-47.980469 21.679688.460938-1.007813.632813-2.128906.496094-3.230469l-8.839844-82.027344c.890625.242188 1.832032.269531 2.738282.085938 2.0625-.496094 3.726562-2.007813 4.417968-4.015625l11.820313-33.082032h3.367187c9.644532.074219 18.8125 4.203126 25.261719 11.375 6.445313 7.171876 9.578125 16.726563 8.628906 26.324219zm12.089844 53.246093v-52.347656c1.058594-12.878906-3.195313-25.632813-11.773437-35.296875-8.746094-9.679688-21.164063-15.234375-34.207032-15.304688h-7.585937c-2.558594.070313-4.808594 1.71875-5.644531 4.136719l-9.945313 27.757813-18.066406-19.175782c-1.164063-1.207031-2.769531-1.882812-4.445313-1.871093-1.683594.023437-3.28125.753906-4.402344 2.007812l-16.632812 18.59375-8.78125-27.140625c-.785156-2.507812-3.078125-4.238281-5.703125-4.308594h-8.824219c-13.050781.070313-25.46875 5.628907-34.21875 15.3125-8.574218 9.660157-12.828125 22.410157-11.769531 35.289063v52.34375c-27-24.878906-44.941406-60.917969-44.941406-100.949219 0-74.890625 60.988281-135.816406 135.878906-135.816406s135.96875 60.929688 135.96875 135.820312c0 40.03125-17.90625 76.070313-44.90625 100.949219zm0 0"/><path d="m289.515625 185.148438c0-24.429688-19.808594-44.234376-44.238281-44.234376h-.527344c-24.429688 0-44.234375 19.804688-44.234375 44.234376v15.53125c0 24.429687 19.804687 44.234374 44.234375 44.234374h.527344c24.429687 0 44.238281-19.804687 44.238281-44.234374zm-12 15.53125c0 17.800781-14.433594 32.234374-32.238281 32.234374h-.527344c-17.804688 0-32.234375-14.433593-32.234375-32.234374v-15.53125c0-17.800782 14.429687-32.234376 32.234375-32.234376h.527344c17.804687 0 32.238281 14.433594 32.238281 32.234376zm0 0"/></svg>