<svg height="420pt" viewBox="-8 0 420 420.00078" width="420pt" xmlns="http://www.w3.org/2000/svg"><path d="m157.042969 180c0 3.3125 2.6875 6 6 6h15.183593c5.816407 17.667969 18.621094 32.175781 35.425782 40.140625 16.808594 7.96875 36.144531 8.695313 53.503906 2.015625 3.09375-1.191406 4.632812-4.664062 3.445312-7.757812-1.191406-3.09375-4.664062-4.636719-7.757812-3.445313-28.386719 10.945313-60.3125-2.804687-71.859375-30.953125h56.058594c3.316406 0 6-2.6875 6-6s-2.683594-6-6-6h-59.445313c-.878906-5.289062-.996094-10.675781-.351562-16h66.796875c3.316406 0 6-2.6875 6-6s-2.683594-6-6-6h-63.992188c5.058594-14.210938 15.644531-25.773438 29.351563-32.0625 13.707031-6.292969 29.375-6.777344 43.449218-1.347656 3.089844 1.191406 6.5625-.347656 7.753907-3.441406 1.191406-3.09375-.347657-6.566407-3.441407-7.757813-17.777343-6.859375-37.617187-5.9375-54.675781 2.546875-17.0625 8.484375-29.769531 23.75-35.023437 42.0625h-14.421875c-3.3125 0-6 2.6875-6 6s2.6875 6 6 6h12.125c-.527344 5.328125-.429688 10.695312.292969 16h-12.417969c-3.3125 0-6 2.6875-6 6zm0 0"/><path d="m117.308594 282h105.234375c3.316406 0 6-2.6875 6-6s-2.683594-6-6-6h-105.234375c-3.3125 0-6 2.6875-6 6s2.6875 6 6 6zm0 0"/><path d="m117.308594 337h215.210937c3.3125 0 6-2.6875 6-6s-2.6875-6-6-6h-215.210937c-3.3125 0-6 2.6875-6 6s2.6875 6 6 6zm0 0"/><path d="m27.5 312c-15.1875 0-27.5 12.3125-27.5 27.5s12.3125 27.5 27.5 27.5h18.542969v47.078125c-.050781 1.558594.535156 3.070313 1.621093 4.1875 1.089844 1.117187 2.582032 1.742187 4.140626 1.734375h346.21875c1.585937.019531 3.113281-.597656 4.242187-1.707031 1.128906-1.113281 1.769531-2.628907 1.777344-4.214844v-408.15625c-.007813-1.585937-.648438-3.101563-1.777344-4.210937-1.128906-1.113282-2.65625-1.7304692-4.242187-1.710938h-346.21875c-1.558594-.0078125-3.050782.621094-4.140626 1.738281-1.085937 1.117188-1.671874 2.628907-1.621093 4.183594v36.078125h-18.542969c-14.910156 0-27 12.089844-27 27s12.089844 27 27 27h18.542969v36h-18.542969c-15.1875 0-27.5 12.3125-27.5 27.5s12.3125 27.5 27.5 27.5h18.542969v35h-18.542969c-15.1875 0-27.5 12.3125-27.5 27.5s12.3125 27.5 27.5 27.5h18.542969v35zm0 43c-8.558594 0-15.5-6.9375-15.5-15.5 0-8.558594 6.941406-15.5 15.5-15.5h18.542969v31zm0-271c-5.460938.15625-10.574219-2.667969-13.347656-7.375-2.777344-4.703125-2.777344-10.546875 0-15.25 2.773437-4.703125 7.886718-7.527344 13.347656-7.375h18.542969v30zm0 91c-8.558594 0-15.5-6.9375-15.5-15.5 0-8.558594 6.941406-15.5 15.5-15.5h18.542969v31zm0 90c-8.558594 0-15.5-6.9375-15.5-15.5 0-8.558594 6.941406-15.5 15.5-15.5h18.542969v31zm53.542969 23.199219c3.316406 0 6-2.683594 6-6v-22.5625c0-3.3125-2.683594-6-6-6-3.3125 0-6 2.6875-6 6v5.363281h-17v-78h17v4.953125c0 3.3125 2.6875 6 6 6 3.316406 0 6-2.6875 6-6v-22.5625c0-3.316406-2.683594-6-6-6-3.3125 0-6 2.683594-6 6v5.609375h-17v-79h17v5.699219c0 3.316406 2.6875 6 6 6 3.316406 0 6-2.683594 6-6v-22.554688c0-3.316406-2.683594-6-6-6-3.3125 0-6 2.683594-6 6v4.855469h-17v-72h334v396h-334v-41h17v5.445312c0 3.3125 2.6875 6 6 6 3.316406 0 6-2.6875 6-6v-22.5625c0-3.3125-2.683594-6-6-6-3.3125 0-6 2.6875-6 6v5.117188h-17v-78h17v5.199219c0 3.316406 2.6875 6 6 6zm0 0"/></svg>