<?xml version="1.0"?>
<svg xmlns="http://www.w3.org/2000/svg" id="Layer_1" data-name="Layer 1" viewBox="0 0 512 512" width="512" height="512"><title>Like</title><path d="M315.387,4.046c-57.879,0-105.139,47.088-105.139,104.966,0,45.6,29.752,84.487,69.752,98.944V332h-9V310.614a32.053,32.053,0,0,0-.524-6.875A33.768,33.768,0,0,0,237.415,277H219.021a5.7,5.7,0,0,0-5.868,6.941l1.438,6.707a97.605,97.605,0,0,1,1.1,34.695l-1.249,8.449a9.922,9.922,0,0,1-5.851,7.678c-2.025.891-3.822,1.848-5.785,2.855L192,347.057v-9.434c0-3.314-3.124-5.623-6.438-5.623H97.646A5.4,5.4,0,0,0,92,337.623V501.954A5.748,5.748,0,0,0,97.646,508h87.916c3.314,0,6.438-2.732,6.438-6.046V485.668l10.8,2.827A112.371,112.371,0,0,0,254,501h89.076a25.694,25.694,0,0,0,19.417-42.427A25.615,25.615,0,0,0,369,418.449a25.579,25.579,0,0,0,5.958-38.213,25.546,25.546,0,0,0,13.9-22.744A25.767,25.767,0,0,0,362.979,332H350V207.956a104.927,104.927,0,0,0,70.139-98.944C420.139,51.134,373.266,4.046,315.387,4.046ZM180,496H104V344h76ZM376.865,357.514a13.284,13.284,0,0,1-3.988,9.549A13.5,13.5,0,0,1,363.253,371H336.288a6.011,6.011,0,0,0-6,6.013,5.746,5.746,0,0,0,.778,2.889,5.947,5.947,0,0,0,5.286,3.1h19.053a13.5,13.5,0,1,1,0,27H330.747a6,6,0,0,0,0,12h19.614c7.507,0,13.614,6.494,13.614,14s-6.107,14-13.614,14H325.144a6,6,0,0,0,0,12h17.932a13.5,13.5,0,1,1,0,27H254a101.215,101.215,0,0,1-46.519-11.48,4.6,4.6,0,0,0-1.106-.548L192,473.3V359.421l14.377-3.622a5.126,5.126,0,0,0,1.22-.5c1.931-1.007,3.874-1.966,5.88-2.849a21.83,21.83,0,0,0,12.859-16.915l1.235-8.257A107.992,107.992,0,0,0,226.432,289h10.983a21.708,21.708,0,0,1,21.323,17.237,19.982,19.982,0,0,1,.262,4.377v27.464c0,3.313,3.126,5.922,6.439,5.922h97.54A13.75,13.75,0,0,1,376.865,357.514ZM338,332H292V211.425a108.6,108.6,0,0,0,23,2.554,101.775,101.775,0,0,0,23-2.554ZM315.387,201.979a92.967,92.967,0,1,1,92.967-92.967A93.073,93.073,0,0,1,315.387,201.979Z"/><path d="M380,82.564c0-.109.092-.215.086-.323,0-.081.07-.16.069-.242a5.979,5.979,0,0,0-3.9-5.575L313.574,53.381a5.985,5.985,0,0,0-4.134,0L246.754,76.424A6,6,0,0,0,242.826,82a5.929,5.929,0,0,0,3.745,5.648L263,94.071v43.788a6.074,6.074,0,0,0,3.983,5.622,127.655,127.655,0,0,0,89.03,0A6.076,6.076,0,0,0,360,137.859V94.072l8-3.243v38.239a14.522,14.522,0,0,0-7.479,12.216,13.649,13.649,0,1,0,27.3,0A13.031,13.031,0,0,0,380,128.992ZM311.517,65.406l45.734,16.81-5.263,2.048q-.288.1-.562.219l-39.909,15.532L271.6,84.481c-.176-.079-.357-.149-.541-.211l-5.279-2.054ZM275,133.612v-7.723a128.311,128.311,0,0,0,73,0v7.723A116.177,116.177,0,0,1,275,133.612Zm73-20.322a116.184,116.184,0,0,1-73,0V98.741l34.262,13.3a6.211,6.211,0,0,0,2.215.409,6.453,6.453,0,0,0,2.259-.409L348,98.742Zm26.285,29.655a1.661,1.661,0,1,1,1.661-1.661A1.663,1.663,0,0,1,374.285,142.945Z"/></svg>
