<svg height="484pt" viewBox="-53 0 483 484" width="484pt" xmlns="http://www.w3.org/2000/svg"><path d="m190.5 126h5.066406c-.105468 2-.082031 4.003906.074219 6h-5.140625c-3.3125 0-6 2.6875-6 6s2.6875 6 6 6h7.707031c4.171875 11.527344 12.8125 20.894531 23.96875 25.980469 11.152344 5.089843 23.886719 5.476562 35.332031 1.070312 3.089844-1.191406 4.632813-4.664062 3.441407-7.753906-1.191407-3.09375-4.664063-4.636719-7.757813-3.445313-15.972656 6.15625-34.019531-.667968-41.921875-15.851562h33.230469c3.3125 0 6-2.6875 6-6s-2.6875-6-6-6h-36.824219c-.207031-1.992188-.234375-4-.085937-6h40.910156c3.3125 0 6-2.6875 6-6s-2.6875-6-6-6h-37.742188c7.558594-15.855469 26.054688-23.214844 42.441407-16.894531 3.09375 1.191406 6.566406-.351563 7.757812-3.441407 1.191407-3.09375-.351562-6.566406-3.445312-7.757812-11.621094-4.484375-24.570313-4.019531-35.839844 1.285156-11.269531 5.308594-19.878906 14.992188-23.824219 26.808594h-7.347656c-3.3125 0-6 2.6875-6 6s2.6875 6 6 6zm0 0"/><path d="m370.96875 20h-288.46875v-13.8125c-.046875-3.378906-2.757812-6.109375-6.136719-6.1875h-30c-3.320312.101562-5.941406 2.863281-5.863281 6.1875v430.8125h-34.46875c-3.3125 0-5.53125 2.835938-5.53125 6.148438v34.664062c0 3.316406 2.21875 6.1875 5.53125 6.1875h120.667969c3.308593-.109375 5.90625-2.878906 5.800781-6.1875v-34.664062c.050781-1.585938-.535156-3.125-1.621094-4.28125-1.089844-1.152344-2.59375-1.824219-4.179687-1.867188h-44.199219v-208h288.46875c3.3125 0 5.53125-3.101562 5.53125-6.410156v-196.402344c0-3.316406-2.21875-6.1875-5.53125-6.1875zm-76.46875 12v185h-142v-185zm-174 440h-108v-23h108zm-68-35v-425h18v425zm30-405h58v185h-58zm282 185h-58v-185h58zm0 0"/></svg>