<?xml version="1.0"?>
<svg xmlns="http://www.w3.org/2000/svg" id="Layer_1" data-name="Layer 1" viewBox="0 0 512 512" width="512" height="512"><title>Loudspeaker</title><path d="M440.022,184H435V81.133a5.911,5.911,0,0,0-8.129-5.571L317.853,119.177A103.786,103.786,0,0,0,215.992,35.044c-57.175,0-103.687,46.286-103.687,103.329A98.17,98.17,0,0,0,115.071,162h-12.6a49.725,49.725,0,0,0-44.614,28.12l-11.644,4.123a56.623,56.623,0,0,0,0,106.907l9.1,3.183a49.808,49.808,0,0,0,28.093,30.513l28.627,106.483a48.493,48.493,0,0,0,93.542-25.612L184.388,339H210.2l216.7,86.515a5.926,5.926,0,0,0,2.229.346,5.843,5.843,0,0,0,3.3-1.074,6.013,6.013,0,0,0,2.569-5.01V311h5.022a63.5,63.5,0,1,0,0-127ZM216,47.044a91.737,91.737,0,0,1,91.024,80.449,6,6,0,0,0,.17,1.475,91.722,91.722,0,0,1,.5,9.528c0,50.426-41.131,91.451-91.69,91.451s-91.69-41.025-91.69-91.451S165.441,47.044,216,47.044ZM50.165,289.835a44.591,44.591,0,0,1,0-84.2l3.338-1.148A49.583,49.583,0,0,0,53,211.8v77.311c0,.569-.02,1.133,0,1.7ZM65,289.111V211.8c0-20.708,16.759-37.8,37.467-37.8h16.227A102.446,102.446,0,0,0,205,241.405V327H102.467a37.5,37.5,0,0,1-10.628-1.708,5.96,5.96,0,0,0-3.254-1.23A37.682,37.682,0,0,1,65,289.111Zm129.009,129.8a36.5,36.5,0,0,1-70.4,19.294L96.77,338.506a49.784,49.784,0,0,0,5.7.494H171.94ZM423,410.915,217,328.6V241.93A103.54,103.54,0,0,0,319.512,138.5c0-2.362-.064-4.7-.221-7.025L423,90ZM440.022,299H435V196h5.022a51.5,51.5,0,1,1,0,103Z"/><path d="M161.251,184.839A17.211,17.211,0,0,0,178.617,202h75.95c3.314,0,6.433-2.275,6.433-5.589V180h-.369A6.607,6.607,0,0,0,267,173.678V81.888c0-3.314-3.056-5.888-6.369-5.888H178.617A17.506,17.506,0,0,0,161,93.254v91.323c0,.065.126.027.128.092C161.127,184.759,161.251,184.748,161.251,184.839ZM249,190H178.617a5.012,5.012,0,1,1,0-10H249Zm6-22.322a4.972,4.972,0,0,1-.509.322H197V88h58ZM173,93.254A5.5,5.5,0,0,1,178.617,88H185v80h-6.383a19.86,19.86,0,0,0-5.617.527Z"/></svg>
