<svg height="504pt" viewBox="0 -61 504.32704 504" width="504pt" xmlns="http://www.w3.org/2000/svg"><path d="m408.007812 149.464844v-96.632813c0-2.4375-1.476562-4.632812-3.734374-5.554687-2.257813-.921875-4.847657-.386719-6.554688 1.355468l-44.796875 45.722657-40.070313-24.972657c-2.523437-1.574218-5.820312-1.0625-7.746093 1.203126l-39.289063 46.246093-15.011718-6.320312c-2.617188-1.105469-5.652344-.21875-7.265626 2.121093l-24.960937 36.148438-42.066406-42.957031c-1.496094-1.53125-3.691407-2.144531-5.765625-1.617188-2.070313.527344-3.707032 2.117188-4.292969 4.175781l-18.886719 66.558594-9.28125-5.800781c-2.601562-1.625-6.007812-1.027344-7.898437 1.386719l-24.8125 31.652344-34.339844-36.105469c-1.421875-1.496094-3.511719-2.15625-5.535156-1.746094-1.996094.414063-3.628907 1.839844-4.3125 3.757813l-19.378907 51.566406v-213.46875c-.105468-3.359375-2.867187-6.027344-6.226562-6.019532h-30.101562c-1.558594.019532-3.042969.667969-4.113282 1.804688-1.070312 1.136719-1.6328122 2.65625-1.5585935 4.214844v341.125c-.0703125 1.539062.4999995 3.042968 1.5742185 4.148437 1.074219 1.109375 2.554688 1.726563 4.097657 1.707031h304.441406c37.300781 32.5 90.992187 38.082032 134.179687 13.945313s66.566407-72.792969 58.429688-121.59375-46.042969-87.234375-94.722657-96.050781zm-338.773437 31.796875 32.488281 34.222656c1.191406 1.261719 2.878906 1.941406 4.613282 1.859375 1.734374-.082031 3.347656-.921875 4.414062-2.292969l25.757812-32.871093 11.472657 7.175781c1.601562 1 3.578125 1.1875 5.335937.511719 1.761719-.679688 3.097656-2.144532 3.613282-3.960938l18.246093-64.292969 39.917969 40.769531c1.253906 1.277344 3.015625 1.929688 4.800781 1.777344 1.785157-.152344 3.40625-1.09375 4.425781-2.566406l26.324219-38.128906 14.570313 6.132812c2.414062 1.015625 5.203125.351563 6.898437-1.644531l38.792969-45.644531 39.761719 24.78125c2.386719 1.488281 5.488281 1.117187 7.460937-.890625l37.878906-38.664063v80.394532c-2.957031-.222657-5.941406-.335938-8.953124-.339844-31.71875-.015625-62.085938 12.855468-84.132813 35.664062l-11.089844-7.054687c-2.5625-1.632813-5.945312-1.089844-7.867187 1.269531l-27.453125 33.648438-44.546875-33.640626c-2.578125-1.949218-6.234375-1.503906-8.269532 1l-44.539062 54.742188-26.496094-19.65625c-1.355468-1.007812-3.074218-1.394531-4.734375-1.066406-1.65625.328125-3.101562 1.339844-3.976562 2.785156l-29.890625 49.507812-32.933594-7.125c-2.589844-.566406-5.234375.683594-6.449219 3.039063l-12.667969 23.976563v-31.09375zm-27.226563 128.917969 21.125-39.824219 32.636719 7.066406c2.5.542969 5.0625-.570313 6.375-2.761719l28.679688-47.527344 25.800781 19.144532c2.578125 1.910156 6.199219 1.453125 8.226562-1.03125l44.503907-54.707032 44.542969 33.632813c2.574218 1.945313 6.226562 1.503906 8.265624-1l27.730469-33.992187 5.03125 3.199218c-26.609375 33.730469-32.59375 79.332032-15.59375 118.785156h-237.324219zm-30-298.015626h18v305.042969c-.050781 1.5625.535157 3.078125 1.625 4.203125 1.085938 1.121094 2.582032 1.753906 4.148438 1.753906h249.566406c3.710938 6 8.015625 13 12.839844 18h-286.179688zm375.046876 357.980469c-58.140626 0-105.273438-47.132812-105.277344-105.277343 0-58.140626 47.132812-105.277344 105.277344-105.277344 58.140624 0 105.277343 47.132812 105.277343 105.273437-.066406 58.117188-47.160156 105.210938-105.277343 105.28125zm0 0"/><path d="m415.71875 219.800781c3.09375 1.191407 6.566406-.351562 7.757812-3.445312 1.191407-3.089844-.351562-6.5625-3.441406-7.753907-15.613281-6.003906-33.015625-5.265624-48.058594 2.046876-15.042968 7.308593-26.382812 20.53125-31.308593 36.515624h-13.660157c-3.316406 0-6 2.6875-6 6s2.683594 6 6 6h11.296876c-.175782 1.882813-.269532 3.785157-.269532 5.699219.003906 3.453125.300782 6.898438.886719 10.300781h-11.914063c-3.316406 0-6 2.6875-6 6s2.683594 6 6 6h15.285157c12.242187 30.695313 46.894531 45.835938 77.738281 33.96875 3.09375-1.191406 4.632812-4.664062 3.441406-7.753906-1.191406-3.09375-4.664062-4.636718-7.753906-3.445312-22.949219 8.824218-48.867188-.972656-60.242188-22.769532h46.53125c3.3125 0 6-2.6875 6-6s-2.6875-6-6-6h-50.863281c-1.148437-5.253906-1.40625-10.664062-.761719-16h57.625c3.3125 0 6-2.6875 6-6s-2.6875-6-6-6h-54.621093c9.746093-24.683593 37.566406-36.894531 62.332031-27.363281zm0 0"/></svg>