<?xml version="1.0" encoding="iso-8859-1"?>
<!-- Generator: Adobe Illustrator 19.0.0, SVG Export Plug-In . SVG Version: 6.00 Build 0)  -->
<svg version="1.1" id="Capa_1" xmlns="http://www.w3.org/2000/svg" xmlns:xlink="http://www.w3.org/1999/xlink" x="0px" y="0px"
	 viewBox="0 0 512 512" style="enable-background:new 0 0 512 512;" xml:space="preserve">
<g>
	<g>
		<path d="M376.422,182.349c-11.662,56.79-62.307,98.005-120.422,98.005c-58.178,0-108.823-40.977-120.416-97.439l-33.286,6.836
			C117.12,261.941,181.76,314.336,256,314.336c74.178,0,138.818-52.633,153.708-125.151L376.422,182.349z"/>
	</g>
</g>
<g>
	<g>
		<path d="M256,0c-74.234,0-138.88,52.882-153.713,125.746l33.303,6.774C147.211,75.424,197.851,33.982,256,33.982
			c58.183,0,108.828,40.977,120.422,97.439l33.286-6.836C394.88,52.395,330.24,0,256,0z"/>
	</g>
</g>
<g>
	<g>
		<path d="M414.584,113.274H97.416c-24.36,0-44.177,19.817-44.177,44.177c0,24.36,19.817,44.177,44.177,44.177h317.168
			c23.946,0,44.177-20.231,44.177-44.177C458.761,133.092,438.944,113.274,414.584,113.274z M414.584,167.646H97.416
			c-5.618,0-10.195-4.571-10.195-10.195c0-5.618,4.576-10.195,10.195-10.195h317.168c5.618,0,10.195,4.576,10.195,10.195
			C424.779,162.787,419.919,167.646,414.584,167.646z"/>
	</g>
</g>
<g>
	<g>
		<path d="M256,285.451c-9.385,0-16.991,7.606-16.991,16.991v192.566c0,9.385,7.606,16.991,16.991,16.991
			s16.991-7.601,16.991-16.991V302.443C272.991,293.058,265.385,285.451,256,285.451z"/>
	</g>
</g>
<g>
</g>
<g>
</g>
<g>
</g>
<g>
</g>
<g>
</g>
<g>
</g>
<g>
</g>
<g>
</g>
<g>
</g>
<g>
</g>
<g>
</g>
<g>
</g>
<g>
</g>
<g>
</g>
<g>
</g>
</svg>
