<svg id="Layer_1" height="512" viewBox="0 0 512 512" width="512" xmlns="http://www.w3.org/2000/svg" data-name="Layer 1"><path d="m309.128 385.421a114.81 114.81 0 0 0 9.214-45.187c0-.067 0-.133 0-.2l-10.302-310.076a25.742 25.742 0 0 0 -25.985-24.958h-52.1a25.742 25.742 0 0 0 -25.985 24.969l-10.309 314.314v.152a116.041 116.041 0 0 0 11.211 49.595l.857 1.3a104.245 104.245 0 0 1 10.271 44.446v1.787c0 3.313 2.226 6.437 5.539 6.437h4.461v43.513a6.22 6.22 0 0 0 5.01 5.873l47.164 9.845a6.546 6.546 0 0 0 1.29.128 6.755 6.755 0 0 0 4.051-1.343 6.279 6.279 0 0 0 2.485-4.657v-53.359h4.464a6.388 6.388 0 0 0 6-6.331v-5.342a102.952 102.952 0 0 1 8.256-40.515zm-64.128-318.421h22v102h-22zm-5.833 114h33.666a6.167 6.167 0 0 0 6.167-6.026v-107.974h18.256l8.625 259h-99.632l8.52-259h18.231v107.974a6.167 6.167 0 0 0 6.167 6.026zm-9.211-164h52.1a13.942 13.942 0 0 1 13.991 13.536l.811 24.464h-81.7l.8-24.458a13.942 13.942 0 0 1 13.998-13.542zm44.044 476.973-36-7.334v-38.639h36zm19.676-102.673a113.457 113.457 0 0 0 -9.213 44.7h-57a115.81 115.81 0 0 0 -11.133-45.622l-.626-1.423a105.321 105.321 0 0 1 -10.044-44.641l.2-6.314h100.419l.063 2.1a103.942 103.942 0 0 1 -8.256 40.614z"/></svg>