<svg height="492pt" viewBox="0 -51 492.30168 492" width="492pt" xmlns="http://www.w3.org/2000/svg"><path d="m190.152344 32.152344c0-17.675782-14.328125-32-32-32-17.675782 0-32 14.324218-32 32v11c0 17.671875 14.324218 32 32 32 17.671875 0 32-14.328125 32-32zm-12 11c0 11.042968-8.957032 20-20 20-11.046875 0-20-8.957032-20-20v-11c0-11.046875 8.953125-20 20-20 11.042968 0 20 8.953125 20 20zm0 0"/><path d="m365.152344 32.152344c0-17.675782-14.328125-32-32-32-17.675782 0-32 14.324218-32 32v11c0 17.671875 14.324218 32 32 32 17.671875 0 32-14.328125 32-32zm-12 11c0 11.042968-8.957032 20-20 20-11.046875 0-20-8.957032-20-20v-11c0-11.046875 8.953125-20 20-20 11.042968 0 20 8.953125 20 20zm0 0"/><path d="m283.152344 58.25c0-20.488281-16.613282-37.097656-37.101563-37.097656h-.800781c-20.488281 0-37.097656 16.609375-37.097656 37.097656v12.800781c0 20.488281 16.609375 37.101563 37.097656 37.101563h.800781c20.488281 0 37.101563-16.613282 37.101563-37.101563zm-12 12.800781c0 13.863281-11.238282 25.101563-25.101563 25.101563h-.800781c-13.863281 0-25.097656-11.238282-25.097656-25.101563v-12.800781c0-13.863281 11.234375-25.097656 25.097656-25.097656h.800781c13.863281 0 25.101563 11.234375 25.101563 25.097656zm0 0"/><path d="m282.765625 124.152344h-6.167969c-2.515625-.042969-4.78125 1.511718-5.648437 3.875l-7.46875 20.734375-13.441407-14.320313c-1.148437-1.230468-2.757812-1.921875-4.441406-1.902344-1.679687.015626-3.277344.738282-4.402344 1.992188l-12.230468 13.664062-6.542969-20c-.8125-2.449218-3.117187-4.085937-5.699219-4.050781h-7.175781c-10.816406-.050781-21.148437 4.46875-28.460937 12.441407-7.3125 7.96875-10.917969 18.65625-9.933594 29.429687v60.574219c.035156 11 4.511718 21.519531 12.410156 29.171875l5.640625 5.429687c5.246094 5.046875 8.355469 11.914063 8.695313 19.183594l4.953124 103.949219c.144532 3.222656 2.773438 5.777343 6 5.828125h74.777344c3.222656-.054688 5.847656-2.605469 5.992188-5.828125l4.953125-103.96875c.335937-7.242188 3.414062-14.082031 8.613281-19.132813l5.65625-5.492187c7.835938-7.652344 12.269531-18.128907 12.308594-29.078125v-60.636719c.980468-10.769531-2.625-21.453125-9.933594-29.421875-7.308594-7.972656-17.640625-12.488281-28.453125-12.441406zm-36.988281 23.25 6.769531 7.199218 8.0625 75.089844-14.457031 14.460938-14.460938-14.460938 8.121094-75.628906zm63.375 17.714844c-.023438.203124 0 .402343 0 .605468v60.929688c-.03125 7.707031-3.15625 15.082031-8.675782 20.464844l-5.644531 5.476562c-7.386719 7.203125-11.761719 16.941406-12.238281 27.25l-4.691406 98.308594h-63.332032l-4.679687-98.238282c-.476563-10.34375-4.890625-20.109374-12.335937-27.300781l-5.65625-5.457031c-5.5625-5.398438-8.71875-12.8125-8.746094-20.566406v-60.867188c0-.199218.019531-.398437 0-.605468-.742188-7.433594 1.707031-14.835938 6.742187-20.363282 5.035157-5.523437 12.175781-8.652344 19.648438-8.601562h2.820312l8.417969 25.761718c.757812 2.300782 2.839844 3.914063 5.257812 4.074219.144532.011719.285157-.015625.429688-.015625l-7.019531 65.304688c-.191407 1.800781.445312 3.59375 1.726562 4.875l20.730469 20.726562c2.34375 2.34375 6.144531 2.34375 8.488281 0l20.730469-20.726562c1.285156-1.285156 1.917969-3.078125 1.722656-4.882813l-7.015625-65.320312c2.503907.023437 4.75-1.519531 5.628907-3.859375l9.355468-25.9375h1.949219c7.472656-.046875 14.613281 3.082031 19.644531 8.605468 5.03125 5.523438 7.484375 12.925782 6.742188 20.359376zm0 0"/><path d="m112.152344 58.25c0-20.488281-16.613282-37.097656-37.101563-37.097656h-.800781c-20.488281 0-37.097656 16.609375-37.097656 37.097656v12.800781c0 20.488281 16.609375 37.101563 37.097656 37.101563h.800781c20.488281 0 37.101563-16.613282 37.101563-37.101563zm-12 12.800781c0 13.863281-11.238282 25.101563-25.101563 25.101563h-.800781c-13.863281 0-25.097656-11.238282-25.097656-25.101563v-12.800781c0-13.863281 11.234375-25.097656 25.097656-25.097656h.800781c13.863281 0 25.101563 11.234375 25.101563 25.097656zm0 0"/><path d="m111.871094 124.152344h-6.167969c-2.515625-.042969-4.777344 1.511718-5.644531 3.875l-7.472656 20.734375-13.433594-14.320313c-1.148438-1.230468-2.761719-1.921875-4.441406-1.902344-1.683594.015626-3.28125.738282-4.402344 1.992188l-12.238282 13.664062-6.539062-20c-.816406-2.449218-3.125-4.085937-5.707031-4.042968h-7.171875c-10.828125-.054688-21.171875 4.457031-28.5 12.425781-7.328125 7.964844-10.957032 18.652344-10 29.4375v60.574219c.054687 11.007812 4.546875 21.527344 12.464844 29.171875l5.667968 5.429687c5.246094 5.046875 8.359375 11.910156 8.703125 19.183594l4.960938 103.949219c.152343 3.222656 2.777343 5.773437 6 5.828125h74.78125c3.222656-.054688 5.847656-2.605469 5.992187-5.828125l4.953125-103.96875c.335938-7.238281 3.414063-14.082031 8.613281-19.132813l5.605469-5.492187c7.824219-7.65625 12.238281-18.132813 12.257813-29.078125v-60.636719c1.003906-10.757813-2.582032-21.4375-9.871094-29.410156-7.289062-7.972657-17.605469-12.496094-28.410156-12.453125zm-36.988282 23.25 6.769532 7.199218 8.0625 75.089844-14.457032 14.460938-14.460937-14.460938 8.121094-75.628906zm63.320313 17.714844c-.019531.203124-.050781.402343-.050781.605468v60.929688c-.011719 7.703125-3.117188 15.078125-8.625 20.464844l-5.617188 5.476562c-7.382812 7.203125-11.75 16.945312-12.222656 27.25l-4.679688 98.308594h-63.332031l-4.679687-98.238282c-.472656-10.339843-4.886719-20.109374-12.335938-27.300781l-5.710937-5.453125c-5.578125-5.394531-8.75-12.808594-8.796875-20.570312v-60.867188c0-.199218.074218-.398437.050781-.605468-.726563-7.441407 1.738281-14.84375 6.777344-20.367188 5.042969-5.523438 12.191406-8.648438 19.671875-8.597656h2.816406l8.417969 25.761718c.742187 2.496094 3.085937 4.171876 5.6875 4.0625l-7.015625 65.300782c-.191406 1.800781.441406 3.59375 1.722656 4.875l20.734375 20.726562c2.339844 2.34375 6.140625 2.34375 8.484375 0l20.730469-20.726562c1.285156-1.285156 1.917969-3.078125 1.722656-4.882813l-7.011719-65.320312c.402344.003906.804688-.035157 1.199219-.113281 2.03125-.382813 3.710937-1.808594 4.425781-3.75l9.355469-25.933594h1.949219c7.46875-.042969 14.601562 3.085937 19.625 8.613281 5.023437 5.523437 7.460937 12.925781 6.707031 20.351563zm0 0"/><path d="m454.152344 58.25c0-20.488281-16.613282-37.097656-37.101563-37.097656h-.800781c-20.488281 0-37.097656 16.609375-37.097656 37.097656v12.800781c0 20.488281 16.609375 37.101563 37.097656 37.101563h.800781c20.488281 0 37.101563-16.613282 37.101563-37.101563zm-12 12.800781c0 13.863281-11.238282 25.101563-25.101563 25.101563h-.800781c-13.863281 0-25.097656-11.238282-25.097656-25.101563v-12.800781c0-13.863281 11.234375-25.097656 25.097656-25.097656h.800781c13.863281 0 25.101563 11.234375 25.101563 25.097656zm0 0"/><path d="m453.660156 124.152344h-6.167968c-2.515626-.042969-4.78125 1.511718-5.648438 3.875l-7.46875 20.734375-13.441406-14.320313c-1.148438-1.230468-2.757813-1.921875-4.441406-1.902344-1.679688.015626-3.277344.738282-4.402344 1.992188l-12.230469 13.664062-6.542969-20c-.8125-2.449218-3.121094-4.085937-5.699218-4.046874h-7.175782c-10.804687-.046876-21.125 4.476562-28.417968 12.449218-7.292969 7.972656-10.878907 18.65625-9.871094 29.417969v60.574219c.015625 10.996094 4.472656 21.515625 12.359375 29.171875l5.613281 5.429687c5.238281 5.050782 8.34375 11.914063 8.679688 19.183594l4.945312 103.949219c.144531 3.222656 2.769531 5.773437 5.992188 5.828125h74.777343c3.222657-.054688 5.847657-2.605469 5.992188-5.828125l4.953125-103.96875c.335937-7.242188 3.414062-14.082031 8.609375-19.132813l5.714843-5.492187c7.851563-7.644531 12.304688-18.121094 12.363282-29.078125v-60.636719c.957031-10.78125-2.671875-21.46875-10-29.4375-7.324219-7.96875-17.667969-12.480469-28.492188-12.425781zm-36.988281 23.25 6.765625 7.199218 8.066406 75.089844-14.460937 14.460938-14.457031-14.460938 8.121093-75.628906zm63.425781 17.714844c-.019531.203124.054688.402343.054688.605468v60.929688c-.050782 7.714844-3.195313 15.085937-8.730469 20.464844l-5.671875 5.472656c-7.386719 7.203125-11.765625 16.941406-12.25 27.25l-4.703125 98.3125h-63.335937l-4.675782-98.238282c-.476562-10.339843-4.890625-20.109374-12.335937-27.300781l-5.601563-5.457031c-5.550781-5.402344-8.6875-12.816406-8.695312-20.566406v-60.867188c0-.199218-.035156-.398437-.054688-.605468-.75-7.429688 1.6875-14.828126 6.710938-20.355469 5.027344-5.523438 12.160156-8.65625 19.628906-8.609375h2.816406l8.417969 25.761718c.742187 2.496094 3.085937 4.171876 5.6875 4.0625l-7.011719 65.300782c-.195312 1.800781.441406 3.59375 1.722656 4.875l20.730469 20.726562c2.34375 2.34375 6.144531 2.34375 8.488281 0l20.730469-20.726562c1.28125-1.285156 1.914063-3.078125 1.722657-4.882813l-7.015626-65.320312c.402344.003906.804688-.035157 1.199219-.113281 2.03125-.382813 3.714844-1.808594 4.425781-3.75l9.359376-25.933594h1.949218c7.476563-.050782 14.625 3.078125 19.664063 8.597656 5.039062 5.523438 7.503906 12.925781 6.773437 20.367188zm0 0"/></svg>