<svg height="502pt" viewBox="-67 0 502 502.195" width="502pt" xmlns="http://www.w3.org/2000/svg"><path d="m184.140625 0c-101.480469 0-184.0429688 82.5625-184.0429688 184.046875-.0039062 73.773437 44.0429688 140.429687 111.9101558 169.351563l26.914063 38.621093c-42.628906 8.820313-69.652344 29.058594-69.652344 52.84375 0 32.148438 50.457031 57.332031 114.871094 57.332031s114.871094-25.183593 114.871094-57.332031c0-23.765625-27.03125-44.023437-69.648438-52.84375l26.910157-38.621093c67.867187-28.925782 111.914062-95.578126 111.910156-169.351563 0-101.484375-82.5625-184.046875-184.042969-184.046875zm102.871094 444.867188c0 11.09375-10.367188 22.34375-28.445313 30.867187-19.78125 9.328125-46.210937 14.464844-74.425781 14.464844s-54.644531-5.136719-74.425781-14.460938c-18.078125-8.523437-28.445313-19.777343-28.445313-30.871093 0-18.089844 26.597657-35.144532 65.15625-42.070313l32.792969 47.054687c1.121094 1.609376 2.960938 2.570313 4.921875 2.570313s3.800781-.960937 4.921875-2.570313l32.789062-47.054687c38.542969 6.925781 65.160157 23.992187 65.160157 42.070313zm39.472656-164.167969c-18.855469 27.78125-45.429687 49.4375-76.445313 62.300781-1.054687.441406-1.964843 1.171875-2.621093 2.113281l-63.277344 90.8125-63.28125-90.808593c-.652344-.941407-1.5625-1.675782-2.617187-2.117188-64.261719-26.65625-106.148438-89.386719-106.144532-158.953125 0-94.867187 77.179688-172.046875 172.042969-172.046875s172.042969 77.179688 172.042969 172.046875c.0625 34.472656-10.289063 68.164063-29.699219 96.652344zm0 0"/><path d="m184.140625 65.773438c-65.320313-.003907-118.273437 52.949218-118.273437 118.273437 0 65.320313 52.953124 118.273437 118.273437 118.273437s118.273437-52.953124 118.273437-118.273437c-.074218-65.292969-52.984374-118.199219-118.273437-118.273437zm0 224.546874c-58.695313 0-106.273437-47.578124-106.273437-106.273437-.003907-58.695313 47.578124-106.273437 106.269531-106.273437 58.695312-.003907 106.277343 47.578124 106.277343 106.273437-.066406 58.664063-47.609374 106.207031-106.273437 106.273437zm0 0"/><path d="m222.148438 126.492188c3.089843 1.191406 6.5625-.351563 7.753906-3.445313 1.191406-3.089844-.351563-6.5625-3.445313-7.753906-17.859375-6.878907-37.785156-5.945313-54.925781 2.574219-17.136719 8.519531-29.914062 23.84375-35.214844 42.234374h-16.175781c-3.3125 0-6 2.683594-6 6 0 3.3125 2.6875 6 6 6h13.871094c-.222657 2.265626-.335938 4.550782-.339844 6.859376 0 4.410156.421875 8.808593 1.261719 13.140624h-14.792969c-3.3125 0-6 2.683594-6 6 0 3.3125 2.6875 6 6 6h18.3125c13.816406 34.789063 53.0625 51.972657 88 38.53125 3.089844-1.191406 4.632813-4.660156 3.441406-7.753906-1.191406-3.09375-4.664062-4.636718-7.753906-3.445312-27.046875 10.40625-57.574219-1.421875-70.550781-27.332032h54.550781c3.3125 0 6-2.6875 6-6 0-3.316406-2.6875-6-6-6h-58.921875c-1.027344-4.304687-1.546875-8.714843-1.546875-13.140624.003906-2.292969.148437-4.585938.429687-6.859376h66.039063c3.3125 0 6-2.6875 6-6 0-3.316406-2.6875-6-6-6h-63.238281c5.105468-14.285156 15.757812-25.90625 29.542968-32.230468 13.789063-6.328125 29.542969-6.824219 43.703126-1.378906zm0 0"/></svg>