<?xml version="1.0"?>
<svg xmlns="http://www.w3.org/2000/svg" id="Layer_1" data-name="Layer 1" viewBox="0 0 512 512" width="512" height="512"><title>Medal</title><path d="M256,287.9a75.3,75.3,0,1,0,75.3,75.3A75.382,75.382,0,0,0,256,287.9ZM256,426.5a63.3,63.3,0,1,1,63.3-63.3A63.369,63.369,0,0,1,256,426.5Z"/><path d="M294.522,347.808l-22.9-3.328-10.241-20.751a6,6,0,0,0-10.762,0L240.378,344.48l-22.9,3.328a6,6,0,0,0-3.326,10.234L230.723,374.2,226.812,397a6,6,0,0,0,8.706,6.325L256,392.559l20.482,10.768A6,6,0,0,0,285.188,397L281.277,374.2l16.571-16.153a6,6,0,0,0-3.326-10.234Zm-23.88,20a6,6,0,0,0-1.726,5.31l2.39,13.934-12.514-6.578a5.994,5.994,0,0,0-5.584,0l-12.514,6.578,2.39-13.934a6,6,0,0,0-1.726-5.31l-10.124-9.869,13.992-2.033a6,6,0,0,0,4.516-3.282L256,339.941l6.258,12.679a6,6,0,0,0,4.516,3.282l13.992,2.033Z"/><path d="M13.152,138.825l158.99,159.068a28.409,28.409,0,0,0-14.563,26.332l.388,7.391a16.5,16.5,0,0,1-2.692,9.919l-3.985,6.039a28.35,28.35,0,0,0,0,31.248l3.981,6.04a16.49,16.49,0,0,1,2.68,9.918l-.408,7.392a28.389,28.389,0,0,0,15.544,26.895l6.519,3.293a16.275,16.275,0,0,1,7.236,7.236l3.293,6.519a28.382,28.382,0,0,0,26.894,15.543l7.391-.408a16.524,16.524,0,0,1,9.92,2.682l6.039,3.982a28.354,28.354,0,0,0,31.248,0l6.039-3.982a16.506,16.506,0,0,1,9.919-2.682l7.393.408a28.4,28.4,0,0,0,26.893-15.543l3.293-6.519a16.275,16.275,0,0,1,7.236-7.236l6.519-3.293a28.388,28.388,0,0,0,15.544-26.9l-.407-7.391a16.482,16.482,0,0,1,2.681-9.919l3.981-6.039a28.35,28.35,0,0,0,0-31.248l-3.983-6.039a16.489,16.489,0,0,1-2.68-9.919l.407-7.392a28.375,28.375,0,0,0-14.223-26.165L499.4,138.737a5.865,5.865,0,0,0,4.6-5.869V45.4c0-3.313-2.372-6.4-5.686-6.4H13.686C10.372,39,8,42.086,8,45.4v87.469A5.864,5.864,0,0,0,13.152,138.825ZM329.315,292.078a16.425,16.425,0,0,1-4.154-5.245l-3.293-6.535a28.4,28.4,0,0,0-26.894-15.551l-7.392.4a16.48,16.48,0,0,1-9.919-2.684l-6.039-3.982c-.682-.45-1.382-.792-2.09-1.177L387.907,139h94.552ZM256.232,253.7,141.529,139H370.938ZM124.561,139,242.774,257.149c-.814.43-1.618.853-2.4,1.367l-6.039,3.965a16.465,16.465,0,0,1-9.919,2.673l-7.392-.411a28.359,28.359,0,0,0-26.894,15.54l-3.293,6.518a16.576,16.576,0,0,1-3.9,5.066L30.008,139ZM346.715,348.141l3.982,6.039a16.361,16.361,0,0,1,0,18.037l-3.98,6.038a28.579,28.579,0,0,0-4.646,17.185l.408,7.391a16.388,16.388,0,0,1-8.972,15.525l-6.519,3.293a28.193,28.193,0,0,0-12.537,12.537l-3.293,6.519a16.387,16.387,0,0,1-15.523,8.971l-7.393-.407a28.557,28.557,0,0,0-17.183,4.644l-6.039,3.982a16.368,16.368,0,0,1-18.038,0l-6.039-3.982a28.605,28.605,0,0,0-15.657-4.686q-.763,0-1.527.042l-7.391.407a16.391,16.391,0,0,1-15.524-8.971l-3.293-6.52a28.2,28.2,0,0,0-12.537-12.536l-6.519-3.293a16.388,16.388,0,0,1-8.972-15.524l.408-7.393a28.579,28.579,0,0,0-4.645-17.183l-3.982-6.039a16.361,16.361,0,0,1,0-18.037l3.98-6.039a28.574,28.574,0,0,0,4.646-17.185l-.408-7.391a16.386,16.386,0,0,1,8.972-15.524l6.519-3.293a28.2,28.2,0,0,0,12.537-12.537l3.293-6.519a16.43,16.43,0,0,1,15.523-8.972l7.392.407a28.547,28.547,0,0,0,17.184-4.644l6.039-3.982a16.364,16.364,0,0,1,18.038,0l6.039,3.982a28.554,28.554,0,0,0,17.184,4.644l7.392-.407a16.4,16.4,0,0,1,15.523,8.972l3.293,6.519a28.2,28.2,0,0,0,12.537,12.537l6.519,3.293a16.385,16.385,0,0,1,8.972,15.523l-.408,7.393A28.579,28.579,0,0,0,346.715,348.141ZM20,51H492v76H20Z"/></svg>
