<?xml version="1.0" encoding="iso-8859-1"?>
<!-- Generator: Adobe Illustrator 19.0.0, SVG Export Plug-In . SVG Version: 6.00 Build 0)  -->
<svg version="1.1" id="Capa_1" xmlns="http://www.w3.org/2000/svg" xmlns:xlink="http://www.w3.org/1999/xlink" x="0px" y="0px"
	 viewBox="0 0 512.003 512.003" style="enable-background:new 0 0 512.003 512.003;" xml:space="preserve">
<g>
	<g>
		<path d="M479.5,277.941H35.3c-18.223,0-32.502,14.279-32.502,32.502v108.341c0,18.223,14.279,32.502,32.502,32.502h444.2
			c18.223,0,32.502-14.279,32.502-32.502V310.443C512.003,292.22,497.723,277.941,479.5,277.941z M479.495,418.785h-444.2
			L35.051,310.47c0,0,0.07-0.027,0.244-0.027h444.2V418.785z"/>
	</g>
</g>
<g>
	<g>
		<path d="M67.797,418.785c-8.976,0-16.251,7.275-16.251,16.251v32.502c0,8.976,7.275,16.251,16.251,16.251
			s16.251-7.275,16.251-16.251v-32.502C84.049,426.06,76.773,418.785,67.797,418.785z"/>
	</g>
</g>
<g>
	<g>
		<path d="M446.451,418.785c-8.976,0-16.251,7.275-16.251,16.251v32.502c0,8.976,7.275,16.251,16.251,16.251
			s16.251-7.275,16.251-16.251v-32.502C462.702,426.06,455.427,418.785,446.451,418.785z"/>
	</g>
</g>
<g>
	<g>
		<path d="M100.3,337.529c-8.976,0-16.251,7.275-16.251,16.251v21.668c0,8.976,7.275,16.251,16.251,16.251
			c8.976,0,16.251-7.275,16.251-16.251V353.78C116.551,344.804,109.276,337.529,100.3,337.529z"/>
	</g>
</g>
<g>
	<g>
		<path d="M398.244,321.819c-23.304,0-42.259,18.954-42.259,42.253c0,23.299,18.954,42.253,42.259,42.253
			c22.817,0,41.365-18.294,42.242-41.652c0.005-0.2,0.011-0.401,0.011-0.601C440.497,340.773,421.543,321.819,398.244,321.819z
			 M398.244,373.823c-5.379,0-9.756-4.377-9.756-9.751c0-5.374,4.377-9.751,9.756-9.751c5.276,0,9.588,4.22,9.745,9.458
			C407.632,369.527,403.493,373.823,398.244,373.823z"/>
	</g>
</g>
<g>
	<g>
		<path d="M170.722,337.529c-8.976,0-16.251,7.275-16.251,16.251v21.668c0,8.976,7.275,16.251,16.251,16.251
			c8.976,0,16.251-7.275,16.251-16.251V353.78C186.973,344.804,179.698,337.529,170.722,337.529z"/>
	</g>
</g>
<g>
	<g>
		<path d="M241.144,337.529c-8.976,0-16.251,7.275-16.251,16.251v21.668c0,8.976,7.275,16.251,16.251,16.251
			c8.976,0,16.251-7.275,16.251-16.251V353.78C257.395,344.804,250.12,337.529,241.144,337.529z"/>
	</g>
</g>
<g>
	<g>
		<rect x="342.47" y="137.097" width="32.502" height="157.095"/>
	</g>
</g>
<g>
	<g>
		<path d="M358.694,66.675c-24.301,0-43.337,19.036-43.337,43.337c0,24.301,19.036,43.337,43.337,43.337
			c23.895,0,43.337-19.442,43.337-43.337C402.031,85.711,382.995,66.675,358.694,66.675z M358.694,120.846
			c-6.181,0-10.834-4.659-10.834-10.834c0-6.175,4.653-10.834,10.834-10.834c6.181,0,10.834,4.659,10.834,10.834
			C369.528,115.987,364.669,120.846,358.694,120.846z"/>
	</g>
</g>
<g>
	<g>
		<path d="M430.313,57.894c-6.349-6.349-16.63-6.349-22.979,0c-6.349,6.343-6.349,16.636,0,22.979
			c6.885,6.891,10.677,16.078,10.677,25.888s-3.792,19.003-10.677,25.888c-6.349,6.343-6.349,16.636,0,22.979
			c3.174,3.174,7.329,4.762,11.49,4.762c4.16,0,8.321-1.587,11.49-4.762C457.263,128.684,457.263,84.838,430.313,57.894z"/>
	</g>
</g>
<g>
	<g>
		<path d="M473.113,32.975c-6.349-6.343-16.641-6.349-22.979,0c-6.349,6.349-6.349,16.641,0,22.985
			c27.79,27.79,27.757,73.412-0.092,101.7c-6.295,6.392-6.219,16.685,0.179,22.979c3.158,3.115,7.281,4.669,11.398,4.669
			c4.198,0,8.402-1.62,11.587-4.848C513.525,139.507,513.487,73.343,473.113,32.975z"/>
	</g>
</g>
<g>
	<g>
		<rect x="128.469" y="137.097" width="32.502" height="157.095"/>
	</g>
</g>
<g>
	<g>
		<path d="M144.72,66.675c-24.301,0-43.337,19.036-43.337,43.337c0,23.895,19.442,43.337,43.337,43.337
			c24.301,0,43.337-19.036,43.337-43.337C188.056,85.711,169.021,66.675,144.72,66.675z M144.72,120.846
			c-5.872,0-10.834-4.962-10.834-10.834c0-6.175,4.659-10.834,10.834-10.834c6.181,0,10.834,4.659,10.834,10.834
			C155.554,116.187,150.895,120.846,144.72,120.846z"/>
	</g>
</g>
<g>
	<g>
		<path d="M96.08,80.873c6.349-6.343,6.349-16.636,0-22.979c-6.343-6.349-16.636-6.349-22.979,0c-26.95,26.945-26.95,70.79,0,97.735
			c3.169,3.174,7.329,4.762,11.49,4.762c4.16,0,8.321-1.587,11.49-4.762c6.349-6.343,6.349-16.636,0-22.979
			C81.806,118.37,81.806,95.147,96.08,80.873z"/>
	</g>
</g>
<g>
	<g>
		<path d="M53.377,55.862c6.3-6.392,6.219-16.685-0.179-22.979c-6.392-6.295-16.679-6.219-22.985,0.184
			c-40.319,40.953-40.281,107.117,0.092,147.485c3.169,3.169,7.329,4.756,11.49,4.756c4.16,0,8.321-1.587,11.49-4.762
			c6.349-6.349,6.349-16.636,0-22.985C25.495,129.773,25.533,84.15,53.377,55.862z"/>
	</g>
</g>
<g>
</g>
<g>
</g>
<g>
</g>
<g>
</g>
<g>
</g>
<g>
</g>
<g>
</g>
<g>
</g>
<g>
</g>
<g>
</g>
<g>
</g>
<g>
</g>
<g>
</g>
<g>
</g>
<g>
</g>
</svg>
