<svg height="486pt" viewBox="0 -10 486.1413 486" width="486pt" xmlns="http://www.w3.org/2000/svg"><path d="m151.050781 113.554688 23.707031.199218-2.585937 43.933594c-.144531 2.382812 1.144531 4.625 3.273437 5.707031 2.128907 1.078125 4.699219.792969 6.539063-.730469l58.46875-48.359374 20.214844.167968 57.667969 34.808594c1.917968 1.15625 4.320312 1.148438 6.234374-.019531 1.910157-1.171875 3.011719-3.3125 2.851563-5.546875l-2.085937-29.644532h9.378906c15.386718 0 28.285156-12.5 28.285156-27.890624v-43.5c0-15.382813-12.898438-27.609376-28.285156-27.609376h-32.359375c-5.003907-8.394531-13.984375-13.613281-23.753907-13.800781l-126.601562-1.1992185h-.238281c-15.308594.015625-27.75 12.3515625-27.898438 27.6601565l-.484375 57.691406c-.109375 15.402344 12.269532 27.988281 27.671875 28.132813zm154.730469-26.609376.484375-57.550781c.007813-.832031-.03125-1.324219-.101563-2.324219h28.546876c8.773437 0 16.289062 6.84375 16.289062 15.613282v43.5c0 8.769531-7.515625 15.890625-16.285156 15.890625h-15.816406c-1.664063.003906-3.253907.699219-4.386719 1.917969-1.136719 1.21875-1.714844 2.851562-1.597657 4.515624l1.726563 24.527344-31.363281-18.933594c12.988281-2.574218 22.386718-13.914062 22.503906-27.15625zm-169.917969-59.113281c.085938-8.722656 7.179688-15.753906 15.90625-15.761719h.132813l126.597656 1.050782c8.777344.082031 15.835938 7.253906 15.769531 16.03125l-.480469 57.691406c-.074218 8.785156-7.253906 15.847656-16.039062 15.769531l-39.378906-.328125c-1.414063-.015625-2.785156.472656-3.875 1.375l-49.535156 40.96875 2.148437-36.46875c.097656-1.640625-.484375-3.25-1.605469-4.453125-1.125-1.199219-2.691406-1.886719-4.332031-1.902343l-30.019531-.25c-8.777344-.082032-15.835938-7.253907-15.769532-16.03125zm0 0"/><path d="m6.164062 338.070312h149.328126c3.316406 0 5.507812-2.539062 5.507812-5.855468v-33.621094c0-22.855469-18.101562-41.523438-40.953125-41.523438h-12.046875v-.78125c3-2.871093 7.367188-6.25 11.398438-10.277343 10.71875-10.707031 18.558593-21.992188 23.402343-33.546875 6.785157-16.199219 7.070313-33.625.84375-49.054688-4.707031-11.660156-13.386719-18.539062-22.960937-18.667968-10.210938-21.328126-34.484375-31.976563-57.09375-25.046876-19.0625 5.507813-34.800782 18.300782-43.164063 35.101563-4.890625 10.058594-7.15625 21.191406-6.59375 32.363281 1.160157 28.109375 16.167969 54.269532 40.167969 67.726563v2.183593h-12.390625c-22.925781.050782-41.5117188 18.597657-41.609375 41.523438v33.621094c.0898438 3.316406 2.847656 5.9375 6.164062 5.855468zm59.835938-74.925781v-8.78125c4.699219 1.765625 9.679688 2.683594 14.699219 2.707031h.367187c5.132813 0 9.933594-1.207031 14.933594-2.761718v9.507812c0 8.285156-6.714844 15-15 15s-15-6.714844-15-15zm51-72.625v17.375c0 20.1875-16.160156 36.726563-36.046875 36.875-9.722656.085938-19.078125-3.695312-26.007813-10.511719-6.933593-6.816406-10.871093-16.109374-10.945312-25.832031v-3.15625c24.347656-4.722656 45.574219-19.496093 58.460938-40.691406 1.597656.578125 3.121093 1.339844 4.539062 2.273437 6.449219 4.355469 10.234375 11.703126 10.035156 19.484376zm-85.839844-30.375c6.878906-13.800781 19.910156-24.339843 35.757813-28.917969 8.875-2.75 18.472656-1.960937 26.78125 2.203126 7.828125 4.078124 13.957031 10.800781 17.300781 18.972656l.222656.65625c.980469 2.945312 4.050782 4.65625 7.074219 3.9375 1.492187-.355469 9.1875-1.492188 14.191406 10.902344 5.035157 12.476562 4.75 26.660156-.808593 39.929687-.894532 2.128906-1.9375 4.253906-3.078126 6.371094.269532-2.089844.402344-4.199219.402344-6.308594v-17.285156l.082032-4.09375c.277343-11.855469-5.511719-23.039063-15.359376-29.652344-3.964843-2.679687-8.484374-4.425781-13.222656-5.101563-2.464844-.339843-4.886718.882813-6.082031 3.066407-19.027344 34.820312-52.722656 38.847656-55.5 39.125-3.804687.152343-6.835937 3.234375-6.921875 7.042969v7.433593c.0625 2.269531.28125 4.53125.652344 6.769531-4.304688-8.925781-6.730469-18.636718-7.125-28.535156-.378906-9.171875 1.554687-18.292968 5.632812-26.515625zm-19.160156 138.449219c.089844-16.300781 13.308594-29.480469 29.609375-29.523438h12.515625c2.539062 12.664063 13.660156 21.773438 26.574219 21.773438 12.914062 0 24.035156-9.109375 26.574219-21.773438h12.773437c16.238281 0 28.953125 13.289063 28.953125 29.523438v27.476562h-137zm0 0"/><path d="m444 143.425781c0-18.421875-14.933594-33.355469-33.355469-33.355469h-.289062c-18.421875 0-33.355469 14.933594-33.355469 33.355469v11.289063c0 18.421875 14.933594 33.355468 33.355469 33.355468h.289062c18.421875 0 33.355469-14.933593 33.355469-33.355468zm-12 11.289063c0 11.796875-9.5625 21.355468-21.355469 21.355468h-.289062c-11.792969 0-21.355469-9.558593-21.355469-21.355468v-11.289063c0-11.792969 9.5625-21.355469 21.355469-21.355469h.289062c11.792969 0 21.355469 9.5625 21.355469 21.355469zm0 0"/><path d="m345.890625 209.527344c-6.558594 7.15625-9.785156 16.753906-8.890625 26.417968v77.5c.101562 11.621094 9.472656 21.03125 21.089844 21.183594 3.820312.039063 7.578125-.996094 10.84375-2.980468l3.667968 112.792968c.324219 9.085938 6.097657 17.082032 14.625 20.246094 8.527344 3.164062 18.117188.875 24.296876-5.800781 6.179687 6.679687 15.777343 8.96875 24.300781 5.796875 8.527343-3.171875 14.300781-11.175782 14.613281-20.265625l3.644531-112.523438c3.089844 1.746094 6.570313 2.6875 10.117188 2.734375h.28125c5.539062-.015625 10.851562-2.207031 14.789062-6.105468 4.222657-4.109376 6.644531-9.730469 6.730469-15.621094v-76.957032c.878906-9.671874-2.367188-19.269531-8.941406-26.421874-6.621094-7.273438-15.992188-11.429688-25.828125-11.453126h-17.554688c-1.8125.019532-3.523437.851563-4.65625 2.265626-4.289062 5.308593-10.746093 8.390624-17.570312 8.386718s-13.28125-3.089844-17.566407-8.398437c-1.136718-1.414063-2.84375-2.238281-4.65625-2.253907h-17.546874c-9.824219.023438-19.183594 4.183594-25.789063 11.457032zm9.007813 8.042968c4.261718-4.785156 10.371093-7.515624 16.777343-7.5h14.851563c6.527344 6.761719 15.523437 10.578126 24.921875 10.578126 9.398437 0 18.390625-3.816407 24.921875-10.578126h14.859375c6.398437.054688 12.484375 2.78125 16.785156 7.519532 4.300781 4.738281 6.425781 11.0625 5.855469 17.4375-.019532.199218.125.429687.125.628906v77.246094c-.078125 2.683594-1.214844 5.226562-3.160156 7.082031-1.6875 1.710937-3.996094 2.664063-6.398438 2.648437-2.449219-.027343-4.796875-.992187-6.558594-2.691406-1.78125-1.703125-2.816406-4.042968-2.878906-6.507812v-42.964844c0-3.3125-2.6875-6-6-6s-6 2.6875-6 6v29.8125c0 .460938-.074219.945312-.089844 1.449219l-4.535156 142.273437c-.039062 3.65625-2.039062 7.011719-5.234375 8.792969-3.199219 1.777344-7.101563 1.703125-10.230469-.191406s-5.003906-5.320313-4.910156-8.976563v-93.605468c0-3.316407-2.6875-6-6-6s-6 2.683593-6 6v93.605468c-.117188 5.820313-4.878906 10.476563-10.699219 10.460938-5.65625.03125-10.324219-4.410156-10.574219-10.0625l-4.457031-142.078125c-.023437-.710938-.269531-1.382813-.269531-2.007813v-29.472656c0-3.3125-2.6875-6-6-6s-6 2.6875-6 6v42.433594c-.101562 2.6875-1.25 5.226562-3.207031 7.074218-1.699219 1.691407-4 2.644532-6.398438 2.652344-2.445312-.023437-4.789062-.984375-6.539062-2.691406-1.773438-1.699219-2.800781-4.03125-2.855469-6.488281v-77.792969c0-.199219.101562-.425781.078125-.628906-.640625-6.382813 1.476563-12.734375 5.820313-17.457032zm0 0"/></svg>