<svg height="476pt" viewBox="0 -24 476 476" width="476pt" xmlns="http://www.w3.org/2000/svg"><path d="m469.890625 204h-27.890625v-165.011719c.089844-10.304687-3.945312-20.222656-11.199219-27.542969-7.257812-7.320312-17.136719-11.44140575-27.441406-11.445312h-364.144531c-21.585938-.0390625-39.1289065 17.402344-39.214844 38.988281v249.1875c.101562 21.554688 17.664062 38.941407 39.214844 38.824219h214.785156v95.113281c.101562 3.328125 2.863281 5.953125 6.195312 5.886719h152.445313c1.007813.109375 2.019531-.117188 2.878906-.648438.015625-.007812.027344 0 .042969-.011718.15625-.085938.304688-.171875.453125-.273438.058594-.039062.117187-.082031.175781-.125.097656-.074218.199219-.140625.289063-.21875.070312-.058594.128906-.117187.195312-.175781.082031-.074219.164063-.148437.238281-.226563l.039063-.035156 57.246094-59.152344c.015625-.015624.027343-.035156.039062-.050781.246094-.257812.46875-.535156.664063-.832031.015625-.023438.03125-.046875.042968-.070312.195313-.300782.363282-.621094.5-.953126.007813-.015624.011719-.035156.019532-.050781.136718-.339843.242187-.691406.3125-1.050781 0-.015625.058594-.027344.0625-.042969.089844-.367187.140625-.742187.160156-1.121093v-152.6875c-.03125-3.386719-2.722656-6.152344-6.109375-6.273438zm-430.675781-192h364.144531c9.332031-.019531 18.019531 4.777344 22.976563 12.683594l-192.371094 125.535156c-9.132813 5.988281-20.976563 5.894531-30.015625-.238281l-187.242188-126.007813c5.035157-7.5 13.476563-11.988281 22.507813-11.972656zm0 303c-7.167969.058594-14.066406-2.734375-19.171875-7.765625-5.105469-5.035156-8-11.890625-8.042969-19.058594v-249.1875c.019531-1.1875.113281-2.375.289062-3.550781l184.921876 124.480469c13.046874 8.832031 30.125 8.957031 43.300781.316406l189.589843-123.886719c.082032.871094-.101562 1.75-.101562 2.640625v165.011719h-169.804688c-3.40625.113281-6.125 2.871094-6.195312 6.273438v104.726562zm226.785156-99h198v141h-51.359375c-1.550781.003906-3.03125.644531-4.09375 1.773438-1.066406 1.125-1.625 2.636718-1.546875 4.1875v53.039062h-141zm189.730469 153-36.730469 38.285156v-38.285156zm0 0"/><path d="m391.671875 353.167969c-20.832031 8.011719-44.386719-.601563-55.132813-20.167969h42.460938c3.3125 0 6-2.6875 6-6s-2.6875-6-6-6h-46.929688c-.988281-4.597656-1.25-9.320312-.765624-14h52.695312c3.3125 0 6-2.6875 6-6s-2.6875-6-6-6h-49.746094c9.09375-22.625 34.664063-33.757812 57.421875-25 3.09375 1.191406 6.566407-.351562 7.753907-3.445312 1.191406-3.089844-.351563-6.5625-3.441407-7.753907-14.648437-5.632812-30.980469-4.9375-45.09375 1.925781-14.113281 6.863282-24.75 19.273438-29.367187 34.273438h-12.527344c-3.3125 0-6 2.6875-6 6s2.6875 6 6 6h10.265625c-.121094 1.519531-.199219 3.042969-.199219 4.582031.003906 3.15625.269532 6.304688.792969 9.417969h-10.859375c-3.3125 0-6 2.6875-6 6s2.6875 6 6 6h14.253906c11.683594 28.492188 43.992188 42.421875 72.730469 31.367188 3.09375-1.191407 4.636719-4.664063 3.445313-7.757813-1.191407-3.09375-4.664063-4.632813-7.757813-3.441406zm0 0"/></svg>