<?xml version="1.0"?>
<svg xmlns="http://www.w3.org/2000/svg" id="Layer_1" data-name="Layer 1" viewBox="0 0 512 512" width="512" height="512"><title>Microscope</title><path d="M173.1,456h-71.41A5.87,5.87,0,0,0,96,462.149V499.1a5.658,5.658,0,0,0,5.686,5.9H365.847A6.053,6.053,0,0,0,372,499.1V462.149A6.262,6.262,0,0,0,365.847,456H292.912c28.067-11,53.468-31,73.667-57H451a5.868,5.868,0,0,0,6-5.843V369.124A6.107,6.107,0,0,0,451,363H232.212A6.291,6.291,0,0,0,226,369.124v24.033A6.053,6.053,0,0,0,232.212,399h76.2c-22.243,18-48.515,27.081-75.368,27.081-75.1,0-136.206-72.2-136.206-161s61.1-161.023,136.206-161.023a116.511,116.511,0,0,1,16.451,1.2,41.771,41.771,0,0,0,38.713,26.214c1.262,0,2.8-.061,3.8-.172v63.711A5.9,5.9,0,0,0,297.9,201H310v56.119c0,3.313,3.028,5.881,6.342,5.881h50.527A6.013,6.013,0,0,0,373,257.119V201h12.317A5.731,5.731,0,0,0,391,195.008V12.9A5.656,5.656,0,0,0,385.317,7H297.9A5.83,5.83,0,0,0,292,12.9V48.379c-1-.111-2.533-.177-3.8-.177a41.621,41.621,0,0,0-32.536,15.667,158.347,158.347,0,0,0-22.615-1.63c-98.172,0-178.047,90.936-178.047,202.8C55.007,352.952,104.328,428,173.1,456ZM360,493H108V468H360ZM238,375H445v12H238ZM361,251H322V201h39Zm-57-62V128.374a41.957,41.957,0,0,0,25.841-38.566A43.228,43.228,0,0,0,328.849,81H379V189Zm0-170h75V69H324.209A43.884,43.884,0,0,0,304,51.3ZM288.152,60.2a29.636,29.636,0,1,1-29.635,29.636A29.67,29.67,0,0,1,288.152,60.2ZM233.041,74.239a146.2,146.2,0,0,1,16.161.905,41.438,41.438,0,0,0-2.685,14.694c0,1,.047,1.982.117,2.961a128.664,128.664,0,0,0-13.593-.725c-81.721,0-148.206,77.627-148.206,173.043S151.32,438.081,233.041,438.081c34.105,0,67.264-14.081,93.652-39.081H351.1c-31.159,36-73.58,56.916-118.061,56.916C141.485,455.916,67,370.327,67,265.077S141.485,74.239,233.041,74.239Z"/></svg>
