<?xml version="1.0" encoding="iso-8859-1"?>
<!-- Generator: Adobe Illustrator 19.0.0, SVG Export Plug-In . SVG Version: 6.00 Build 0)  -->
<svg version="1.1" id="Capa_1" xmlns="http://www.w3.org/2000/svg" xmlns:xlink="http://www.w3.org/1999/xlink" x="0px" y="0px"
	 viewBox="0 0 512 512" style="enable-background:new 0 0 512 512;" xml:space="preserve">
<g>
	<g>
		<path d="M495.304,201.739h-61.217c-9.222,0-16.696,7.474-16.696,16.696v184.209c0,6.35-4.781,11.13-11.13,11.13H105.739
			c-6.344,0-11.13-4.781-11.13-11.13V218.435c0-9.222-7.474-16.696-16.696-16.696H16.696C7.474,201.739,0,209.213,0,218.435
			c0,9.222,7.474,16.696,16.696,16.696h44.522v167.513c0,24.966,19.556,44.522,44.522,44.522h300.522
			c24.966,0,44.522-19.556,44.522-44.522V235.13h44.522c9.222,0,16.696-7.474,16.696-16.696
			C512,209.213,504.526,201.739,495.304,201.739z"/>
	</g>
</g>
<g>
	<g>
		<path d="M364.5,256.033c-6.272-6.74-16.835-7.123-23.597-0.846L256,334.202l-84.903-79.015c-6.756-6.283-17.313-5.91-23.596,0.846
			c-6.283,6.751-5.905,17.313,0.846,23.596l96.278,89.6c3.206,2.983,7.29,4.474,11.375,4.474s8.17-1.491,11.375-4.474l96.278-89.6
			C370.404,273.347,370.783,262.784,364.5,256.033z"/>
	</g>
</g>
<g>
	<g>
		<path d="M256,64.835c-9.222,0-16.696,7.474-16.696,16.696v275.478c0,9.222,7.474,16.696,16.696,16.696s16.696-7.474,16.696-16.696
			V81.53C272.696,72.309,265.222,64.835,256,64.835z"/>
	</g>
</g>
<g>
</g>
<g>
</g>
<g>
</g>
<g>
</g>
<g>
</g>
<g>
</g>
<g>
</g>
<g>
</g>
<g>
</g>
<g>
</g>
<g>
</g>
<g>
</g>
<g>
</g>
<g>
</g>
<g>
</g>
</svg>
