<svg height="478pt" viewBox="-61 0 478 478" width="478pt" xmlns="http://www.w3.org/2000/svg"><path d="m41.429688 478h273.140624c22.835938-.148438 41.300782-18.632812 41.429688-41.464844v-325.136718c-.050781-1.574219-.703125-3.070313-1.828125-4.175782l-102.082031-105.25c-1.140625-1.207031-2.710938-1.9179685-4.371094-1.972656h-206.289062c-22.835938.148438-41.300782 18.632812-41.429688 41.464844v395.070312c.128906 22.832032 18.59375 41.316406 41.429688 41.464844zm212.570312-456.898438 81.550781 83.898438h-68.726562c-3.402344.074219-6.691407-1.234375-9.109375-3.628906-2.417969-2.398438-3.757813-5.675782-3.714844-9.078125zm-242 20.363282c.117188-16.207032 13.21875-29.324219 29.429688-29.464844h200.570312v80.292969c-.039062 6.585937 2.566406 12.910156 7.234375 17.558593 4.667969 4.644532 11.003906 7.21875 17.589844 7.148438h77.175781v319.535156c-.117188 16.207032-13.21875 29.324219-29.429688 29.464844h-273.140624c-16.210938-.140625-29.3125-13.257812-29.429688-29.464844zm0 0"/><path d="m65.101562 407h219.914063c3.3125 0 6-2.6875 6-6s-2.6875-6-6-6h-219.914063c-3.316406 0-6 2.6875-6 6s2.683594 6 6 6zm0 0"/><path d="m65.101562 356h131.65625c3.3125 0 6-2.6875 6-6s-2.6875-6-6-6h-131.65625c-3.316406 0-6 2.6875-6 6s2.683594 6 6 6zm0 0"/><path d="m163 103.730469c0-14.210938-11.519531-25.730469-25.730469-25.730469h-.539062c-14.210938 0-25.730469 11.519531-25.730469 25.730469v8.539062c0 14.210938 11.519531 25.730469 25.730469 25.730469h.539062c14.210938 0 25.730469-11.519531 25.730469-25.730469zm-12 8.539062c0 7.582031-6.148438 13.730469-13.730469 13.730469h-.539062c-7.582031 0-13.730469-6.148438-13.730469-13.730469v-8.539062c0-7.582031 6.148438-13.730469 13.730469-13.730469h.539062c7.582031 0 13.730469 6.148438 13.730469 13.730469zm0 0"/><path d="m88 210.28125c.066406 7.589844 3.1875 14.828125 8.65625 20.085938l3.632812 3.445312c2.933594 2.8125 4.679688 6.644531 4.875 10.703125l3.160157 65.828125c.164062 3.191406 2.8125 5.6875 6.007812 5.660156h47.445313c3.191406.027344 5.835937-2.472656 5.992187-5.660156l3.144531-65.898438c.183594-4.03125 1.902344-7.835937 4.800782-10.644531l3.699218-3.464843c5.425782-5.253907 8.519532-12.464844 8.585938-20.015626v-38.375c0-7.363281-1.929688-14.699218-6.894531-20.1875-5.101563-5.582031-12.3125-8.757812-19.875-8.757812h-3.914063c-2.527344-.007812-4.789062 1.578125-5.644531 3.957031l-3.527344 9.8125-6.078125-6.46875c-1.144531-1.238281-2.761718-1.925781-4.445312-1.894531-1.683594.023438-3.277344.746094-4.398438 2l-5.222656 5.832031-2.972656-9.109375c-.804688-2.46875-3.105469-4.132812-5.703125-4.128906h-4.550781c-7.5625 0-14.777344 3.175781-19.878907 8.757812-4.964843 5.492188-6.894531 12.824219-6.894531 20.1875zm49.800781-47 2.152344 2.292969 4.925781 45.867187-6.878906 6.882813-6.882812-6.882813 4.96875-46.238281zm-33.875-3.480469c2.761719-3.082031 6.710938-4.828125 10.847657-4.800781h.199218l4.847656 14.878906c.535157 1.621094 1.738282 2.941406 3.308594 3.617188l-4.246094 39.523437c-.195312 1.800781.4375 3.597657 1.71875 4.878907l13.152344 13.15625c2.34375 2.34375 6.140625 2.34375 8.484375 0l13.160157-13.15625c1.285156-1.28125 1.917968-3.078126 1.726562-4.882813l-4.246094-39.519531c1.511719-.65625 2.6875-1.90625 3.25-3.457032l5.410156-15.0625c4.078126.109376 7.933594 1.898438 10.652344 4.941407 2.714844 3.042969 4.058594 7.074219 3.707032 11.140625-.019532.199218.101562.398437.101562.605468v38.65625c-.058594 4.3125-1.839844 8.421876-4.949219 11.410157l-3.640625 3.476562c-5.085937 4.90625-8.109375 11.570313-8.449218 18.632813l-2.90625 60.160156h-36l-2.867188-60.117188c-.328125-7.101562-3.371094-13.804687-8.5-18.726562l-3.699219-3.433594c-3.132812-2.988281-4.929687-7.113281-4.988281-11.441406v-38.617188c0-.199218.121094-.402343.101562-.601562-.394531-4.128906 1-8.226562 3.824219-11.261719zm0 0"/></svg>