<?xml version="1.0" encoding="iso-8859-1"?>
<!-- Generator: Adobe Illustrator 19.0.0, SVG Export Plug-In . SVG Version: 6.00 Build 0)  -->
<svg version="1.1" id="Capa_1" xmlns="http://www.w3.org/2000/svg" xmlns:xlink="http://www.w3.org/1999/xlink" x="0px" y="0px"
	 viewBox="0 0 512 512" style="enable-background:new 0 0 512 512;" xml:space="preserve">
<g>
	<g>
		<path d="M453.455,325.189c-8.819,0-15.967,7.148-15.967,15.967v84.091H74.511v-84.091c0-8.819-7.148-15.967-15.967-15.967
			c-8.819,0-15.967,7.148-15.967,15.967v100.058c0,8.819,7.148,15.967,15.967,15.967h394.911c8.819,0,15.967-7.148,15.967-15.967
			V341.156C469.422,332.337,462.274,325.189,453.455,325.189z"/>
	</g>
</g>
<g>
	<g>
		<path d="M496.033,242.694h-69.721c-4.237,0-8.292,1.682-11.288,4.678l-98.994,98.999c-6.238,6.238-6.238,16.345,0,22.577
			c3.119,3.119,7.201,4.678,11.289,4.678c4.087,0,8.17-1.559,11.288-4.678l94.321-94.321h63.106c8.819,0,15.967-7.148,15.967-15.967
			S504.852,242.694,496.033,242.694z"/>
	</g>
</g>
<g>
	<g>
		<path d="M415.135,341.693h-71.85v-71.85c0-8.819-7.148-15.967-15.967-15.967s-15.967,7.148-15.967,15.967v87.817
			c0,8.819,7.148,15.967,15.967,15.967h87.817c8.819,0,15.967-7.148,15.967-15.967C431.102,348.841,423.954,341.693,415.135,341.693
			z"/>
	</g>
</g>
<g>
	<g>
		<path d="M195.976,346.372l-98.994-98.999c-2.996-2.996-7.057-4.678-11.294-4.678H15.967C7.148,242.694,0,249.842,0,258.661
			s7.148,15.967,15.967,15.967h63.106l94.315,94.321c3.119,3.119,7.206,4.678,11.294,4.678c4.087,0,8.175-1.559,11.294-4.678
			C202.208,362.716,202.208,352.609,195.976,346.372z"/>
	</g>
</g>
<g>
	<g>
		<path d="M184.682,253.876c-8.819,0-15.967,7.148-15.967,15.967v71.85h-71.85c-8.819,0-15.967,7.148-15.967,15.967
			c0,8.819,7.148,15.967,15.967,15.967h87.817c8.819,0,15.967-7.148,15.967-15.967v-87.817
			C200.649,261.024,193.501,253.876,184.682,253.876z"/>
	</g>
</g>
<g>
	<g>
		<path d="M256,54.819c-8.819,0-15.967,7.148-15.967,15.967v190.536c0,8.819,7.148,15.967,15.967,15.967s15.967-7.148,15.967-15.967
			V70.786C271.967,61.967,264.819,54.819,256,54.819z"/>
	</g>
</g>
<g>
	<g>
		<path d="M329.564,187.769c-6.238-6.238-16.339-6.238-22.577,0l-50.982,50.976l-50.982-50.982c-6.232-6.232-16.345-6.238-22.582,0
			c-6.238,6.238-6.238,16.345,0,22.582l62.27,62.265c3.113,3.119,7.201,4.678,11.288,4.678c4.088,0,8.175-1.559,11.299-4.673
			l62.265-62.27C335.802,204.113,335.802,194.001,329.564,187.769z"/>
	</g>
</g>
<g>
</g>
<g>
</g>
<g>
</g>
<g>
</g>
<g>
</g>
<g>
</g>
<g>
</g>
<g>
</g>
<g>
</g>
<g>
</g>
<g>
</g>
<g>
</g>
<g>
</g>
<g>
</g>
<g>
</g>
</svg>
