<?xml version="1.0"?>
<svg xmlns="http://www.w3.org/2000/svg" id="Layer_1" data-name="Layer 1" viewBox="0 0 512 512" width="512" height="512"><title>Mobile Book</title><path d="M398,60a46,46,0,0,0-46-46H160a46,46,0,0,0-46,46V451a46,46,0,0,0,46,46H352a46,46,0,0,0,46-46ZM126,105H386V391H126Zm33.857-79H352.143C370.891,26,386,41.622,386,60.369V93H126V60.369C126,41.622,141.109,26,159.857,26ZM126,451.631V403H386v48.631C386,470.378,370.891,486,352.143,486H159.857C141.109,486,126,470.378,126,451.631Z"/><path d="M221.965,63h68.07a6,6,0,0,0,0-12h-68.07a6,6,0,0,0,0,12Z"/><path d="M256,471.45a26.945,26.945,0,1,0-26.945-26.945A26.976,26.976,0,0,0,256,471.45Zm0-41.89a14.945,14.945,0,1,1-14.945,14.945A14.962,14.962,0,0,1,256,429.56Z"/><path d="M357.816,115H178.971A31.09,31.09,0,0,0,148,145.917V345.064c0,.11.095.218.1.326,0,.231.038.462.038.694a30.842,30.842,0,0,0,30.81,30.787H344.785a6.188,6.188,0,0,0,6.215-6V327h6.816A5.915,5.915,0,0,0,364,321.3V121.13A6.272,6.272,0,0,0,357.816,115ZM246,127h62V248.133l-27.275-20.782a6.129,6.129,0,0,0-7.36,0L246,248.133Zm-86,18.917A19.077,19.077,0,0,1,178.971,127H190V315H178.972A30.965,30.965,0,0,0,160,321.709ZM339,364.87H179.175a18.936,18.936,0,0,1-.2-37.871H339ZM352,315H202V127h32V260.248a6.1,6.1,0,0,0,9.767,4.772l33.3-25.354,33.287,25.354A6.006,6.006,0,0,0,320,260.248V127h32Z"/></svg>
