<svg height="490pt" viewBox="-27 0 490 490.21092" width="490pt" xmlns="http://www.w3.org/2000/svg"><path d="m48.421875 330.316406c4.402344 5.277344 9.082031 10.371094 13.929687 15.148438l8.425782-8.546875c-4.570313-4.5-8.988282-9.308594-13.136719-14.285157zm0 0"/><path d="m35.757812 290.601562-10.507812 5.796876.164062.296874c3.257813 5.878907 6.832032 11.671876 10.617188 17.214844l9.910156-6.769531c-3.578125-5.238281-6.953125-10.707031-10.035156-16.265625zm0 0"/><path d="m12.058594 217.335938-11.953125 1.066406c.632812 6.910156 1.742187 13.769531 3.320312 20.527344l11.699219-2.683594c-1.457031-6.226563-2.480469-12.542969-3.066406-18.910156zm0 0"/><path d="m20.328125 255.011719-11.421875 3.679687c2.082031 6.464844 4.527344 12.941406 7.265625 19.253906l11.007813-4.777343c-2.582032-5.949219-4.886719-12.058594-6.851563-18.15625zm0 0"/><path d="m216.910156 389.742188c-4.90625.363281-11.699218.523437-16.253906.523437-20.101562.0625-40.082031-3.144531-59.15625-9.5-8.105469-2.726563-16.011719-6.03125-23.648438-9.882813-2.710937-1.367187-5.433593-2.828124-8.09375-4.34375-1.316406-.75-2.625-1.519531-3.917968-2.300781-5.730469-3.460937-11.273438-7.226562-16.597656-11.285156l-7.273438 9.546875c5.671875 4.320312 11.570312 8.328125 17.671875 12.015625 1.375.828125 2.765625 1.644531 4.171875 2.445313 2.835938 1.617187 5.742188 3.175781 8.632812 4.632812 8.148438 4.109375 16.578126 7.632812 25.230469 10.542969 20.304688 6.769531 41.578125 10.191406 62.980469 10.128906 4.773438 0 11.925781-.171875 17.136719-.554687zm0 0"/><path d="m374.324219 363.210938h-7.082031c6-4.582032 11.660156-9.59375 16.929687-15 16.6875-16.671876 28.953125-34.078126 36.457031-51.992188 10.414063-24.859375 10.902344-51.5 1.363282-75.128906-3.8125-9.445313-10.765626-19.191406-20.257813-24.136719-.109375-4.480469-.394531-9.007813-.851563-13.539063-4.613281-45.523437-26.453124-91.023437-59.921874-124.84375-26.441407-26.71875-72.25-58.570312-140.304688-58.570312-35.152344 0-70.398438 10.101562-102.03125 29.199219-22.363281 13.609375-42.183594 31.011719-58.566406 51.433593v-26.421874h-12v42.097656c-.023438 1.570312.589844 3.082031 1.699218 4.191406 1.105469 1.109375 2.617188 1.726562 4.183594 1.710938h39.117188v-12h-25.464844c15.75-20.324219 35.136719-37.542969 57.175781-50.78125 29.765625-17.972657 62.921875-27.449219 95.886719-27.449219 63.917969 0 106.941406 29.929687 131.777344 55.03125 31.570312 31.902343 52.167968 74.78125 56.511718 117.625.304688 3.035156.519532 6.070312.660157 9.085937-.988281-.035156-1.976563-.023437-2.964844.042969-6.546875-14.433594-17.53125-26.402344-31.355469-34.15625-19.5625-68.550781-82.183594-115.839844-153.46875-115.898437-87.957031 0-159.519531 71.558593-159.519531 159.519531 0 87.957031 71.5625 159.515625 159.519531 159.515625 22.207032.054687 44.183594-4.558594 64.492188-13.542969 6.089844 5.269531 12.707031 9.898437 19.75 13.808594v.199219h-9.199219c-34.335937 0-61.800781 28.429687-61.800781 62.761718v58.445313c-.097656 1.519531.441406 3.007812 1.492187 4.109375 1.054688 1.101562 2.515625 1.710937 4.039063 1.683594h210c3.3125 0 6.46875-2.480469 6.46875-5.792969v-58.445313c0-34.332031-28.402344-62.761718-62.734375-62.761718zm-76.265625 6.488281v-10.511719c8.6875 3.585938 18.007812 5.398438 27.40625 5.324219h.601562c9.257813-.132813 18.410156-1.988281 26.992188-5.464844v10.652344l-30.1875 35.550781c-20.21875-14.425781-24.8125-31.078125-24.8125-33.871094zm-209.960938-72.609375c-20.511718-24.835938-32.335937-55.699219-33.667968-87.878906h53.855468c.367188 21.585937 4.03125 42.988281 10.871094 63.464843-11.339844 6.792969-21.777344 14.996094-31.058594 24.414063zm31.058594-163.332032c-6.839844 20.472657-10.503906 41.871094-10.871094 63.453126h-53.855468c1.332031-32.179688 13.15625-63.035157 33.667968-87.863282 9.28125 9.414063 19.71875 17.617188 31.058594 24.410156zm196.070312-24.871093c11.082032 13.273437 19.726563 28.40625 25.539063 44.6875-13.601563-3.84375-28.015625-3.753907-41.570313.257812-2.890624.835938-5.734374 1.78125-8.519531 2.832031-1.648437-7.855468-3.773437-15.601562-6.367187-23.199218 11.300781-6.859375 21.6875-15.117188 30.921875-24.578125zm-35.777343 52.710937c-16.363281 8.160156-30.320313 20.433594-40.507813 35.613282h-30.882812v-40.832032c22.875-.871094 45.289062-6.667968 65.71875-17 2.34375 7.285156 4.238281 14.703125 5.671875 22.21875zm-71.390625 100.480469c4.992187.203125 9.96875.65625 14.914062 1.363281 1.898438 20.714844 8.703125 40.679688 19.855469 58.242188-9.914063 11.042968-21.679687 20.269531-34.769531 27.261718zm14.433594-10.824219c-4.816407-.617187-9.433594-1-14.433594-1.183594v-40.859374h24.078125c-6.179688 13.164062-9.46875 27.5-9.644531 42.042968zm-14.433594-106.882812v-86.855469c18.5625 10.125 34.4375 24.535156 46.304687 42.039063 6.074219 8.9375 11.199219 18.492187 15.289063 28.5-19.074219 9.917968-40.109375 15.492187-61.59375 16.316406zm-12 0c-21.519532-.804688-42.601563-6.289063-61.785156-16.070313 12.769531-31.308593 33.785156-56.011719 61.785156-70.796875zm0 12.011718v40.828126h-75.773438c.394532-19.566407 3.667969-38.96875 9.714844-57.582032 20.585938 10.191406 43.101562 15.902344 66.058594 16.753906zm-75.773438 52.828126h75.773438v40.867187c-22.957032.84375-45.472656 6.546875-66.058594 16.730469-6.046875-18.617188-9.320312-38.027344-9.714844-57.597656zm75.773438 52.875v86.871093c-28-14.785156-49.015625-39.488281-61.785156-70.800781 19.183593-9.785156 40.265624-15.269531 61.785156-16.070312zm53.65625 69.648437c2.257812 2.910156 4.632812 5.71875 7.132812 8.40625-8.019531 3.234375-16.316406 5.75-24.78125 7.507813 6.320313-4.796876 12.226563-10.121094 17.648438-15.914063zm137.34375-68.867187v27.585937c0 33.96875-27.484375 61.808594-60.980469 62.054687-.15625 0-.425781 0-.582031 0-33.851563.019532-61.332032-27.359374-61.4375-61.210937v-7.96875c39.699218-6.847656 74.316406-30.960937 94.5-65.824219 3.789062 1.027344 7.386718 2.667969 10.644531 4.859375 11.292969 7.558594 17.964844 20.335938 17.710937 33.921875zm-10.277344-61.757813.394531 1.183594c.984375 2.945312 4.054688 4.65625 7.078125 3.9375 16.304688-3.867188 25.027344 15.5 26.609375 19.417969 8.34375 20.679687 7.882813 44.140624-1.300781 66.066406-4.570312 10.839844-10.542969 21.035156-17.765625 30.316406 4.714844-9.863281 7.195313-20.644531 7.261719-31.578125v-27.5l-.136719-6.5c.375-17.648437-8.269531-34.265625-22.933594-44.089844-5.871093-3.960937-12.570312-6.542969-19.582031-7.542969-2.476562-.34375-4.910156.875-6.117188 3.066407-31.257812 57.210937-86.757812 63.554687-90.738281 63.9375-4.152343.128906-7.460937 3.515625-7.492187 7.667969v11.800781c-.007813 12.777343 3.351562 25.328125 9.730468 36.398437-16.65625-19.953125-26.28125-44.839844-27.386718-70.808594-.675782-15.140624 2.480468-30.210937 9.179687-43.808593 11.355469-22.785157 32.84375-40.179688 58.9375-47.71875 15.738281-4.546875 31.339844-3.246094 45.089844 3.753906 12.957031 6.589844 23.042969 17.652344 29.171875 32zm-69.617188-101.128906c-8.140624 8.421875-17.265624 15.832031-27.183593 22.0625-4.285157-10.25-9.585938-20.046875-15.824219-29.242188-8.742188-12.96875-19.539062-24.429687-31.96875-33.925781 28.492188 6.027344 54.570312 20.328125 74.976562 41.105469zm-135.667968-41.128907c-20.886719 15.847657-37.191406 37.566407-48.019532 63.5-9.972656-6.175781-19.152343-13.539062-27.34375-21.933593 20.425782-21.042969 46.667969-35.515625 75.363282-41.566407zm-75.363282 247.183594c8.191407-8.390625 17.371094-15.757812 27.34375-21.929687 10.828126 25.933593 27.132813 47.652343 48.019532 63.503906-28.695313-6.054687-54.9375-20.527344-75.363282-41.574219zm258.925782 172.175782h-128v-52.238282c0-27.714844 22.078125-50.761718 49.800781-50.761718h9.730469c2.644531 11 15.46875 43.472656 68.46875 57.617187zm70 0h-58v-50.070313c.039062-2.769531-1.84375-5.199219-4.539063-5.84375-10.253906-2.292969-20.175781-5.886719-29.515625-10.699219l30.425782-36.0625c.023437-.023437.070312.675782.089843-.324218h10.800781c27.71875 0 50.738282 23.046874 50.738282 50.761718zm0 0"/></svg>