<svg height="472pt" viewBox="-14 0 472 472.00094" width="472pt" xmlns="http://www.w3.org/2000/svg"><path d="m158 137c0 3.316406 2.6875 6 6 6h14.679688c11.609374 28.664062 44.046874 42.738281 72.910156 31.636719 3.09375-1.191407 4.632812-4.664063 3.441406-7.757813-1.191406-3.089844-4.664062-4.632812-7.753906-3.441406-20.964844 8.058594-44.65625-.6875-55.351563-20.4375h42.074219c3.316406 0 6-2.683594 6-6 0-3.3125-2.683594-6-6-6h-46.464844c-.96875-4.601562-1.203125-9.324219-.695312-14h53.160156c3.316406 0 6-2.683594 6-6 0-3.3125-2.683594-6-6-6h-50.160156c9.183594-22.542969 34.71875-33.59375 57.4375-24.855469 3.09375 1.191407 6.566406-.351562 7.757812-3.441406 1.191406-3.09375-.351562-6.566406-3.441406-7.757813-14.636719-5.628906-30.949219-4.949218-45.0625 1.882813s-24.765625 19.203125-29.429688 34.171875h-13.101562c-3.3125 0-6 2.6875-6 6 0 3.316406 2.6875 6 6 6h10.792969c-.132813 1.585938-.214844 3.183594-.214844 4.789062.003906 3.085938.257813 6.167969.757813 9.210938h-11.335938c-3.3125 0-6 2.6875-6 6zm0 0"/><path d="m24.363281 405h128.886719l-15.277344 55h-30.316406c-3.3125 0-6 2.6875-6 6 0 3.316406 2.6875 6 6 6h228.691406c3.3125 0 6-2.683594 6-6 0-3.3125-2.6875-6-6-6h-30.320312l-15.273438-55h128.882813c6.484375.015625 12.703125-2.558594 17.277343-7.152344 4.578126-4.59375 7.128907-10.824218 7.085938-17.308594v-267.925781c.046875-6.5-2.496094-12.746093-7.070312-17.367187-4.570313-4.617188-10.792969-7.226563-17.292969-7.246094h-93.636719v-11h52.195312c1.582032-.035156 3.085938-.703125 4.179688-1.851562 1.089844-1.152344 1.675781-2.6875 1.625-4.273438v-36.34375c.015625-9.195312-3.644531-18.019531-10.167969-24.503906-6.519531-6.484375-15.363281-10.0937502-24.5625-10.027344h-208.582031c-18.53125 0-33.601562 14.738281-33.601562 33.035156l-.386719 54.964844h-82.335938c-6.496093.019531-12.71875 2.628906-17.292969 7.246094-4.570312 4.621094-7.1132808 10.867187-7.070312 17.367187v267.925781c-.0390625 6.484376 2.511719 12.714844 7.085938 17.308594 4.574218 4.59375 10.796874 7.167969 17.277343 7.152344zm269.214844 55h-143.152344l15.273438-55h112.601562zm126.058594-67h-395.273438c-3.300781.019531-6.46875-1.292969-8.796875-3.636719-2.324218-2.34375-3.609375-5.523437-3.566406-8.824219v-47.539062h420v47.539062c.042969 3.300782-1.242188 6.480469-3.566406 8.824219-2.324219 2.34375-5.496094 3.65625-8.796875 3.636719zm-70.421875-381h.046875c6.03125-.070312 11.84375 2.289062 16.121093 6.546875 4.277344 4.257813 6.660157 10.054687 6.617188 16.089844v30.363281h-46v-30.371094c.023438-6.046875 2.472656-11.832031 6.800781-16.058594 4.34375-4.28125 10.214844-6.644531 16.3125-6.570312zm-208.527344 0h182.152344c-5.648438 6.191406-8.796875 14.257812-8.839844 22.636719v212.375c.046875 8.730469-3.390625 17.121093-9.546875 23.3125-6.15625 6.191406-14.527344 9.671875-23.261719 9.675781h-.035156c-18.25-.054688-33.050781-14.808594-33.15625-33.0625v-15.191406c.046875-1.539063-.546875-3.027344-1.636719-4.117188-1.089843-1.085937-2.582031-1.675781-4.121093-1.628906h-124.5l1.339843-192.785156c.113281-11.824219 9.78125-21.316406 21.605469-21.214844zm-68.6875 234.9375v-8.9375h164v8.929688c.03125 12.59375 5.355469 24.597656 14.671875 33.070312h-145.914063c-8.730468-.035156-17.085937-3.539062-23.230468-9.742188-6.144532-6.199218-9.570313-14.589843-9.527344-23.320312zm-47.636719-146.9375h82.25l-.875 126h-39.929687c-1.546875-.050781-3.042969.539062-4.140625 1.625-1.097657 1.085938-1.699219 2.578125-1.667969 4.121094v15.277344c.019531 24.050781 18.972656 43.820312 43 44.855468v.121094h175v-.167969c1 .058594 2.300781.167969 3.226562.167969h.046876c11.914062-.023438 23.328124-4.792969 31.71875-13.246094 8.390624-8.457031 13.074218-19.902344 13.007812-31.816406v-146.9375h93.636719c3.320312.019531 6.492187 1.359375 8.8125 3.730469 2.324219 2.367187 3.601562 5.566406 3.550781 8.882812v208.386719h-420v-208.386719c-.046875-3.316406 1.230469-6.515625 3.550781-8.882812 2.324219-2.371094 5.496094-3.710938 8.8125-3.730469zm0 0"/></svg>