<?xml version="1.0"?>
<svg xmlns="http://www.w3.org/2000/svg" id="Layer_1" data-name="Layer 1" viewBox="0 0 512 512" width="512" height="512"><title>Monitor  Book</title><path d="M488,66.338c0-3.314-2.371-6.338-5.684-6.338H372V38.147A6.457,6.457,0,0,0,365.626,32H173.062A32.484,32.484,0,0,0,140.69,60H29.683C26.37,60,24,63.024,24,66.338V402.526c0,3.313,2.37,6.474,5.683,6.474h158.4l-16.635,59H142.467a6,6,0,1,0,0,12H369.533a6,6,0,0,0,0-12H340.549l-16.635-59h158.4c3.313,0,5.684-3.161,5.684-6.474v-69h0v-12h0ZM345,250v41.044H172.869A20.523,20.523,0,1,1,173.063,250ZM197,238V44h36V187.936a5.977,5.977,0,0,0,9.607,4.772l36.1-27.511,36.106,27.511a5.989,5.989,0,0,0,3.636,1.228,5.087,5.087,0,0,0,2.436-.624A5.8,5.8,0,0,0,324,187.936V44h36V238H197Zm85.539-85.118a6.269,6.269,0,0,0-3.734-1.228,5.85,5.85,0,0,0-3.589,1.228L262,162.987V44h34V162.987ZM308,44h4V175.822l-4-3.692Zm-58,0V172.13l-5,3.691V44ZM152,64.836A21.16,21.16,0,0,1,173.062,44H185V238H173.063A34.04,34.04,0,0,0,152,245.067ZM36,72H140V269.259c0,.117.19.233.2.348-.006.25.085.5.085.75a32.765,32.765,0,0,0,32.735,32.688H351.171a5.857,5.857,0,0,0,5.829-6V250h8.626A6.621,6.621,0,0,0,372,243.668V72H476V322H36ZM328.086,468H183.914l16.635-59h110.9ZM476,397H36V334H476Z"/></svg>
