<svg id="Layer_1" height="512" viewBox="0 0 512 512" width="512" xmlns="http://www.w3.org/2000/svg" data-name="Layer 1"><path d="m473.666 253.54a5.978 5.978 0 0 0 -1.392-2.041 33.617 33.617 0 0 0 1.726-66.527v-38.621a5.938 5.938 0 0 0 -.021-.907 5.765 5.765 0 0 0 -3.812-6.557l-226.06-83.095a5.982 5.982 0 0 0 -4.137 0l-226.065 83.094a6 6 0 0 0 -3.929 5.575 5.868 5.868 0 0 0 3.676 5.648l69.348 27.047v168.6a6.139 6.139 0 0 0 4.052 5.622 443.78 443.78 0 0 0 154.918 27.905 444.146 444.146 0 0 0 154.984-27.909 6.132 6.132 0 0 0 4.046-5.622v-168.6l61-23.865v31.784c-15 2.954-27.285 16.636-27.285 33.029a33.694 33.694 0 0 0 29.275 33.331 5.92 5.92 0 0 0 -1.41 2.011l-15.44 36.435a77.424 77.424 0 0 0 -6.14 30.682v130.018c0 3.313 2.408 6.423 5.722 6.423h41.778c3.313 0 5.5-3.11 5.5-6.423v-130.656a77.372 77.372 0 0 0 -5.525-29.452zm-84.666 49.78a432.892 432.892 0 0 1 -294 0v-27.248a447.07 447.07 0 0 0 147 25 447.066 447.066 0 0 0 147-25zm-294 38.243v-25.491a447.07 447.07 0 0 0 147 25 447.066 447.066 0 0 0 147-25v25.491a432.916 432.916 0 0 1 -294 0zm294-78.243a432.9 432.9 0 0 1 -294 0v-81.494l144.72 56.266a6.378 6.378 0 0 0 2.25.409 6.746 6.746 0 0 0 2.317-.409l144.713-56.266zm4.223-96.095a6 6 0 0 0 -1.213.472l-149.966 58.365-149.968-58.362a5.943 5.943 0 0 0 -1.212-.472l-57.932-22.55 209.112-76.862 209.111 76.862zm53.548 50.875a21.626 21.626 0 1 1 21.629 21.63 21.651 21.651 0 0 1 -21.629-21.63zm35.229 226.9h-29v-124.441a65.5 65.5 0 0 1 5.18-25.958l9.867-23.23 9.353 23.629a65.4 65.4 0 0 1 4.6 24.92z"/></svg>