<?xml version="1.0" encoding="iso-8859-1"?>
<!-- Generator: Adobe Illustrator 19.0.0, SVG Export Plug-In . SVG Version: 6.00 Build 0)  -->
<svg version="1.1" id="Capa_1" xmlns="http://www.w3.org/2000/svg" xmlns:xlink="http://www.w3.org/1999/xlink" x="0px" y="0px"
	 viewBox="0 0 512 512" style="enable-background:new 0 0 512 512;" xml:space="preserve">
<g>
	<g>
		<rect x="55.95" y="185.923" width="33.907" height="229.437"/>
	</g>
</g>
<g>
	<g>
		<rect x="380.326" y="187.053" width="33.907" height="206.832"/>
	</g>
</g>
<g>
	<g>
		<path d="M459.866,218.372L247.948,33.014c-6.352-5.555-15.812-5.6-22.203-0.102L9.87,218.27
			c-7.109,6.098-7.923,16.801-1.82,23.904c3.351,3.911,8.092,5.911,12.868,5.911c3.911,0,7.838-1.345,11.037-4.091l204.73-175.785
			l200.865,175.683c7.036,6.154,17.75,5.453,23.916-1.599C467.631,235.246,466.918,224.537,459.866,218.372z"/>
	</g>
</g>
<g>
	<g>
		<path d="M366.763,0h-62.728c-9.364,0-16.953,7.59-16.953,16.953v88.723h33.907v-71.77h28.821v126.586h33.907V16.953
			C383.717,7.59,376.127,0,366.763,0z"/>
	</g>
</g>
<g>
	<g>
		<path d="M318.785,202.311l-167.839-0.565c-0.017,0-0.04,0-0.057,0c-4.487,0-8.788,1.774-11.969,4.945
			c-3.193,3.182-4.984,7.505-4.984,12.009V344.72c0,9.364,7.589,16.953,16.953,16.953h167.839c9.364,0,16.953-7.589,16.953-16.953
			V219.265C335.682,209.923,328.126,202.339,318.785,202.311z M301.775,327.767H167.843V235.71l133.932,0.452V327.767z"/>
	</g>
</g>
<g>
	<g>
		<rect x="218.138" y="219.265" width="33.907" height="125.456"/>
	</g>
</g>
<g>
	<g>
		<path d="M495.039,388.132c-30.985-7.431-63.31-11.201-96.064-11.201c-115.826,0-213.472,46.193-237.461,112.322
			c-3.193,8.805,1.351,18.53,10.155,21.723c1.91,0.689,3.86,1.023,5.781,1.023c6.934,0,13.438-4.284,15.936-11.178
			c18.609-51.301,106.993-89.983,205.589-89.983c30.098,0,59.761,3.458,88.164,10.262c9.031,2.187,18.248-3.43,20.435-12.534
			C509.754,399.469,504.143,390.314,495.039,388.132z"/>
	</g>
</g>
<g>
	<g>
		<path d="M224.563,430.188c-35.58-21.226-82.213-32.912-131.316-32.912c-22.672,0-44.514,2.43-64.915,7.233
			c-9.115,2.142-14.766,11.268-12.619,20.384c2.142,9.115,11.263,14.778,20.384,12.619c17.863-4.199,37.088-6.329,57.15-6.329
			c43.073,0,83.541,9.986,113.944,28.12c2.724,1.622,5.713,2.396,8.669,2.396c5.776,0,11.404-2.944,14.574-8.268
			C235.233,445.39,232.605,434.986,224.563,430.188z"/>
	</g>
</g>
<g>
	<g>
		<rect x="217.862" y="213.607" transform="matrix(0.0034 -1 1 0.0034 -63.508 531.3309)" width="33.907" height="167.84"/>
	</g>
</g>
<g>
</g>
<g>
</g>
<g>
</g>
<g>
</g>
<g>
</g>
<g>
</g>
<g>
</g>
<g>
</g>
<g>
</g>
<g>
</g>
<g>
</g>
<g>
</g>
<g>
</g>
<g>
</g>
<g>
</g>
</svg>
