<svg height="462pt" viewBox="-20 0 462 462.646" width="462pt" xmlns="http://www.w3.org/2000/svg"><path d="m6.308594 410.644531h123.085937c3.242188 30 28.835938 52 60.925781 52h1c32.09375 0 57.683594-22 60.929688-52h123.082031c2.191407-.074219 4.183594-1.300781 5.230469-3.226562 1.050781-1.925781 1.007812-4.265625-.117188-6.148438l-24.863281-40.515625c-11.292969-18.453125-18.601562-39.058594-21.457031-60.5 56.097656-11.21875 94.542969-63.148437 88.910156-120.074218-5.636718-56.929688-53.519531-100.308594-110.726562-100.3125-11.691406-.011719-23.3125 1.847656-34.417969 5.5-11.5625-8.859376-24.34375-15.992188-37.953125-21.183594v-15.183594c0-27.0625-21.9375-49-49-49s-49 21.9375-49 49v15.199219c-56 21.191406-93.035156 74.835937-93 134.710937v81.136719c-.011719 28.480469-7.914062 56.40625-22.835938 80.667969l-24.886718 40.476562c-1.1406252 1.90625-1.1914065 4.273438-.132813 6.226563 1.039063 1.933593 3.03125 3.164062 5.226563 3.226562zm185.007812 40h-1c-25.332031 0-45.621094-17-48.828125-40h98.652344c-3.203125 23-23.488281 40-48.824219 40zm220.253906-259.523437c0 50.253906-37.558593 92.582031-87.453124 98.558594-49.898438 5.980468-96.390626-26.273438-108.261719-75.105469-11.871094-48.832031 14.621093-98.832031 61.691406-116.429688.820313-.113281 1.609375-.398437 2.3125-.832031 30.34375-10.496094 63.882813-5.667969 90.035156 12.957031 26.148438 18.625 41.675781 48.746094 41.675781 80.851563zm-257.632812-142.121094c0-20.433594 16.566406-37 37-37 20.4375 0 37 16.566406 37 37v11.359375c-24.230469-6.542969-49.765625-6.542969-74 0zm-117.613281 318.152344c16.085937-26.207032 24.605469-56.355469 24.613281-87.105469v-81.136719c0-72.488281 58.261719-131.460937 129.925781-131.460937 26.382813.023437 52.132813 8.101562 73.796875 23.15625-47.019531 22.285156-72.308594 74.1875-60.886718 124.953125 11.421874 50.765625 56.507812 86.828125 108.542968 86.828125 3.351563 0 6.660156-.160157 9.9375-.449219 3.089844 23.105469 10.957032 45.316406 23.105469 65.214844l19.246094 31.492187h-347.566407zm0 0"/><path d="m269.136719 173.644531h-12.199219c-3.3125 0-6 2.6875-6 6 0 3.316407 2.6875 6 6 6h9.824219c-.121094 1.484375-.199219 2.972657-.199219 4.476563.003906 2.855468.230469 5.707031.679688 8.523437h-10.304688c-3.3125 0-6 2.6875-6 6 0 3.316407 2.6875 6 6 6h13.671875c11.167969 26.960938 41.792969 40.101563 69.027344 29.621094 3.09375-1.191406 4.636719-4.664063 3.445312-7.757813-1.191406-3.089843-4.664062-4.632812-7.753906-3.441406-19.324219 7.4375-41.179687-.398437-51.371094-18.421875h38.980469c3.316406 0 6-2.683593 6-6 0-3.3125-2.683594-6-6-6h-43.5c-.886719-4.273437-1.097656-8.660156-.628906-13h49.128906c3.316406 0 6-2.683593 6-6 0-3.3125-2.683594-6-6-6h-45.992188c8.875-20.601562 32.4375-30.519531 53.378907-22.464843 3.09375 1.191406 6.566406-.351563 7.753906-3.441407 1.191406-3.09375-.351563-6.566406-3.441406-7.757812-13.792969-5.308594-29.160157-4.710938-42.496094 1.660156-13.335937 6.367187-23.460937 17.941406-28.003906 32.003906zm0 0"/></svg>