<svg id="Layer_1" height="512" viewBox="0 0 512 512" width="512" xmlns="http://www.w3.org/2000/svg" data-name="Layer 1"><path d="m262.5 98h-1.5v-73a6 6 0 0 0 -12 0v73.038c-68.7.271-125 56.236-125 124.993v145c0 68.925 56.575 124.969 125.5 124.969h13c68.925 0 124.5-56.044 124.5-124.969v-145c0-68.925-55.575-125.031-124.5-125.031zm-19.5 105v-53h9.672c.716 0 1.5.469 2.328.469s1.612-.469 2.328-.469h11.672v53zm6-92.962v27.962h-12.25a5.407 5.407 0 0 0 -5.75 5.531v65c0 3.314 2.436 6.469 5.75 6.469h12.25v23h-113v-14.969c0-62.141 50.921-112.722 113-112.993zm13.5 370.962h-13c-62.308 0-113.5-50.66-113.5-112.969v-118.031h239v118.031c0 62.309-50.192 112.969-112.5 112.969zm112.5-243h-114v-23h14.25c3.314 0 5.75-3.155 5.75-6.469v-65a5.407 5.407 0 0 0 -5.75-5.531h-14.25v-28h1.5c62.308 0 112.5 50.723 112.5 113.031z"/></svg>