<?xml version="1.0" encoding="iso-8859-1"?>
<!-- Generator: Adobe Illustrator 19.0.0, SVG Export Plug-In . SVG Version: 6.00 Build 0)  -->
<svg version="1.1" id="Capa_1" xmlns="http://www.w3.org/2000/svg" xmlns:xlink="http://www.w3.org/1999/xlink" x="0px" y="0px"
	 viewBox="0 0 512.007 512.007" style="enable-background:new 0 0 512.007 512.007;" xml:space="preserve">
<g>
	<g>
		<rect x="127.191" y="179.913" width="32.612" height="159.253"/>
	</g>
</g>
<g>
	<g>
		<rect x="352.21" y="179.913" width="32.611" height="159.253"/>
	</g>
</g>
<g>
	<g>
		<path d="M440.207,158.553c-0.332-4.326-2.37-8.338-5.669-11.153L266.594,3.909c-6.104-5.212-15.083-5.212-21.181,0L77.464,147.4
			c-3.294,2.815-5.332,6.827-5.664,11.153c-0.332,4.326,1.071,8.604,3.903,11.887l33.698,39.134
			c5.859,6.805,16.116,7.588,22.948,1.761l123.657-105.634l123.663,105.634c3.065,2.625,6.838,3.908,10.582,3.908
			c4.582,0,9.137-1.919,12.354-5.669l33.698-39.134C439.136,167.151,440.538,162.879,440.207,158.553z M388.501,175.989
			L266.599,71.855c-3.055-2.604-6.821-3.908-10.593-3.908c-3.772,0-7.544,1.304-10.588,3.908L123.517,175.989l-12.42-14.42
			L256.006,37.76l144.914,123.809L388.501,175.989z"/>
	</g>
</g>
<g>
	<g>
		<path d="M256.006,188.066c-28.47,0-51.635,23.165-51.635,51.635s23.165,51.635,51.635,51.635c28.475,0,51.64-23.165,51.635-51.635
			C307.641,211.231,284.481,188.066,256.006,188.066z M256.006,258.724c-10.49,0-19.023-8.533-19.023-19.023
			s8.533-19.023,19.023-19.023c10.49,0,19.023,8.533,19.023,19.023S266.496,258.724,256.006,258.724z"/>
	</g>
</g>
<g>
	<g>
		<path d="M406.019,325.578H105.45c-9.006,0-16.306,7.299-16.306,16.306v61.962c0,9.006,7.3,16.306,16.306,16.306h300.569
			c9.006,0,16.306-7.3,16.306-16.306v-61.962C422.325,332.877,415.025,325.578,406.019,325.578z M389.713,387.54H121.756v-29.35
			h267.958V387.54z"/>
	</g>
</g>
<g>
	<g>
		<path d="M256.006,387.54c-9.006,0-16.306,7.3-16.306,16.306v91.856c0,9.006,7.299,16.306,16.306,16.306
			c9.006,0,16.311-7.299,16.306-16.306v-91.856C272.312,394.839,265.012,387.54,256.006,387.54z"/>
	</g>
</g>
<g>
</g>
<g>
</g>
<g>
</g>
<g>
</g>
<g>
</g>
<g>
</g>
<g>
</g>
<g>
</g>
<g>
</g>
<g>
</g>
<g>
</g>
<g>
</g>
<g>
</g>
<g>
</g>
<g>
</g>
</svg>
