<?xml version="1.0"?>
<svg xmlns="http://www.w3.org/2000/svg" id="Layer_1" data-name="Layer 1" viewBox="0 0 512 512" width="512" height="512"><title>Notebook</title><path d="M458.061,13H150.694c-.019,0-.038,0-.058,0s-.038,0-.058,0H118.833C89.6,13,66,36.936,66,66.168V79H53.939C50.626,79,48,81.213,48,84.526V122a5.949,5.949,0,0,0,5.939,6H66v31H53.939C50.626,159,48,161.213,48,164.526V202a5.949,5.949,0,0,0,5.939,6H66v41H53.939C50.626,249,48,251.213,48,254.526V292a5.949,5.949,0,0,0,5.939,6H66v31H53.939C50.626,329,48,331.213,48,334.526V372a5.949,5.949,0,0,0,5.939,6H66v65.9c0,.217-.078.431-.056.641-.01.431-.078.859-.078,1.293a53.057,53.057,0,0,0,52.993,53.016l314.143,0a6,6,0,0,0,6-6V405h19.061A6.106,6.106,0,0,0,464,398.819V19.152A6.081,6.081,0,0,0,458.061,13ZM60,91H95.2a12.5,12.5,0,1,1,0,25H60Zm0,80H95.2a12.5,12.5,0,1,1,0,25H60Zm0,90H95.2a12.5,12.5,0,1,1,0,25H60Zm0,80H95.2a12.5,12.5,0,1,1,0,25H60Zm18,37H95.2a24.5,24.5,0,1,0,0-49H78V298H95.2a24.5,24.5,0,1,0,0-49H78V208H95.2a24.5,24.5,0,1,0,0-49H78V128H95.2a24.5,24.5,0,1,0,0-49H78V66.168A41.038,41.038,0,0,1,118.833,25H145V393H118.836A52.811,52.811,0,0,0,78,412.289ZM427,486.848l-308.154,0a40.926,40.926,0,1,1-.01-81.851H427ZM433.137,393H157V25H452V153H324.31a43,43,0,1,0,0,86H452V393ZM452,227H324.31c-17.368,0-31.5-13.632-31.5-31s14.13-31,31.5-31H452Z"/></svg>
