<svg height="488pt" viewBox="-1 0 488 488" width="488pt" xmlns="http://www.w3.org/2000/svg"><path d="m480.820312 203.167969-47.238281-4.566407c-4.882812-20.351562-13.042969-39.773437-24.160156-57.507812l30.210937-36.445312c1.96875-2.367188 1.824219-5.84375-.335937-8.039063l-48.546875-49.171875c-2.183594-2.214844-5.699219-2.390625-8.09375-.40625l-36.488281 30.214844c-17.75-11.070313-37.140625-19.257813-57.457031-24.253906l-4.566407-47.464844c-.285156-3.097656-2.859375-5.480469-5.972656-5.527344h-69.714844c-3.113281.046875-5.6875 2.429688-5.972656 5.527344l-4.566406 47.410156c-20.351563 4.914062-39.773438 13.101562-57.5 24.246094l-36.449219-30.167969c-2.386719-1.972656-5.882812-1.804687-8.070312.386719l-49.175782 49.179687c-2.1875 2.1875-2.351562 5.6875-.378906 8.070313l30.21875 36.492187c-11.074219 17.746094-19.261719 37.140625-24.257812 57.457031l-47.121094 4.5625c-3.027344.324219-5.289063 2.933594-5.17968775 5.976563v69.71875c-.10937525 3.042969 2.15624975 5.652344 5.18359375 5.972656l47.238281 4.566407c4.882813 20.351562 13.042969 39.769531 24.160157 57.5l-30.210938 36.449218c-1.980469 2.378906-1.820312 5.875.363281 8.066406l49.164063 49.179688c2.191406 2.183594 5.683594 2.347656 8.066406.375l36.488281-30.214844c17.75 11.070313 37.144531 19.257813 57.460938 24.253906l4.5625 47.464844c.289062 3.097656 2.863281 5.480469 5.976562 5.527344h69.714844c3.113281-.046875 5.6875-2.429688 5.976563-5.527344l3.53125-36.71875c21.226562 23.605469 51.488281 37.074219 83.230468 37.046875 1.164063 0 2.324219-.039062 3.476563-.074219 1.867187.9375 4.089843.808594 5.835937-.339843 57.398438-4.738281 102.65625-52.851563 102.65625-111.320313.003906-31.542968-13.367187-61.609375-36.800781-82.722656l34.769531-3.511719c3.015625-.332031 5.265625-2.9375 5.15625-5.972656v-69.71875c.109375-3.042969-2.15625-5.652344-5.183594-5.972656zm-169.78125 239.5c-.777343-7.847657 1.800782-15.660157 7.097657-21.503907s12.816406-9.171874 20.703125-9.164062h21.058594l2.96875 12.824219v.007812l-6.710938 37.828125c-.4375 2.09375.273438 4.261719 1.863281 5.691406l1.972657 1.828126c-17.753907-1.925782-34.671876-8.570313-48.988282-19.242188v-7.667969c.023438-.203125.035156-.402343.035156-.605469zm62.765626-10.667969h6.484374l6.066407 29.65625-9.226563 7.757812-8.605468-7.683593zm6.164062-12h-5.925781l-1.828125-8h9.582031zm18.066406 47.039062c.808594-1.296874 1.089844-2.855468.789063-4.351562l-7.703125-37.761719 3-12.925781h21.066406c7.417969-.003906 14.535156 2.953125 19.765625 8.21875 5.230469 5.261719 8.144531 12.394531 8.09375 19.816406-12.335937 12.84375-27.875 22.167969-45.015625 27.003906zm72.84375-95.976562c.019532 20.253906-6.175781 40.027344-17.75 56.648438-5.261718-16.519532-20.617187-27.726563-37.953125-27.710938h-76.335937c-10.636719-.007812-20.835938 4.242188-28.324219 11.800781-7.488281 7.554688-11.640625 17.792969-11.535156 28.433594-17.988281-18.53125-28.046875-43.34375-28.035157-69.167969 0-54.980468 44.84375-99.710937 99.964844-99.710937 55.125 0 99.96875 44.730469 99.96875 99.707031zm-178.667968-79.375c-13.800782-5.386719-28.402344-8.449219-43.207032-9.058594v-32.628906h61.828125c-.289062 9.738281-1.378906 19.4375-3.261719 29-5.484374 3.765625-10.621093 8.011719-15.359374 12.6875zm-43.207032-86.320312c18.796875-.820313 37.21875-5.5625 54.074219-13.917969 4.75 15.078125 7.363281 30.746093 7.757813 46.550781h-61.832032zm0-12.011719v-70.730469c22.304688 12.28125 39.398438 32.265625 49.917969 57.480469-15.515625 7.902343-32.527344 12.417969-49.917969 13.25zm-12-70.730469v70.734375c-17.398437-.804687-34.433594-5.246094-50.011718-13.042969 10.511718-25.316406 27.644531-45.375 50.011718-57.691406zm0 82.742188v32.632812h-61.832031c.394531-15.726562 2.980469-31.320312 7.6875-46.332031 16.910156 8.242187 35.34375 12.90625 54.144531 13.699219zm0 44.632812v32.632812c-18.800781.789063-37.234375 5.453126-54.144531 13.699219-4.707031-15.011719-7.292969-30.605469-7.6875-46.332031zm0 44.640625v70.734375c-22.367187-12.316406-39.5-32.375-50.011718-57.691406 15.578124-7.796875 32.613281-12.238282 50.011718-13.042969zm85.835938-44.640625h43.550781c-.152344 3.179688-.417969 6.351562-.808594 9.484375-15.476562.71875-30.632812 4.65625-44.5 11.566406.96875-6.980469 1.554688-14.007812 1.757813-21.050781zm.007812-12c-.40625-17.847656-3.464844-35.535156-9.066406-52.484375 9.023438-5.554687 17.355469-12.164063 24.820312-19.6875 16.789063 20.441406 26.539063 45.75 27.800782 72.171875zm-13.433594-63.914062c-8.609374-20.097657-21.140624-37.152344-36.992187-50.085938 22.03125 5.425781 42.140625 16.808594 58.125 32.90625-6.378906 6.5-13.46875 12.261719-21.132813 17.179688zm-132.949218.289062c-7.734375-4.886719-14.886719-10.636719-21.328125-17.136719 16.035156-16.269531 36.265625-27.773437 58.449219-33.238281-15.929688 13-28.5 30.152344-37.121094 50.375zm-29.347656-8.1875c7.523437 7.515625 15.925781 14.097656 25.015624 19.613281-5.542968 16.863281-8.566406 34.453125-8.972656 52.199219h-43.554687c1.253906-26.261719 10.898437-51.433594 27.511719-71.8125zm16.042968 83.8125c.40625 17.746094 3.429688 35.335938 8.972656 52.199219-9.09375 5.515625-17.492187 12.101562-25.015624 19.613281-16.617188-20.378906-26.257813-45.546875-27.511719-71.8125zm13.304688 63.625c8.621094 20.222656 21.191406 37.375 37.121094 50.375-22.179688-5.464844-42.414063-16.96875-58.449219-33.238281 6.441406-6.5 13.59375-12.25 21.328125-17.136719zm83.167968 45.066406c-3.40625 2.445313-6.957031 4.679688-10.628906 6.703125v-70.757812c11.777344.535156 23.410156 2.773437 34.546875 6.640625-13.277343 16.472656-21.574219 36.390625-23.917969 57.414062zm214.371094-85.261718-41.988281 4.230468c-16.261719-10.707031-35.050781-16.949218-54.488281-18.097656.617187-5.164062.9375-10.359375.960937-15.5625 0-74.742188-60.773437-135.546875-135.515625-135.546875-74.738281 0-135.53125 60.804687-135.53125 135.546875s60.8125 135.546875 135.554688 135.546875c5.414062-.007813 10.824218-.335937 16.199218-.980469 1.261719 19 7.378907 37.355469 17.765626 53.3125l-4.234376 44.121094h-58.824218l-4.457032-46.347656c-.246093-2.609375-2.140624-4.765625-4.699218-5.339844-21.902344-4.878906-42.738282-13.675781-61.507813-25.972656-2.195312-1.421875-5.0625-1.257813-7.082031.410156l-35.628906 29.5-41.457032-41.449219 29.507813-35.636719c1.691406-2.039062 1.839844-4.949218.371094-7.152343-12.367188-18.695313-21.148438-39.527344-25.894531-61.433594-.445313-2.519531-2.507813-4.433594-5.050782-4.699219l-46-4.46875v-58.820312l46-4.457032c2.570313-.257812 4.667969-2.164062 5.167969-4.699218 4.847656-21.898438 13.617187-42.738282 25.886719-61.507813 1.410156-2.207031 1.226562-5.074219-.453125-7.082031l-29.519531-35.636719 41.445312-41.449219 35.628906 29.507813c2.039063 1.6875 4.945313 1.839844 7.152344.371094 18.691406-12.371094 39.523438-21.15625 61.433594-25.902344 2.5625-.597656 4.453125-2.769531 4.699218-5.390625l4.457032-46.34375h58.820312l4.457032 46.347656c.25 2.609375 2.144531 4.761719 4.699218 5.339844 21.902344 4.875 42.742188 13.675781 61.511719 25.972656 2.195313 1.421875 5.0625 1.257813 7.082031-.410156l35.597656-29.476562 40.878907 41.40625-29.53125 35.660156c-1.6875 2.039062-1.839844 4.949218-.371094 7.152344 12.375 18.695312 21.15625 39.527343 25.902344 61.4375.445312 2.519531 2.507812 4.441406 5.054687 4.703124l46 4.457032zm0 0"/><path d="m400.484375 306.527344c1.820313-9.414063-2.1875-19-10.164063-24.324219-7.976562-5.320313-18.367187-5.335937-26.359374-.042969-7.992188 5.296875-12.03125 14.871094-10.242188 24.289063-8.652344 6.464843-14.203125 16.25-15.316406 26.988281-.15625 1.589844-.398438 12.007812-.398438 12.109375v14.480469c0 21.285156 17.714844 38.597656 39 38.597656s39-17.316406 39-38.597656v-22.738282c-.078125-12.117187-5.820312-23.5-15.519531-30.761718zm-23.480469-16.304688c5.90625.007813 10.882813 4.402344 11.625 10.261719-3.757812-1.191406-7.679687-1.796875-11.625-1.792969-3.941406-.003906-7.863281.59375-11.625 1.773438.75-5.851563 5.726563-10.234375 11.625-10.242188zm.199219 20.46875c14.722656 0 26.691406 11.875 26.800781 26.597656v2.675782c0 .015625-.292968.035156-.328125.046875-10.339843-.0625-19.140625-6.453125-19.140625-14.011719-.050781-3.332031-2.769531-6.007812-6.101562-6h-.75c-3.316406 0-6 2.6875-6 6 0 7.59375-8.792969 14.011719-19.195313 14.011719-.691406-.019531-1.375-.117188-2.042969-.292969.023438-2.34375.15625-4.582031.1875-5.097656 1.371094-13.628906 12.871094-23.988282 26.570313-23.929688zm-.199219 75.9375c-14.667968 0-27-11.933594-27-26.601562v-8.144532c1 .078126 1.570313.128907 2.28125.128907 10.570313 0 20.226563-4.402344 25.871094-11.128907 5.648438 6.71875 14.847656 11.117188 25.847656 11.128907v8.015625c0 14.667968-12.332031 26.601562-27 26.601562zm0 0"/></svg>