<svg height="488pt" viewBox="-1 0 488 488" width="488pt" xmlns="http://www.w3.org/2000/svg"><path d="m480.820312 203.167969-47.238281-4.566407c-4.882812-20.351562-13.042969-39.773437-24.160156-57.507812l30.210937-36.445312c1.96875-2.367188 1.824219-5.84375-.335937-8.039063l-48.546875-49.171875c-2.183594-2.214844-5.699219-2.390625-8.09375-.40625l-36.488281 30.214844c-17.75-11.070313-37.140625-19.257813-57.457031-24.253906l-4.566407-47.464844c-.285156-3.097656-2.859375-5.480469-5.972656-5.527344h-69.714844c-3.113281.046875-5.6875 2.429688-5.972656 5.527344l-4.566406 47.410156c-20.351563 4.914062-39.773438 13.101562-57.5 24.246094l-36.449219-30.167969c-2.386719-1.972656-5.882812-1.804687-8.070312.386719l-49.175782 49.179687c-2.1875 2.1875-2.351562 5.6875-.378906 8.070313l30.21875 36.492187c-11.074219 17.746094-19.261719 37.140625-24.257812 57.457031l-47.121094 4.5625c-3.027344.324219-5.289063 2.933594-5.17968775 5.976563v69.71875c-.10937525 3.042969 2.15624975 5.652344 5.18359375 5.972656l47.238281 4.566407c4.882813 20.351562 13.042969 39.769531 24.160157 57.5l-30.210938 36.449218c-1.980469 2.378906-1.820312 5.875.363281 8.066406l49.164063 49.179688c2.191406 2.183594 5.683594 2.347656 8.066406.375l36.488281-30.214844c17.75 11.070313 37.144531 19.257813 57.460938 24.253906l4.5625 47.464844c.289062 3.097656 2.863281 5.480469 5.976562 5.527344h69.714844c3.113281-.046875 5.6875-2.429688 5.976563-5.527344l3.53125-36.71875c21.226562 23.605469 51.488281 37.074219 83.230468 37.046875 61.738282 0 111.96875-50.125 111.96875-111.722656.003906-31.542969-13.367187-61.613281-36.800781-82.730469l34.769531-3.511718c3.015625-.335938 5.265625-2.941407 5.15625-5.976563v-69.71875c.109375-3.042969-2.15625-5.652344-5.183594-5.972656zm-9.941406 167.898437c0 54.980469-44.847656 99.710938-99.96875 99.710938s-99.964844-44.730469-99.964844-99.710938c0-54.976562 44.84375-99.707031 99.964844-99.707031 55.125 0 99.96875 44.726563 99.96875 99.703125zm-178.667968-79.378906c-13.800782-5.386719-28.402344-8.449219-43.207032-9.058594v-32.628906h61.828125c-.289062 9.738281-1.378906 19.4375-3.261719 29-5.484374 3.765625-10.621093 8.011719-15.359374 12.6875zm-43.207032-86.320312c18.796875-.820313 37.21875-5.5625 54.074219-13.917969 4.75 15.078125 7.363281 30.746093 7.757813 46.550781h-61.832032zm0-12.011719v-70.730469c22.304688 12.28125 39.398438 32.265625 49.917969 57.480469-15.515625 7.902343-32.527344 12.417969-49.917969 13.25zm-12-70.730469v70.734375c-17.398437-.804687-34.433594-5.246094-50.011718-13.042969 10.511718-25.316406 27.644531-45.375 50.011718-57.691406zm0 82.742188v32.632812h-61.832031c.394531-15.726562 2.980469-31.320312 7.6875-46.332031 16.910156 8.242187 35.34375 12.90625 54.144531 13.699219zm0 44.632812v32.632812c-18.800781.789063-37.234375 5.453126-54.144531 13.699219-4.707031-15.011719-7.292969-30.605469-7.6875-46.332031zm0 44.640625v70.734375c-22.367187-12.316406-39.5-32.375-50.011718-57.691406 15.578124-7.796875 32.613281-12.238282 50.011718-13.042969zm85.835938-44.640625h43.550781c-.152344 3.179688-.417969 6.351562-.808594 9.484375-15.476562.71875-30.632812 4.65625-44.5 11.566406.96875-6.980469 1.554688-14.007812 1.757813-21.050781zm.007812-12c-.40625-17.847656-3.464844-35.535156-9.066406-52.484375 9.023438-5.554687 17.355469-12.164063 24.820312-19.6875 16.789063 20.441406 26.539063 45.75 27.800782 72.171875zm-13.433594-63.914062c-8.609374-20.097657-21.140624-37.152344-36.992187-50.085938 22.03125 5.425781 42.140625 16.808594 58.125 32.90625-6.378906 6.5-13.46875 12.261719-21.132813 17.179688zm-132.949218.289062c-7.734375-4.886719-14.886719-10.636719-21.328125-17.136719 16.035156-16.269531 36.265625-27.773437 58.449219-33.238281-15.929688 13-28.5 30.152344-37.121094 50.375zm-29.347656-8.1875c7.523437 7.515625 15.925781 14.097656 25.015624 19.613281-5.542968 16.863281-8.566406 34.453125-8.972656 52.199219h-43.554687c1.253906-26.261719 10.898437-51.433594 27.511719-71.8125zm16.042968 83.8125c.40625 17.746094 3.429688 35.335938 8.972656 52.199219-9.09375 5.515625-17.492187 12.101562-25.015624 19.613281-16.617188-20.378906-26.257813-45.546875-27.511719-71.8125zm13.304688 63.625c8.621094 20.222656 21.191406 37.375 37.121094 50.375-22.179688-5.464844-42.414063-16.96875-58.449219-33.238281 6.441406-6.5 13.59375-12.25 21.328125-17.136719zm83.167968 45.066406c-3.40625 2.445313-6.957031 4.679688-10.628906 6.703125v-70.757812c11.777344.535156 23.410156 2.773437 34.546875 6.640625-13.277343 16.472656-21.574219 36.390625-23.917969 57.414062zm214.371094-85.261718-41.988281 4.230468c-16.261719-10.707031-35.050781-16.949218-54.488281-18.097656.617187-5.164062.9375-10.359375.960937-15.5625 0-74.742188-60.773437-135.546875-135.515625-135.546875-74.738281 0-135.53125 60.804687-135.53125 135.546875s60.8125 135.546875 135.554688 135.546875c5.414062-.007813 10.824218-.335937 16.199218-.980469 1.261719 19 7.378907 37.355469 17.765626 53.3125l-4.234376 44.121094h-58.824218l-4.457032-46.347656c-.246093-2.609375-2.140624-4.765625-4.699218-5.339844-21.902344-4.878906-42.738282-13.675781-61.507813-25.972656-2.195312-1.421875-5.0625-1.257813-7.082031.410156l-35.628906 29.5-41.457032-41.449219 29.507813-35.636719c1.691406-2.039062 1.839844-4.949218.371094-7.152343-12.367188-18.695313-21.148438-39.527344-25.894531-61.433594-.445313-2.519531-2.507813-4.433594-5.050782-4.699219l-46-4.46875v-58.820312l46-4.457032c2.570313-.257812 4.667969-2.164062 5.167969-4.699218 4.847656-21.898438 13.617187-42.738282 25.886719-61.507813 1.410156-2.207031 1.226562-5.074219-.453125-7.082031l-29.519531-35.636719 41.445312-41.449219 35.628906 29.507813c2.039063 1.6875 4.945313 1.839844 7.152344.371094 18.691406-12.371094 39.523438-21.15625 61.433594-25.902344 2.5625-.597656 4.453125-2.769531 4.699218-5.390625l4.457032-46.34375h58.820312l4.457032 46.347656c.25 2.609375 2.144531 4.761719 4.699218 5.339844 21.902344 4.875 42.742188 13.675781 61.511719 25.972656 2.195313 1.421875 5.0625 1.257813 7.082031-.410156l35.597656-29.476562 40.878907 41.40625-29.53125 35.660156c-1.6875 2.039062-1.839844 4.949218-.371094 7.152344 12.375 18.695312 21.15625 39.527343 25.902344 61.4375.445312 2.519531 2.507812 4.441406 5.054687 4.703124l46 4.457032zm0 0"/><path d="m393.003906 302.199219c0-11.707031-9.492187-21.199219-21.199218-21.199219h-.601563c-11.707031 0-21.199219 9.492188-21.199219 21.199219v6.601562c0 11.707031 9.492188 21.199219 21.199219 21.199219h.601563c11.707031 0 21.199218-9.492188 21.199218-21.199219zm-12 6.601562c0 5.082031-4.117187 9.199219-9.199218 9.199219h-.601563c-5.082031 0-9.199219-4.117188-9.199219-9.199219v-6.601562c0-5.082031 4.117188-9.199219 9.199219-9.199219h.601563c5.082031 0 9.199218 4.117188 9.199218 9.199219zm0 0"/><path d="m389.902344 326h-3.011719c-2.570313.097656-4.816406 1.765625-5.648437 4.199219l-1.957032 5.566406-3.140625-3.285156c-1.152343-1.222657-2.769531-1.898438-4.445312-1.859375-1.683594.027344-3.28125.757812-4.402344 2.011718l-2.425781 2.71875-1.546875-4.984374c-.78125-2.519532-3.070313-4.269532-5.707031-4.367188h-3.507813c-6.261719.089844-12.199219 2.789062-16.386719 7.445312-4.070312 4.5-5.71875 10.746094-5.71875 16.78125v29.472657c.070313 6.226562 2.644532 12.160156 7.140625 16.464843l2.824219 2.652344c2.011719 1.921875 3.207031 4.539063 3.351562 7.316406l2.4375 50.953126c.144532 3.242187 2.769532 5.824218 6.011719 5.914062h36.550781c3.238282-.09375 5.855469-2.675781 5.992188-5.914062l2.421875-50.890626c.128906-2.773437 1.300781-5.394531 3.285156-7.335937l2.898438-2.699219c4.460937-4.3125 7.015625-10.230468 7.085937-16.433594v-29.5c0-6.035156-1.652344-12.28125-5.71875-16.785156-4.183594-4.652344-10.121094-7.351562-16.382812-7.441406zm-14.035156 54.082031-3.863282 3.863281-3.859375-3.859374 3.707031-34.527344.023438-.027344.316406.332031zm24.015624-30.738281c-.019531.199219.125.398438.125.605469v29.777343c-.066406 2.957032-1.304687 5.765626-3.449218 7.804688l-2.828125 2.675781c-4.183594 4.117188-6.660157 9.65625-6.941407 15.519531l-2.183593 45.273438h-25.113281l-2.148438-45.242188c-.269531-5.855468-2.757812-11.386718-6.960938-15.472656l-2.902343-2.699218c-2.164063-2.058594-3.414063-4.898438-3.476563-7.886719v-29.75c0-.203125.140625-.402344.121094-.601563-.234375-2.644531.597656-5.277344 2.304688-7.3125 1.710937-2.03125 4.15625-3.300781 6.804687-3.527344l3.433594 10.484376c.425781 1.285156 1.269531 2.386718 2.398437 3.128906l-3.164062 29.535156c-.191406 1.804688.441406 3.601562 1.726562 4.882812l10.136719 10.132813c2.339844 2.34375 6.140625 2.34375 8.484375 0l10.132812-10.132813c1.285157-1.28125 1.917969-3.078124 1.722657-4.882812l-3.167969-29.523438c1.074219-.714843 1.890625-1.757812 2.328125-2.972656l3.820313-10.625c2.390624.273438 4.605468 1.40625 6.222656 3.1875 1.90625 2.058594 2.84375 4.828125 2.574218 7.621094zm0 0"/></svg>