<svg id="Layer_1" height="512" viewBox="0 0 512 512" width="512" xmlns="http://www.w3.org/2000/svg" data-name="Layer 1"><path d="m462.337 388.583a6 6 0 0 0 -1.486-2.458l-332.565-332.566a6 6 0 0 0 -8.486 0l-7.866 7.866-39.824-40.462a6 6 0 0 0 -8.554 0l-42.486 43.188a6 6 0 0 0 .035 8.451l39.826 39.826-7.547 7.548a6 6 0 0 0 0 8.485l20.716 20.718-23.372 22.773a6 6 0 0 0 -.056 8.54l115.018 115.019a6 6 0 1 0 8.485-8.486l-110.719-110.72 19.132-18.64 126.012 126.011 8.485 8.486 168.864 168.864a6 6 0 0 0 2.459 1.486l96.46 30.044a6 6 0 0 0 7.513-7.513zm-428.537-320.258 34.036-34.6 35.614 36.184-34.034 34.034zm32.314 55.893 57.931-57.931 150.971 150.973-57.932 57.931zm159.456 159.458 57.93-57.931 164.623 164.622-57.931 57.933zm175.884 170.331 52.378-52.378 23.693 76.071z"/></svg>