<?xml version="1.0" encoding="iso-8859-1"?>
<!-- Generator: Adobe Illustrator 19.0.0, SVG Export Plug-In . SVG Version: 6.00 Build 0)  -->
<svg version="1.1" id="Capa_1" xmlns="http://www.w3.org/2000/svg" xmlns:xlink="http://www.w3.org/1999/xlink" x="0px" y="0px"
	 viewBox="0 0 512 512" style="enable-background:new 0 0 512 512;" xml:space="preserve">
<g>
	<g>
		<path d="M256.33,0C116.975,0,3.022,113.61,2.309,253.361v172.206c0,10.933,8.861,19.794,19.794,19.794h50.804
			c10.933,0,19.794-8.861,19.794-19.794s-8.861-19.794-19.794-19.794h-31.01V253.46c0.6-117.925,96.798-213.872,214.433-213.872
			c117.872,0,213.773,95.901,213.773,213.773v151.753h-31.01c-10.933,0-19.794,8.861-19.794,19.794
			c0,10.933,8.861,19.794,19.794,19.794h50.804c10.933,0,19.794-8.861,19.794-19.794V253.361C509.691,113.656,396.035,0,256.33,0z"
			/>
	</g>
</g>
<g>
	<g>
		<path d="M125.955,338.474l-50.144-0.66c-0.092,0-0.178,0-0.271,0c-10.814,0-19.649,8.689-19.787,19.536
			c-0.145,10.926,8.604,19.906,19.53,20.051l30.614,0.402v94.608H75.546c-10.933,0-19.794,8.861-19.794,19.794
			c0,10.933,8.861,19.794,19.794,19.794h50.144c10.933,0,19.794-8.861,19.794-19.794V358.268
			C145.485,347.434,136.782,338.613,125.955,338.474z"/>
	</g>
</g>
<g>
	<g>
		<path d="M437.773,472.412h-31.01v-94.35h31.01c10.933,0,19.794-8.861,19.794-19.794s-8.861-19.794-19.794-19.794h-50.804
			c-10.933,0-19.794,8.861-19.794,19.794v133.938c0,10.933,8.861,19.794,19.794,19.794h50.804c10.933,0,19.794-8.861,19.794-19.794
			C457.567,481.273,448.706,472.412,437.773,472.412z"/>
	</g>
</g>
<g>
</g>
<g>
</g>
<g>
</g>
<g>
</g>
<g>
</g>
<g>
</g>
<g>
</g>
<g>
</g>
<g>
</g>
<g>
</g>
<g>
</g>
<g>
</g>
<g>
</g>
<g>
</g>
<g>
</g>
</svg>
