<svg height="495pt" viewBox="-48 0 495 495.21114" width="495pt" xmlns="http://www.w3.org/2000/svg"><path d="m130.109375 260.605469c0 3.3125 2.6875 6 6 6h17.84375c6.324219 19.582031 20.429687 35.699219 39 44.566406s39.96875 9.703125 59.171875 2.308594c3.09375-1.191407 4.636719-4.664063 3.445312-7.757813-1.191406-3.09375-4.664062-4.632812-7.757812-3.441406-32.253906 12.445312-68.507812-3.492188-81.140625-35.675781h63.4375c3.3125 0 6-2.6875 6-6s-2.6875-6-6-6h-66.800781c-1.105469-6.273438-1.257813-12.679688-.453125-19h76.253906c3.3125 0 6-2.6875 6-6s-2.6875-6-6-6h-73.519531c5.445312-16.273438 17.3125-29.613281 32.84375-36.917969s33.371094-7.941406 49.382812-1.757812c3.09375 1.191406 6.566406-.351563 7.757813-3.445313 1.191406-3.089844-.351563-6.5625-3.445313-7.753906-19.710937-7.613281-41.722656-6.535157-60.597656 2.964843-18.871094 9.503907-32.847656 26.542969-38.472656 46.910157h-16.949219c-3.3125 0-6 2.6875-6 6s2.6875 6 6 6h14.667969c-.679688 6.324219-.554688 12.707031.371094 19h-15.039063c-3.3125 0-6 2.6875-6 6zm0 0"/><path d="m97.21875 368.363281 98.460938 67.117188c2.050781 1.390625 4.746093 1.390625 6.800781 0l98.511719-67.117188c27.109374-18.480469 50.117187-61.792969 50.117187-94.570312v-140.082031c-.039063-2.304688-1.378906-4.386719-3.453125-5.382813l-145.847656-71.617187c-1.675782-.816407-3.632813-.816407-5.308594 0l-145.914062 71.402343c-2.085938.992188-3.429688 3.082031-3.476563 5.390625v140.285156c0 32.78125 23 76.09375 50.109375 94.574219zm-38.109375-231.121093 140-68.460938 140 68.667969v136.34375c0 28.835937-21.019531 68.398437-44.871094 84.65625l-95.078125 64.8125-95.15625-64.8125c-23.847656-16.261719-44.894531-55.820313-44.894531-84.660157zm0 0"/><path d="m68.382812 407.191406 127.4375 86.976563c.980469.679687 2.144532 1.042969 3.335938 1.042969 1.199219 0 2.371094-.363282 3.359375-1.042969l127.328125-86.976563c38.390625-26.175781 68.265625-83.050781 68.265625-129.484375v-176.734375c.074219-2.257812-1.160156-4.355468-3.167969-5.386718l-193.28125-94.972657c-1.648437-.816406-3.585937-.816406-5.238281 0l-193.160156 94.710938c-2.007813 1.03125-3.2382815 3.132812-3.152344 5.386719v177c0 46.429687 29.886719 103.304687 68.273437 129.480468zm-56.273437-302.738281 187-91.769531 187 92.027344v173c0 42.875-27.582031 95.398437-63.035156 119.566406l-124.058594 84.671875-123.917969-84.675781c-35.453125-24.167969-62.988281-76.691407-62.988281-119.566407zm0 0"/></svg>