<svg id="Layer_1" height="512" viewBox="0 0 512 512" width="512" xmlns="http://www.w3.org/2000/svg" data-name="Layer 1"><path d="m256 10.448a63.966 63.966 0 0 0 -63.884 63.837l-.232 325.543a15.18 15.18 0 0 0 2.307 8.068l56.72 90.833a6 6 0 0 0 10.178 0l56.72-90.833a15.179 15.179 0 0 0 2.307-8.066l-.232-325.545a63.966 63.966 0 0 0 -63.884-63.837zm0 12a51.825 51.825 0 0 1 51.884 51.7l.008 11.852h-103.784l.008-11.854a51.825 51.825 0 0 1 51.884-51.698zm-47.548 385.552h95.1l-21.24 34h-52.62zm29.548-12v-251h36v251zm-12 0h-22.114l.179-251h21.935zm60 0v-251h21.935l.179 251zm-81.926-263 .025-35h103.801l.025 35zm51.926 351.131-18.815-30.131h37.63z"/></svg>