<svg height="487pt" viewBox="-2 0 487 487.73258" width="487pt" xmlns="http://www.w3.org/2000/svg"><path d="m413.789062 248.847656c-.132812-.0625-.265624-.125-.398437-.1875.695313-6.589844 1.046875-13.210937 1.054687-19.839844 0-103.582031-84.269531-187.851562-187.851562-187.851562s-187.851562 84.269531-187.851562 187.851562c0 103.582032 84.269531 187.851563 187.851562 187.851563 5.796875 0 11.621094-.277344 17.382812-.804687 23.707032 49.820312 77.066407 78.425781 131.683594 70.589843 54.613282-7.839843 97.777344-50.292969 106.519532-104.769531 8.742187-54.476562-18.96875-108.304688-68.390626-132.839844zm-56.023437-13.105468c-7.21875.007812-14.421875.632812-21.53125 1.863281.027344-.917969.050781-1.738281.066406-2.738281h66.03125c-.097656 3-.285156 5.875-.53125 8.808593-14.082031-5.273437-29-7.960937-44.035156-7.933593zm-265.941406 105.929687c-25.304688-29.964844-39.742188-67.605469-40.96875-106.804687h66.023437c.570313 28 5.085938 53.441406 13.136719 76.757812-14 8.285156-26.84375 18.390625-38.191406 30.046875zm38.191406-195.601563c-8.050781 23.320313-12.566406 48.796876-13.136719 76.796876h-66.023437c1.226562-39.214844 15.664062-76.863282 40.96875-106.839844 11.347656 11.65625 24.191406 21.761718 38.191406 30.046875zm230.921875-30.558593c25.527344 30.082031 40.117188 67.921875 41.394531 107.355469h-66.023437c-.574219-28-5.140625-53.753907-13.277344-77.171876 13.902344-8.359374 26.644531-18.507812 37.90625-30.183593zm-36.640625 107.355469h-91.230469v-50.601563c27.714844-.875 54.886719-7.921875 79.535156-20.625 7.28125 21.648437 11.140626 45.226563 11.695313 71.226563zm-91.230469-62.613282v-105.855468c34 17.628906 60.128906 47.648437 75.566406 85.875-23.390624 12.1875-49.207031 19.011718-75.566406 19.980468zm-12 0c-26.386718-.8125-52.253906-7.53125-75.699218-19.660156 15.421874-38.378906 40.699218-68.519531 75.699218-86.199219zm0 12.007813v50.605469h-92.175781c.390625-24.117188 4.460937-48.03125 12.066406-70.917969 24.859375 12.644531 52.226563 19.585937 80.109375 20.316406zm-92.175781 62.605469h92.175781v50.511718c-27.886718.742188-55.253906 7.699219-80.109375 20.359375-7.523437-22.894531-11.589843-46.78125-12.066406-70.871093zm104.175781 141.203124c0 8.28125 2.699219 16.425782 5.25 24.351563-1.730468.980469-4.25 1.929687-5.25 2.84375zm-12-78.683593v105.859375c-35-17.683594-60.273437-47.820313-75.699218-86.203125 23.445312-12.128907 49.3125-18.84375 75.699218-19.65625zm12 49.953125v-49.953125c5 .179687 10.761719.597656 16.078125 1.261719-8.699219 14.96875-15.078125 31.441406-16.078125 48.691406zm24.335938-61.785156c-.5.65625-.726563 1.328124-1.210938 1.988281-7.660156-1.160157-15.382812-1.882813-23.125-2.164063v-50.511718h91.226563c-.042969 2-.109375 3.636718-.1875 5.460937-.386719.109375-.777344.191406-1.167969.300781-24.363281 6.984375-46.042969 21.179688-62.183594 40.71875-1.136718 1.367188-2.261718 2.777344-3.351562 4.207032zm95.464844-178.988282c-10.164063 10.644532-21.644532 19.945313-34.160157 27.6875-13.425781-32.535156-34.132812-59.46875-60.851562-78.5 36.210937 6.566406 69.445312 24.339844 95.011719 50.8125zm-157.53125-50.8125c-26.824219 19.097656-47.585938 46.175782-61.007813 78.882813-12.625-7.683594-24.210937-16.960938-34.46875-27.601563 25.625-26.726562 59.042969-44.675781 95.476563-51.28125zm-95.476563 294.847656c10.257813-10.640624 21.84375-19.914062 34.46875-27.597656 13.421875 32.703125 34.183594 59.78125 61.007813 78.882813-36.433594-6.605469-69.851563-24.554688-95.476563-51.285157zm187.207031 100.402344v-32.183594c0-.199218-.0625-.402343-.082031-.605468-.847656-8.238282 1.824219-16.453125 7.359375-22.613282 5.53125-6.164062 13.414062-9.699218 21.695312-9.734374h22.160157l3.085937 12.753906c-.007812.03125-.019531.101562-.023437.128906l-6.984375 44.359375c-.390625 2 .261718 4.066406 1.730468 5.480469l15.585938 15c2.269531 2.1875 5.84375 2.242187 8.183594.128906l16.585937-15c1.539063-1.390625 2.25-3.476562 1.882813-5.519531l-8.046875-44.488281 3.109375-12.84375h22.167968c8.273438-.011719 16.160157 3.511718 21.671876 9.683593 5.511718 6.171875 8.125 14.402344 7.1875 22.625-.023438.199219-.269532.441407-.269532.644531v35.261719c-18 13.617188-41.5625 21.660157-66.484375 21.660157-25.621093-.074219-50.464843-8.789063-70.515625-24.738282zm65.25-45.136718h6.941406l6.582032 36.265624-9.960938 8.972657-9.300781-8.890625zm6.769532-12h-6.664063l-1.875-8h10.410156zm76.980468 50.207031v-24.964844c2-11.476563-2.492187-23.015625-10.226562-31.574219-7.722656-8.660156-18.761719-13.628906-30.363282-13.667968h-79.4375c-11.660156.035156-22.761718 5.003906-30.558593 13.671874-7.695313 8.625-11.464844 20.058594-10.414063 31.570313v20.933594c-8.382812-9.015625-15.355468-19.238281-20.691406-30.332031-1.296875-2.785157-2.515625-5.660157-3.578125-8.535157-.378906-1.035156-.757813-2.074219-1.109375-3.117187-11.980469-35.78125-5.515625-75.167969 17.273438-105.238282.980468-1.292968 2-2.578124 3.027343-3.816406 26.953125-32.609375 69.765625-47.582031 111.167969-38.871094 41.398438 8.710938 74.550781 39.664063 86.078125 80.371094 11.523437 40.707032-.480469 84.445313-31.167969 113.570313zm0 0"/><path d="m27.929688 333.601562c3.164062 6.03125 6.621093 12 10.269531 17.734376l10.125-6.4375c-3.46875-5.460938-6.757813-11.136719-9.769531-16.871094zm0 0"/><path d="m12.367188 230.234375c0-3.011719.089843-6.125.265624-9.257813l-11.980468-.679687c-.1875 3.355469-.285156 6.703125-.285156 9.929687 0 1.734376.027343 3.5.082031 5.242188l11.992187-.386719c-.054687-1.617187-.074218-3.242187-.074218-4.847656zm0 0"/><path d="m14.265625 254.246094-11.855469 1.84375c.9375 6.050781 2.253906 12.613281 4.019532 20.0625l11.675781-2.769532c-1.6875-7.136718-2.9375-13.398437-3.839844-19.136718zm0 0"/><path d="m23.375 292.152344-11.398438 3.730468c2.109376 6.453126 4.53125 12.910157 7.195313 19.203126l11.046875-4.679688c-2.535156-5.984375-4.835938-12.125-6.84375-18.253906zm0 0"/><path d="m49.914062 368.15625c4.136719 5.4375 8.546876 10.75 13.101563 15.777344l8.890625-8.058594c-4.324219-4.773438-8.511719-9.816406-12.445312-14.984375zm0 0"/><path d="m217.167969 445.355469c-23.023438-1.226563-45.6875-6.191407-67.113281-14.699219-9.109376-3.648438-17.945313-7.941406-26.441407-12.847656-3.027343-1.746094-6.050781-3.597656-8.988281-5.5-1.460938-.945313-2.902344-1.90625-4.335938-2.882813-6.335937-4.332031-12.4375-9.003906-18.269531-13.992187l-7.800781 9.121094c6.164062 5.269531 12.605469 10.203124 19.300781 14.78125 1.5 1.023437 3.039063 2.046874 4.582031 3.046874 3.109376 2.011719 6.304688 3.96875 9.507813 5.816407 8.992187 5.191406 18.34375 9.738281 27.984375 13.601562 22.628906 8.992188 46.574219 14.242188 70.890625 15.542969 4.625.261719 11.222656.492188 16.753906.492188.957031 0 1.882813-.003907 2.761719-.019532l-.203125-12c-5.65625.085938-13.429687-.164062-18.628906-.460937zm0 0"/><path d="m46.046875 104.867188h32.019531v-12h-17.171875c19.449219-22.507813 42.90625-41.207032 69.183594-55.148438 35.230469-18.652344 73.804687-27.453125 111.554687-25.328125 73.179688 4.136719 120.5 41.136719 147.3125 71.476563 34.074219 38.558593 54.875 88.945312 57.074219 138.273437.285157 6.308594.25 12.628906-.101562 18.9375l11.980469.671875c.375-6.714844.410156-13.441406.105468-20.160156-2.316406-52.019532-24.210937-105.128906-60.066406-145.707032-39.476562-45.253906-95.652344-72.523437-155.628906-75.546874-39.929688-2.257813-80.671875 6.949218-117.835938 26.621093-27.402344 14.644531-51.933594 34.121094-72.40625 57.496094v-18.585937h-12v32.6875c-.03125 3.371093 2.609375 6.164062 5.980469 6.3125zm0 0"/><path d="m368.492188 271.867188h-27.851563c-6.804687-.074219-13.351563 2.59375-18.164063 7.40625s-7.484374 11.359374-7.410156 18.164062v33.792969c0 21.816406 17.683594 39.5 39.5 39.5s39.5-17.683594 39.5-39.5v-33.792969c.074219-6.804688-2.597656-13.351562-7.410156-18.164062-4.8125-4.808594-11.359375-7.480469-18.164062-7.40625zm13.574218 25.570312v3.429688c-6 2.136718-12.234375 2.183593-17.492187-.300782-7.476563-3.535156-12.175781-11.699218-15.011719-16.699218h18.929688c3.621093-.074219 7.117187 1.328124 9.679687 3.890624s3.96875 6.058594 3.894531 9.679688zm-45.164062-13.421875c1.253906 3.023437 2.71875 5.957031 4.378906 8.777344-3.589844 4.191406-8.710938 6.773437-14.214844 7.171875v-2.53125c-.078125-6.164063 3.933594-11.640625 9.835938-13.417969zm17.664062 75.140625c-7.359375-.023438-14.402344-2.988281-19.566406-8.234375-5.164062-5.242187-8.019531-12.332031-7.933594-19.691406v-19.265625c8.039063-.261719 15.667969-3.613282 21.300782-9.351563 3.199218 3.542969 7.042968 6.445313 11.328124 8.554688 4.332032 2.113281 9.089844 3.207031 13.910157 3.195312 2.851562-.015625 5.691406-.367187 8.460937-1.046875v17.914063c.085938 7.359375-2.769531 14.449219-7.933594 19.691406-5.164062 5.246094-12.207031 8.210937-19.566406 8.234375zm0 0"/></svg>