<svg id="Layer_1" enable-background="new 0 0 512 512" height="512" viewBox="0 0 512 512" width="512" xmlns="http://www.w3.org/2000/svg"><path d="m501 242c0-3.31371-2.68628-6-6-6h-479c-3.31371 0-6 2.68629-6 6v194c0 3.31372 2.68629 6 6 6h479c3.31372 0 6-2.68628 6-6zm-315 70v118h-30v-118zm29 0v57c-.15036 3.15991 2.28935 5.84341 5.44926 5.99377.07253.00345.14513.00552.21773.00623h8.33301v55h-31v-118zm99 0v118h-31v-118zm28 0v57c.08804 3.3483 2.83453 6.01312 6.18399 6h7.81601v55h-30v-118zm97 0v118h-28v-118zm-40 118h-31v-55h8.34399c3.15836-.03098 5.69363-2.61642 5.66266-5.77481-.00073-.0751-.00296-.15018-.00665-.22519v-57h17zm-29-67h-16v-51h16zm-99 67h-30v-55h7.827c3.34732.01245 6.09032-2.65366 6.173-6v-57h16zm-28-67h-16v-51h16zm-99 67h-31v-55h8.045c3.29382-.00491 5.96001-2.67905 5.9551-5.97287-.00001-.00906-.00005-.0181-.0001-.02713v-57h17zm-29-67h-16v-51h16zm-22.115 12h8.115v55h-28v-118h14v57c-.05193 3.26138 2.54984 5.94736 5.81122 5.9993.02459.00036.04918.00061.07378.0007zm397.115 55h-39v-124.49399c0-3.314-3.069-5.50601-6.38199-5.50601h-377.23601c-3.313 0-6.382 2.19199-6.382 5.50601v124.49399h-39v-182h468z"/><path d="m71 282h32c3.31371 0 6-2.68628 6-6s-2.68629-6-6-6h-32c-3.31371 0-6 2.68628-6 6s2.68629 6 6 6z"/><path d="m145 282h32c3.31371 0 6-2.68628 6-6s-2.68629-6-6-6h-32c-3.31371 0-6 2.68628-6 6s2.68629 6 6 6z"/><path d="m206.589 119.863c-13.418 2.662-22.32201 14.509-19.961 26.408 2.039 10.28101 11.94299 17.289 23.242 17.289 1.82646-.00121 3.64844-.18073 5.44-.536 13.418-2.662 22.243-14.509 19.882-26.409-.522-2.633-1.192-5.08-3.192-7.26399v-53.02701c.15309-3.15923-2.28386-5.84439-5.44308-5.99748-.39787-.01928-.79666.003-1.18991.06648l-63.356 9.683c-2.91319.45588-5.04846 2.9836-5.01102 5.93201v51.074c-4.56039-1.57469-9.46083-1.89146-14.186-.91701h-.01399c-6.16783 1.15924-11.7238 4.47057-15.678 9.34399-7.23745 8.60645-6.12766 21.45045 2.47878 28.68791 1.13776.95679 2.37689 1.78609 3.69522 2.47308 3.85048 2.12178 8.17969 3.22336 12.576 3.2 1.83698-.00084 3.66943-.18204 5.47099-.541 6.16487-1.15973 11.71751-4.47118 15.668-9.34399 3.93967-4.74664 5.56053-11.00137 4.422-17.064-.51183-2.2316-1.32921-4.3819-2.429-6.39v-55.36999l51-7.851v37.284c-4.33218-1.40518-8.95577-1.65713-13.41499-.731zm-48.98899 42.66601c-4.57298 5.33311-12.2007 6.84602-18.463 3.662-4.19019-1.98206-5.98024-6.98566-3.99818-11.17584.35419-.74878.81728-1.44099 1.37419-2.05415 2.18132-2.64018 5.22887-4.42052 8.60001-5.024 1.03555-.20724 2.08893-.31242 3.145-.314 2.34631-.02386 4.6597.5531 6.72 1.67599 4.19055 1.98257 5.98047 6.98689 3.99789 11.17744-.35394.74812-.81657 1.43979-1.37289 2.05255h-.00302zm55.39999-11.276c-6.925 1.377-13.436-1.908-14.509-7.317s3.689-10.927 10.617-12.3c1.0352-.20729 2.08824-.31247 3.144-.314 2.34607-.02242 4.65894.55519 6.71899 1.67799 2.35492 1.19708 4.05635 3.37846 4.644 5.95399 1.07301 5.40601-3.68999 10.92501-10.61499 12.29902z"/><path d="m291 169.728c-5.20792.97401-9.90506 3.75462-13.26401 7.85201-3.32867 4.05794-4.70935 9.37196-3.77701 14.537 1.73401 8.73801 10.04001 14.7 19.57599 14.7 1.5174-.00075 3.03101-.1508 4.51901-.448 5.1731-.97632 9.8309-3.75923 13.142-7.85201 3.37454-4.03722 4.81601-9.34763 3.94601-14.537-.40326-2.03651-1.12622-3.99641-2.142-5.80699v-41.724c-.20532-3.50984-3.21707-6.18867-6.72693-5.98334-.17499.01024-.34952.02769-.52307.05234l-50.46201 7.673c-2.96988.42978-5.20084 2.93245-5.28799 5.93199v38.8c-8.53358-2.19606-17.56604.75935-23.151 7.575-3.30414 4.06909-4.65208 9.38515-3.686 14.537 1.73399 8.73801 10.086 14.7 19.62199 14.7 1.52499-.00082 3.04625-.15086 4.54201-.448 5.17595-.97687 9.83704-3.75943 13.15298-7.85201 3.27597-4.08241 4.58774-9.40042 3.586-14.53799-.36212-1.82094-1.06293-3.55769-2.06601-5.12v-42.5l39-5.841v26.444c-3.28621-.74758-6.69253-.79936-9.99996-.152zm-39.924 34.255c-1.55222 1.84935-3.70105 3.09918-6.076 3.534-4.73399.942-9.327-1.26801-10.032-4.819-.2583-1.70442.2357-3.43706 1.354-4.74899 1.55275-1.85004 3.7029-3.09966 6.07899-3.533.72247-.14392 1.45734-.21661 2.194-.217 3.88 0 7.244 2.039 7.838 5.035.25844 1.70444-.23558 3.43712-1.354 4.74899zm50.70702-12.91699c-1.5524 1.85014-3.70215 3.1001-6.078 3.534-4.73499.942-9.328-1.26801-10.03201-4.819-.2583-1.70442.23569-3.43706 1.354-4.74899 1.55258-1.85023 3.70282-3.0999 6.07901-3.533.7291-.14491 1.47061-.21826 2.21399-.21899 1.65723-.01976 3.29245.38069 4.75299 1.164 2.7204 1.23961 3.92081 4.44983 2.68121 7.17024-.24301.53329-.57101 1.02361-.97122 1.45175h.00003z"/><path d="m98.41998 199.409c-.29998-1.49402-1.41998-2.917-1.41998-4.22303v-28.44501c-.172-3.479-3.13165-6.15991-6.61066-5.98792-.19727.0097-.39392.02875-.58936.05695l-34.82098 5.33302c-2.90643.45886-5.03046 2.98901-4.979 5.93097v24.763c-1.92572-.22784-3.87506-.15668-5.77899.211-8.84601 1.75604-14.83099 9.70001-13.24103 17.711.82635 4.08313 3.4129 7.59332 7.06799 9.59204 2.52313 1.39099 5.35992 2.11389 8.24103 2.09998 1.18756-.00049 2.37225-.11737 3.53699-.349 8.84601-1.755 14.91003-9.70001 13.32098-17.71002-.25299-1.27498-1.14697-2.49202-1.14697-3.63301v-27.53101l23-3.5v14.10004c-1.83765-.18903-3.69312-.10712-5.50702.24298-4.05023.76233-7.70197 2.92828-10.31299 6.117-4.92932 5.8642-4.17151 14.61407 1.69263 19.5434.75232.63239 1.5697 1.18298 2.43835 1.64264 2.51819 1.39148 5.35095 2.1145 8.22803 2.09998 1.18524-.00183 2.36749-.11908 3.52997-.34998 4.02209-.76276 7.64215-2.93005 10.21399-6.11505 2.68982-3.22284 3.83588-7.46075 3.13702-11.59997zm-50.92798 14.91998c-1.21454.27118-2.48566.10876-3.59302-.45898-.59473-.28925-1.0401-.81561-1.22699-1.45001-.26001-1.29797 1.27899-3.12 3.72803-3.60199.39252-.078.79175-.11749 1.19196-.11798.83594-.01263 1.6615.18616 2.40002.578.59448.28973 1.03949.81647 1.22601 1.45099.258 1.29998-1.28002 3.11901-3.72601 3.59997zm38.87177-11.50507c-.10553.27887-.27338.52997-.49078.73407l.00104.00201c-1.69708 1.89832-4.44611 2.44336-6.73901 1.336-1.01038-.38232-1.51953-1.51129-1.13721-2.52167.10559-.27899.27362-.53021.49121-.73431.80719-.94788 1.9198-1.58441 3.146-1.80005.39221-.078.79108-.11749 1.19098-.11798.83612-.013 1.6618.18622 2.40002.57898 1.01086.38251 1.52026 1.51209 1.13775 2.52295z"/></svg>