<svg height="487pt" viewBox="-2 0 487 487.73258" width="487pt" xmlns="http://www.w3.org/2000/svg"><path d="m413.789062 248.847656c-.132812-.0625-.265624-.125-.398437-.1875.695313-6.589844 1.046875-13.210937 1.054687-19.839844 0-103.582031-84.269531-187.851562-187.851562-187.851562s-187.851562 84.269531-187.851562 187.851562c0 103.582032 84.269531 187.851563 187.851562 187.851563 5.796875 0 11.621094-.277344 17.382812-.804687 23.707032 49.820312 77.066407 78.425781 131.683594 70.589843 54.613282-7.839843 97.777344-50.292969 106.519532-104.769531 8.742187-54.476562-18.96875-108.304688-68.390626-132.839844zm-56.023437-13.105468c-7.21875.007812-14.421875.632812-21.53125 1.863281.027344-.917969.046875-1.738281.066406-2.738281h66.035157c-.101563 3-.289063 5.875-.535157 8.808593-14.082031-5.273437-29-7.960937-44.035156-7.933593zm-265.941406 105.929687c-25.304688-29.964844-39.742188-67.605469-40.96875-106.804687h66.023437c.570313 28 5.085938 53.441406 13.136719 76.757812-14 8.285156-26.84375 18.390625-38.191406 30.046875zm38.191406-195.601563c-8.050781 23.320313-12.566406 48.796876-13.136719 76.796876h-66.023437c1.226562-39.214844 15.664062-76.863282 40.96875-106.839844 11.347656 11.65625 24.191406 21.761718 38.191406 30.046875zm230.921875-30.558593c25.527344 30.082031 40.117188 67.921875 41.394531 107.355469h-66.023437c-.574219-28-5.140625-53.753907-13.277344-77.171876 13.902344-8.359374 26.644531-18.507812 37.90625-30.183593zm-36.644531 107.355469h-91.226563v-50.601563c27.714844-.875 54.886719-7.921875 79.535156-20.625 7.28125 21.648437 11.140626 45.226563 11.691407 71.226563zm-91.226563-62.613282v-105.855468c34 17.628906 60.128906 47.648437 75.566406 85.875-23.390624 12.1875-49.207031 19.011718-75.566406 19.980468zm-12 0c-26.386718-.8125-52.253906-7.53125-75.699218-19.660156 15.421874-38.378906 40.699218-68.519531 75.699218-86.199219zm0 12.007813v50.605469h-92.175781c.390625-24.117188 4.457031-48.03125 12.066406-70.917969 24.859375 12.644531 52.226563 19.585937 80.109375 20.316406zm-92.175781 62.605469h92.175781v50.511718c-27.886718.742188-55.253906 7.699219-80.109375 20.359375-7.523437-22.894531-11.589843-46.78125-12.066406-70.871093zm104.175781 141.203124c0 8.28125 2.699219 16.425782 5.25 24.351563-1.730468.980469-4.25 1.929687-5.25 2.84375zm-12-78.683593v105.859375c-35-17.683594-60.273437-47.820313-75.699218-86.203125 23.445312-12.128907 49.3125-18.84375 75.699218-19.65625zm12 49.953125v-49.953125c5 .179687 10.761719.597656 16.078125 1.261719-8.699219 14.96875-15.078125 31.441406-16.078125 48.691406zm24.335938-61.785156c-.5.65625-.726563 1.328124-1.210938 1.988281-7.660156-1.160157-15.382812-1.882813-23.125-2.164063v-50.511718h91.226563c-.042969 2-.109375 3.636718-.1875 5.460937-.386719.109375-.777344.191406-1.167969.300781-24.363281 6.984375-46.042969 21.179688-62.183594 40.71875-1.136718 1.367188-2.261718 2.777344-3.351562 4.207032zm95.464844-178.988282c-10.164063 10.644532-21.644532 19.945313-34.160157 27.6875-13.425781-32.535156-34.132812-59.46875-60.851562-78.5 36.210937 6.566406 69.445312 24.339844 95.011719 50.8125zm-157.53125-50.8125c-26.824219 19.097656-47.585938 46.175782-61.007813 78.882813-12.625-7.683594-24.210937-16.960938-34.46875-27.601563 25.625-26.726562 59.042969-44.675781 95.476563-51.28125zm-95.476563 294.847656c10.257813-10.640624 21.84375-19.914062 34.46875-27.597656 13.417969 32.703125 34.183594 59.78125 61.007813 78.882813-36.433594-6.605469-69.851563-24.554688-95.476563-51.285157zm186.613281 100.121094c1.542969-15.824218 14.859375-27.886718 30.761719-27.855468h13.230469c2.546875 13.160156 14.066406 22.664062 27.46875 22.664062s24.921875-9.503906 27.464844-22.664062h13.5c15.71875.019531 28.925781 11.8125 30.714843 27.425781-41.628906 33.914062-101.308593 34.09375-143.140625.429687zm44.738282-64.015625c-7.195313-7.144531-11.214844-16.886719-11.144532-27.027343v-3.488282c25.3125-4.972656 47.359375-20.386718 60.710938-42.460937 1.703125.613281 3.324218 1.4375 4.824218 2.457031 6.777344 4.585938 10.75 12.316406 10.53125 20.5l-.066406 4.347656v18.089844c0 21.152344-16.925781 38.484375-37.765625 38.636719-10.148437.097656-19.90625-3.886719-27.089843-11.054688zm76.855468-45.585937.035156-4.261719c.285157-12.265625-5.710937-23.828125-15.898437-30.664063-4.097656-2.773437-8.773437-4.578124-13.671875-5.277343-2.472656-.339844-4.894531.878906-6.089844 3.070312-19.875 36.378907-54.789062 40.578125-57.6875 40.863281-3.773437.171876-6.734375 3.304688-6.6875 7.085938v7.742188c-.03125 2.875.179688 5.746093.632813 8.585937-4.984375-9.691406-7.820313-20.347656-8.304688-31.238281-.441406-9.582032 1.542969-19.117188 5.769531-27.726563 7.1875-14.429687 20.800782-25.449219 37.363282-30.238281 9.300781-2.875 19.351562-2.046875 28.054687 2.316406 8.207031 4.273438 14.628907 11.316406 18.132813 19.878906l.230468.695313c.980469 2.945313 4.050782 4.65625 7.074219 3.9375 1.589844-.375 9.777344-1.589844 15.0625 11.5 5.269531 13.058594 4.96875 27.886719-.84375 41.761719-1.121093 2.683594-2.390625 5.300781-3.808593 7.839844.414062-2.601563.628906-5.234376.636718-7.867188zm-66 75.523437v-9.476562c5.128906 1.730469 10.503906 2.609375 15.914063 2.597656h.4375c5.324219-.046875 10.609375-.949219 15.648437-2.667969v10.246094c0 8.839844-7.164062 16-16 16-8.835937 0-16-7.160156-16-16zm97.769532 24.246094c-5.660157-17.847656-22.210938-29.988281-40.9375-30.023437h-12.832032v-1.480469c4.238282-3.296875 8.234375-6.890625 11.964844-10.753907 11.136719-11.125 19.289062-22.847656 24.316406-34.84375 7.039063-16.808593 7.339844-34.882812.878906-50.886718-4.882812-12.101563-13.898437-19.21875-23.820312-19.28125-10.539062-22.179688-35.742188-33.28125-59.222656-26.085938-19.777344 5.714844-36.101563 18.988282-44.789063 36.414063-5.117187 10.421875-7.527343 21.96875-7 33.574219 1.214844 29.234374 17.671875 56.441406 41.671875 70.382812v2.960938h-12.832031c-18.925781-.019532-35.625 12.367187-41.09375 30.480468-9.011719-9.214844-16.386719-19.894531-21.816406-31.582031-1.296875-2.785156-2.488281-5.683594-3.550781-8.5625-.382813-1.03125-.746094-2.085937-1.101563-3.128906-11.972656-35.785157-5.503906-75.175781 17.285156-105.25.984375-1.296875 2-2.582031 3.03125-3.820313 26.640625-32.148437 68.726563-47.160156 109.703125-39.132812 40.976563 8.027344 74.285156 37.816406 86.824219 77.640625 12.539063 39.828125 2.304687 83.324219-26.679687 113.378906zm0 0"/><path d="m49.914062 368.15625c4.136719 5.4375 8.546876 10.75 13.101563 15.777344l8.890625-8.058594c-4.324219-4.773438-8.511719-9.816406-12.445312-14.984375zm0 0"/><path d="m23.375 292.152344-11.398438 3.730468c2.109376 6.453126 4.53125 12.910157 7.195313 19.203126l11.046875-4.679688c-2.535156-5.984375-4.835938-12.125-6.84375-18.253906zm0 0"/><path d="m27.929688 333.601562c3.164062 6.03125 6.621093 12 10.269531 17.734376l10.125-6.4375c-3.46875-5.460938-6.757813-11.136719-9.769531-16.871094zm0 0"/><path d="m12.367188 230.234375c0-3.011719.089843-6.125.265624-9.257813l-11.980468-.679687c-.1875 3.355469-.285156 6.703125-.285156 9.929687 0 1.734376.027343 3.5.082031 5.242188l11.992187-.386719c-.054687-1.617187-.074218-3.242187-.074218-4.847656zm0 0"/><path d="m14.265625 254.246094-11.855469 1.84375c.9375 6.050781 2.253906 12.613281 4.019532 20.0625l11.675781-2.769532c-1.6875-7.136718-2.9375-13.398437-3.839844-19.136718zm0 0"/><path d="m217.167969 445.355469c-23.023438-1.226563-45.6875-6.191407-67.113281-14.699219-9.109376-3.648438-17.945313-7.941406-26.441407-12.847656-3.027343-1.746094-6.050781-3.597656-8.988281-5.5-1.460938-.945313-2.902344-1.90625-4.335938-2.882813-6.335937-4.332031-12.4375-9.003906-18.269531-13.992187l-7.800781 9.121094c6.164062 5.269531 12.605469 10.203124 19.300781 14.78125 1.5 1.023437 3.039063 2.046874 4.582031 3.046874 3.109376 2.011719 6.304688 3.96875 9.507813 5.816407 8.992187 5.191406 18.34375 9.738281 27.984375 13.601562 22.628906 8.992188 46.574219 14.242188 70.890625 15.542969 4.625.261719 11.222656.492188 16.753906.492188.957031 0 1.882813-.003907 2.761719-.019532l-.203125-12c-5.652344.085938-13.429687-.164062-18.628906-.460937zm0 0"/><path d="m46.046875 104.867188h32.019531v-12h-17.171875c19.449219-22.507813 42.90625-41.207032 69.183594-55.148438 35.230469-18.652344 73.8125-27.453125 111.554687-25.328125 73.179688 4.136719 120.5 41.136719 147.3125 71.476563 34.074219 38.558593 54.875 88.945312 57.074219 138.273437.285157 6.308594.25 12.628906-.101562 18.9375l11.980469.671875c.375-6.714844.410156-13.441406.105468-20.160156-2.316406-52.019532-24.210937-105.128906-60.066406-145.707032-39.476562-45.253906-95.652344-72.523437-155.628906-75.546874-39.929688-2.257813-80.671875 6.949218-117.835938 26.621093-27.402344 14.644531-51.933594 34.121094-72.40625 57.496094v-18.585937h-12v32.6875c-.03125 3.371093 2.609375 6.164062 5.980469 6.3125zm0 0"/></svg>