<svg height="501pt" viewBox="0 0 501 501.29239" width="501pt" xmlns="http://www.w3.org/2000/svg"><path d="m284.175781 197.015625c3.09375 1.191406 6.566407-.351563 7.753907-3.441406 1.191406-3.09375-.347657-6.566407-3.441407-7.757813-15.90625-6.136718-33.65625-5.324218-48.933593 2.246094-15.277344 7.570312-26.679688 21.199219-31.429688 37.574219h-12.328125c-3.316406 0-6 2.6875-6 6s2.683594 6 6 6h10.132813c-.324219 3.996093-.257813 8.015625.203124 12h-10.335937c-3.316406 0-6 2.6875-6 6s2.683594 6 6 6h12.953125c5.207031 15.847656 16.6875 28.863281 31.757812 36.011719 15.070313 7.148437 32.414063 7.800781 47.976563 1.808593 3.09375-1.191406 4.636719-4.664062 3.445313-7.757812-1.191407-3.089844-4.664063-4.632813-7.757813-3.441407-24.648437 9.476563-52.371094-2.300781-62.664063-26.621093h49.289063c3.3125 0 6-2.6875 6-6s-2.6875-6-6-6h-52.613281c-.570313-3.972657-.652344-8.003907-.246094-12h58.859375c3.3125 0 6-2.6875 6-6s-2.6875-6-6-6h-56.078125c4.558594-12.257813 13.832031-22.179688 25.753906-27.558594 11.921875-5.375 25.496094-5.757813 37.703125-1.0625zm0 0"/><path d="m467.414062 216.613281c-16.085937.023438-29.964843 11.289063-33.296874 27.023438h-13.140626c-1.699218-40.527344-17.855468-79.109375-45.546874-108.75l9.339843-9.339844c14.546875 9.945313 34.28125 7.140625 45.480469-6.472656 11.195312-13.609375 10.144531-33.515625-2.421875-45.871094-12.566406-12.359375-32.488281-13.074219-45.90625-1.652344-13.421875 11.421875-15.898437 31.203125-5.710937 45.582031l-9.261719 9.261719c-30.476563-28.550781-70.40625-44.863281-112.152344-45.816406v-12.777344c17.492187-2.074219 30.511719-17.164062 29.996094-34.777343-.515625-17.609376-14.390625-31.914063-31.976563-32.9648442-17.589844-1.0468748-33.066406 11.5039062-35.671875 28.9296872s8.527344 33.953125 25.652344 38.09375v13.640625c-40.144531 1.863282-78.328125 17.910156-107.746094 45.289063l-9.347656-9.347657c9.933594-14.53125 7.128906-34.246093-6.464844-45.429687-13.597656-11.183594-33.480469-10.136719-45.828125 2.414063-12.34375 12.550781-13.0625 32.453124-1.652344 45.859374 11.40625 13.410157 31.164063 15.886719 45.53125 5.710938l9.253907 9.257812c-28.15625 29.941407-44.488281 69.085938-45.96875 110.160157h-12.914063c-3.109375-17.347657-18.949218-29.449219-36.503906-27.890625-17.554688 1.5625-31.011719 16.269531-31.011719 33.890625 0 17.625 13.457031 32.328125 31.011719 33.890625 17.554688 1.558594 33.394531-10.542969 36.503906-27.890625h12.898438c1.375 41.472656 17.894531 81.003906 46.4375 111.121093l-8.890625 8.890626c-14.070313-10.609376-33.914063-8.71875-45.730469 4.355468-11.8125 13.074219-11.691406 33.003906.285156 45.929688 11.976563 12.929687 31.839844 14.570312 45.777344 3.789062 13.9375-10.785156 17.335938-30.425781 7.828125-45.261718l9.269531-9.273438c29.613282 27.339844 67.988282 43.25 108.261719 44.875v12.902344c-17.25 3.621094-28.878906 19.816406-26.796875 37.320312 2.082031 17.5 17.183594 30.515625 34.804688 29.992188 17.617187-.523438 31.917968-14.414063 32.957031-32.007813 1.035156-17.597656-11.53125-33.070312-28.964844-35.664062v-12.46875c41.855469-1.203125 81.792969-17.835938 112.128906-46.699219l8.882813 8.882812c-10.609375 14.070313-8.722656 33.910157 4.351562 45.726563 13.074219 11.8125 33.007813 11.691406 45.933594-.285156 12.925781-11.976563 14.566406-31.839844 3.785156-45.777344-10.785156-13.933594-30.425781-17.332031-45.261718-7.824219l-9.277344-9.28125c27.722656-30.144531 43.613281-69.300781 44.730468-110.242187h12.691407c2.664062 17.945312 18.941406 30.640625 36.992187 28.859375 18.054688-1.78125 31.535156-17.414063 30.640625-35.53125-.890625-18.117188-15.839843-32.351563-33.980469-32.351563zm-433.238281 56.046875c-12.164062 0-22.023437-9.859375-22.023437-22.023437.003906-12.164063 9.863281-22.023438 22.023437-22.023438 12.164063 0 22.023438 9.859375 22.023438 22.023438-.011719 12.160156-9.867188 22.011719-22.023438 22.023437zm354.21875-190.769531c8.601563-8.601563 22.546875-8.601563 31.148438 0 8.601562 8.601563 8.601562 22.546875 0 31.148437-8.601563 8.601563-22.546875 8.597657-31.148438 0-4.148437-4.121093-6.480469-9.726562-6.480469-15.574218s2.332032-11.453125 6.480469-15.574219zm-159.625-47.871094c0-12.164062 9.863281-22.023437 22.027344-22.023437 12.160156 0 22.023437 9.859375 22.023437 22.023437 0 12.164063-9.863281 22.023438-22.023437 22.023438-12.160156-.015625-22.011719-9.867188-22.027344-22.023438zm-146.71875 79.019531c-8.601562-8.601562-8.601562-22.546874-.003906-31.148437 8.601563-8.601563 22.546875-8.601563 31.148437 0 8.601563 8.601563 8.601563 22.546875 0 31.148437-4.109374 4.164063-9.71875 6.511719-15.574218 6.511719-5.851563 0-11.460938-2.347656-15.570313-6.511719zm31.144531 306.34375c-8.597656 8.59375-22.535156 8.589844-31.128906-.007812s-8.59375-22.53125 0-31.128906 22.53125-8.601563 31.128906-.007813c8.585938 8.605469 8.585938 22.539063 0 31.144531zm159.625 47.875c0 12.164063-9.859374 22.027344-22.023437 22.027344-12.164063.003906-22.023437-9.859375-22.027344-22.023437 0-12.164063 9.859375-22.023438 22.027344-22.023438 12.152344.011719 22.003906 9.863281 22.023437 22.019531zm146.71875-79.019531c8.601563 8.601563 8.601563 22.542969.003907 31.144531-8.601563 8.601563-22.546875 8.601563-31.148438 0-8.601562-8.601562-8.601562-22.542968 0-31.144531 4.109375-4.167969 9.71875-6.511719 15.574219-6.511719 5.851562 0 11.460938 2.34375 15.570312 6.511719zm-168.742187 20.980469c-87.3125 0-158.347656-71.035156-158.347656-158.34375 0-87.3125 71.035156-158.347656 158.347656-158.347656 87.308594 0 158.34375 71.035156 158.34375 158.347656 0 87.308594-71.035156 158.34375-158.34375 158.34375zm216.617187-136.558594c-12.164062 0-22.023437-9.859375-22.023437-22.023437 0-12.164063 9.863281-22.023438 22.023437-22.023438 12.164063 0 22.023438 9.859375 22.023438 22.023438-.011719 12.160156-9.867188 22.011719-22.023438 22.023437zm0 0"/><path d="m250.796875 127.253906c-68.273437 0-123.621094 55.347656-123.621094 123.621094s55.347657 123.617188 123.621094 123.617188 123.617187-55.34375 123.617187-123.617188c-.078124-68.242188-55.378906-123.542969-123.617187-123.621094zm0 235.238282c-61.648437 0-111.621094-49.972657-111.621094-111.617188 0-61.648438 49.972657-111.621094 111.621094-111.621094 61.644531 0 111.617187 49.972656 111.617187 111.621094-.070312 61.617188-50.003906 111.546875-111.617187 111.617188zm0 0"/></svg>