<?xml version="1.0" encoding="iso-8859-1"?>
<!-- Generator: Adobe Illustrator 19.0.0, SVG Export Plug-In . SVG Version: 6.00 Build 0)  -->
<svg version="1.1" id="Capa_1" xmlns="http://www.w3.org/2000/svg" xmlns:xlink="http://www.w3.org/1999/xlink" x="0px" y="0px"
	 viewBox="0 0 511.998 511.998" style="enable-background:new 0 0 511.998 511.998;" xml:space="preserve">
<g>
	<g>
		<path d="M457.889,108.799H260.06L228.49,56.185c-3.154-5.26-8.832-8.477-14.964-8.477H54.689c-4.753,0-9.309,1.943-12.602,5.376
			c-3.287,3.433-5.039,8.058-4.841,12.812l6.4,152.436l34.88-1.466L72.889,82.617h130.758l31.569,52.614
			c3.153,5.26,8.832,8.477,14.964,8.477h190.255v73.891h34.909v-91.345C475.344,116.613,467.53,108.799,457.889,108.799z"/>
	</g>
</g>
<g>
	<g>
		<path d="M507.809,206.254c-3.316-3.875-8.163-6.109-13.265-6.109H17.453c-5.108,0-9.961,2.252-13.277,6.138
			c-3.316,3.887-4.765,9.036-3.956,14.08l36.655,229.231c1.356,8.466,8.657,14.697,17.233,14.697h404.364
			c8.588,0,15.907-6.255,17.245-14.743l36.073-229.236C512.574,215.272,511.126,210.134,507.809,206.254z M443.548,429.381H68.991
			L37.921,235.054h436.207L443.548,429.381z"/>
	</g>
</g>
<g>
</g>
<g>
</g>
<g>
</g>
<g>
</g>
<g>
</g>
<g>
</g>
<g>
</g>
<g>
</g>
<g>
</g>
<g>
</g>
<g>
</g>
<g>
</g>
<g>
</g>
<g>
</g>
<g>
</g>
</svg>
