<?xml version="1.0" encoding="iso-8859-1"?>
<!-- Generator: Adobe Illustrator 19.0.0, SVG Export Plug-In . SVG Version: 6.00 Build 0)  -->
<svg version="1.1" id="Capa_1" xmlns="http://www.w3.org/2000/svg" xmlns:xlink="http://www.w3.org/1999/xlink" x="0px" y="0px"
	 viewBox="0 0 512 512" style="enable-background:new 0 0 512 512;" xml:space="preserve">
<g>
	<g>
		<path d="M437.805,104.213H227.217l-70.751-54.258c-2.968-2.277-6.604-3.512-10.342-3.512H16.991C7.606,46.443,0,54.049,0,63.434
			v385.133c0,9.385,7.606,16.991,16.991,16.991h393.062v-33.982H33.982V80.425h106.376l70.751,54.258
			c2.968,2.277,6.604,3.512,10.342,3.512h199.363v52.673h33.982v-69.664C454.796,111.819,447.19,104.213,437.805,104.213z"/>
	</g>
</g>
<g>
	<g>
		<path d="M508.256,180.797c-3.223-4.016-8.099-6.349-13.247-6.349H98.549c-7.975,0-14.873,5.545-16.595,13.332L25.317,444.347
			c-1.11,5.024,0.125,10.285,3.347,14.301s8.099,6.349,13.247,6.349h396.46c7.974,0,14.873-5.545,16.595-13.332l56.637-256.566
			C512.708,190.074,511.479,184.813,508.256,180.797z M424.722,431.015H63.06l49.138-222.584h361.662L424.722,431.015z"/>
	</g>
</g>
<g>
</g>
<g>
</g>
<g>
</g>
<g>
</g>
<g>
</g>
<g>
</g>
<g>
</g>
<g>
</g>
<g>
</g>
<g>
</g>
<g>
</g>
<g>
</g>
<g>
</g>
<g>
</g>
<g>
</g>
</svg>
