<svg height="471pt" viewBox="0 -31 471.238 471" width="471pt" xmlns="http://www.w3.org/2000/svg"><path d="m6 409.9375h459.238281c3.3125 0 6-2.6875 6-6s-2.6875-6-6-6h-193.621093v-285.765625c-.019532-3.375-2.703126-6.128906-6.078126-6.234375h-47.78125c-3.386718.097656-6.09375 2.847656-6.140624 6.234375v285.765625h-38v-220.40625c0-1.542969-.636719-3.015625-1.757813-4.074219-1.125-1.058593-2.632813-1.609375-4.171875-1.519531h-47.785156c-3.3125 0-6.285156 2.28125-6.285156 5.59375v220.40625h-38v-175.589844c0-3.308594-2.472657-6.410156-5.785157-6.410156h-47.78125c-3.476562.15625-6.265625 2.933594-6.433593 6.410156v175.589844h-9.617188c-3.3125 0-6 2.6875-6 6s2.6875 6 6 6zm217.617188-292h36v280h-36zm-98 66h36v214h-36zm-98 44h36v170h-36zm0 0"/><path d="m13.519531 160.375c.207031 0 .417969-.011719.625-.03125 1.511719-.15625 37.546875-4.074219 82.097657-24.660156 38.441406-17.757813 90.050781-51.597656 124.683593-113.335938l10.800781 54.027344c.5625 2.800781 3.019532 4.820312 5.878907 4.820312.394531 0 .792969-.039062 1.183593-.117187 3.25-.648437 5.355469-3.808594 4.707032-7.058594l-13.820313-69.101562c-.667969-1.898438-2.101562-3.433594-3.953125-4.222657-1.851562-.7929682-3.953125-.7656245-5.785156.066407l-66.441406 13.65625c-2.128906.398437-3.878906 1.917969-4.574219 3.96875-.695313 2.054687-.230469 4.320312 1.21875 5.933593 1.449219 1.613282 3.652344 2.320313 5.769531 1.847657l55.515625-11.398438c-13.652343 24.867188-31.453125 47.21875-52.632812 66.089844-20.125 17.800781-42.765625 32.542969-67.1875 43.753906-42.808594 19.851563-78.347657 23.757813-78.699219 23.796875-3.175781.332032-5.535156 3.089844-5.371094 6.277344.164063 3.1875 2.792969 5.691406 5.988282 5.691406zm0 0"/><path d="m279.980469 339.40625c0 15.03125 11.625 27.503906 26.617187 28.5625 14.996094 1.058594 28.253906-9.660156 30.363282-24.542969 2.113281-14.878906-7.644532-28.859375-22.34375-32.015625v-78.480468c13.203124-2.828126 22.632812-14.492188 22.632812-27.992188s-9.429688-25.164062-22.632812-27.992188v-78.480468c14.324218-3.070313 24.023437-16.453125 22.480468-31.019532-1.542968-14.566406-13.832031-25.621093-28.480468-25.621093-14.644532 0-26.933594 11.054687-28.476563 25.621093-1.542969 14.566407 8.15625 27.949219 22.476563 31.019532v78.480468c-13.199219 2.828126-22.628907 14.492188-22.628907 27.992188s9.429688 25.167969 22.628907 27.996094v78.480468c-13.207032 2.816407-22.644532 14.488282-22.636719 27.992188zm45.253906 0c0 9.183594-7.445313 16.628906-16.628906 16.628906-9.183594 0-16.632813-7.445312-16.632813-16.628906s7.449219-16.632812 16.632813-16.632812c9.179687.011718 16.621093 7.453124 16.628906 16.632812zm-33.257813-268.9375c0-9.183594 7.445313-16.628906 16.628907-16.628906 9.1875 0 16.632812 7.445312 16.632812 16.632812 0 9.183594-7.449219 16.628906-16.632812 16.628906-9.179688-.011718-16.621094-7.449218-16.628907-16.632812zm0 134.46875c0-9.183594 7.445313-16.628906 16.628907-16.628906 9.1875 0 16.632812 7.445312 16.632812 16.628906 0 9.1875-7.449219 16.632812-16.632812 16.632812-9.179688-.011718-16.621094-7.453124-16.628907-16.632812zm0 0"/><path d="m426.617188 48.9375c0-3.3125-2.683594-6-6-6h-71c-3.3125 0-6 2.6875-6 6v43c0 3.3125 2.6875 6 6 6h71c3.316406 0 6-2.6875 6-6zm-71 6h59v31h-59zm0 0"/><path d="m450.617188 182.9375c0-3.3125-2.683594-6-6-6h-95c-3.3125 0-6 2.6875-6 6v43c0 3.3125 2.6875 6 6 6h95c3.316406 0 6-2.6875 6-6zm-95 6h83v32h-83zm0 0"/><path d="m426.617188 317.9375c0-3.3125-2.683594-6-6-6h-71c-3.3125 0-6 2.6875-6 6v43c0 3.3125 2.6875 6 6 6h71c3.316406 0 6-2.6875 6-6zm-71 6h59v31h-59zm0 0"/></svg>