<svg height="488pt" viewBox="-61 0 488 488" width="488pt" xmlns="http://www.w3.org/2000/svg"><path d="m321.742188 67h-47.742188v-30.015625c.082031-1.550781-.476562-3.066406-1.542969-4.195313-1.0625-1.132812-2.542969-1.777343-4.097656-1.789062h-40.96875c-6.195313-18-24.222656-31-44.644531-31h-.144532c-20 0-37.625 13-44.390624 31h-40.570313c-1.554687.011719-3.035156.65625-4.097656 1.789062-1.066407 1.128907-1.625 2.644532-1.542969 4.195313v30.015625h-47.742188c-24.230468 0-44.257812 19.042969-44.257812 42.285156v336.566406c0 23.242188 20.027344 42.148438 44.257812 42.148438h277.484376c24.230468 0 44.257812-18.90625 44.257812-42.148438v-336.566406c0-23.242187-20.027344-42.285156-44.257812-42.285156zm-217.742188-24h38.621094c2.742187-.003906 5.128906-1.859375 5.8125-4.511719 4.007812-15.597656 18.078125-26.5 34.183594-26.488281h.113281c16.550781 0 30.953125 11.046875 34.242187 26.261719.59375 2.761719 3.035156 4.734375 5.863282 4.738281h39.164062v58h-158zm250 402.851562c0 16.625-14.644531 30.148438-32.257812 30.148438h-277.484376c-17.613281 0-32.257812-13.523438-32.257812-30.148438v-336.566406c0-16.625 14.644531-30.285156 32.257812-30.285156h47.742188v27.699219c0 3.316406 2.324219 6.300781 5.640625 6.300781h170.71875c3.316406 0 5.640625-2.984375 5.640625-6.300781v-27.699219h47.742188c17.613281 0 32.257812 13.660156 32.257812 30.285156zm0 0"/><path d="m256.742188 415c3.316406 0 6-2.6875 6-6s-2.683594-6-6-6h-147.484376c-3.316406 0-6 2.6875-6 6s2.683594 6 6 6zm0 0"/><path d="m286.742188 429h-207.484376c-3.316406 0-6 2.6875-6 6s2.683594 6 6 6h207.484376c3.316406 0 6-2.6875 6-6s-2.683594-6-6-6zm0 0"/><path d="m297.671875 231.285156-20.457031-1.929687c-2.191406-8.625-5.546875-16.914063-9.976563-24.636719l12.988281-15.78125c1.960938-2.382812 1.792969-5.867188-.386718-8.050781l-23.730469-23.734375c-2.183594-2.183594-5.671875-2.351563-8.054687-.386719l-15.988282 13.171875c-7.707031-4.46875-16-7.847656-24.640625-10.039062l-1.925781-20.46875c-.296875-3.046876-2.875-5.359376-5.9375-5.328126l-33.261719-.101562h-.039062c-3.074219-.050781-5.671875 2.269531-5.972657 5.328125l-1.929687 20.457031c-8.625 2.191406-16.914063 5.546875-24.632813 9.972656l-15.992187-13.191406c-2.382813-1.964844-5.871094-1.800781-8.054687.382813l-23.734376 23.730469c-2.183593 2.183593-2.351562 5.667968-.386718 8.054687l13.171875 15.984375c-4.472657 7.710938-7.851563 16.003906-10.042969 24.644531l-20.355469 1.921875c-3.0625.296875-5.382812 2.898438-5.332031 5.972656v33.484376c-.050781 3.074218 2.269531 5.671874 5.328125 5.972656l20.457031 1.929687c2.191406 8.625 5.546875 16.910157 9.972656 24.632813l-13.191406 15.992187c-1.964844 2.382813-1.800781 5.867188.382813 8.054688l23.730469 23.734375c2.183593 2.183594 5.667968 2.351562 8.054687.386718l15.984375-13.171874c7.710938 4.472656 16.003906 7.851562 24.644531 10.042968l1.921875 20.355469c.300782 3.058594 2.898438 5.378906 5.972656 5.328125h33.484376c3.074218.050781 5.671874-2.269531 5.972656-5.328125l1.929687-20.457031c8.625-2.191406 16.910157-5.546875 24.632813-9.972656l15.992187 13.191406c2.382813 1.964844 5.867188 1.800781 8.054688-.378906l23.734375-23.730469c2.1875-2.1875 2.355468-5.675781.386718-8.058594l-13.171874-15.984375c4.472656-7.710938 7.851562-16.003906 10.042968-24.644531l20.355469-1.921875c3.058594-.300782 5.378906-2.898438 5.328125-5.972656v-33.484376c.050781-3.074218-2.269531-5.671874-5.328125-5.972656zm-6.671875 33.992188-19.246094 1.820312c-2.625.253906-4.769531 2.210938-5.265625 4.800782-2.066406 10.191406-6.011719 19.90625-11.636719 28.652343-1.410156 2.199219-1.234374 5.054688.429688 7.066407l12.433594 15.078124-16.023438 16.027344-15.078125-12.429687c-2.015625-1.660157-4.871093-1.828125-7.066406-.410157-8.796875 5.59375-18.535156 9.550782-28.738281 11.679688-2.542969.503906-4.457032 2.613281-4.710938 5.191406l-1.820312 19.246094h-22.554688l-1.820312-19.246094c-.253906-2.625-2.210938-4.769531-4.800782-5.265625-10.191406-2.066406-19.90625-6.011719-28.652343-11.636719-2.199219-1.410156-5.054688-1.234374-7.066407.429688l-15.078124 12.433594-16.027344-16.023438 12.429687-15.078125c1.660157-2.015625 1.824219-4.871093.410157-7.066406-5.59375-8.796875-9.550782-18.535156-11.679688-28.738281-.503906-2.542969-2.613281-4.457032-5.191406-4.710938l-19.246094-1.820312v-22.554688l19.246094-1.820312c2.625-.253906 4.769531-2.210938 5.265625-4.800782 2.066406-10.191406 6.011719-19.90625 11.636719-28.652343 1.410156-2.199219 1.234374-5.054688-.429688-7.066407l-12.433594-15.078124 16.023438-16.027344 15.078125 12.425781c2.015625 1.660156 4.871093 1.828125 7.066406.414063 8.796875-5.597657 18.535156-9.554688 28.738281-11.683594 2.558594-.550782 4.464844-2.695313 4.710938-5.296875l1.816406-19.320313 22.34375.140625 1.824219 19.390625c.25 2.640625 2.199219 4.804688 4.800781 5.320313 10.191406 2.078125 19.90625 6.03125 28.652344 11.664062 2.195312 1.414063 5.050781 1.246094 7.066406-.414062l15.078125-12.425781 16.03125 16.03125-12.222656 14.867187c-1.65625 2.015625-1.820313 4.867187-.410157 7.058594 5.597657 8.800781 9.554688 18.535156 11.683594 28.742187.5 2.542969 2.609375 4.457032 5.191406 4.710938l19.242188 1.820312zm0 0"/><path d="m129.6875 200.6875c-29.441406 29.445312-29.445312 77.179688 0 106.625s77.179688 29.445312 106.625 0 29.441406-77.179688 0-106.625c-29.460938-29.398438-77.164062-29.398438-106.625 0zm98.140625 98.140625c-24.753906 24.726563-64.863281 24.714844-89.597656-.027344-24.738281-24.746093-24.738281-64.855469 0-89.601562 24.734375-24.742188 64.84375-24.753907 89.597656-.027344 24.71875 24.773437 24.71875 64.882813 0 89.65625zm0 0"/><path d="m205.09375 223.601562c3.089844 1.1875 6.5625-.351562 7.753906-3.445312s-.351562-6.566406-3.445312-7.757812c-11.378906-4.390626-24.0625-3.925782-35.085938 1.292968-11.027344 5.214844-19.433594 14.722656-23.253906 26.308594h-8.0625c-3.3125 0-6 2.6875-6 6s2.6875 6 6 6h5.855469c-.117188 2.671875.003906 5.347656.363281 8h-6.21875c-3.3125 0-6 2.6875-6 6s2.6875 6 6 6h9.601562c9.609376 21.753906 34.601563 32.140625 56.796876 23.601562 3.09375-1.191406 4.636718-4.664062 3.445312-7.757812s-4.664062-4.632812-7.753906-3.445312c-14.265625 5.496093-30.429688.339843-38.878906-12.398438h29.789062c3.3125 0 6-2.6875 6-6s-2.6875-6-6-6h-34.640625c-.488281-2.636719-.652344-5.324219-.488281-8h39.128906c3.3125 0 6-2.6875 6-6s-2.6875-6-6-6h-36.046875c7.316406-15.382812 25.246094-22.53125 41.140625-16.398438zm0 0"/></svg>