<svg id="Layer_1" height="512" viewBox="0 0 512 512" width="512" xmlns="http://www.w3.org/2000/svg" data-name="Layer 1"><path d="m248.33 141.956-106.91 39.3a6 6 0 0 0 -3.929 5.575 5.929 5.929 0 0 0 3.741 5.649l30.768 12.003v77.567a6.075 6.075 0 0 0 3.987 5.622 213.045 213.045 0 0 0 74.372 13.4 213.943 213.943 0 0 0 74.534-13.4 6.191 6.191 0 0 0 4.107-5.622v-77.567l22-8.824v27.987a19.65 19.65 0 0 0 -12.775 18.033 19.046 19.046 0 1 0 38.092 0 18.759 18.759 0 0 0 -13.317-18.132v-35.8c0-.179.143-.356.128-.531.007-.131.105-.259.1-.392a5.964 5.964 0 0 0 -3.891-5.575l-106.89-39.3a5.957 5.957 0 0 0 -4.117.007zm-64.33 135.881v-21.966a214.4 214.4 0 0 0 133 0v21.966a202.444 202.444 0 0 1 -133 0zm133-34.628a202.463 202.463 0 0 1 -133 0v-34.056l64.142 24.931a6.225 6.225 0 0 0 2.217.408 7.126 7.126 0 0 0 2.379-.408l64.262-24.931zm40.445 5.535a7.065 7.065 0 1 1 7.065-7.065 7.073 7.073 0 0 1 -7.065 7.065zm-36.545-54.126a5.883 5.883 0 0 0 -.8.309l-69.7 27.127-69.7-27.127a5.869 5.869 0 0 0 -.8-.309l-19.459-7.573 89.959-33.065 89.954 33.065z"/><path d="m256 11.677c-115.759 0-209.935 90.152-209.935 200.964 0 35.568 10.986 72.853 32.654 110.82 17.175 30.094 41.079 60.7 71.049 90.982 50.865 51.388 102.485 84.606 103 84.936a6 6 0 0 0 6.464 0c.515-.33 52.135-33.548 103-84.936 29.97-30.278 53.874-60.888 71.049-90.982 21.668-37.967 32.654-75.252 32.654-110.82 0-110.812-94.176-200.964-209.935-200.964zm166.92 305.723c-16.628 29.162-39.86 58.914-69.051 88.429a677.954 677.954 0 0 1 -97.869 81.303 677.954 677.954 0 0 1 -97.869-81.3c-29.191-29.513-52.423-59.265-69.051-88.432-20.58-36.088-31.015-71.337-31.015-104.759 0-104.2 88.793-188.964 197.935-188.964s197.935 84.768 197.935 188.964c0 33.422-10.435 68.671-31.015 104.759z"/><path d="m256 63.121c-85.408 0-154.893 69.484-154.893 154.893s69.485 154.893 154.893 154.893 154.893-69.485 154.893-154.893-69.485-154.893-154.893-154.893zm0 297.786c-78.792 0-142.893-64.1-142.893-142.893s64.101-142.893 142.893-142.893 142.893 64.1 142.893 142.893-64.101 142.893-142.893 142.893z"/></svg>