<?xml version="1.0" encoding="iso-8859-1"?>
<!-- Generator: Adobe Illustrator 19.0.0, SVG Export Plug-In . SVG Version: 6.00 Build 0)  -->
<svg version="1.1" id="Capa_1" xmlns="http://www.w3.org/2000/svg" xmlns:xlink="http://www.w3.org/1999/xlink" x="0px" y="0px"
	 viewBox="0 0 512 512" style="enable-background:new 0 0 512 512;" xml:space="preserve">
<g>
	<g>
		<path d="M481.371,468.753L336.095,205.653V105.651h23.22c9.619,0,17.415-7.796,17.415-17.415V17.415
			C376.73,7.796,368.934,0,359.315,0H152.657c-9.619,0-17.415,7.796-17.415,17.415v70.821c0,9.619,7.796,17.415,17.415,17.415h23.22
			v100.002l-145.276,263.1c-0.116,0.203-0.221,0.412-0.331,0.621c-4.632,9.265-4.168,20.016,1.236,28.77
			C36.865,506.816,46.136,512,56.294,512h399.383c10.397,0,19.772-5.306,25.083-14.187
			C486.038,488.977,486.305,477.901,481.371,468.753z M65.739,477.17L208.53,218.558c1.428-2.577,2.171-5.474,2.171-8.417V88.236
			c0-9.619-7.796-17.415-17.415-17.415h-23.22V34.83h171.828v35.991h-23.22c-9.619,0-17.415,7.796-17.415,17.415v121.905
			c0,2.943,0.749,5.84,2.171,8.417L446.233,477.17H65.739z"/>
	</g>
</g>
<g>
	<g>
		<path d="M238.571,108.553h-40.635c-9.619,0-17.415,7.796-17.415,17.415s7.796,17.415,17.415,17.415h40.635
			c9.619,0,17.415-7.796,17.415-17.415S248.19,108.553,238.571,108.553z"/>
	</g>
</g>
<g>
	<g>
		<path d="M238.571,167.184h-40.635c-9.619,0-17.415,7.796-17.415,17.415s7.796,17.415,17.415,17.415h40.635
			c9.619,0,17.415-7.796,17.415-17.415C255.986,174.98,248.19,167.184,238.571,167.184z"/>
	</g>
</g>
<g>
	<g>
		<path d="M238.571,225.234h-55.728c-9.619,0-17.415,7.796-17.415,17.415c0,9.619,7.796,17.415,17.415,17.415h55.728
			c9.619,0,17.415-7.796,17.415-17.415C255.986,233.03,248.19,225.234,238.571,225.234z"/>
	</g>
</g>
<g>
	<g>
		<path d="M238.571,283.283h-89.977c-9.619,0-17.415,7.796-17.415,17.415s7.796,17.415,17.415,17.415h89.977
			c9.619,0,17.415-7.796,17.415-17.415S248.19,283.283,238.571,283.283z"/>
	</g>
</g>
<g>
	<g>
		<rect x="102.154" y="358.748" width="307.664" height="34.83"/>
	</g>
</g>
<g>
</g>
<g>
</g>
<g>
</g>
<g>
</g>
<g>
</g>
<g>
</g>
<g>
</g>
<g>
</g>
<g>
</g>
<g>
</g>
<g>
</g>
<g>
</g>
<g>
</g>
<g>
</g>
<g>
</g>
</svg>
