<svg height="498pt" viewBox="-57 0 498 498.70846" width="498pt" xmlns="http://www.w3.org/2000/svg"><path d="m361.097656 436.542969v-50.292969c-.113281-3.359375-2.882812-6.015625-6.242187-5.992188h-47.757813v-18.335937c14.660156-2.722656 25.371094-15.398437 25.613282-30.308594.242187-14.910156-10.050782-27.925781-24.613282-31.128906v-23.8125c.003906-3.40625-2.65625-6.222656-6.058594-6.414063h-92.941406v-24.148437c66-1.414063 120.246094-56.058594 120.246094-123.039063 0-67.859374-55.300781-123.070312-123.160156-123.070312s-122.9375 55.210938-122.9375 123.070312c-.042969 64.410157 49.617187 117.941407 113.851562 122.71875v24.46875h-93.648437c-3.460938.167969-6.222657 2.953126-6.351563 6.414063v33.8125c-14.308594 3.214844-24.476562 15.921875-24.476562 30.585937 0 14.660157 10.167968 27.367188 24.476562 30.582032v18.605468h-65.761718c-3.359376-.023437-6.125 2.632813-6.238282 5.992188v40.292969c-15.828125 3.453125-26.441406 18.363281-24.523437 34.445312 1.921875 16.085938 15.746093 28.082031 31.9375 27.710938 16.195312-.367188 29.460937-12.976563 30.644531-29.132813 1.1875-16.15625-10.09375-30.566406-26.058594-33.296875v-34.011719h132v14.011719c-15.863281 2.730469-27.058594 17.058594-25.871094 33.109375 1.1875 16.050782 14.371094 28.574219 30.460938 28.941406 16.089844.367188 29.828125-11.546874 31.746094-27.527343 1.914062-15.976563-8.617188-30.800781-24.335938-34.25v-20.292969c-.113281-3.359375-2.882812-6.015625-6.242187-5.992188h-65.757813v-18.191406c15.128906-2.503906 26.230469-15.585937 26.230469-30.925781s-11.101563-28.421875-26.230469-30.925781v-27.957032h88v8.082032c-15.882812 2.996094-26.878906 17.578125-25.394531 33.671875 1.488281 16.089843 14.96875 28.414062 31.128906 28.449219 16.152344.0625 29.710938-12.148438 31.332031-28.21875 1.617188-16.066407-9.230468-30.742188-25.066406-33.902344v-8.082032h87v17.957032c-14.875 2.535156-25.835937 15.308594-26.078125 30.394531-.246093 15.085937 10.292969 28.210937 25.078125 31.226563v18.421874h-43.761718c-3.359376-.023437-6.125 2.632813-6.238282 5.992188v11.292969c-15.828125 3.453125-26.441406 18.363281-24.523437 34.445312 1.921875 16.085938 15.746093 28.082031 31.9375 27.710938 16.195312-.367188 29.460937-12.976563 30.644531-29.132813 1.1875-16.15625-10.09375-30.566406-26.058594-33.296875v-5.011719h92v44.011719c-15.863281 2.730469-27.058594 17.058594-25.871094 33.109375 1.1875 16.050782 14.371094 28.574219 30.460938 28.941406 16.089844.367188 29.828125-11.546874 31.746094-27.527343 1.914062-15.976563-8.617188-30.800781-24.335938-34.25zm-181.070312-288c-6.988282-6.890625-10.925782-16.296875-10.929688-26.113281v-3.21875c24.53125-4.777344 45.90625-19.679688 58.871094-41.042969 1.617188.582031 3.15625 1.359375 4.585938 2.308593 6.570312 4.375 10.472656 11.789063 10.359374 19.683594l.183594 4.214844v17.519531c0 20.375-16.777344 37.363281-36.851562 37.363281h-.28125c-9.722656.003907-19.050782-3.851562-25.9375-10.71875zm75.070312-44.078125-.164062-4.125c.238281-11.957032-5.636719-23.210938-15.578125-29.855469-4.011719-2.703125-8.582031-4.457031-13.371094-5.136719-2.476563-.34375-4.90625.875-6.113281 3.0625-19.195313 35.132813-53.109375 39.195313-55.914063 39.472656-3.792969.15625-6.808593 3.25-6.859375 7.050782v7.5c.027344 2.382812.230469 4.761718.605469 7.113281-4.4375-9.070313-6.941406-18.964844-7.359375-29.054687-.410156-9.25 1.523438-18.449219 5.617188-26.753907 6.9375-13.925781 20.097656-24.558593 36.085937-29.179687 8.960937-2.773438 18.648437-1.976563 27.039063 2.226562 7.902343 4.117188 14.09375 10.898438 17.46875 19.144532l.222656.664062c.984375 2.949219 4.054687 4.65625 7.078125 3.941406 1.511719-.355468 9.300781-1.511718 14.363281 11.023438 5.085938 12.589844 4.796875 26.898437-.8125 40.289062-.882812 2.269532-1.878906 4.492188-2.984375 6.660156.371094-2.1875.597656-4.398437.675781-6.613281zm-64 73.125v-8.917969c4.761719 1.742187 9.796875 2.617187 14.867188 2.585937h.367187c5.03125-.089843 10.015625-.984374 14.765625-2.644531v9.65625c0 8.285157-6.71875 15-15 15-8.285156 0-15-6.714843-15-15zm-11.882812 5.667968c2.542968 12.757813 13.742187 21.941407 26.75 21.941407 13.007812 0 24.203125-9.183594 26.75-21.941407h12.917968c15.148438.097657 27.835938 11.503907 29.539063 26.558594-40.378906 32.339844-97.796875 32.324219-138.15625-.042968 1.703125-15.046876 14.398437-26.4375 29.542969-26.515626zm-84.191406-60.1875c-.113282-50.160156 33.414062-94.175781 81.804687-107.394531s99.636719 7.640625 125.042969 50.894531c25.402344 43.253907 18.664062 98.167969-16.445313 133.996094-5.492187-17.371094-21.570312-29.214844-39.792969-29.308594h-12.535156v-.597656c4.160156-3.140625 8.066406-6.609375 11.679688-10.375 10.800781-10.789062 18.785156-22.15625 23.660156-33.796875 6.839844-16.328125 7.167969-33.875.894531-49.421875-4.742187-11.746094-13.46875-18.671875-23.109375-18.785156-10.265625-21.496094-34.722656-32.238281-57.5-25.253906-19.199218 5.550781-35.050781 18.4375-43.484375 35.355468-4.921875 10.136719-7.207031 21.347657-6.636719 32.601563 1.167969 28.332031 16.5 54.699219 40.5 68.253906v2.019531h-12.542968c-18.21875.09375-34.296875 11.9375-39.789063 29.308594-20.355469-20.652344-31.761719-48.492187-31.746093-77.496094zm-43.628907 344.09375c0 10.691407-8.664062 19.355469-19.351562 19.355469s-19.351563-8.664062-19.351563-19.355469c0-10.6875 8.664063-19.351562 19.351563-19.351562 10.683593.011719 19.339843 8.671875 19.351562 19.351562zm142.113281-20c0 10.691407-8.664062 19.355469-19.351562 19.355469s-19.351562-8.664062-19.351562-19.355469c0-10.6875 8.664062-19.351562 19.351562-19.351562 10.679688.015625 19.335938 8.671875 19.347656 19.351562zm-70-106.054687c0 10.6875-8.664062 19.351563-19.347656 19.355469-10.6875 0-19.355468-8.664063-19.355468-19.351563-.003907-10.6875 8.660156-19.351562 19.347656-19.355469 10.683594.011719 19.339844 8.667969 19.351562 19.351563zm98.59375-20c0 10.6875-8.664062 19.351563-19.351562 19.355469-10.6875 0-19.351562-8.664063-19.355469-19.351563 0-10.6875 8.664063-19.351562 19.351563-19.355469 10.679687.011719 19.339844 8.667969 19.351562 19.351563zm59.886719 10c-.003906-10.6875 8.660157-19.355469 19.351563-19.355469 10.6875 0 19.355468 8.664063 19.351562 19.351563 0 10.691406-8.664062 19.355469-19.355468 19.355469-10.679688-.015626-19.339844-8.667969-19.351563-19.351563zm-10.59375 97.054687c0 10.691407-8.664062 19.355469-19.351562 19.355469s-19.351563-8.664062-19.351563-19.355469c0-10.6875 8.664063-19.351562 19.351563-19.351562 10.683593.011719 19.339843 8.671875 19.351562 19.351562zm82.761719 58.355469c-10.6875 0-19.351562-8.664062-19.351562-19.355469 0-10.6875 8.664062-19.351562 19.351562-19.351562s19.351562 8.664062 19.351562 19.351562c-.011718 10.6875-8.671874 19.34375-19.355468 19.355469zm0 0"/></svg>