<?xml version="1.0" encoding="iso-8859-1"?>
<!-- Generator: Adobe Illustrator 19.0.0, SVG Export Plug-In . SVG Version: 6.00 Build 0)  -->
<svg version="1.1" id="Capa_1" xmlns="http://www.w3.org/2000/svg" xmlns:xlink="http://www.w3.org/1999/xlink" x="0px" y="0px"
	 viewBox="0 0 512.001 512.001" style="enable-background:new 0 0 512.001 512.001;" xml:space="preserve">
<g>
	<g>
		<rect x="364.936" y="119.285" width="109.481" height="32.681"/>
	</g>
</g>
<g>
	<g>
		<path d="M253.277,351.864H108.391c-9.025,0-16.34,7.315-16.34,16.34v92.051h32.681v-75.711h112.204v75.711h32.681v-92.051
			C269.617,359.179,262.302,351.864,253.277,351.864z"/>
	</g>
</g>
<g>
	<g>
		<path d="M511.967,459.215L485.823,50.705c-0.55-8.606-7.691-15.3-16.308-15.3h-99.132c-8.611,0-15.747,6.683-16.297,15.273
			l-13.029,199.331h-82.873v-63.188c0-6.106-3.404-11.7-8.824-14.51c-5.42-2.805-11.945-2.358-16.94,1.155l-86.991,61.358v-48.003
			c0-6.106-3.399-11.7-8.818-14.51c-5.425-2.805-11.95-2.358-16.94,1.155L6.923,252.994C2.582,256.055,0,261.033,0,266.349v193.906
			c0,9.025,7.315,16.34,16.34,16.34H495.66c4.515,0,8.829-1.868,11.918-5.158C510.666,468.148,512.256,463.72,511.967,459.215z
			 M328.383,443.915H32.681V274.819l80.068-56.467v48.003c0,6.1,3.399,11.694,8.818,14.505c5.43,2.816,11.956,2.364,16.94-1.155
			l86.991-61.358v48.003c0,9.025,7.315,16.34,16.34,16.34h97.084L328.383,443.915z M361.134,443.915l24.56-375.83h68.494
			l24.053,375.83H361.134z"/>
	</g>
</g>
<g>
</g>
<g>
</g>
<g>
</g>
<g>
</g>
<g>
</g>
<g>
</g>
<g>
</g>
<g>
</g>
<g>
</g>
<g>
</g>
<g>
</g>
<g>
</g>
<g>
</g>
<g>
</g>
<g>
</g>
</svg>
