<svg height="499pt" viewBox="-15 0 499 499.37941" width="499pt" xmlns="http://www.w3.org/2000/svg"><path d="m463.890625 369.304688-20.851563-5.234376c-1.035156-9.152343-3.320312-18.121093-6.796874-26.648437l15.949218-14.164063c2.320313-2.058593 2.683594-5.554687.839844-8.050781l-20.476562-27.707031c-1.832032-2.484375-5.253907-3.167969-7.902344-1.582031l-18.300782 10.945312c-7.15625-5.871093-15.097656-10.714843-23.59375-14.382812l1.179688-21.363281c.167969-3.085938-2.035156-5.796876-5.09375-6.261719l-33-5c-3.054688-.460938-5.957031 1.46875-6.714844 4.460937l-5.257812 20.753906c-9.210938.988282-18.242188 3.261719-26.828125 6.753907l-14.199219-15.867188c-2.058594-2.300781-5.527344-2.664062-8.019531-.835937l-27.816407 20.394531c-2.503906 1.835937-3.191406 5.277344-1.589843 7.933594l2.945312 4.8125c-3.066406-.375-6.152343-.574219-9.242187-.601563h-32.929688v-11.855468c9.285156-7.285157 18.144532-15.097657 26.539063-23.398438 22.253906-22.234375 38.597656-45.59375 48.582031-69.433594 13.796875-32.933594 14.4375-68.292968 1.816406-99.570312-4.445312-11.011719-11.148437-20.5-18.875-26.699219-8.433594-6.773437-18.03125-9.742187-28.027344-8.726563-9.640624-21.320312-25.097656-37.847656-44.84375-47.898437-21.429687-10.898437-46.617187-13.042969-70.933593-6.015625-38.871094 11.230469-70.933594 37.265625-87.960938 71.429688-10.035156 20.421874-14.753906 43.046874-13.71875 65.777343 2.441407 59.101563 35.421875 113.96875 85.421875 140.921875v15.476563h-32.558594c-45.039062 0-81.441406 36.789062-81.441406 81.828125v71.792968c0 3.3125 2.445313 6.378907 5.761719 6.378907h245.636719l3.238281 4.191406c1.855469 2.460937 5.28125 3.105469 7.90625 1.488281l18.34375-11.019531c7.15625 5.847656 15.078125 10.6875 23.550781 14.382813l-1.175781 21.351562c-.171875 3.085938 2.035156 5.796875 5.089844 6.257812l33 4.992188c3.054687.457031 5.953125-1.472656 6.714843-4.460938l5.253907-20.757812c9.203125-1.03125 18.21875-3.3125 26.800781-6.785156l14.238281 15.898437c2.058594 2.300781 5.527344 2.664063 8.019531.839844l27.816407-20.398437c2.503906-1.832032 3.191406-5.277344 1.589843-7.933594l-10.972656-18.199219c5.882813-7.117187 10.738282-15.019531 14.425782-23.484375l21.476562 1.175781c3.082031.15625 5.785156-2.039062 6.257812-5.085937l5.203126-34.101563c.460937-3.058593-1.476563-5.964843-4.476563-6.714843zm-337.699219-65.5v-28.628907c12.269532 5.453125 25.550782 8.25 38.976563 8.210938h.710937c13.214844-.117188 26.261719-2.980469 38.3125-8.402344v30.261719c0 21.539062-17.460937 39-39 39-21.539062 0-39-17.460938-39-39zm39.386719-32.421876c-.214844 0-.347656 0-.5625 0-46.699219.03125-84.628906-37.714843-84.824219-84.414062v-12.5c16-2.167969 86.175782-15.800781 128.34375-89.140625 5.910156 1.382813 11.519532 3.824219 16.5625 7.203125 15.570313 10.355469 24.601563 28.066406 24.320313 47.378906l-.226563 8.828125v37.097657c0 46.832031-37.421875 85.207031-83.613281 85.546874zm-124.886719-130.601562c-.929687-20.71875 3.382813-41.332031 12.539063-59.9375 15.535156-31.164062 44.894531-54.949219 80.550781-65.253906 21.378906-6.175782 43.453125-4.335938 62.160156 5.183594 17.886719 9.101562 31.796875 24.367187 40.230469 44.152343l.558594 1.671875c.984375 2.945313 4.054687 4.652344 7.078125 3.9375 18.261718-4.335937 31.699218 11.289063 38.1875 27.355469 11.429687 28.324219 10.804687 60.445313-1.757813 90.441406-9.382812 22.394531-24.84375 44.457031-45.988281 65.582031-5.710938 5.859376-11.742188 11.398438-18.058594 16.597657v-2.015625c28.097656-18.089844 45.054688-49.238282 45-82.65625v-37.015625l.289063-8.738281c.339843-23.410157-10.710938-44.921876-29.695313-57.546876-7.597656-5.15625-16.269531-8.515624-25.359375-9.824218-2.464843-.34375-4.882812.878906-6.066406 3.066406-42.710937 78.171875-118.957031 86.617188-123.886719 87.082031-4.519531.089844-8.164062 3.714844-8.28125 8.234375v15.871094c.015625 25.742188 10.371094 50.394531 28.742188 68.425781 2.519531 2.460938 5.167968 4.785157 7.9375 6.964844-37.65625-27.089844-62.167969-72.765625-64.179688-121.578125zm-28.5 304.886719v-66.171875c0-38.425782 31.019532-69.828125 69.441406-69.828125h32.613282c2.367187 26.320312 24.429687 46.484375 50.855468 46.484375 26.425782 0 48.484376-20.164063 50.851563-46.484375h33.164063c5.769531.023437 11.511718.757812 17.097656 2.191406-5.777344 7.066406-10.574219 14.882813-14.253906 23.238281l-21.480469-1.15625c-3.085938-.164062-5.789063 2.039063-6.257813 5.09375l-5.199218 34.101563c-.472657 3.058593 1.460937 5.976562 4.464843 6.734375l20.847657 5.234375c.996093 9.167969 3.273437 18.148437 6.765624 26.679687l-15.910156 14.125c-2.324218 2.140625-2.6875 5.679688-.84375 8.242188l8.375 11.515625zm439.921875-42.734375-20.296875-1.109375c-2.605468-.140625-5.003906 1.410156-5.9375 3.84375-3.832031 10.011719-9.496094 19.222656-16.707031 27.15625-1.792969 1.960937-2.082031 4.871093-.710937 7.148437l10.402343 17.242188-19.007812 13.933594-13.46875-15.042969c-1.742188-1.945313-4.539063-2.539063-6.921875-1.472657-9.804688 4.464844-20.339844 7.128907-31.089844 7.855469-2.605469.160157-4.808594 1.988281-5.449219 4.515625l-4.964843 19.625-22.226563-3.359375 1.109375-20.191406c.144531-2.613281-1.417969-5.015625-3.863281-5.941406-10.042969-3.875-19.304688-9.53125-27.339844-16.699219-1.957031-1.726562-4.804687-1.988281-7.042969-.648438l-17.355468 10.378907-13.980469-18.917969 15.074219-13.390625c1.984374-1.765625 2.574218-4.625 1.445312-7.03125-4.515625-9.710937-7.175781-20.179687-7.84375-30.871094-.164062-2.605469-1.996094-4.808593-4.527344-5.445312l-19.703125-4.945313 3.5625-23.320312 20.296875 1.109375c2.605469.148437 5.007813-1.410157 5.933594-3.847657 3.898438-10.015624 9.578125-19.238281 16.765625-27.222656 1.742187-1.964844 2.003906-4.832031.648437-7.082031l-10.394531-17.242187 19.007813-13.933594 13.46875 15.042968c1.761718 1.96875 4.605468 2.550782 7 1.4375 9.765625-4.503906 20.28125-7.15625 31.011718-7.820312 2.605469-.164062 4.804688-1.988281 5.445313-4.515625l4.964844-19.625 22.226562 3.367187-1.113281 20.191407c-.144531 2.609375 1.417969 5.011719 3.863281 5.941406 10.042969 3.808594 19.292969 9.453125 27.273438 16.644531 1.957031 1.773438 4.84375 2.0625 7.113281.703125l17.351562-10.378906 13.980469 18.921875-15.074219 13.386719c-1.960937 1.742187-2.5625 4.5625-1.484374 6.953125 4.480468 9.753906 7.152343 20.242187 7.886718 30.949218.164063 2.609376 1.996094 4.808594 4.53125 5.441407l19.699219 4.949219zm0 0"/><path d="m355.527344 300.085938c-41.261719-6.246094-79.9375 22.117187-86.210938 63.230468-2.992187 19.808594 2.015625 39.996094 13.917969 56.113282 11.90625 16.113281 29.730469 26.832031 49.546875 29.792968 41.25 6.277344 79.800781-22 86.207031-63.226562 2.992188-19.8125-2.015625-40-13.917969-56.113282-11.90625-16.117187-29.730468-26.835937-49.546874-29.796874zm51.601562 84.101562c-3.992187 25.417969-22.871094 45.953125-47.863281 52.0625-24.996094 6.113281-51.21875-3.390625-66.492187-24.101562-9.996094-13.492188-14.171876-30.425782-11.597657-47.019532 3.992188-25.421875 22.867188-45.957031 47.863281-52.066406 24.996094-6.113281 51.21875 3.390625 66.488282 24.101562 9.996094 13.492188 14.175781 30.425782 11.601562 47.019532zm0 0"/></svg>