<svg height="485pt" viewBox="0 -61 485.57414 485" width="485pt" xmlns="http://www.w3.org/2000/svg"><path d="m485.441406 262.863281-.527344-2.4375c-.417968-11.742187-2.917968-23.320312-7.375-34.191406l-41.761718-193.535156c-3.285156-15.585938-16.480469-27.121094-32.363282-28.300781l-51.992187-4.09375c-3.304687-.257813-6.195313 2.210937-6.457031 5.515624-.257813 3.304688 2.210937 6.195313 5.515625 6.453126l51.992187 4.09375c10.585938.785156 19.382813 8.476562 21.574219 18.867187l34.863281 161.558594c-24.777344-27.277344-62.539062-38.738281-98.296875-29.828125-35.753906 8.914062-63.722656 36.753906-72.800781 72.46875-27.777344-16.390625-62.269531-16.390625-90.050781 0-9.074219-35.714844-37.042969-63.554688-72.800781-72.46875-35.757813-8.910156-73.519532 2.550781-98.292969 29.828125l34.859375-161.5625c2.191406-10.390625 10.988281-18.078125 21.578125-18.863281l51.992187-4.09375c3.304688-.257813 5.769532-3.148438 5.511719-6.453126-.261719-3.300781-3.152344-5.7695308-6.453125-5.507812l-51.992188 4.089844c-15.886718 1.179687-29.078124 12.714844-32.363281 28.300781l-41.761719 193.53125c-4.460937 10.871094-6.957031 22.449219-7.378906 34.191406l-.523437 2.4375c-.289063 1.320313-.1171878 2.699219.484375 3.910157.960937 36.890624 22.136718 70.257812 55.101562 86.839843s72.378906 13.6875 102.570313-7.53125c30.191406-21.21875 46.261719-57.320312 41.828125-93.957031 25.804687-17.3125 59.519531-17.3125 85.328125 0-4.4375 36.636719 11.636719 72.738281 41.828125 93.957031 30.1875 21.21875 69.601562 24.113281 102.566406 7.53125 32.96875-16.582031 54.140625-49.949219 55.105469-86.839843.601562-1.210938.777343-2.589844.492187-3.910157zm-384.726562 89.398438c-48.648438-.054688-88.074219-39.480469-88.128906-88.128907 0-.734374.007812-1.46875.027343-2.203124l6.933594-32.125c17.191406-40.65625 61.8125-62.320313 104.398437-50.6875 42.582032 11.636718 69.988282 52.980468 64.117188 96.734374-5.867188 43.75-43.203125 76.410157-87.347656 76.410157zm284.144531 0c-44.144531 0-81.480469-32.660157-87.347656-76.414063-5.871094-43.75 21.535156-85.097656 64.121093-96.730468 42.582032-11.636719 87.207032 10.03125 104.398438 50.6875l6.933594 32.125c.015625.734374.027344 1.46875.027344 2.203124-.058594 48.648438-39.484376 88.070313-88.132813 88.125zm0 0"/><path d="m128.429688 221.222656c3.09375 1.191406 6.566406-.351562 7.757812-3.441406 1.191406-3.09375-.351562-6.566406-3.445312-7.757812-13.746094-5.289063-29.078126-4.601563-42.296876 1.902343-13.214843 6.503907-23.117187 18.230469-27.3125 32.347657h-9.34375c-3.316406 0-6 2.6875-6 6 0 3.316406 2.683594 6 6 6h7.273438c-.054688 1-.089844 2-.089844 3 0 1.679687.085938 3.347656.238282 5h-7.421876c-3.316406 0-6 2.6875-6 6 0 3.316406 2.683594 6 6 6h9.984376c4.636718 13.597656 14.609374 24.714843 27.621093 30.800781 13.011719 6.085937 27.941407 6.609375 41.347657 1.449219 3.089843-1.191407 4.632812-4.664063 3.441406-7.753907-1.191406-3.09375-4.664063-4.636719-7.753906-3.445312-20.105469 7.730469-42.757813-1.480469-51.757813-21.050781h41.117187c3.3125 0 6-2.683594 6-6 0-3.3125-2.6875-6-6-6h-44.5c-.207031-1.65625-.3125-3.328126-.316406-5 0-1.007813.050782-2.003907.121094-3h49.695312c3.3125 0 6-2.683594 6-6 0-3.3125-2.6875-6-6-6h-46.96875c8.25-20.804688 31.71875-31.089844 52.609376-23.050782zm0 0"/><path d="m415.429688 221.222656c3.09375 1.191406 6.566406-.351562 7.757812-3.441406 1.191406-3.09375-.351562-6.566406-3.445312-7.757812-13.742188-5.300782-29.074219-4.613282-42.289063 1.890624-13.214844 6.503907-23.109375 18.238282-27.292969 32.359376h-9.371094c-3.316406 0-6 2.6875-6 6 0 3.316406 2.683594 6 6 6h7.300782c-.15625 2.667968-.105469 5.34375.140625 8h-7.441407c-3.316406 0-6 2.6875-6 6 0 3.316406 2.683594 6 6 6h10.011719c4.632813 13.59375 14.597657 24.714843 27.605469 30.800781 13.007812 6.085937 27.933594 6.609375 41.332031 1.449219 3.09375-1.191407 4.636719-4.660157 3.445313-7.753907s-4.664063-4.636719-7.753906-3.445312c-20.101563 7.75-42.761719-1.46875-51.742188-21.050781h41.101562c3.3125 0 6-2.683594 6-6 0-3.3125-2.6875-6-6-6h-44.480468c-.324219-2.652344-.390625-5.332032-.195313-8h49.675781c3.3125 0 6-2.683594 6-6 0-3.3125-2.6875-6-6-6h-46.945312c8.226562-20.820313 31.703125-31.109376 52.585938-23.050782zm0 0"/></svg>