<?xml version="1.0" encoding="iso-8859-1"?>
<!-- Generator: Adobe Illustrator 19.0.0, SVG Export Plug-In . SVG Version: 6.00 Build 0)  -->
<svg version="1.1" id="Capa_1" xmlns="http://www.w3.org/2000/svg" xmlns:xlink="http://www.w3.org/1999/xlink" x="0px" y="0px"
	 viewBox="0 0 512 512" style="enable-background:new 0 0 512 512;" xml:space="preserve">
<g>
	<g>
		<rect x="390.442" y="61.619" width="104.753" height="33.61"/>
	</g>
</g>
<g>
	<g>
		<path d="M150.127,379.799H75.624c-9.282,0-16.805,7.523-16.805,16.805v97.47h33.611v-80.665h40.893v80.665h33.61v-97.47
			C166.932,387.322,159.409,379.799,150.127,379.799z"/>
	</g>
</g>
<g>
	<g>
		<path d="M288.49,379.799h-74.503c-9.282,0-16.805,7.523-16.805,16.805v97.47h33.61v-80.665h40.893v80.665h33.611v-97.47
			C305.295,387.322,297.772,379.799,288.49,379.799z"/>
	</g>
</g>
<g>
	<g>
		<path d="M495.195,1.12H390.442c-9.282,0-16.805,7.523-16.805,16.805v231.918h-40.893v-36.977c0-5.831-3.019-11.243-7.982-14.307
			c-4.963-3.059-11.164-3.327-16.368-0.711l-81.522,40.977v-25.958c0-5.96-3.154-11.472-8.296-14.492
			c-5.142-3.025-11.495-3.098-16.699-0.185l-71.355,39.828v-25.152c0-5.949-3.148-11.461-8.279-14.486
			c-5.131-3.014-11.472-3.098-16.682-0.213L8.649,251.95C3.311,254.913,0,260.537,0,266.643v227.431
			c0,9.282,7.523,16.805,16.805,16.805h478.39c9.288,0,16.805-7.523,16.805-16.805V17.926C512,8.644,504.477,1.12,495.195,1.12z
			 M373.637,477.269H33.61V276.542l63.3-35.129v25.236c0,5.966,3.159,11.478,8.296,14.492c5.137,3.014,11.489,3.087,16.699,0.179
			l71.355-39.828v24.592c0,5.831,3.025,11.248,7.982,14.301c4.963,3.064,11.159,3.316,16.368,0.711l81.522-40.977v26.524
			c0,9.282,7.523,16.805,16.805,16.805h57.698V477.269z M478.389,477.269h-71.142V34.731h71.142V477.269z"/>
	</g>
</g>
<g>
	<g>
		<rect x="390.442" y="113.155" width="104.753" height="33.611"/>
	</g>
</g>
<g>
</g>
<g>
</g>
<g>
</g>
<g>
</g>
<g>
</g>
<g>
</g>
<g>
</g>
<g>
</g>
<g>
</g>
<g>
</g>
<g>
</g>
<g>
</g>
<g>
</g>
<g>
</g>
<g>
</g>
</svg>
