<svg height="486pt" viewBox="-28 0 486 486.17894" width="486pt" xmlns="http://www.w3.org/2000/svg"><path d="m36.105469 486.179688 358.078125-.921876c19.832031-.085937 35.875-16.167968 35.90625-36v-310.109374c-.007813-19.90625-16.09375-36.066407-36-36.167969h-82.339844c.140625-2 .21875-4.230469.21875-6.402344-.164062-53.382813-43.484375-96.5703125-96.867188-96.578125-53.382812-.0078125-96.710937 43.175781-96.890624 96.558594 0 2.171875.078124 4.421875.21875 6.421875h-80.472657c-20.902343.023437-37.84375 16.960937-37.8671872 37.867187 0 1.054688.0429682 2.132813.1289062 3.132813h-.1289062v306.199219c.0234372 19.878906 16.1367182 35.984374 36.0156252 36zm381.984375-101.199219h-88.632813l-39.957031-58.5 39.957031-58.5h88.632813zm-24-270c13.28125.09375 23.996094 10.886719 24 24.167969v36.929687c-6.597656-5.898437-15.148438-9.140625-24-9.097656h-112.234375c14.652343-13.945313 24.566406-32.128907 28.351562-52zm-179-103.195313c37.28125.023438 70.1875 24.359375 81.132812 59.996094 10.949219 35.632812-2.617187 74.246094-33.453125 95.199219h-95.359375c-30.835937-20.957031-44.402344-59.566407-33.453125-95.199219 10.949219-35.636719 43.851563-59.96875 81.132813-59.996094zm-177.132813 103.195313h82.015625c3.78125 19.871093 13.695313 38.054687 28.347656 52h-110.363281c-14.359375 0-26-11.640625-26-26s11.640625-26 26-26zm-25.867187 53.667969c6.992187 6.609374 16.246094 10.304687 25.867187 10.332031h356.132813c13.230468-.03125 23.976562 10.675781 24 23.90625v53.09375h-91.789063c-2.007812.089843-3.847656 1.144531-4.941406 2.832031l-44.085937 64.199219c-1.410157 2.070312-1.410157 4.789062 0 6.859375l44.085937 64.300781c1.097656 1.679687 2.9375 2.726563 4.941406 2.808594h91.789063v52.273437c-.019532 13.222656-10.714844 23.945313-23.9375 24l-358.0625.925782c-13.25-.015626-23.984375-10.753907-24-24zm0 0"/><path d="m362.546875 354.652344c15.324219 0 27.75-12.421875 27.75-27.75 0-15.324219-12.425781-27.75-27.75-27.75-15.328125 0-27.75 12.425781-27.75 27.75.015625 15.320312 12.429687 27.734375 27.75 27.75zm0-43.5c8.699219 0 15.75 7.054687 15.75 15.75 0 8.699218-7.050781 15.75-15.75 15.75s-15.75-7.050782-15.75-15.75c.007813-8.691406 7.054687-15.738282 15.75-15.75zm0 0"/><path d="m156.089844 109.980469c0 3.3125 2.6875 6 6 6h11.464844c10.433593 24.464843 38.359374 36.28125 63.183593 26.730469 3.09375-1.191407 4.636719-4.664063 3.445313-7.753907-1.191406-3.09375-4.664063-4.636719-7.757813-3.445312-16.902343 6.492187-36.03125-.046875-45.417969-15.53125h35.082032c3.3125 0 6-2.6875 6-6 0-3.316407-2.6875-6-6-6h-39.742188c-.472656-2.410157-.714844-4.863281-.710937-7.320313 0-.898437.039062-1.792968.105469-2.679687h44.347656c3.3125 0 6-2.6875 6-6 0-3.316407-2.6875-6-6-6h-41.460938c7.921875-18.480469 29.035156-27.386719 47.800782-20.167969 3.09375 1.191406 6.566406-.351562 7.757812-3.445312s-.351562-6.566407-3.445312-7.757813c-12.742188-4.902344-26.945313-4.3125-39.238282 1.628906-12.292968 5.945313-21.578125 16.707031-25.652344 29.742188h-9.761718c-3.3125 0-6 2.683593-6 6 0 3.3125 2.6875 6 6 6h7.621094c-.046876.886719-.074219 1.78125-.074219 2.679687 0 2.449219.175781 4.894532.535156 7.320313h-8.082031c-3.3125 0-6 2.683593-6 6zm0 0"/></svg>