<?xml version="1.0"?>
<svg xmlns="http://www.w3.org/2000/svg" id="Layer_1" data-name="Layer 1" viewBox="0 0 512 512" width="512" height="512"><title>Printer</title><path d="M454.95,172H370V116.867a6.165,6.165,0,0,0-1.836-4.157l-50.952-52.9A6.149,6.149,0,0,0,312.805,58H148.324A6.231,6.231,0,0,0,142,63.935V172H57.05A26.147,26.147,0,0,0,31,198.088v170.1A25.912,25.912,0,0,0,57.05,394H107v54.065A5.86,5.86,0,0,0,112.9,454H399.1a5.86,5.86,0,0,0,5.9-5.935V394h49.95A25.912,25.912,0,0,0,481,368.188v-170.1A26.147,26.147,0,0,0,454.95,172ZM319,78.837,349.587,111H319ZM154,70H307v46.867A5.952,5.952,0,0,0,312.805,123H358v49H154ZM393,442H119V335H393Zm76-73.812A13.9,13.9,0,0,1,454.95,382H405V328.929A5.855,5.855,0,0,0,399.1,323H112.9a5.855,5.855,0,0,0-5.9,5.929V382H57.05A13.9,13.9,0,0,1,43,368.188v-170.1A14.134,14.134,0,0,1,57.05,184h397.9A14.134,14.134,0,0,1,469,198.088Z"/><path d="M210,231a6,6,0,0,0-6-6H92a6,6,0,0,0-6,6v50a6,6,0,0,0,6,6H204a6,6,0,0,0,6-6Zm-12,44H98V237H198Z"/></svg>
