<svg height="492pt" viewBox="0 0 492 492.00322" width="492pt" xmlns="http://www.w3.org/2000/svg"><path d="m486.578125 204.800781-47.90625-4.617187c-4.957031-20.59375-13.230469-40.246094-24.503906-58.183594l30.53125-36.867188c1.964843-2.371093 1.8125-5.847656-.351563-8.039062l-49.070312-49.699219c-2.1875-2.21875-5.703125-2.394531-8.101563-.40625l-36.90625 30.570313c-17.957031-11.207032-37.578125-19.488282-58.132812-24.539063l-4.617188-47.75c-.3125-3.046875-2.914062-5.3398435-5.972656-5.269531h-70.460937c-3.058594-.0703125-5.660157 2.222656-5.972657 5.269531l-4.613281 47.824219c-20.589844 4.945312-40.242188 13.207031-58.175781 24.464844l-36.867188-30.550782c-2.382812-1.976562-5.878906-1.816406-8.070312.371094l-49.699219 49.691406c-2.1875 2.191407-2.351562 5.683594-.378906 8.066407l30.566406 36.914062c-11.203125 17.953125-19.488281 37.578125-24.539062 58.132813l-47.910157 4.617187c-3.074219.296875-5.42187475 2.882813-5.425781 5.972657v70.457031c0 3.089843 2.347656 5.675781 5.425781 5.972656l47.90625 4.617187c4.957031 20.59375 13.230469 40.246094 24.503907 58.179688l-30.535157 36.867188c-1.972656 2.382812-1.8125 5.878906.378907 8.070312l49.699218 49.699219c2.191406 2.1875 5.683594 2.351562 8.070313.378906l36.910156-30.566406c17.960937 11.203125 37.585937 19.488281 58.140625 24.535156l4.621094 47.75c.308594 3.042969 2.90625 5.335937 5.964844 5.265625h70.460937c3.058594.074219 5.660156-2.21875 5.972656-5.265625l3.585938-37.121094c21.433593 23.925781 52.039062 37.59375 84.160156 37.589844 62.359375 0 113.09375-50.597656 113.09375-112.8125.003906-31.90625-13.550781-62.3125-37.28125-83.640625l35.523437-3.546875c3.066407-.308594 5.398438-2.886719 5.398438-5.96875v-70.460937c0-3.089844-2.347656-5.675782-5.421875-5.972657zm-10.21875 169.613281c0 55.601563-45.351563 100.832032-101.09375 100.832032-33.28125.003906-64.433594-16.371094-83.304687-43.785156-.25-.5-.5625-.964844-.9375-1.378907-11.003907-16.476562-16.867188-35.851562-16.847657-55.667969 0-55.597656 45.347657-100.828124 101.089844-100.828124s101.09375 45.230468 101.09375 100.828124zm-87.074219-111.964843c-4.648437-.574219-9.332031-.863281-14.019531-.863281-19.792969-.058594-39.25 5.109374-56.410156 14.972656-7.988281-6.179688-17.800781-9.542969-27.902344-9.558594h-89.890625c-13.042969.042969-25.464844 5.5625-34.238281 15.214844-8.582031 9.613281-12.855469 22.324218-11.824219 35.167968v40.054688c-33.351562-27.398438-52.710938-68.273438-52.769531-111.4375 0-79.347656 64.644531-143.898438 143.992187-143.898438s143.949219 64.550782 143.949219 143.898438c.015625 5.496094-.28125 10.988281-.886719 16.449219zm-147.949218 40.160156h9.402343l7.4375 36.472656-12.054687 10.175781-11.265625-10.121093zm9-11.609375h-8.667969l-2.644531-12h13.960937zm-83.179688 25.484375c-.929688-9.574219 2.21875-19.097656 8.671875-26.230469 6.453125-7.132812 15.613281-11.21875 25.234375-11.253906h25.640625l3.75 16.28125c-.015625.066406-.039063.171875-.050781.234375l-7.910156 44.589844c-.441407 2.101562.265624 4.28125 1.863281 5.71875l17.636719 15.847656c2.226562 2 5.589843 2.054687 7.878906.125l15.207031-12.835937c-3.027344 13.101562-3.691406 26.632812-1.96875 39.964843-5.636719.648438-11.304687.976563-16.980469.976563-28.113281-.015625-55.613281-8.234375-79.128906-23.648438v-49.164062c0-.203125.175781-.402344.15625-.605469zm102.335938 18.015625-7.960938-39.125 3.769531-16.375h25.652344c5.992187.023438 11.875 1.640625 17.042969 4.683594-17.421875 12.917968-30.78125 30.550781-38.503906 50.816406zm210.507812-58.699219-42.753906 4.285157c-11.039063-7.253907-23.269532-12.507813-36.128906-15.523438.730468-6.160156 1.097656-12.359375 1.101562-18.5625 0-85.964844-69.9375-155.898438-155.898438-155.898438-85.964843 0-155.902343 69.9375-155.902343 155.898438s69.9375 155.902344 155.902343 155.902344c6.34375-.003906 12.679688-.386719 18.976563-1.152344 3 12.394531 8.109375 24.179688 15.101563 34.839844l-4.304688 44.410156h-59.558594l-4.507812-46.632812c-.253906-2.578126-2.160156-4.691407-4.703125-5.207032-22.136719-4.90625-43.203125-13.78125-62.179688-26.191406-2.203125-1.414062-5.070312-1.234375-7.082031.441406l-36.0625 29.867188-41.96875-41.96875 29.855469-36.054688c1.691406-2.039062 1.84375-4.949218.371093-7.152344-12.503906-18.898437-21.382812-39.957031-26.175781-62.105468-.554687-2.550782-2.691406-4.449219-5.289062-4.699219l-46.792969-4.515625v-59.558594l46.792969-4.511718c2.597656-.25 4.734375-2.148438 5.289062-4.699219 4.917969-22.140625 13.804688-43.207031 26.226563-62.183594 1.417968-2.199219 1.25-5.0625-.421875-7.078125l-29.855469-36.058594 41.96875-41.976562 36.054688 29.859375c2.042968 1.691406 4.953124 1.839843 7.15625.371093 18.898437-12.503906 39.960937-21.382812 62.109374-26.179687 2.53125-.480469 4.441407-2.570313 4.703126-5.132813l4.511718-46.632812h59.558594l4.511719 46.632812c.253906 2.582032 2.164062 4.695313 4.707031 5.210938 22.136719 4.90625 43.203125 13.78125 62.179688 26.191406 2.203124 1.414063 5.070312 1.234375 7.082031-.441406l36.027343-29.84375 41.394532 41.917969-29.878906 36.078125c-1.691407 2.042968-1.84375 4.949218-.371094 7.15625 12.503906 18.898437 21.382812 39.957031 26.175781 62.105468.554687 2.550782 2.691406 4.449219 5.289063 4.699219l46.789062 4.515625zm0 0"/><path d="m378 312.378906c-3.3125 0-6 2.6875-6 6v56.429688l-27.753906 27.566406c-2.371094 2.320312-2.414063 6.117188-.097656 8.488281 1.113281 1.125 2.628906 1.757813 4.207031 1.757813 1.582031 0 3.097656-.632813 4.210937-1.757813l29.5-29.328125c1.171875-1.105468 1.867188-2.628906 1.933594-4.242187v-58.914063c0-3.3125-2.683594-6-6-6zm0 0"/><path d="m272.046875 156.511719c2.414063-10.722657-1.964844-21.835938-11.046875-28.027344-9.085938-6.195313-21.027344-6.214844-30.128906-.046875-9.101563 6.164062-13.515625 17.265625-11.132813 27.996094-10.132812 7.457031-16.582031 18.898437-17.71875 31.425781-.179687 1.800781-.019531 14.035156-.019531 14.152344v17.050781c0 24.300781 19.699219 44 44 44s44-19.699219 44-44v-26.773438c.074219-14.109374-6.601562-27.402343-17.953125-35.777343zm-26.046875-20.71875c8.132812.011719 14.75 6.546875 14.871094 14.675781-4.773438-1.703125-9.804688-2.570312-14.871094-2.566406-5.0625-.003906-10.089844.851562-14.863281 2.535156.132812-8.117188 6.746093-14.632812 14.863281-14.644531zm0 115.660156c-8.546875-.023437-16.730469-3.457031-22.734375-9.539063-6.007813-6.078124-9.339844-14.304687-9.265625-22.851562v-11.265625c1.101562.175781 2.210938.265625 3.324219.265625 12.960937 0 23.792969-5.25 30.015625-13.5 6.222656 8.242188 16.910156 13.5 29.867187 13.5.265625.011719.53125-.003906.792969-.042969v11.042969c.078125 8.546875-3.253906 16.773438-9.261719 22.851562-6.007812 6.082032-14.191406 9.515626-22.738281 9.539063zm32-55.597656c0 .121093-.597656.210937-.839844.210937-13.496094 0-23.574218-7.765625-23.574218-18.0625.023437-1.578125-.585938-3.105468-1.695313-4.230468-1.109375-1.128907-2.621094-1.765626-4.203125-1.769532h-.886719c-3.3125 0-6 2.6875-6 6 0 10.300782-10.175781 18.0625-23.667969 18.0625-1.171874-.023437-2.339843-.171875-3.476562-.449218.03125-2.972657.074219-5.9375.117188-6.570313 1.636718-17.140625 16.46875-29.957031 33.664062-29.089844 17.195312.867188 30.664062 15.117188 30.5625 32.332031zm0 0"/></svg>