<?xml version="1.0"?>
<svg xmlns="http://www.w3.org/2000/svg" id="Layer_1" data-name="Layer 1" viewBox="0 0 512 512" width="512" height="512"><title>Prize</title><path d="M448.574,262.606a14.891,14.891,0,0,1-2.421-8.956l.378-6.866A26.793,26.793,0,0,0,431.86,221.4l-6.056-3.059a14.688,14.688,0,0,1-6.533-6.533l-3.06-6.056a26.848,26.848,0,0,0-25.387-14.673l-6.913.378A15.808,15.808,0,0,1,375,189.089V17.63A5.616,5.616,0,0,0,369.093,12H61.3c-3.314,0-6.3,2.316-6.3,5.63V400.11A6.173,6.173,0,0,0,61.3,406H298v88.37a6.037,6.037,0,0,0,9.685,4.773l46.955-35.772,46.952,35.772a5.805,5.805,0,0,0,6.185.6A5.9,5.9,0,0,0,411,494.37V367.038a26.618,26.618,0,0,0,5.1-6.856l3.116-6.056a14.756,14.756,0,0,1,6.563-6.534l6.069-3.059a26.8,26.8,0,0,0,14.679-25.387l-.374-6.868a14.894,14.894,0,0,1,2.422-8.955l3.7-5.61a26.764,26.764,0,0,0,0-29.5ZM67,394V24H363V182.292a26.508,26.508,0,0,0-23.152,3.043l-5.586,3.7a14.833,14.833,0,0,1-8.945,2.42l-6.861-.378a26.842,26.842,0,0,0-25.385,14.738L292,208H121.3a6,6,0,0,0,0,12H280.447l-3.021,1.526A26.841,26.841,0,0,0,263.784,238H121.3a6,6,0,0,0,0,12H262.924l.208,3.715a14.986,14.986,0,0,1-2.421,8.989l-3.47,5.3H121.3a6,6,0,0,0,0,12H252.779a26.926,26.926,0,0,0,4.234,17.843l.1.157H121.3a6,6,0,0,0,0,12H263.063a14.369,14.369,0,0,1,.069,2.343l-.378,6.9a27.57,27.57,0,0,0,.977,8.757H121.3a6,6,0,0,0,0,12h149.58a22.946,22.946,0,0,0,6.544,4.6l6.055,3.026a14.674,14.674,0,0,1,6.535,6.518l3.03,6.048A26.14,26.14,0,0,0,298,367.039V394Zm243-20.031a26.268,26.268,0,0,0,8.186.885L319,374.8V475.063l-9,7.193Zm40.759,77.087L331,465.92V375.471a16.117,16.117,0,0,1,3.036,1.425l5.734,3.7a26.922,26.922,0,0,0,29.591,0l5.729-3.7a15.072,15.072,0,0,1,2.91-1.424V465.92l-19.739-14.864A6.342,6.342,0,0,0,350.759,451.056ZM399,482.256l-9-7.193V374.8l.814.057a23.385,23.385,0,0,0,8.186-.888Zm43.254-191.149-3.7,5.611a26.964,26.964,0,0,0-4.384,16.22l.378,6.868a14.791,14.791,0,0,1-8.1,14.016l-6.056,3.059a26.61,26.61,0,0,0-11.833,11.835l-3.06,6.055a14.76,14.76,0,0,1-14.017,8.1l-6.866-.378a27.03,27.03,0,0,0-16.222,4.385l-5.609,3.7a14.779,14.779,0,0,1-16.286,0l-5.61-3.7a27.007,27.007,0,0,0-14.779-4.423q-.721,0-1.442.039l-6.867.378a14.776,14.776,0,0,1-14.017-8.1l-3.058-6.055a26.619,26.619,0,0,0-11.835-11.835l-6.055-3.059a14.761,14.761,0,0,1-4.4-3.405,5.974,5.974,0,0,0-.623-.75,14.787,14.787,0,0,1-3.073-9.861l.378-6.868a26.964,26.964,0,0,0-4.384-16.22l-3.7-5.611a14.779,14.779,0,0,1,0-16.286l3.7-5.609a26.97,26.97,0,0,0,4.384-16.222l-.378-6.866a14.8,14.8,0,0,1,8.1-14.017l6.055-3.059a26.622,26.622,0,0,0,11.835-11.834l3.058-6.056a14.8,14.8,0,0,1,14.018-8.1l6.866.378a26.99,26.99,0,0,0,16.222-4.384l5.609-3.7a14.779,14.779,0,0,1,16.286,0l5.61,3.7a26.986,26.986,0,0,0,16.221,4.383l6.865-.378a14.767,14.767,0,0,1,14.018,8.1l3.06,6.056a26.608,26.608,0,0,0,11.833,11.834l6.056,3.059a14.794,14.794,0,0,1,8.1,14.017l-.378,6.866a26.97,26.97,0,0,0,4.384,16.222l3.7,5.609A14.775,14.775,0,0,1,442.254,291.107Z"/><path d="M354.643,208.546a74.419,74.419,0,1,0,74.419,74.419A74.5,74.5,0,0,0,354.643,208.546Zm0,136.838a62.419,62.419,0,1,1,62.419-62.419A62.49,62.49,0,0,1,354.643,345.384Z"/><path d="M371.439,263.082l-11.416-23.131a6,6,0,0,0-10.76,0l-11.416,23.131-25.528,3.71a6,6,0,0,0-3.325,10.234l18.472,18-4.361,25.424a6,6,0,0,0,8.706,6.325l22.832-12,22.832,12a6,6,0,0,0,8.706-6.325l-4.361-25.424,18.472-18a6,6,0,0,0-3.326-10.234Zm-.254,25.558a6,6,0,0,0-1.726,5.311L372.3,310.5l-14.863-7.813a5.994,5.994,0,0,0-5.584,0L336.987,310.5l2.839-16.551a6,6,0,0,0-1.725-5.311l-12.025-11.721,16.618-2.415a6,6,0,0,0,4.517-3.282l7.432-15.058,7.432,15.058a6,6,0,0,0,4.517,3.282l16.618,2.415Z"/><path d="M121.3,100h97.791a6,6,0,0,0,0-12H121.3a6,6,0,0,0,0,12Z"/><path d="M121.3,130H309.093a6,6,0,0,0,0-12H121.3a6,6,0,0,0,0,12Z"/><path d="M121.3,160H309.093a6,6,0,0,0,0-12H121.3a6,6,0,0,0,0,12Z"/><path d="M121.3,190H309.093a6,6,0,0,0,0-12H121.3a6,6,0,0,0,0,12Z"/></svg>
