<svg height="492pt" viewBox="0 0 492 492.00322" width="492pt" xmlns="http://www.w3.org/2000/svg"><path d="m486.578125 204.800781-47.90625-4.617187c-4.957031-20.59375-13.230469-40.246094-24.503906-58.183594l30.53125-36.867188c1.964843-2.371093 1.8125-5.847656-.351563-8.039062l-49.070312-49.699219c-2.1875-2.21875-5.703125-2.394531-8.101563-.40625l-36.90625 30.570313c-17.957031-11.207032-37.578125-19.488282-58.132812-24.539063l-4.617188-47.75c-.3125-3.046875-2.914062-5.3398435-5.972656-5.269531h-70.460937c-3.058594-.0703125-5.660157 2.222656-5.972657 5.269531l-4.613281 47.824219c-20.589844 4.945312-40.242188 13.207031-58.175781 24.464844l-36.867188-30.550782c-2.382812-1.976562-5.878906-1.816406-8.070312.371094l-49.699219 49.691406c-2.1875 2.191407-2.351562 5.683594-.378906 8.066407l30.566406 36.914062c-11.203125 17.953125-19.488281 37.578125-24.539062 58.132813l-47.910157 4.617187c-3.074219.296875-5.42187475 2.882813-5.425781 5.972657v70.457031c0 3.089843 2.347656 5.675781 5.425781 5.972656l47.90625 4.617187c4.957031 20.59375 13.230469 40.246094 24.503907 58.179688l-30.535157 36.867188c-1.972656 2.382812-1.8125 5.878906.378907 8.070312l49.699218 49.699219c2.191406 2.1875 5.683594 2.351562 8.070313.378906l36.910156-30.566406c17.960937 11.203125 37.585937 19.488281 58.140625 24.535156l4.621094 47.75c.308594 3.042969 2.90625 5.335937 5.964844 5.265625h70.460937c3.058594.074219 5.660156-2.21875 5.972656-5.265625l3.585938-37.121094c21.433593 23.925781 52.039062 37.59375 84.160156 37.589844 62.359375 0 113.09375-50.597656 113.09375-112.8125.003906-31.90625-13.550781-62.3125-37.28125-83.640625l35.523437-3.546875c3.066407-.308594 5.398438-2.886719 5.398438-5.96875v-70.460937c0-3.089844-2.347656-5.675782-5.421875-5.972657zm-10.21875 169.613281c0 55.601563-45.351563 100.832032-101.09375 100.832032-33.28125.003906-64.433594-16.371094-83.304687-43.785156-.25-.5-.5625-.964844-.9375-1.378907-11.003907-16.476562-16.867188-35.851562-16.847657-55.667969 0-55.597656 45.347657-100.828124 101.089844-100.828124s101.09375 45.230468 101.09375 100.828124zm-213.25 14.515626c-5.574219.648437-11.183594.972656-16.792969.972656-15.988281.015625-31.863281-2.648438-46.972656-7.878906-2.085938-3.671876-4.6875-7.027344-7.722656-9.964844l-5.992188-6.027344c-6.226562-6.128906-9.699218-14.523438-9.628906-23.261719v-67.542969c0-.199218-.257812-.402343-.277344-.601562-.898437-8.378906 1.832032-16.738281 7.5-22.972656 5.667969-6.238282 13.730469-9.75 22.15625-9.652344h3.605469l9.492187 28.917969c.738282 2.207031 2.707032 3.765625 5.023438 3.984375.464844.03125.933594.007812 1.394531-.066406l-7.867187 73.214843c-.195313 1.800781.4375 3.59375 1.722656 4.871094l23 23c2.34375 2.339844 6.144531 2.339844 8.484375-.007813l12.46875-12.46875c-.351563 3.609376-.53125 7.265626-.535156 10.96875 0 4.855469.316406 9.703126.941406 14.515626zm126.171875-126.480469c-4.648438-.574219-9.328125-.863281-14.015625-.863281-16.066406-.019532-31.957031 3.398437-46.59375 10.027343-.011719-11.109375-4.460937-21.75-12.351563-29.5625-7.894531-7.8125-18.582031-12.152343-29.6875-12.050781h-6.84375c-2.492187-.09375-4.765624 1.410156-5.648437 3.742188l-8.652344 23.960937-15.550781-16.601563c-.636719-.722656-1.433594-1.28125-2.328125-1.632812-2.320313-.890625-4.953125-.261719-6.613281 1.589844l-14.335938 16.011718-7.613281-23.152343c-.828125-2.417969-3.144531-4.007813-5.699219-3.914063h-7.964844c-11.789062-.074218-23.050781 4.882813-30.957031 13.628906-7.890625 8.726563-12.425781 20.183594-10.425781 31.886719v67.25c-.0625 9.601563 2.992188 18.964844 8.703125 26.683594-43.453125-25.96875-70.085937-72.832031-70.164063-123.453125 0-79.347656 64.492188-143.898438 143.839844-143.898438s143.871094 64.550782 143.871094 143.898438c-.011719 5.5-.335938 10.988281-.96875 16.449219zm-116.824219 64.457031-5.476562-52.132812c.667969.082031 1.339843.058593 2-.070313 2.023437-.328125 3.71875-1.703125 4.457031-3.613281l10.570312-29.089844h2.625c8.460938-.152344 16.578126 3.359375 22.257813 9.632812 5.683594 6.273438 8.378906 14.699219 7.390625 23.105469-.019531.199219-.28125.285157-.28125.488281v2.820313c-19.011719 11.640625-34.160156 28.640625-43.542969 48.859375zm-34.121093-64.90625 7.238281-8.082031 8.15625 8.671875 9.003906 83.859375-16.734375 16.738281-16.730469-16.734375zm241.664062 13.800781-42.753906 4.285157c-11.039063-7.253907-23.265625-12.507813-36.125-15.523438.730468-6.160156 1.097656-12.359375 1.097656-18.5625 0-85.964844-69.9375-155.898438-155.898438-155.898438-85.960937 0-155.898437 69.9375-155.898437 155.898438s69.9375 155.902344 155.898437 155.902344c6.34375-.003906 12.683594-.386719 18.980469-1.152344 3 12.394531 8.105469 24.179688 15.097657 34.839844l-4.304688 44.410156h-59.558594l-4.507812-46.632812c-.253906-2.578126-2.160156-4.691407-4.703125-5.207032-22.136719-4.90625-43.203125-13.78125-62.179688-26.191406-2.203125-1.414062-5.070312-1.234375-7.082031.441406l-36.0625 29.867188-41.96875-41.96875 29.855469-36.054688c1.691406-2.039062 1.84375-4.949218.371093-7.152344-12.503906-18.898437-21.382812-39.957031-26.175781-62.105468-.554687-2.550782-2.691406-4.449219-5.289062-4.699219l-46.792969-4.515625v-59.558594l46.792969-4.511718c2.597656-.25 4.734375-2.148438 5.289062-4.699219 4.917969-22.140625 13.804688-43.207031 26.226563-62.183594 1.417968-2.199219 1.25-5.0625-.421875-7.078125l-29.855469-36.058594 41.96875-41.976562 36.054688 29.859375c2.042968 1.691406 4.953124 1.839843 7.15625.371093 18.898437-12.503906 39.960937-21.382812 62.109374-26.179687 2.53125-.480469 4.441407-2.570313 4.703126-5.132813l4.511718-46.632812h59.558594l4.511719 46.632812c.253906 2.582032 2.164062 4.695313 4.707031 5.210938 22.136719 4.90625 43.203125 13.78125 62.179688 26.191406 2.203124 1.414063 5.070312 1.234375 7.082031-.441406l36.027343-29.84375 41.394532 41.917969-29.878906 36.078125c-1.691407 2.042968-1.84375 4.949218-.371094 7.15625 12.503906 18.898437 21.382812 39.957031 26.175781 62.105468.554687 2.550782 2.691406 4.449219 5.289063 4.699219l46.789062 4.515625zm0 0"/><path d="m378 312.378906c-3.3125 0-6 2.6875-6 6v56.429688l-27.753906 27.566406c-2.371094 2.320312-2.414063 6.117188-.097656 8.488281 1.113281 1.125 2.628906 1.757813 4.207031 1.757813 1.582031 0 3.097656-.632813 4.210937-1.757813l29.5-29.328125c1.171875-1.105468 1.867188-2.628906 1.933594-4.242187v-58.914063c0-3.3125-2.683594-6-6-6zm0 0"/><path d="m285 175.5c0-22.367188-18.128906-40.5-40.5-40.5-22.367188 0-40.5 18.132812-40.5 40.5v14c0 22.371094 18.132812 40.5 40.5 40.5 22.371094 0 40.5-18.128906 40.5-40.5zm-12 14c0 15.742188-12.757812 28.5-28.5 28.5-15.738281 0-28.5-12.757812-28.5-28.5v-14c0-15.738281 12.761719-28.5 28.5-28.5 15.742188 0 28.5 12.761719 28.5 28.5zm0 0"/></svg>