<svg id="Layer_1" height="512" viewBox="0 0 512 512" width="512" xmlns="http://www.w3.org/2000/svg" data-name="Layer 1"><path d="m398.405 137.229a26.3 26.3 0 0 1 -4.276-15.818l.584-10.609a38.129 38.129 0 0 0 -20.879-36.128l-9.356-4.727a25.946 25.946 0 0 1 -11.54-11.54l-4.727-9.356a38.138 38.138 0 0 0 -36.128-20.88l-10.609.584a26.234 26.234 0 0 1 -15.818-4.275l-8.668-5.714a38.08 38.08 0 0 0 -41.976 0l-8.668 5.714a26.27 26.27 0 0 1 -15.818 4.275l-10.609-.584a38.158 38.158 0 0 0 -36.128 20.88l-4.727 9.356a25.946 25.946 0 0 1 -11.54 11.54l-9.356 4.727a38.129 38.129 0 0 0 -20.879 36.126l.584 10.609a26.306 26.306 0 0 1 -4.275 15.818l-5.715 8.667a38.084 38.084 0 0 0 0 41.976l5.715 8.668a26.31 26.31 0 0 1 4.275 15.818l-.584 10.61a38.129 38.129 0 0 0 20.879 36.134l9.356 4.726a25.951 25.951 0 0 1 11.54 11.54l4.808 9.357a43.342 43.342 0 0 0 8.13 10.69v198.118a5.906 5.906 0 0 0 9.514 4.773l74.506-56.783 74.516 56.779a5.987 5.987 0 0 0 3.632 1.227 5.65 5.65 0 0 0 2.579-.623 5.923 5.923 0 0 0 3.253-5.373v-198.119a43.336 43.336 0 0 0 8.13-10.693l4.767-9.357a26 26 0 0 1 11.561-11.54l9.366-4.726a38.133 38.133 0 0 0 20.884-36.128l-.581-10.61a26.311 26.311 0 0 1 4.273-15.818l5.716-8.668a38.087 38.087 0 0 0 0-41.976zm-214.405 165.759a37.807 37.807 0 0 0 16.015 2.61l4.985-.278v160l-21 16.1zm68.381 126.218-35.381 26.97v-150.7a28.888 28.888 0 0 1 9.362 3.816l8.659 5.708a38.068 38.068 0 0 0 41.969 0l8.65-5.715a28.877 28.877 0 0 1 9.36-3.815v150.706l-35.372-26.97a5.961 5.961 0 0 0 -7.247 0zm75.619 52.211-21-16.1v-160l4.985.278a37.842 37.842 0 0 0 16.015-2.61zm66.1-300.15-5.715 8.668a38.391 38.391 0 0 0 -6.239 23.084l.584 10.609a26.128 26.128 0 0 1 -14.307 24.757l-9.357 4.726a37.876 37.876 0 0 0 -16.84 16.841l-4.727 9.357a26.108 26.108 0 0 1 -24.757 14.306l-10.61-.584a38.442 38.442 0 0 0 -23.083 6.24l-8.668 5.715a26.1 26.1 0 0 1 -28.764 0l-8.668-5.715a38.425 38.425 0 0 0 -21.034-6.3q-1.024 0-2.05.055l-10.609.584a26.108 26.108 0 0 1 -24.756-14.301l-4.727-9.357a37.881 37.881 0 0 0 -16.84-16.841l-9.357-4.726a26.128 26.128 0 0 1 -14.307-24.757l.584-10.609a38.389 38.389 0 0 0 -6.239-23.084l-5.715-8.668a26.1 26.1 0 0 1 0-28.765l5.715-8.667a38.391 38.391 0 0 0 6.239-23.084l-.584-10.609a26.126 26.126 0 0 1 14.307-24.757l9.357-4.727a37.871 37.871 0 0 0 16.84-16.841l4.727-9.356a26.126 26.126 0 0 1 24.757-14.308l10.609.584a38.41 38.41 0 0 0 23.084-6.237l8.668-5.715a26.1 26.1 0 0 1 28.764 0l8.668 5.715a38.407 38.407 0 0 0 23.084 6.239l10.609-.584a26.134 26.134 0 0 1 24.757 14.306l4.727 9.356a37.866 37.866 0 0 0 16.84 16.841l9.357 4.727a26.126 26.126 0 0 1 14.307 24.757l-.584 10.609a38.393 38.393 0 0 0 6.239 23.084l5.714 8.665a26.1 26.1 0 0 1 0 28.767z"/><path d="m256 55.17a111.715 111.715 0 1 0 111.715 111.715 111.841 111.841 0 0 0 -111.715-111.715zm0 211.43a99.715 99.715 0 1 1 99.715-99.715 99.828 99.828 0 0 1 -99.715 99.715z"/><path d="m320.925 145.133-41.144-5.98-18.4-37.282a6 6 0 0 0 -10.76 0l-18.4 37.282-41.144 5.98a6 6 0 0 0 -3.325 10.234l29.772 29.02-7.028 40.977a6 6 0 0 0 8.706 6.325l36.798-19.346 36.8 19.346a6 6 0 0 0 8.706-6.325l-7.028-40.977 29.772-29.02a6 6 0 0 0 -3.325-10.234zm-37.082 32.867a6 6 0 0 0 -1.726 5.312l5.507 32.1-28.832-15.157a5.994 5.994 0 0 0 -5.584 0l-28.832 15.157 5.507-32.1a6 6 0 0 0 -1.726-5.312l-23.325-22.74 32.235-4.685a6 6 0 0 0 4.517-3.282l14.416-29.209 14.416 29.209a6 6 0 0 0 4.517 3.282l32.235 4.685z"/></svg>