<?xml version="1.0" encoding="iso-8859-1"?>
<!-- Generator: Adobe Illustrator 19.0.0, SVG Export Plug-In . SVG Version: 6.00 Build 0)  -->
<svg version="1.1" id="Capa_1" xmlns="http://www.w3.org/2000/svg" xmlns:xlink="http://www.w3.org/1999/xlink" x="0px" y="0px"
	 viewBox="0 0 511.994 511.994" style="enable-background:new 0 0 511.994 511.994;" xml:space="preserve">
<g>
	<g>
		<path d="M407.459,84.337H104.535c-9.842,0-17.819,7.977-17.819,17.819v77.216c0,9.842,7.977,17.819,17.819,17.819h302.923
			c9.842,0,17.819-7.977,17.819-17.819v-77.216C425.278,92.314,417.301,84.337,407.459,84.337z M389.64,161.553H122.354v-41.578
			H389.64V161.553z"/>
	</g>
</g>
<g>
	<g>
		<path d="M332.262,0.291c-9.658-1.758-18.959,4.633-20.735,14.321l-15.443,84.343c-1.77,9.676,4.639,18.965,14.321,20.735
			c1.087,0.196,2.162,0.291,3.231,0.291c8.434,0,15.93-6.017,17.504-14.612l15.443-84.343
			C348.353,11.351,341.944,2.061,332.262,0.291z"/>
	</g>
</g>
<g>
	<g>
		<path d="M407.459,84.337H104.535c-9.842,0-17.819,7.977-17.819,17.819v77.216c0,9.842,7.977,17.819,17.819,17.819h302.923
			c9.842,0,17.819-7.977,17.819-17.819v-77.216C425.278,92.314,417.301,84.337,407.459,84.337z M389.64,161.553H122.354v-41.578
			H389.64V161.553z"/>
	</g>
</g>
<g>
	<g>
		<path d="M403.04,167.629c-3.38-3.855-8.268-6.07-13.4-6.07H122.354c-5.132,0-10.02,2.21-13.4,6.07
			c-3.386,3.861-4.936,8.993-4.265,14.077l41.578,314.803c1.17,8.862,8.725,15.485,17.665,15.485h184.13
			c8.939,0,16.495-6.623,17.671-15.485l41.578-314.803C407.975,176.622,406.419,171.484,403.04,167.629z M332.441,476.356H179.553
			l-36.868-279.165h226.628L332.441,476.356z"/>
	</g>
</g>
<g>
</g>
<g>
</g>
<g>
</g>
<g>
</g>
<g>
</g>
<g>
</g>
<g>
</g>
<g>
</g>
<g>
</g>
<g>
</g>
<g>
</g>
<g>
</g>
<g>
</g>
<g>
</g>
<g>
</g>
</svg>
