<svg height="486pt" viewBox="0 0 486 486.4751" width="486pt" xmlns="http://www.w3.org/2000/svg"><path d="m454.601562 211.144531c-15.410156.019531-28.636718 10.972657-31.535156 26.105469h-46.1875c-1.445312-31.386719-13.957031-61.25-35.3125-84.300781l32.730469-32.722657c13.542969 9.511719 32.101563 7.160157 42.84375-5.429687s10.144531-31.289063-1.378906-43.167969c-11.527344-11.875-30.195313-13.039062-43.105469-2.679687s-15.820312 28.835937-6.71875 42.660156l-32.890625 32.890625c-23.238281-21.105469-53.1875-33.3125-84.558594-34.464844v-46.183594c16.371094-2.574218 28.097657-17.175781 27.074219-33.714843-1.023438-16.542969-14.464844-29.585938-31.027344-30.121094-16.5625-.53125-30.8125 11.625-32.898437 28.0625-2.082031 16.441406 8.679687 31.769531 24.851562 35.386719v46.648437c-31.082031 1.617188-60.613281 14.078125-83.453125 35.214844l-32.703125-32.699219c9.597657-13.457031 7.386719-32.003906-5.105469-42.824218-12.492187-10.820313-31.167968-10.363282-43.113281 1.054687-11.949219 11.417969-13.25 30.054687-3.007812 43.023437 10.246093 12.96875 28.675781 16.015626 42.550781 7.039063l32.925781 32.921875c-21.09375 23.191406-33.320312 53.082031-34.519531 84.40625h-45.972656c-2.574219-16.371094-17.179688-28.097656-33.71875-27.074219-16.539063 1.027344-29.585938 14.464844-30.117188 31.027344s11.621094 30.8125 28.0625 32.898437c16.441406 2.085938 31.765625-8.679687 35.386719-24.851562h46.417969c1.5625 31.085938 13.972656 60.636719 35.074218 83.515625l-32.515624 32.511719c-13.542969-9.511719-32.101563-7.160156-42.84375 5.429687-10.742188 12.589844-10.144532 31.289063 1.378906 43.164063 11.527344 11.878906 30.195312 13.042968 43.105468 2.683594 12.90625-10.359376 15.816407-28.835938 6.71875-42.660157l32.660157-32.664062c23.011719 21.003906 52.664062 33.261719 83.789062 34.636719v45.960937c-16.273437 3.097656-27.519531 18.0625-25.964843 34.554687 1.554687 16.492188 15.402343 29.09375 31.964843 29.09375s30.410157-12.601562 31.964844-29.09375c1.554687-16.492187-9.691406-31.457031-25.964844-34.554687v-45.960937c31.390625-1.390626 61.277344-13.847657 84.359375-35.167969l32.539063 32.542969c-9.425781 13.609374-6.949219 32.15625 5.71875 42.816406 12.664062 10.664062 31.359375 9.941406 43.164062-1.667969 11.804688-11.609375 12.839844-30.289063 2.390625-43.132813-10.445312-12.84375-28.949218-15.628906-42.714844-6.429687l-32.636718-32.636719c21.015625-23.058594 33.257812-52.769531 34.585937-83.941406h46.171875c3.171875 16.648438 18.734375 27.960938 35.550782 25.84375 16.8125-2.121094 29.082031-16.945312 28.019531-33.859375s-15.089844-30.089844-32.035157-30.089844zm-76.050781-131.394531c7.851563-7.851562 20.582031-7.851562 28.433594 0 7.855469 7.851562 7.855469 20.582031 0 28.4375-7.851563 7.851562-20.582031 7.851562-28.433594 0-3.804687-3.753906-5.945312-8.875-5.945312-14.21875s2.140625-10.464844 5.945312-14.21875zm-155.167969-47.613281c0-11.105469 9.003907-20.105469 20.105469-20.105469 11.105469 0 20.105469 9.003906 20.105469 20.105469 0 11.105469-9 20.105469-20.105469 20.105469-11.097656-.011719-20.09375-9.007813-20.105469-20.105469zm-143.394531 76.050781c-7.851562-7.851562-7.851562-20.582031 0-28.433594 7.851563-7.851562 20.582031-7.851562 28.433594 0 7.855469 7.851563 7.855469 20.582032 0 28.433594-7.855469 7.839844-20.574219 7.839844-28.433594 0zm-47.613281 155.167969c-11.105469 0-20.105469-9-20.105469-20.105469s9.003907-20.105469 20.105469-20.105469c11.105469 0 20.105469 9.003907 20.105469 20.105469-.011719 11.101562-9.007813 20.09375-20.105469 20.105469zm76.050781 143.394531c-7.765625 7.785156-20.34375 7.890625-28.238281.234375-7.890625-7.65625-8.167969-20.234375-.621094-28.234375 7.546875-7.996094 20.117188-8.445312 28.21875-1.011719.238282.390625.523438.753907.84375 1.082031.289063.289063.609375.550782.953125.773438 6.707031 7.984375 6.207031 19.769531-1.15625 27.15625zm155.167969 47.617188c0 11.105468-9.003906 20.105468-20.109375 20.101562-11.101563 0-20.101563-9.003906-20.101563-20.105469 0-11.105469 9-20.105469 20.105469-20.105469 11.097657.011719 20.09375 9.007813 20.105469 20.105469zm143.394531-76.054688c7.851563 7.851562 7.851563 20.582031 0 28.4375-7.851562 7.851562-20.582031 7.851562-28.433593 0-7.855469-7.855469-7.855469-20.585938 0-28.4375 7.855468-7.839844 20.574218-7.839844 28.433593 0zm-163.5-13.304688c-67.125 0-121.539062-54.414062-121.539062-121.535156 0-67.125 54.414062-121.539062 121.539062-121.539062s121.539063 54.414062 121.539063 121.539062c-.078125 67.089844-54.445313 121.460938-121.539063 121.535156zm211.113281-101.652343c-11.105468 0-20.105468-9-20.105468-20.105469 0-11.101562 9-20.105469 20.105468-20.105469 11.105469 0 20.105469 9.003907 20.105469 20.105469-.011719 11.101562-9.003906 20.09375-20.105469 20.105469zm0 0"/><path d="m291.886719 177.835938c-14.238281-13.257813-33.296875-20.089844-52.714844-18.898438-17.347656 1-33.699219 8.433594-45.855469 20.847656-12.054687 12.105469-18.871094 28.460938-18.988281 45.539063-.09375 25.058593 14.160156 47.882812 37.160156 59.195312v23.050781c0 17.671876 14.328125 32 32 32s32-14.328124 32-32v-22.867187c23-11.582031 37.164063-34.394531 37.164063-59.140625.023437-18.105469-7.5-35.402344-20.765625-47.726562zm-48.398438 149.855468c-5.320312-.011718-10.421875-2.136718-14.171875-5.914062-3.753906-3.773438-5.851562-8.882813-5.828125-14.207032v-13.320312h40v13.320312c.019531 5.324219-2.074219 10.433594-5.828125 14.207032-3.75 3.777344-8.851562 5.902344-14.171875 5.914062zm23.632813-52.257812c-2.183594.953125-3.609375 3.101562-3.632813 5.484375v1.332031h-40v-1.566406c-.023437-2.410156-1.476562-4.578125-3.699219-5.515625-20.402343-8.714844-33.570312-28.261719-33.492187-49.800781.128906-13.960938 5.730469-27.308594 15.597656-37.183594 10.070313-10.285156 23.613281-16.441406 37.984375-17.269532 1.175782-.066406 2.347656-.097656 3.515625-.097656 14.933594-.054687 29.328125 5.578125 40.257813 15.753906 10.859375 10.0625 17.03125 24.191407 17.035156 38.992188 0 21.277344-13.199219 40.851562-33.566406 49.871094zm0 0"/></svg>