<svg height="498pt" viewBox="-29 0 498 498.02002" width="498pt" xmlns="http://www.w3.org/2000/svg"><path d="m374.253906 323h-308.117187c-1.582031-.015625-3.101563.605469-4.222657 1.71875-1.117187 1.113281-1.742187 2.628906-1.734374 4.210938v22.417968c0 3.3125 2.683593 6 6 6 3.3125 0 6-2.6875 6-6v-16.347656h142v12.953125c0 3.3125 2.683593 6 6 6 3.3125 0 6-2.6875 6-6v-12.953125h142v16.347656c0 3.3125 2.683593 6 6 6 3.3125 0 6-2.6875 6-6v-22.417968c.011718-1.578126-.605469-3.09375-1.722657-4.207032-1.113281-1.117187-2.628906-1.734375-4.203125-1.722656zm0 0"/><path d="m252.179688 395.535156c0-17.414062-14.121094-31.535156-31.539063-31.535156h-1.925781c-17.417969 0-31.535156 14.121094-31.535156 31.535156v4.929688c0 17.414062 14.117187 31.535156 31.535156 31.535156h1.925781c17.417969 0 31.539063-14.121094 31.539063-31.535156zm-12 4.929688c0 10.789062-8.746094 19.535156-19.539063 19.535156h-1.925781c-10.789063 0-19.535156-8.746094-19.535156-19.535156v-4.929688c0-10.789062 8.746093-19.535156 19.535156-19.535156h1.925781c10.792969 0 19.539063 8.746094 19.539063 19.535156zm0 0"/><path d="m164.621094 442.082031c-6.300782 6.917969-9.371094 16.1875-8.441406 25.5v24.4375c-.015626 1.589844.609374 3.117188 1.726562 4.242188 1.121094 1.128906 2.644531 1.761719 4.230469 1.757812l116.078125-.011719c1.585937-.003906 3.109375-.636718 4.226562-1.761718 1.121094-1.128906 1.746094-2.652344 1.738282-4.238282v-24.425781c.925781-9.3125-2.140626-18.578125-8.441407-25.5-6.308593-7.015625-15.289062-11.039062-24.726562-11.082031h-6.648438c-1.453125.03125-2.847656.582031-3.929687 1.554688l-20.183594 17.535156-19.390625-17.488282c-1.097656-1.007812-2.523437-1.578124-4.011719-1.601562h-7.5c-9.4375.039062-18.417968 4.066406-24.726562 11.082031zm8.875 8.046875c4.023437-4.53125 9.792968-7.128906 15.855468-7.128906h5.199219l21.621094 19.511719c.585937.542969 1.273437.964843 2.023437 1.242187 2.042969.6875 4.300782.234375 5.914063-1.191406l22.492187-19.5625h4.410157c6.050781.035156 11.804687 2.621094 15.847656 7.125 4.039063 4.503906 5.992187 10.5 5.375 16.519531-.019531.199219-.054687.449219-.054687.648438v18.714843l-104 .011719v-18.726562c0-.199219-.039063-.445313-.058594-.648438-.652344-6.019531 1.304687-12.03125 5.375-16.515625zm0 0"/><path d="m96.179688 395.535156c0-17.414062-14.121094-31.535156-31.539063-31.535156h-1.925781c-17.417969 0-31.535156 14.121094-31.535156 31.535156v4.929688c0 17.414062 14.117187 31.535156 31.535156 31.535156h1.925781c17.417969 0 31.539063-14.121094 31.539063-31.535156zm-12 4.929688c0 10.789062-8.746094 19.535156-19.539063 19.535156h-1.925781c-10.789063 0-19.535156-8.746094-19.535156-19.535156v-4.929688c0-10.789062 8.746093-19.535156 19.535156-19.535156h1.925781c10.792969 0 19.539063 8.746094 19.539063 19.535156zm0 0"/><path d="m128.179688 492.007812v-24.425781c.910156-9.316406-2.175782-18.585937-8.492188-25.5-6.324219-7.019531-15.320312-11.042969-24.769531-11.082031h-6.648438c-1.453125.03125-2.847656.582031-3.929687 1.554688l-20.183594 17.535156-19.394531-17.488282c-1.09375-1.007812-2.519531-1.578124-4.007813-1.601562h-7.5c-9.421875.042969-18.386718 4.066406-24.675781 11.082031-6.289063 6.925781-9.34375 16.191407-8.398437 25.5v24.4375c-.035157 1.582031.570312 3.113281 1.679687 4.242188 1.109375 1.128906 2.625 1.761719 4.207031 1.757812l116.113282-.011719c3.3125 0 6-2.6875 6-6zm-11.992188-25.320312c-.019531.199219-.007812.402344-.007812.605469v18.714843l-104 .011719v-18.726562c-.023438-.203125-.058594-.40625-.101563-.605469-.628906-6.019531 1.308594-12.023438 5.34375-16.535156 4.03125-4.507813 9.78125-7.109375 15.832031-7.152344h5.203125l21.621094 19.511719c2.226563 2.09375 5.691406 2.117187 7.941406.050781l22.488281-19.5625h4.410157c6.058593.039062 11.824219 2.632812 15.871093 7.140625 4.050782 4.511719 6.007813 10.519531 5.398438 16.546875zm0 0"/><path d="m408.179688 395.535156c0-17.414062-14.121094-31.535156-31.539063-31.535156h-1.925781c-17.417969 0-31.535156 14.121094-31.535156 31.535156v4.929688c0 17.414062 14.117187 31.535156 31.535156 31.535156h1.925781c17.417969 0 31.539063-14.121094 31.539063-31.535156zm-12 4.929688c0 10.789062-8.746094 19.535156-19.539063 19.535156h-1.925781c-10.789063 0-19.535156-8.746094-19.535156-19.535156v-4.929688c0-10.789062 8.746093-19.535156 19.535156-19.535156h1.925781c10.792969 0 19.539063 8.746094 19.539063 19.535156zm0 0"/><path d="m407.109375 431h-6.652344c-1.453125.03125-2.847656.582031-3.929687 1.554688l-20.183594 17.535156-19.394531-17.488282c-1.09375-1.007812-2.519531-1.578124-4.007813-1.601562h-7.5c-9.449218.039062-18.445312 4.0625-24.777344 11.082031-6.3125 6.914063-9.398437 16.179688-8.488281 25.5v24.4375c.019531 3.316407 2.710938 6 6.03125 6l116.039063-.011719c1.582031-.003906 3.101562-.640624 4.214844-1.765624 1.113281-1.128907 1.730468-2.652344 1.714843-4.234376v-24.425781c.941407-9.308593-2.109375-18.574219-8.402343-25.5-6.285157-7.011719-15.246094-11.039062-24.664063-11.082031zm21.171875 35.6875c-.042969.199219-.078125.402344-.101562.605469v18.714843l-104 .011719v-18.726562c0-.199219.007812-.398438-.011719-.605469-.609375-6.03125 1.351562-12.039062 5.402343-16.546875 4.050782-4.507813 9.8125-7.101563 15.875-7.140625h5.199219l21.621094 19.511719c.589844.542969 1.277344.964843 2.03125 1.242187 2.039063.6875 4.292969.234375 5.910156-1.191406l22.488281-19.5625h4.414063c6.050781.042969 11.800781 2.644531 15.832031 7.152344 4.035156 4.511718 5.972656 10.519531 5.339844 16.535156zm0 0"/><path d="m253.179688 33.378906c0-18.433594-14.945313-33.378906-33.382813-33.378906h-.238281c-18.433594 0-33.378906 14.945312-33.378906 33.378906v11.242188c0 18.433594 14.945312 33.378906 33.378906 33.378906h.238281c18.4375 0 33.382813-14.945312 33.382813-33.378906zm-12 11.242188c0 11.808594-9.574219 21.378906-21.382813 21.378906h-.238281c-11.808594 0-21.378906-9.570312-21.378906-21.378906v-11.242188c0-11.808594 9.570312-21.378906 21.378906-21.378906h.238281c11.808594 0 21.382813 9.570312 21.382813 21.378906zm0 0"/><path d="m252.414062 75h-5.429687c-2.554687.0625-4.804687 1.699219-5.644531 4.113281l-6.183594 17.269531-11.03125-11.699218c-1.15625-1.21875-2.769531-1.898438-4.449219-1.871094-1.683593.023438-3.273437.75-4.394531 2.003906l-9.9375 11.113282-5.371094-16.644532c-.789062-2.503906-3.085937-4.226562-5.707031-4.285156h-6.316406c-9.847657.058594-19.222657 4.25-25.835938 11.550781-6.570312 7.1875-9.816406 16.8125-8.933593 26.515625v53.296875c.074218 9.894531 4.140624 19.34375 11.269531 26.203125l5.03125 4.78125c4.492187 4.3125 7.164062 10.179688 7.464843 16.402344l4.378907 91.480469c.15625 3.210937 2.792969 5.746093 6.011719 5.769531h65.835937c3.210937-.027344 5.84375-2.558594 5.992187-5.769531l4.363282-91.515625c.285156-6.191406 2.917968-12.039063 7.363281-16.355469l5.109375-4.828125c7.070312-6.859375 11.097656-16.265625 11.179688-26.117188v-53.347656c.878906-9.703125-2.363282-19.328125-8.9375-26.519531-6.609376-7.296875-15.980469-11.488281-25.828126-11.546875zm-32.550781 22.707031 5.257813 5.59375 7.035156 65.53125-11.976562 11.980469-11.980469-11.980469 7.089843-66.015625zm55.191407 14.464844c-.019532.199219.125.398437.125.597656v53.640625c-.074219 6.609375-2.792969 12.914063-7.546876 17.507813l-5.03125 4.820312c-6.644531 6.449219-10.582031 15.183594-11.023437 24.433594l-4.128906 85.828125h-54.394531l-4.085938-85.765625c-.425781-9.28125-4.390625-18.042969-11.078125-24.492187l-5.097656-4.800782c-4.796875-4.597656-7.539063-10.933594-7.613281-17.574218v-53.589844c0-.203125.140624-.402344.121093-.601563-.621093-6.410156 1.480469-12.785156 5.785157-17.570312 4.304687-4.789063 10.425781-7.546875 16.863281-7.605469h1.960937l7.25 22.414062c.710938 2.203126 2.609375 3.808594 4.898438 4.140626l-6.097656 56.8125c-.195313 1.8125.4375 3.613281 1.722656 4.902343l18.253906 18.261719c2.339844 2.34375 6.136719 2.347656 8.484375.007812l18.257813-18.253906c1.28125-1.285156 1.914062-3.078125 1.722656-4.882812l-6.101563-56.769532c.136719-.019531.273438-.03125.414063-.058593 2.058594-.484375 3.730468-1.988281 4.425781-3.988281l8.0625-22.585938h1.210937c6.4375.0625 12.554688 2.820312 16.859376 7.605469 4.300781 4.785156 6.402343 11.160156 5.78125 17.566406zm0 0"/></svg>