<?xml version="1.0" encoding="iso-8859-1"?>
<!-- Generator: Adobe Illustrator 19.0.0, SVG Export Plug-In . SVG Version: 6.00 Build 0)  -->
<svg version="1.1" id="Capa_1" xmlns="http://www.w3.org/2000/svg" xmlns:xlink="http://www.w3.org/1999/xlink" x="0px" y="0px"
	 viewBox="0 0 512 512" style="enable-background:new 0 0 512 512;" xml:space="preserve">
<g>
	<g>
		<path d="M349.089,245.899c-7.112-7.334-18.816-7.513-26.144-0.407l-67.253,65.188l-67.253-65.188
			c-7.328-7.1-19.032-6.921-26.144,0.407c-7.106,7.328-6.927,19.038,0.407,26.144l80.121,77.662
			c3.587,3.476,8.228,5.214,12.869,5.214c4.641,0,9.288-1.738,12.869-5.214l80.121-77.662
			C356.01,264.937,356.195,253.227,349.089,245.899z"/>
	</g>
</g>
<g>
	<g>
		<path d="M255.692,123.8c-10.212,0-18.49,8.277-18.49,18.49v189.826c0,10.212,8.277,18.49,18.49,18.49
			c10.219,0,18.49-8.277,18.49-18.49V142.289C274.181,132.077,265.904,123.8,255.692,123.8z"/>
	</g>
</g>
<g>
	<g>
		<path d="M506.583,242.928L269.072,5.417c-7.223-7.223-18.927-7.223-26.144,0L5.417,242.928c-7.223,7.217-7.223,18.927,0,26.144
			l237.51,237.51C246.533,510.194,251.267,512,256,512c4.733,0,9.46-1.806,13.072-5.417l237.51-237.51
			C513.806,261.855,513.806,250.145,506.583,242.928z M256,467.366L44.64,256L256,44.64L467.366,256L256,467.366z"/>
	</g>
</g>
<g>
</g>
<g>
</g>
<g>
</g>
<g>
</g>
<g>
</g>
<g>
</g>
<g>
</g>
<g>
</g>
<g>
</g>
<g>
</g>
<g>
</g>
<g>
</g>
<g>
</g>
<g>
</g>
<g>
</g>
</svg>
