<svg id="Layer_1" height="512" viewBox="0 0 512 512" width="512" xmlns="http://www.w3.org/2000/svg" data-name="Layer 1"><path d="m473.113 31.6-124.393 45.824a111.53 111.53 0 0 0 -40.036 25.616l-67.347 67.347-35.688-8.587a95.078 95.078 0 0 0 -88.9 25.054l-58.796 58.798a6 6 0 0 0 2.84 10.077l76.745 18.457-33.263 33.264-32.931 32.931a6 6 0 0 0 0 8.485l92.2 92.2a6 6 0 0 0 8.486 0l66.194-66.194 18.458 76.746a6 6 0 0 0 10.076 2.839l58.794-58.793a95.071 95.071 0 0 0 25.053-88.9l-8.583-35.687 67.348-67.346a111.552 111.552 0 0 0 25.616-40.038l45.831-124.393a6 6 0 0 0 -7.7-7.7zm-399.1 214.97 51.221-51.222a83 83 0 0 1 77.612-21.871l28.543 6.865-83.9 83.9zm93.776 181.77-83.717-83.717 24.444-24.444 83.717 83.721zm171.151-118.772a83 83 0 0 1 -21.872 77.612l-51.221 51.22-17.672-73.477 83.9-83.9zm84.789-150.025a99.479 99.479 0 0 1 -22.843 35.7l-200.167 200.167-83.719-83.716 200.169-200.169a99.442 99.442 0 0 1 35.7-22.841l112.194-41.335z"/><path d="m277.457 178.12a40.188 40.188 0 1 0 56.835 0 40.234 40.234 0 0 0 -56.835 0zm48.35 48.35a28.175 28.175 0 1 1 0-39.866 28.222 28.222 0 0 1 0 39.866z"/><path d="m113.089 397.677a6 6 0 0 0 -8.485 0l-64.213 64.213a6 6 0 1 0 8.485 8.484l64.213-64.213a6 6 0 0 0 0-8.484z"/><path d="m137.243 422.009a6 6 0 0 0 -8.306 1.73l-31.284 47.748a6 6 0 1 0 10.037 6.576l31.284-47.748a6 6 0 0 0 -1.731-8.306z"/><path d="m87.849 382.652a6 6 0 0 0 -6.577-10.037l-47.748 31.285a6 6 0 1 0 6.576 10.036z"/></svg>