<svg height="485pt" viewBox="0 -18 485.47575 485" width="485pt" xmlns="http://www.w3.org/2000/svg"><path d="m395.335938 291.046875c-1.085938-1.8125-3.039063-2.921875-5.152344-2.921875-2.109375 0-4.066406 1.109375-5.148438 2.921875l-30.441406 50.882813-103.851562-173.488282v-69.535156l7.550781 4.125c16.9375 9.1875 37.671875 7.679688 53.097656-3.863281 11.679687-8.726563 27.367187-9.867188 40.183594-2.917969l16.441406 8.949219c1.859375 1.011719 4.113281.96875 5.933594-.113281 1.816406-1.082032 2.933593-3.039063 2.933593-5.15625v-79.5c0-2.199219-1.203124-4.21875-3.132812-5.269532l-16.445312-8.953125c-16.945313-9.183593-37.683594-7.675781-53.121094 3.863281-11.675782 8.730469-27.363282 9.871094-40.179688 2.921876l-16.449218-8.953126c-1.851563-1.011718-4.101563-.964843-5.914063.117188-1.808594 1.085938-2.914063 3.046875-2.898437 5.160156v158.910156l-82.503907 137.738282-32.394531-54.074219c-1.085938-1.8125-3.042969-2.917969-5.152344-2.917969-2.113281 0-4.070312 1.105469-5.15625 2.917969l-112.683594 188.175781c-1.109374 1.78125-1.136718 4.03125-.070312 5.835938 1.085938 1.832031 3.089844 2.917968 5.21875 2.839844h293.171875c.550781 0 1.125 1 1.710937 1h178.601563c2.191406-.109376 4.171875-1.351563 5.222656-3.277344 1.050781-1.929688 1.023438-4.261719-.074219-6.164063zm-5.148438 14.761719 26.542969 44.332031c-3.597657 1.753906-6.957031 3.964844-9.988281 6.578125-4.742188 3.800781-8.492188 6.792969-16.523438 6.792969s-11.78125-3-16.523438-6.792969c-3.046874-2.628906-6.421874-4.851562-10.042968-6.605469zm-145.566406-124.132813 55.914062 93.375c-9.625 3.148438-16.378906 8.53125-22.484375 13.417969-9.074219 7.257812-16.914062 13.527344-33.367187 13.527344-16.449219 0-24.285156-6.269532-33.363282-13.527344-6.125-4.902344-12.90625-10.308594-22.589843-13.457031zm6.121094-162.265625 7.550781 4.125c16.9375 9.183594 37.671875 7.675782 53.101562-3.859375 11.675781-8.730469 27.359375-9.871093 40.175781-2.921875l13.308594 7.246094v65.832031l-7.578125-4.121093c-16.941406-9.1875-37.683593-7.679688-53.121093 3.859374-11.664063 8.730469-27.34375 9.871094-40.152344 2.921876l-13.285156-7.246094zm-68.378907 266.238282c8.984375 2.210937 14.828125 6.878906 21.460938 12.1875 9.46875 7.574218 20.199219 16.160156 40.859375 16.160156 20.664062 0 31.394531-8.585938 40.863281-16.160156 6.605469-5.28125 12.425781-9.9375 21.351563-12.160157l40.679687 67.800781-49.941406 83.265626h-62.960938l-71.472656-119.230469zm-63.683593-19 35.769531 59.738281c-5.777344 2.300781-10.019531 5.683593-13.894531 8.785156-6.226563 4.980469-11.144532 8.914063-21.832032 8.914063-10.683594 0-15.597656-3.933594-21.832031-8.914063-3.890625-3.113281-8.152344-6.511719-13.96875-8.8125zm-42.042969 70.011718c5.105469 1.558594 8.707031 4.542969 12.757812 7.78125 6.765625 5.414063 14.433594 11.601563 29.328125 11.601563 14.894532 0 22.5625-6.109375 29.328125-11.519531 4.03125-3.222657 7.621094-6.210938 12.6875-7.777344l59.949219 100h-204.101562zm331.105469 101.082032v-1h-96.117188l45.800781-76.347657c3.324219 1.203125 5.820313 3.261719 8.777344 5.628907 5.25 4.199218 11.78125 9.457031 24.019531 9.457031 12.242188 0 18.773438-5.210938 24.023438-9.40625 2.585937-2.25 5.535156-4.039063 8.722656-5.292969l45.933594 76.960938zm0 0"/></svg>