<?xml version="1.0" encoding="iso-8859-1"?>
<!-- Generator: Adobe Illustrator 19.0.0, SVG Export Plug-In . SVG Version: 6.00 Build 0)  -->
<svg version="1.1" id="Capa_1" xmlns="http://www.w3.org/2000/svg" xmlns:xlink="http://www.w3.org/1999/xlink" x="0px" y="0px"
	 viewBox="0 0 512 512" style="enable-background:new 0 0 512 512;" xml:space="preserve">
<g>
	<g>
		<path d="M427.801,20.513l-19.885,451.382H104.071L84.199,20.513l-40.064,1.765L64.856,492.83C65.33,503.551,74.16,512,84.888,512
			h342.218c10.735,0,19.564-8.449,20.032-19.17l20.727-470.552L427.801,20.513z"/>
	</g>
</g>
<g>
	<g>
		<path d="M484.595,0H27.405C16.329,0,7.352,8.977,7.352,20.052c0,11.076,8.977,20.052,20.052,20.052h457.191
			c11.076,0,20.052-8.977,20.052-20.052C504.648,8.977,495.671,0,484.595,0z"/>
	</g>
</g>
<g>
	<g>
		<path d="M256,232.606c-11.076,0-20.052,8.977-20.052,20.052v6.016c0,11.076,8.977,20.052,20.052,20.052
			s20.052-8.977,20.052-20.052v-6.016C276.052,241.582,267.076,232.606,256,232.606z"/>
	</g>
</g>
<g>
	<g>
		<path d="M378.319,232.606c-11.076,0-20.052,8.977-20.052,20.052v6.016c0,11.076,8.977,20.052,20.052,20.052
			s20.052-8.977,20.052-20.052v-6.016C398.371,241.582,389.394,232.606,378.319,232.606z"/>
	</g>
</g>
<g>
	<g>
		<path d="M133.681,232.606c-11.076,0-20.052,8.977-20.052,20.052v6.016c0,11.076,8.977,20.052,20.052,20.052
			c11.069,0,20.052-8.977,20.052-20.052v-6.016C153.734,241.582,144.757,232.606,133.681,232.606z"/>
	</g>
</g>
<g>
	<g>
		<path d="M194.507,171.112c-11.076,0-20.052,8.977-20.052,20.052v6.684c0,11.076,8.977,20.052,20.052,20.052
			c11.069,0,20.052-8.977,20.052-20.052v-6.684C214.559,180.089,205.582,171.112,194.507,171.112z"/>
	</g>
</g>
<g>
	<g>
		<path d="M317.493,171.112c-11.076,0-20.052,8.977-20.052,20.052v6.684c0,11.076,8.977,20.052,20.052,20.052
			c11.076,0,20.052-8.977,20.052-20.052v-6.684C337.546,180.089,328.569,171.112,317.493,171.112z"/>
	</g>
</g>
<g>
	<g>
		<path d="M194.507,294.099c-11.076,0-20.052,8.977-20.052,20.052v6.016c0,11.076,8.977,20.052,20.052,20.052
			c11.069,0,20.052-8.97,20.052-20.052v-6.016C214.559,303.076,205.582,294.099,194.507,294.099z"/>
	</g>
</g>
<g>
	<g>
		<path d="M317.493,294.099c-11.076,0-20.052,8.977-20.052,20.052v6.016c0,11.076,8.977,20.052,20.052,20.052
			c11.076,0,20.052-8.97,20.052-20.052v-6.016C337.546,303.076,328.569,294.099,317.493,294.099z"/>
	</g>
</g>
<g>
	<g>
		<path d="M256,110.287c-11.076,0-20.052,8.977-20.052,20.052v6.016c0,11.076,8.977,20.052,20.052,20.052
			s20.052-8.977,20.052-20.052v-6.016C276.052,119.264,267.076,110.287,256,110.287z"/>
	</g>
</g>
<g>
	<g>
		<path d="M378.319,110.287c-11.076,0-20.052,8.977-20.052,20.052v6.016c0,11.076,8.977,20.052,20.052,20.052
			s20.052-8.977,20.052-20.052v-6.016C398.371,119.264,389.394,110.287,378.319,110.287z"/>
	</g>
</g>
<g>
	<g>
		<path d="M133.681,110.287c-11.076,0-20.052,8.977-20.052,20.052v6.016c0,11.076,8.977,20.052,20.052,20.052
			c11.069,0,20.052-8.977,20.052-20.052v-6.016C153.734,119.264,144.757,110.287,133.681,110.287z"/>
	</g>
</g>
<g>
	<g>
		<path d="M256,354.924c-11.076,0-20.052,8.977-20.052,20.052v6.016c0,11.076,8.977,20.052,20.052,20.052
			s20.052-8.977,20.052-20.052v-6.016C276.052,363.901,267.076,354.924,256,354.924z"/>
	</g>
</g>
<g>
	<g>
		<path d="M378.319,354.924c-11.076,0-20.052,8.977-20.052,20.052v6.016c0,11.076,8.977,20.052,20.052,20.052
			s20.052-8.977,20.052-20.052v-6.016C398.371,363.901,389.394,354.924,378.319,354.924z"/>
	</g>
</g>
<g>
	<g>
		<path d="M133.681,354.924c-11.076,0-20.052,8.977-20.052,20.052v6.016c0,11.076,8.977,20.052,20.052,20.052
			c11.069,0,20.052-8.977,20.052-20.052v-6.016C153.734,363.901,144.757,354.924,133.681,354.924z"/>
	</g>
</g>
<g>
	<g>
		<path d="M194.507,48.794c-11.076,0-20.052,8.977-20.052,20.052v6.684c0,11.076,8.977,20.052,20.052,20.052
			c11.069,0,20.052-8.977,20.052-20.052v-6.684C214.559,57.77,205.582,48.794,194.507,48.794z"/>
	</g>
</g>
<g>
	<g>
		<path d="M317.493,48.794c-11.076,0-20.052,8.977-20.052,20.052v6.684c0,11.076,8.977,20.052,20.052,20.052
			c11.076,0,20.052-8.977,20.052-20.052v-6.684C337.546,57.77,328.569,48.794,317.493,48.794z"/>
	</g>
</g>
<g>
	<g>
		<path d="M194.507,416.418c-11.076,0-20.052,8.977-20.052,20.052v6.016c0,11.076,8.977,20.052,20.052,20.052
			c11.069,0,20.052-8.977,20.052-20.052v-6.016C214.559,425.394,205.582,416.418,194.507,416.418z"/>
	</g>
</g>
<g>
	<g>
		<path d="M317.493,416.418c-11.076,0-20.052,8.977-20.052,20.052v6.016c0,11.076,8.977,20.052,20.052,20.052
			c11.076,0,20.052-8.977,20.052-20.052v-6.016C337.546,425.394,328.569,416.418,317.493,416.418z"/>
	</g>
</g>
<g>
</g>
<g>
</g>
<g>
</g>
<g>
</g>
<g>
</g>
<g>
</g>
<g>
</g>
<g>
</g>
<g>
</g>
<g>
</g>
<g>
</g>
<g>
</g>
<g>
</g>
<g>
</g>
<g>
</g>
</svg>
