<svg id="Layer_1" height="512" viewBox="0 0 512 512" width="512" xmlns="http://www.w3.org/2000/svg" data-name="Layer 1"><path d="m444.468 287h-288.468v-130.713a34.116 34.116 0 0 0 14.866-8.236 31.4 31.4 0 0 0 9.43-22.306c0-.184-.032-.369-.033-.555a31.785 31.785 0 0 0 -9.071-22.56 31.286 31.286 0 0 0 -22.305-9.63h-.837a31.9 31.9 0 0 0 -31.656 31.563c0 .2.13.44.131.609a31.7 31.7 0 0 0 27.475 31.588v130.24h-75.685c-25.364 0-46.315 20.4-46.315 45.768v76.765c0 25.367 20.951 46.467 46.315 46.467h376.153c25.365 0 45.532-21.1 45.532-46.467v-76.765a45.456 45.456 0 0 0 -45.532-45.768zm-316.468-161.864v-.395a19.83 19.83 0 0 1 6.094-13.984 20.127 20.127 0 0 1 13.959-5.757h.706a19.2 19.2 0 0 1 13.733 6.031 19.968 19.968 0 0 1 5.508 14.1v.5a19.52 19.52 0 0 1 -19.548 19.469c-.079 0-.3 0-.378 0a20.144 20.144 0 0 1 -20.074-19.964zm350 284.864a34 34 0 0 1 -34 34h-376a34 34 0 0 1 -34-34v-77a34 34 0 0 1 34-34h376a34 34 0 0 1 34 34z"/><path d="m421.2 337.418a30.791 30.791 0 1 0 0 61.582c16.678 0 30.24-13.377 30.877-30.57 0-.074 0-.1 0-.177a30.886 30.886 0 0 0 -30.877-30.835zm0 49.763a18.882 18.882 0 1 1 18.878-18.992c-.444 10.659-8.717 18.991-18.873 18.992z"/><path d="m98.307 82.578a6 6 0 0 0 -8.485.017 56.8 56.8 0 0 0 0 80 6 6 0 0 0 8.5-8.469 44.772 44.772 0 0 1 0-63.065 6 6 0 0 0 -.015-8.483z"/><path d="m56.234 58.191a6 6 0 0 0 -8.485.067c-34.915 35.465-34.9 92.738.033 127.671a6 6 0 1 0 8.485-8.485c-30.29-30.291-30.275-79.981.033-110.768a6 6 0 0 0 -.066-8.485z"/><path d="m195.968 161.574a6 6 0 0 0 8.486-.016 56.8 56.8 0 0 0 0-80 6 6 0 0 0 -8.5 8.468 44.774 44.774 0 0 1 0 63.065 6 6 0 0 0 .014 8.483z"/><path d="m238.042 185.962a6 6 0 0 0 8.485-.066c34.914-35.466 34.9-92.74-.033-127.671a6 6 0 1 0 -8.485 8.484c30.29 30.29 30.275 79.98-.033 110.769a6 6 0 0 0 .066 8.484z"/><path d="m344.215 337.418a30.791 30.791 0 1 0 0 61.582c16.678 0 30.241-13.377 30.877-30.57 0-.074 0-.1 0-.177a30.886 30.886 0 0 0 -30.877-30.835zm0 49.763a18.882 18.882 0 1 1 18.885-18.992c-.453 10.659-8.726 18.991-18.882 18.992z"/><path d="m267.228 337.418a30.791 30.791 0 1 0 0 61.582c16.678 0 30.241-13.377 30.877-30.57 0-.074 0-.1 0-.177a30.886 30.886 0 0 0 -30.877-30.835zm0 49.763a18.882 18.882 0 1 1 18.879-18.992c-.447 10.659-8.72 18.991-18.876 18.992z"/><path d="m174.618 362h-49.762a6 6 0 0 0 0 12h49.762a6 6 0 0 0 0-12z"/></svg>