<svg height="460pt" viewBox="-15 0 460 460.49307" width="460pt" xmlns="http://www.w3.org/2000/svg"><path d="m34.179688 340.535156c15.808593.039063 29.542968-10.878906 33.0625-26.292968h91v32h-50.519532c-3.316406 0-6.480468 2.695312-6.480468 6.007812v34.644531c-6.703126 1.339844-12.871094 4.601563-17.757813 9.382813-9.867187 9.734375-12.875 24.464844-7.617187 37.289062 5.261718 12.824219 17.75 21.199219 31.609374 21.199219 13.859376 0 26.347657-8.375 31.609376-21.199219 5.257812-12.824218 2.25-27.554687-7.617188-37.289062-4.925781-4.984375-11.308594-8.269532-18.226562-9.382813v-28.652343h51.382812c1.550781-.015626 3.027344-.660157 4.089844-1.792969 1.0625-1.132813 1.613281-2.648438 1.527344-4.199219v-38.007812h39v78.910156c-17.296876 3.105468-29.363282 18.90625-27.804688 36.414062 1.5625 17.507813 16.230469 30.925782 33.804688 30.925782 17.578124 0 32.246093-13.417969 33.804687-30.925782 1.558594-17.507812-10.503906-33.308594-27.804687-36.414062v-78.910156h39v38.007812c-.085938 1.550781.46875 3.066406 1.53125 4.199219 1.058593 1.132812 2.539062 1.777343 4.089843 1.792969h51.378907v28.652343c-6.917969 1.113281-13.304688 4.398438-18.230469 9.382813-13.171875 13.238281-13.136719 34.644531.078125 47.835937 13.21875 13.195313 34.621094 13.195313 47.839844 0 13.214843-13.191406 13.253906-34.597656.082031-47.835937-4.890625-4.78125-11.0625-8.042969-17.769531-9.382813v-34.644531c0-3.3125-3.164063-6.007812-6.476563-6.007812h-50.523437v-32h91c3.234374 14.050781 14.992187 24.523437 29.324218 26.117187 14.332032 1.589844 28.101563-6.050781 34.335938-19.050781s3.574218-28.523438-6.636719-38.703125c-13.230469-13.230469-35.027344-13.230469-48.027344 0v.042969c-5.054687 5.441406-8.378906 12.261718-9.554687 19.597656h-141.441406v-56.25c66.722656-3.253906 118.664062-59.144532 117.035156-125.925782s-56.234375-120.070312-123.035156-120.070312c-66.800782 0-121.40625 53.289062-123.035157 120.070312-1.628906 66.78125 50.3125 122.671876 117.035157 125.925782v56.246094h-141.445313c-.988281-7.40625-4.367187-14.289063-9.625-19.597657-10.851563-10.871093-27.648437-13.089843-40.953125-5.417969-13.300781 7.671876-19.789062 23.328126-15.816406 38.160157 3.972656 14.835937 17.417968 25.148437 32.777344 25.144531zm95.472656 79.738282c.027344 12.082031-9.714844 21.914062-21.796875 22-12.082031.085937-21.960938-9.609376-22.105469-21.691407-.140625-12.082031 9.507812-22.007812 21.589844-22.210937.125.007812.253906.023437.382812.023437s.253906-.015625.378906-.023437c11.960938.1875 21.558594 9.9375 21.550782 21.902344zm107.523437 6.277343c.003907 9.925781-6.664062 18.617188-16.253906 21.1875-9.589844 2.570313-19.710937-1.621093-24.671875-10.21875-4.964844-8.597656-3.535156-19.457031 3.484375-26.476562 3.984375-4 9.371094-6.296875 15.015625-6.398438.164062.011719.324219.023438.492188.023438.164062 0 .328124-.011719.492187-.023438 11.917969.246094 21.449219 9.984375 21.441406 21.90625zm101.101563 9.230469c-6.980469 7.003906-17.78125 8.472656-26.378906 3.585938-8.59375-4.890626-12.855469-14.921876-10.40625-24.503907 2.449218-9.578125 11.003906-16.335937 20.890624-16.496093.128907.007812.253907.019531.382813.019531s.257813-.011719.382813-.019531c8.804687.140624 16.664062 5.535156 19.964843 13.695312s1.394531 17.503906-4.835937 23.71875zm42.523437-144.691406c8.566407-8.566406 22.453125-8.566406 31.019531 0 8.566407 8.566406 8.566407 22.453125 0 31.019531-8.566406 8.566406-22.453124 8.566406-31.019531 0-8.550781-8.574219-8.550781-22.449219 0-31.019531zm-229.574219-128.742188c-.773437-7.632812 1.691407-15.242187 6.800782-20.96875 5.109375-5.722656 12.386718-9.039062 20.0625-9.132812h2.925781l8.5625 26.511718c.863281 2.484376 3.160156 4.183594 5.789063 4.289063l-7.132813 66.417969c-.054687.449218-.054687.898437-.007813 1.347656-13.273437-3.324219-25.8125-9.085938-36.984374-16.988281v-50.871094c0-.203125.007812-.402344-.015626-.605469zm49.246094 65.566406 8.253906-76.835937 6.132813-6.855469 6.960937 7.402344 8.195313 76.289062-5.875 5.875c-2.933594.234376-5.902344.351563-8.902344.355469-3 .003907-5.964843-.113281-8.898437-.355469zm78.785156-65.566406c-.019531.199219-.015624.398438-.015624.605469v50.871094c-11.167969 7.90625-23.707032 13.671875-36.980469 17 .046875-.441407.046875-.890625 0-1.332031l-7.136719-66.394532c.4375.007813.871094-.03125 1.300781-.117187 2.066407-.507813 3.734375-2.035157 4.425781-4.046875l9.515626-26.691406h2.039062c7.671875.097656 14.949219 3.410156 20.054688 9.136718 5.109374 5.722656 7.574218 13.332032 6.796874 20.964844zm-175.101562-39.273437c.183594-61.222657 49.867188-110.753907 111.085938-110.753907 61.222656 0 110.902343 49.53125 111.085937 110.753907.207031 30.714843-12.527344 60.097656-35.085937 80.949219v-40.78125c1.023437-10.964844-2.59375-21.855469-9.972657-30.027344-7.382812-8.171875-17.851562-12.878906-28.863281-12.972656h-6.261719c-2.566406.085937-4.8125 1.746093-5.648437 4.175781l-7.632813 21.335937-13.742187-14.566406c-1.15625-1.21875-2.773438-1.894531-4.453125-1.867188-1.679688.027344-3.269531.757813-4.390625 2.011719l-12.515625 14-6.6875-20.742187c-.78125-2.515625-3.070313-4.257813-5.703125-4.347656h-7.28125c-11.015625.09375-21.484375 4.796874-28.867188 12.96875-7.382812 8.171874-11.003906 19.066406-9.980468 30.03125v40.777343c-22.554688-20.847656-35.292969-50.230469-35.085938-80.945312zm-85.488281 168.015625c7.398437-7.398438 18.992187-8.542969 27.695312-2.726563 8.699219 5.8125 12.082031 16.960938 8.078125 26.628907-4.003906 9.667968-14.28125 15.160156-24.542968 13.121093-10.265626-2.042969-17.65625-11.050781-17.65625-21.515625-.007813-5.816406 2.304687-11.398437 6.425781-15.507812zm0 0"/><path d="m251.242188 72.742188c0-20.710938-16.789063-37.5-37.5-37.5-20.710938 0-37.5 16.789062-37.5 37.5v13c0 20.710937 16.789062 37.5 37.5 37.5 20.710937 0 37.5-16.789063 37.5-37.5zm-12 13c0 14.082031-11.414063 25.5-25.5 25.5-14.082032 0-25.5-11.417969-25.5-25.5v-13c0-14.082032 11.417968-25.5 25.5-25.5 14.085937 0 25.5 11.417968 25.5 25.5zm0 0"/></svg>