<svg height="434pt" viewBox="0 -24 434 434" width="434pt" xmlns="http://www.w3.org/2000/svg"><path d="m6.460938 386h421.074218c3.445313-.058594 6.265625-2.761719 6.464844-6.199219v-29.414062c-.183594-3.476563-2.984375-6.242188-6.464844-6.386719h-385.535156v-337.800781c-.042969-3.375-2.75-6.1171878-6.125-6.199219h-29.414062c-3.445313.0585938-6.261719 2.761719-6.460938 6.199219v373.601562c.199219 3.4375 3.015625 6.140625 6.460938 6.199219zm5.539062-374h18v338.386719c-.011719 1.539062.613281 3.015625 1.722656 4.078125 1.113282 1.0625 2.617188 1.617187 4.152344 1.535156h386.125v18h-410zm0 0"/><path d="m390 98c0-3.3125-2.6875-6-6-6h-26c-3.3125 0-6 2.6875-6 6v206c0 3.3125 2.6875 6 6 6h26c3.3125 0 6-2.6875 6-6zm-11 200h-15v-194h15zm0 0"/><path d="m321 186c0-3.3125-2.6875-6-6-6h-26c-3.3125 0-6 2.6875-6 6v118c0 3.3125 2.6875 6 6 6h26c3.3125 0 6-2.6875 6-6zm-12 112h-14v-106h14zm0 0"/><path d="m251 153c0-3.3125-2.6875-6-6-6h-26c-3.3125 0-6 2.6875-6 6v151c0 3.3125 2.6875 6 6 6h26c3.3125 0 6-2.6875 6-6zm-12 145h-14v-139h14zm0 0"/><path d="m181 210c0-3.3125-2.6875-6-6-6h-26c-3.3125 0-6 2.6875-6 6v94c0 3.3125 2.6875 6 6 6h26c3.3125 0 6-2.6875 6-6zm-12 88h-14v-82h14zm0 0"/><path d="m112 181c0-3.3125-2.6875-6-6-6h-26c-3.3125 0-6 2.6875-6 6v123c0 3.3125 2.6875 6 6 6h26c3.3125 0 6-2.6875 6-6zm-12 117h-14v-111h14zm0 0"/><path d="m93.804688 158.09375c10.175781.007812 19.757812-4.785156 25.855468-12.929688 6.097656-8.148437 8-18.691406 5.128906-28.453124l29.410157-15.84375c6.65625 13.445312 21.691406 20.535156 36.296875 17.117187 14.601562-3.417969 24.929687-16.445313 24.925781-31.445313 0-.144531-.007813-.289062-.011719-.433593l34.246094-4.457031c2.878906 16.507812 17.902344 28.070312 34.597656 26.625 16.691406-1.449219 29.503906-15.425782 29.5-32.179688 0-.816406-.039062-1.621094-.097656-2.417969l33.792969-18.503906c11.683593 11.800781 30.429687 12.78125 43.277343 2.261719 12.851563-10.523438 15.589844-29.09375 6.320313-42.875-9.265625-13.78125-27.496094-18.253906-42.089844-10.320313-14.589843 7.929688-20.753906 25.660157-14.230469 40.933594l-30.328124 16.605469c-6.105469-12.351563-19.375-19.464844-33.039063-17.714844-13.664063 1.746094-24.714844 11.972656-27.515625 25.460938l-36.828125 4.792968c-5.839844-14.285156-20.972656-22.441406-36.117187-19.464844-15.140626 2.976563-26.0625 16.253907-26.058594 31.6875 0 .828126.039062 1.644532.097656 2.457032l-31.625 17.035156c-9.261719-11.949219-25.578125-15.871094-39.257812-9.4375-13.679688 6.4375-21.0625 21.503906-17.765626 36.261719 3.300782 14.753906 16.398438 25.242187 31.515626 25.238281zm276.628906-145.878906c11.207031 0 20.292968 9.085937 20.292968 20.296875 0 11.207031-9.085937 20.292969-20.292968 20.292969-11.210938 0-20.296875-9.085938-20.296875-20.292969.015625-11.203125 9.09375-20.28125 20.296875-20.296875zm-88.96875 43.585937c11.207031 0 20.292968 9.085938 20.292968 20.292969s-9.085937 20.292969-20.292968 20.292969c-11.207032 0-20.292969-9.085938-20.292969-20.292969.011719-11.203125 9.089844-20.28125 20.292969-20.292969zm-98.332032 10.445313c11.207032 0 20.292969 9.085937 20.292969 20.292968 0 11.210938-9.085937 20.296876-20.292969 20.296876-11.207031 0-20.292968-9.085938-20.292968-20.296876.011718-11.203124 9.089844-20.28125 20.292968-20.292968zm-89.328124 39.261718c11.210937 0 20.296874 9.085938 20.296874 20.292969s-9.089843 20.292969-20.296874 20.292969c-11.207032 0-20.292969-9.085938-20.292969-20.292969.011719-11.203125 9.089843-20.28125 20.292969-20.292969zm0 0"/></svg>