<svg height="484pt" viewBox="0 -109 484.31752 484" width="484pt" xmlns="http://www.w3.org/2000/svg"><path d="m356.070312 73.71875c-.035156 15.019531 7.964844 28.90625 20.972657 36.410156 13.007812 7.5 29.035156 7.46875 42.015625-.085937 12.976562-7.550781 20.921875-21.472657 20.824218-36.488281l-.667968-40.828126c-.023438-17.976562-14.585938-32.539062-32.558594-32.5625-1.148438-.050781-2.285156.234376-3.273438.824219l-9.089843 5.765625h-25.523438c-7.484375.125-13.511719 6.175782-13.613281 13.664063v22.144531c0 .042969.125.085938.125.128906zm41.90625 29.84375c-16.507812-.019531-29.886718-13.398438-29.90625-29.910156 0-.042969-.121093-.085938-.121093-.128906l-.792969-31.023438v-.265625c11 8.011719 25.117188 5.8125 35.960938 4.160156 17.011718-2.589843 22.230468-2.101562 24.363281 6.398438l.375 20.859375c-.003907 16.503906-13.371094 29.886718-29.878907 29.910156zm-29.207031-84.808594h27.300781c1.148438.050782 2.285157-.234375 3.269532-.824218l8.992187-5.769532c10.699219.917969 18.910157 9.886719 18.882813 20.625l.035156 2.132813c-7.800781-3.140625-17.679688-1.636719-25.820312-.394531-18.574219 2.828124-29.46875 3.386718-33.804688-15.003907.238281-.425781.664062-.710937 1.144531-.765625zm0 0"/><path d="m440.605469 111.753906h-9.066407c-1.230468.027344-2.421874.425782-3.417968 1.144532l-29.832032 20.71875-27.980468-20.640626c-1.023438-.773437-2.269532-1.203124-3.550782-1.222656h-10.226562c-12.234375.023438-23.894531 5.179688-32.140625 14.214844s-12.324219 21.113281-11.234375 33.300781v.609375c-8.078125-6.078125-17.949219-9.289062-28.058594-9.125h-91.691406c-8.253906-.074218-16.375 2.046875-23.535156 6.148438-4.742188-19.40625-22.101563-33.082032-42.078125-33.148438h-22.992188c-1.898437-.015625-3.691406.875-4.824219 2.398438l-14.507812 19.613281-13.875-19.511719c-1.128906-1.578125-2.953125-2.511718-4.894531-2.5h-22.980469c-12.226562-.039062-23.90625 5.058594-32.1875 14.050782-8.285156 8.992187-12.410156 21.050781-11.375 33.230468v48.902344c0 3.3125 3.125 5.816406 6.441406 5.816406h140.558594v33.589844c0 3.3125 2.449219 6.410156 5.761719 6.410156h172.65625c3.3125 0 5.582031-3.097656 5.582031-6.410156v-32.589844h146.5625c3.3125 0 6.4375-2.574218 6.4375-5.886718v-61.601563c1.046875-12.203125-3.066406-24.289063-11.34375-33.316406-8.277344-9.03125-19.957031-14.179688-32.207031-14.195313zm-7.191407 12h2.59375l-20.691406 24.359375-7.433594-6.625zm-68.628906 0 23.964844 17.699219-7.226562 6.59375-21.25-24.292969zm-130.402344 62.433594h9.789063l7.625 37.367188-12.425781 10.496093-11.621094-10.4375zm9.382813-12.433594h-9.035156l-2.757813-11h14.546875zm-135.9375-38h.878906l1.550781 23.824219-15.453124-6.214844zm-45.054687 0h.828124l12.507813 17.574219-14.972656 6.179687zm-50.425782 34.382813c-.839844-8.824219 2.089844-17.59375 8.066406-24.144531 5.972657-6.546876 14.4375-10.269532 23.304688-10.238282h7.027344l-2.246094 32.546875c-.136719 2.070313.800781 4.058594 2.484375 5.269531 1.683594 1.207032 3.871094 1.457032 5.785156.664063l21.386719-8.8125v48.332031h-66v-43.011718c0-.199219.210938-.402344.191406-.605469zm77.808594 43.617187v-49.382812l24.460938 9.871094c1.90625.765624 4.074218.507812 5.742187-.695313 1.671875-1.199219 2.609375-3.167969 2.488281-5.222656l-2.117187-32.570313h7.0625c16.65625-.035156 30.40625 13 31.261719 29.632813-.101563.101562-.082032.195312-.175782.300781-8.636718 9.78125-12.875 22.683594-11.722656 35.683594v12.382812zm229.238281-13.28125c-.019531.199219-.238281.398438-.238281.605469v52.675781h-160v-52.675781c0-.199219-.128906-.402344-.148438-.605469-1-9.699218 2.183594-19.359375 8.753907-26.5625 6.566406-7.203125 15.894531-11.261718 25.644531-11.15625h26.25l3.855469 16.40625c-.015625.070313-.046875.019532-.058594.09375l-8.066406 45.398438c-.445313 2.089844.265625 4.261718 1.863281 5.683594l17.988281 16.144531c2.230469 1.996093 5.59375 2.042969 7.878907.109375l19.144531-16.164063c1.679687-1.414062 2.449219-3.632812 2.007812-5.78125l-9.304687-45.402343 3.871094-16.488282h26.261718c9.738282-.097656 19.054688 3.964844 25.605469 11.171875 6.550781 7.203125 9.714844 16.863281 8.695313 26.546875zm152.574219-42.101562c-.019531.199218.1875.402344.1875.605468v55.777344h-141v-13.382812c1.066406-9.714844-1.039062-19.511719-6-27.929688v-14.464844c0-.199218.117188-.40625.101562-.605468-1.410156-14.324219 7.105469-27.769532 20.652344-32.617188l30.617188 34.933594c1.066406 1.214844 2.578125 1.949219 4.191406 2.039062 1.613281.085938 3.195312-.476562 4.390625-1.570312l13.140625-12.058594 13.683594 12.128906c1.207031 1.066407 2.792968 1.605469 4.398437 1.492188 1.609375-.109375 3.101563-.867188 4.148438-2.09375l29.945312-35.136719c13.996094 4.554688 22.953125 18.222657 21.542969 32.875zm0 0"/><path d="m44.003906 98.195312c.058594 2.011719 1.105469 3.863282 2.800782 4.949219l35.617187 23.28125c1.992187 1.296875 4.558594 1.308594 6.558594.027344l36.25-23.285156c1.738281-1.113281 2.78125-3.042969 2.761719-5.105469l-.671876-65.210938c0-.5625-.011718-1.117187-.039062-1.671874-.492188-9.453126-5.230469-18.179688-12.890625-23.742188-7.886719-5.894531-18.007813-7.914062-27.550781-5.5l-19.304688 4.816406h-6.382812c-9.890625.179688-17.851563 8.171875-17.996094 18.0625v17.945313zm71.421875-55.421874.246094 23.953124-3.011719 2.121094c-.929687.640625-2.042968.957032-3.167968.90625h-7.148438c-1.453125.054688-2.863281-.507812-3.875-1.550781-3.296875-3.511719-7.894531-5.507813-12.710938-5.515625-4.816406-.003906-9.421874 1.976562-12.726562 5.480469-1.011719 1.050781-2.417969 1.628906-3.875 1.585937h-7.144531c-1.128907.050782-2.242188-.265625-3.167969-.90625l-3.042969-2.226562-.164062-13.5c2.101562-8.730469 7.199219-9.238282 24.363281-6.625 11.125 1.699218 25.140625 3.84375 35.425781-3.722656zm-29.644531 71.480468-29.640625-19.402344-.167969-14.054687c1.9375.679687 3.984375 1 6.039063.953125h7.144531c4.816406.054688 9.433594-1.917969 12.722656-5.4375 1.019532-1.035156 2.410156-1.617188 3.863282-1.625 1.453124-.007812 2.851562.566406 3.882812 1.589844 3.28125 3.527344 7.898438 5.515625 12.71875 5.476562h7.148438c2.15625.046875 4.300781-.316406 6.324218-1.0625l.144532 14.097656zm-24.628906-95.5h7.152344c.5.066406 1.007812.074219 1.507812.015625l20.050781-5.109375c6.023438-1.554687 12.429688-.304687 17.429688 3.398438 2.894531 2.121094 5.160156 4.992187 6.546875 8.300781-5.257813 12.632813-15.921875 11.769531-32.207032 9.285156-8.308593-1.265625-18.476562-2.792969-26.476562.609375v-10.4375c.136719-3.265625 2.730469-5.894531 5.996094-6.0625zm0 0"/><path d="m93.15625 88.753906h-15c-3.3125 0-6 2.683594-6 6 0 3.3125 2.6875 6 6 6h15c3.316406 0 6-2.6875 6-6 0-3.316406-2.683594-6-6-6zm0 0"/><path d="m239.15625 146.246094c24.898438-.042969 45.046875-20.261719 45-45.160156v-27.3125c.042969-14.390626-6.796875-27.9375-18.40625-36.445313 2.484375-10.910156-1.957031-22.234375-11.199219-28.546875-9.242187-6.308594-21.40625-6.328125-30.667969-.046875-9.261718 6.285156-13.738281 17.59375-11.289062 28.515625-10.386719 7.566406-17.03125 19.222656-18.253906 32.015625-.179688 1.828125-.183594 14.300781-.183594 14.425781v17.394532c-.046875 24.898437 20.101562 45.117187 45 45.160156zm.089844-130.222656c8.429687.007812 15.269531 6.828124 15.300781 15.261718-4.90625-1.773437-10.085937-2.675781-15.300781-2.671875-5.210938-.003906-10.382813.886719-15.289063 2.640625.046875-8.417968 6.875-15.214844 15.289063-15.230468zm-.125 24.589843c18.28125.03125 33.074218 14.878907 33.035156 33.160157v3.898437c0 .1875-.828125.339844-1.054688.347656-13.605468 0-24.199218-8.023437-24.199218-18.265625.015625-1.585937-.605469-3.109375-1.71875-4.238281-1.113282-1.125-2.632813-1.761719-4.21875-1.761719h-.898438c-3.3125 0-6 2.683594-6 6 0 10.242188-10.65625 18.265625-24.265625 18.265625-1.238281-.035156-2.472656-.21875-3.667969-.554687.03125-3.140625.011719-6.347656.058594-7.015625 1.621094-16.957031 15.894532-29.894531 32.929688-29.835938zm-32.964844 49.089844c1.214844.210937 2.445312.316406 3.675781.316406 13.089844 0 24.332031-5.507812 30.699219-13.957031 6.363281 8.449219 17.492188 13.957031 30.582031 13.957031.347657.011719.699219-.011719 1.042969-.066406v11.128906c0 18.226563-14.773438 33-33 33-18.222656 0-33-14.773437-33-33zm0 0"/></svg>