<svg height="454pt" viewBox="0 -21 454.75578 454" width="454pt" xmlns="http://www.w3.org/2000/svg"><path d="m442.527344 129.398438c0-3.316407-2.6875-6-6-6h-43c-3.3125 0-6 2.683593-6 6v277c0 3.3125 2.6875 6 6 6h43c3.3125 0 6-2.6875 6-6zm-12 271h-31v-265h31zm0 0"/><path d="m348.527344 248.398438c0-3.316407-2.6875-6-6-6h-43c-3.3125 0-6 2.683593-6 6v159c0 3.3125 2.6875 6 6 6h43c3.3125 0 6-2.6875 6-6zm-43 6h32v146h-32zm0 0"/><path d="m254.527344 203.398438c0-3.316407-2.6875-6-6-6h-43c-3.3125 0-6 2.683593-6 6v203c0 3.3125 2.6875 6 6 6h43c3.3125 0 6-2.6875 6-6zm-43 6h32v191h-32zm0 0"/><path d="m160.527344 280.398438c0-3.316407-2.6875-6-6-6h-43c-3.3125 0-6 2.683593-6 6v126c0 3.3125 2.6875 6 6 6h43c3.3125 0 6-2.6875 6-6zm-11 120h-32v-114h32zm0 0"/><path d="m67.527344 241.398438c0-3.316407-2.6875-6-6-6h-43c-3.3125 0-6 2.683593-6 6v165c0 3.3125 2.6875 6 6 6h43c3.3125 0 6-2.6875 6-6zm-12 159h-31v-153h31zm0 0"/><path d="m41.382812 208.519531c13.332032.007813 25.851563-6.414062 33.628907-17.25 7.773437-10.832031 9.847656-24.75 5.570312-37.378906l43.035157-23.179687c7.78125 18.015624 27.152343 28.085937 46.371093 24.113281 19.21875-3.976563 33-20.90625 32.996094-40.53125 0-.699219-.015625-1.398438-.050781-2.097657l50.359375-4.1875c4.15625 21.8125 24.792969 36.457032 46.753906 33.179688 21.964844-3.277344 37.425781-23.304688 35.035156-45.378906l48.0625-26.3125c14.605469 15.914062 39.019531 17.859375 55.957031 4.457031 16.941407-13.402344 20.671876-37.605469 8.546876-55.484375-12.125-17.878906-35.988282-23.367188-54.707032-12.585938s-25.945312 34.179688-16.566406 53.636719l-44.4375 24.335938c-7.457031-17.300781-25.664062-27.382813-44.289062-24.523438-18.621094 2.863281-32.960938 17.941407-34.882813 36.6875l-52.199219 4.339844c-7.066406-19.753906-27.796875-31.097656-48.242187-26.394531-20.445313 4.707031-34.136719 23.964844-31.859375 44.820312l-45.34375 24.421875c-11.335938-15.980469-32.332032-21.820312-50.292969-13.984375-17.960937 7.839844-27.960937 27.199219-23.953125 46.382813 4.003906 19.179687 20.914062 32.921875 40.511719 32.917969zm372.292969-196.324219c16.226563 0 29.382813 13.160157 29.382813 29.390626 0 16.226562-13.15625 29.386718-29.386719 29.382812-16.230469 0-29.386719-13.15625-29.386719-29.386719.019532-16.222656 13.164063-29.367187 29.390625-29.386719zm-119.738281 58.652344c16.230469 0 29.386719 13.15625 29.386719 29.386719s-13.15625 29.386719-29.386719 29.386719-29.386719-13.15625-29.386719-29.386719c.019531-16.222656 13.164063-29.367187 29.386719-29.386719zm-132.335938 14.058594c16.230469 0 29.386719 13.15625 29.386719 29.386719s-13.15625 29.386719-29.382812 29.386719c-16.230469.003906-29.390625-13.152344-29.390625-29.382813.015625-16.222656 13.164062-29.371094 29.386718-29.390625zm-120.21875 52.839844c16.230469 0 29.386719 13.15625 29.386719 29.386718 0 16.226563-13.15625 29.386719-29.386719 29.386719-16.230468 0-29.386718-13.15625-29.386718-29.386719.019531-16.222656 13.164062-29.367187 29.386718-29.386718zm0 0"/></svg>