<svg id="Layer_1" height="512" viewBox="0 0 512 512" width="512" xmlns="http://www.w3.org/2000/svg" data-name="Layer 1"><path d="m339.015 7h-165.878c-3.314 0-6.137 2.236-6.137 5.55v58.183c0 .409-.137.832-.137 1.267s.137.858.137 1.267v41.466c0 .409-.137.832-.137 1.267s.137.858.137 1.267v40.466c0 .409-.137.832-.137 1.267s.137.858.137 1.267v40.466c0 .409-.137.832-.137 1.267s.137.858.137 1.267v40.466c0 .409-.137.832-.137 1.267s.137.858.137 1.267v39.466c0 .409-.137.832-.137 1.267s.137.858.137 1.267v40.466c0 .409-.137.832-.137 1.267s.137.858.137 1.267v40.466c0 .409-.137.832-.137 1.267s.137.858.137 1.267v40.466c0 .409-.137.832-.137 1.267s.137.858.137 1.267v40.466c0 .409-.137.832-.137 1.267s.137.858.137 1.267v39.183c0 3.314 2.823 5.55 6.137 5.55h165.878c3.314 0 5.985-2.236 5.985-5.55v-486.9c0-3.314-2.671-5.55-5.985-5.55zm-160.015 458h15a6 6 0 0 0 0-12h-15v-31h22a6 6 0 0 0 0-12h-22v-31h15a6 6 0 0 0 0-12h-15v-31h22a6 6 0 0 0 0-12h-22v-31h15a6 6 0 0 0 0-12h-15v-30h22a6 6 0 0 0 0-12h-22v-31h15a6 6 0 0 0 0-12h-15v-31h22a6 6 0 0 0 0-12h-22v-31h15a6 6 0 0 0 0-12h-15v-32h22a6 6 0 0 0 0-12h-22v-47h44v474h-44zm154 28h-98v-474h98z"/></svg>