<svg height="436pt" viewBox="0 -21 436.494 436" width="436pt" xmlns="http://www.w3.org/2000/svg"><path d="m394.5.246094c-14.886719-.007813-28.660156 7.867187-36.207031 20.699218-7.542969 12.832032-7.726563 28.699219-.476563 41.703126l-45.347656 38c-8.238281-10.746094-21.164062-16.851563-34.699219-16.398438-13.535156.457031-26.015625 7.421875-33.511719 18.699219l-51.21875-33.007813c.105469-1.222656.171876-2.457031.171876-3.710937.019531-17.632813-10.984376-33.402344-27.539063-39.472657-16.558594-6.066406-35.144531-1.144531-46.527344 12.324219-11.382812 13.46875-13.136719 32.613281-4.394531 47.929688l-52.480469 51.300781c-19.386719-10.566406-43.640625-4.367188-55.582031 14.207031-11.9375 18.570313-7.507812 43.210938 10.152344 56.460938 17.664062 13.25 42.558594 10.613281 57.050781-6.046875 14.492187-16.65625 13.660156-41.679688-1.90625-57.335938l50.199219-49.070312c10.003906 9.609375 24.109375 13.65625 37.683594 10.800781 13.578124-2.851563 24.863281-12.230469 30.152343-25.054687l49.035157 31.601562c-5.417969 17.558594 1.207031 36.601562 16.351562 47.003906 15.148438 10.402344 35.300781 9.753906 49.742188-1.605468 14.445312-11.359376 19.828124-30.789063 13.289062-47.960938l46.667969-39.113281c13.527343 13.277343 34.273437 15.839843 50.628906 6.261719 16.351563-9.582032 24.257813-28.933594 19.292969-47.222657-4.964844-18.292969-21.574219-30.988281-40.527344-30.984375zm-352.261719 204.953125c-16.566406 0-29.996093-13.429688-29.996093-29.992188 0-16.566406 13.429687-29.996093 29.996093-29.996093 16.566407 0 29.992188 13.429687 29.992188 29.996093-.019531 16.554688-13.433594 29.972657-29.992188 29.992188zm108.980469-108.976563c-16.566406 0-29.996094-13.429687-29.996094-29.996094 0-16.5625 13.429688-29.992187 29.992188-29.992187 16.566406 0 29.996094 13.425781 29.996094 29.992187-.019532 16.558594-13.4375 29.976563-29.992188 29.996094zm127.96875 59.988282c-16.5625 0-29.992188-13.425782-29.992188-29.992188 0-16.5625 13.429688-29.992188 29.992188-29.992188 16.566406 0 29.996094 13.429688 29.996094 29.992188-.019532 16.558594-13.4375 29.972656-29.996094 29.992188zm115.3125-83.976563c-16.566406 0-29.992188-13.429687-29.992188-29.996094 0-16.5625 13.425782-29.992187 29.992188-29.992187s29.992188 13.429687 29.992188 29.992187c-.019532 16.558594-13.433594 29.976563-29.992188 29.996094zm0 0"/><path d="m200.367188 184.082031c0-3.316406-2.683594-6-6-6h-62c-3.3125 0-6 2.683594-6 6v204c0 3.3125 2.6875 6 6 6h62c3.316406 0 6-2.6875 6-6zm-62 6h50v192h-50zm0 0"/><path d="m85.367188 277.082031c0-3.316406-2.683594-6-6-6h-62c-3.3125 0-6 2.683594-6 6v111c0 3.3125 2.6875 6 6 6h62c3.316406 0 6-2.6875 6-6zm-13 105h-49v-99h49zm0 0"/><path d="m315.367188 242.082031c0-3.316406-2.683594-6-6-6h-62c-3.3125 0-6 2.683594-6 6v146c0 3.3125 2.6875 6 6 6h62c3.316406 0 6-2.6875 6-6zm-62 6h50v134h-50zm0 0"/><path d="m431.367188 184.082031c0-3.316406-2.683594-6-6-6h-62c-3.3125 0-6 2.683594-6 6v204c0 3.3125 2.6875 6 6 6h62c3.316406 0 6-2.6875 6-6zm-13 198h-49v-192h49zm0 0"/></svg>