<svg height="460pt" viewBox="-14 0 460 460.00602" width="460pt" xmlns="http://www.w3.org/2000/svg"><path d="m63.679688 311.007812h81.207031c3.316406 0 6-2.6875 6-6 0-3.316406-2.683594-6-6-6h-81.207031c-3.3125 0-6 2.683594-6 6 0 3.3125 2.6875 6 6 6zm0 0"/><path d="m281.515625 258.007812h-22.511719v-116.140624c.070313-1.539063-.496094-3.042969-1.566406-4.152344s-2.554688-1.726563-4.09375-1.707032h-29.089844c-3.335937-.085937-6.121094 2.523438-6.25 5.859376v116.140624h-15v-84c.050782-1.570312-.535156-3.089843-1.625-4.21875-1.085937-1.128906-2.582031-1.773437-4.152344-1.78125h-29.089843c-3.339844-.011718-6.070313 2.660157-6.132813 6v84h-15v-45.363281c.007813-1.542969-.617187-3.023437-1.734375-4.089843-1.113281-1.066407-2.617187-1.625-4.160156-1.546876h-29.089844c-1.550781-.085937-3.074219.46875-4.207031 1.535157-1.136719 1.0625-1.789062 2.542969-1.808594 4.101562v45.363281h-36v-188.0625c0-3.3125-2.6875-6-6-6s-6 2.6875-6 6v194.210938c-.070312 1.539062.5 3.042969 1.574219 4.148438 1.074219 1.109374 2.558594 1.722656 4.101563 1.703124h217.835937c3.3125 0 6-2.6875 6-6 0-3.316406-2.6875-6-6-6zm-51.511719-110h17v110h-17zm-56 32h17v78h-17zm-56 39h17v39h-17zm0 0"/><path d="m85.566406 172.390625c.207032 0 .417969-.011719.625-.035156 1.074219-.109375 26.65625-2.890625 58.207032-17.464844 26.367187-12.179687 61.476562-35.039063 85.960937-76.1875l6.65625 33.273437c.648437 3.25 3.808594 5.355469 7.058594 4.707032 3.25-.648438 5.355469-3.8125 4.707031-7.0625l-9.699219-48.507813c-.570312-1.84375-1.894531-3.359375-3.644531-4.171875-1.75-.816406-3.761719-.851562-5.539062-.097656l-46.414063 9.535156c-2.121094.410156-3.855469 1.929688-4.542969 3.976563s-.226562 4.304687 1.214844 5.914062c1.4375 1.609375 3.632812 2.320313 5.742188 1.863281l35.128906-7.214843c-18.398438 31.878906-45.683594 56.371093-81.269532 72.898437-29.800781 13.84375-54.5625 16.578125-54.808593 16.601563-3.175781.328125-5.535157 3.085937-5.371094 6.277343.164063 3.1875 2.796875 5.6875 5.988281 5.691407zm0 0"/><path d="m281.515625 340.007812h-217.835937c-3.3125 0-6 2.683594-6 6 0 3.3125 2.6875 6 6 6h217.835937c3.3125 0 6-2.6875 6-6 0-3.316406-2.6875-6-6-6zm0 0"/><path d="m336.410156.0078125h-330.523437c-1.542969-.0742187-3.046875.4960935-4.160157 1.5664065-1.113281 1.070312-1.7343745 2.554687-1.72265575 4.097656v392.609375c.07812495 34.144531 27.80859375 61.769531 61.95312475 61.726562h319.324219c27.960938.054688 50.667969-22.566406 50.722656-50.527343v-133.921875c0-3.316406-2.570312-5.550782-5.882812-5.550782h-84.117188v-264.335937c.078125-1.511719-.484375-2.988281-1.546875-4.066406-1.066406-1.078125-2.535156-1.6601565-4.046875-1.5976565zm-274.433594 447.9999995c-27.535156.058594-49.90625-22.210937-49.972656-49.742187v-386.257813h318v397.492188c.113282 14.976562 6.945313 29.113281 18.613282 38.507812zm358.027344-166v127.457032c-.019531 10.246094-4.109375 20.066406-11.371094 27.296875-7.261718 7.230469-17.101562 11.273437-27.351562 11.246093h-.015625l-.199219.164063c-21.371094-.074219-39.0625-17.34375-39.0625-38.6875v-127.476563zm0 0"/></svg>