<svg height="466pt" viewBox="0 -32 466.1065 466" width="466pt" xmlns="http://www.w3.org/2000/svg"><path d="m466 396.550781v-34.5c.015625-.441406-.019531-.882812-.101562-1.320312.046874-.21875.082031-.445313.101562-.667969v-219.386719c.140625-.746093.140625-1.511719 0-2.253906v-79.375c0-2.4375-1.472656-4.636719-3.730469-5.558594-2.261719-.921875-4.851562-.382812-6.558593 1.359375l-51.765626 52.902344-46.453124-28.984375c-2.519532-1.578125-5.820313-1.066406-7.746094 1.199219l-45.445313 53.492187-17.800781-7.492187c-2.617188-1.105469-5.652344-.21875-7.265625 2.121094l-29.214844 42.3125-48.957031-50c-1.496094-1.53125-3.695312-2.148438-5.769531-1.617188-2.074219.527344-3.710938 2.121094-4.292969 4.183594l-21.972656 77.421875-11.628906-7.269531c-2.601563-1.621094-6.007813-1.023438-7.898438 1.390624l-29.074219 37.101563-40.074219-42.082031c-1.421874-1.496094-3.511718-2.152344-5.535156-1.746094-2.070312.402344-3.804687 1.8125-4.617187 3.761719l-24.199219 63.511719v-249.480469c.070312-1.496094-.503906-2.957031-1.574219-4.007813-1.070312-1.050781-2.539062-1.597656-4.039062-1.503906h-34.5c-3.3125 0-5.886719 2.203125-5.886719 5.511719v390.976562c0 3.3125 2.574219 5.511719 5.890625 5.511719h454.21875c3.316406 0 5.890625-2.199219 5.890625-5.511719zm-420-40.488281v-2.28125l24.953125-46.425781 38.214844 8.242187c2.519531.542969 5.109375-.566406 6.453125-2.765625l33.410156-55.300781 30.359375 22.519531c2.582031 1.910157 6.207031 1.457031 8.234375-1.035156l51.550781-63.351563 51.726563 39.058594c2.578125 1.945313 6.230468 1.503906 8.269531-1l32.273437-39.558594 33.453126 21.285157c1.476562.9375 3.289062 1.1875 4.964843.679687 1.675781-.507812 3.042969-1.722656 3.75-3.320312l27.320313-62 25.367187 13.15625c2.546875 1.320312 5.675781.652344 7.460938-1.597656l20.238281-25.480469v199.175781zm32.050781-151.34375 38.375 40.199219c1.222657 1.261719 2.929688 1.9375 4.683594 1.855469 1.746094-.085938 3.371094-.921876 4.457031-2.292969l30.042969-38.324219 13.832031 8.636719c1.601563 1 3.578125 1.1875 5.339844.511719 1.761719-.679688 3.101562-2.148438 3.613281-3.964844l21.328125-75.148438 46.8125 47.796875c1.253906 1.28125 3.015625 1.933594 4.796875 1.78125 1.785157-.152343 3.410157-1.09375 4.429688-2.566406l30.578125-44.285156 17.351562 7.304687c2.414063 1.015625 5.207032.351563 6.902344-1.644531l44.941406-52.894531 46.144532 28.800781c2.390624 1.492187 5.496093 1.121094 7.464843-.890625l44.855469-45.835938v63.832032l-26.5625 33.449218-26.660156-13.824218c-1.472656-.761719-3.191406-.882813-4.757813-.332032-1.5625.550782-2.828125 1.722657-3.496093 3.238282l-27.082032 61.453125-32.050781-20.398438c-2.566406-1.632812-5.949219-1.089843-7.871094 1.265625l-32 39.222656-51.730469-39.0625c-2.574218-1.945312-6.230468-1.503906-8.269531 1l-51.574219 63.394532-31.039062-23.03125c-1.359375-1.007813-3.078125-1.394532-4.734375-1.070313-1.660156.328125-3.105469 1.339844-3.976563 2.785157l-34.582031 57.285156-38.359375-8.300782c-2.675781-.566406-5.410156.664063-6.757812 3.039063l-16.496094 30.574219v-39.289063zm375.949219 185.34375h-442v-378h22v349.992188c.183594 3.386718 2.996094 6.035156 6.386719 6.007812h413.613281zm0 0"/></svg>