<?xml version="1.0" encoding="iso-8859-1"?>
<!-- Generator: Adobe Illustrator 19.0.0, SVG Export Plug-In . SVG Version: 6.00 Build 0)  -->
<svg version="1.1" id="Capa_1" xmlns="http://www.w3.org/2000/svg" xmlns:xlink="http://www.w3.org/1999/xlink" x="0px" y="0px"
	 viewBox="0 0 512 512" style="enable-background:new 0 0 512 512;" xml:space="preserve">
<g>
	<g>
		<path d="M493.951,9.927H18.049C8.08,9.927,0,18.007,0,27.976v128.15c0,9.969,8.08,18.049,18.049,18.049h475.901
			c9.969,0,18.049-8.086,18.049-18.049V27.976C512,18.007,503.92,9.927,493.951,9.927z M475.901,138.078H36.099V46.026h439.803
			V138.078z"/>
	</g>
</g>
<g>
	<g>
		<rect x="403.416" y="20.818" transform="matrix(0.8995 -0.437 0.437 0.8995 2.2885 193.3952)" width="36.1" height="141.813"/>
	</g>
</g>
<g>
	<g>
		<rect x="292.708" y="20.822" transform="matrix(0.8995 -0.437 0.437 0.8995 -8.8432 145.0184)" width="36.1" height="141.813"/>
	</g>
</g>
<g>
	<g>
		<rect x="182.608" y="20.865" transform="matrix(0.8995 -0.437 0.437 0.8995 -19.9303 96.9106)" width="36.1" height="141.813"/>
	</g>
</g>
<g>
	<g>
		<rect x="71.901" y="20.87" transform="matrix(0.8995 -0.437 0.437 0.8995 -31.062 48.5333)" width="36.1" height="141.813"/>
	</g>
</g>
<g>
	<g>
		<path d="M493.951,202.454H18.049C8.08,202.454,0,210.534,0,220.503v128.15c0,9.969,8.08,18.049,18.049,18.049h475.901
			c9.969,0,18.049-8.08,18.049-18.049v-128.15C512,210.534,503.92,202.454,493.951,202.454z M475.901,330.604H36.099v-92.052
			h439.803V330.604z"/>
	</g>
</g>
<g>
	<g>
		<rect x="403.422" y="213.368" transform="matrix(0.8995 -0.437 0.437 0.8995 -81.8525 212.7548)" width="36.1" height="141.813"/>
	</g>
</g>
<g>
	<g>
		<rect x="292.708" y="213.385" transform="matrix(0.8995 -0.437 0.437 0.8995 -92.99 164.3764)" width="36.1" height="141.813"/>
	</g>
</g>
<g>
	<g>
		<rect x="182.608" y="213.38" transform="matrix(0.8995 -0.437 0.437 0.8995 -104.0563 116.2643)" width="36.1" height="141.813"/>
	</g>
</g>
<g>
	<g>
		<rect x="71.871" y="213.384" transform="matrix(0.8995 -0.437 0.437 0.8995 -115.1909 67.8739)" width="36.1" height="141.813"/>
	</g>
</g>
<g>
	<g>
		<rect x="40.31" y="155.525" width="36.099" height="64.978"/>
	</g>
</g>
<g>
	<g>
		<path d="M98.068,348.653v117.321H76.409V349.857H40.31v134.167c0,9.969,8.08,18.049,18.049,18.049h57.758
			c9.969,0,18.049-8.08,18.049-18.049v-135.37H98.068z"/>
	</g>
</g>
<g>
	<g>
		<rect x="98.068" y="156.127" width="36.099" height="64.376"/>
	</g>
</g>
<g>
	<g>
		<rect x="377.232" y="155.525" width="36.099" height="64.978"/>
	</g>
</g>
<g>
	<g>
		<path d="M434.989,348.653v117.321H413.33V349.857h-36.099v134.167c0,9.969,8.08,18.049,18.049,18.049h57.758
			c9.969,0,18.049-8.08,18.049-18.049v-135.37H434.989z"/>
	</g>
</g>
<g>
	<g>
		<rect x="434.989" y="156.127" width="36.099" height="64.376"/>
	</g>
</g>
<g>
</g>
<g>
</g>
<g>
</g>
<g>
</g>
<g>
</g>
<g>
</g>
<g>
</g>
<g>
</g>
<g>
</g>
<g>
</g>
<g>
</g>
<g>
</g>
<g>
</g>
<g>
</g>
<g>
</g>
</svg>
