<?xml version="1.0"?>
<svg xmlns="http://www.w3.org/2000/svg" id="Layer_1" data-name="Layer 1" viewBox="0 0 512 512" width="512" height="512"><title>Schedule</title><path d="M238,169a6,6,0,0,0-6-6H190a6,6,0,0,0-6,6v42a6,6,0,0,0,6,6h42a6,6,0,0,0,6-6Zm-12,36H196V175h30Z"/><path d="M238,239a6,6,0,0,0-6-6H190a6,6,0,0,0-6,6v42a6,6,0,0,0,6,6h42a6,6,0,0,0,6-6Zm-12,37H196V245h30Z"/><path d="M238,310a6,6,0,0,0-6-6H190a6,6,0,0,0-6,6v42a6,6,0,0,0,6,6h42a6,6,0,0,0,6-6Zm-12,36H196V316h30Z"/><path d="M168,169a6,6,0,0,0-6-6H120a6,6,0,0,0-6,6v42a6,6,0,0,0,6,6h42a6,6,0,0,0,6-6Zm-12,36H126V175h30Z"/><path d="M168,239a6,6,0,0,0-6-6H120a6,6,0,0,0-6,6v42a6,6,0,0,0,6,6h42a6,6,0,0,0,6-6Zm-12,37H126V245h30Z"/><path d="M168,310a6,6,0,0,0-6-6H120a6,6,0,0,0-6,6v42a6,6,0,0,0,6,6h42a6,6,0,0,0,6-6Zm-12,36H126V316h30Z"/><path d="M308,169a6,6,0,0,0-6-6H260a6,6,0,0,0-6,6v42a6,6,0,0,0,6,6h42a6,6,0,0,0,6-6Zm-11,36H266V175h31Z"/><path d="M308,239a6,6,0,0,0-6-6H260a6,6,0,0,0-6,6v42a6,6,0,0,0,6,6h42a6,6,0,0,0,6-6Zm-11,37H266V245h31Z"/><path d="M379,169a6,6,0,0,0-6-6H331a6,6,0,0,0-6,6v42a6,6,0,0,0,6,6h42a6,6,0,0,0,6-6Zm-42,6h30v30H337Z"/><path d="M379,239a6,6,0,0,0-6-6H331a6,6,0,0,0-6,6v42a6,6,0,0,0,6,6h42a6,6,0,0,0,6-6Zm-42,6h30v31H337Z"/><path d="M97,169a6,6,0,0,0-6-6H49a6,6,0,0,0-6,6v42a6,6,0,0,0,6,6H91a6,6,0,0,0,6-6ZM86,205H55V175H86Z"/><path d="M97,239a6,6,0,0,0-6-6H49a6,6,0,0,0-6,6v42a6,6,0,0,0,6,6H91a6,6,0,0,0,6-6ZM86,276H55V245H86Z"/><path d="M97,310a6,6,0,0,0-6-6H49a6,6,0,0,0-6,6v42a6,6,0,0,0,6,6H91a6,6,0,0,0,6-6ZM86,346H55V316H86Z"/><path d="M412,291.955V78.334A31.994,31.994,0,0,0,380.072,46H347V20.092A5.886,5.886,0,0,0,341.231,14H290.985A6.066,6.066,0,0,0,285,20.092V46H138V20.092A6.2,6.2,0,0,0,131.859,14H81.612C78.3,14,76,16.778,76,20.092V46H42.254A32.27,32.27,0,0,0,10,78.334v282.91C10,379.1,24.4,394,42.254,394h252.5s-.011.367-.011.646C294.745,451.689,341.26,498,398.435,498A103.471,103.471,0,0,0,412,291.955ZM297,26h38V73H297ZM88,26h38V73H88ZM42.254,58H76V79.423A5.332,5.332,0,0,0,81.612,85h50.247c3.313,0,6.141-2.264,6.141-5.577V58H285V79.423c0,3.313,2.671,5.577,5.985,5.577h50.246A5.459,5.459,0,0,0,347,79.423V58h33.072A19.983,19.983,0,0,1,400,78.334V122H22V78.334A20.258,20.258,0,0,1,42.254,58Zm0,324C31.017,382,22,372.48,22,361.244V134H400V291.032c0-.013-1.116.163-1.79.163C345.391,291.2,301.9,331,295.542,382ZM398.435,485.908c-50.558,0-91.69-41.024-91.69-91.45s41.132-91.452,91.69-91.452,91.69,41.025,91.69,91.452S448.993,485.908,398.435,485.908Z"/><path d="M443.065,332H361.052A16.992,16.992,0,0,0,344,349.216v91.323c0,.065-.156.13-.155.194,0,.091-.08,0-.08.087A17.161,17.161,0,0,0,361.053,458H437a5.691,5.691,0,0,0,6-5.627V436h.065c3.314,0,5.935-3.047,5.935-6.36V337.849A5.818,5.818,0,0,0,443.065,332ZM356,349.216A4.985,4.985,0,0,1,361.052,344H368v80h-6.947c-1.873,0-4.053-.062-5.053.488ZM431,446H361.053a5.013,5.013,0,1,1,0-10H431Zm6-22H380V344h57Z"/></svg>
