<svg height="466pt" viewBox="-78 0 466 466.41326" width="466pt" xmlns="http://www.w3.org/2000/svg"><path d="m154.914062 190.871094c-66.734374 0-120.835937 54.101562-120.835937 120.839844.003906 66.734374 54.105469 120.835937 120.839844 120.832031 66.738281 0 120.835937-54.101563 120.832031-120.839844-.074219-66.703125-54.132812-120.753906-120.835938-120.832031zm0 229.671875c-60.105468 0-108.832031-48.726563-108.835937-108.835938 0-60.105469 48.726563-108.835937 108.835937-108.835937 60.109376 0 108.835938 48.726562 108.835938 108.832031-.066406 60.082031-48.753906 108.769531-108.835938 108.835937zm0 0"/><path d="m262.914062 201.046875v-53.675781h23.5c2.375 0 4.527344-1.398438 5.488282-3.570313.960937-2.171875.550781-4.707031-1.046875-6.464843l-41.125-45.238282c-1.136719-1.25-2.75-1.964844-4.441407-1.964844-1.6875 0-3.300781.714844-4.4375 1.964844l-41.125 45.238282c-1.597656 1.757812-2.011718 4.289062-1.050781 6.460937.960938 2.171875 3.113281 3.574219 5.484375 3.574219h21.753906v26.90625c-14.425781-7.488282-29.953124-12.636719-46-15.253906v-75.652344h39.886719c2.375 0 4.527344-1.398438 5.488281-3.570313.957032-2.171875.546876-4.707031-1.050781-6.464843l-64.882812-71.371094c-1.136719-1.253906-2.75-1.964844-4.441407-1.964844-1.6875 0-3.300781.710938-4.4375 1.964844l-64.886718 71.371094c-1.59375 1.757812-2.007813 4.292968-1.046875 6.464843.960937 2.171875 3.113281 3.570313 5.488281 3.570313h37.882812v75.988281c-16.082031 2.84375-31.613281 8.238281-46 15.976563v-27.964844h23.753907c2.375 0 4.527343-1.398438 5.488281-3.570313s.550781-4.707031-1.046875-6.464843l-41.125-45.238282c-1.140625-1.25-2.75-1.964844-4.441406-1.964844-1.691407 0-3.300781.714844-4.4375 1.964844l-41.128907 45.238282c-1.597656 1.757812-2.007812 4.292968-1.046874 6.464843.960937 2.167969 3.113281 3.570313 5.484374 3.570313h21.5v55.660156c-28.660156 28.902344-44.730468 67.96875-44.707031 108.671875 0 85.308594 69.398438 154.710937 154.707031 154.710937 85.3125 0 154.710938-69.402343 154.710938-154.710937.019531-41.679687-16.828125-81.597656-46.710938-110.65625zm-31-65.675781h-14.1875l27.5625-30.316406 27.5625 30.316406h-15.9375c-3.3125 0-6 2.6875-6 6v49.101562c-4.171874-3.3125-8.507812-6.40625-13-9.273437v-39.828125c0-3.3125-2.683593-6-6-6zm-98-64h-30.320312l51.320312-56.453125 51.324219 56.453125h-32.324219c-3.3125 0-6 2.6875-6 6v80.175781c-4.285156-.359375-8.621093-.550781-13-.550781-5.058593 0-10.058593.25-15 .726562v-80.351562c0-3.3125-2.683593-6-6-6zm-96.933593 64 27.5625-30.316406 27.5625 30.316406h-16.191407c-3.3125 0-6 2.6875-6 6v41.132812c-4.496093 2.96875-8.832031 6.164063-13 9.578125v-50.710937c0-3.3125-2.683593-6-6-6zm117.933593 319.042968c-78.6875 0-142.707031-64.019531-142.707031-142.710937 0-78.6875 64.019531-142.707031 142.707031-142.707031 78.691407 0 142.710938 64.019531 142.710938 142.707031 0 78.691406-64.019531 142.710937-142.710938 142.710937zm0 0"/><path d="m154.914062 250.871094c14.921876.019531 27.015626 12.109375 27.03125 27.03125 0 3.3125 2.6875 6 6 6s6-2.6875 6-6c-.023437-19.234375-14.03125-35.589844-33.03125-38.570313v-12.960937c0-3.3125-2.683593-6-6-6-3.3125 0-6 2.6875-6 6v12.960937c-20.15625 3.121094-34.511718 21.238281-32.9375 41.578125 1.574219 20.335938 18.539063 36.035156 38.9375 36.019532 14.929688 0 27.03125 12.101562 27.03125 27.03125 0 14.925781-12.101562 27.027343-27.03125 27.027343-14.925781 0-27.027343-12.101562-27.027343-27.027343 0-3.316407-2.6875-6-6-6s-6 2.683593-6 6c.027343 19.226562 14.03125 35.582031 33.027343 38.5625v13.847656c0 3.316406 2.6875 6 6 6 3.316407 0 6-2.683594 6-6v-13.847656c20.160157-3.125 34.511719-21.242188 32.941407-41.578126-1.574219-20.339843-18.542969-36.035156-38.941407-36.023437-14.925781 0-27.027343-12.101563-27.027343-27.027344 0-14.929687 12.101562-27.03125 27.027343-27.03125zm0 0"/></svg>