<svg id="Layer_1" height="512" viewBox="0 0 512 512" width="512" xmlns="http://www.w3.org/2000/svg" data-name="Layer 1"><path d="m264.361 204.346a42.3 42.3 0 1 0 -42.3 42.3 42.352 42.352 0 0 0 42.3-42.3zm-72.609 0a30.3 30.3 0 1 1 30.3 30.3 30.34 30.34 0 0 1 -30.3-30.3z"/><path d="m474 175h-47.18a6.018 6.018 0 0 0 -5.82 6.193v59.221a5.508 5.508 0 0 0 5.82 5.586h17.18v106.332a59.148 59.148 0 0 1 -53 59.192v-34.6a6.232 6.232 0 0 0 -6.337-5.924h-40.663v-20.645c41-34.89 68.321-87.389 68.321-146.009 0-104.8-85.363-190.053-190.158-190.053s-189.875 85.257-189.875 190.053a189.409 189.409 0 0 0 68.712 146.01v141.351c0 3.314 2.226 6.293 5.539 6.293h231.035a6.632 6.632 0 0 0 6.426-6.293v-23.707h40.663c3.314 0 6.337-2.445 6.337-5.759v-38.686c36-3.06 65-33.824 65-71.223v-106.332h18c3.314 0 6-2.272 6-5.586v-59.221a6.171 6.171 0 0 0 -6-6.193zm-430 29.346c0-98.179 79.874-178.053 178.053-178.053s178.051 79.874 178.051 178.053-79.87 178.054-178.047 178.054-178.057-79.877-178.057-178.054zm69 281.654v-126.415a189.618 189.618 0 0 0 219 0v126.415zm266-30h-35v-73h35zm89-222h-35v-47h35z"/></svg>