<svg height="472pt" viewBox="0 0 472.12738 472" width="472pt" xmlns="http://www.w3.org/2000/svg"><path d="m371.128906 6.0625v42h-61.292968c-3.316407 0-5.707032 3.019531-5.707032 6.335938v175.664062h-68v12h68v175.667969c0 3.3125 2.390625 6.332031 5.707032 6.332031h61.292968v42c.105469 3.355469 2.867188 6.015625 6.222656 6h88.722657c3.324219.003906 6.027343-2.675781 6.054687-6v-94.890625c-.019531-3.347656-2.710937-6.0625-6.054687-6.109375h-88.722657c-3.378906.035156-6.128906 2.730469-6.222656 6.109375v40.890625h-55v-170h55v41.449219c0 3.3125 2.910156 5.550781 6.222656 5.550781h88.722657c3.3125 0 6.054687-2.238281 6.054687-5.550781v-94.894531c0-3.3125-2.742187-5.554688-6.054687-5.554688h-88.722657c-3.3125 0-6.222656 2.242188-6.222656 5.554688v41.445312h-55v-170h55v40.894531c.09375 3.378907 2.84375 6.074219 6.222656 6.105469h88.722657c3.34375-.042969 6.035156-2.761719 6.054687-6.105469v-94.894531c-.027344-3.324219-2.730468-6.0039062-6.054687-6h-88.722657c-3.355468-.0117188-6.117187 2.644531-6.222656 6zm12 371h77v83h-77zm0-182h77v82h-77zm0-183h77v83h-77zm0 0"/><path d="m59.589844 154.292969c-.214844 2.1875-.460938 17.765625-.460938 17.917969v21.78125c0 30.375 24.621094 55 55 55 30.375 0 55-24.625 55-55v-34.203126c.078125-17.878906-8.570312-34.679687-23.175781-45 3.242187-13.109374-1.957031-26.863281-13.0625-34.550781s-25.808594-7.710937-36.941406-.058593c-11.128907 7.652343-16.371094 21.386718-13.171875 34.511718-13.144532 9.179688-21.613282 23.648438-23.1875 39.601563zm54.539062 82.734375c-23.753906-.027344-42.992187-19.285156-43-43.035156v-16.96875c2.101563.328124 4.222656.5 6.351563.511718 16.761719 0 31.148437-7.632812 38.558593-19.136718 7.414063 11.5 21.519532 19.136718 38.28125 19.136718.941407-.007812 1.878907-.074218 2.808594-.207031v16.664063c-.011718 23.75-19.25 43.007812-43 43.035156zm43-77.238282v5.375c-.90625.222657-1.828125.347657-2.757812.367188-17.890625 0-31.785156-11.1875-31.785156-25.46875.027343-1.582031-.582032-3.105469-1.6875-4.230469-1.105469-1.128906-2.617188-1.765625-4.195313-1.769531h-1.132813c-3.316406 0-6 2.683594-6 6 0 14.28125-14.011718 25.46875-31.902343 25.46875-2.054688-.023438-4.101563-.257812-6.109375-.699219.039062-4.136719.101562-8.511719.164062-9.351562 2.207032-22.765625 21.917969-39.769531 44.757813-38.617188 22.839843 1.152344 40.738281 20.054688 40.644531 42.925781zm-63.246094-53.160156c-.003906-7.640625 4.207032-14.660156 10.949219-18.25 6.746094-3.59375 14.917969-3.171875 21.257813 1.09375s9.808594 11.679688 9.023437 19.277344c-6.535156-2.644531-13.515625-4.003906-20.5625-4-7.042969-.007812-14.027343 1.332031-20.566406 3.941406-.066406-.679687-.101563-1.367187-.101563-2.0625zm0 0"/><path d="m.128906 392.164062c.160156 3.351563 2.960938 5.96875 6.320313 5.898438h216.203125c3.316406 0 6.476562-2.582031 6.476562-5.898438v-72.664062c1-15.882812-3.964844-31.792969-14.675781-43.640625-10.894531-11.953125-26.3125-18.773437-42.484375-18.796875h-114.824219c-16.152343.023438-31.550781 6.847656-42.417969 18.800781-10.710937 11.847657-15.597656 27.753907-14.597656 43.636719zm107.070313-93.121093h14.765625l9.96875 48.882812-17.261719 14.570313-16.15625-14.511719zm14.210937-11.980469h-13.71875l-4.152344-18h22.023438zm-97.621094-3.15625c8.527344-9.429688 20.640626-14.824219 33.355469-14.84375h34.078125l5.175782 22.394531c-.042969.171875-.105469.347657-.136719.527344l-10.097657 56.953125c-.460937 2.109375.246094 4.300781 1.851563 5.746094l22.527344 20.234375c2.230469 2.003906 5.59375 2.054687 7.882812.125l23.972657-20.238281c1.675781-1.414063 2.449218-3.632813 2.007812-5.785157l-11.660156-57.171875c-.015625-.082031-.050782-.183594-.070313-.265625l5.203125-22.519531h34.089844c12.71875.058594 24.824219 5.457031 33.371094 14.871094 8.550781 9.417968 12.75 21.988281 11.582031 34.652344-.023437.199218.207031.417968.207031.621093v66.855469h-205v-66.855469c0-.199219.148438-.417969.128906-.621093-1.214843-12.667969 2.972657-25.257813 11.53125-34.679688zm0 0"/></svg>