<svg id="Layer_1" height="512" viewBox="0 0 512 512" width="512" xmlns="http://www.w3.org/2000/svg" data-name="Layer 1"><path d="m353.116 13.885a6.044 6.044 0 0 0 -4.326-1.885h-268.677a6.171 6.171 0 0 0 -6.113 6.086v475.828a6.171 6.171 0 0 0 6.113 6.086h351.774a6.171 6.171 0 0 0 6.113-6.086v-389.364a6.112 6.112 0 0 0 -1.73-4.179zm1.884 19.103 62.8 66.012h-62.8zm-269 455.012v-464h257v80.55c0 3.314 2.476 6.45 5.79 6.45h77.21v377z"/><path d="m367.42 411h-229.27a6 6 0 1 0 0 12h229.27a6 6 0 1 0 0-12z"/><path d="m138.15 366h132.818a6 6 0 1 0 0-12h-132.818a6 6 0 1 0 0 12z"/><path d="m370 268.327v-89.027c0-.193.223-.383.206-.572.008-.141.147-.279.145-.422a5.946 5.946 0 0 0 -3.871-5.575l-115.58-42.498a5.96 5.96 0 0 0 -4.125 0l-115.6 42.493a6 6 0 0 0 -3.926 5.575 6.115 6.115 0 0 0 3.95 5.648l33.8 13.1v84.211a5.889 5.889 0 0 0 3.78 5.622 229.5 229.5 0 0 0 160.334 0 5.983 5.983 0 0 0 3.887-5.618v-84.211l25-9.922v81.29a20.149 20.149 0 1 0 26.45 19.16 19.443 19.443 0 0 0 -14.45-19.254zm-193 8.728v-24.777a228.8 228.8 0 0 0 144 0v24.777c-47 16.384-98 16.384-144 0zm144-37.448c-47 16.384-98 16.385-144 0v-37.884l69.811 27.218a5.666 5.666 0 0 0 2.114.409 5.893 5.893 0 0 0 2.158-.409l69.917-27.217zm4.251-52.425a5.9 5.9 0 0 0 -.835.326l-75.553 29.4-75.555-29.4a5.807 5.807 0 0 0 -.832-.324l-22.264-8.665 98.651-36.26 98.651 36.26zm39.364 108.526a8.128 8.128 0 1 1 8.128-8.127 8.137 8.137 0 0 1 -8.128 8.127z"/></svg>