<?xml version="1.0" encoding="iso-8859-1"?>
<!-- Generator: Adobe Illustrator 19.0.0, SVG Export Plug-In . SVG Version: 6.00 Build 0)  -->
<svg version="1.1" id="Capa_1" xmlns="http://www.w3.org/2000/svg" xmlns:xlink="http://www.w3.org/1999/xlink" x="0px" y="0px"
	 viewBox="0 0 512 512" style="enable-background:new 0 0 512 512;" xml:space="preserve">
<g>
	<g>
		<path d="M403.547,191.054H95.212c-10.448,0-18.916,8.468-18.916,18.916v128.63C76.296,434.21,154.079,512,249.695,512
			c95.262,0,172.768-77.506,172.768-172.768V209.97C422.463,199.522,413.995,191.054,403.547,191.054z M384.631,339.232
			c0,74.404-60.532,134.936-134.936,134.936c-74.751,0-135.566-60.816-135.566-135.567V228.887h270.502V339.232z"/>
	</g>
</g>
<g>
	<g>
		<rect x="98.995" y="351.842" width="301.399" height="37.833"/>
	</g>
</g>
<g>
	<g>
		<path d="M470.384,474.167H29.005c-10.448,0-18.916,8.468-18.916,18.916S18.557,512,29.005,512h441.379
			c10.448,0,18.916-8.468,18.916-18.916S480.832,474.167,470.384,474.167z"/>
	</g>
</g>
<g>
	<g>
		<path d="M249.695,0c-10.448,0-18.916,8.468-18.916,18.916v121.695c0,10.448,8.468,18.916,18.916,18.916
			c10.448,0,18.916-8.468,18.916-18.916V18.916C268.611,8.468,260.143,0,249.695,0z"/>
	</g>
</g>
<g>
	<g>
		<path d="M346.798,55.488c-10.448,0-18.916,8.468-18.916,18.916v66.207c0,10.448,8.468,18.916,18.916,18.916
			c10.454,0,18.916-8.468,18.916-18.916V74.404C365.714,63.956,357.246,55.488,346.798,55.488z"/>
	</g>
</g>
<g>
	<g>
		<path d="M152.591,55.488c-10.448,0-18.916,8.468-18.916,18.916v66.207c0,10.448,8.468,18.916,18.916,18.916
			c10.448,0,18.916-8.468,18.916-18.916V74.404C171.507,63.956,163.039,55.488,152.591,55.488z"/>
	</g>
</g>
<g>
	<g>
		<path d="M482.995,223.842h-78.818v37.833h59.901v52.335h-59.901v37.832h78.818c10.448,0,18.916-8.468,18.916-18.916v-90.167
			C501.911,232.311,493.443,223.842,482.995,223.842z"/>
	</g>
</g>
<g>
</g>
<g>
</g>
<g>
</g>
<g>
</g>
<g>
</g>
<g>
</g>
<g>
</g>
<g>
</g>
<g>
</g>
<g>
</g>
<g>
</g>
<g>
</g>
<g>
</g>
<g>
</g>
<g>
</g>
</svg>
