<svg height="498pt" viewBox="-3 0 498 498.26629" width="498pt" xmlns="http://www.w3.org/2000/svg"><path d="m240.539062 370.925781v5.707031c-12.796874 3.175782-21.203124 15.414063-19.578124 28.5 1.625 13.085938 12.769531 22.898438 25.953124 22.847657 7.699219.003906 13.957032 6.210937 14.023438 13.90625.0625 7.699219-6.089844 14.011719-13.789062 14.140625-.046876 0-.074219-.007813-.125-.007813-.046876 0-.085938.007813-.132813.007813-7.683594-.082032-13.875-6.332032-13.882813-14.019532 0-3.316406-2.683593-6-6-6-3.359374-.019531-6.128906 2.640626-6.246093 6 .089843 11.949219 8.207031 22.34375 19.777343 25.324219v6.621094c0 3.316406 2.6875 6 6 6 3.316407 0 6-2.683594 6-6v-6.621094c12.902344-2.910156 21.558594-15.039062 20.121094-28.183593-1.441406-13.144532-12.519531-23.113282-25.746094-23.164063-7.730468-.058594-13.957031-6.363281-13.917968-14.097656.042968-7.730469 6.332031-13.972657 14.0625-13.953125 7.734375.019531 13.992187 6.292968 13.992187 14.027344.003907 3.3125 2.695313 6 6.007813 6 1.566406-.011719 3.0625-.65625 4.144531-1.789063 1.082031-1.128906 1.664063-2.648437 1.609375-4.210937.085938-12.175782-8.371094-22.746094-20.273438-25.328126v-5.707031c0-3.316406-2.683593-6-6-6-3.3125 0-6 2.683594-6 6zm0 0"/><path d="m424.539062 346.992188v-32.113282c.027344-1.550781-.582031-3.039062-1.683593-4.125-1.101563-1.085937-2.601563-1.671875-4.148438-1.621094h-167.167969v-39.472656l19.902344 19.679688c1.164063 1.128906 2.726563 1.761718 4.351563 1.757812 1.609375 0 3.152343-.628906 4.300781-1.757812 2.351562-2.335938 2.363281-6.136719.027344-8.484375l-29.988282-30c-1.121093-1.125-2.648437-1.757813-4.238281-1.757813-1.589843 0-3.113281.632813-4.238281 1.757813l-30 30c-2.34375 2.339843-2.34375 6.140625 0 8.484375 1.082031 1.121094 2.574219 1.757812 4.132812 1.757812 1.558594 0 3.050782-.636718 4.132813-1.757812l19.617187-19.835938v39.628906h-164.164062c-1.546875-.050781-3.046875.535157-4.152344 1.621094-1.101562 1.085938-1.710937 2.574219-1.683594 4.125v30.039063c-40.503906 3.433593-71.089843 38.199219-69.335937 78.8125 1.757813 40.609375 35.230469 72.609375 75.878906 72.535156 41.90625 0 76.0625-34.015625 76.0625-75.828125 0-40.023438-31.601562-72.878906-70.601562-75.621094v-23.683594h157.996093v25.8125c-38 3.566407-68.71875 36.054688-68.71875 75.492188 0 41.8125 34.199219 75.828125 76.109376 75.828125 40.984374.019531 74.566406-32.535156 75.8125-73.503906 1.246093-40.964844-30.292969-75.503907-71.203126-77.976563v-25.652344h161v25.605469c-41.210937 2.488281-72.859374 37.488281-71.203124 78.742188 1.660156 41.25 36.015624 73.597656 77.292968 72.769531s74.308594-34.523438 74.3125-75.808594c0-39.234375-30.402344-71.601562-68.402344-75.449218zm-284.5 73.441406c.097657 35.367187-28.515624 64.105468-63.882812 64.171875-35.371094.0625-64.085938-28.574219-64.117188-63.945313-.03125-35.367187 28.632813-64.054687 64-64.054687 35.285157-.007813 63.914063 28.546875 64 63.828125zm171 2c.097657 35.367187-28.515624 64.105468-63.882812 64.171875-35.371094.0625-64.085938-28.574219-64.117188-63.945313-.03125-35.367187 28.632813-64.054687 64-64.054687 35.285157-.007813 63.914063 28.546875 64 63.828125zm106 63.828125c-35.226562-.09375-63.71875-28.714844-63.65625-63.941407.0625-35.230468 28.65625-63.746093 63.886719-63.714843 35.226563.03125 63.769531 28.597656 63.769531 63.828125-.082031 35.285156-28.714843 63.839844-64 63.832031zm0 0"/><path d="m417.039062 387.933594c7.746094.007812 14.019532 6.28125 14.027344 14.027344 0 3.3125 2.6875 6 6 6 1.566406-.011719 3.0625-.65625 4.144532-1.785157 1.082031-1.128906 1.664062-2.652343 1.605468-4.214843.085938-12.175782-8.375-22.746094-20.277344-25.328126v-5.707031c0-3.316406-2.683593-6-6-6-3.3125 0-6 2.683594-6 6v5.707031c-12.796874 3.175782-21.203124 15.414063-19.578124 28.5 1.625 13.085938 12.769531 22.898438 25.953124 22.847657 7.699219.003906 13.957032 6.210937 14.023438 13.90625.0625 7.699219-6.089844 14.011719-13.789062 14.140625-.046876 0-.074219-.007813-.125-.007813-.046876 0-.085938.007813-.132813.007813-7.683594-.082032-13.875-6.332032-13.882813-14.019532 0-3.316406-2.683593-6-6-6-3.359374-.019531-6.128906 2.640626-6.246093 6 .089843 11.949219 8.207031 22.34375 19.777343 25.324219v6.621094c0 3.316406 2.6875 6 6 6 3.316407 0 6-2.683594 6-6v-6.621094c12.902344-2.910156 21.558594-15.039062 20.121094-28.183593-1.441406-13.144532-12.519531-23.113282-25.746094-23.164063-7.707031-.089844-13.898437-6.378906-13.863281-14.085937.035157-7.707032 6.28125-13.945313 13.988281-13.964844zm0 0"/><path d="m69.539062 368.925781v5.707031c-12.796874 3.175782-21.203124 15.414063-19.578124 28.5 1.625 13.085938 12.769531 22.898438 25.953124 22.847657 7.699219.003906 13.957032 6.210937 14.023438 13.90625.0625 7.699219-6.089844 14.011719-13.789062 14.140625-.046876 0-.074219-.007813-.125-.007813-.046876 0-.085938.007813-.132813.007813-7.683594-.082032-13.875-6.332032-13.882813-14.019532 0-3.316406-2.683593-6-6-6-3.359374-.019531-6.128906 2.640626-6.246093 6 .089843 11.949219 8.207031 22.34375 19.777343 25.324219v6.621094c0 3.316406 2.6875 6 6 6 3.316407 0 6-2.683594 6-6v-6.621094c12.902344-2.910156 21.558594-15.039062 20.121094-28.183593-1.441406-13.144532-12.519531-23.113282-25.746094-23.164063-7.730468-.058594-13.957031-6.363281-13.917968-14.097656.042968-7.730469 6.332031-13.972657 14.0625-13.953125 7.734375.019531 13.992187 6.292968 13.992187 14.027344.003907 3.3125 2.695313 6 6.007813 6 1.566406-.011719 3.0625-.65625 4.144531-1.789063 1.082031-1.128906 1.664063-2.648437 1.609375-4.210937.085938-12.175782-8.371094-22.746094-20.273438-25.328126v-5.707031c0-3.316406-2.683593-6-6-6-3.3125 0-6 2.683594-6 6zm0 0"/><path d="m246.539062 246.144531c67.972657 0 123.074219-55.101562 123.074219-123.074219 0-67.96875-55.101562-123.070312-123.074219-123.070312-67.96875 0-123.070312 55.101562-123.070312 123.070312.078125 67.941407 55.132812 122.996094 123.070312 123.074219zm-69.078124-36.390625c1.695312-15.066406 14.378906-26.496094 29.542968-26.621094h12.65625c2.542969 12.757813 13.742188 21.941407 26.75 21.941407 13.007813 0 24.203125-9.183594 26.75-21.941407h12.917969c15.160156.125 27.84375 11.554688 29.539063 26.621094-40.421876 32.210938-97.738282 32.210938-138.15625 0zm43.011718-61.285156c-6.988281-6.863281-10.925781-16.242188-10.933594-26.035156v-3.21875c24.53125-4.777344 45.90625-19.679688 58.875-41.042969 1.613282.585937 3.152344 1.359375 4.582032 2.308594 6.574218 4.375 10.476562 11.789062 10.359375 19.683593l.183593 4.214844v17.515625c.066407 14.964844-8.878906 28.503907-22.671874 34.3125-13.792969 5.8125-29.726563 2.757813-40.394532-7.738281zm75.066406-44-.160156-4.128906c.234375-11.957032-5.636718-23.207032-15.582031-29.851563-4.007813-2.703125-8.582031-4.460937-13.367187-5.140625-2.476563-.339844-4.90625.878906-6.113282 3.066406-19.1875 35.117188-53.101562 39.191407-55.914062 39.472657-3.796875.15625-6.808594 3.25-6.863282 7.046875v7.5c.03125 2.382812.234376 4.761718.609376 7.113281-4.4375-9.070313-6.945313-18.964844-7.359376-29.054687-.410156-9.25 1.519532-18.453126 5.617188-26.757813 6.9375-13.925781 20.097656-24.5625 36.085938-29.179687 8.960937-2.773438 18.648437-1.976563 27.039062 2.226562 7.902344 4.117188 14.09375 10.902344 17.46875 19.152344l.222656.664062c.984375 2.949219 4.054688 4.65625 7.078125 3.941406 1.511719-.359374 9.300781-1.515624 14.363281 11.019532 5.082032 12.59375 4.792969 26.902344-.816406 40.292968-.878906 2.265626-1.875 4.488282-2.980468 6.65625.371093-2.1875.597656-4.398437.671874-6.613281zm-64 73.125v-8.917969c4.769532 1.695313 9.804688 2.527344 14.867188 2.457031h.371094c5.023437-.050781 10.007812-.898437 14.761718-2.519531v9.65625c0 8.285157-6.714843 15-15 15-8.28125 0-15-6.714843-15-15v-.679687zm15-165.589844c44.6875-.089844 85.058594 26.664063 102.390626 67.851563 17.335937 41.1875 8.242187 88.757812-23.0625 120.648437-5.488282-17.386718-21.558594-29.25-39.789063-29.371094h-12.539063v-.480468c4.164063-3.136719 8.070313-6.605469 11.679688-10.367188 10.800781-10.792968 18.789062-22.164062 23.664062-33.800781 6.835938-16.324219 7.164063-33.875.890626-49.417969-4.738282-11.75-13.464844-18.675781-23.105469-18.789062-10.265625-21.496094-34.726563-32.238282-57.5-25.25-19.199219 5.546875-35.050781 18.433594-43.484375 35.355468-4.921875 10.132813-7.207032 21.347657-6.640625 32.597657 1.171875 28.332031 16.5 54.699219 40.5 68.253906v1.898437h-12.539063c-18.230468.121094-34.304687 11.984376-39.789062 29.371094-31.304688-31.890625-40.402344-79.460937-23.070313-120.652344 17.335938-41.1875 57.707031-67.941406 102.394531-67.851562zm0 0"/></svg>