<?xml version="1.0" encoding="iso-8859-1"?>
<!-- Generator: Adobe Illustrator 19.0.0, SVG Export Plug-In . SVG Version: 6.00 Build 0)  -->
<svg version="1.1" id="Capa_1" xmlns="http://www.w3.org/2000/svg" xmlns:xlink="http://www.w3.org/1999/xlink" x="0px" y="0px"
	 viewBox="0 0 511.994 511.994" style="enable-background:new 0 0 511.994 511.994;" xml:space="preserve">
<g>
	<g>
		<path d="M220.999,16.196C99.143,16.196,0,115.339,0,237.195s99.143,220.999,220.999,220.999
			c121.862,0,220.999-99.143,220.999-220.999S342.855,16.196,220.999,16.196z M220.999,423.482
			c-102.718,0-186.287-83.569-186.287-186.287S118.281,50.908,220.999,50.908s186.287,83.569,186.287,186.287
			S323.717,423.482,220.999,423.482z"/>
	</g>
</g>
<g>
	<g>
		<path d="M220.999,79.256c-34.452,0-62.481,28.03-62.481,62.481s28.03,62.481,62.481,62.481c34.451,0,62.481-28.03,62.481-62.481
			S255.45,79.256,220.999,79.256z M220.999,169.507c-15.314,0-27.77-12.462-27.77-27.769c0-15.314,12.456-27.769,27.77-27.769
			c15.314,0,27.769,12.456,27.769,27.769S236.307,169.507,220.999,169.507z"/>
	</g>
</g>
<g>
	<g>
		<path d="M220.999,270.744c-34.452,0-62.481,28.03-62.481,62.481c0,34.451,28.03,62.481,62.481,62.481
			c34.451,0,62.481-28.024,62.481-62.476S255.45,270.744,220.999,270.744z M220.999,361c-15.314,0-27.77-12.456-27.77-27.769
			s12.456-27.769,27.77-27.769c15.314,0,27.769,12.456,27.769,27.769S236.307,361,220.999,361z"/>
	</g>
</g>
<g>
	<g>
		<path d="M317.614,174.713c-34.457,0-62.481,28.03-62.481,62.481s28.024,62.481,62.481,62.481c34.451,0,62.481-28.03,62.481-62.481
			C380.095,202.743,352.065,174.713,317.614,174.713z M317.614,264.964c-15.32,0-27.775-12.462-27.775-27.769
			c0-15.314,12.462-27.769,27.775-27.769s27.769,12.456,27.769,27.769S332.922,264.964,317.614,264.964z"/>
	</g>
</g>
<g>
	<g>
		<path d="M125.541,174.713c-34.452,0-62.481,28.03-62.481,62.481c0,34.451,28.03,62.481,62.481,62.481s62.481-28.03,62.481-62.481
			S159.993,174.713,125.541,174.713z M125.541,264.964c-15.314,0-27.769-12.462-27.769-27.769c0-15.314,12.456-27.769,27.769-27.769
			s27.769,12.456,27.769,27.769S140.849,264.964,125.541,264.964z"/>
	</g>
</g>
<g>
	<g>
		<path d="M494.638,461.086h-25.455c-42.742,0-77.517-34.776-77.517-77.523v-12.149c0-9.586-7.77-17.356-17.356-17.356
			s-17.356,7.77-17.356,17.356v12.149c0,61.885,50.344,112.235,112.235,112.235h25.455c9.586,0,17.35-7.77,17.35-17.356
			S504.225,461.086,494.638,461.086z"/>
	</g>
</g>
<g>
</g>
<g>
</g>
<g>
</g>
<g>
</g>
<g>
</g>
<g>
</g>
<g>
</g>
<g>
</g>
<g>
</g>
<g>
</g>
<g>
</g>
<g>
</g>
<g>
</g>
<g>
</g>
<g>
</g>
</svg>
