<svg height="498pt" viewBox="-3 0 498 498.26629" width="498pt" xmlns="http://www.w3.org/2000/svg"><path d="m240.539062 370.925781v5.707031c-12.796874 3.175782-21.203124 15.414063-19.578124 28.5 1.625 13.085938 12.769531 22.898438 25.953124 22.847657 7.699219.003906 13.957032 6.210937 14.019532 13.90625.066406 7.699219-6.089844 14.011719-13.785156 14.140625-.046876 0-.074219-.007813-.125-.007813-.046876 0-.085938.007813-.128907.007813-7.6875-.082032-13.875-6.332032-13.886719-14.019532 0-3.316406-2.683593-6-6-6-3.359374-.019531-6.128906 2.640626-6.246093 6 .089843 11.949219 8.207031 22.34375 19.777343 25.324219v6.621094c0 3.316406 2.6875 6 6 6 3.316407 0 6-2.683594 6-6v-6.621094c12.902344-2.910156 21.558594-15.039062 20.121094-28.183593-1.441406-13.144532-12.519531-23.113282-25.746094-23.164063-7.730468-.058594-13.957031-6.363281-13.917968-14.097656.042968-7.730469 6.332031-13.972657 14.0625-13.953125 7.734375.019531 13.992187 6.292968 13.992187 14.027344.003907 3.3125 2.695313 6 6.007813 6 1.566406-.011719 3.0625-.65625 4.144531-1.789063 1.082031-1.128906 1.664063-2.648437 1.609375-4.210937.085938-12.175782-8.371094-22.746094-20.273438-25.328126v-5.707031c0-3.316406-2.683593-6-6-6-3.3125 0-6 2.683594-6 6zm0 0"/><path d="m424.539062 346.992188v-32.113282c.027344-1.550781-.582031-3.039062-1.683593-4.125-1.101563-1.085937-2.601563-1.671875-4.148438-1.621094h-167.167969v-39.542968l20.058594 19.84375c1.167969 1.128906 2.730469 1.757812 4.355469 1.757812 1.609375.003906 3.152344-.628906 4.300781-1.757812 2.347656-2.335938 2.363282-6.132813.027344-8.484375l-29.988281-30c-2.339844-2.34375-6.136719-2.34375-8.476563 0l-30 30c-2.34375 2.34375-2.34375 6.140625 0 8.484375 1.082032 1.121094 2.574219 1.757812 4.132813 1.757812 1.558593 0 3.050781-.636718 4.132812-1.757812l19.457031-19.679688v39.378906h-164.164062c-1.546875-.050781-3.046875.535157-4.152344 1.621094-1.101562 1.085938-1.710937 2.574219-1.683594 4.125v30.039063c-40.503906 3.433593-71.089843 38.199219-69.335937 78.8125 1.757813 40.609375 35.230469 72.609375 75.878906 72.535156 41.90625 0 76.0625-34.015625 76.0625-75.828125 0-40.023438-31.601562-72.878906-70.601562-75.621094v-23.683594h157.996093v25.8125c-38 3.566407-68.71875 36.054688-68.71875 75.492188 0 41.8125 34.199219 75.828125 76.109376 75.828125 40.984374.019531 74.566406-32.535156 75.8125-73.503906 1.246093-40.964844-30.292969-75.503907-71.203126-77.976563v-25.652344h161v25.605469c-41.210937 2.488281-72.859374 37.488281-71.203124 78.742188 1.660156 41.25 36.015624 73.597656 77.292968 72.769531s74.308594-34.523438 74.3125-75.808594c0-39.234375-30.402344-71.601562-68.402344-75.449218zm-284.5 73.441406c.097657 35.367187-28.515624 64.105468-63.882812 64.171875-35.371094.0625-64.085938-28.574219-64.117188-63.945313-.03125-35.367187 28.632813-64.054687 64-64.054687 35.285157-.007813 63.914063 28.546875 64 63.828125zm171 2c.097657 35.367187-28.515624 64.105468-63.882812 64.171875-35.371094.0625-64.085938-28.574219-64.117188-63.945313-.03125-35.367187 28.632813-64.054687 64-64.054687 35.285157-.007813 63.914063 28.546875 64 63.828125zm106 63.828125c-35.226562-.09375-63.71875-28.714844-63.65625-63.941407.0625-35.230468 28.65625-63.746093 63.886719-63.714843 35.226563.03125 63.769531 28.597656 63.769531 63.828125-.082031 35.285156-28.714843 63.839844-64 63.832031zm0 0"/><path d="m417.039062 387.933594c7.746094.007812 14.019532 6.28125 14.027344 14.027344 0 3.3125 2.6875 6 6 6 1.566406-.011719 3.0625-.65625 4.144532-1.785157 1.082031-1.128906 1.664062-2.652343 1.605468-4.214843.085938-12.175782-8.375-22.746094-20.277344-25.328126v-5.707031c0-3.316406-2.683593-6-6-6-3.3125 0-6 2.683594-6 6v5.707031c-12.796874 3.175782-21.203124 15.414063-19.578124 28.5 1.625 13.085938 12.769531 22.898438 25.953124 22.847657 7.699219.003906 13.957032 6.210937 14.019532 13.90625.066406 7.699219-6.089844 14.011719-13.785156 14.140625-.046876 0-.074219-.007813-.125-.007813-.046876 0-.085938.007813-.128907.007813-7.6875-.082032-13.875-6.332032-13.886719-14.019532 0-3.316406-2.683593-6-6-6-3.359374-.019531-6.128906 2.640626-6.246093 6 .089843 11.949219 8.207031 22.34375 19.777343 25.324219v6.621094c0 3.316406 2.6875 6 6 6 3.316407 0 6-2.683594 6-6v-6.621094c12.902344-2.910156 21.558594-15.039062 20.121094-28.183593-1.441406-13.144532-12.519531-23.113282-25.746094-23.164063-7.707031-.089844-13.898437-6.378906-13.863281-14.085937.035157-7.707032 6.28125-13.945313 13.988281-13.964844zm0 0"/><path d="m69.539062 368.925781v5.707031c-12.796874 3.175782-21.203124 15.414063-19.578124 28.5 1.625 13.085938 12.769531 22.898438 25.953124 22.847657 7.699219.003906 13.957032 6.210937 14.023438 13.90625.0625 7.699219-6.089844 14.011719-13.789062 14.140625-.046876 0-.074219-.007813-.125-.007813-.046876 0-.085938.007813-.132813.007813-7.683594-.082032-13.875-6.332032-13.882813-14.019532 0-3.316406-2.683593-6-6-6-3.359374-.019531-6.128906 2.640626-6.246093 6 .089843 11.949219 8.207031 22.34375 19.777343 25.324219v6.621094c0 3.316406 2.6875 6 6 6 3.316407 0 6-2.683594 6-6v-6.621094c12.902344-2.910156 21.558594-15.039062 20.121094-28.183593-1.441406-13.144532-12.519531-23.113282-25.746094-23.164063-7.730468-.058594-13.957031-6.363281-13.917968-14.097656.042968-7.730469 6.332031-13.972657 14.0625-13.953125 7.734375.019531 13.992187 6.292968 13.992187 14.027344.003907 3.3125 2.695313 6 6.007813 6 1.566406-.011719 3.0625-.65625 4.144531-1.789063 1.082031-1.128906 1.664063-2.648437 1.609375-4.210937.085938-12.175782-8.371094-22.746094-20.273438-25.328126v-5.707031c0-3.316406-2.683593-6-6-6-3.3125 0-6 2.683594-6 6zm0 0"/><path d="m246.539062 246.144531c67.972657 0 123.074219-55.101562 123.074219-123.074219 0-67.96875-55.101562-123.070312-123.074219-123.070312-67.96875 0-123.070312 55.101562-123.070312 123.070312.078125 67.941407 55.132812 122.996094 123.070312 123.074219zm-64.015624-83.800781c-.757813-7.515625 1.726562-14.996094 6.832031-20.5625 5.148437-5.589844 12.429687-8.734375 20.03125-8.648438h2.925781l8.5625 26.066407c.722656 2.15625 2.628906 3.703125 4.890625 3.964843.296875.015626.597656.011719.898437-.011718l-7.128906 66.363281c-.054687.4375-.054687.878906-.011718 1.316406-13.273438-3.332031-25.8125-9.101562-36.984376-17.011719v-50.867187c.007813-.203125 0-.40625-.015624-.605469zm55.121093 71.441406-5.875-5.875 8.25-76.835937 6.140625-6.855469 6.957032 7.398438 8.195312 76.289062-5.875 5.875c-2.933594.234375-5.902344.355469-8.902344.359375s-5.964844-.113281-8.894531-.355469zm72.910157-71.441406c-.015626.199219-.019532.398438-.015626.601562v50.867188c-11.167968 7.910156-23.707031 13.671875-36.980468 17 .046875-.441406.046875-.890625 0-1.332031l-7.136719-66.394531c.4375.007812.871094-.03125 1.300781-.113282 2.011719-.324218 3.699219-1.699218 4.425782-3.601562l9.515624-26.238282h2.039063c7.597656-.085937 14.875 3.058594 20.019531 8.648438 5.105469 5.566406 7.59375 13.050781 6.832032 20.566406zm-64.015626-150.34375c61.320313.066406 111.011719 49.753906 111.089844 111.070312.203125 30.71875-12.53125 60.101563-35.089844 80.949219v-40.777343c.996094-10.871094-2.664062-21.65625-10.0625-29.679688-7.402343-8.027344-17.855468-12.542969-28.773437-12.429688h-6.261719c-2.488281-.101562-4.761718 1.402344-5.648437 3.730469l-7.628907 21.113281-13.644531-14.574218c-.636719-.71875-1.433593-1.28125-2.328125-1.632813-2.320312-.890625-4.949218-.261719-6.613281 1.589844l-12.519531 13.980469-6.683594-20.300782c-.832031-2.417968-3.152344-4.007812-5.707031-3.90625h-7.28125c-10.917969-.113281-21.375 4.398438-28.777344 12.425782-7.40625 8.027344-11.0625 18.8125-10.070313 29.683594v40.777343c-22.554687-20.847656-35.292968-50.230469-35.085937-80.949219.078125-61.316406 49.769531-111.003906 111.085937-111.070312zm0 0"/><path d="m282.539062 73.632812c0-20.710937-16.789062-37.5-37.5-37.5-20.710937 0-37.5 16.789063-37.5 37.5v13c0 20.710938 16.789063 37.5 37.5 37.5 20.710938 0 37.5-16.789062 37.5-37.5zm-12 13c0 14.082032-11.414062 25.5-25.5 25.5-14.082031 0-25.5-11.417968-25.5-25.5v-13c0-14.082031 11.417969-25.5 25.5-25.5 14.085938 0 25.5 11.417969 25.5 25.5zm0 0"/></svg>