<svg height="482pt" viewBox="0 -47 482 482" width="482pt" xmlns="http://www.w3.org/2000/svg"><path d="m228.09375 242.824219c20.078125.066406 39.34375-7.90625 53.507812-22.140625 14.117188-14.25 22.046876-33.496094 22.066407-53.558594.007812-3.339844-2.664063-6.066406-6-6.125h-63.667969v-63.324219c.011719-1.585937-.613281-3.113281-1.730469-4.238281-1.117187-1.125-2.636719-1.757812-4.222656-1.761719-20.070313-.066406-39.332031 7.910157-53.484375 22.140625-21.570312 21.644532-27.996094 54.144532-16.285156 82.367188 11.714844 28.222656 39.257812 46.625 69.816406 46.640625zm-45.035156-120.558594c10.394531-10.53125 24.199218-17.023437 38.941406-18.3125v63.300781c.03125 1.574219.695312 3.070313 1.839844 4.152344 1.144531 1.078125 2.679687 1.65625 4.253906 1.597656h63.292969c-2.574219 27.925782-23.140625 50.867188-50.621094 56.464844s-55.386719-7.46875-68.675781-32.164062c-13.292969-24.695313-8.835938-55.183594 10.96875-75.039063zm0 0"/><path d="m253.90625 148h69.578125c3.324219-.03125 6.003906-2.738281 6-6.0625-.019531-20.035156-7.953125-39.25-22.070313-53.46875-.023437-.023438-.046874-.0625-.070312-.089844-14.183594-14.117187-33.375-22.054687-53.390625-22.078125-1.585937 0-3.109375.632813-4.226563 1.757813-1.117187 1.128906-1.738281 2.65625-1.726562 4.242187v69.574219c-.050781 3.320312 2.589844 6.054688 5.90625 6.125zm6.09375-69.421875c14.675781 1.570313 28.394531 8.042969 38.941406 18.375 10.476563 10.472656 16.9375 24.292969 18.257813 39.046875h-57.199219zm0 0"/><path d="m421 53c0-3.3125-2.6875-6-6-6h-348c-3.3125 0-6 2.6875-6 6v207c0 3.3125 2.6875 6 6 6h348c3.3125 0 6-2.6875 6-6zm-12 201h-336v-195h336zm0 0"/><path d="m475.9375 295h-10.9375v-258.898438c0-19.988281-16.601562-36.101562-36.59375-36.101562h-374.8125c-19.992188 0-36.59375 16.113281-36.59375 36.101562v258.898438h-10.9375c-1.566406-.066406-3.09375.503906-4.234375 1.582031-1.144531 1.074219-1.8007812 2.566407-1.828125 4.136719v51.179688c.0664062 19.996093 16.320312 36.15625 36.316406 36.101562h409.367188c19.996094.054688 36.25-16.105469 36.316406-36.101562v-51.179688c-.027344-1.570312-.683594-3.0625-1.828125-4.136719-1.140625-1.078125-2.667969-1.648437-4.234375-1.582031zm-446.9375-258.898438c0-13.371093 11.21875-24.101562 24.59375-24.101562h374.8125c13.375 0 24.59375 10.730469 24.59375 24.101562v258.898438h-148.472656c-1.511719-.046875-2.976563.550781-4.027344 1.636719-1.050781 1.089843-1.597656 2.570312-1.5 4.082031v10.789062c-.203125 7.972657-6.664062 14.367188-14.640625 14.492188h-86.71875c-7.976563-.125-14.4375-6.519531-14.640625-14.492188v-10.789062c.097656-1.511719-.449219-2.992188-1.5-4.082031-1.050781-1.085938-2.515625-1.683594-4.027344-1.636719h-148.472656zm441 315.796876c-.058594 13.371093-10.945312 24.160156-24.316406 24.101562h-409.367188c-13.371094.058594-24.257812-10.730469-24.316406-24.101562v-44.898438h159v4.507812c0 14.425782 12.210938 26.492188 26.640625 26.492188h86.71875c14.429687 0 26.640625-12.066406 26.640625-26.492188v-4.507812h159zm0 0"/></svg>