<?xml version="1.0"?>
<svg xmlns="http://www.w3.org/2000/svg" id="Layer_1" data-name="Layer 1" viewBox="0 0 512 512" width="512" height="512"><title>School_1</title><path d="M218.666,156.58a37.493,37.493,0,1,0-37.092-37.491A37.335,37.335,0,0,0,218.666,156.58Zm0-62.982a25.494,25.494,0,1,1-25.092,25.491A25.322,25.322,0,0,1,218.666,93.6Z"/><path d="M396.458,287.012c-2.563,0-5.458.1-7.458.271V191h35a5.9,5.9,0,0,0,3.832-10.473L222.5,10.106a6,6,0,0,0-7.664.012L9.5,180.569A5.876,5.876,0,0,0,13.334,191H49V366H19.76A5.534,5.534,0,0,0,14,371.681v48.081A6.009,6.009,0,0,0,19.76,426h272.6a108.119,108.119,0,0,0,103.936,77.373c59.757,0,108.454-48.562,108.454-108.181A108.349,108.349,0,0,0,396.458,287.012ZM377,288.792a97.13,97.13,0,0,0-27,8.671V191h27ZM143,191V366H99V191Zm12,0h26V366H155Zm38,0h51V366H193Zm63,0h27V366H256Zm39,166.481V191h43V304.126A105.081,105.081,0,0,0,295,357.481ZM218.666,22.353,407.375,179H29.956ZM61,191H87V366H61ZM26,414V378H289.342a101.54,101.54,0,0,0-1.419,17.412A107.1,107.1,0,0,0,289.538,414Zm370.294,77.254c-53.14,0-96.371-43.12-96.371-96.121s43.231-96.121,96.371-96.121,96.372,43.12,96.372,96.121S449.434,491.254,396.294,491.254Z"/><path d="M443.063,330H357.12A17.952,17.952,0,0,0,339,347.724v95.7c0,.067.105.134.107.2,0,.1.05.281.05.378a18.051,18.051,0,0,0,17.963,18h79.59a6.407,6.407,0,0,0,6.29-6.177V438h.063A5.946,5.946,0,0,0,449,432V335.812A5.789,5.789,0,0,0,443.063,330ZM351,347.724A5.943,5.943,0,0,1,357.12,342H365v84h-7.88a19.763,19.763,0,0,0-6.12,1ZM431,450H357.12a6,6,0,0,1,0-12H431Zm6-24H377V342h60Z"/></svg>
