<?xml version="1.0" encoding="iso-8859-1"?>
<!-- Generator: Adobe Illustrator 19.0.0, SVG Export Plug-In . SVG Version: 6.00 Build 0)  -->
<svg version="1.1" id="Capa_1" xmlns="http://www.w3.org/2000/svg" xmlns:xlink="http://www.w3.org/1999/xlink" x="0px" y="0px"
	 viewBox="0 0 512 512" style="enable-background:new 0 0 512 512;" xml:space="preserve">
<g>
	<g>
		<path d="M474.809,26.654H37.191C16.339,26.654,0,42.993,0,63.845V340.92c0,20.852,16.339,37.191,37.191,37.191h84.92v88.639
			c0,7.308,4.283,13.947,10.953,16.947c2.448,1.11,5.058,1.649,7.643,1.649c4.444,0,8.839-1.599,12.31-4.655l116.217-102.58h205.575
			c20.852,0,37.191-16.339,37.191-37.191V63.845C512,42.993,495.661,26.654,474.809,26.654z M474.809,340.92h-212.61
			c-4.531,0-8.907,1.655-12.31,4.655l-90.586,79.955v-66.015c0-10.271-8.325-18.596-18.596-18.596H37.191V63.845h437.617V340.92z"/>
	</g>
</g>
<g>
	<g>
		<path d="M120.252,152.484c-30.075,0-54.547,24.466-54.547,54.547c0,30.075,24.472,54.541,54.547,54.541
			c30.075,0,54.547-24.466,54.547-54.541C174.799,176.956,150.333,152.484,120.252,152.484z M120.252,224.387
			c-9.571,0-17.356-7.785-17.356-17.356s7.785-17.356,17.356-17.356s17.356,7.785,17.356,17.356S129.822,224.387,120.252,224.387z"
			/>
	</g>
</g>
<g>
	<g>
		<path d="M256,152.484c-30.075,0-54.547,24.466-54.547,54.547c0,30.075,24.472,54.541,54.547,54.541s54.547-24.466,54.547-54.541
			C310.547,176.956,286.082,152.484,256,152.484z M256,224.387c-9.571,0-17.356-7.785-17.356-17.356s7.785-17.356,17.356-17.356
			s17.356,7.785,17.356,17.356S265.571,224.387,256,224.387z"/>
	</g>
</g>
<g>
	<g>
		<path d="M391.748,152.484c-30.082,0-54.547,24.466-54.547,54.547c0,30.075,24.466,54.541,54.547,54.541
			c30.082,0,54.547-24.466,54.547-54.541C446.295,176.956,421.83,152.484,391.748,152.484z M391.748,224.387
			c-9.57,0-17.356-7.785-17.356-17.356s7.785-17.356,17.356-17.356c9.571,0,17.356,7.785,17.356,17.356
			S401.319,224.387,391.748,224.387z"/>
	</g>
</g>
<g>
</g>
<g>
</g>
<g>
</g>
<g>
</g>
<g>
</g>
<g>
</g>
<g>
</g>
<g>
</g>
<g>
</g>
<g>
</g>
<g>
</g>
<g>
</g>
<g>
</g>
<g>
</g>
<g>
</g>
</svg>
