<svg height="380pt" viewBox="0 0 380 380.83781" width="380pt" xmlns="http://www.w3.org/2000/svg"><path d="m32.097656 356.800781c32.050782 32.050781 84.015625 32.050781 116.066406 0l78.382813-78.382812c2.289063-2.351563 2.265625-6.105469-.054687-8.425781-2.324219-2.320313-6.078126-2.347657-8.429688-.058594l-78.378906 78.378906c-27.367188 27.367188-71.734375 27.367188-99.101563 0l-7.683593-7.683594c-27.320313-27.382812-27.320313-71.710937 0-99.09375l70.699218-70.699218c27.367188-27.367188 71.734375-27.367188 99.101563 0l15.367187 15.367187c1.511719 1.550781 3.738282 2.167969 5.828125 1.621094 2.09375-.550781 3.726563-2.1875 4.277344-4.277344.546875-2.09375-.070313-4.320313-1.621094-5.828125l-15.371093-15.363281c-32.050782-32.050781-84.015626-32.050781-116.066407 0l-70.695312 70.695312c-32 32.070313-32 83.992188 0 116.066407zm0 0"/><path d="m349.5 24.039062c-32.050781-32.050781-84.015625-32.050781-116.066406 0l-78.382813 78.378907c-2.289062 2.351562-2.261719 6.109375.058594 8.429687 2.320313 2.320313 6.074219 2.34375 8.425781.054688l78.378906-78.378906c27.367188-27.367188 71.734376-27.367188 99.101563 0l7.683594 7.683593c27.320312 27.382813 27.320312 71.714844 0 99.097657l-70.695313 70.699218c-27.363281 27.367188-71.734375 27.367188-99.101562 0l-15.367188-15.375c-1.507812-1.550781-3.734375-2.167968-5.828125-1.617187-2.089843.550781-3.722656 2.183593-4.273437 4.277343-.550782 2.089844.066406 4.316407 1.617187 5.824219l15.367188 15.371094c32.050781 32.050781 84.015625 32.050781 116.066406 0l70.695313-70.703125c32-32.070312 32-83.992188 0-116.0625zm0 0"/></svg>