<svg id="Layer_1" height="512" viewBox="0 0 512 512" width="512" xmlns="http://www.w3.org/2000/svg" data-name="Layer 1"><path d="m207.5 64.025c-79.1 0-143.452 64.324-143.452 143.389s64.352 143.386 143.452 143.386 143.45-64.321 143.45-143.386-64.35-143.389-143.45-143.389zm0 274.778c-72.483 0-131.452-58.941-131.452-131.389s58.967-131.389 131.452-131.389 131.45 58.941 131.45 131.389-58.969 131.386-131.45 131.386z"/><path d="m389.728 335.774a6 6 0 0 0 -8.484 0l-4.516 4.515-17.649-17.638a189.406 189.406 0 0 0 38.947-115.237c0-105.014-85.47-190.444-190.526-190.444s-190.53 85.43-190.53 190.444 85.47 190.444 190.53 190.444a189.6 189.6 0 0 0 115.294-38.934l17.648 17.638-4.726 4.724a6 6 0 0 0 0 8.487l94.157 94.116a38.159 38.159 0 0 0 53.942-.028q.745-.732 1.448-1.506c13.526-14.894 12.875-38.46-1.413-52.5zm-360.758-128.36c0-98.394 80.087-178.444 178.53-178.444s178.528 80.05 178.528 178.444-80.09 178.444-178.528 178.444-178.53-80.049-178.53-178.444zm303.191 143.908a192.337 192.337 0 0 0 19.313-19.306l16.766 16.756-19.313 19.306zm144.214 122.968c-.315.348-.642.687-1.006 1.045a26.23 26.23 0 0 1 -37.049.033l-89.878-89.839 37.044-37.029 89.914 89.882a26.153 26.153 0 0 1 .975 35.908z"/><path d="m274.6 123h-117.788c-12.312 0-22.812 9.7-22.812 22.01v131.158c0 .083.245.165.249.247 0 .141.117.2.117.343a22.384 22.384 0 0 0 22.447 22.242h109.079a5.955 5.955 0 0 0 6.108-5.836v-26.164h2.6a6.783 6.783 0 0 0 6.4-6.485v-131.83c0-3.313-3.086-5.685-6.4-5.685zm-128.6 22.01c0-5.693 5.119-10.01 10.812-10.01h12.188v120h-12.187a26.482 26.482 0 0 0 -10.813 2.05zm114 141.99h-103.187a10.005 10.005 0 1 1 0-20h103.187zm9-32h-88v-120h88z"/></svg>