<svg height="484pt" viewBox="0 0 484.19799 484" width="484pt" xmlns="http://www.w3.org/2000/svg"><path d="m443.003906 250.988281v-60.347656c.105469-3.046875-2.160156-5.652344-5.191406-5.972656l-42.558594-4.113281c-4.433594-18.300782-11.769531-35.769532-21.734375-51.742188l27.222657-32.839844c1.96875-2.367187 1.824218-5.84375-.335938-8.039062l-44.144531-44.71875c-2.1875-2.210938-5.699219-2.390625-8.09375-.40625l-32.878907 27.226562c-15.988281-9.925781-33.433593-17.289062-51.699218-21.824218l-4.113282-42.683594c-.296874-3.078125-2.882812-5.4296878-5.972656-5.4296878h-63.402344c-3.089843 0-5.675781 2.3515628-5.96875 5.4296878l-4.109374 42.679687c-18.300782 4.453125-35.773438 11.808594-51.746094 21.792969l-32.835938-27.191406c-2.382812-1.976563-5.878906-1.8125-8.070312.378906l-44.714844 44.714844c-2.191406 2.191406-2.355469 5.6875-.378906 8.070312l27.226562 32.882813c-9.929687 15.988281-17.292968 33.433593-21.828125 51.699219l-42.464843 4.113281c-3.03125.320312-5.304688 2.925781-5.20703175 5.972656v63.398437c-.09765625 3.050782 2.17578175 5.65625 5.21093775 5.972657l42.570312 4.113281c4.433594 18.300781 11.773438 35.769531 21.738282 51.742188l-27.21875 32.832031c-1.980469 2.382812-1.820313 5.878906.363281 8.070312l44.710937 44.71875c2.1875 2.1875 5.683594 2.351563 8.066406.378907l32.878907-27.230469c15.992187 9.925781 33.433593 17.292969 51.699219 21.824219l4.113281 42.679687c.296875 3.078125 2.878906 5.425781 5.96875 5.425781l62.050781.042969c39.011719 38.6875 97.453125 50.136719 148.179688 29.03125 50.726562-21.105469 83.800781-70.625 83.863281-125.570313-.003907-37.984374-15.195313-72.382812-41.195313-97.082031zm-251.449218 140.023438c-.253907-2.597657-2.15625-4.734375-4.707032-5.289063-19.851562-4.410156-38.738281-12.378906-55.75-23.515625-2.199218-1.417969-5.066406-1.25-7.082031.421875l-32.019531 26.515625-36.992188-36.992187 26.515625-32.019532c1.691407-2.042968 1.84375-4.953124.371094-7.15625-11.210937-16.941406-19.167969-35.824218-23.46875-55.675781-.457031-2.523437-2.527344-4.4375-5.074219-4.703125l-41.34375-4.007812v-52.5l41.34375-4.007813c2.574219-.257812 4.675782-2.164062 5.179688-4.699219 4.394531-19.847656 12.34375-38.738281 23.464844-55.753906 1.414062-2.203125 1.230468-5.070312-.445313-7.078125l-26.53125-32.023437 36.988281-36.992188 32.015625 26.515625c2.042969 1.691407 4.949219 1.839844 7.15625.371094 16.9375-11.210937 35.820313-19.167969 55.675781-23.46875 2.550782-.554687 4.449219-2.691406 4.699219-5.292969l4-41.5625h52.5l4.003907 41.5625c.25 2.597656 2.148437 4.738282 4.699218 5.292969 19.851563 4.410156 38.738282 12.378906 55.753906 23.519531 2.199219 1.417969 5.0625 1.246094 7.078126-.421875l31.992187-26.496093 36.488281 36.945312-26.539062 32.046875c-1.6875 2.042969-1.839844 4.949219-.371094 7.152344 11.210938 16.945312 19.171875 35.824219 23.46875 55.679687.449219 2.519532 2.511719 4.433594 5.054688 4.699219l41.324218 4.011719v44.449218c-23.765625-18.5-53.027344-28.523437-83.140625-28.480468-2.625 0-5.125.085937-7.730469.234375-5.363281-62.800781-58.839843-110.480469-121.84375-108.636719-63.003906 1.84375-113.597656 52.570312-115.28125 115.578125-1.683593 63.007813 46.132813 116.359375 108.949219 121.566406-.128906 2.421875-.199219 4.851563-.199219 7.273438-.027343 30.722656 10.417969 60.539062 29.605469 84.53125l-45.808593-.03125zm21.566406-62.15625c-56.5625-4.617188-99.652344-52.632813-98.140625-109.363281 1.511719-56.730469 47.101562-102.382813 103.828125-103.976563 56.726562-1.59375 104.808594 41.429687 109.503906 97.984375-59.710938 8.695312-106.582031 55.632812-115.191406 115.355469zm61.882812 119.542969v-14.523438c.035156-17.449219 14.105469-31.617188 31.550782-31.777344h13.507812c2.53125 13.359375 14.207031 23.03125 27.804688 23.03125 13.597656 0 25.273437-9.671875 27.804687-23.03125h13.777344c17.449219.160156 31.515625 14.328125 31.554687 31.777344v14.660156c-21 14.808594-45.734375 23.554688-72.90625 23.554688-27.257812 0-52.09375-8.800782-73.09375-23.691406zm45.507813-82.3125c-7.371094-7.253907-11.519531-17.164063-11.507813-27.503907v-3.613281c25.765625-5.035156 48.21875-20.695312 61.84375-43.136719 1.789063.625 3.492188 1.476563 5.070313 2.527344 6.960937 4.648437 11.082031 12.515625 10.941406 20.886719l.144531 4.410156v18.363281c0 21.519531-17.445312 39.15625-38.648437 39.3125h-.421875c-10.269532.03125-20.132813-4.015625-27.421875-11.246093zm78.492187-46.34375-.132812-4.324219c.253906-12.433594-5.847656-24.136719-16.183594-31.050781-4.164062-2.804688-8.910156-4.632813-13.882812-5.339844-2.476563-.339844-4.90625.878906-6.113282 3.070312-20.199218 36.972656-55.867187 41.242188-58.804687 41.53125-3.820313.152344-6.847657 3.277344-6.882813 7.097656v7.859376c.019532 3.117187.324219 6.222656.910156 9.285156-5.207031-9.996094-8.152343-21.015625-8.628906-32.273438-.433594-9.746094 1.597656-19.441406 5.910156-28.191406 7.308594-14.667969 21.167969-25.871094 38.003907-30.738281 9.464843-2.925781 19.695312-2.082031 28.554687 2.355469 8.347656 4.347656 14.886719 11.515624 18.453125 20.230468l.238281.707032c.984376 2.949218 4.054688 4.660156 7.078126 3.941406 1.625-.386719 10-1.632813 15.390624 11.726562 5.359376 13.273438 5.054688 28.355469-.855468 42.460938-1.148438 2.878906-2.46875 5.6875-3.957032 8.410156.535157-2.796875.835938-5.636719.902344-8.480469zm-67 76.667968v-9.75c5.171875 1.789063 10.605469 2.691406 16.078125 2.671875h.195313c5.355468-.039062 10.671875-.964843 15.726562-2.738281v10.527344c0 8.835937-7.164062 16-16 16-8.835937 0-16-7.164063-16-16zm101 42.253906v-4.789062c0-23.964844-19.589844-43.777344-43.554687-43.777344h-13.445313v-1.097656c4.351563-3.363281 8.472656-7.019531 12.335938-10.9375 11.300781-11.28125 19.648437-23.171875 24.746094-35.339844 7.140624-17.039062 7.484374-35.359375.9375-51.585937-4.953126-12.269531-14.074219-19.476563-24.132813-19.515625-10.652344-22.507813-36.210937-33.785156-60.019531-26.480469-20.050782 5.792969-36.597656 19.246094-45.402344 36.914063-5.140625 10.582031-7.523438 22.289062-6.925781 34.035156 1.226562 29.664062 17.460937 57.265625 42.460937 71.398437v2.609375h-13.449218c-23.964844 0-43.550782 19.8125-43.550782 43.777344v4.617188c-25.007812-23.429688-39.222656-56.148438-39.285156-90.417969 0-4.109375.226562-8.253907.628906-12.320313 6.445313-63.480468 59.933594-111.761718 123.742188-111.695312 68.558594 0 124.382812 55.632812 124.382812 124.015625-.113281 34.347656-14.394531 67.121093-39.46875 90.589843zm0 0"/></svg>