<?xml version="1.0" encoding="iso-8859-1"?>
<!-- Generator: Adobe Illustrator 19.0.0, SVG Export Plug-In . SVG Version: 6.00 Build 0)  -->
<svg version="1.1" id="Capa_1" xmlns="http://www.w3.org/2000/svg" xmlns:xlink="http://www.w3.org/1999/xlink" x="0px" y="0px"
	 viewBox="0 0 512 512" style="enable-background:new 0 0 512 512;" xml:space="preserve">
<g>
	<g>
		<path d="M491.017,428.758H318.951c-3.791,0-6.995-3.203-6.995-6.995v-74.142c0-11.59-9.394-20.984-20.984-20.984
			c-11.59,0-20.984,9.394-20.984,20.984v74.142c0,26.992,21.97,48.962,48.962,48.962h172.066c11.59,0,20.984-9.394,20.984-20.984
			C512,438.152,502.606,428.758,491.017,428.758z"/>
	</g>
</g>
<g>
	<g>
		<path d="M477.314,62.174c-0.049-11.562-9.436-20.9-20.984-20.9c-0.028,0-0.056,0-0.091,0l-344.131,1.399
			c-5.568,0.021-10.897,2.252-14.814,6.204s-6.106,9.303-6.085,14.863l0.839,206.339c0.049,11.555,9.436,20.893,20.984,20.893
			c0.028,0,0.056,0,0.091,0.014l344.131-1.399c5.568-0.021,10.891-2.259,14.814-6.211c3.917-3.945,6.106-9.296,6.085-14.863
			L477.314,62.174z M133.932,248.915L133.26,84.543l302.171-1.231l0.671,164.372L133.932,248.915z"/>
	</g>
</g>
<g>
	<g>
		<path d="M103.002,186.286l-60.475,31.168l-0.42-100.777l61.412,29.531l18.186-37.819L30.077,64.322
			c-6.519-3.134-14.185-2.693-20.298,1.168C3.665,69.351-0.028,76.087,0,83.319L0.7,251.887c0.035,7.295,3.854,14.059,10.1,17.85
			c3.336,2.028,7.106,3.05,10.883,3.05c3.294,0,6.596-0.776,9.617-2.336l90.929-46.863L103.002,186.286z"/>
	</g>
</g>
<g>
	<g>
		<path d="M379.803,272.577l-41.967,0.399l0.497,53.767l-98.623,0.49l-0.504-53.949l-41.967,0.399l0.699,74.835
			c0.112,11.52,9.478,20.788,20.984,20.788c0.042,0,0.077,0,0.112,0l140.597-0.699c5.582-0.028,10.919-2.287,14.842-6.253
			c3.91-3.98,6.092-9.352,6.036-14.933L379.803,272.577z"/>
	</g>
</g>
<g>
</g>
<g>
</g>
<g>
</g>
<g>
</g>
<g>
</g>
<g>
</g>
<g>
</g>
<g>
</g>
<g>
</g>
<g>
</g>
<g>
</g>
<g>
</g>
<g>
</g>
<g>
</g>
<g>
</g>
</svg>
