<svg height="492pt" viewBox="0 0 492 492.00322" width="492pt" xmlns="http://www.w3.org/2000/svg"><path d="m486.578125 204.800781-47.90625-4.617187c-4.957031-20.59375-13.230469-40.246094-24.503906-58.183594l30.53125-36.867188c1.964843-2.371093 1.8125-5.847656-.351563-8.039062l-49.070312-49.699219c-2.1875-2.21875-5.703125-2.394531-8.101563-.40625l-36.90625 30.570313c-17.957031-11.207032-37.578125-19.488282-58.132812-24.539063l-4.617188-47.75c-.3125-3.046875-2.914062-5.3398435-5.972656-5.269531h-70.460937c-3.058594-.0703125-5.660157 2.222656-5.972657 5.269531l-4.613281 47.824219c-20.589844 4.945312-40.242188 13.207031-58.175781 24.464844l-36.867188-30.550782c-2.382812-1.976562-5.878906-1.816406-8.070312.371094l-49.699219 49.691406c-2.1875 2.191407-2.351562 5.683594-.378906 8.066407l30.566406 36.914062c-11.203125 17.953125-19.488281 37.578125-24.539062 58.132813l-47.910157 4.617187c-3.074219.296875-5.42187475 2.882813-5.425781 5.972657v70.457031c0 3.089843 2.347656 5.675781 5.425781 5.972656l47.90625 4.617187c4.957031 20.59375 13.230469 40.246094 24.503907 58.179688l-30.535157 36.867188c-1.972656 2.382812-1.8125 5.878906.378907 8.070312l49.699218 49.699219c2.191406 2.1875 5.683594 2.351562 8.070313.378906l36.910156-30.566406c17.960937 11.203125 37.585937 19.488281 58.140625 24.535156l4.621094 47.75c.308594 3.042969 2.90625 5.335937 5.964844 5.265625h70.460937c3.058594.074219 5.660156-2.21875 5.972656-5.265625l3.574219-37.027344c21.472656 23.867188 52.066406 37.5 84.171875 37.5 62.359375 0 113.09375-50.597656 113.09375-112.8125.003906-31.90625-13.550781-62.3125-37.28125-83.640625l35.523437-3.550781c3.066407-.308594 5.398438-2.886719 5.398438-5.96875v-70.460937c0-3.089844-2.347656-5.675782-5.421875-5.972657zm-10.21875 169.613281c0 55.601563-45.351563 100.832032-101.09375 100.832032-33.15625.015625-64.21875-16.210938-83.144531-43.433594-.320313-.773438-.800782-1.46875-1.40625-2.046875-7.355469-11.164063-12.398438-23.6875-14.839844-36.828125-1.128906-6.109375-1.699219-12.308594-1.699219-18.523438.050781-55.765624 45.324219-100.921874 101.089844-100.828124 55.742187 0 101.09375 45.230468 101.09375 100.828124zm-214.183594 0c.003907 4.855469.316407 9.703126.9375 14.515626-35.023437 4.117187-70.328125-4.875-99.113281-25.246094v-27.015625c-.066406-9.460938 3.652344-18.558594 10.335938-25.261719 6.679687-6.699219 15.765624-10.445312 25.226562-10.40625h15.738281c2.484375 14 15.238281 25.78125 30.550781 25.78125s28.0625-11.78125 30.550782-25.78125h13.253906c-1.679688 2-3.308594 3.800781-4.871094 5.871094-14.734375 19.429687-22.675781 43.160156-22.609375 67.542968zm127.101563-111.960937c-4.648438-.578125-9.328125-.867187-14.015625-.867187-27.402344-.058594-53.886719 9.902343-74.460938 28.003906-2.761719-.4375-5.5625-.632813-8.359375-.589844h-15.441406v-2.964844c4-3.433594 8.957031-7.511718 13.859375-12.410156 12.589844-12.578125 21.808594-25.820312 27.484375-39.363281 7.921875-18.917969 8.265625-39.246094 1-57.25-5.5-13.632813-15.679688-21.605469-26.839844-21.40625-11.667968-25.148438-40.105468-37.828125-66.609375-29.699219-22.277343 6.4375-40.65625 21.378906-50.429687 40.988281-5.757813 11.730469-8.460938 24.726563-7.859375 37.78125 1.367187 33.136719 19.398437 63.960938 47.398437 79.609375v4.714844h-15.441406c-12.644531-.035156-24.777344 4.976562-33.710938 13.925781-8.929687 8.949219-13.917968 21.097657-13.851562 33.742188v17.566406c-31-26.398437-49.382812-65.128906-49.382812-108.234375 0-79.347656 64.453124-143.898438 143.800781-143.898438 79.347656 0 143.851562 64.550782 143.851562 143.898438-.019531 5.5-.351562 10.988281-.992187 16.449219zm-162.277344 32.238281v-11.929687c6.070312 2.179687 12.46875 3.289062 18.914062 3.28125h.476563c6.347656-.0625 12.640625-1.203125 18.609375-3.367188v12.816407c0 10.492187-8.503906 19-19 19-10.492188 0-19-8.507813-19-19zm-12.097656-33.460937c-8.339844-8.285157-12.988282-19.578125-12.902344-31.328125v-4.652344c29.070312-5.460938 54.386719-23.164062 69.488281-48.597656 2.234375.734375 4.351563 1.777344 6.296875 3.101562 7.9375 5.375 12.582032 14.429688 12.320313 24.007813l-.105469 4.941406v20.574219c0 24.503906-19.582031 44.585937-43.738281 44.765625-11.753907.132812-23.0625-4.488281-31.359375-12.8125zm87.097656-52.441407.066406-4.847656c.316406-13.667968-6.359375-26.554687-17.707031-34.179687-4.558594-3.082031-9.753906-5.089844-15.203125-5.867188-2.46875-.339843-4.890625.878907-6.085938 3.066407-22.851562 41.820312-63.054687 46.589843-66.25 46.898437-3.859374.167969-6.882812 3.378906-6.820312 7.242187v8.800782c-.046875 5.121094.605469 10.230468 1.9375 15.175781-7.449219-12.394531-11.6875-26.453125-12.339844-40.898437-.507812-11.035157 1.777344-22.019532 6.644532-31.9375 8.277343-16.613282 23.941406-29.296876 43-34.808594 11.363281-3.285156 22.597656-2.355469 32.503906 2.6875 9.324218 4.746094 16.585937 12.710937 21.019531 23.050781l.269531.820313c.984375 2.949218 4.054688 4.660156 7.078125 3.941406 1.917969-.453125 11.820313-1.941406 18.082031 13.574218 6.074219 15.046876 5.730469 32.140626-.964843 48.121094-1.929688 4.570313-4.226563 8.976563-6.867188 13.175782 1.085938-4.425782 1.636719-8.96875 1.636719-13.53125zm178 67.011719-42.753906 4.285157c-11.039063-7.253907-23.265625-12.507813-36.125-15.523438.730468-6.160156 1.097656-12.359375 1.101562-18.5625 0-85.964844-69.9375-155.898438-155.902344-155.898438-85.960937 0-155.898437 69.9375-155.898437 155.898438s69.9375 155.902344 155.898437 155.902344c6.34375-.003906 12.679688-.386719 18.972657-1.148438 2.980469 12.4375 8.085937 24.265625 15.089843 34.964844l-4.289062 44.28125h-59.558594l-4.507812-46.632812c-.253906-2.578126-2.160156-4.691407-4.703125-5.207032-22.136719-4.90625-43.203125-13.78125-62.179688-26.191406-2.203125-1.414062-5.070312-1.234375-7.082031.441406l-36.0625 29.867188-41.96875-41.96875 29.855469-36.054688c1.691406-2.039062 1.84375-4.949218.371093-7.152344-12.503906-18.898437-21.382812-39.957031-26.175781-62.105468-.554687-2.550782-2.691406-4.449219-5.289062-4.699219l-46.792969-4.515625v-59.558594l46.792969-4.511718c2.597656-.25 4.734375-2.148438 5.289062-4.699219 4.917969-22.140625 13.804688-43.207031 26.226563-62.183594 1.417968-2.199219 1.25-5.0625-.421875-7.078125l-29.855469-36.058594 41.96875-41.976562 36.054688 29.859375c2.042968 1.691406 4.953124 1.839843 7.15625.371093 18.898437-12.503906 39.960937-21.382812 62.109374-26.179687 2.53125-.480469 4.441407-2.570313 4.703126-5.132813l4.511718-46.632812h59.558594l4.511719 46.632812c.253906 2.582032 2.164062 4.695313 4.707031 5.210938 22.136719 4.90625 43.203125 13.78125 62.179688 26.191406 2.203124 1.414063 5.070312 1.234375 7.082031-.441406l36.027343-29.84375 41.394532 41.917969-29.878906 36.078125c-1.691407 2.042968-1.84375 4.949218-.371094 7.15625 12.503906 18.898437 21.382812 39.957031 26.175781 62.105468.554687 2.550782 2.691406 4.449219 5.289063 4.699219l46.789062 4.515625zm0 0"/><path d="m378 312.378906c-3.3125 0-6 2.6875-6 6v56.429688l-27.753906 27.566406c-2.371094 2.320312-2.414063 6.117188-.097656 8.488281 1.113281 1.125 2.628906 1.757813 4.207031 1.757813 1.582031 0 3.097656-.632813 4.210937-1.757813l29.5-29.328125c1.171875-1.105468 1.867188-2.628906 1.933594-4.242187v-58.914063c0-3.3125-2.683594-6-6-6zm0 0"/></svg>