<svg id="Layer_1" height="512" viewBox="0 0 512 512" width="512" xmlns="http://www.w3.org/2000/svg" data-name="Layer 1"><path d="m207.093 62.474c-79.731 0-144.6 64.838-144.6 144.535s64.867 144.534 144.6 144.534 144.6-64.837 144.6-144.534-64.868-144.535-144.6-144.535zm0 277.069c-73.114 0-132.6-59.454-132.6-132.534s59.484-132.535 132.6-132.535 132.6 59.455 132.6 132.535-59.485 132.534-132.6 132.534z"/><path d="m390.808 336.475a6 6 0 0 0 -8.484 0l-4.59 4.587-17.861-17.851a190.934 190.934 0 0 0 39.288-116.2c0-105.86-86.161-191.983-192.068-191.983s-192.067 86.121-192.067 191.981 86.161 191.983 192.067 191.983a191.134 191.134 0 0 0 116.261-39.276l17.861 17.851-4.8 4.8a6 6 0 0 0 0 8.488l94.942 94.9a38.42 38.42 0 0 0 54.294 0l.057-.056q.734-.723 1.429-1.488c13.621-15 12.966-38.731-1.424-52.867zm-363.782-129.466c0-99.243 80.778-179.983 180.067-179.983s180.068 80.74 180.068 179.983-80.778 179.983-180.068 179.983-180.067-80.741-180.067-179.983zm305.7 145.106a193.821 193.821 0 0 0 19.546-19.538l16.979 16.969-19.551 19.537zm145.526 124.028q-.477.525-.984 1.023l-.06.06a26.5 26.5 0 0 1 -37.4.007l-90.665-90.623 37.423-37.41 90.7 90.665a26.423 26.423 0 0 1 .986 36.278z"/><path d="m292 241.187v-65.3c0-.147-.078-.291-.088-.436 0-.107-.01-.211-.011-.32a6.017 6.017 0 0 0 -3.947-5.575l-86.2-31.68a6.013 6.013 0 0 0 -4.144 0l-86.191 31.68a6 6 0 0 0 -3.93 5.575 5.8 5.8 0 0 0 3.6 5.648l23.911 9.389v61.739a6.208 6.208 0 0 0 4.126 5.622 173.381 173.381 0 0 0 120.871 0 6.089 6.089 0 0 0 4-5.622v-61.739l16-6.209v57.308a16.757 16.757 0 0 0 -10.49 15.349 16.541 16.541 0 0 0 33.082 0 16.814 16.814 0 0 0 -10.589-15.429zm-145 6.5v-15.287a174.374 174.374 0 0 0 105 0v15.284a162.4 162.4 0 0 1 -105-.001zm105-27.919a162.384 162.384 0 0 1 -105 0v-24.929l50.281 19.482a6.584 6.584 0 0 0 2.287.409 6.514 6.514 0 0 0 2.275-.409l50.157-19.482zm4.149-39.45a5.95 5.95 0 0 0 -.733.285l-55.737 21.693-55.737-21.696a5.95 5.95 0 0 0 -.733-.285l-12.764-4.968 69.234-25.447 69.234 25.448zm29.828 80.835a4.533 4.533 0 1 1 4.533-4.533 4.538 4.538 0 0 1 -4.533 4.529z"/></svg>