<svg height="481pt" viewBox="-76 0 481 481.917" width="481pt" xmlns="http://www.w3.org/2000/svg"><path d="m164.457031 0c-67.421875 0-122 55.542969-122 123.8125v86.105469h-35.824219c-3.3125 0-6.175781 2.214843-6.175781 5.527343v260.390626c.078125 3.363281 2.8125 6.054687 6.175781 6.082031h315.652344c3.363282-.027344 6.097656-2.71875 6.171875-6.082031v-260.390626c0-3.3125-2.859375-5.527343-6.171875-5.527343h-35.828125v-86.101563c0-68.273437-54.574219-123.816406-122-123.816406zm-110 123.816406c0-61.652344 49.195313-111.8125 110-111.8125 60.808594 0 110 50.15625 110 111.8125v86.101563h-23v-86.101563c0-48.949218-38.898437-88.773437-87-88.773437-48.097656 0-87 39.820312-87 88.773437v86.101563h-23zm185 86.101563h-150v-86.101563c0-42.332031 33.515625-76.773437 75-76.773437 41.488281 0 75 34.441406 75 76.773437zm77 260h-304v-248h304zm0 0"/><path d="m146.457031 368.21875v35.414062c0 9.386719 7.613281 17 17 17 9.390625 0 17-7.613281 17-17v-35.5c13.453125-6.800781 22.542969-20.609374 22.542969-34.871093.085938-21.390625-17.15625-38.808594-38.542969-38.945313-21.605469-.085937-39.203125 17.335938-39.335937 38.945313 0 15.300781 8.246094 28.589843 21.335937 34.957031zm18-61.902344c14.761719.128906 26.636719 12.183594 26.542969 26.945313 0 11.957031-9.402344 21.816406-18.691406 25.371093-2.316406.890626-3.851563 3.117188-3.851563 5.601563v39.398437c0 2.761719-2.238281 5-5 5s-5-2.238281-5-5v-39.398437c0-2.542969-1.601562-4.808594-4-5.65625-10.53125-3.726563-17.335937-13.664063-17.335937-25.320313.125-14.980468 12.355468-27.03125 27.335937-26.941406zm0 0"/></svg>