<?xml version="1.0" encoding="iso-8859-1"?>
<!-- Generator: Adobe Illustrator 19.0.0, SVG Export Plug-In . SVG Version: 6.00 Build 0)  -->
<svg version="1.1" id="Capa_1" xmlns="http://www.w3.org/2000/svg" xmlns:xlink="http://www.w3.org/1999/xlink" x="0px" y="0px"
	 viewBox="0 0 512 512" style="enable-background:new 0 0 512 512;" xml:space="preserve">
<g>
	<g>
		<path d="M495.377,203.636h-51.92l-49.388-76.096c-3.07-4.727-8.312-7.575-13.947-7.575H188.398c-4.3,0-8.428,1.662-11.526,4.643
			l-82.169,79.033h-78.08C7.442,203.642,0,211.084,0,220.265v108.606c0,9.182,7.442,16.623,16.623,16.623h57.628v-33.247H33.247
			v-75.359h68.15c4.3,0,8.428-1.662,11.526-4.643l82.169-79.033h176.003l49.383,76.102c3.07,4.727,8.312,7.575,13.947,7.575h44.329
			v75.359h-36.571v33.247h53.195c9.187,0,16.623-7.442,16.623-16.629V220.26C512,211.078,504.558,203.636,495.377,203.636z"/>
	</g>
</g>
<g>
	<g>
		<rect x="165.68" y="312.242" width="186.182" height="33.247"/>
	</g>
</g>
<g>
	<g>
		<path d="M120.242,269.022c-33.917,0-61.507,27.589-61.507,61.506s27.589,61.506,61.507,61.506
			c33.912,0,61.506-27.589,61.506-61.506C181.749,296.611,154.154,269.022,120.242,269.022z M120.242,358.793
			c-15.582,0-28.26-12.678-28.26-28.26c0-15.582,12.678-28.26,28.26-28.26c15.582,0,28.26,12.678,28.26,28.26
			C148.502,346.115,135.824,358.793,120.242,358.793z"/>
	</g>
</g>
<g>
	<g>
		<path d="M397.299,269.022c-33.923,0-61.512,27.589-61.512,61.506s27.595,61.506,61.512,61.506
			c33.912,0,61.507-27.589,61.507-61.506C458.805,296.611,431.21,269.022,397.299,269.022z M397.299,358.793
			c-15.587,0-28.265-12.678-28.265-28.26c0-15.582,12.678-28.26,28.265-28.26c15.582,0,28.26,12.678,28.26,28.26
			C425.558,346.115,412.88,358.793,397.299,358.793z"/>
	</g>
</g>
<g>
</g>
<g>
</g>
<g>
</g>
<g>
</g>
<g>
</g>
<g>
</g>
<g>
</g>
<g>
</g>
<g>
</g>
<g>
</g>
<g>
</g>
<g>
</g>
<g>
</g>
<g>
</g>
<g>
</g>
</svg>
