<?xml version="1.0" encoding="iso-8859-1"?>
<!-- Generator: Adobe Illustrator 19.0.0, SVG Export Plug-In . SVG Version: 6.00 Build 0)  -->
<svg version="1.1" id="Capa_1" xmlns="http://www.w3.org/2000/svg" xmlns:xlink="http://www.w3.org/1999/xlink" x="0px" y="0px"
	 viewBox="0 0 512 512" style="enable-background:new 0 0 512 512;" xml:space="preserve">
<g>
	<g>
		<path d="M433.991,404.326v74.712h-47.245v-39.004h-32.961v55.485c0,9.103,7.378,16.481,16.481,16.481h80.206
			c9.103,0,16.481-7.378,16.481-16.481v-91.193H433.991z"/>
	</g>
</g>
<g>
	<g>
		<path d="M125.253,440.034v39.004H78.009V392.24H45.047v103.279c0,9.103,7.378,16.481,16.481,16.481h80.206
			c9.103,0,16.481-7.378,16.481-16.481v-55.485H125.253z"/>
	</g>
</g>
<g>
	<g>
		<path d="M463.124,309.7l-25.27-30.215l-25.292,21.15l21.43,25.622v96.747H78.009v-95.731l26.276-25.353l-22.886-23.721
			l-31.313,30.215c-3.219,3.104-5.038,7.389-5.038,11.861v119.21c0,9.103,7.378,16.481,16.481,16.481h388.944
			c9.103,0,16.481-7.378,16.481-16.481v-119.21C466.953,316.407,465.596,312.666,463.124,309.7z"/>
	</g>
</g>
<g>
	<g>
		<path d="M442.528,284.99l-30.215-93.391c-2.197-6.801-8.531-11.41-15.679-11.41H120.858c-7.18,0-13.531,4.648-15.706,11.487
			l-29.665,93.391c-1.593,5.01-0.698,10.476,2.406,14.723c3.104,4.247,8.043,6.752,13.3,6.752H426.85
			c5.274,0,10.229-2.522,13.322-6.785C443.276,295.499,444.149,290.005,442.528,284.99z M113.722,273.579l19.195-60.429h251.726
			l19.552,60.429H113.722z"/>
	</g>
</g>
<g>
	<g>
		<path d="M170.85,336.206h-62.077c-9.103,0-16.481,7.378-16.481,16.481v41.202c0,9.103,7.378,16.481,16.481,16.481h62.077
			c9.103,0,16.481-7.378,16.481-16.481v-41.202C187.33,343.584,179.953,336.206,170.85,336.206z M154.369,377.408h-29.116v-8.24
			h29.116V377.408z"/>
	</g>
</g>
<g>
	<g>
		<path d="M403.227,336.206H341.15c-9.103,0-16.481,7.378-16.481,16.481v41.202c0,9.103,7.378,16.481,16.481,16.481h62.077
			c9.108,0,16.481-7.378,16.481-16.481v-41.202C419.708,343.584,412.33,336.206,403.227,336.206z M386.752,377.408h-29.116v-8.24
			h29.116V377.408z"/>
	</g>
</g>
<g>
	<g>
		<rect x="240.618" y="132.395" width="32.961" height="64.275"/>
	</g>
</g>
<g>
	<g>
		<path d="M309.288,39.004H204.91c-9.103,0-16.481,7.378-16.481,16.481v49.442c0,24.644,19.304,43.948,43.948,43.948h49.442
			c24.644,0,43.948-19.304,43.948-43.948V55.485C325.768,46.382,318.39,39.004,309.288,39.004z M292.807,104.927
			c0,6.263-4.719,10.987-10.987,10.987h-49.442c-6.263,0-10.987-4.724-10.987-10.987V71.966h71.416V104.927z"/>
	</g>
</g>
<g>
	<g>
		<path d="M224.137,0c-9.103,0-16.481,7.378-16.481,16.481v36.258c0,9.103,7.378,16.481,16.481,16.481s16.481-7.378,16.481-16.481
			V16.481C240.618,7.378,233.24,0,224.137,0z"/>
	</g>
</g>
<g>
	<g>
		<path d="M290.06,0c-9.103,0-16.481,7.378-16.481,16.481v36.258c0,9.103,7.378,16.481,16.481,16.481s16.481-7.378,16.481-16.481
			V16.481C306.541,7.378,299.163,0,290.06,0z"/>
	</g>
</g>
<g>
</g>
<g>
</g>
<g>
</g>
<g>
</g>
<g>
</g>
<g>
</g>
<g>
</g>
<g>
</g>
<g>
</g>
<g>
</g>
<g>
</g>
<g>
</g>
<g>
</g>
<g>
</g>
<g>
</g>
</svg>
