<svg height="484pt" viewBox="0 -75 484 484" width="484pt" xmlns="http://www.w3.org/2000/svg"><path d="m484 6c0-3.3125-2.6875-6-6-6h-472c-3.3125 0-6 2.6875-6 6v321c0 3.3125 2.6875 6 6 6h472c3.3125 0 6-2.6875 6-6zm-246.882812 208.113281c1.285156 1.140625 2.945312 1.769531 4.664062 1.765625 1.675781.007813 3.292969-.597656 4.554688-1.699218l67.613281-58.265626 150.871093 164.085938h-445.332031l149.347657-164.839844zm85.941406-65.875 148.941406-128v290.148438zm-81.292969 54.347657-221.320313-190.585938h443.089844zm-82.027344-55.105469-147.738281 163.21875v-290.441407zm0 0"/><path d="m236.082031 141.417969c9.46875 0 26.628907-2.8125 26.628907-9.171875 0-1.921875-1.628907-5.621094-4.734376-5.621094-3.253906 0-7.691406 3.847656-19.675781 3.847656-26.035156 0-33.726562-18.640625-33.726562-39.648437 0-22.484375 8.726562-42.308594 38.164062-42.308594 25.445313 0 36.984375 14.648437 36.984375 40.976563 0 7.402343-.945312 21.007812-8.488281 21.007812-2.8125 0-4.234375-1.921875-5.234375-7.101562v-25c0-13.164063-11.335938-19.820313-23.90625-19.820313-10.210938 0-21.203125 4.289063-21.203125 9.910156 0 2.367188 1.902344 7.101563 4.5625 7.101563 2.664063 0 5.507813-3.996094 14.53125-3.996094 8.285156 0 12.015625 3.402344 12.015625 10.355469v2.050781h-4.820312c-17.160157 0-29.734376 4.375-29.734376 18.28125 0 11.980469 9.464844 17.054688 18.488282 17.054688 8.136718 0 13.757812-3.976563 18.492187-10.039063 1.332031 6.0625 7.101563 10.808594 15.535157 10.808594 15.234374 0 21.890624-15.378907 21.890624-33.574219 0-30.328125-18.046874-48.964844-49.113281-48.964844-34.464843 0-50.589843 23.523438-50.589843 53.402344 0 34.175781 21.152343 50.449219 43.933593 50.449219zm16.917969-44.378907c0 6.0625-6.535156 12.128907-13.339844 12.128907-3.996094 0-6.890625-2.59375-6.890625-7.324219 0-6.953125 5.976563-9.84375 16.183594-9.84375h4.046875zm0 0"/></svg>