<?xml version="1.0"?>
<svg xmlns="http://www.w3.org/2000/svg" id="Layer_1" data-name="Layer 1" viewBox="0 0 512 512" width="512" height="512"><title>Set square</title><path d="M455.266,94a6.449,6.449,0,0,0-6.792,1.239L201,336.857V38.393c0-3.314-2.21-6.393-5.523-6.393H59.4A6.7,6.7,0,0,0,53,38.393V85.864c0,.665-.4,1.383-.4,2.136s.4,1.471.4,2.136v31.728c0,.665-.4,1.383-.4,2.136s.4,1.471.4,2.136v30.728c0,.665-.4,1.383-.4,2.136s.4,1.471.4,2.136v31.728c0,.665-.4,1.383-.4,2.136s.4,1.471.4,2.136v30.728c0,.665-.4,1.383-.4,2.136s.4,1.471.4,2.136v29.728c0,.665-.4,1.383-.4,2.136s.4,1.471.4,2.136v31.728c0,.665-.4,1.383-.4,2.136s.4,1.471.4,2.136v30.728c0,.665-.4,1.383-.4,2.136s.4,1.471.4,2.136v30.728c0,.665-.4,1.383-.4,2.136s.4,1.471.4,2.136v30.728c0,.665-.4,1.383-.4,2.136s.4,1.471.4,2.136v30.685A6.507,6.507,0,0,0,59.4,444H92.04L65.955,469.406a6.248,6.248,0,0,0-1.362,6.707A6.142,6.142,0,0,0,70.149,480H452.875A6.455,6.455,0,0,0,459,473.607V99.528A6.06,6.06,0,0,0,455.266,94ZM189,348.585l-82,80.972V44h82ZM65,411H76a6,6,0,0,0,0-12H65V376H82a6,6,0,0,0,0-12H65V341H76a6,6,0,0,0,0-12H65V306H82a6,6,0,0,0,0-12H65V270H76a6,6,0,0,0,0-12H65V236H82a6,6,0,0,0,0-12H65V201H76a6,6,0,0,0,0-12H65V165H82a6,6,0,0,0,0-12H65V130H76a6,6,0,0,0,0-12H65V94H82a6,6,0,0,0,0-12H65V44H95V432H65Zm19.872,57L447,113.783V188H418.3a6,6,0,0,0,0,12H447v36H430.1a6,6,0,0,0,0,12H447v39H418.3a6,6,0,0,0,0,12H447v40H430.1a6,6,0,0,0,0,12H447v40H418.3a6,6,0,0,0,0,12H447v35H430.1a6,6,0,0,0,0,12H447v18Z"/><path d="M371.4,282.915a5.917,5.917,0,0,0-6.486,1.293l-109.4,109.106a6.355,6.355,0,0,0-1.3,6.76A6.225,6.225,0,0,0,259.779,404H369.2c3.314,0,5.8-3.123,5.8-6.437V288.457A5.911,5.911,0,0,0,371.4,282.915ZM363,392H274.294L363,302.913Z"/></svg>
