<svg height="478pt" viewBox="-61 0 478 478" width="478pt" xmlns="http://www.w3.org/2000/svg"><path d="m252.023438 1.972656c-1.113282-1.207031-2.664063-1.9140622-4.304688-1.972656h-206.289062c-22.835938.148438-41.300782 18.632812-41.429688 41.464844v395.070312c.128906 22.832032 18.59375 41.316406 41.429688 41.464844h273.140624c22.835938-.148438 41.300782-18.632812 41.429688-41.464844v-325.136718c-.046875-1.597657-.699219-3.117188-1.828125-4.253907zm1.976562 19.128906 81.550781 83.898438h-68.726562c-3.402344.074219-6.691407-1.234375-9.109375-3.628906-2.417969-2.398438-3.757813-5.675782-3.714844-9.078125zm60.570312 444.898438h-273.140624c-16.210938-.140625-29.3125-13.257812-29.429688-29.464844v-395.070312c.117188-16.207032 13.21875-29.324219 29.429688-29.464844h200.570312v80.292969c-.039062 6.585937 2.566406 12.910156 7.234375 17.558593 4.667969 4.644532 11.003906 7.21875 17.589844 7.148438h77.175781v319.535156c-.117188 16.207032-13.21875 29.324219-29.429688 29.464844zm0 0"/><path d="m285.015625 395h-219.914063c-3.316406 0-6 2.6875-6 6s2.683594 6 6 6h219.914063c3.3125 0 6-2.6875 6-6s-2.6875-6-6-6zm0 0"/><path d="m65.101562 356h131.65625c3.3125 0 6-2.6875 6-6s-2.6875-6-6-6h-131.65625c-3.316406 0-6 2.6875-6 6s2.683594 6 6 6zm0 0"/><path d="m97 307.929688c.09375 3.367187 2.84375 6.054687 6.210938 6.070312h149.578124c3.367188-.015625 6.117188-2.703125 6.210938-6.070312v-56.1875c1.023438-11.542969-2.878906-22.984376-10.734375-31.503907-7.859375-8.519531-18.949219-13.328125-30.542969-13.238281h-79.4375c-11.589844-.089844-22.683594 4.714844-30.542968 13.234375-7.863282 8.519531-11.761719 19.960937-10.742188 31.507813zm77.5625-69.929688h6.945312l6.578126 36.519531-9.957032 9.097657-9.300781-9.082032zm6.769531-12h-6.664062l-1.871094-7h10.40625zm-64.753906 2.464844c5.570313-6.085938 13.457031-9.523438 21.707031-9.464844h22.160156l3.085938 12.5c0 .03125-.019531-.027344-.023438 0l-6.988281 44.328125c-.378906 1.984375.273438 4.023437 1.734375 5.417969l15.585938 14.988281c2.273437 2.1875 5.847656 2.238281 8.183594.121094l16.585937-15c1.539063-1.390625 2.25-3.480469 1.878906-5.519531l-8.042969-44.234376 3.109376-12.601562h22.167968c8.25-.058594 16.136719 3.382812 21.703125 9.472656 5.570313 6.085938 8.292969 14.25 7.5 22.460938-.023437.199218.074219.316406.074219.519531v50.546875h-138v-50.546875c0-.199219.09375-.316406.074219-.519531-.789063-8.214844 1.9375-16.375 7.503906-22.46875zm0 0"/><path d="m177 203.789062c22.054688-.015624 39.941406-17.871093 40-39.925781v-33.792969c-.132812-14.417968-11.84375-26.042968-26.261719-26.070312h-27.851562c-14.34375.058594-25.929688 11.726562-25.886719 26.070312v33.792969c.058594 22.054688 17.945312 39.910157 40 39.925781zm0-12c-15.429688-.007812-27.949219-12.492187-28-27.925781v-19.261719c8.085938-.261718 15.765625-3.609374 21.460938-9.355468 3.226562 3.542968 7.09375 6.445312 11.398437 8.550781 4.46875 2.121094 9.351563 3.214844 14.292969 3.199219 2.980468-.015625 5.949218-.367188 8.847656-1.046875v17.914062c-.050781 15.433594-12.570312 27.917969-28 27.925781zm28-61.71875v3.429688c-7 2.140625-12.578125 1.933594-17.835938-.554688-7.476562-3.535156-12.519531-10.949218-15.355468-16.949218h18.929687c7.796875.023437 14.136719 6.28125 14.261719 14.074218zm-46-13.421874c1.222656 3.023437 2.660156 5.957031 4.300781 8.777343-3.625 4.195313-8.769531 6.777344-14.300781 7.175781v-2.535156c-.011719-6.195312 4.058594-11.65625 10-13.417968zm0 0"/></svg>