<svg height="449pt" viewBox="0 -11 449.562 449" width="449pt" xmlns="http://www.w3.org/2000/svg"><path d="m81.898438 270.472656 45.574218 151.734375c.78125 2.496094 3.128906 4.164063 5.746094 4.082031h77.644531c1.710938.089844 3.375-.597656 4.527344-1.871093 1.152344-1.273438 1.667969-2.996094 1.410156-4.691407l-21.101562-146.867187c41.054687 5.980469 79.515625 23.222656 106.460937 38.117187 20.484375 11.25 40.015625 24.148438 58.402344 38.570313v6.75c-.082031 1.550781.46875 3.066406 1.53125 4.199219 1.066406 1.128906 2.542969 1.777344 4.097656 1.792968h76.933594c3.3125 0 6.4375-2.679687 6.4375-5.992187v-350.398437c0-3.3125-3.125-5.609376-6.4375-5.609376h-76.933594c-1.511718-.074218-2.984375.492188-4.054687 1.558594-1.074219 1.070313-1.644531 2.539063-1.574219 4.050782v8.75c-17 12.609374-107.925781 78.640624-193.949219 78.640624h-78.039062c-48.839844 0-88.574219 39.875-88.574219 88.71875.046875 46.335938 35.703125 84.851563 81.898438 88.464844zm290.664062-258.183594h65v338h-65zm-200 93.183594c50-1.652344 100.066406-23.414062 133.785156-41.785156 18.753906-10.226562 36.859375-21.601562 54.214844-34.054688v304.722657c-16.746094-12.320313-34.242188-23.582031-52.390625-33.726563-33.253906-18.414062-83.609375-40.230468-135.609375-41.8125zm10.785156 165.816406 20.585938 143h-66.25l-43.179688-144h72.058594v.117188c6 0 11.222656.394531 16.785156.882812zm-94.773437-166h71.988281v153h-71.988281c-42.25 0-76.5-34.25-76.5-76.5s34.25-76.5 76.5-76.5zm0 0"/></svg>