<svg height="478pt" viewBox="-61 0 478 478" width="478pt" xmlns="http://www.w3.org/2000/svg"><path d="m252.023438 1.972656c-1.113282-1.207031-2.664063-1.9140622-4.304688-1.972656h-206.289062c-22.835938.148438-41.300782 18.632812-41.429688 41.464844v395.070312c.128906 22.832032 18.59375 41.316406 41.429688 41.464844h273.140624c22.835938-.148438 41.300782-18.632812 41.429688-41.464844v-325.136718c-.046875-1.597657-.699219-3.117188-1.828125-4.253907zm1.976562 19.128906 81.550781 83.898438h-68.726562c-3.402344.074219-6.691407-1.234375-9.109375-3.628906-2.417969-2.398438-3.757813-5.675782-3.714844-9.078125zm60.570312 444.898438h-273.140624c-16.210938-.140625-29.3125-13.257812-29.429688-29.464844v-395.070312c.117188-16.207032 13.21875-29.324219 29.429688-29.464844h200.570312v80.292969c-.039062 6.585937 2.566406 12.910156 7.234375 17.558593 4.667969 4.644532 11.003906 7.21875 17.589844 7.148438h77.175781v319.535156c-.117188 16.207032-13.21875 29.324219-29.429688 29.464844zm0 0"/><path d="m285.015625 395h-219.914063c-3.316406 0-6 2.6875-6 6s2.683594 6 6 6h219.914063c3.3125 0 6-2.6875 6-6s-2.6875-6-6-6zm0 0"/><path d="m65.101562 356h131.65625c3.3125 0 6-2.6875 6-6s-2.6875-6-6-6h-131.65625c-3.316406 0-6 2.6875-6 6s2.683594 6 6 6zm0 0"/><path d="m108.785156 312h138.429688c3.3125 0 5.785156-3.019531 5.785156-6.332031v-31.167969c.023438-10.242188-4.046875-20.070312-11.300781-27.300781-7.257813-7.226563-17.101563-11.261719-27.34375-11.199219h-11.355469v-.5c4-2.640625 7.0625-5.742188 10.753906-9.429688 9.976563-9.964843 17.429688-20.472656 21.9375-31.234374 6.339844-15.128907 6.679688-31.402344.863282-45.8125-4.390626-10.875-12.433594-17.335938-21.375-17.570313-9.617188-19.816406-32.238282-29.664063-53.292969-23.207031-17.785157 5.140625-32.464844 17.082031-40.277344 32.761718-4.671875 9.363282-6.910156 19.753907-6.5 30.210938 1.078125 26.117188 15.890625 50.433594 36.890625 63.015625v1.765625h-10.355469c-10.242187-.0625-20.085937 3.972656-27.34375 11.199219-7.253906 7.230469-11.324219 17.058593-11.300781 27.300781v31.167969c0 3.3125 2.472656 6.332031 5.785156 6.332031zm55.214844-70.359375v-7.535156c4.515625 1.273437 9.1875 1.914062 13.878906 1.898437h.34375c4.335938.054688 8.652344-.601562 12.777344-1.945312v8.207031c0 7.453125-6.042969 13.5-13.5 13.5s-13.5-6.046875-13.5-13.5zm47-67.324219v16.109375c0 18.472657-14.671875 33.574219-32.867188 33.574219h-.25c-8.765624.023438-17.171874-3.460938-23.351562-9.675781-6.175781-6.214844-9.609375-14.644531-9.53125-23.40625v-2.5625c22.265625-4.617188 41.648438-18.195313 53.585938-37.546875 1.273437.507812 2.480468 1.15625 3.609374 1.933594 5.820313 3.972656 9.207032 10.648437 8.972657 17.695312zm1.835938-30.648437c7.53125-1.792969 11.855468 7.886719 12.644531 9.847656 4.628906 11.460937 4.363281 24.488281-.746094 36.679687-.535156 1.277344-1.1875 2.554688-1.820313 3.828126.09375-1.1875.085938-2.386719.085938-3.597657v-16.027343l.121094-3.792969c.25-10.582031-4.644532-20.625-13.132813-26.953125.933594.230468 1.910157.234375 2.847657.015625zm-80.484376 2.6875c6.320313-12.683594 18.300782-22.371094 32.875-26.582031 8.121094-2.515626 16.898438-1.792969 24.5 2.011718 7.160157 3.734375 12.769532 9.878906 15.828126 17.351563l.203124.59375c.214844.644531.542969 1.253906.964844 1.789062-3.214844-1.839843-6.75-3.050781-10.417968-3.570312-2.46875-.339844-4.894532.878906-6.085938 3.066406-17.5 32.027344-48.09375 35.78125-50.742188 36.046875-3.6875.183594-6.558593 3.269531-6.476562 6.960938v6.894531c0 1.226562-.125 2.445312-.027344 3.65625-3.332031-7.535157-5.238281-15.621094-5.621094-23.851563-.410156-8.414062 1.308594-16.796875 5-24.367187zm-17.351562 128.144531c-.027344-7.0625 2.777344-13.839844 7.78125-18.820312 5.007812-4.980469 11.800781-7.746094 18.863281-7.679688h11.242188c2.476562 11 12.742187 20.183594 24.992187 20.183594s22.519532-9.183594 24.992188-20.183594h11.484375c7.0625-.066406 13.855469 2.699219 18.863281 7.679688 5.003906 4.980468 7.808594 11.757812 7.78125 18.820312v25.5h-126zm0 0"/></svg>