<?xml version="1.0" encoding="iso-8859-1"?>
<!-- Generator: Adobe Illustrator 19.0.0, SVG Export Plug-In . SVG Version: 6.00 Build 0)  -->
<svg version="1.1" id="Capa_1" xmlns="http://www.w3.org/2000/svg" xmlns:xlink="http://www.w3.org/1999/xlink" x="0px" y="0px"
	 viewBox="0 0 512 512" style="enable-background:new 0 0 512 512;" xml:space="preserve">
<g>
	<g>
		<path d="M319.377,132.013c-68.364,0-123.987,55.617-123.987,123.987c0,68.359,55.617,123.982,123.987,123.982
			c68.364,0,123.987-55.617,123.982-123.982C443.359,187.636,387.742,132.013,319.377,132.013z M319.377,346.771
			c-50.054,0-90.776-40.716-90.776-90.771c0-50.054,40.722-90.776,90.776-90.776c50.054,0,90.776,40.722,90.776,90.776
			C410.154,306.054,369.432,346.771,319.377,346.771z"/>
	</g>
</g>
<g>
	<g>
		<path d="M371.524,209.942c-28.594-28.606-75.145-28.606-103.74,0c-6.487,6.482-6.487,16.998,0,23.48
			c6.487,6.487,16.993,6.487,23.48,0c15.653-15.648,41.126-15.648,56.779,0c3.244,3.244,7.489,4.865,11.74,4.865
			s8.496-1.622,11.74-4.865C378.011,226.941,378.011,216.424,371.524,209.942z"/>
	</g>
</g>
<g>
	<g>
		<path d="M473.254,66.698H38.746C17.38,66.698,0,84.079,0,105.444v301.111c0,21.36,17.38,38.746,38.746,38.746h434.508
			c21.36,0,38.746-17.137,38.746-38.192V105.444C512,84.079,494.614,66.698,473.254,66.698z M478.789,407.109
			c0,2.303-2.419,4.982-5.535,4.982H38.746c-3,0-5.535-2.535-5.535-5.535V105.444c0-3,2.535-5.535,5.535-5.535h434.508
			c3,0,5.535,2.535,5.535,5.535V407.109z"/>
	</g>
</g>
<g>
	<g>
		<path d="M168.822,119.836H69.743c-9.172,0-16.605,7.434-16.605,16.605v54.244c0,9.172,7.434,16.605,16.605,16.605h99.079
			c9.172,0,16.605-7.439,16.605-16.605v-54.244C185.427,127.269,177.993,119.836,168.822,119.836z M152.216,174.08H86.348v-21.034
			h65.868V174.08z"/>
	</g>
</g>
<g>
</g>
<g>
</g>
<g>
</g>
<g>
</g>
<g>
</g>
<g>
</g>
<g>
</g>
<g>
</g>
<g>
</g>
<g>
</g>
<g>
</g>
<g>
</g>
<g>
</g>
<g>
</g>
<g>
</g>
</svg>
