<?xml version="1.0" encoding="iso-8859-1"?>
<!-- Generator: Adobe Illustrator 19.0.0, SVG Export Plug-In . SVG Version: 6.00 Build 0)  -->
<svg version="1.1" id="Capa_1" xmlns="http://www.w3.org/2000/svg" xmlns:xlink="http://www.w3.org/1999/xlink" x="0px" y="0px"
	 viewBox="0 0 512 512" style="enable-background:new 0 0 512 512;" xml:space="preserve">
<g>
	<g>
		<path d="M494.486,112.967H381.449L366.1,52.058c-1.962-7.782-8.956-13.235-16.983-13.235H162.299
			c-8.074,0-15.103,5.517-17.018,13.358l-14.835,60.786H17.514C7.841,112.967,0,120.807,0,130.481v325.181
			c0,9.674,7.841,17.514,17.514,17.514h476.971c9.674,0,17.514-7.835,17.514-17.514V130.481
			C512,120.807,504.159,112.967,494.486,112.967z M476.971,438.148H35.029V148.001h109.172c8.074,0,15.103-5.523,17.018-13.363
			l14.835-60.786h159.415l15.348,60.909c1.962,7.782,8.956,13.235,16.983,13.235h109.172V438.148z"/>
	</g>
</g>
<g>
	<g>
		<path d="M255.708,152.666c-70.822,0-128.438,57.616-128.438,128.438c0,70.822,57.616,128.438,128.438,128.438
			s128.438-57.616,128.438-128.438C384.146,210.282,326.53,152.666,255.708,152.666z M255.708,374.513
			c-51.504,0-93.409-41.906-93.409-93.409c0-51.504,41.906-93.409,93.409-93.409s93.409,41.906,93.409,93.409
			C349.117,332.607,307.212,374.513,255.708,374.513z"/>
	</g>
</g>
<g>
</g>
<g>
</g>
<g>
</g>
<g>
</g>
<g>
</g>
<g>
</g>
<g>
</g>
<g>
</g>
<g>
</g>
<g>
</g>
<g>
</g>
<g>
</g>
<g>
</g>
<g>
</g>
<g>
</g>
</svg>
