<svg id="Layer_1" height="512" viewBox="0 0 512 512" width="512" xmlns="http://www.w3.org/2000/svg" data-name="Layer 1"><path d="m277.263 21h-42.526c-84.9 0-153.737 68.973-153.737 153.873v310.227a5.72 5.72 0 0 0 5.766 5.9h338.468a5.72 5.72 0 0 0 5.766-5.9v-310.227c0-84.9-68.837-153.873-153.737-153.873zm-108.263 458v-330h118v330zm130 0v-330h44v330zm120 0h-64v-335.836c0-3.313-2.271-6.164-5.584-6.164h-186.832c-3.313 0-5.584 2.851-5.584 6.164v335.836h-64v-304.127c0-78.284 63.454-141.873 141.737-141.873h42.526c78.283 0 141.737 63.589 141.737 141.873z"/><path d="m225.789 289.3a26.509 26.509 0 1 0 26.511 26.506 26.539 26.539 0 0 0 -26.511-26.506zm0 41.017a14.509 14.509 0 1 1 14.511-14.511 14.525 14.525 0 0 1 -14.511 14.508z"/></svg>