<svg height="484pt" viewBox="0 0 484 484.658" width="484pt" xmlns="http://www.w3.org/2000/svg"><path d="m242.65625 107.261719c-3.3125 0-6 2.6875-6 6v15.738281c-26.414062 2.039062-49.921875 17.515625-62.238281 40.96875-12.3125 23.457031-11.703125 51.597656 1.621093 74.496094l-16.835937 12.355468c-1.742187 1.265626-2.671875 3.363282-2.441406 5.5.230469 2.140626 1.589843 3.992188 3.5625 4.851563 1.96875.863281 4.25.605469 5.976562-.675781l16.5625-12.152344c14.609375 18.039062 36.582031 28.523438 59.796875 28.523438s45.1875-10.484376 59.796875-28.523438l16.554688 12.152344c2.671875 1.941406 6.410156 1.359375 8.363281-1.304688 1.953125-2.660156 1.390625-6.402344-1.261719-8.367187l-16.835937-12.363281c13.324218-22.898438 13.933594-51.039063 1.617187-74.492188-12.3125-23.457031-35.824219-38.929688-62.238281-40.96875v-15.738281c0-3.3125-2.683594-6-6-6zm65.0625 98.542969c0 35.933593-29.128906 65.0625-65.0625 65.0625-35.929688 0-65.058594-29.128907-65.058594-65.0625 0-35.929688 29.128906-65.058594 65.058594-65.058594 35.917969.039062 65.023438 29.144531 65.0625 65.058594zm0 0"/><path d="m236.65625 151.195312v6.339844c-13.527344 3.058594-22.597656 15.792969-21.058594 29.578125 1.539063 13.785157 13.191406 24.210938 27.058594 24.207031 8.375.011719 15.167969 6.78125 15.210938 15.152344.039062 8.371094-6.683594 15.207032-15.054688 15.300782-.050781 0-.101562-.007813-.15625-.007813-.050781 0-.097656.007813-.152344.007813-8.34375-.089844-15.066406-6.875-15.074218-15.21875 0-3.316407-2.6875-6-6-6-3.316407 0-6 2.683593-6 6 .015624 12.71875 8.824218 23.734374 21.226562 26.554687v7.304687c0 3.3125 2.6875 6 6 6 3.316406 0 6-2.6875 6-6v-7.304687c13.53125-3.054687 22.601562-15.792969 21.0625-29.578125-1.535156-13.785156-13.191406-24.210938-27.0625-24.210938-8.410156 0-15.226562-6.816406-15.226562-15.226562 0-8.414062 6.816406-15.230469 15.226562-15.230469 8.414062 0 15.230469 6.816407 15.230469 15.230469 0 3.3125 2.6875 6 6 6 3.316406 0 6-2.6875 6-6-.015625-12.722656-8.824219-23.738281-21.230469-26.558594v-6.339844c0-3.3125-2.683594-6-6-6-3.3125 0-6 2.6875-6 6zm0 0"/><path d="m195.628906 97.648438c0-53.929688-43.722656-97.648438-97.652344-97.648438-53.929687 0-97.648437 43.71875-97.648437 97.648438 0 53.929687 43.71875 97.648437 97.648437 97.648437 53.90625-.058594 97.589844-43.742187 97.652344-97.648437zm-183.070312 0c-.105469-30.628907 16.175781-58.976563 42.683594-74.324219 26.507812-15.34375 59.199218-15.34375 85.707031 0 26.511719 15.347656 42.792969 43.695312 42.6875 74.324219 0 23.488281-9.980469 44.792968-24.980469 60.28125v-28.773438c.914062-8.867188-2.007812-17.703125-8.027344-24.28125-6.011718-6.683594-14.570312-10.515625-23.558594-10.546875h-4.898437c-2.542969.027344-4.796875 1.636719-5.648437 4.03125l-5.253907 14.65625-9.300781-9.882813c-1.160156-1.214843-2.769531-1.894531-4.445312-1.882812-1.683594.023438-3.277344.746094-4.402344 2l-8.292969 9.265625-4.53125-13.988281c-.796875-2.480469-3.09375-4.171875-5.699219-4.199219h-5.699218c-8.9375.035156-17.441407 3.867187-23.382813 10.546875-5.972656 6.597656-8.832031 15.4375-7.859375 24.28125v28.773438c-16-15.488282-25.097656-36.792969-25.097656-60.28125zm107.757812 82.664062-5.367187-50.191406c1.988281-.484375 3.601562-1.9375 4.289062-3.863282l7.152344-19.929687h.679687c5.609376.019531 10.949219 2.414063 14.695313 6.585937 3.746094 4.171876 5.550781 9.738282 4.96875 15.316407-.019531.199219-.078125.433593-.078125.632812v39.125c-8.015625 5.578125-16.921875 9.746094-26.339844 12.324219zm-70.660156-12.320312v-39.125c0-.199219-.234375-.398438-.257812-.597657-.632813-5.582031 1.148437-11.164062 4.902343-15.34375 3.6875-4.195312 9.003907-6.601562 14.589844-6.597656h1.34375l6.414063 19.757813c.648437 1.996093 2.292968 3.511718 4.335937 4l-5.164063 50.210937c-9.5625-2.59375-19.164062-6.785156-26.164062-12.304687zm41.910156 15.035156-3.789062-3.789063 6.347656-59.113281 3.578125-4 4.175781 4.441406 6.300782 58.667969-3.792969 3.789063c-2.117188.160156-4.25.265624-6.410157.265624-2.160156 0-4.289062-.097656-6.410156-.261718zm0 0"/><path d="m128.65625 59.039062c.003906-16.960937-13.746094-30.710937-30.707031-30.710937h-.582031c-16.960938 0-30.710938 13.75-30.710938 30.710937v10.578126c0 16.960937 13.75 30.710937 30.710938 30.710937h.582031c16.960937 0 30.710937-13.75 30.707031-30.710937zm-12 10.582032c0 10.332031-8.375 18.707031-18.707031 18.707031h-.582031c-10.332032 0-18.710938-8.375-18.710938-18.707031v-10.582032c0-10.332031 8.378906-18.710937 18.710938-18.710937h.582031c10.332031 0 18.707031 8.378906 18.707031 18.710937zm0 0"/><path d="m387.339844 0c-53.933594 0-97.652344 43.71875-97.652344 97.648438 0 53.929687 43.71875 97.652343 97.648438 97.652343 53.933593-.003906 97.652343-43.722656 97.648437-97.652343-.058594-53.902344-43.742187-97.585938-97.644531-97.648438zm-48.761719 128.265625c-.578125-5.582031 1.230469-11.152344 4.976563-15.328125 3.746093-4.179688 9.085937-6.578125 14.699218-6.609375h1.34375l6.410156 19.757813c.648438 2 2.289063 3.519531 4.335938 4.007812l-5.34375 50.203125c-9.417969-2.574219-18.324219-6.734375-26.34375-12.304687v-39.125c0-.199219-.054688-.402344-.078125-.601563zm42.351563 54.761719-3.792969-3.789063 6.347656-59.113281 3.578125-4 4.175781 4.441406 6.296875 58.667969-3.789062 3.789063c-2.117188.160156-4.25.265624-6.410156.265624-2.15625 0-4.289063-.097656-6.40625-.261718zm54.984374-54.765625c-.019531.199219-.257812.398437-.257812.597656v39.125c-7 5.515625-16.597656 9.726563-26.160156 12.316406l-5.277344-50.1875c2-.484375 3.625-1.933593 4.335938-3.867187l7.199218-19.925782h.679688c5.585937-.003906 10.898437 2.398438 14.585937 6.589844 3.753907 4.183594 5.535157 9.769532 4.894531 15.355469zm11.742188 29.667969v-28.773438c.980469-8.84375-1.878906-17.683594-7.851562-24.28125-5.9375-6.679688-14.4375-10.511719-23.375-10.546875h-4.898438c-2.542969.027344-4.796875 1.636719-5.644531 4.03125l-5.257813 14.65625-9.300781-9.882813c-1.160156-1.210937-2.765625-1.890624-4.441406-1.882812-1.683594.023438-3.277344.746094-4.402344 2l-8.289063 9.265625-4.539062-13.988281c-.796875-2.480469-3.09375-4.171875-5.699219-4.199219h-5.699219c-8.992187.03125-17.550781 3.863281-23.5625 10.546875-6.023437 6.574219-8.949218 15.410156-8.039062 24.28125v28.773438c-15-15.488282-24.917969-36.792969-24.917969-60.28125 0-47.230469 38.285157-85.519532 85.515625-85.519532 47.230469 0 85.515625 38.289063 85.515625 85.519532 0 23.488281-9.113281 44.792968-25.113281 60.28125zm0 0"/><path d="m417.65625 59.039062c0-16.960937-13.746094-30.710937-30.707031-30.710937h-.582031c-16.960938 0-30.710938 13.75-30.710938 30.710937v10.582032c0 16.960937 13.75 30.707031 30.710938 30.707031h.582031c16.960937 0 30.707031-13.746094 30.707031-30.707031zm-12 10.578126c.003906 10.335937-8.375 18.710937-18.707031 18.710937h-.582031c-10.332032 0-18.710938-8.375-18.710938-18.710937v-10.578126c0-10.332031 8.378906-18.710937 18.710938-18.710937h.582031c10.332031 0 18.710937 8.378906 18.707031 18.710937zm0 0"/><path d="m242.65625 289.359375c-53.929688 0-97.648438 43.71875-97.648438 97.648437 0 53.929688 43.71875 97.648438 97.648438 97.648438s97.648438-43.71875 97.648438-97.648438c-.058594-53.902343-43.742188-97.585937-97.648438-97.648437zm-48.917969 128.261719c-.574219-5.65625 1.265625-11.292969 5.070313-15.519532 3.738281-4.25 9.105468-6.710937 14.761718-6.773437h1.34375l6.414063 19.9375c.644531 2.019531 2.28125 3.5625 4.335937 4.085937l-5.5 50.257813c-9.464843-2.554687-18.429687-6.695313-26.507812-12.253906v-39.125c.039062-.203125.066406-.402344.082031-.609375zm42.507813 54.769531-3.789063-3.789063 6.347657-59.113281 3.578124-4 4.175782 4.441407 6.296875 58.667968-3.789063 3.789063c-2.117187.160156-4.25.265625-6.410156.265625-2.15625 0-4.289062-.101563-6.410156-.261719zm55.328125-54.769531c.019531.203125.046875.40625.082031.605468v39.128907c-8.070312 5.574219-17.03125 9.738281-26.5 12.316406l-5.445312-50.191406c2-.5625 3.589843-2.078125 4.25-4.042969l7.109374-20.109375h.683594c5.65625.0625 11.019532 2.523437 14.753906 6.773437 3.804688 4.226563 5.644532 9.863282 5.066407 15.519532zm12.082031 29.667968v-28.773437c.855469-8.945313-2.121094-17.832031-8.1875-24.460937-6.054688-6.738282-14.660156-10.628907-23.714844-10.726563h-4.902344c-2.570312.101563-4.8125 1.777344-5.644531 4.210937l-5.257812 14.742188-9.296875-9.832031c-1.160156-1.214844-2.777344-1.890625-4.457032-1.863281-1.679687.03125-3.269531.761718-4.386718 2.015624l-8.292969 9.269532-4.535156-14.160156c-.777344-2.523438-3.0625-4.277344-5.699219-4.382813h-5.699219c-9.058593.097656-17.664062 3.988281-23.722656 10.726563-6.074219 6.625-9.054687 15.515624-8.203125 24.460937v28.773437c-15.765625-16.117187-24.644531-37.734374-24.757812-60.28125.078124-47.289062 38.410156-85.597656 85.699218-85.648437 47.226563 0 85.789063 38.421875 85.789063 85.648437-.105469 22.542969-8.972657 44.160157-24.730469 60.28125zm0 0"/><path d="m272.65625 348.039062c.003906-16.960937-13.746094-30.710937-30.707031-30.710937h-.582031c-16.960938 0-30.710938 13.75-30.710938 30.710937v10.578126c0 16.960937 13.75 30.710937 30.710938 30.710937h.582031c16.960937 0 30.710937-13.75 30.707031-30.710937zm-12 10.582032c0 10.332031-8.375 18.707031-18.707031 18.707031h-.582031c-10.332032 0-18.710938-8.375-18.710938-18.707031v-10.582032c0-10.332031 8.378906-18.710937 18.710938-18.710937h.582031c10.332031 0 18.707031 8.378906 18.707031 18.710937zm0 0"/></svg>