<?xml version="1.0" encoding="iso-8859-1"?>
<!-- Generator: Adobe Illustrator 19.0.0, SVG Export Plug-In . SVG Version: 6.00 Build 0)  -->
<svg version="1.1" id="Capa_1" xmlns="http://www.w3.org/2000/svg" xmlns:xlink="http://www.w3.org/1999/xlink" x="0px" y="0px"
	 viewBox="0 0 512 512" style="enable-background:new 0 0 512 512;" xml:space="preserve">
<g>
	<g>
		<path d="M349.633,226.451l-50.702-98.335V15.901C298.932,7.118,291.813,0,283.031,0h-57.242c-8.782,0-15.901,7.118-15.901,15.901
			v112.423l-47.702,98.483c-1.044,2.162-1.59,4.532-1.59,6.933v246.46c0,17.83,13.971,31.801,31.801,31.801h127.205
			c17.83,0,31.801-13.971,31.801-31.801v-246.46C351.404,231.2,350.799,228.704,349.633,226.451z M319.602,480.199H192.398V237.391
			l47.702-98.483c1.044-2.162,1.59-4.532,1.59-6.933V31.801h25.441v100.174c0,2.539,0.604,5.035,1.77,7.288l50.702,98.335V480.199z"
			/>
	</g>
</g>
<g>
	<g>
		<rect x="224.729" y="116.075" width="62.012" height="31.801"/>
	</g>
</g>
<g>
	<g>
		<rect x="176.497" y="256" width="159.006" height="31.801"/>
	</g>
</g>
<g>
	<g>
		<rect x="176.497" y="409.706" width="159.006" height="31.801"/>
	</g>
</g>
<g>
</g>
<g>
</g>
<g>
</g>
<g>
</g>
<g>
</g>
<g>
</g>
<g>
</g>
<g>
</g>
<g>
</g>
<g>
</g>
<g>
</g>
<g>
</g>
<g>
</g>
<g>
</g>
<g>
</g>
</svg>
