<svg height="500pt" viewBox="0 -6 500.3 500" width="500pt" xmlns="http://www.w3.org/2000/svg"><path d="m175.152344 29.800781c0-16.375-13.273438-29.652343-29.652344-29.652343h-.699219c-16.375.003906-29.648437 13.277343-29.648437 29.652343v9.699219c0 16.375 13.277344 29.648438 29.652344 29.648438h.699218c16.375 0 29.648438-13.273438 29.648438-29.648438zm-12 9.699219c0 9.75-7.902344 17.648438-17.652344 17.648438h-.699219c-9.746093 0-17.648437-7.902344-17.648437-17.648438v-9.699219c0-9.75 7.902344-17.652343 17.652344-17.652343h.699218c9.746094.003906 17.648438 7.90625 17.648438 17.652343zm0 0"/><path d="m334.152344 29.800781c0-16.375-13.273438-29.648437-29.648438-29.652343h-.703125c-16.375.003906-29.648437 13.277343-29.648437 29.652343v9.699219c0 16.375 13.277344 29.648438 29.648437 29.648438h.703125c16.375 0 29.648438-13.273438 29.648438-29.648438zm-12 9.699219c0 9.75-7.902344 17.648438-17.648438 17.648438h-.703125c-9.746093 0-17.648437-7.902344-17.648437-17.648438v-9.699219c0-9.75 7.902344-17.648437 17.648437-17.652343h.703125c9.746094.003906 17.648438 7.90625 17.648438 17.652343zm0 0"/><path d="m258.152344 53.4375c0-18.9375-15.351563-34.289062-34.289063-34.289062h-.421875c-18.9375 0-34.289062 15.351562-34.289062 34.289062v11.425781c0 18.9375 15.351562 34.289063 34.289062 34.285157h.421875c18.9375.003906 34.289063-15.347657 34.289063-34.285157zm-12 11.425781c0 12.308594-9.976563 22.285157-22.289063 22.285157h-.421875c-12.308594 0-22.289062-9.976563-22.289062-22.285157v-11.425781c0-12.308594 9.980468-22.289062 22.289062-22.289062h.421875c12.3125 0 22.289063 9.980468 22.289063 22.289062zm0 0"/><path d="m276.566406 238.117188 5.1875-4.980469c7.242188-7.054688 11.351563-16.722657 11.398438-26.832031v-55.128907c.894531-9.992187-2.4375-19.902343-9.195313-27.320312-6.753906-7.417969-16.308593-11.664063-26.339843-11.707031h-5.609376c-2.550781.042968-4.804687 1.667968-5.648437 4.074218l-6.5 18.125-11.617187-12.335937c-1.136719-1.199219-2.71875-1.871094-4.371094-1.863281h-.074219c-1.683594.011718-3.285156.738281-4.398437 2l-10.5 11.730468-5.660157-17.480468c-.789062-2.492188-3.085937-4.203126-5.699219-4.25h-6.527343c-10.132813.042968-19.785157 4.332031-26.609375 11.820312-6.65625 7.367188-9.25 17.332031-9.25 27.207031v55.074219c.105468 10.175781 4.304687 19.882812 11.652344 26.925781l5.226562 4.9375c4.6875 4.492188 7.472656 10.601563 7.792969 17.082031l4.527343 94.355469c.179688 3.179688 2.835938 5.652344 6.023438 5.597657h68.019531c3.179688.054687 5.832031-2.421876 5.992188-5.597657l4.503906-94.46875c.300781-6.425781 3.046875-12.496093 7.675781-16.964843zm-52.585937-103.101563 5.628906 5.988281 7.289063 67.867188-12.589844 12.585937-12.585938-12.585937 7.34375-68.363282zm32.929687 119.433594-4.234375 88.699219h-56.578125l-4.230468-88.632813c-.441407-9.511719-4.515626-18.492187-11.386719-25.085937l-5.339844-4.910157c-5.011719-4.769531-7.890625-11.351562-7.988281-18.269531v-55.363281c0-.199219.214844-.402344.195312-.601563-.628906-6.675781 1.578125-13.304687 6.078125-18.277344 4.5-4.96875 10.878907-7.820312 17.585938-7.859374h2.167969l7.535156 23.25c.71875 2.226562 2.65625 3.84375 4.980468 4.144531.035157 0 .070313.027343.109376.03125l-6.320313 58.859375c-.191406 1.808594.441406 3.605468 1.722656 4.890625l18.859375 18.863281c2.34375 2.339844 6.144532 2.339844 8.484375 0l18.859375-18.863281c1.285156-1.28125 1.917969-3.074219 1.722656-4.878907l-6.316406-58.847656c.199219-.015625.398438-.046875.597656-.082031 2.054688-.46875 3.726563-1.960937 4.425782-3.949219l8.386718-23.417968h1.390626c6.675781.058593 13.015624 2.917968 17.484374 7.875 4.46875 4.957031 6.648438 11.5625 6.015626 18.207031-.019532.199219.039062.453125.039062.65625v55.417969c-.042969 6.871093-2.839844 13.441406-7.769531 18.230468l-5.152344 4.925782c-6.820313 6.582031-10.871094 15.519531-11.324219 24.988281zm0 0"/><path d="m102.152344 53.4375c0-18.9375-15.351563-34.289062-34.289063-34.289062h-.421875c-18.9375 0-34.289062 15.351562-34.289062 34.289062v11.425781c0 18.9375 15.351562 34.289063 34.289062 34.285157h.421875c18.9375.003906 34.289063-15.347657 34.289063-34.285157zm-12 11.425781c0 12.308594-9.976563 22.285157-22.289063 22.285157h-.421875c-12.308594 0-22.289062-9.976563-22.289062-22.285157v-11.425781c0-12.308594 9.980468-22.289062 22.289062-22.289062h.421875c12.3125 0 22.289063 9.980468 22.289063 22.289062zm0 0"/><path d="m102.164062 112.148438h-5.613281c-2.546875.042968-4.800781 1.667968-5.644531 4.074218l-6.5 18.125-11.617188-12.335937c-1.136718-1.199219-2.71875-1.871094-4.371093-1.863281h-.074219c-1.683594.011718-3.285156.738281-4.398438 2l-10.5 11.730468-5.65625-17.480468c-.792968-2.488282-3.089843-4.199219-5.703124-4.242188h-6.527344c-10.019532.046875-19.558594 4.296875-26.292969 11.714844-6.730469 7.421875-10.039063 17.328125-9.113281 27.304687v55.074219c.023437 10.148438 4.144531 19.859375 11.425781 26.925781l5.117187 4.9375c4.667969 4.496094 7.433594 10.609375 7.734376 17.082031l4.5 94.347657c.160156 3.175781 2.8125 5.65625 5.992187 5.601562h68.019531c3.179688.050781 5.828125-2.425781 5.992188-5.601562l4.507812-94.46875c.300782-6.433594 3.042969-12.507813 7.667969-16.988281l4.914063-4.96875c7.167968-7.074219 11.179687-16.742188 11.128906-26.8125v-55.128907c1.019531-9.929687-2.199219-19.824219-8.859375-27.253906-6.660157-7.429687-16.148438-11.707031-26.128907-11.773437zm-33.636718 22.871093 5.625 5.988281 7.289062 67.867188-12.582031 12.585938-12.589844-12.585938 7.34375-68.363281zm56.863281 15.261719c-.019531.199219-.238281.398438-.238281.601562v55.417969c.058594 6.835938-2.640625 13.410157-7.492188 18.230469l-5.015625 4.980469c-6.796875 6.570312-10.816406 15.496093-11.238281 24.9375l-4.183594 88.699219h-56.578125l-4.230469-88.632813c-.441406-9.511719-4.515624-18.492187-11.386718-25.085937l-5.113282-4.910157c-4.949218-4.792969-7.746093-11.382812-7.761718-18.269531v-55.363281c0-.199219-.011719-.402344-.03125-.601563-.679688-6.648437 1.476562-13.273437 5.9375-18.25 4.460937-4.976562 10.816406-7.839844 17.5-7.886718h2.167968l7.535157 23.25c.71875 2.226562 2.65625 3.839843 4.980469 4.144531.035156 0 .074218.027343.109374.03125l-6.320312 58.859375c-.191406 1.808594.441406 3.605468 1.726562 4.890625l18.855469 18.863281c2.34375 2.339844 6.144531 2.339844 8.484375 0l18.859375-18.863281c1.285157-1.28125 1.917969-3.074219 1.722657-4.878907l-6.316407-58.847656c.199219-.015625.398438-.046875.597657-.082031 2.054687-.46875 3.726562-1.960937 4.425781-3.949219l8.386719-23.417968h1.390624c6.652344.007812 12.976563 2.871093 17.371094 7.863281 4.46875 4.976562 6.597656 11.625 5.855469 18.269531zm0 0"/><path d="m413.152344 53.4375c0-18.9375-15.351563-34.289062-34.289063-34.289062h-.421875c-18.9375 0-34.289062 15.351562-34.289062 34.289062v11.425781c0 18.9375 15.351562 34.289063 34.289062 34.285157h.421875c18.9375.003906 34.289063-15.347657 34.289063-34.285157zm-12 11.425781c0 12.308594-9.976563 22.285157-22.289063 22.285157h-.421875c-12.308594 0-22.289062-9.976563-22.289062-22.285157v-11.425781c0-12.308594 9.980468-22.289062 22.289062-22.289062h.421875c12.3125 0 22.289063 9.980468 22.289063 22.289062zm0 0"/><path d="m495.769531 365.210938-19.390625-4.871094c-.980468-8.484375-3.101562-16.792969-6.304687-24.710938l14.824219-13.167968c2.320312-2.0625 2.6875-5.554688.84375-8.050782l-19.277344-26.089844c-1.835938-2.480468-5.257813-3.167968-7.90625-1.582031l-17.019532 10.179688c-5.71875-4.664063-11.964843-8.636719-18.617187-11.835938l1.425781-29.949219c.300782-6.441406 3.042969-12.523437 7.671875-17.015624l4.960938-4.980469c7.179687-7.078125 11.207031-16.75 11.171875-26.832031v-55.128907c1-9.9375-2.238282-19.835937-8.917969-27.265625-6.675781-7.429687-16.175781-11.699218-26.164063-11.761718h-5.613281c-2.546875.046874-4.796875 1.667968-5.644531 4.074218l-6.5 18.125-11.621094-12.339844c-1.160156-1.210937-2.769531-1.890624-4.445312-1.875-1.683594.019532-3.277344.746094-4.402344 2l-10.492188 11.738282-5.65625-17.480469c-.792968-2.488281-3.085937-4.195313-5.699218-4.242187h-6.527344c-10.011719.050781-19.542969 4.308593-26.261719 11.730468-6.714843 7.421875-10.003906 17.328125-9.054687 27.296875v55.074219c.003906 10.140625 4.109375 19.851562 11.378906 26.925781l5.089844 4.9375c4.664062 4.496094 7.429687 10.609375 7.726562 17.082031l.660156 14.050782-1.105468-1.234375c-2.058594-2.300781-5.527344-2.660157-8.019532-.835938l-26.1875 19.199219c-2.503906 1.835938-3.195312 5.277344-1.59375 7.9375l10.226563 16.957031c-5.421875 6.613281-9.929687 13.921875-13.402344 21.738281l-19.980469-1.09375c-3.085937-.171874-5.796874 2.03125-6.257812 5.089844l-4.898438 32.097656c-.46875 3.058594 1.46875 5.972657 4.46875 6.726563l19.390626 4.867187c.945312 8.496094 3.054687 16.820313 6.269531 24.742188l-14.789063 13.140625c-2.320312 2.0625-2.683594 5.554687-.839844 8.050781l19.277344 26.085938c1.835938 2.480468 5.253906 3.167968 7.902344 1.582031l17.0625-10.199219c6.648438 5.410156 13.996094 9.90625 21.839844 13.359375l-1.097656 19.871094c-.171876 3.089844 2.035156 5.800781 5.089843 6.261719l31.066407 4.699218c3.054687.46875 5.960937-1.460937 6.714843-4.457031l4.886719-19.308593c8.527344-.976563 16.886719-3.09375 24.851562-6.292969l13.238282 14.789062c2.0625 2.300781 5.53125 2.660157 8.019531.835938l26.191406-19.199219c2.503907-1.835938 3.191407-5.277344 1.589844-7.9375l-10.203125-16.917969c5.4375-6.613281 9.9375-13.9375 13.375-21.777343l19.980469 1.09375c3.082031.15625 5.78125-2.039063 6.257812-5.085938l4.898438-32.101562c.464843-3.054688-1.464844-5.964844-4.460938-6.71875zm-116.339843-230.191407 5.628906 5.988281 7.289062 67.867188-12.585937 12.585938-12.585938-12.585938 7.34375-68.363281zm-48.5625 89.53125c-4.9375-4.808593-7.71875-11.410156-7.714844-18.300781v-55.363281c-.015625-.203125-.042969-.402344-.078125-.601563-.691407-6.640625 1.453125-13.269531 5.910156-18.246094 4.453125-4.976562 10.800781-7.839843 17.480469-7.890624h2.167968l7.535157 23.25c.691406 2.140624 2.511719 3.722656 4.726562 4.109374.121094.019532.242188.050782.363281.0625l-6.320312 58.863282c-.195312 1.808594.441406 3.605468 1.722656 4.890625l18.859375 18.863281c2.34375 2.34375 6.144531 2.34375 8.488281 0l18.855469-18.859375c1.285157-1.285156 1.917969-3.078125 1.722657-4.882813l-6.320313-58.84375c.203125-.019531.402344-.046874.601563-.085937 2.054687-.46875 3.726562-1.957031 4.425781-3.949219l8.382812-23.417968h1.394531c6.667969.019531 13.015626 2.871093 17.457032 7.847656 4.441406 4.976562 6.554687 11.605468 5.8125 18.234375-.019532.199219-.1875.453125-.1875.65625v55.417969c.042968 6.84375-2.675782 13.414062-7.539063 18.230468l-5.042969 4.980469c-6.800781 6.613281-10.820312 15.570313-11.246093 25.046875l-.09375 2.371094-27.648438-4.183594c-3.050781-.464844-5.957031 1.46875-6.707031 4.460938l-4.886719 19.300781c-8.34375.921875-16.53125 2.957031-24.335937 6.054687l-1.332032-27.933594c-.433593-9.527343-4.496093-18.523437-11.359374-25.144531zm153.433593 172.300781-18.800781-1.027343c-2.601562-.136719-4.996094 1.417969-5.929688 3.847656-3.59375 9.386719-8.902343 18.019531-15.660156 25.457031-1.792968 1.960938-2.082031 4.867188-.710937 7.144532l9.621093 15.960937-17.378906 12.742187-12.46875-13.925781c-1.742187-1.945312-4.539062-2.542969-6.921875-1.476562-9.195312 4.1875-19.074219 6.683593-29.152343 7.367187-2.601563.164063-4.800782 1.984375-5.445313 4.507813l-4.601563 18.167969-20.289062-3.066407 1.027344-18.695312c.144531-2.609375-1.417969-5.011719-3.863282-5.9375-9.417968-3.636719-18.101562-8.945313-25.632812-15.667969-1.957031-1.722656-4.804688-1.984375-7.042969-.644531l-16.066406 9.605469-12.78125-17.300782 13.949219-12.390625c1.988281-1.765625 2.574218-4.625 1.445312-7.03125-4.230468-9.105469-6.722656-18.917969-7.351562-28.9375-.164063-2.605469-1.996094-4.808593-4.527344-5.445312l-18.242188-4.582031 3.253907-21.324219 18.800781 1.027343c2.605469.144532 5.003906-1.410156 5.933594-3.847656 3.652344-9.386718 8.980468-18.035156 15.71875-25.523437 1.742187-1.964844 2.003906-4.832031.648437-7.078125l-9.621093-15.960938 17.382812-12.742187 12.464844 13.925781c1.765625 1.96875 4.605468 2.550781 7 1.4375 9.15625-4.21875 19.015625-6.707031 29.074218-7.332031 2.605469-.160157 4.808594-1.984375 5.445313-4.515625l4.601563-18.164063 20.292968 3.070313-1.027344 18.695312c-.144531 2.609375 1.417969 5.011719 3.863282 5.9375 9.414062 3.570313 18.082031 8.863282 25.566406 15.601563 1.957031 1.773437 4.84375 2.0625 7.113281.707031l16.0625-9.609375 12.785157 17.300781-13.953126 12.390625c-1.960937 1.746094-2.5625 4.558594-1.484374 6.953125 4.199218 9.144532 6.707031 18.976563 7.394531 29.019532.160156 2.605468 1.992187 4.808593 4.527343 5.445312l18.238282 4.578125zm0 0"/><path d="m393.714844 300.035156c-39.023438-5.925781-75.492188 20.820313-81.570313 59.824219-2.832031 18.742187 1.90625 37.84375 13.171875 53.089844 11.261719 15.25 28.128906 25.390625 46.875 28.191406 39.03125 5.949219 75.515625-20.808594 81.570313-59.824219 2.832031-18.742187-1.90625-37.84375-13.167969-53.089844-11.265625-15.25-28.128906-25.390624-46.878906-28.191406zm48.183594 79.472656c-3.738282 23.792969-21.40625 43.011719-44.800782 48.730469-23.394531 5.722657-47.9375-3.175781-62.234375-22.558593-9.355469-12.628907-13.265625-28.480469-10.855469-44.007813 3.738282-23.796875 21.40625-43.015625 44.800782-48.734375 23.398437-5.722656 47.941406 3.175781 62.238281 22.558594 9.351563 12.628906 13.261719 28.480468 10.851563 44.011718zm0 0"/></svg>