<?xml version="1.0"?>
<svg xmlns="http://www.w3.org/2000/svg" id="Layer_1" data-name="Layer 1" viewBox="0 0 512 512" width="512" height="512"><title>Shield</title><path d="M450.489,104.018,258.724,9.869a6.083,6.083,0,0,0-5.323,0L61.538,103.748A6.167,6.167,0,0,0,58,109.136V288.75c0,44.358,30,100.791,66.671,125.8L252.541,501.7a6.118,6.118,0,0,0,3.42,1.043,6.057,6.057,0,0,0,3.4-1.043l127.8-87.154c17.869-12.183,34.759-31.913,47.267-55.554C446.945,335.334,454,310.388,454,288.75V109.4A6.151,6.151,0,0,0,450.489,104.018ZM442,288.75c0,40.861-27.645,92.846-61.433,115.883L256.078,489.482,131.471,404.633C97.684,381.6,70,329.611,70,288.75V112.878l186-90.94,186,91.2Z"/><path d="M96.072,256c0,88.185,71.743,159.928,159.928,159.928S415.928,344.185,415.928,256,344.185,96.072,256,96.072,96.072,167.815,96.072,256ZM256,108.072c81.567,0,147.928,66.36,147.928,147.928S337.567,403.928,256,403.928,108.072,337.568,108.072,256,174.433,108.072,256,108.072Z"/><path d="M142.638,216.492,173,228.242v76.02a5.849,5.849,0,0,0,3.734,5.622,208.075,208.075,0,0,0,145.6,0A5.791,5.791,0,0,0,326,304.262v-76.02l22-8.568v72.548a19.162,19.162,0,0,0-12.48,17.77,18.925,18.925,0,0,0,18.919,18.817A18.708,18.708,0,0,0,373.1,309.992,18.367,18.367,0,0,0,360,292.124V211.75c0-.174.192-.347.177-.518.008-.13.129-.257.128-.388a5.953,5.953,0,0,0-3.878-5.575L251.57,166.717a5.968,5.968,0,0,0-4.128,0L142.566,205.269a5.918,5.918,0,0,0-3.841,5.575A6.08,6.08,0,0,0,142.638,216.492ZM185,300.048V278.737a206.532,206.532,0,0,0,129,0v21.311A194.8,194.8,0,0,1,185,300.048Zm129-33.971a194.824,194.824,0,0,1-129,0V232.912l62.521,24.4a5.559,5.559,0,0,0,2.09.408,4.815,4.815,0,0,0,1.937-.408L314,232.912Zm40.541,50.732a6.817,6.817,0,1,1,6.816-6.817A6.825,6.825,0,0,1,354.541,316.809ZM249.525,178.741l87.927,32.32-18.8,7.317a5.987,5.987,0,0,0-.8.309l-68.33,26.594-68.332-26.594a5.856,5.856,0,0,0-.794-.309l-18.8-7.317Z"/></svg>
