<svg height="472pt" viewBox="-39 0 472 472" width="472pt" xmlns="http://www.w3.org/2000/svg"><path d="m111.144531 47h58.402344c3.3125 0 6-2.6875 6-6s-2.6875-6-6-6h-58.402344c-3.3125 0-6 2.6875-6 6s2.6875 6 6 6zm0 0"/><path d="m189.542969 417h-98.402344c-3.3125 0-6 2.6875-6 6s2.6875 6 6 6h98.402344c3.3125 0 6-2.6875 6-6s-2.6875-6-6-6zm0 0"/><path d="m388.34375 119h-107.34375v-92.96875c0-14.355469-11.617188-26-25.96875-26.03125h-229.371094c-6.863281.0273438-13.429687 2.792969-18.246094 7.679688-4.816406 4.882812-7.4843745 11.488281-7.414062 18.351562v419.9375c-.0703125 6.863281 2.597656 13.46875 7.414062 18.351562 4.816407 4.886719 11.382813 7.652344 18.246094 7.679688h229.371094c14.351562-.03125 25.96875-11.675781 25.96875-26.03125v-112.96875h107.34375c1.519531.066406 2.996094-.507812 4.070312-1.582031 1.078126-1.074219 1.652344-2.550781 1.585938-4.070313v-202.699218c.066406-1.519532-.511719-2.992188-1.585938-4.066407-1.074218-1.074219-2.550781-1.648437-4.070312-1.582031zm-155.972656 143.816406-141.078125-131.816406h282.136719zm-57.34375-37.132812-93.027344 87.582031v-174.5zm9.183594 8.035156 44.066406 41.257812c1.105468 1.054688 2.570312 1.648438 4.097656 1.660157 1.519531.011719 2.988281-.558594 4.101562-1.59375l45.765626-42.929688 91.503906 88.886719h-282.425782zm106.457031-9.617188 91.332031-85.355468v174.226562zm-265.007813-212.101562h229.371094c7.726562.023438 13.976562 6.300781 13.96875 14.03125v36.96875h-257v-36.96875c-.074219-3.679688 1.332031-7.234375 3.898438-9.871094 2.566406-2.636718 6.082031-4.136718 9.761718-4.160156zm229.371094 448h-229.371094c-3.679687-.023438-7.195312-1.523438-9.761718-4.160156-2.566407-2.636719-3.972657-6.191406-3.898438-9.871094v-51.96875h257v51.96875c.007812 7.730469-6.242188 14.007812-13.96875 14.03125zm13.96875-78h-257v-307h257v44h-192.597656c-3.316406 0-6.402344 2.339844-6.402344 5.652344v202.699218c0 3.3125 3.085938 5.652344 6.402344 5.652344h192.597656zm0 0"/></svg>