<svg height="487pt" viewBox="-1 0 487 487.92667" width="487pt" xmlns="http://www.w3.org/2000/svg"><path d="m480.53125 353.207031-21.828125-5.480469c-1.070313-9.601562-3.46875-19.007812-7.128906-27.949218l16.695312-14.832032c2.320313-2.058593 2.683594-5.554687.839844-8.050781l-21.277344-28.796875c-1.835937-2.480468-5.253906-3.167968-7.90625-1.582031l-19.164062 11.460937c-7.496094-6.167968-15.824219-11.246093-24.742188-15.085937l1.234375-22.363281c.167969-3.085938-2.035156-5.800782-5.09375-6.261719l-34.292968-5.195313c-3.054688-.460937-5.957032 1.46875-6.714844 4.460938l-5.5 21.730469c-9.667969 1.023437-19.136719 3.40625-28.136719 7.082031l-14.875-16.613281c-2.058594-2.300781-5.527344-2.664063-8.015625-.835938l-11.671875 8.613281c-10.097656-4.324218-20.980469-6.53125-31.964844-6.484374h-46.289062c-1.894531-.019532-3.6875.863281-4.824219 2.378906l-34.195312 46.25-32.796876-46.144532c-1.132812-1.574218-2.953124-2.5-4.890624-2.484374h-46.269532c-22.882812-.035157-44.71875 9.59375-60.125 26.515624-15.402344 16.925782-22.945312 39.566407-20.765625 62.347657v70.121093c.070313 3.347657 2.808594 6.019532 6.152344 6.015626h236.058594c-2.308594 2.0625-2.664063 5.539062-.820313 8.023437l21.277344 28.789063c1.835938 2.480468 5.25 3.164062 7.898438 1.582031l19.207031-11.488281c7.496093 6.152343 15.808593 11.234374 24.699219 15.105468l-1.230469 22.367188c-.171875 3.089844 2.035156 5.800781 5.09375 6.265625l34.292969 5.191406c3.050781.460937 5.957031-1.46875 6.714843-4.460937l5.5-21.730469c9.648438-1.066407 19.105469-3.460938 28.097657-7.117188l14.910156 16.648438c2.058594 2.300781 5.527344 2.664062 8.015625.839843l28.910156-21.199218c2.503906-1.835938 3.191406-5.277344 1.589844-7.9375l-11.484375-19.054688c6.183594-7.449218 11.277344-15.742187 15.132812-24.621094l22.484375 1.226563c3.089844.175781 5.800781-2.027344 6.261719-5.085937l5.40625-35.4375c.46875-3.058594-1.46875-5.96875-4.46875-6.722657zm-229.542969-94.183593c6.894531-.023438 13.757813.988281 20.351563 3l-5.628906 4.101562c-2.5 1.828125-3.191407 5.269531-1.589844 7.921875l11.511718 19.078125c-6.164062 7.453125-11.261718 15.726562-15.152343 24.582031l-22.484375-1.230469c-1.410156-.046874-2.789063.398438-3.902344 1.257813l-3.808594-58.710937zm-22.011719 78.402343c.117188 0 .230469-.019531.34375-.027343l-2.992187 19.601562c-.464844 3.058594 1.46875 5.96875 4.46875 6.722656l21.828125 5.480469c1.027344 9.621094 3.417969 19.046875 7.097656 27.992187l-3.175781 2.828126h-85.714844v-85.589844l55.898438 22.558594c.714843.285156 1.476562.433593 2.246093.433593zm-21.246093-78.402343h10.535156l4.113281 63.324218-47.359375-19.082031zm-93.3125 0h10.480469l31.417968 44.203124-46.265625 19.066407zm-101.539063 75.957031c-1.945312-19.4375 4.429688-38.792969 17.550782-53.269531 13.121093-14.476563 31.757812-22.71875 51.292968-22.6875h20.664063l-4.972657 72.046874c-.136718 2.066407.804688 4.054688 2.488282 5.261719 1.683594 1.203125 3.867187 1.453125 5.78125.65625l53.148437-21.886719v84.921876h-146v-64.4375c0-.199219.066407-.402344.046875-.605469zm455.671875 53.191406-21.320312-1.164063c-2.601563-.136718-4.992188 1.417969-5.929688 3.847657-3.992187 10.433593-9.894531 20.03125-17.40625 28.300781-1.796875 1.960938-2.085937 4.871094-.710937 7.148438l10.914062 18.097656-20.101562 14.738281-14.140625-15.792969c-1.742188-1.945312-4.539063-2.539062-6.921875-1.472656-10.21875 4.652344-21.195313 7.425781-32.398438 8.183594-2.605468.160156-4.804687 1.988281-5.445312 4.515625l-5.214844 20.601562-23.519531-3.5625 1.164062-21.199219c.144531-2.609374-1.417969-5.015624-3.859375-5.941406-10.46875-4.039062-20.117187-9.933594-28.488281-17.398437-1.957031-1.726563-4.804687-1.988281-7.042969-.648438l-18.21875 10.898438-14.777344-20.007813 15.824219-14.058594c1.988281-1.765624 2.578125-4.628906 1.449219-7.035156-4.707031-10.121094-7.480469-21.027344-8.175781-32.167968-.164063-2.605469-1.996094-4.808594-4.527344-5.445313l-20.6875-5.191406 3.765625-24.660157 21.3125 1.164063c2.605469.140625 5-1.414063 5.933594-3.847656 4.058594-10.433594 9.980468-20.042969 17.46875-28.363281 1.742187-1.964844 2.003906-4.832032.648437-7.082032l-10.914062-18.105468 20.101562-14.734376 14.140625 15.792969c1.765625 1.96875 4.605469 2.550781 7 1.4375 10.175782-4.691406 21.132813-7.457031 32.316406-8.148437 2.605469-.164063 4.804688-1.988282 5.445313-4.519532l5.214844-20.597656 23.519531 3.5625-1.167969 21.199219c-.144531 2.609375 1.421875 5.011719 3.863281 5.941406 10.46875 3.96875 20.105469 9.851563 28.421876 17.34375 1.953124 1.773438 4.84375 2.0625 7.109374.707031l18.21875-10.902343 14.789063 20.007812-15.832031 14.0625c-1.960938 1.742188-2.5625 4.558594-1.484375 6.949219 4.667969 10.164062 7.453125 21.09375 8.214843 32.25.160157 2.609375 1.996094 4.816406 4.53125 5.449219l20.683594 5.195312zm0 0"/><path d="m367.933594 281.273438c-42.75-6.460938-82.832032 22.914062-89.335938 65.515624-3.097656 20.527344 2.089844 41.445313 14.425782 58.140626 12.335937 16.699218 30.804687 27.804687 51.335937 30.875 3.917969.59375 7.871094.890624 11.832031.894531 38.085938 0 71.601563-27.773438 77.5-66.410157 3.101563-20.527343-2.089844-41.445312-14.421875-58.140624-12.335937-16.699219-30.804687-27.804688-51.335937-30.875zm53.898437 87.199218c-4.164062 26.515625-23.851562 47.929688-49.921875 54.304688-26.070312 6.375-53.417968-3.539063-69.347656-25.136719-10.425781-14.074219-14.785156-31.738281-12.101562-49.046875 4.167968-26.511719 23.855468-47.925781 49.925781-54.300781 26.070312-6.375 53.417969 3.539062 69.34375 25.140625 10.429687 14.074218 14.785156 31.734375 12.101562 49.042968zm0 0"/><path d="m220.40625 11.714844c-14.433594-10.707032-32.933594-14.316406-50.335938-9.828125l-39.617187 10.136719h-13.632813c-16.234374 0-28.988281 13.539062-28.988281 29.773437v36.058594l1.125 111.597656c-.019531 1.980469.957031 3.839844 2.601563 4.949219l71.558594 46.878906c1.964843 1.292969 4.507812 1.304688 6.484374.027344l72.960938-46.882813c1.734375-1.117187 2.773438-3.046875 2.753906-5.109375l-1.351562-131.34375c0-1.011718-.027344-2.039062-.078125-3.054687-.902344-17.207031-9.53125-33.085938-23.480469-43.203125zm-120.773438 86.46875c5.695313-25.101563 24.074219-23.570313 56.050782-18.699219 26.160156 3.984375 57.664062 8.773437 76.335937-16.0625l.675781 65.746094-8.5 6.457031c-2.894531 2.191406-6.417968 3.386719-10.046874 3.402344h-14.398438c-4.644531-.015625-9.074219-1.960938-12.226562-5.371094-.019532-.019531-.039063-.050781-.058594-.070312-5.421875-5.921876-13.085938-9.296876-21.117188-9.296876-8.03125-.003906-15.691406 3.367188-21.121094 9.285157-.015624.019531-.035156.0625-.054687.082031-3.152344 3.410156-7.582031 5.355469-12.230469 5.371094h-14.390625c-3.628906-.015625-7.15625-1.210938-10.046875-3.402344l-8.5-6.445312zm17.1875-74.160156h14.398438c.503906.058593 1.007812.046874 1.507812-.027344l40.367188-10.414063c13.890625-3.613281 28.671875-.761719 40.21875 7.765625 7.425781 5.417969 13.042969 12.953125 16.113281 21.617188-12.574219 33.679687-41.203125 29.300781-71.710937 24.648437-20.960938-3.195312-43.882813-6.6875-57.882813 6.234375v-32.050781c0-9.617187 7.371094-17.773437 16.988281-17.773437zm49.554688 205.085937-65.683594-43-.5-41.75 1.074219.832031c4.980469 3.765625 11.046875 5.8125 17.285156 5.832032h14.390625c8.035156-.015626 15.691406-3.390626 21.121094-9.308594.019531-.019532.039062-.050782.054688-.074219 3.152343-3.410156 7.582031-5.351563 12.222656-5.351563 4.644531-.003906 9.078125 1.933594 12.230468 5.339844.019532.023438.039063.0625.058594.085938 5.429688 5.917968 13.089844 9.292968 21.121094 9.308594h14.390625c6.242187-.019532 12.3125-2.0625 17.292969-5.828126l1.414062-1.078124.429688 42.015624zm0 0"/><path d="m180.832031 174.023438h-29c-3.3125 0-6 2.6875-6 6 0 3.316406 2.6875 6 6 6h29c3.3125 0 6-2.683594 6-6 0-3.3125-2.6875-6-6-6zm0 0"/></svg>