<?xml version="1.0"?>
<svg xmlns="http://www.w3.org/2000/svg" id="Layer_1" data-name="Layer 1" viewBox="0 0 512 512" width="512" height="512"><title>Stationery</title><path d="M396.307,194H354.479l.128-109.5a11.122,11.122,0,0,0-1.724-5.963l-33.01-52.833a6,6,0,0,0-10.178.023L276.685,78.6a10.93,10.93,0,0,0-1.723,5.9L275.09,194H253V31.429A6.524,6.524,0,0,0,246.834,25H164.346A6.683,6.683,0,0,0,158,31.429V194H115.693c-3.313,0-5.693,2.938-5.693,6.252v55.457c0,3.313,2.38,6.291,5.693,6.291H118V483.083A6.087,6.087,0,0,0,124.181,489H387.819A6.087,6.087,0,0,0,394,483.083V262h2.307c3.313,0,5.693-2.978,5.693-6.291V200.252C402,196.938,399.62,194,396.307,194ZM335,194V89h7.6l-.124,105Zm2.934-117h-46.3l9.229-14h27.841ZM323,89V194H307V89Zm-8.216-48.293L321.211,51H308.357ZM286.967,89H295V194h-7.91ZM241,194H214V37h27Zm-71-7h15a6,6,0,0,0,0-12H170V157h9a6,6,0,0,0,0-12h-9V128h15a6,6,0,0,0,0-12H170V98h9a6,6,0,0,0,0-12h-9V67h15a6,6,0,0,0,0-12H170V37h32V194H170Zm-48,19H390v44H122ZM382,477H130V262H382Z"/></svg>
