<?xml version="1.0" encoding="iso-8859-1"?>
<!-- Generator: Adobe Illustrator 19.0.0, SVG Export Plug-In . SVG Version: 6.00 Build 0)  -->
<svg version="1.1" id="Capa_1" xmlns="http://www.w3.org/2000/svg" xmlns:xlink="http://www.w3.org/1999/xlink" x="0px" y="0px"
	 viewBox="0 0 511.994 511.994" style="enable-background:new 0 0 511.994 511.994;" xml:space="preserve">
<g>
	<g>
		<path d="M493.333,255.974c11.557-13.883,18.097-31.769,18.097-50.721c0-44.016-35.806-79.822-79.822-79.822
			c-43.252,0-78.579,34.58-79.788,77.541H159.609c-1.209-42.961-36.536-77.541-79.788-77.541C35.806,125.431,0,161.237,0,205.253
			c0,18.599,6.608,36.461,18.268,50.567C6.608,269.727,0,287.698,0,306.741c0,44.016,35.806,79.822,79.822,79.822
			c43.252,0,78.579-34.58,79.788-77.541h192.781c1.209,42.967,36.536,77.541,79.788,77.541c44.016,0,79.822-35.806,79.816-79.822
			C511.994,287.971,505.244,270.04,493.333,255.974z M432.178,352.353c-25.15,0-45.612-20.463-45.612-45.612
			c0-3.78,0.428-7.577,1.203-10.69c1.271-5.109,0.12-10.519-3.119-14.67c-3.244-4.145-8.21-6.568-13.479-6.568H140.828
			c-5.268,0-10.24,2.429-13.478,6.58c-3.238,4.151-4.39,9.562-3.113,14.67c0.77,3.102,1.197,6.893,1.197,10.679
			c0,25.15-20.463,45.612-45.612,45.612s-45.612-20.463-45.612-45.612c0-14.955,7.002-28.633,18.724-36.593
			c4.635-3.136,7.435-8.353,7.503-13.946c0.068-5.593-2.606-10.873-7.161-14.123c-11.939-8.53-19.066-22.293-19.066-36.826
			c0-25.15,20.463-45.612,45.612-45.612s45.612,20.463,45.612,45.612c0,3.843-0.416,7.537-1.197,10.685
			c-1.277,5.109-0.125,10.519,3.113,14.67c3.238,4.151,8.216,6.574,13.478,6.574h229.773c5.268,0,10.24-2.429,13.484-6.58
			c3.238-4.151,4.39-9.567,3.107-14.676c-0.787-3.13-1.197-6.825-1.197-10.673c0-25.15,20.463-45.612,45.612-45.612
			s45.612,20.463,45.612,45.612c0,14.955-7.002,28.633-18.73,36.593c-4.67,3.17-7.475,8.444-7.498,14.089
			c-0.023,5.65,2.748,10.936,7.395,14.146c12.15,8.381,19.402,22.082,19.402,36.661
			C477.791,331.891,457.328,352.353,432.178,352.353z"/>
	</g>
</g>
<g>
</g>
<g>
</g>
<g>
</g>
<g>
</g>
<g>
</g>
<g>
</g>
<g>
</g>
<g>
</g>
<g>
</g>
<g>
</g>
<g>
</g>
<g>
</g>
<g>
</g>
<g>
</g>
<g>
</g>
</svg>
