<svg height="491pt" viewBox="0 -106 491 491" width="491pt" xmlns="http://www.w3.org/2000/svg"><path d="m491 26c0-14.359375-11.640625-26-26-26h-439c-14.359375 0-26 11.640625-26 26v227c0 14.359375 11.640625 26 26 26h439c14.359375 0 26-11.640625 26-26zm-12 227c0 7.730469-6.269531 14-14 14h-439c-7.730469 0-14-6.269531-14-14v-227c0-7.730469 6.269531-14 14-14h439c7.730469 0 14 6.269531 14 14zm0 0"/><path d="m460 25h-431c-3.3125 0-6 2.6875-6 6v219c0 3.3125 2.6875 6 6 6h431c3.3125 0 6-2.6875 6-6v-219c0-3.3125-2.6875-6-6-6zm-6 58h-8c-19.875-.023438-35.976562-16.125-36-36v-10h44zm-56 161h-304v-13c-.027344-26.496094-21.503906-47.972656-48-48h-11v-87h10.5c26.46875 0 47.5-22.03125 47.5-48.5v-10.5h305v10c.03125 26.496094 21.503906 47.96875 48 48h8v88h-8c-26.496094.027344-47.972656 21.503906-48 48zm-363-207h46v10.5c0 19.851562-15.648438 36.5-35.5 36.5h-10.5zm0 158h11c19.875.023438 35.976562 16.125 36 36v13h-47zm375 49v-13c.023438-19.875 16.125-35.976562 36-36h8v49zm0 0"/><path d="m246 48.8125c-49.808594 0-90.1875 40.378906-90.1875 90.1875s40.378906 90.1875 90.1875 90.1875 90.1875-40.378906 90.1875-90.1875c-.058594-49.785156-40.402344-90.128906-90.1875-90.1875zm0 168.375c-43.179688 0-78.1875-35.007812-78.1875-78.1875s35.007812-78.1875 78.1875-78.1875 78.1875 35.007812 78.1875 78.1875c-.050781 43.160156-35.027344 78.136719-78.1875 78.1875zm0 0"/><path d="m244.875 98.890625c.742188.144531 1.507812.144531 2.25 0 8.820312.597656 15.675781 7.917969 15.6875 16.757813 0 3.3125 2.6875 6 6 6 3.316406 0 6-2.6875 6-6-.015625-13.59375-9.519531-25.332032-22.8125-28.179688v-7.46875c0-3.3125-2.6875-6-6-6s-6 2.6875-6 6v7.46875c-14.429688 3.0625-24.21875 16.53125-22.671875 31.199219 1.542969 14.671875 13.917969 25.808593 28.671875 25.800781 9.21875-.125 16.8125 7.199219 17.023438 16.417969.207031 9.214843-7.050782 16.878906-16.261719 17.171875-.507813-.070313-1.015625-.070313-1.523438 0-8.96875-.410156-16.039062-7.796875-16.050781-16.777344 0-3.3125-2.6875-6-6-6-3.316406 0-6 2.6875-6 6 .019531 13.59375 9.519531 25.328125 22.8125 28.179688v8.539062c0 3.3125 2.6875 6 6 6s6-2.6875 6-6v-8.539062c14.429688-3.066407 24.21875-16.53125 22.671875-31.203126-1.542969-14.671874-13.917969-25.808593-28.671875-25.796874-9.125.089843-16.65625-7.117188-16.960938-16.238282-.304687-9.121094 6.726563-16.816406 15.835938-17.335937zm0 0"/></svg>