<svg height="468pt" viewBox="0 0 468 468" width="468pt" xmlns="http://www.w3.org/2000/svg"><path d="m6.300781 355h137.699219v51h-42.453125c-3.3125 0-5.546875 2.648438-5.546875 5.960938v50c0 3.316406 2.234375 6.039062 5.546875 6.039062h264.902344c3.3125 0 5.546875-2.722656 5.546875-6.039062v-50c0-3.3125-2.234375-5.960938-5.546875-5.960938h-42.449219v-51h137.699219c3.410156-.0625 6.175781-2.78125 6.300781-6.1875v-342.773438c-.140625-3.378906-2.921875-6.04296825-6.300781-6.039062h-455.398438c-3.378906-.00390625-6.160156 2.660156-6.300781 6.039062v342.773438c.125 3.40625 2.890625 6.125 6.300781 6.1875zm353.699219 101h-252v-38h252zm-48-50h-156v-51h156zm-300-394h444v331h-444zm0 0"/><path d="m435 38c0-3.3125-2.6875-6-6-6h-391c-3.3125 0-6 2.6875-6 6v279c0 3.3125 2.6875 6 6 6h391c3.3125 0 6-2.6875 6-6zm-11 273h-380v-267h380zm0 0"/><path d="m262 202c0-3.3125-2.6875-6-6-6h-44c-3.3125 0-6 2.6875-6 6v82c0 3.3125 2.6875 6 6 6h44c3.3125 0 6-2.6875 6-6zm-12 77h-32v-71h32zm0 0"/><path d="m349 153c0-3.3125-2.6875-6-6-6h-44c-3.3125 0-6 2.6875-6 6v132c0 3.3125 2.6875 6 6 6h44c3.3125 0 6-2.6875 6-6zm-11 126h-33v-120h33zm0 0"/><path d="m174 233c0-3.3125-2.6875-6-6-6h-44c-3.3125 0-6 2.6875-6 6v52c0 3.3125 2.6875 6 6 6h44c3.3125 0 6-2.6875 6-6zm-11 46h-33v-40h33zm0 0"/><path d="m121.851562 159.625c1.496094.003906 2.941407-.558594 4.042969-1.566406l58.457031-53.367188 60.679688 45.484375c2.121094 1.589844 5.03125 1.601563 7.164062.027344l86.898438-64.21875-3.261719 40.347656c-.265625 3.304688 2.195313 6.199219 5.5 6.464844.164063.011719.328125.019531.488281.019531 3.125-.003906 5.726563-2.402344 5.980469-5.515625l4.335938-53.625c.128906-1.597656-.390625-3.183593-1.4375-4.398437s-2.539063-1.960938-4.136719-2.070313l-60.679688-4.125c-3.308593-.222656-6.171874 2.273438-6.394531 5.582031-.226562 3.304688 2.273438 6.167969 5.578125 6.390626l44.539063 3.027343-80.953125 59.816407-61.078125-45.785157c-2.304688-1.730469-5.515625-1.574219-7.644531.371094l-62.125 56.714844c-1.828126 1.671875-2.445313 4.292969-1.546876 6.601562.894532 2.308594 3.117188 3.832031 5.59375 3.832031zm0 0"/></svg>