<svg height="509pt" viewBox="0 -50 509.75763 509" width="509pt" xmlns="http://www.w3.org/2000/svg"><path d="m452.929688 146.980469c-1.121094-1.621094-2.964844-2.59375-4.9375-2.59375-1.972657 0-3.820313.972656-4.9375 2.59375l-55.757813 80.800781c-1.265625 1.75-1.410156 4.070312-.375 5.964844 1.066406 1.921875 3.121094 3.074218 5.3125 2.984375h47.765625c-6.625 45-30.15625 86.191406-66.632812 115.921875-34.46875 28.089844-77.789063 44.316406-118.851563 44.316406-26.789063 0-54.792969-6.800781-80.980469-19.78125-26.894531-13.253906-50.433594-32.433594-68.851562-56.09375-2.042969-2.570312-5.777344-3.023438-8.375-1.015625-2.597656 2.011719-3.101563 5.734375-1.128906 8.363281 19.53125 25.113282 44.496093 45.472656 73.027343 59.550782 27.835938 13.800781 57.679688 21.089843 86.3125 21.089843 43.773438 0 89.855469-17.324219 126.429688-47.128906 39.285156-32.019531 64.457031-76.222656 71.167969-125.222656h51.628906c2.195312.105469 4.261718-1.050781 5.3125-2.984375 1.050781-1.929688.90625-4.292969-.375-6.082032zm-49.265626 77.75 44.328126-64.234375 44.324218 64.234375zm0 0"/><path d="m61.765625 265.070312c1.972656 0 3.820313-.96875 4.9375-2.589843l55.757813-80.800781c1.265624-1.75 1.410156-4.074219.371093-5.96875-1.0625-1.917969-3.117187-3.070313-5.308593-2.980469h-47.769532c6.628906-45 30.160156-86.195313 66.636719-115.921875 34.46875-28.089844 77.789063-44.316406 118.851563-44.316406 26.789062 0 54.792968 6.800781 80.980468 19.78125 26.894532 13.253906 50.4375 32.429687 68.855469 56.09375 2.039063 2.59375 5.789063 3.058593 8.398437 1.042968 2.609376-2.019531 3.105469-5.765625 1.109376-8.390625-19.53125-25.113281-44.5-45.476562-73.03125-59.550781-27.832032-13.796875-57.679688-21.089844-86.308594-21.089844-43.777344 0-89.859375 17.320313-126.429688 47.125-39.292968 32.019532-64.464844 76.226563-71.175781 125.226563h-51.628906c-2.195313-.109375-4.261719 1.050781-5.3125 2.980469-1.050781 1.933593-.90625 4.296874.375 6.082031l55.753906 80.742187c1.125 1.609375 2.972656 2.558594 4.9375 2.535156zm44.328125-80.339843-44.328125 64.234375-44.324219-64.234375zm0 0"/><path d="m127.480469 204.730469c0 70.359375 57.039062 127.398437 127.398437 127.398437s127.398438-57.039062 127.398438-127.398437c0-70.363281-57.039063-127.402344-127.398438-127.402344-70.328125.082031-127.320312 57.074219-127.398437 127.402344zm55.53125 90.453125c1.761719-15.695313 15.074219-27.535156 30.867187-27.453125h13.308594c2.484375 12 13.898438 22.761719 27.558594 22.761719 13.65625 0 25.070312-10.761719 27.558594-22.761719h13.574218c15.792969-.082031 29.105469 11.757812 30.867188 27.453125-42.03125 33.574218-101.707032 33.574218-143.738282 0zm44.980469-63.960938c-7.210938-7.1875-11.214844-16.980468-11.113282-27.160156v-3.523438c25.394532-5.003906 47.503906-20.488281 60.882813-42.644531 1.707031.617188 3.328125 1.453125 4.824219 2.476563 6.785156 4.625 10.734374 12.394531 10.472656 20.601562l-.179688 4.367188v18.164062c0 21.253906-16.871094 38.667969-37.8125 38.824219-10.152344.09375-19.914062-3.910156-27.078125-11.105469zm76.886718-45.792968.128906-4.277344c.300782-12.300782-5.699218-23.90625-15.910156-30.773438-4.105468-2.78125-8.789062-4.589844-13.699218-5.292968-2.46875-.34375-4.890626.878906-6.078126 3.066406-19.964843 36.539062-54.945312 40.761718-57.847656 41.046875-3.757812.179687-6.6875 3.328125-6.597656 7.089843v7.773438c-.0625 2.9375.128906 5.875.570312 8.777344-5.066406-9.769532-7.953124-20.523438-8.460937-31.519532-.449219-9.621093 1.535156-19.203124 5.773437-27.851562 7.222657-14.5 20.882813-25.566406 37.523438-30.375 9.339844-2.894531 19.441406-2.058594 28.179688 2.324219 8.246093 4.292969 14.699218 11.371093 18.21875 19.976562l.226562.699219c.984375 2.949219 4.054688 4.660156 7.078125 3.941406 1.597656-.378906 9.835937-1.597656 15.152344 11.5625 5.292969 13.113282 4.988281 28.015625-.847657 41.949219-1.175781 2.742187-2.507812 5.414063-3.988281 8 .402344-2.660156.59375-5.347656.574219-8.039063zm-66 75.835937v-9.554687c5.082032 1.875 10.441406 2.898437 15.859375 3.019531h.382813c5.386718-.160157 10.710937-1.203125 15.757812-3.085938v10.320313c0 8.835937-7.164062 16-16 16-8.835937 0-16-7.164063-16-16zm131.398438-56.535156c.019531 30.378906-11.921875 59.542969-33.242188 81.183593-5.597656-18.007812-22.296875-30.257812-41.15625-30.183593h-13v-1.765625c4.269532-3.3125 8.300782-6.921875 12.066406-10.800782 11.179688-11.167968 19.386719-22.9375 24.433594-34.980468 7.066406-16.871094 7.382813-35.011719.898438-51.078125-4.898438-12.148438-13.945313-19.289063-23.90625-19.34375-10.566406-22.269531-35.871094-33.421875-59.4375-26.195313-19.855469 5.738282-36.242188 19.058594-44.957032 36.550782-5.125 10.46875-7.523437 22.058593-6.976562 33.699218 1.207031 29.347656 17.878906 56.664063 41.878906 70.660156v3.253907h-13c-18.859375-.074219-35.5625 12.171875-41.160156 30.183593-21.316406-21.59375-33.261719-50.722656-33.242188-81.070312 0-63.632812 51.769532-115.460938 115.398438-115.460938 63.695312.046876 115.328125 51.652344 115.402344 115.347657zm0 0"/></svg>