<svg height="483pt" viewBox="-9 0 483 483.772" width="483pt" xmlns="http://www.w3.org/2000/svg"><path d="m303.238281 68.234375c-.003906-37.6875-30.554687-68.234375-68.238281-68.23046875-37.683594 0-68.234375 30.55078175-68.230469 68.23437475 0 37.683594 30.550781 68.234375 68.234375 68.234375 37.667969-.042968 68.195313-30.570312 68.234375-68.238281zm-68.234375 56.238281c-31.058594 0-56.234375-25.175781-56.234375-56.234375 0-31.058593 25.175781-56.234375 56.234375-56.234375s56.234375 25.175782 56.234375 56.234375c-.035156 31.042969-25.191406 56.199219-56.234375 56.234375zm0 0"/><path d="m253.34375 49.894531c-2.34375-2.34375-6.140625-2.34375-8.484375 0l-9.855469 9.855469-9.855468-9.855469c-1.511719-1.539062-3.734376-2.144531-5.816407-1.59375-2.082031.554688-3.710937 2.179688-4.261719 4.265625-.550781 2.082032.054688 4.300782 1.59375 5.8125l9.855469 9.855469-9.855469 9.855469c-2.34375 2.34375-2.34375 6.140625-.003906 8.484375 2.34375 2.34375 6.144532 2.34375 8.488282 0l9.855468-9.855469 9.855469 9.855469c2.34375 2.34375 6.144531 2.34375 8.484375 0 2.34375-2.34375 2.34375-6.140625 0-8.484375l-9.855469-9.855469 9.855469-9.855469c2.34375-2.34375 2.34375-6.140625 0-8.484375zm0 0"/><path d="m68.621094 0c-37.683594 0-68.234375 30.546875-68.234375 68.234375 0 37.683594 30.546875 68.234375 68.234375 68.234375 37.683594 0 68.234375-30.550781 68.234375-68.234375-.042969-37.667969-30.566407-68.1914062-68.234375-68.234375zm0 124.46875c-31.058594 0-56.234375-25.179688-56.234375-56.234375 0-31.058594 25.175781-56.234375 56.234375-56.234375 31.054687 0 56.234375 25.175781 56.234375 56.234375-.035157 31.042969-25.191407 56.199219-56.234375 56.238281zm0 0"/><path d="m87.90625 49.820312-26.136719 23.9375-12.074219-13.09375c-1.449218-1.597656-3.640624-2.296874-5.746093-1.828124s-3.796875 2.027343-4.433594 4.085937c-.636719 2.0625-.117187 4.304687 1.355469 5.875l16.132812 17.492187c2.242188 2.429688 6.023438 2.589844 8.464844.359376l30.542969-27.976563c1.59375-1.445313 2.292969-3.632813 1.832031-5.734375s-2.011719-3.792969-4.066406-4.4375c-2.050782-.644531-4.292969-.136719-5.871094 1.324219zm0 0"/><path d="m397.769531 0c-37.683593 0-68.234375 30.550781-68.234375 68.234375s30.550782 68.234375 68.234375 68.234375c37.6875 0 68.234375-30.550781 68.234375-68.234375-.042968-37.667969-30.566406-68.1914062-68.234375-68.234375zm0 124.46875c-31.058593-.003906-56.234375-25.179688-56.234375-56.238281 0-31.054688 25.179688-56.230469 56.234375-56.230469 31.058594 0 56.234375 25.175781 56.234375 56.234375-.035156 31.042969-25.191406 56.203125-56.234375 56.238281zm0 0"/><path d="m417.054688 49.820312-26.136719 23.9375-12.074219-13.09375c-1.449219-1.597656-3.644531-2.296874-5.746094-1.828124-2.105468.46875-3.796875 2.027343-4.433594 4.085937-.636718 2.0625-.117187 4.304687 1.355469 5.875l16.132813 17.492187c2.238281 2.429688 6.023437 2.589844 8.460937.359376l30.546875-27.976563c2.445313-2.238281 2.609375-6.035156.371094-8.476563-2.238281-2.445312-6.035156-2.609374-8.476562-.371093zm0 0"/><path d="m185.195312 167.664062c0-15.957031-12.933593-28.890624-28.890624-28.890624h-.21875c-15.957032 0-28.890626 12.933593-28.890626 28.890624v9.21875c0 15.953126 12.933594 28.890626 28.890626 28.890626h.21875c15.957031 0 28.890624-12.9375 28.890624-28.890626zm-12 9.21875c0 9.328126-7.5625 16.890626-16.890624 16.890626h-.21875c-9.328126 0-16.890626-7.5625-16.890626-16.890626v-9.21875c0-9.332031 7.5625-16.894531 16.890626-16.890624h.21875c9.328124-.003907 16.890624 7.558593 16.890624 16.890624zm0 0"/><path d="m339.195312 167.664062c0-15.957031-12.933593-28.890624-28.890624-28.890624h-.21875c-15.957032 0-28.890626 12.933593-28.890626 28.890624v9.214844c0 15.957032 12.933594 28.894532 28.890626 28.894532h.21875c15.957031 0 28.890624-12.9375 28.890624-28.894532zm-12 9.214844c0 9.332032-7.5625 16.894532-16.890624 16.894532h-.21875c-9.328126 0-16.890626-7.5625-16.890626-16.894532v-9.214844c0-9.328124 7.5625-16.890624 16.890626-16.890624h.21875c9.328124 0 16.890624 7.5625 16.890624 16.890624zm0 0"/><path d="m266.195312 191.152344c0-18.433594-14.945312-33.378906-33.378906-33.378906h-.242187c-18.433594 0-33.378907 14.945312-33.378907 33.378906v11.238281c0 18.4375 14.945313 33.382813 33.378907 33.382813h.242187c18.433594 0 33.378906-14.945313 33.378906-33.382813zm-12 11.238281c0 11.808594-9.574218 21.382813-21.378906 21.382813h-.242187c-11.808594 0-21.378907-9.574219-21.378907-21.382813v-11.238281c0-11.808594 9.570313-21.378906 21.378907-21.378906h.242187c11.804688 0 21.378906 9.570312 21.378906 21.378906zm0 0"/><path d="m272.179688 477.945312 4.363281-91.546874c.285156-6.195313 2.917969-12.046876 7.363281-16.371094l5.109375-4.835938c7.074219-6.859375 11.101563-16.265625 11.179687-26.121094v-53.351562c.878907-9.683594-2.363281-19.289062-8.9375-26.457031-6.617187-7.285157-15.988281-11.453125-25.824218-11.488281h-5.429688c-2.546875.035156-4.800781 1.652343-5.648437 4.054687l-6.179688 17.238281-11.035156-11.570312c-1.152344-1.160156-2.734375-1.785156-4.371094-1.722656h-.074219c-1.664062-.042969-3.269531.632812-4.398437 1.851562l-9.941406 11.035156-5.371094-16.625c-.792969-2.496094-3.085937-4.210937-5.703125-4.261718h-6.316406c-9.839844.035156-19.214844 4.203124-25.832032 11.488281-6.574218 7.167969-9.816406 16.773437-8.9375 26.457031v53.300781c.078126 9.894531 4.140626 19.339844 11.273438 26.199219l5.027344 4.785156c4.492187 4.3125 7.164062 10.179688 7.464844 16.398438l4.378906 91.539062c.148437 3.226563 2.78125 5.777344 6.011718 5.832032h65.835938c3.222656-.054688 5.851562-2.609376 5.992188-5.828126zm-39.296876-207.582031 5.257813 5.589844 7.035156 65.535156-11.980469 11.984375-11.980468-11.980468 7.089844-66.015626zm27.585938 201.410157h-54.394531l-4.085938-85.828126c-.429687-9.285156-4.390625-18.058593-11.082031-24.515624l-5.097656-4.8125c-4.796875-4.605469-7.539063-10.949219-7.609375-17.601563v-53.589844c0-.199219.144531-.398437.121093-.605469-.613281-6.394531 1.492188-12.75 5.800782-17.515624 4.308594-4.765626 10.421875-7.5 16.84375-7.53125h1.960937l7.25 22.355468c.714844 2.195313 2.613281 3.789063 4.898438 4.113282l-6.097657 56.796874c-.195312 1.808594.441407 3.609376 1.722657 4.894532l18.253906 18.257812c2.34375 2.34375 6.140625 2.34375 8.484375 0l18.257812-18.25c1.28125-1.285156 1.917969-3.078125 1.722657-4.882812l-6.101563-56.769532c.140625-.019531.277344-.03125.414063-.058593 2.054687-.460938 3.726562-1.945313 4.425781-3.929688l8.066406-22.527343h1.210938c6.402344.066406 12.488281 2.804687 16.785156 7.554687 4.300781 4.746094 6.421875 11.074219 5.851562 17.453125-.019531.203125.125.449219.125.648438v53.640624c-.074218 6.609376-2.792968 12.910157-7.546874 17.5l-5.03125 4.824219c-6.644532 6.472657-10.582032 15.222657-11.023438 24.488281zm0 0"/><path d="m115.195312 191.152344c0-18.4375-14.945312-33.378906-33.378906-33.378906h-.242187c-18.433594 0-33.378907 14.941406-33.378907 33.378906v11.238281c0 18.4375 14.945313 33.382813 33.378907 33.382813h.242187c18.433594 0 33.378906-14.945313 33.378906-33.382813zm-12 11.238281c0 11.808594-9.570312 21.378906-21.378906 21.382813h-.242187c-11.808594-.003907-21.378907-9.574219-21.378907-21.382813v-11.238281c0-11.808594 9.570313-21.378906 21.378907-21.378906h.242187c11.808594 0 21.378906 9.570312 21.378906 21.378906zm0 0"/><path d="m27.238281 365.21875 4.914063 4.785156c4.476562 4.316406 7.125 10.183594 7.40625 16.398438l4.351562 91.539062c.136719 3.222656 2.761719 5.777344 5.984375 5.832032h65.835938c3.222656-.054688 5.847656-2.609376 5.992187-5.828126l4.363282-91.546874c.285156-6.195313 2.917968-12.046876 7.363281-16.371094l4.839843-4.835938c6.996094-6.886718 10.925782-16.300781 10.90625-26.121094v-53.351562c.949219-9.679688-2.21875-19.308594-8.734374-26.53125-6.511719-7.21875-15.765626-11.363281-25.488282-11.414062h-5.433594c-2.542968.035156-4.796874 1.652343-5.644531 4.054687l-6.179687 17.238281-11.035156-11.570312c-1.152344-1.160156-2.734376-1.785156-4.371094-1.722656h-.074219c-1.664063-.042969-3.265625.632812-4.398437 1.855468l-9.9375 11.03125-5.375-16.625c-.789063-2.496094-3.082032-4.210937-5.699219-4.261718h-6.320313c-9.730468.042968-18.996094 4.183593-25.523437 11.402343-6.53125 7.222657-9.71875 16.855469-8.785157 26.542969v53.300781c-.007812 9.867188 3.972657 19.316407 11.042969 26.199219zm55.179688-94.855469 5.257812 5.59375 7.039063 65.53125-11.980469 11.984375-11.980469-11.980468 7.089844-66.015626zm-48.691407-3.054687c4.257813-4.796875 10.367188-7.539063 16.777344-7.535156h1.960938l7.25 22.355468c.691406 2.136719 2.511718 3.714844 4.726562 4.097656.054688.011719.113282.03125.171875.039063l-6.101562 56.78125c-.191407 1.804687.441406 3.605469 1.722656 4.890625l18.261719 18.253906c2.34375 2.34375 6.140625 2.34375 8.484375 0l18.253906-18.25c1.28125-1.285156 1.917969-3.078125 1.722656-4.882812l-6.101562-56.773438c.140625-.015625.277343-.027344.414062-.054687 2.054688-.460938 3.726563-1.945313 4.425781-3.933594l8.066407-22.523437h1.210937c6.398438.015624 12.492188 2.75 16.757813 7.519531s6.304687 11.128906 5.613281 17.488281c-.023438.203125-.148438.449219-.148438.648438v53.640624c.027344 6.574219-2.597656 12.882813-7.277343 17.5l-4.898438 4.824219c-6.625 6.476563-10.539062 15.230469-10.957031 24.484375l-4.054688 85.894532h-54.394531l-4.085937-85.828126c-.425782-9.285156-4.390625-18.058593-11.078125-24.519531l-4.875-4.808593c-4.734375-4.628907-7.394531-10.976563-7.378907-17.597657v-53.589843c0-.199219-.085937-.445313-.109374-.648438-.707032-6.363281 1.347656-12.722656 5.640624-17.472656zm0 0"/><path d="m416.195312 191.152344c0-18.4375-14.945312-33.382813-33.378906-33.378906h-.242187c-18.433594-.003907-33.378907 14.941406-33.378907 33.378906v11.242187c0 18.433594 14.945313 33.378907 33.378907 33.378907h.242187c18.433594 0 33.378906-14.945313 33.378906-33.378907zm-12 11.238281c0 11.808594-9.574218 21.382813-21.378906 21.382813h-.242187c-11.808594 0-21.378907-9.574219-21.378907-21.382813v-11.238281c0-11.808594 9.570313-21.378906 21.378907-21.378906h.242187c11.804688 0 21.378906 9.570312 21.378906 21.378906zm0 0"/><path d="m328.195312 365.21875 4.894532 4.785156c4.472656 4.316406 7.121094 10.1875 7.398437 16.398438l4.34375 91.539062c.132813 3.21875 2.757813 5.777344 5.980469 5.832032h65.835938c3.222656-.054688 5.847656-2.609376 5.992187-5.828126l4.363281-91.546874c.285156-6.195313 2.917969-12.046876 7.363282-16.371094l4.878906-4.835938c7.007812-6.882812 10.953125-16.296875 10.949218-26.121094v-53.351562c.933594-9.6875-2.253906-19.320312-8.78125-26.539062-6.523437-7.21875-15.789062-11.359376-25.519531-11.40625h-5.429687c-2.546875.035156-4.800782 1.652343-5.648438 4.054687l-6.179687 17.238281-11.03125-11.570312c-1.152344-1.160156-2.742188-1.785156-4.375-1.722656h-.074219c-1.664062-.042969-3.265625.632812-4.398438 1.855468l-9.9375 11.03125-5.375-16.625c-.789062-2.496094-3.082031-4.210937-5.699218-4.261718h-6.320313c-9.726562.046874-18.980469 4.191406-25.496093 11.414062-6.515626 7.21875-9.683594 16.851562-8.734376 26.53125v53.300781c-.023437 9.859375 3.945313 19.3125 11 26.199219zm55.140626-94.855469 5.257812 5.59375 7.039062 65.53125-11.976562 11.984375-11.980469-11.980468 7.089844-66.015626zm-48.691407-3.054687c4.257813-4.796875 10.367188-7.539063 16.78125-7.535156h1.960938l7.25 22.355468c.691406 2.136719 2.511719 3.714844 4.722656 4.097656.058594.011719.117187.03125.171875.039063l-6.097656 56.78125c-.195313 1.808594.441406 3.605469 1.722656 4.890625l18.253906 18.253906c2.34375 2.34375 6.144532 2.34375 8.484375 0l18.253907-18.253906c1.285156-1.28125 1.917968-3.078125 1.722656-4.882812l-6.097656-56.769532c.136718-.019531.273437-.027344.414062-.058594 2.050781-.460937 3.726562-1.945312 4.425781-3.929687l8.066407-22.523437h1.214843c6.402344.023437 12.492188 2.757812 16.761719 7.523437 4.273438 4.769531 6.324219 11.121094 5.648438 17.484375-.019532.203125-.109376.449219-.109376.648438v53.640624c.011719 6.582032-2.625 12.886719-7.3125 17.5l-4.917968 4.824219c-6.628906 6.476563-10.550782 15.230469-10.96875 24.488281l-4.070313 85.890626h-54.390625l-4.085937-85.828126c-.429688-9.285156-4.390625-18.058593-11.082031-24.519531l-4.832032-4.808593c-4.722656-4.636719-7.371094-10.984376-7.339844-17.601563v-53.589844c0-.199219-.128906-.445312-.148437-.648437-.71875-6.355469 1.320313-12.714844 5.601563-17.46875zm0 0"/></svg>