<svg height="495pt" viewBox="-28 0 495 495.99607" width="495pt" xmlns="http://www.w3.org/2000/svg"><path d="m6.242188 408.996094h129.261718v28h-40.050781c-3.351563.117187-5.992187 2.890625-5.949219 6.242187v46.828125c-.007812 1.578125.617188 3.09375 1.734375 4.207032 1.117188 1.117187 2.636719 1.734374 4.214844 1.722656h248.097656c1.578125.011718 3.097657-.605469 4.214844-1.722656 1.121094-1.113282 1.746094-2.628907 1.738281-4.207032v-46.828125c.042969-3.351562-2.601562-6.125-5.949218-6.242187h-40.050782v-28h129.257813c1.582031-.050782 3.078125-.730469 4.15625-1.890625 1.078125-1.15625 1.648437-2.699219 1.585937-4.28125v-321.039063c.050782-1.539062-.539062-3.035156-1.625-4.132812-1.085937-1.09375-2.574218-1.695313-4.117187-1.65625h-88.257813v-11.722656c-.054687-.378907-.140625-.75-.261718-1.113282 0-.015625-.082032-.03125-.085938-.046875-.082031-.355469-.199219-.707031-.347656-1.042969-.003906-.015624-.03125-.035156-.039063-.054687-.136719-.328125-.304687-.644531-.5-.945313l-.050781-.074218c-.191406-.292969-.414062-.570313-.65625-.824219-.011719-.019531-.027344-.039063-.039062-.054687l-56.078126-58.347657c-.011718-.015625-.027343-.027343-.042968-.039062-.082032-.085938-.167969-.164063-.253906-.242188-.058594-.050781-.117188-.109375-.179688-.160156-.101562-.085937-.199219-.160156-.308594-.234375-.050781-.042969-.101562-.082031-.15625-.121094-.140625-.101562-.285156-.183594-.433594-.265625-.023437-.011719-.042968.003907-.066406-.007812-.886718-.472657-1.878906-.714844-2.886718-.699219h-181.304688c-3.359375-.0546875-6.15625 2.570312-6.308594 5.925781v70.070313h-88.261718c-1.539063-.039063-3.03125.5625-4.117188 1.65625-1.085938 1.097656-1.671875 2.59375-1.621094 4.132812v321.039063c-.066406 1.582031.503906 3.125 1.582032 4.28125 1.078124 1.160156 2.574218 1.839843 4.15625 1.890625zm331.261718 75h-236v-35h236zm-46-47h-144v-28h144zm-190.691406-106h237.382812c3.367188.035156 6.160157-2.605469 6.308594-5.972656v-198.027344h43v230h-336v-230h43v198.027344c.148438 3.367187 2.9375 6.007812 6.308594 5.972656zm187.691406-310.167969 35.597656 37.167969h-35.597656zm-12-8.832031v52.277344c-.078125 1.523437.484375 3.003906 1.554688 4.09375 1.066406 1.085937 2.539062 1.675781 4.058594 1.628906h50.386718v249h-226v-236.367188c0-.273437.066406-.554687.066406-.84375 0-.285156-.066406-.566406-.066406-.84375v-68.945312zm-264 76h82v27h-48.921875c-3.355469.054687-6.050781 2.773437-6.078125 6.125v242.367187c0 3.3125 2.761719 5.507813 6.078125 5.507813h347.84375c3.3125 0 6.078125-2.195313 6.078125-5.507813v-242.367187c-.027344-3.351563-2.726562-6.070313-6.078125-6.125h-48.921875v-27h82v309h-414zm0 0"/><path d="m144.128906 201.996094h114.003906c3.316407 0 6-2.6875 6-6s-2.683593-6-6-6h-107.628906v-105.929688c0-3.3125-2.6875-6-6-6-3.316406 0-6 2.6875-6 6v111.882813c-.085937 1.558593.464844 3.082031 1.527344 4.21875 1.058594 1.140625 2.539062 1.800781 4.097656 1.828125zm0 0"/><path d="m180.21875 176.476562c10.34375-.015624 18.726562-8.398437 18.738281-18.742187 0-.605469-.035156-1.203125-.089843-1.796875l11.535156-5.3125c7.542968 6.535156 18.890625 6 25.78125-1.21875 6.894531-7.214844 6.910156-18.574219.039062-25.808594l6.097656-10.890625c.527344.046875 1.050782.082031 1.585938.082031 9.0625.035157 16.859375-6.394531 18.554688-15.292968 1.691406-8.898438-3.199219-17.742188-11.636719-21.039063s-18.027344-.109375-22.816407 7.582031c-4.785156 7.691407-3.410156 17.703126 3.277344 23.820313l-5.703125 10.164063c-6.054687-.960938-12.199219 1.109374-16.441406 5.535156-4.242187 4.429687-6.046875 10.652344-4.832031 16.664062l-10.386719 4.785156c-5.828125-6.273437-15.167969-7.792968-22.6875-3.691406-7.515625 4.097656-11.292969 12.773438-9.175781 21.070313 2.117187 8.296875 9.59375 14.097656 18.15625 14.09375zm63.691406-89.167968c3.722656 0 6.738282 3.015625 6.738282 6.738281 0 3.71875-3.015626 6.738281-6.738282 6.738281s-6.738281-3.019531-6.738281-6.738281c.003906-3.71875 3.019531-6.734375 6.738281-6.738281zm-21.230468 42.460937c.792968 0 1.582031.144531 2.324218.421875.152344.097656.308594.203125.472656.300782.300782.164062.613282.300781.9375.410156 2.773438 1.855468 3.773438 5.460937 2.347657 8.480468-1.425781 3.015626-4.847657 4.53125-8.042969 3.5625-3.191406-.96875-5.195312-4.132812-4.703125-7.433593s3.328125-5.742188 6.664063-5.742188zm-42.460938 21.226563c2.273438 0 4.390625 1.148437 5.632812 3.054687.167969.699219.464844 1.363281.875 1.957031.734376 2.785157-.382812 5.734376-2.785156 7.332032-2.402344 1.59375-5.554687 1.484375-7.835937-.277344-2.285157-1.761719-3.195313-4.78125-2.261719-7.507812.929688-2.730469 3.496094-4.5625 6.382812-4.558594zm0 0"/><path d="m139.976562 280.996094h154.714844c3.3125 0 6-2.6875 6-6s-2.6875-6-6-6h-154.714844c-3.3125 0-6 2.6875-6 6s2.6875 6 6 6zm0 0"/><path d="m139.976562 242.996094h89.625c3.316407 0 6-2.6875 6-6s-2.683593-6-6-6h-89.625c-3.3125 0-6 2.6875-6 6s2.6875 6 6 6zm0 0"/></svg>