<?xml version="1.0"?>
<svg xmlns="http://www.w3.org/2000/svg" id="Layer_1" data-name="Layer 1" viewBox="0 0 512 512" width="512" height="512"><title>Tab Book</title><path d="M400.609,10H111.358A49.259,49.259,0,0,0,62,59.194V452.823A49.26,49.26,0,0,0,111.376,502h300.53a38.346,38.346,0,0,0,27.537-11.5c7.14-7.362,10.557-16.85,10.557-27.028V59.177A49.272,49.272,0,0,0,400.609,10ZM430.9,482.14a26.081,26.081,0,0,1-18.99,7.86H111.394A37.249,37.249,0,0,1,74,452.806V59.212A37.249,37.249,0,0,1,111.376,22H400.591A37.261,37.261,0,0,1,438,59.194V463.555c0,.061.069.039.071.1A25.114,25.114,0,0,1,430.9,482.14Z"/><path d="M407,58a6,6,0,0,0-6-6H112a6,6,0,0,0-6,6V418a6,6,0,0,0,6,6H401a6,6,0,0,0,6-6ZM394,412H118V64H394Z"/><path d="M269.657,450H242.344a6,6,0,0,0,0,12h27.313a6,6,0,0,0,0-12Z"/><path d="M149.391,330.959a30.528,30.528,0,0,0,30.493,30.494l163.888,0a6.2,6.2,0,0,0,6.228-6V312h6.61c3.314,0,6.39-2.221,6.39-5.535v-197.8c0-3.313-3.076-5.669-6.39-5.669H179.883C163.069,103,149,116.349,149,133.163V329.952c0,.108.2.215.2.322C149.2,330.5,149.391,330.73,149.391,330.959ZM338,349.451l-157.888,0a18.813,18.813,0,0,1-18.607-18.727A18.618,18.618,0,0,1,179.884,312H338ZM351,300H202V115h32V246.139a6.216,6.216,0,0,0,9.908,4.773l32.886-25.021,32.862,25.021a6.027,6.027,0,0,0,3.649,1.227,5.378,5.378,0,0,0,2.51-.623A5.864,5.864,0,0,0,319,246.139V115h32ZM307,115V234.024l-26.682-20.449a5.772,5.772,0,0,0-3.558-1.227,6.4,6.4,0,0,0-3.778,1.227L246,234.024V115ZM161,133.163c0-10.2,8.686-18.163,18.883-18.163H190V300H179.884c-6.947,0-12.884,2.8-18.884,6.729Z"/></svg>
