<?xml version="1.0"?>
<svg xmlns="http://www.w3.org/2000/svg" id="Layer_1" data-name="Layer 1" viewBox="0 0 512 512" width="512" height="512"><title>Target Book</title><path d="M256.613,102.873c-84.741,0-153.683,68.78-153.683,153.322s68.942,153.322,153.683,153.322S410.3,340.737,410.3,256.2,341.354,102.873,256.613,102.873Zm0,294.644c-78.125,0-141.683-63.4-141.683-141.322s63.558-141.322,141.683-141.322S398.3,178.27,398.3,256.2,334.737,397.517,256.613,397.517Z"/><path d="M496.514,250h-44C449.373,147,366,63.418,263,60.3v-44.2a6,6,0,1,0-12,0V60.3C147,63.418,63.854,147,60.715,250H15.486a6,6,0,1,0,0,12H60.712C63.82,365,147,448.971,251,452.094v43.812a6,6,0,0,0,12,0V452.094C366,448.971,449.406,365,452.514,262h44a6,6,0,0,0,0-12Zm-239.9,190.2c-101.458,0-184-82.542-184-184s82.542-184,184-184,184,82.542,184,184S358.071,440.2,256.613,440.2Z"/><path d="M280.67,37.405a6,6,0,0,0,5.123,6.764A214.121,214.121,0,0,1,468.64,227.02a6,6,0,0,0,5.935,5.181,6.108,6.108,0,0,0,.828-.057,6,6,0,0,0,5.123-6.764,226.121,226.121,0,0,0-193.092-193.1A6,6,0,0,0,280.67,37.405Z"/><path d="M225.793,480.109a6.119,6.119,0,0,0,.828.057,6,6,0,0,0,.813-11.945A214.121,214.121,0,0,1,44.586,285.38,6,6,0,1,0,32.7,287.021,226.124,226.124,0,0,0,225.793,480.109Z"/><path d="M37.822,232.144a6.13,6.13,0,0,0,.828.057,6,6,0,0,0,5.936-5.18A214.122,214.122,0,0,1,227.434,44.174a6,6,0,0,0-1.641-11.888A226.124,226.124,0,0,0,32.7,225.38,6,6,0,0,0,37.822,232.144Z"/><path d="M475.4,280.256a6,6,0,0,0-6.763,5.124A214.122,214.122,0,0,1,285.793,468.226a6,6,0,0,0,.812,11.944,6.131,6.131,0,0,0,.829-.056A226.123,226.123,0,0,0,480.526,287.021,6,6,0,0,0,475.4,280.256Z"/><path d="M330.983,158H199.271A24.329,24.329,0,0,0,175,182.293V328.957c0,.088.01.177.014.265,0,.162,0,.342,0,.5A24.3,24.3,0,0,0,199.272,354H321.245A5.83,5.83,0,0,0,327,347.961V317h3.983c3.314,0,6.017-2.234,6.017-5.547V164.039A6.048,6.048,0,0,0,330.983,158ZM250,170h43v84.378l-17.69-13.37a6.365,6.365,0,0,0-7.516,0L250,254.378Zm-63,12.293A12.316,12.316,0,0,1,199.271,170H206V305h-6.728c-4.467,0-8.272,1.667-12.272,3.783ZM315,342H199.272a12.5,12.5,0,0,1,0-25H315Zm10-37H218V170h20v96.493a6.206,6.206,0,0,0,9.9,4.772l23.593-17.942,23.569,17.942a6.032,6.032,0,0,0,3.649,1.228,6.628,6.628,0,0,0,2.81-.624A6.139,6.139,0,0,0,305,266.493V170h20Z"/></svg>
