<?xml version="1.0" encoding="iso-8859-1"?>
<!-- Generator: Adobe Illustrator 19.0.0, SVG Export Plug-In . SVG Version: 6.00 Build 0)  -->
<svg version="1.1" id="Capa_1" xmlns="http://www.w3.org/2000/svg" xmlns:xlink="http://www.w3.org/1999/xlink" x="0px" y="0px"
	 viewBox="0 0 512 512" style="enable-background:new 0 0 512 512;" xml:space="preserve">
<g>
	<g>
		<path d="M446.638,291.346v0.55c0,65.77-53.509,119.28-119.285,119.28h-137.26c-65.776,0-119.285-53.509-119.285-119.28v-0.55
			H38.128v0.55c0,83.794,68.172,151.961,151.966,151.961h137.26c83.794,0,151.966-68.167,151.966-151.961v-0.55H446.638z"/>
	</g>
</g>
<g>
	<g>
		<path d="M495.66,209.644H16.34c-9.025,0-16.34,7.315-16.34,16.34v65.362c0,9.025,7.315,16.34,16.34,16.34H495.66
			c9.025,0,16.34-7.315,16.34-16.34v-65.362C512,216.959,504.685,209.644,495.66,209.644z M479.319,275.005H32.681v-32.681h446.638
			V275.005z"/>
	</g>
</g>
<g>
	<g>
		<path d="M87.149,15.743c-30.034,0-54.468,24.434-54.468,54.468v161.226h32.681V70.211c0-12.217,9.57-21.787,21.787-21.787
			c12.217,0,21.787,9.57,21.787,21.787h32.681C141.617,40.177,117.183,15.743,87.149,15.743z"/>
	</g>
</g>
<g>
	<g>
		
			<rect x="116.595" y="439.784" transform="matrix(0.7038 -0.7104 0.7104 0.7038 -277.5731 246.5269)" width="80.498" height="32.681"/>
	</g>
</g>
<g>
	<g>
		
			<rect x="344.258" y="415.912" transform="matrix(0.7105 -0.7037 0.7037 0.7105 -216.6064 385.812)" width="32.681" height="80.499"/>
	</g>
</g>
<g>
</g>
<g>
</g>
<g>
</g>
<g>
</g>
<g>
</g>
<g>
</g>
<g>
</g>
<g>
</g>
<g>
</g>
<g>
</g>
<g>
</g>
<g>
</g>
<g>
</g>
<g>
</g>
<g>
</g>
</svg>
