<svg height="491pt" viewBox="0 -33 491.99774 491" width="491pt" xmlns="http://www.w3.org/2000/svg"><path d="m256.992188 347.71875c-2.339844-2.34375-6.140626-2.34375-8.484376 0l-8.222656 8.222656-8.222656-8.222656c-2.34375-2.34375-6.140625-2.34375-8.484375 0s-2.34375 6.140625 0 8.484375l8.222656 8.222656-8.222656 8.226563c-1.535156 1.511718-2.144531 3.730468-1.589844 5.8125.550781 2.082031 2.179688 3.710937 4.261719 4.261718 2.082031.550782 4.300781-.054687 5.8125-1.589843l8.222656-8.222657 8.222656 8.222657c2.347657 2.308593 6.121094 2.292969 8.453126-.035157 2.328124-2.328124 2.34375-6.101562.035156-8.449218l-8.222656-8.226563 8.222656-8.222656c2.339844-2.34375 2.339844-6.140625-.003906-8.484375zm0 0"/><path d="m77.609375 347.632812-22.601563 20.699219-10.207031-11.066406c-2.246093-2.4375-6.042969-2.59375-8.480469-.347656-2.433593 2.25-2.589843 6.042969-.34375 8.480469l14.265626 15.464843c2.238281 2.433594 6.023437 2.59375 8.460937.359375l27.007813-24.738281c2.445312-2.238281 2.609374-6.035156.371093-8.476563-2.238281-2.445312-6.03125-2.613281-8.476562-.375zm0 0"/><path d="m430.972656 303.195312c-29.335937.101563-54.488281 20.96875-60.007812 49.78125h-70.671875c-5.210938-28-30.125-49.988281-60.007813-49.988281-29.878906 0-54.796875 21.988281-60.007812 49.988281h-59.242188c-5.910156-31.707031-35.46875-53.339843-67.476562-49.390624-32.011719 3.953124-55.421875 32.125-53.445313 64.316406 1.980469 32.191406 28.660157 57.289062 60.914063 57.292968 33.453125.164063 60.734375-26.765624 61-60.21875h57.253906c.523438 33.316407 27.679688 60.054688 61.003906 60.054688 33.320313 0 60.480469-26.738281 61-60.054688h68.683594c.425781 33.597657 27.929688 60.53125 61.527344 60.246094 33.597656-.28125 60.644531-27.675781 60.5-61.277344-.144532-33.597656-27.425782-60.757812-61.027344-60.75zm-369.945312 110.257813c-27.078125 0-49.027344-21.949219-49.027344-49.023437 0-27.078126 21.949219-49.027344 49.027344-49.027344 27.074218 0 49.027344 21.949218 49.027344 49.027344-.03125 27.0625-21.964844 48.996093-49.027344 49.023437zm179.257812 0c-27.074218.003906-49.027344-21.949219-49.027344-49.023437 0-27.078126 21.949219-49.027344 49.027344-49.027344s49.027344 21.949218 49.027344 49.027344c-.03125 27.0625-21.960938 48.992187-49.027344 49.023437zm190.6875 0c-27.074218.003906-49.027344-21.949219-49.027344-49.023437 0-27.078126 21.949219-49.027344 49.027344-49.027344s49.027344 21.949218 49.027344 49.027344c-.03125 27.0625-21.960938 48.992187-49.027344 49.023437zm0 0"/><path d="m447.554688 347.632812-22.597657 20.699219-10.207031-11.066406c-2.246094-2.4375-6.042969-2.589844-8.476562-.34375-2.4375 2.246094-2.589844 6.039063-.34375 8.476563l14.261718 15.464843c2.238282 2.433594 6.023438 2.59375 8.460938.359375l27.007812-24.738281c2.445313-2.238281 2.613282-6.035156.375-8.476563-2.238281-2.445312-6.035156-2.613281-8.480468-.375zm0 0"/><path d="m112.347656 134.152344c0 73.699218 59.957032 133.652344 133.652344 133.652344s133.652344-59.957032 133.652344-133.652344c0-73.695313-59.953125-133.652344-133.652344-133.652344s-133.652344 59.957031-133.652344 133.652344zm63.476563 42.878906c-.890625-8.417969 1.828125-16.820312 7.484375-23.121094 5.652344-6.300781 13.710937-9.910156 22.179687-9.933594h3.582031l9.460938 29.101563c.726562 2.238281 2.691406 3.847656 5.03125 4.121094.457031.050781.917969.050781 1.371094 0l-7.84375 73.039062c-.027344.71875.074218 1.4375.300781 2.121094-14.902344-3.566406-28.960937-10.011719-41.390625-18.972656v-55.75c0-.203125-.15625-.402344-.175781-.605469zm60.230469 78.363281-6.726563-6.726562 9.042969-84.210938 7.203125-8.042969 8.113281 8.628907 8.984375 83.625-6.730469 6.726562c-3.277344.269531-6.59375.40625-9.941406.410157-3.351562.007812-6.664062-.128907-9.945312-.410157zm80.121093-78.363281c-.019531.199219-.175781.402344-.175781.601562v55.75c-12.429688 8.960938-26.492188 15.410157-41.394531 18.976563.203125-.6875.28125-1.410156.230469-2.125l-7.804688-73.035156c2.789062.355469 5.449219-1.296875 6.371094-3.957031l10.515625-29.265626h2.605469c8.464843.027344 16.523437 3.636719 22.175781 9.9375 5.652343 6.300782 8.367187 14.699219 7.476562 23.117188zm51.332031-42.878906c-.125 34.039062-14.441406 66.480468-39.507812 89.507812v-45.730468c1.097656-11.6875-2.707031-23.308594-10.5-32.085938-7.894531-8.800781-19.152344-13.839844-30.976562-13.867188h-6.824219c-2.535157.015626-4.792969 1.617188-5.644531 4.007813l-8.621094 24.007813-15.597656-16.574219c-1.15625-1.21875-2.765626-1.898438-4.441407-1.886719-1.683593.019531-3.277343.746094-4.402343 2l-14.277344 15.957031-7.582032-23.332031c-.800781-2.476562-3.101562-4.160156-5.703124-4.179688h-7.941407c-11.828125.027344-23.089843 5.066407-30.988281 13.867188-7.792969 8.777344-11.597656 20.398438-10.5 32.085938v45.730468c-25.0625-23.027344-39.382812-55.46875-39.503906-89.507812 0-67.074219 54.425781-121.652344 121.503906-121.652344 67.082031 0 121.507812 54.578125 121.507812 121.652344zm0 0"/><path d="m285 79.394531c0-22.324219-18.09375-40.417969-40.417969-40.417969h-.164062c-22.320313 0-40.417969 18.09375-40.417969 40.417969v14.167969c0 22.320312 18.097656 40.414062 40.417969 40.414062h.164062c22.324219 0 40.417969-18.09375 40.417969-40.414062zm-12 14.167969c0 15.691406-12.722656 28.414062-28.417969 28.414062h-.164062c-15.695313 0-28.417969-12.722656-28.417969-28.414062v-14.167969c0-15.695312 12.722656-28.417969 28.417969-28.417969h.164062c15.695313 0 28.417969 12.722657 28.417969 28.417969zm0 0"/></svg>