<?xml version="1.0" encoding="iso-8859-1"?>
<!-- Generator: Adobe Illustrator 19.0.0, SVG Export Plug-In . SVG Version: 6.00 Build 0)  -->
<svg version="1.1" id="Capa_1" xmlns="http://www.w3.org/2000/svg" xmlns:xlink="http://www.w3.org/1999/xlink" x="0px" y="0px"
	 viewBox="0 0 512 512" style="enable-background:new 0 0 512 512;" xml:space="preserve">
<g>
	<g>
		<path d="M447.88,204.031l-39.535,206.197H103.654L64.125,204.031l-33.599,6.443l42.192,220.074
			c1.545,8.068,8.592,13.889,16.797,13.889h332.971c8.205,0,15.252-5.827,16.802-13.889l42.192-220.074L447.88,204.031z"/>
	</g>
</g>
<g>
	<g>
		<path d="M494.895,190.148H17.105C7.657,190.148,0,197.805,0,207.253c0,9.448,7.657,17.105,17.105,17.105h477.791
			c9.447,0,17.105-7.657,17.105-17.105C512,197.805,504.343,190.148,494.895,190.148z"/>
	</g>
</g>
<g>
	<g>
		<path d="M448.781,197.081L358.132,74.498c-5.627-7.6-16.324-9.197-23.924-3.581c-7.594,5.622-9.197,16.329-3.581,23.924
			l90.649,122.584c3.358,4.538,8.524,6.933,13.764,6.933c3.535,0,7.098-1.089,10.16-3.353
			C452.795,215.383,454.397,204.676,448.781,197.081z"/>
	</g>
</g>
<g>
	<g>
		<path d="M185.249,70.946c-7.583-5.639-18.291-4.06-23.935,3.512L70.089,197.041c-5.639,7.577-4.065,18.296,3.512,23.935
			c3.073,2.281,6.648,3.381,10.2,3.381c5.223,0,10.377-2.383,13.735-6.893l91.225-122.584
			C194.4,87.303,192.827,76.584,185.249,70.946z"/>
	</g>
</g>
<g>
</g>
<g>
</g>
<g>
</g>
<g>
</g>
<g>
</g>
<g>
</g>
<g>
</g>
<g>
</g>
<g>
</g>
<g>
</g>
<g>
</g>
<g>
</g>
<g>
</g>
<g>
</g>
<g>
</g>
</svg>
