<svg id="Layer_1" height="512" viewBox="0 0 512 512" width="512" xmlns="http://www.w3.org/2000/svg" data-name="Layer 1"><path d="m439.521 109.453-2.1.211-1.341-13.285a6 6 0 0 0 -6.572-5.367l-96.536 9.741a6 6 0 0 0 -5.368 6.572l1.608 15.927-163.348 16.484a6 6 0 0 0 -5.367 6.573l1.96 19.423-146.831 14.817a6 6 0 0 0 -5.367 6.572l4.495 44.551a6 6 0 0 0 5.97 5.4 5.792 5.792 0 0 0 .6-.03l146.831-14.816 1.96 19.425a6 6 0 0 0 5.97 5.4q.3 0 .6-.03l66.678-6.729a46.427 46.427 0 0 0 38.637 51.545v40.277l-78.14 78.676a6 6 0 0 0 8.514 8.457l69.626-70.103v65.856a6 6 0 0 0 12 0v-68.954l72.7 73.2a6 6 0 0 0 8.514-8.457l-81.214-81.772v-36.779a46.489 46.489 0 0 0 39.649-61.061l6.392-.645 1.607 15.929a6 6 0 0 0 5.97 5.4 5.811 5.811 0 0 0 .6-.03l96.537-9.741a6 6 0 0 0 5.367-6.572l-1.341-13.286 2.1-.211a56.568 56.568 0 0 0 -11.359-112.565zm-416.721 82.433 50.175-5.063 3.29 32.611-50.174 5.066zm144.151 18.4-78.746 7.944-3.29-32.612 78.747-7.946 1.893 18.762zm123.3 70.155a5.973 5.973 0 0 0 -4.086-.149 34.6 34.6 0 1 1 4.086.149zm37.684-60.746a46.5 46.5 0 0 0 -81.278 8.2l-65.2 6.58-2.406-23.847-4.051-40.128-1.96-19.422 157.381-15.881 8.415 83.4zm25.054 19.593-12.834-127.2 84.6-8.536 1.321 13.092c0 .065 0 .129.01.194l10.153 100.625c0 .036.017.068.021.1l1.33 13.181zm96.69-29.208-2.1.212-8.948-88.692 2.1-.211a44.568 44.568 0 1 1 8.949 88.685z"/><path d="m289.538 222.564a23.369 23.369 0 1 0 23.362 23.369 23.395 23.395 0 0 0 -23.362-23.369zm0 34.737a11.369 11.369 0 1 1 11.362-11.368 11.381 11.381 0 0 1 -11.362 11.367z"/></svg>