<svg height="488pt" viewBox="-5 0 488 488.54508" width="488pt" xmlns="http://www.w3.org/2000/svg"><path d="m376.59375 250.128906c-26.378906-4.0625-53.363281.777344-76.683594 13.761719-13.636718-9.507813-29.859375-14.597656-46.480468-14.585937h-46.800782c-1.921875.050781-3.707031.996093-4.828125 2.558593l-34.621093 46.921875-33.207032-46.859375c-1.117187-1.609375-2.933594-2.582031-4.890625-2.621093h-46.773437c-23.203125.0625-45.308594 9.914062-60.871094 27.125-15.367188 17.210937-22.90625 40.023437-20.824219 63v70.894531c.0625 3.339843 2.800781 6.003906 6.136719 5.980469h241.308594c3.621094 8.203124 8.121094 15.992187 13.414062 23.230468 18.894532 25.792969 47.328125 42.949219 78.957032 47.636719 6.007812.910156 12.078124 1.371094 18.15625 1.375 58.429687 0 109.847656-42.601563 118.894531-101.871094 4.757812-31.492187-3.207031-63.578125-22.128907-89.191406-18.925781-25.613281-47.257812-42.652344-78.757812-47.355469zm-166.933594 11.175782h10.742188l4.171875 64.367187-48.054688-19.453125zm-94.363281 0h10.6875l31.835937 44.957031-46.949218 19.257812zm-102.648437 77.226562c-1.984376-19.710938 4.453124-39.339844 17.71875-54.046875 13.269531-14.710937 32.132812-23.128906 51.941406-23.179687h20.960937l-5.03125 73.089843c-.144531 2.085938.789063 4.101563 2.476563 5.339844 1.675781 1.222656 3.867187 1.492187 5.792968.710937l54.101563-22.230468v86.089844h-148v-65.167969c.023437-.203125.039063-.402344.039063-.605469zm159.960937 65.773438v-86.539063l56.324219 22.726563c1.910156.773437 4.085937.511718 5.761718-.699219 1.675782-1.257813 2.605469-3.277344 2.46875-5.371094l-4.738281-73.117187h21c12.414063 0 24.601563 3.335937 35.285157 9.652343-42.335938 29.984375-60.554688 83.816407-45.136719 133.347657zm293.007813-19.441407c-8.140626 53.347657-54.429688 91.6875-107.035157 91.683594-5.476562 0-10.941406-.414063-16.355469-1.234375-28.347656-4.230469-53.851562-19.558594-70.886718-42.605469s-24.207032-51.925781-19.929688-80.265625c8.140625-53.34375 54.429688-91.683594 107.039063-91.683594 5.472656 0 10.9375.414063 16.351562 1.234376 28.347657 4.230468 53.851563 19.554687 70.886719 42.605468 17.039062 23.046875 24.207031 51.925782 19.933594 80.265625zm0 0"/><path d="m420.039062 364.304688h-57.429687v-57.375c.019531-1.585938-.597656-3.109376-1.707031-4.234376-1.113282-1.128906-2.628906-1.761718-4.210938-1.765624-18.390625-.058594-36.039062 7.25-49 20.296874-22.171875 22.1875-26.683594 56.5-10.996094 83.664063 15.683594 27.160156 47.65625 40.40625 77.953126 32.292969 30.300781-8.113282 51.375-35.566406 51.386718-66.929688 0-1.585937-.636718-3.105468-1.761718-4.222656s-2.652344-1.738281-4.234376-1.726562zm-22.746093 46.464843c-16.402344 16.34375-41.03125 21.214844-62.421875 12.339844-21.390625-8.871094-35.34375-29.746094-35.363282-52.902344-.007812-15.179687 5.980469-29.746093 16.664063-40.527343 9.234375-9.292969 21.402344-15.105469 34.4375-16.445313v56.957031c.070313 3.367188 2.796875 6.074219 6.167969 6.113282h56.945312c-1.382812 13.027343-7.179687 25.1875-16.429687 34.464843zm0 0"/><path d="m429.214844 298.074219c-12.945313-12.929688-30.488282-20.203125-48.785156-20.222657-1.574219.007813-3.078126.648438-4.171876 1.777344s-1.6875 2.652344-1.648437 4.222656v63.261719c0 3.3125 2.328125 6.191407 5.640625 6.191407h63.257812c3.335938-.042969 6.011719-2.765626 6-6.097657-.015624-18.367187-7.28125-35.980469-20.21875-49.015625-.023437-.019531-.046874-.09375-.074218-.117187zm-42.605469 23.394531 23.261719-23.4375c2.28125 1.351562 4.472656 2.855469 6.554687 4.5l-29.816406 29.898438zm38.054687-10.386719c1.648438 2.0625 3.15625 4.230469 4.519532 6.488281l-23.6875 23.734376h-10.960938zm-26.25-18.386719-11.804687 11.804688v-14.332031c4.011719.421875 7.96875 1.269531 11.804687 2.527343zm24.050782 48.609376 12.101562-12.097657c1.300782 3.929688 2.183594 7.984375 2.632813 12.097657zm0 0"/><path d="m171.636719 1.945312-40.058594 10.359376h-13.789063c-16.378906 0-30.179687 13.441406-30.179687 29.816406v36.453125l1.605469 112.824219c.074218 2.015624 1.132812 3.867187 2.835937 4.949218l72.460938 47.390625c1.996093 1.296875 4.566406 1.308594 6.574219.027344l73.773437-47.390625c1.738281-1.117188 2.777344-3.046875 2.761719-5.109375l-1.363282-132.789063c0-1.03125-.027343-2.070312-.078124-3.085937-.910157-17.382813-9.621094-33.429687-23.707032-43.660156-14.597656-10.769531-33.28125-14.363281-50.835937-9.785157zm62.671875 61.847657.6875 66.699219-8.621094 6.457031c-2.945312 2.199219-6.527344 3.375-10.203125 3.359375h-14.542969c-4.734375.019531-9.257812-1.949219-12.46875-5.421875-5.484375-5.949219-13.210937-9.335938-21.304687-9.335938-8.09375-.003906-15.820313 3.378907-21.308594 9.328125-3.210937 3.472656-7.730469 5.441406-12.457031 5.425782h-14.550782c-3.675781.019531-7.253906-1.160157-10.199218-3.359376l-8.617188-6.488281-.382812-31.351562c5.769531-25.445313 24.371094-23.882813 56.746094-18.953125 26.480468 4.03125 58.378906 8.894531 77.222656-16.359375zm-66.421875 167.773437-66.46875-43.507812-.511719-42.378906 1.191406.835937c5.03125 3.769531 11.152344 5.800781 17.441406 5.789063h14.550782c8.09375.015624 15.824218-3.363282 21.3125-9.3125 3.210937-3.472657 7.726562-5.445313 12.457031-5.445313 4.730469-.003906 9.25 1.96875 12.464844 5.4375 5.484375 5.949219 13.210937 9.332031 21.300781 9.320313h14.546875c6.289063.011718 12.410156-2.019532 17.445313-5.789063l1.53125-1.125.4375 42.664063zm63.8125-188.238281c-12.722657 34.121094-42.164063 29.679687-73.046875 24.96875-21.222656-3.230469-44.042969-6.78125-59.042969 6.382813v-32.558594c0-9.757813 8.421875-17.816406 18.179687-17.816406h14.554688c.507812.023437 1.015625-.023438 1.511719-.132813l40.800781-10.582031c14.058594-3.671875 29.023438-.792969 40.71875 7.835937 7.527344 5.484375 13.21875 13.121094 16.324219 21.902344zm0 0"/><path d="m181.609375 175.304688h-28c-3.3125 0-6 2.6875-6 6 0 3.316406 2.6875 6 6 6h28c3.3125 0 6-2.683594 6-6 0-3.3125-2.6875-6-6-6zm0 0"/></svg>