<svg height="479pt" viewBox="-74 0 479 479.38455" width="479pt" xmlns="http://www.w3.org/2000/svg"><path d="m139.722656 155.191406c11.425782 0 20.691406-9.261718 20.691406-20.691406.003907-11.425781-9.261718-20.691406-20.6875-20.695312-11.429687-.003907-20.695312 9.257812-20.699218 20.6875.007812 11.425781 9.265625 20.6875 20.695312 20.699218zm0-29.386718c4.800782 0 8.691406 3.890624 8.691406 8.695312 0 4.800781-3.890624 8.691406-8.691406 8.691406-4.804687 0-8.695312-3.890625-8.695312-8.691406s3.894531-8.695312 8.695312-8.699219zm0 0"/><path d="m190.886719 174.636719c-11.429688 0-20.695313 9.265625-20.695313 20.691406 0 11.429687 9.265625 20.695313 20.695313 20.695313 11.425781 0 20.691406-9.265626 20.691406-20.695313-.011719-11.421875-9.269531-20.679687-20.691406-20.691406zm0 29.386719c-4.804688 0-8.695313-3.890626-8.695313-8.695313 0-4.800781 3.890625-8.691406 8.695313-8.691406 4.800781 0 8.691406 3.890625 8.691406 8.691406-.003906 4.800781-3.894531 8.691406-8.691406 8.695313zm0 0"/><path d="m122.589844 206.445312c2.34375 2.339844 6.144531 2.339844 8.484375 0l76.941406-76.941406c2.308594-2.347656 2.292969-6.121094-.035156-8.449218-2.328125-2.332032-6.101563-2.347657-8.449219-.035157l-76.941406 76.9375c-2.34375 2.34375-2.34375 6.144531 0 8.488281zm0 0"/><path d="m16.578125 136.558594-6.183594 4.632812c-6.417969 4.808594-10.195312 12.355469-10.203125 20.371094-.003906 8.019531 3.765625 15.570312 10.175782 20.386719l6.238281 4.683593c5.28125 3.945313 6.917969 11.144532 3.863281 16.984376l-3.539062 6.820312c-3.703126 7.125-3.828126 15.582031-.335938 22.816406s10.1875 12.394532 18.074219 13.929688l7.457031 1.453125c6.496094 1.242187 11.121094 7.035156 10.894531 13.644531l-.242187 7.671875c-.335938 8.019531 3.171875 15.714844 9.449218 20.71875 1.332032 1.058594 3.078126 1.964844 4.078126 2.726563v179.984374c.0625 2.191407 1.28125 4.183594 3.203124 5.238282 1.921876 1.050781 4.257813 1.003906 6.136719-.121094l89.625-54.921875 89.605469 54.921875c.949219.578125 2.039062.886719 3.148438.882812 1.070312.003907 2.125-.261718 3.070312-.761718 1.929688-1.046875 3.152344-3.042969 3.210938-5.238282v-179.984374c1-.761719 2.746093-1.667969 4.074218-2.726563 6.292969-4.996094 9.828125-12.691406 9.515625-20.71875l-.273437-7.671875c-.234375-6.609375 4.386718-12.402344 10.882812-13.644531l7.449219-1.453125c7.882813-1.535156 14.578125-6.699219 18.070313-13.929688 3.488281-7.234375 3.363281-15.691406-.339844-22.816406l-3.542969-6.816406c-3.054687-5.84375-1.417969-13.042969 3.867187-16.988282l6.234376-4.683593c6.414062-4.816407 10.183593-12.367188 10.175781-20.386719-.003907-8.015625-3.785157-15.5625-10.199219-20.371094l-6.1875-4.632812c-5.296875-3.941406-6.941406-11.148438-3.878906-17l3.53125-6.800782c3.703125-7.125 3.828125-15.582031.335937-22.816406-3.492187-7.234375-10.191406-12.394531-18.074219-13.929687l-7.460937-1.453125c-6.496094-1.242188-11.121094-7.035156-10.890625-13.644532l.238281-7.671874c.25-8.03125-3.300781-15.710938-9.582031-20.714844-6.285156-5.007813-14.5625-6.761719-22.332031-4.726563l-7.402344 1.941407c-6.386719 1.695312-13.0625-1.511719-15.726563-7.566407l-3.128906-7.042969c-3.261718-7.34375-9.792968-12.714843-17.625-14.496093-7.832031-1.785157-16.046875.230469-22.164062 5.4375l-5.828125 4.960937c-5.027344 4.304688-12.4375 4.304688-17.464844 0l-5.828125-4.960937c-6.117188-5.207031-14.332031-7.222657-22.164062-5.4375-7.832032 1.78125-14.363282 7.152343-17.625 14.496093l-3.128907 7.042969c-2.664062 6.050781-9.335937 9.261719-15.726562 7.566407l-7.402344-1.941407c-7.769531-2.03125-16.046875-.28125-22.328125 4.726563-6.285156 5.007812-9.835938 12.683594-9.585938 20.714844l.242188 7.671874c.226562 6.609376-4.398438 12.402344-10.894531 13.644532l-7.457031 1.453125c-7.882813 1.535156-14.582032 6.695312-18.074219 13.929687-3.492188 7.234375-3.367188 15.691406.335937 22.816406l3.53125 6.800782c3.058594 5.851562 1.410156 13.0625-3.894531 17zm235.726563 326.109375-83.730469-51.246094c-1.996094-1.179687-4.476563-1.179687-6.476563 0l-83.792968 51.246094v-166.4375c2.109374-.035157 4.207031-.316407 6.253906-.839844l7.46875-1.9375c6.398437-1.695313 13.082031 1.511719 15.761718 7.5625l3.148438 7.046875c3.234375 7.367188 9.78125 12.75 17.632812 14.5 1.886719.433594 3.8125.648438 5.746094.652344 6.023438-.003906 11.851563-2.164063 16.425782-6.089844l5.828124-4.957031c5.023438-4.308594 12.4375-4.308594 17.464844 0l5.828125 4.957031c6.117188 5.207031 14.332031 7.222656 22.164063 5.4375 7.832031-1.78125 14.363281-7.15625 17.625-14.496094l3.128906-7.042968c2.664062-6.050782 9.339844-9.261719 15.726562-7.566407l7.542969 1.941407c2.042969.519531 4.140625.800781 6.253907.839843zm-228.53125-316.5c10.011718-7.453125 13.121093-21.074219 7.335937-32.132813l-3.53125-6.796875c-1.960937-3.773437-2.023437-8.246093-.179687-12.070312 1.847656-3.824219 5.390624-6.554688 9.5625-7.367188l7.457031-1.453125c12.285156-2.347656 21.027343-13.300781 20.59375-25.800781l-.238281-7.671875c-.136719-4.246094 1.742187-8.308594 5.066406-10.957031 3.324218-2.652344 7.703125-3.578125 11.8125-2.5l7.402344 1.9375c12.078124 3.203125 24.691406-2.863281 29.730468-14.300781l3.132813-7.042969c1.722656-3.882813 5.179687-6.726563 9.320312-7.667969 4.144531-.945312 8.488281.121094 11.726563 2.875l5.824218 4.960938c9.503907 8.140624 23.519532 8.140624 33.019532 0l5.828125-4.960938c3.234375-2.753906 7.582031-3.820312 11.722656-2.875 4.144531.941406 7.597656 3.785156 9.324219 7.667969l3.128906 7.042969c5.039062 11.441406 17.652344 17.507812 29.734375 14.300781l7.398437-1.9375c4.113282-1.078125 8.492188-.15625 11.816407 2.496093 3.324219 2.648438 5.207031 6.710938 5.070312 10.957032l-.238281 7.671875c-.429688 12.503906 8.3125 23.453125 20.601562 25.800781l7.457032 1.453125c4.167968.8125 7.710937 3.542969 9.558594 7.367187 1.847656 3.828126 1.78125 8.300782-.175782 12.070313l-3.535156 6.800781c-5.78125 11.054688-2.671875 24.679688 7.335938 32.132813l6.1875 4.632812c3.394531 2.542969 5.390624 6.535157 5.394531 10.773438.003906 4.242187-1.992188 8.234375-5.382813 10.785156l-6.234375 4.683594c-9.984375 7.460937-13.082031 21.0625-7.308593 32.109375l3.542968 6.820312c1.957032 3.769532 2.023438 8.242188.175782 12.066406-1.847657 3.828126-5.390626 6.558594-9.558594 7.367188l-7.457032 1.453125c-12.289062 2.347656-21.035156 13.296875-20.601562 25.800781l.238281 7.671875c.132813 4.246094-1.746093 8.308594-5.066406 10.957031-3.324219 2.648438-7.703125 3.574219-11.8125 2.496094l-7.398437-1.9375c-12.082032-3.207031-24.699219 2.863282-29.734376 14.300782l-3.132812 7.046874c-1.722656 3.882813-5.179688 6.722657-9.320312 7.667969-4.144532.941407-8.488282-.125-11.722657-2.878906l-5.828125-4.957031c-9.503906-8.140625-23.519531-8.140625-33.019531 0l-5.828125 4.957031c-3.234375 2.753906-7.578125 3.820313-11.722656 2.878906-4.144532-.945312-7.597656-3.785156-9.320313-7.667969l-3.132812-7.046874c-4.050781-9.203126-13.15625-15.144532-23.210938-15.144532-2.199219 0-4.394531.285156-6.523437.84375l-7.398438 1.9375c-4.113281 1.078125-8.488281.152344-11.8125-2.496094-3.324218-2.648437-5.203125-6.710937-5.070312-10.957031l.242187-7.671875c.429688-12.5-8.308593-23.453125-20.59375-25.800781l-7.460937-1.453125c-4.167969-.8125-7.710938-3.542969-9.558594-7.367188-1.847656-3.824218-1.78125-8.296874.175781-12.070312l3.542969-6.816406c5.773438-11.046875 2.675781-24.652344-7.308594-32.113282l-6.238281-4.683593c-3.390625-2.546875-5.382813-6.539063-5.378906-10.78125 0-4.242188 2-8.234375 5.394531-10.777344zm0 0"/><path d="m165.304688 264.121094c56.617187 0 102.519531-45.898438 102.519531-102.519532 0-56.621093-45.902344-102.523437-102.519531-102.523437-56.621094 0-102.523438 45.902344-102.523438 102.523437.066406 56.59375 45.925781 102.457032 102.523438 102.519532zm0-193.042969c49.992187 0 90.519531 40.527344 90.519531 90.523437 0 49.992188-40.527344 90.519532-90.519531 90.519532-49.996094 0-90.523438-40.527344-90.523438-90.519532.058594-49.972656 40.550781-90.464843 90.523438-90.523437zm0 0"/></svg>