<svg height="495pt" viewBox="0 0 495 495.99746" width="495pt" xmlns="http://www.w3.org/2000/svg"><path d="m475.976562 242h-52.925781c-3.3125 0-6 2.6875-6 6s2.6875 6 6 6h52.925781l-18.679687 18.613281c-1.535156 1.507813-2.148437 3.726563-1.597656 5.8125.546875 2.082031 2.171875 3.710938 4.253906 4.269531 2.082031.554688 4.300781-.046874 5.816406-1.582031l28.960938-28.863281c1.128906-1.125 1.765625-2.65625 1.765625-4.25s-.636719-3.125-1.765625-4.25l-28.960938-28.863281c-2.355469-2.308594-6.125-2.285157-8.453125.046875-2.324218 2.335937-2.332031 6.109375-.019531 8.453125zm0 0"/><path d="m248.5 416.550781c-3.316406 0-6 2.6875-6 6v52.929688l-18.617188-18.679688c-2.335937-2.347656-6.136718-2.355469-8.484374-.015625-2.347657 2.339844-2.351563 6.136719-.015626 8.484375l28.867188 28.964844c1.125 1.128906 2.652344 1.761719 4.25 1.761719 1.59375 0 3.121094-.632813 4.25-1.761719l28.863281-28.964844c2.339844-2.347656 2.332031-6.144531-.015625-8.484375s-6.144531-2.332031-8.484375.015625l-18.613281 18.679688v-52.929688c0-3.3125-2.6875-6-6-6zm0 0"/><path d="m223.882812 39.199219 18.617188-18.679688v52.929688c0 3.3125 2.683594 6 6 6 3.3125 0 6-2.6875 6-6v-52.929688l18.613281 18.679688c2.339844 2.347656 6.136719 2.355469 8.484375.015625s2.355469-6.140625.015625-8.484375l-28.863281-28.964844c-1.128906-1.128906-2.65625-1.765625-4.25-1.765625-1.597656 0-3.125.636719-4.25 1.765625l-28.867188 28.960937c-2.335937 2.347657-2.332031 6.144532.015626 8.484376 2.347656 2.339843 6.148437 2.335937 8.484374-.011719zm0 0"/><path d="m31.226562 281.113281c1.511719 1.535157 3.734376 2.136719 5.816407 1.582031 2.082031-.558593 3.707031-2.1875 4.253906-4.269531.546875-2.085937-.0625-4.304687-1.601563-5.8125l-18.675781-18.613281h52.925781c3.3125 0 6-2.6875 6-6s-2.6875-6-6-6h-52.925781l18.679688-18.613281c2.316406-2.34375 2.304687-6.117188-.019531-8.453125-2.324219-2.332032-6.097657-2.355469-8.453126-.046875l-28.964843 28.863281c-1.128907 1.125-1.761719 2.65625-1.761719 4.25s.632812 3.125 1.761719 4.25zm0 0"/><path d="m378.726562 413c-3.3125.011719-5.992187 2.699219-6 6.015625 0 1.585937.632813 3.105469 1.757813 4.226563 1.125 1.117187 2.648437 1.742187 4.234375 1.734374l40.890625.023438h.007813c1.585937.027344 3.117187-.585938 4.246093-1.699219 1.128907-1.113281 1.761719-2.636719 1.753907-4.222656l-.066407-40.988281c0-3.328125-2.671875-6.042969-6-6.089844h-.011719c-3.335937.058594-6.003906 2.789062-5.988281 6.125l.042969 26.425781-37.425781-37.398437c-2.347657-2.34375-6.152344-2.335938-8.496094.011718-2.339844 2.347657-2.335937 6.152344.011719 8.496094l37.425781 37.398438-26.371094-.058594zm0 0"/><path d="m129.3125 367.183594c-2.34375-2.339844-6.140625-2.339844-8.484375 0l-37.429687 37.425781.046874-26.484375c.011719-3.335938-2.652343-6.0625-5.988281-6.125h-.007812c-3.332031.054688-6.003907 2.773438-6 6.105469l-.070313 40.945312c0 1.585938.632813 3.109375 1.761719 4.226563 1.125 1.117187 2.652344 1.734375 4.238281 1.722656h.007813l40.890625-.011719c2.199218.089844 4.273437-1.035156 5.398437-2.925781 1.125-1.894531 1.121094-4.25-.003906-6.140625-1.128906-1.894531-3.203125-3.011719-5.402344-2.921875h-.011719l-26.371093.070312 37.425781-37.414062c1.125-1.121094 1.757812-2.644531 1.757812-4.234375s-.632812-3.113281-1.757812-4.238281zm0 0"/><path d="m371.925781 130.574219c1.589844 0 3.117188-.632813 4.242188-1.757813l37.429687-37.425781-.042968 26.484375c-.015626 3.335938 2.652343 6.066406 5.988281 6.125h.011719c3.332031-.054688 6-2.773438 6-6.105469l.066406-40.945312c0-1.589844-.632813-3.109375-1.757813-4.226563-1.128906-1.117187-2.65625-1.738281-4.242187-1.722656h-.007813l-40.890625.007812c-2.199218-.085937-4.273437 1.035157-5.398437 2.929688-1.125 1.890625-1.125 4.25.003906 6.140625s3.199219 3.011719 5.398437 2.921875h.011719l26.371094-.070312-37.425781 37.414062c-1.714844 1.710938-2.230469 4.292969-1.300782 6.53125.929688 2.242188 3.117188 3.699219 5.542969 3.699219zm0 0"/><path d="m77.449219 124h.007812c3.335938-.058594 6.003907-2.789062 5.992188-6.125l-.050781-26.429688 37.425781 37.402344c2.351562 2.34375 6.15625 2.335938 8.496093-.015625 2.34375-2.347656 2.339844-6.152343-.011718-8.496093l-37.421875-37.402344 26.371093.066406h.011719c3.3125-.011719 5.996094-2.699219 6-6.015625 0-1.585937-.632812-3.109375-1.757812-4.226563-1.125-1.121093-2.648438-1.746093-4.234375-1.734374l-40.890625-.023438h-.007813c-1.585937-.027344-3.117187.585938-4.246094 1.699219-1.128906 1.113281-1.761718 2.636719-1.753906 4.222656l.070313 40.988281c-.003907 3.328125 2.667969 6.042969 6 6.089844zm0 0"/><path d="m248.5 394.828125c80.960938 0 146.828125-65.867187 146.828125-146.828125s-65.867187-146.832031-146.828125-146.832031c-80.964844 0-146.832031 65.871093-146.832031 146.832031s65.867187 146.828125 146.832031 146.828125zm-84.378906-41.539063c1.839844-18.9375 17.792968-33.359374 36.816406-33.289062h16.238281c2.539063 15.234375 15.722657 26.402344 31.167969 26.402344s28.625-11.167969 31.164062-26.402344h16.550782c19.027344-.070312 34.976562 14.351562 36.816406 33.289062-49.257812 39.664063-119.496094 39.664063-168.753906 0zm52.027344-73.875c-8.675782-8.46875-13.59375-20.0625-13.648438-32.1875v-4.890624c30.023438-5.3125 56.207031-23.519532 71.636719-49.816407 2.40625.753907 4.691406 1.839844 6.792969 3.226563 8.167968 5.53125 12.949218 14.851562 12.679687 24.710937l-.109375 5.050781v21.074219c0 25.175781-20.09375 45.808594-44.910156 45.992188h-.421875c-11.996094.035156-23.515625-4.699219-32.019531-13.160157zm89.351562-53.8125.167969-4.964843c.347656-13.941407-6.449219-27.09375-18.015625-34.882813-4.640625-3.144531-9.9375-5.191406-15.484375-5.984375-2.46875-.347656-4.890625.875-6.078125 3.066407-23.433594 42.898437-65.078125 47.789062-68.351563 48.109374-3.953125.132813-7.121093 3.3125-7.238281 7.261719v9.019531c.078125 5.613282.972656 11.1875 2.660156 16.542969-7.921875-12.953125-12.402344-27.714843-13.011718-42.886719-.488282-11.332031 1.886718-22.605468 6.914062-32.777343 8.5-17.054688 24.621094-30.074219 44.179688-35.726563 11.671874-3.375 23.242187-2.417968 33.425781 2.761719 9.582031 4.878906 17.054687 13.0625 21.605469 23.6875l.289062.847656c.980469 2.949219 4.054688 4.660157 7.078125 3.941407 1.988281-.472657 12.230469-2.011719 18.6875 13.984374 6.234375 15.449219 5.886719 32.992188-.984375 49.394532-2.136719 4.964844-4.6875 9.742187-7.628906 14.277344 1.21875-4.800782 1.816406-9.738282 1.785156-14.691407zm-77 87.984376v-12.433594c6.316406 2.289062 12.992188 3.449218 19.710938 3.425781h.28125c6.492187-.050781 12.921874-1.234375 19-3.507813v13.328126c0 10.769531-8.730469 19.5-19.5 19.5-10.769532 0-19.5-8.730469-19.5-19.5v-.816407zm20-200.417969c74.34375 0 134.828125 60.484375 134.828125 134.832031.019531 36.042969-14.382813 70.597656-40 95.953125-5.835937-21.277344-25.203125-36.011719-47.269531-35.953125h-16.558594v-3.355469c5.203125-3.824219 10.066406-8.085937 14.539062-12.746093 12.878907-12.867188 22.460938-26.414063 28.265626-40.269532 8.097656-19.335937 8.527343-40.121094 1.097656-58.519531-5.554688-13.761719-15.746094-21.835937-26.964844-21.835937-.148438 0-.28125 0-.425781 0-11.878907-25.746094-40.964844-38.75-68.074219-30.429688-22.773438 6.578125-41.5625 21.851562-51.554688 41.898438-5.949218 11.976562-8.777343 25.261718-8.230468 38.625 1.402344 33.933593 20.347656 65.480468 48.347656 81.46875v5.164062h-15.5625c-22.066406-.058594-41.433594 14.675781-47.269531 35.953125-25.613281-25.316406-40.019531-59.835937-40-95.851563 0-74.34375 60.484375-134.933593 134.832031-134.933593zm0 0"/></svg>