<?xml version="1.0" encoding="iso-8859-1"?>
<!-- Generator: Adobe Illustrator 19.0.0, SVG Export Plug-In . SVG Version: 6.00 Build 0)  -->
<svg version="1.1" id="Capa_1" xmlns="http://www.w3.org/2000/svg" xmlns:xlink="http://www.w3.org/1999/xlink" x="0px" y="0px"
	 viewBox="0 0 512 512" style="enable-background:new 0 0 512 512;" xml:space="preserve">
<g>
	<g>
		<path d="M139.429,278.851H52.571c-9.469,0-17.143,7.674-17.143,17.143v143.434h34.286V313.137h52.571v126.291h34.286V295.994
			C156.571,286.526,148.897,278.851,139.429,278.851z"/>
	</g>
</g>
<g>
	<g>
		<path d="M316.571,72.303c-0.149-9.36-7.777-16.874-17.143-16.874h-86.857c-9.469,0-17.143,7.674-17.143,17.143v366.857h34.286
			V89.714h52.834L288,439.697l34.286-0.537L316.571,72.303z"/>
	</g>
</g>
<g>
	<g>
		<path d="M459.429,184.571h-86.857c-9.469,0-17.143,7.674-17.143,17.143v237.714h34.286V218.857h52.571v220.571h34.286V201.714
			C476.571,192.246,468.897,184.571,459.429,184.571z"/>
	</g>
</g>
<g>
	<g>
		<path d="M494.857,422.286H17.143C7.674,422.286,0,429.96,0,439.429s7.674,17.143,17.143,17.143h477.714
			c9.469,0,17.143-7.674,17.143-17.143S504.326,422.286,494.857,422.286z"/>
	</g>
</g>
<g>
</g>
<g>
</g>
<g>
</g>
<g>
</g>
<g>
</g>
<g>
</g>
<g>
</g>
<g>
</g>
<g>
</g>
<g>
</g>
<g>
</g>
<g>
</g>
<g>
</g>
<g>
</g>
<g>
</g>
</svg>
