<svg id="Layer_1" height="512" viewBox="0 0 512 512" width="512" xmlns="http://www.w3.org/2000/svg" data-name="Layer 1"><path d="m256 9a78.09 78.09 0 0 0 -78 78v37.147a5.877 5.877 0 0 0 6 5.853h144a5.876 5.876 0 0 0 6-5.853v-37.147a78.089 78.089 0 0 0 -78-78zm66 109h-132v-31a66 66 0 0 1 132 0z"/><path d="m328 208h-18v-66.593c0-3.313-2.353-6.407-5.666-6.407h-96.668c-3.313 0-5.666 3.094-5.666 6.407v66.593h-18a5.877 5.877 0 0 0 -6 5.853v211.147a78 78 0 1 0 156 0v-211.147a5.876 5.876 0 0 0 -6-5.853zm-114-61h84v61h-84zm108 278a66 66 0 1 1 -132 0v-205h132z"/><path d="m271 160.138a6 6 0 0 0 -6 6v14.824a6 6 0 0 0 12 0v-14.824a6 6 0 0 0 -6-6z"/><path d="m241 160.138a6 6 0 0 0 -6 6v14.824a6 6 0 0 0 12 0v-14.824a6 6 0 0 0 -6-6z"/><path d="m256 446.4a21.75 21.75 0 1 0 -21.749-21.75 21.774 21.774 0 0 0 21.749 21.75zm0-31.5a9.75 9.75 0 1 1 -9.749 9.749 9.76 9.76 0 0 1 9.749-9.744z"/></svg>