<svg height="495pt" viewBox="0 0 495 495.99746" width="495pt" xmlns="http://www.w3.org/2000/svg"><path d="m475.976562 242h-52.925781c-3.3125 0-6 2.6875-6 6s2.6875 6 6 6h52.925781l-18.679687 18.613281c-1.535156 1.507813-2.148437 3.726563-1.597656 5.8125.546875 2.082031 2.171875 3.710938 4.253906 4.269531 2.082031.554688 4.300781-.046874 5.816406-1.582031l28.960938-28.863281c1.128906-1.125 1.765625-2.65625 1.765625-4.25s-.636719-3.125-1.765625-4.25l-28.960938-28.863281c-2.355469-2.308594-6.125-2.285157-8.453125.046875-2.324218 2.335937-2.332031 6.109375-.019531 8.453125zm0 0"/><path d="m248.5 416.550781c-3.316406 0-6 2.6875-6 6v52.929688l-18.617188-18.679688c-2.335937-2.347656-6.136718-2.355469-8.484374-.015625-2.347657 2.339844-2.351563 6.136719-.015626 8.484375l28.867188 28.964844c1.125 1.128906 2.652344 1.761719 4.25 1.761719 1.59375 0 3.121094-.632813 4.25-1.761719l28.863281-28.964844c2.339844-2.347656 2.332031-6.144531-.015625-8.484375s-6.144531-2.332031-8.484375.015625l-18.613281 18.679688v-52.929688c0-3.3125-2.6875-6-6-6zm0 0"/><path d="m223.882812 39.199219 18.617188-18.679688v52.929688c0 3.3125 2.683594 6 6 6 3.3125 0 6-2.6875 6-6v-52.929688l18.613281 18.679688c2.339844 2.347656 6.136719 2.355469 8.484375.015625s2.355469-6.140625.015625-8.484375l-28.863281-28.964844c-1.128906-1.128906-2.65625-1.765625-4.25-1.765625-1.597656 0-3.125.636719-4.25 1.765625l-28.867188 28.960937c-2.335937 2.347657-2.332031 6.144532.015626 8.484376 2.347656 2.339843 6.148437 2.335937 8.484374-.011719zm0 0"/><path d="m31.226562 281.113281c1.511719 1.535157 3.734376 2.136719 5.816407 1.582031 2.082031-.558593 3.707031-2.1875 4.253906-4.269531.546875-2.085937-.0625-4.304687-1.601563-5.8125l-18.675781-18.613281h52.925781c3.3125 0 6-2.6875 6-6s-2.6875-6-6-6h-52.925781l18.679688-18.613281c2.316406-2.34375 2.304687-6.117188-.019531-8.453125-2.324219-2.332032-6.097657-2.355469-8.453126-.046875l-28.964843 28.863281c-1.128907 1.125-1.761719 2.65625-1.761719 4.25s.632812 3.125 1.761719 4.25zm0 0"/><path d="m378.726562 413c-3.3125.011719-5.992187 2.699219-6 6.015625 0 1.585937.632813 3.105469 1.757813 4.226563 1.125 1.117187 2.648437 1.742187 4.234375 1.734374l40.890625.023438h.007813c1.585937.027344 3.117187-.585938 4.246093-1.699219 1.128907-1.113281 1.761719-2.636719 1.753907-4.222656l-.066407-40.988281c0-3.328125-2.671875-6.042969-6-6.089844h-.011719c-3.335937.058594-6.003906 2.789062-5.988281 6.125l.042969 26.425781-37.425781-37.398437c-2.347657-2.34375-6.152344-2.335938-8.496094.011718-2.339844 2.347657-2.335937 6.152344.011719 8.496094l37.425781 37.398438-26.371094-.058594zm0 0"/><path d="m129.3125 367.183594c-2.34375-2.339844-6.140625-2.339844-8.484375 0l-37.429687 37.425781.046874-26.484375c.011719-3.335938-2.652343-6.0625-5.988281-6.125h-.007812c-3.332031.054688-6.003907 2.773438-6 6.105469l-.070313 40.945312c0 1.585938.632813 3.109375 1.761719 4.226563 1.125 1.117187 2.652344 1.734375 4.238281 1.722656h.007813l40.890625-.011719c2.199218.089844 4.273437-1.035156 5.398437-2.925781 1.125-1.894531 1.121094-4.25-.003906-6.140625-1.128906-1.894531-3.203125-3.011719-5.402344-2.921875h-.011719l-26.371093.070312 37.425781-37.414062c1.125-1.121094 1.757812-2.644531 1.757812-4.234375s-.632812-3.113281-1.757812-4.238281zm0 0"/><path d="m371.925781 130.574219c1.589844 0 3.117188-.632813 4.242188-1.757813l37.429687-37.425781-.042968 26.484375c-.015626 3.335938 2.652343 6.066406 5.988281 6.125h.011719c3.332031-.054688 6-2.773438 6-6.105469l.066406-40.945312c0-1.589844-.632813-3.109375-1.757813-4.226563-1.128906-1.117187-2.65625-1.738281-4.242187-1.722656h-.007813l-40.890625.007812c-2.199218-.085937-4.273437 1.035157-5.398437 2.929688-1.125 1.890625-1.125 4.25.003906 6.140625s3.199219 3.011719 5.398437 2.921875h.011719l26.371094-.070312-37.425781 37.414062c-1.714844 1.710938-2.230469 4.292969-1.300782 6.53125.929688 2.242188 3.117188 3.699219 5.542969 3.699219zm0 0"/><path d="m77.449219 124h.007812c3.335938-.058594 6.003907-2.789062 5.992188-6.125l-.050781-26.429688 37.425781 37.402344c2.351562 2.34375 6.15625 2.335938 8.496093-.015625 2.34375-2.347656 2.339844-6.152343-.011718-8.496093l-37.421875-37.402344 26.371093.066406h.011719c3.3125-.011719 5.996094-2.699219 6-6.015625 0-1.585937-.632812-3.109375-1.757812-4.226563-1.125-1.121093-2.648438-1.746093-4.234375-1.734374l-40.890625-.023438h-.007813c-1.585937-.027344-3.117187.585938-4.246094 1.699219-1.128906 1.113281-1.761718 2.636719-1.753906 4.222656l.070313 40.988281c-.003907 3.328125 2.667969 6.042969 6 6.089844zm0 0"/><path d="m248.5 394.828125c80.960938 0 146.828125-65.867187 146.828125-146.828125s-65.867187-146.832031-146.828125-146.832031c-80.964844 0-146.832031 65.871093-146.832031 146.832031s65.867187 146.828125 146.832031 146.828125zm-78.117188-99.460937c-.988281-9.492188 2.078126-18.964844 8.441407-26.078126 6.363281-7.117187 15.433593-11.214843 24.980469-11.289062h4.398437l10.574219 32.640625c.695312 2.160156 2.53125 3.757813 4.769531 4.140625.800781.136719 1.621094.109375 2.410156-.078125l-8.742187 81.417969c-.085938 1.085937.121094 2.175781.601562 3.15625-17.027344-3.988282-33.105468-11.289063-47.316406-21.476563v-61.828125c0-.203125-.097656-.402344-.117188-.605468zm66.867188 86.988281-7.792969-7.789063 10.03125-93.402344 8.527344-9.527343 9.5625 10.167969 9.960937 92.757812-7.792968 7.792969c-3.710938.304687-7.460938.472656-11.246094.472656-3.789062 0-7.539062-.164063-11.25-.472656zm89.363281-86.988281c-.046875.199218-.085937.402343-.113281.605468v61.828125c-14.21875 10.195313-30.296875 17.496094-47.328125 21.488281.46875-.980468.664063-2.070312.5625-3.148437l-8.722656-81.402344c.886719.230469 1.8125.253907 2.707031.070313 2.066406-.488282 3.734375-1.996094 4.433594-4l11.746094-32.808594h3.3125c9.542968.074219 18.609374 4.175781 24.972656 11.289062 6.359375 7.117188 9.421875 16.585938 8.433594 26.078126zm-78.113281-182.199219c74.34375 0 134.746094 60.484375 134.746094 134.832031 0 39.707031-16.746094 75.457031-44.746094 100.152344v-51.886719c1.128906-12.769531-3.027344-25.445313-11.5-35.066406-8.613281-9.609375-20.890625-15.132813-33.796875-15.199219h-7.53125c-2.554687.066406-4.804687 1.707031-5.644531 4.121094l-9.851563 27.492187-17.800781-18.890625c-.636719-.707031-1.4375-1.25-2.328125-1.582031-2.324219-.886719-4.957031-.246094-6.613281 1.613281l-16.46875 18.40625-8.703125-26.867187c-.785157-2.5-3.078125-4.226563-5.699219-4.292969h-8.757812c-12.910157.066406-25.1875 5.585938-33.804688 15.199219-8.472656 9.621093-12.632812 22.296875-11.5 35.066406v51.886719c-28-24.699219-44.746094-60.445313-44.746094-100.152344 0-74.347656 60.398438-134.832031 134.746094-134.832031zm0 0"/><path d="m290.5 187.96875c0-24.285156-19.6875-43.96875-43.96875-43.96875h-.0625c-24.285156 0-43.96875 19.683594-43.96875 43.96875v16.0625c0 24.28125 19.683594 43.96875 43.96875 43.96875h.0625c24.28125 0 43.96875-19.6875 43.96875-43.96875zm-12 16.0625c0 17.65625-14.316406 31.96875-31.96875 31.96875h-.0625c-17.65625 0-31.96875-14.3125-31.96875-31.96875v-16.0625c0-17.65625 14.3125-31.96875 31.96875-31.96875h.0625c17.652344 0 31.96875 14.3125 31.96875 31.96875zm0 0"/></svg>