<?xml version="1.0" encoding="iso-8859-1"?>
<!-- Generator: Adobe Illustrator 19.0.0, SVG Export Plug-In . SVG Version: 6.00 Build 0)  -->
<svg version="1.1" id="Capa_1" xmlns="http://www.w3.org/2000/svg" xmlns:xlink="http://www.w3.org/1999/xlink" x="0px" y="0px"
	 viewBox="0 0 512 512" style="enable-background:new 0 0 512 512;" xml:space="preserve">
<g>
	<g>
		<path d="M256,0c-78.344,0-133.065,62.371-133.065,151.683c0,88.321,54.65,186.729,133.065,186.729s133.065-98.408,133.065-186.729
			C389.065,62.376,334.35,0,256,0z M256,305.557c-51.507,0-100.21-74.779-100.21-153.874c0-71.072,40.27-118.828,100.21-118.828
			c59.934,0,100.21,47.756,100.21,118.828C356.21,230.778,307.507,305.557,256,305.557z"/>
	</g>
</g>
<g>
	<g>
		<path d="M321.903,385.199l-52.574-72.83c-3.094-4.277-8.05-6.812-13.323-6.812c-5.279,0-10.235,2.535-13.323,6.812l-52.569,72.83
			c-3.609,5-4.112,11.603-1.303,17.096c2.809,5.492,8.46,8.948,14.626,8.948h105.138c6.166,0,11.823-3.455,14.632-8.948
			C326.015,396.803,325.512,390.199,321.903,385.199z M235.553,378.387l20.453-28.332l20.453,28.332H235.553z"/>
	</g>
</g>
<g>
	<g>
		<rect x="239.572" y="397.005" width="32.856" height="114.995"/>
	</g>
</g>
<g>
</g>
<g>
</g>
<g>
</g>
<g>
</g>
<g>
</g>
<g>
</g>
<g>
</g>
<g>
</g>
<g>
</g>
<g>
</g>
<g>
</g>
<g>
</g>
<g>
</g>
<g>
</g>
<g>
</g>
</svg>
