<svg height="492pt" viewBox="-91 0 492 492.07251" width="492pt" xmlns="http://www.w3.org/2000/svg"><path d="m6.1875 492.074219h297.691406c3.390625-.097657 6.101563-2.84375 6.15625-6.230469v-310.105469c-.027344-.378906-.089844-.75-.1875-1.113281 0-.015625-.039062-.03125-.042968-.046875-.078126-.355469-.1875-.703125-.328126-1.039063-.007812-.023437-.023437-.042968-.03125-.0625-.136718-.328124-.300781-.640624-.492187-.9375-.015625-.027343-.035156-.054687-.050781-.082031-.191406-.292969-.410156-.566406-.652344-.824219-.015625-.015624-.027344-.035156-.042969-.054687l-70.320312-73.171875c-.015625-.011719-.03125-.027344-.046875-.039062-.078125-.082032-.160156-.15625-.246094-.230469-.0625-.058594-.121094-.117188-.183594-.171875-.101562-.082032-.203125-.15625-.300781-.230469-.054687-.039063-.109375-.085937-.164063-.121094-.136718-.097656-.28125-.183593-.425781-.265625-.023437-.011718-.046875-.273437-.070312-.289062-.867188-.5625-1.859375-.902344-2.886719-.984375h-64.082031l-.050781-61.652344c.015624-18.992187-15.367188-34.40625-34.359376-34.421875-18.992187-.015625-34.40625 15.367188-34.421874 34.359375l-.058594 61.714844h-94.398438c-3.3125 0-6.1562498 3.179687-6.1562498 6.492187v383.277344c.0546876 3.386719 2.7656248 6.132812 6.1523438 6.230469zm233.847656-374.601563 49.757813 52.601563h-49.757813zm-82.578125-44.398437h-44.847656l.011719-13h44.824218zm.011719 12 .113281 129h-45.097656l.113281-129zm-3.761719 141-18.671875 35.910156-18.671875-35.910156zm-18.671875-213.773438c5.917969-.023437 11.601563 2.308594 15.804688 6.476563 4.199218 4.171875 6.566406 9.839844 6.585937 15.761718l.007813 13.535157h-44.800782l.011719-13.539063c.019531-5.917968 2.386719-11.585937 6.585938-15.757812 4.199219-4.167969 9.886719-6.5 15.804687-6.476563zm-123 95.773438h88.542969l-.097656 111.789062c-.003907 1.003907.230469 1.996094.675781 2.898438l28.554688 54.980469c1.019531 1.992187 3.066406 3.253906 5.308593 3.261718 2.238281.011719 4.296875-1.230468 5.335938-3.214844l28.554687-54.910156c.445313-.941406.679688-1.972656.675782-3.015625l-.097657-111.789062h58.546875v67.664062c0 3.3125 2.210938 6.335938 5.523438 6.335938h64.476562v298h-286zm0 0"/><path d="m249.324219 414.074219h-194.019531c-3.316407 0-6 2.683593-6 6 0 3.3125 2.683593 6 6 6h194.019531c3.3125 0 6-2.6875 6-6 0-3.316407-2.6875-6-6-6zm0 0"/><path d="m55.304688 379.074219h112.398437c3.3125 0 6-2.6875 6-6 0-3.316407-2.6875-6-6-6h-112.398437c-3.316407 0-6 2.683593-6 6 0 3.3125 2.683593 6 6 6zm0 0"/></svg>