<?xml version="1.0"?>
<svg xmlns="http://www.w3.org/2000/svg" id="Layer_1" data-name="Layer 1" viewBox="0 0 512 512" width="512" height="512"><title>Web Book </title><path d="M490,130.7V66.041C490,44.542,473.2,27,452.548,27H59.448C38.8,27,22,44.542,22,66.041V382.957C22,404.457,38.8,422,59.448,422H140v29.163c0,.116.19.233.2.348-.006.249.085.5.085.749a32.765,32.765,0,0,0,32.735,32.689l178.154,0a5.856,5.856,0,0,0,5.829-6V432h8.626A6.707,6.707,0,0,0,372,425.572V422h80.548C473.2,422,490,404.457,490,382.957V130.849c0-.026,0-.051,0-.077S490,130.721,490,130.7ZM59.448,39h393.1C466.58,39,478,51.159,478,66.041V125H34V66.041C34,51.159,45.416,39,59.448,39ZM173.063,420A33.956,33.956,0,0,0,152,426.971V236.74c0-11.408,9.654-20.74,21.062-20.74H185V420ZM345,472.947l-172.131,0A20.476,20.476,0,1,1,173.063,432H345ZM360,420H197V216h36V359.839a5.977,5.977,0,0,0,9.607,4.773l36.1-27.511,36.106,27.511a5.994,5.994,0,0,0,3.636,1.227,5.086,5.086,0,0,0,2.436-.623A5.8,5.8,0,0,0,324,359.839V216h36ZM296,216V334.891l-13.461-10.106a6.275,6.275,0,0,0-3.734-1.227,5.855,5.855,0,0,0-3.589,1.227L262,334.89V216Zm12,0h4V347.725l-4-3.691Zm-58,0V344.033l-5,3.692V216ZM452.548,410H372V210.051A6.374,6.374,0,0,0,365.626,204H173.062C155.038,204,140,218.715,140,236.74V410H59.448C45.416,410,34,397.839,34,382.957V137H478V382.957C478,397.839,466.58,410,452.548,410Z"/><path d="M143.31,110.531c14.869,0,26.966-12.558,26.966-27.994s-12.1-27.994-26.966-27.994S116.344,67.1,116.344,82.537,128.441,110.531,143.31,110.531Zm0-43.988c8.252,0,14.966,7.175,14.966,15.994s-6.714,15.994-14.966,15.994-14.966-7.175-14.966-15.994S135.058,66.543,143.31,66.543Z"/><path d="M211.448,110.531c14.869,0,26.966-12.558,26.966-27.994s-12.1-27.994-26.966-27.994S184.482,67.1,184.482,82.537,196.579,110.531,211.448,110.531Zm0-43.988c8.252,0,14.966,7.175,14.966,15.994S219.7,98.531,211.448,98.531s-14.966-7.175-14.966-15.994S203.2,66.543,211.448,66.543Z"/><path d="M75.172,110.531c14.869,0,26.966-12.558,26.966-27.994s-12.1-27.994-26.966-27.994S48.206,67.1,48.206,82.537,60.3,110.531,75.172,110.531Zm0-43.988c8.252,0,14.966,7.175,14.966,15.994S83.424,98.531,75.172,98.531,60.206,91.356,60.206,82.537,66.92,66.543,75.172,66.543Z"/></svg>
