<svg height="467pt" viewBox="-66 0 467 467.881" width="467pt" xmlns="http://www.w3.org/2000/svg"><path d="m41.109375 467.882812h252.664063c22.410156 0 40.667968-18.601562 40.667968-41v-310.273437c-.03125-22.457031-18.210937-40.664063-40.667968-40.726563h-49.332032v-8.546874c0-14.878907-11.785156-27.453126-26.664062-27.453126h-12.335938v-1.882812c0-20.988281-17.015625-38-38-38-20.988281 0-38 17.011719-38 38v1.882812h-12.339844c-14.875 0-26.660156 12.574219-26.660156 27.453126v8.546874h-49.332031c-22.460937.0625-40.640625 18.269532-40.667969 40.726563v310.273437c0 22.402344 18.253906 41 40.667969 41zm100.332031-429.882812c0-14.359375 11.640625-26 26-26s26 11.640625 26 26v1.882812h-52zm-39 29.335938c0-8.261719 6.398438-15.453126 14.660156-15.453126h100.675782c8.261718 0 14.664062 7.191407 14.664062 15.453126v46.546874h-130zm-90 49.273437c.019532-15.832031 12.832032-28.671875 28.667969-28.726563h49.332031v32.054688c-.070312 1.550781.496094 3.0625 1.570313 4.183594 1.070312 1.125 2.558593 1.757812 4.109375 1.761718h142.636718c1.554688-.003906 3.039063-.636718 4.113282-1.761718 1.070312-1.121094 1.640625-2.632813 1.570312-4.183594v-32.054688h49.332032c15.832031.054688 28.644531 12.894532 28.667968 28.726563v310.273437c0 15.792969-12.875 29-28.667968 29h-252.664063c-15.796875 0-28.667969-13.214843-28.667969-29zm0 0"/><path d="m163.640625 330.40625c-2.34375-2.34375-6.140625-2.34375-8.484375 0s-2.34375 6.140625 0 8.484375l3.796875 3.800781-3.796875 3.800782c-2.34375 2.34375-2.34375 6.140624 0 8.484374 2.339844 2.34375 6.140625 2.34375 8.484375 0l3.800781-3.800781 3.800782 3.800781c2.339843 2.34375 6.140624 2.34375 8.484374 0s2.34375-6.140624 0-8.484374l-3.800781-3.800782 3.800781-3.800781c2.34375-2.34375 2.34375-6.140625 0-8.484375s-6.144531-2.34375-8.484374 0l-3.800782 3.800781zm0 0"/><path d="m70.65625 384.1875c21.925781-.070312 40.007812-17.195312 41.273438-39.082031 1.269531-21.890625-14.71875-40.984375-36.488282-43.585938v-39.636719h86v39.75c-21.523437 3.144532-36.96875 22.375-35.390625 44.070313 1.574219 21.695313 19.636719 38.492187 41.390625 38.492187 21.75 0 39.8125-16.796874 41.390625-38.492187 1.574219-21.695313-13.867187-40.925781-35.390625-44.070313v-39.75h86v39.632813c-22.105468 2.675781-38.15625 22.320313-36.371094 44.515625 1.789063 22.191406 20.777344 39.019531 43.023438 38.121094 22.246094-.898438 39.820312-19.195313 39.8125-41.460938 0-20.523437-15.464844-37.601562-34.464844-40.910156v-45.867188c-.136718-3.375-2.921875-6.042968-6.300781-6.03125h-91.699219v-46.402343l6.722656 6.71875c2.339844 2.34375 6.140626 2.34375 8.484376 0 2.347656-2.339844 2.347656-6.140625.003906-8.484375l-16.382813-16.386719c-2.34375-2.339844-6.140625-2.339844-8.484375 0l-16.382812 16.386719c-2.253906 2.355468-2.210938 6.078125.09375 8.382812 2.304687 2.304688 6.027344 2.351563 8.386718.101563l5.558594-5.558594v45.242187h-91.6875c-3.382812-.007812-6.167968 2.652344-6.3125 6.03125v45.867188c-19 3.300781-34.441406 20.382812-34.441406 40.910156.101562 22.9375 18.71875 41.480469 41.65625 41.496094zm126.28125-41.5c0 16.289062-13.207031 29.5-29.5 29.5s-29.5-13.210938-29.5-29.5c0-16.292969 13.207031-29.5 29.5-29.5 16.289062.011719 29.488281 13.214844 29.503906 29.503906zm96.785156 0c0 16.289062-13.207031 29.5-29.5 29.5-16.292968 0-29.5-13.210938-29.5-29.5 0-16.292969 13.207032-29.5 29.5-29.5 16.285156.015625 29.484375 13.214844 29.5 29.503906zm-223.066406-29.5c16.289062 0 29.5 13.207031 29.5 29.5 0 16.289062-13.210938 29.5-29.5 29.5-16.292969 0-29.5-13.210938-29.5-29.5.019531-16.285156 13.214844-29.476562 29.5-29.492188zm0 0"/><path d="m255.328125 336.632812c-1.441406-1.613281-3.644531-2.324218-5.757813-1.855468-2.113281.464844-3.8125 2.03125-4.449218 4.101562-.632813 2.070313-.101563 4.320313 1.390625 5.890625l9.199219 9.96875c2.242187 2.429688 6.027343 2.589844 8.460937.355469l17.421875-15.957031c2.417969-2.246094 2.570312-6.019531.34375-8.453125-2.230469-2.433594-6.003906-2.609375-8.449219-.398438l-13.011719 11.921875zm0 0"/><path d="m62.128906 354.738281c2.242188 2.429688 6.027344 2.589844 8.464844.355469l17.417969-15.957031c2.421875-2.246094 2.574219-6.019531.34375-8.453125-2.226563-2.433594-6-2.609375-8.449219-.398438l-13.007812 11.921875-5.144532-5.582031c-2.246094-2.4375-6.042968-2.59375-8.480468-.347656s-2.589844 6.042968-.34375 8.480468zm0 0"/></svg>