<svg id="Layer_1" height="512" viewBox="0 0 512 512" width="512" xmlns="http://www.w3.org/2000/svg" data-name="Layer 1"><path d="m334.1 221.746a63.857 63.857 0 1 0 63.852 63.854 63.929 63.929 0 0 0 -63.852-63.854zm0 115.713a51.857 51.857 0 1 1 51.852-51.859 51.916 51.916 0 0 1 -51.852 51.859z"/><path d="m470.057 257.721a27.775 27.775 0 0 0 -18.693 7.212 118.928 118.928 0 0 0 -200.787-63.933h-38.569a6 6 0 0 0 -5.475 3.546l-6.48 14.454h-47.153l-7.328-14.68a6 6 0 0 0 -5.372-3.32h-120.2a6 6 0 0 0 -6 6v117a6 6 0 0 0 6 6h203.69c18.269 44.793 62.112 74.6 110.405 74.6a119.243 119.243 0 0 0 117.268-98.326 27.876 27.876 0 1 0 18.694-48.55zm-444.057-44.721h33v105h-33zm308.1 179.6c-44.682 0-85.135-28.4-100.664-70.666a6 6 0 0 0 -5.636-3.934h-156.8v-105h65.492l7.328 14.68a6 6 0 0 0 5.368 3.32h54.75a6 6 0 0 0 5.475-3.546l6.481-14.454h37.169a6 6 0 0 0 4.288-1.8 106.975 106.975 0 1 1 76.749 181.4zm135.962-91.114a15.881 15.881 0 1 1 15.881-15.88 15.9 15.9 0 0 1 -15.886 15.877z"/><path d="m169 114v43a6 6 0 0 0 12 0v-43a6 6 0 0 0 -12 0z"/><path d="m103.419 137.025a6 6 0 0 0 -.4 8.476l26.923 29.615a6 6 0 1 0 8.879-8.072l-26.921-29.615a6 6 0 0 0 -8.481-.404z"/><path d="m211.111 175.52a6 6 0 0 0 8.476-.4l26.923-29.62a6 6 0 1 0 -8.879-8.072l-26.923 29.615a6 6 0 0 0 .403 8.477z"/></svg>