<svg height="465pt" viewBox="-65 0 465 465.977" width="465pt" xmlns="http://www.w3.org/2000/svg"><path d="m110.621094 298.976562h113.734375c3.421875-.199218 6.105469-3.019531 6.132812-6.449218v-10.378906c0-30.097657-24.621093-54.171876-54.71875-54.171876h-16.5625c-30.097656 0-54.71875 24.074219-54.71875 54.171876v10.378906c.027344 3.429687 2.710938 6.25 6.132813 6.449218zm5.867187-16.828124c0-23.480469 19.238281-42.171876 42.71875-42.171876h16.5625c23.480469 0 42.71875 18.691407 42.71875 42.171876v4.828124h-102zm0 0"/><path d="m167.597656 219.691406c21.367188 0 38.6875-17.320312 38.6875-38.6875 0-21.363281-17.320312-38.683594-38.683594-38.683594-21.367187 0-38.6875 17.320313-38.6875 38.683594.023438 21.355469 17.328126 38.660156 38.683594 38.6875zm0-65.371094c14.738282 0 26.6875 11.949219 26.6875 26.683594 0 14.738282-11.949218 26.6875-26.6875 26.6875-14.738281 0-26.683594-11.949218-26.683594-26.6875.015626-14.730468 11.953126-26.667968 26.683594-26.683594zm0 0"/><path d="m41.523438 465.976562h251.933593c22.351563 0 41.03125-18.210937 41.03125-40.566406v-309.363281c0-22.355469-18.679687-40.070313-41.03125-40.070313h-48.96875v-9.0625c.039063-14.84375-11.964843-26.902343-26.808593-26.9375h-12.191407v-2.3125c0-20.769531-17.230469-37.664062-38-37.664062s-38 16.898438-38 37.664062v2.3125h-12.191406c-14.84375.035157-26.847656 12.09375-26.808594 26.9375v9.0625h-48.964843c-22.355469 0-41.035157 17.714844-41.035157 40.070313v309.363281c0 22.355469 18.679688 40.566406 41.035157 40.566406zm99.964843-428.3125c0-14.152343 11.847657-25.664062 26-25.664062 14.152344 0 26 11.511719 26 25.664062v2.3125h-52zm-39 29.25c-.023437-3.945312 1.527344-7.738281 4.304688-10.539062 2.777343-2.804688 6.558593-4.386719 10.503906-4.398438h100.382813c3.945312.011719 7.726562 1.59375 10.503906 4.398438 2.777344 2.800781 4.328125 6.59375 4.304687 10.539062v46.0625h-130zm-90 49.132813c0-15.738281 13.300781-28.070313 29.035157-28.070313h48.964843v31.386719c-.007812 1.539063.617188 3.015625 1.730469 4.078125 1.117188 1.0625 2.621094 1.617188 4.15625 1.535156h142.226562c1.535157.082032 3.039063-.472656 4.15625-1.535156 1.113282-1.0625 1.738282-2.539062 1.730469-4.078125v-31.386719h48.96875c15.738281 0 29.03125 12.332032 29.03125 28.070313v309.363281c0 15.738282-13.300781 28.566406-29.03125 28.566406h-251.933593c-15.734376 0-29.035157-12.828124-29.035157-28.566406zm0 0"/><path d="m67.714844 356.976562h97.574218c3.3125 0 6-2.6875 6-6s-2.6875-6-6-6h-97.574218c-3.3125 0-6 2.6875-6 6s2.6875 6 6 6zm0 0"/><path d="m67.714844 402.976562h199.546875c3.3125 0 6-2.6875 6-6s-2.6875-6-6-6h-199.546875c-3.3125 0-6 2.6875-6 6s2.6875 6 6 6zm0 0"/></svg>