<svg height="487pt" viewBox="0 -114 487.42155 487" width="487pt" xmlns="http://www.w3.org/2000/svg"><path d="m198.949219 47.183594c-.191407.292968-.355469.605468-.492188.933594-.015625.039062-.027343.078124-.042969.117187-.128906.324219-.226562.65625-.300781 1-.003906.035156-.007812.070313-.015625.097656-.0625.347657-.097656.695313-.097656 1.046875v.070313c0 .347656.035156.695312.097656 1.039062 0 .027344.007813.058594.015625.085938.070313.347656.167969.6875.296875 1.019531.015625.03125.023438.066406.039063.101562.136719.332032.304687.652344.5.953126.015625.027343.03125.054687.046875.082031.21875.328125.46875.632812.746094.914062v.003907l23.167968 23.167968c2.34375 2.34375 6.140625 2.34375 8.484375 0s2.34375-6.140625 0-8.484375l-12.898437-12.851562 95.484375.1875h.019531c3.335938.003906 6.039062-2.699219 6.042969-6.03125 0-3.335938-2.699219-6.039063-6.035157-6.042969l-95.542968-.152344 12.945312-12.953125c2.34375-2.339843 2.34375-6.140625 0-8.484375-2.34375-2.347656-6.144531-2.347656-8.488281-.003906l-23.164063 23.171875c-.007812.007813-.015624.019531-.023437.027344-.265625.269531-.507813.566406-.722656.882812-.023438.03125-.039063.066407-.0625.101563zm0 0"/><path d="m173.992188 121.773438 95.542968.140624-12.945312 12.945313c-2.34375 2.34375-2.339844 6.140625 0 8.484375 2.34375 2.34375 6.144531 2.34375 8.488281 0l23.164063-23.171875c.007812-.007813.015624-.015625.023437-.027344.265625-.269531.507813-.566406.722656-.882812.023438-.035157.039063-.070313.0625-.101563.191407-.296875.355469-.609375.492188-.933594.015625-.039062.027343-.078124.042969-.117187.128906-.324219.226562-.660156.300781-1 .003906-.035156.007812-.070313.015625-.101563.0625-.34375.097656-.695312.097656-1.042968 0-.023438 0-.046875 0-.070313 0-.347656-.035156-.699219-.097656-1.039062 0-.03125-.007813-.058594-.015625-.089844-.070313-.347656-.167969-.6875-.296875-1.015625-.015625-.035156-.023438-.066406-.039063-.101562-.136719-.332032-.304687-.652344-.5-.953126-.015625-.027343-.03125-.054687-.046875-.082031-.21875-.328125-.46875-.632812-.746094-.914062v-.003907l-23.167968-23.167968c-2.34375-2.34375-6.140625-2.34375-8.484375 0s-2.34375 6.140625 0 8.484375l12.898437 12.851562-95.496094-.191406h-.007812c-3.339844-.003906-6.050781 2.703125-6.054688 6.046875-.003906 3.339844 2.703126 6.050781 6.046876 6.054688zm0 0"/><path d="m181 250.917969v-37.964844c0-25.382813-20.59375-46.28125-45.96875-46.28125h-15.03125v-1.863281c5-3.269532 8.785156-7.136719 13.429688-11.773438 12.027343-12.015625 20.984374-24.675781 26.410156-37.625 7.585937-18.105468 7.984375-37.742187 1.03125-54.976562-5.238282-12.980469-14.839844-20.761719-25.453125-20.761719h-.164063c-5.128906-10.683594-13.625-19.382813-24.183594-24.761719-11.972656-6.09375-26.027343-7.207031-39.574218-3.292968-21.316406 6.160156-38.902344 20.5-48.257813 39.273437-5.496093 11.238281-8.070312 23.683594-7.480469 36.179687 1.308594 31.640626 19.242188 61.09375 45.242188 76.089844v3.511719h-14.535156c-25.375 0-46.464844 20.898437-46.464844 46.28125v37.964844c0 3.3125 3.132812 5.753906 6.445312 5.753906h168.609376c1.558593.054687 3.074218-.527344 4.195312-1.613281 1.121094-1.085938 1.753906-2.582032 1.75-4.140625zm-108-77.988281v-10.988282c5.675781 2.058594 11.675781 3.078125 17.710938 3.015625h.140624c5.855469-.003906 11.660157-1.050781 17.148438-3.097656v11.828125c0 9.664062-7.835938 17.5-17.5 17.5s-17.5-7.835938-17.5-17.5zm59-82v19.617187c0 23.214844-18.40625 42.242187-41.285156 42.410156-11.101563.066407-21.765625-4.316406-29.605469-12.175781-7.84375-7.859375-12.203125-18.535156-12.109375-29.632812v-4.203126c27.671875-5.179687 51.769531-22.027343 66.140625-46.238281 2.03125.691407 3.964844 1.652344 5.742187 2.855469 7.429688 4.945312 11.554688 13.414062 11.417969 22.660156zm-98.023438-34.644532c7.863282-15.773437 22.75-27.820312 40.851563-33.050781 10.765625-3.109375 21.414063-2.230469 30.800781 2.542969 9.007813 4.691406 16.066406 12.429687 19.910156 21.832031l.257813.773437c.980469 2.949219 4.054687 4.660157 7.078125 3.941407 1.792969-.425781 11.035156-1.808594 16.921875 12.773437 5.761719 14.285156 5.4375 30.5-.917969 45.675782-1.6875 3.828124-3.644531 7.53125-5.859375 11.082031.71875-3.726563 1.046875-7.515625.980469-11.308594v-19.53125l.273438-4.621094c.347656-13.113281-6.027344-25.492187-16.898438-32.828125-4.363281-2.960937-9.339844-4.890625-14.558594-5.640625-2.464844-.339843-4.878906.882813-6.0625 3.066407-21.707031 39.726562-59.910156 44.28125-62.976562 44.578124-3.828125.171876-6.828125 3.347657-6.777344 7.179688v8.402344c-.035156 4.230468.429688 8.453125 1.378906 12.582031-6.445312-11.359375-10.109375-24.082031-10.691406-37.128906-.488281-10.472657 1.675781-20.902344 6.289062-30.320313zm135.023438 188.386719h-157v-31.71875c0-18.757813 15.707031-34.28125 34.464844-34.28125h14.773437c2.542969 14.226563 14.914063 24.582031 29.363281 24.582031 14.453126 0 26.824219-10.355468 29.367188-24.582031h15.0625c18.820312.148437 33.992188 15.460937 33.96875 34.28125zm0 0"/><path d="m334.070312 118.171875c.070313 2.015625 1.132813 3.867187 2.832032 4.945313l43.78125 28.621093c2 1.296875 4.570312 1.304688 6.578125.027344l44.550781-28.617187c1.734375-1.117188 2.777344-3.046876 2.757812-5.109376l-.820312-80.160156c0-.667968-.019531-1.328125-.050781-1.984375-.582031-11.207031-6.199219-21.550781-15.28125-28.140625-9.390625-6.929687-21.410157-9.238281-32.699219-6.289062l-23.902344 6.199218h-8.015625c-11.199219 0-20.800781 9.136719-20.800781 20.332032v22.042968zm87.777344-71.027344.339844 33.042969-4.253906 3.058594c-1.375.976562-3.035156 1.480468-4.722656 1.425781h-8.789063c-2.15625.058594-4.242187-.792969-5.742187-2.34375-.007813-.011719-.019532.054687-.03125.042969-3.769532-4.082032-9.074219-6.402344-14.628907-6.390625-5.558593.011719-10.851562 2.351562-14.605469 6.453125-.007812.011718-.019531-.128906-.03125-.117188-1.5 1.554688-3.582031 2.410156-5.742187 2.355469h-8.785156c-1.691407.054687-3.347657-.445313-4.726563-1.425781l-4.273437-3.152344-.214844-17.4375c2.941406-12.492188 11.042969-12.472656 31.527344-9.351562 14.167969 2.15625 32.257812 4.929687 44.679687-6.15625zm-37.785156 92.425781-37.789062-24.734374-.242188-20.089844c2.753906 1.316406 5.773438 1.972656 8.824219 1.925781h8.785156c5.535156.054687 10.839844-2.21875 14.617187-6.265625.007813-.011719.019532.058594.03125.042969 1.492188-1.585938 3.578126-2.476563 5.753907-2.46875 2.179687.011719 4.253906.929687 5.730469 2.53125.011718.011719.023437-.128907.035156-.117188 3.773437 4.050781 9.078125 6.328125 14.613281 6.277344h8.789063c3.160156.046875 6.292968-.664063 9.125-2.074219l.207031 20.167969zm-30.261719-119.898437h8.789063c.507812.003906 1.015625-.058594 1.511718-.183594l24.636719-6.398437c7.796875-2.039063 16.097657-.441406 22.582031 4.339844 3.921876 2.859374 6.945313 6.773437 8.71875 11.292968-6.625 16.667969-20.316406 15.9375-41.304687 12.738282-11.191406-1.707032-23.734375-3.664063-33.734375 1.53125v-14.988282c0-4.582031 4.214844-8.332031 8.800781-8.332031zm0 0"/><path d="m435.699219 150.671875h-28.253907c-1.917968.039063-3.707031.980469-4.824218 2.542969l-18.957032 25.707031-18.15625-25.644531c-1.113281-1.605469-2.9375-2.574219-4.890624-2.605469h-28.246094c-14.640625.054687-28.574219 6.300781-38.351563 17.199219-9.742187 10.777344-15.019531 25.328125-13.019531 39.78125v45.464844c-.039062 1.519531.558594 2.984374 1.652344 4.039062 1.089844 1.058594 2.578125 1.605469 4.09375 1.515625h194.570312c1.511719.089844 2.988282-.464844 4.070313-1.519531 1.082031-1.058594 1.667969-2.523438 1.613281-4.035156v-45.464844c2-14.453125-3.246094-29.007813-12.988281-39.789063-9.761719-10.890625-23.683594-17.136719-38.3125-17.191406zm-25.230469 12h3.058594l2.128906 32.898437-22.65625-9.199218zm-55.960938 0h3.007813l16.785156 23.742187-22.046875 9.019532zm-61.667968 44.082031c-1.171875-11.222656 2.457031-22.414062 9.988281-30.8125 7.53125-8.394531 18.261719-13.21875 29.542969-13.269531h10.109375l-2.863281 41.625c-.144532 2.085937.792968 4.097656 2.476562 5.335937 1.679688 1.21875 3.871094 1.488282 5.792969.707032l30.113281-12.367188v48.699219h-85v-39.3125c0-.203125-.136719-.40625-.15625-.605469zm182.34375 0c-.019532.199219-.1875.398438-.1875.605469v39.3125h-84.996094v-48.40625l30.019531 12.117187c1.914063.769532 4.089844.507813 5.761719-.703124 1.679688-1.25 2.609375-3.265626 2.472656-5.355469l-2.695312-41.652344h10.140625c11.277343.058594 22 4.882813 29.523437 13.28125 7.519532 8.398437 11.140625 19.585937 9.960938 30.800781zm0 0"/><path d="m394 105.671875h-20c-3.3125 0-6 2.6875-6 6s2.6875 6 6 6h20c3.3125 0 6-2.6875 6-6s-2.6875-6-6-6zm0 0"/></svg>