<svg height="473pt" viewBox="0 0 473 473" width="473pt" xmlns="http://www.w3.org/2000/svg"><path d="m208.898438 421.5h-136.832032c-4.015625-.042969-7.832031-1.757812-10.53125-4.726562-2.675781-2.957032-4.09375-6.839844-3.953125-10.824219 0-.039063 0-.117188 0-.15625l.21875-107.667969 25.140625 25.132812c2.347656 2.34375 6.148438 2.339844 8.492188-.003906 2.34375-2.347656 2.339844-6.148437-.003906-8.488281l-35.355469-35.359375c-.007813-.007812-.019531-.015625-.03125-.023438-.269531-.265624-.5625-.507812-.875-.71875-.039063-.023437-.074219-.042968-.113281-.066406-.292969-.1875-.601563-.351562-.921876-.488281-.042968-.015625-.085937-.03125-.128906-.046875-.324218-.125-.652344-.222656-.992187-.292969-.035157-.007812-.074219-.085937-.117188-.097656-.339843-.089844-.683593-.144531-1.035156-.171875h-.058594c-.351562.027344-.699219.085938-1.039062.175781-.03125.007813-.066407.046875-.101563.054688-.34375.074219-.683594.183593-1.007812.316406-.035156.015625-.074219.035156-.105469.050781-.332031.136719-.648437.304688-.949219.5-.03125.015625-.058594.035156-.085937.054688-.328125.21875-.632813.46875-.914063.746094h-.003906l-35.359375 35.363281c-2.308594 2.351562-2.292969 6.121093.035156 8.453125 2.328125 2.328125 6.101563 2.34375 8.449219.03125l25.082031-25.082032-.21875 107.507813c-.203125 7.070313 2.371094 13.941406 7.171875 19.136719 4.945313 5.320312 11.839844 8.402344 19.105469 8.542968.042969 0 .085937.148438.132813.148438h136.90625c3.316406 0 6-2.6875 6-6s-2.683594-6-6-6zm0 0"/><path d="m266.476562 51.5h136.832032c8.453125 1 14.675781 6.945312 14.484375 15.476562v.199219l-.21875 107.6875-25.140625-25.125c-2.347656-2.34375-6.152344-2.339843-8.492188.007813-2.34375 2.34375-2.34375 6.148437.003906 8.492187l35.355469 35.351563c.253907.253906.535157.484375.832031.6875l.050782.039062c.117187.082032.242187.15625.367187.226563.046875.027343.089844.054687.136719.082031.109375.058594.222656.109375.335938.160156.0625.03125.125.066406.195312.09375.109375.046875.222656.085938.335938.125.070312.023438.140624.054688.214843.074219.128907.042969.265625.074219.398438.101563.054687.011718.109375.03125.164062.039062.789063.164062 1.605469.164062 2.398438 0 .070312-.011719.136719-.035156.199219-.050781.121093-.027344.246093-.054688.363281-.09375.101562-.027344.191406-.066407.285156-.097657.097656-.03125.179687-.0625.265625-.101562.082031-.039062.1875-.089844.285156-.132812.09375-.046876.160156-.074219.242188-.117188.078125-.042969.164062-.101562.242187-.148438.082031-.042968.175781-.097656.257813-.15625.066406-.042968.125-.089843.1875-.136718.097656-.070313.191406-.136719.285156-.210938.007812-.007812.015625-.015625.027344-.023437.136718-.117188.273437-.238281.398437-.367188l35.355469-35.355469c2.34375-2.339843 2.34375-6.140624 0-8.484374-2.339844-2.34375-6.140625-2.34375-8.484375 0l-25.082031 25.082031.21875-107.507813c.242187-7.171875-2.40625-14.136718-7.34375-19.339844-4.941406-5.203124-11.761719-8.203124-18.933594-8.335937-.046875 0-.089844-.148437-.132812-.148437h-136.902344c-3.3125 0-6 2.683593-6 6 0 3.3125 2.6875 6 6 6zm0 0"/><path d="m123.070312 246.144531c67.972657 0 123.074219-55.101562 123.074219-123.074219 0-67.96875-55.101562-123.070312-123.074219-123.070312-67.96875 0-123.070312 55.101562-123.070312 123.070312.078125 67.941407 55.132812 122.996094 123.070312 123.074219zm-69.078124-36.207031c1.714843-15.03125 14.414062-26.394531 29.542968-26.4375h12.65625c2.542969 12.757812 13.742188 21.941406 26.75 21.941406 13.007813 0 24.203125-9.183594 26.75-21.941406h12.914063c15.128906.042969 27.828125 11.40625 29.542969 26.4375-40.421876 32.210938-97.738282 32.210938-138.15625 0zm43.226562-61.46875c-6.929688-6.886719-10.792969-16.273438-10.71875-26.039062v-3.21875c24.464844-4.796876 45.769531-19.703126 58.660156-41.042969 1.582032.585937 3.082032 1.359375 4.476563 2.308593 6.484375 4.414063 10.265625 11.839844 10.019531 19.683594l-.15625 4.214844v17.519531c0 20.375-16.207031 37.074219-36.28125 37.21875-9.75.109375-19.128906-3.730469-26-10.644531zm74.28125-44 .125-4.128906c.289062-11.933594-5.53125-23.191406-15.4375-29.855469-3.988281-2.699219-8.535156-4.453125-13.300781-5.136719-2.46875-.34375-4.890625.878906-6.078125 3.066406-19.195313 35.132813-52.878906 39.195313-55.679688 39.472657-3.75.175781-6.679687 3.292969-6.628906 7.046875v7.5c-.039062 2.375.089844 4.753906.394531 7.113281-4.472656-9.066406-7.015625-18.957031-7.46875-29.054687-.425781-9.246094 1.488281-18.449219 5.5625-26.757813 6.941407-13.925781 20.074219-24.558594 36.0625-29.179687 8.957031-2.773438 18.640625-1.976563 27.023438 2.226562 7.902343 4.117188 14.089843 10.902344 17.464843 19.148438l.21875.664062c.984376 2.949219 4.054688 4.65625 7.078126 3.941406 1.511718-.359375 9.296874-1.511718 14.363281 11.019532 5.082031 12.59375 4.789062 26.902343-.816407 40.292968-.933593 2.226563-2.074218 4.445313-3.273437 6.660156.277344-2.195312.40625-4.402343.390625-6.613281zm-64 73.121094v-8.917969c4.96875 1.734375 10.175781 2.6875 15.4375 2.828125h.371094c5.199218 0 10.191406-1.304688 15.191406-2.886719v9.65625c0 8.558594-6.941406 15.5-15.5 15.5s-15.5-6.941406-15.5-15.5zm15.570312-165.589844c44.710938-.039062 85.078126 26.753906 102.402344 67.96875 17.328125 41.210938 8.234375 88.800781-23.074218 120.71875-5.503907-17.347656-21.589844-29.144531-39.789063-29.1875h-12.109375v-.84375c3-2.894531 7.390625-6.300781 11.46875-10.371094 10.796875-10.792968 18.675781-22.164062 23.550781-33.800781 6.839844-16.324219 7.113281-33.875.839844-49.417969-4.742187-11.75-13.492187-18.675781-23.132813-18.789062-10.277343-21.496094-34.738281-32.234375-57.519531-25.25-19.199219 5.546875-35.054687 18.433594-43.484375 35.355468-5.015625 10.109376-7.398437 21.324219-6.929687 32.597657 1.171875 28.335937 17.207031 54.707031 40.207031 68.257812v2.261719h-11.964844c-18.199218.042969-34.28125 11.839844-39.789062 29.1875-31.304688-31.917969-40.398438-79.503906-23.074219-120.71875 17.328125-41.214844 57.691406-68.007812 102.398437-67.96875zm0 0"/><path d="m349.929688 226.855469c-67.972657 0-123.074219 55.101562-123.074219 123.074219 0 67.96875 55.101562 123.070312 123.074219 123.070312 67.96875 0 123.070312-55.101562 123.070312-123.070312-.078125-67.941407-55.132812-122.996094-123.070312-123.074219zm-64.230469 162.34375c-.714844-7.617188 1.8125-15.183594 6.96875-20.835938 5.152343-5.65625 12.453125-8.875 20.105469-8.863281h2.925781l8.566406 26.3125c.710937 2.183594 2.609375 3.773438 4.886719 4.085938.300781.039062.601562.054687.902344.046874l-7.132813 66.394532c-.121094.4375-.195313.882812-.222656 1.335937-13.339844-3.328125-25.953125-9.09375-37.199219-17v-50.867187c0-.203125.21875-.410156.199219-.609375zm55.332031 71.441406-5.871094-5.875 8.25-76.835937 6.136719-6.855469 6.960937 7.402343 8.191407 76.289063-5.875 5.875c-2.933594.230469-5.898438.351563-8.894531.355469-2.996094.003906-5.964844-.113282-8.898438-.351563zm72.703125-71.441406c-.019531.199219-.230469.402343-.230469.605469v50.871093c-11.09375 7.902344-23.5625 13.667969-36.769531 17 .085937-.441406.121094-.886719.105469-1.335937l-7.078125-66.394532c.445312.011719.886719-.027343 1.324219-.113281 2.046874-.425781 3.730468-1.882812 4.441406-3.847656l9.523437-26.484375h2.042969c7.605469.011719 14.851562 3.253906 19.933594 8.917969 5.078125 5.664062 7.515625 13.21875 6.703125 20.78125zm11.765625 41.675781v-40.773438c1.109375-10.875-2.433594-21.707031-9.753906-29.824218-7.316406-8.113282-17.726563-12.757813-28.652344-12.777344h-6.261719c-2.53125 0-4.792969 1.589844-5.648437 3.972656l-7.628906 21.238282-13.746094-14.621094c-1.152344-1.222656-2.761719-1.910156-4.445313-1.886719-1.679687.019531-3.273437.746094-4.394531 1.996094l-12.523438 13.988281-6.683593-20.542969c-.804688-2.46875-3.105469-4.144531-5.707031-4.144531h-7.28125c-11.011719-.019531-21.53125 4.578125-28.992188 12.675781-7.464844 8.09375-11.195312 18.949219-10.28125 29.925781v40.777344c-21-20.277344-34.871094-49.0625-34.871094-80.949218 0-61.246094 49.9375-111.074219 111.183594-111.074219s110.929688 49.828125 110.929688 111.074219c.148437 30.734374-12.640626 60.113281-35.242188 80.945312zm0 0"/><path d="m386.5 300c0-20.710938-16.789062-37.5-37.5-37.5s-37.5 16.789062-37.5 37.5v13c0 20.710938 16.789062 37.5 37.5 37.5s37.5-16.789062 37.5-37.5zm-12 13c0 14.082031-11.417969 25.5-25.5 25.5s-25.5-11.417969-25.5-25.5v-13c0-14.082031 11.417969-25.5 25.5-25.5s25.5 11.417969 25.5 25.5zm0 0"/></svg>