<?xml version="1.0"?>
<svg xmlns="http://www.w3.org/2000/svg" id="Layer_1" data-name="Layer 1" viewBox="0 0 512 512" width="512" height="512"><title>Woman Graduate</title><path d="M77.564,489H427.579c3.314,0,6.421-2.39,6.421-5.7V439.5c0-41.852-34.47-75.5-76.322-75.5H313v-3H418.409a6,6,0,0,0,2.5-11.457c-48.6-22.224-65.45-75.438-67.245-81.546A110.443,110.443,0,0,0,361,228.438v-49.56c1-.377,2.073-.741,3.116-1.129A5.981,5.981,0,0,0,368,172.127V112.736l40-15.762V208.308a25.8,25.8,0,1,0,32.155,25.021A25.387,25.387,0,0,0,420,208.213V89.514c0-.239.207-.474.18-.706a6.319,6.319,0,0,0,.157-.663,5.952,5.952,0,0,0-3.874-5.576L254.62,23.071a5.963,5.963,0,0,0-4.126,0L88.631,82.569A6,6,0,0,0,84.7,88.145a5.91,5.91,0,0,0,3.723,5.647L137,112.736v59.391a5.987,5.987,0,0,0,3.891,5.622c1.038.387,2.109.748,3.109,1.124v49.565a110.471,110.471,0,0,0,7.6,40.044c-2.553,8.176-20.155,59.372-67.586,81.061A6.008,6.008,0,0,0,86.572,361H192v3H147.465A75.276,75.276,0,0,0,72,439.5V483.3A5.4,5.4,0,0,0,77.564,489ZM204,326.817a104.326,104.326,0,0,0,97,0v39.368l-49.878,31.233L204,366.444ZM396.134,349H313V319.508a95.386,95.386,0,0,0,16.051-13.52,113.236,113.236,0,0,0,17.158-22.6C352.855,299.923,367.8,328.769,396.134,349Zm32.3-115.671a13.782,13.782,0,1,1-13.782-13.781A13.8,13.8,0,0,1,428.436,233.329ZM252.578,35.1,397.494,88.361l-37.205,14.48a6.009,6.009,0,0,0-.987.384L252.578,144.761,145.854,103.225a5.963,5.963,0,0,0-.986-.384l-37.2-14.48Zm-2.279,121.7a6.267,6.267,0,0,0,4.454,0L356,117.406V167.93a308.019,308.019,0,0,1-207,0V117.406Zm2.208,41.049A318.642,318.642,0,0,0,349,182.947v45.491a98.768,98.768,0,0,1-28.318,69.179c-18.31,18.8-42.5,29.159-68.088,29.159A94.776,94.776,0,0,1,184.4,297.617,98.849,98.849,0,0,1,156,228.438v-45.5A323.425,323.425,0,0,0,252.507,197.84ZM108.868,349c28.261-20.132,43.31-48.8,50.122-65.358a113.311,113.311,0,0,0,17.031,22.346A94.836,94.836,0,0,0,192,319.508V349ZM84,439.5A63.263,63.263,0,0,1,147.465,376h48.389l51.981,33.756a6.007,6.007,0,0,0,6.452.17L308.945,376h48.733C392.913,376,422,404.269,422,439.5V477H84Z"/></svg>
