<?xml version="1.0"?>
<svg xmlns="http://www.w3.org/2000/svg" id="Layer_1" data-name="Layer 1" viewBox="0 0 512 512" width="512" height="512"><title>Worldwide</title><path d="M479.36,152.493A30.547,30.547,0,0,0,454,122.008V87.494a6.123,6.123,0,0,0,.012-.811A5.7,5.7,0,0,0,450.2,80.2L245.419,4.928a6,6,0,0,0-4.136,0L36.494,80.2a6,6,0,0,0-.1,11.224L99,115.786V268.128a5.992,5.992,0,0,0,3.9,5.622c.378.141.754.269,1.132.409a159.237,159.237,0,0,0-18.274,74.077c0,87.785,71.418,159.2,159.2,159.2s159.2-71.419,159.2-159.2a159,159,0,0,0-18.771-75.269A6.118,6.118,0,0,0,388,268.128V115.786l54-21.179v27.5a31.031,31.031,0,0,0,1.294,61,5.884,5.884,0,0,0-.682,1.19l-14,33.007A70.714,70.714,0,0,0,423,245.306V363.087A5.736,5.736,0,0,0,428.771,369h37.846c3.314,0,6.383-2.6,6.383-5.913V244.729a71.074,71.074,0,0,0-5.464-26.894L453.8,184.381a6.321,6.321,0,0,0-.767-1.206A31,31,0,0,0,479.36,152.493ZM328.5,414.237A211.677,211.677,0,0,0,338.31,354h53.72A144.965,144.965,0,0,1,360,439.787,157,157,0,0,0,328.5,414.237ZM129.937,439.872A145.169,145.169,0,0,1,97.885,354H151.6a211.54,211.54,0,0,0,9.86,60.33A159.091,159.091,0,0,0,129.937,439.872ZM239,299.019V342H163.609a206.455,206.455,0,0,1,7.3-49.642A400.623,400.623,0,0,0,239,299.019Zm79.886-7.243A207.711,207.711,0,0,1,326.306,342H251V298.983A399.534,399.534,0,0,0,318.886,291.776ZM163.6,354H239v37.039a156.927,156.927,0,0,0-66.833,17.327A199.518,199.518,0,0,1,163.6,354ZM239,403.049v90.6c-29-15.233-50.256-41.008-62.844-73.692A147.592,147.592,0,0,1,239,403.049Zm12-.03a145.875,145.875,0,0,1,62.9,16.775c-12.579,32.759-33.9,58.592-62.9,73.849Zm0-12.011V354h75.311a199.259,199.259,0,0,1-8.469,54.2A158.868,158.868,0,0,0,251,391.008ZM338.31,342a218.77,218.77,0,0,0-7.662-52.646,402.062,402.062,0,0,0,43.3-12.263A146.043,146.043,0,0,1,392.026,342ZM111,263.938V242.046a403.626,403.626,0,0,0,132.5,22.4,403.6,403.6,0,0,0,132.5-22.4v21.893A391.066,391.066,0,0,1,111,263.938Zm265-34.645a391.03,391.03,0,0,1-265,0V205.81a403.627,403.627,0,0,0,132.5,22.4A403.627,403.627,0,0,0,376,205.81ZM159.087,290a217.376,217.376,0,0,0-7.482,52H97.889a148.561,148.561,0,0,1,17.578-64A402.323,402.323,0,0,0,159.087,290ZM137.839,449.094a146.844,146.844,0,0,1,27.775-23.021c10.779,27.133,27.444,49.826,49.032,66.223A147.184,147.184,0,0,1,137.839,449.094Zm137.43,43.2c21.627-16.426,38.312-39.169,49.089-66.367A145.309,145.309,0,0,1,352.1,449.075,147.183,147.183,0,0,1,275.269,492.3ZM376,193.058a391.024,391.024,0,0,1-265,0v-72.6l130.189,50.671a5.982,5.982,0,0,0,2.172.408,6.724,6.724,0,0,0,2.309-.408L376,120.456Zm4.127-87.19a5.936,5.936,0,0,0-1.13.439L243.357,159.1,107.721,106.309a5.977,5.977,0,0,0-1.135-.442L55.521,85.993,243.357,16.952,431.192,85.993Zm76.3,116.5A59.14,59.14,0,0,1,461,244.729V357H435V245.306a58.8,58.8,0,0,1,4.659-23.293l8.508-19.8Zm-8.018-50.846a19.027,19.027,0,1,1,19.027-19.027A19.048,19.048,0,0,1,448.407,171.52Z"/></svg>
