<svg height="464pt" viewBox="0 0 464 464.00151" width="464pt" xmlns="http://www.w3.org/2000/svg"><path d="m5.464844 271.132812 44.867187 4.324219c4.664063 19.253907 12.40625 37.625 22.925781 54.410157l-28.570312 34.507812c-1.972656 2.386719-1.808594 5.882812.378906 8.070312l46.785156 46.78125c2.1875 2.191407 5.683594 2.355469 8.070313.378907l34.550781-28.613281c16.804688 10.457031 35.152344 18.203124 54.367188 22.953124l4.324218 44.738282c.304688 3.054687 2.898438 5.367187 5.96875 5.316406h66.324219c3.070313.050781 5.667969-2.261719 5.976563-5.316406l4.320312-44.792969c19.25-4.652344 37.625-12.382813 54.410156-22.890625l34.507813 28.589844c2.382813 1.976562 5.878906 1.816406 8.070313-.371094l46.78125-46.78125c2.1875-2.1875 2.351562-5.683594.378906-8.066406l-28.613282-34.550782c10.457032-16.804687 18.203126-35.15625 22.953126-54.371093l44.296874-4.316407c3.082032-.296874 5.441407-2.875 5.460938-5.96875v-66.324218c-.019531-3.101563-2.378906-5.679688-5.464844-5.972656l-44.867187-4.324219c-4.664063-19.25-12.40625-37.625-22.925781-54.410157l28.574218-34.507812c1.960938-2.375 1.808594-5.847656-.355468-8.042969l-46.191407-46.78125c-2.1875-2.214843-5.703125-2.390625-8.101562-.40625l-34.546875 28.613281c-16.804688-10.457031-35.152344-18.203124-54.367188-22.949218l-4.320312-44.738282c-.308594-3.058593-2.90625-5.367187-5.976563-5.320312h-66.324219c-3.070312-.046875-5.664062 2.261719-5.96875 5.320312l-4.324218 44.789063c-19.25 4.652344-37.625 12.382813-54.410156 22.890625l-34.507813-28.589844c-2.382813-1.976562-5.878906-1.816406-8.070313.371094l-46.78125 46.777344c-2.1875 2.191406-2.351562 5.683594-.378906 8.070312l28.609375 34.550782c-10.457031 16.800781-18.203125 35.148437-22.949219 54.363281l-44.890624 4.324219c-3.082032.292968-5.4414068 2.875-5.460938 5.972656v66.324218c.0195312 3.097657 2.382812 5.679688 5.464844 5.96875zm6.535156-66.84375 43.769531-4.214843c2.601563-.25 4.746094-2.148438 5.308594-4.699219 4.625-20.800781 12.976563-40.59375 24.652344-58.417969 1.417969-2.199219 1.25-5.0625-.414063-7.082031l-27.902344-33.691406 39.058594-39.058594 33.695313 27.902344c2.039062 1.6875 4.949219 1.839844 7.152343.371094 17.753907-11.75 37.539063-20.089844 58.34375-24.597657 2.539063-.503906 4.449219-2.609375 4.707032-5.183593l4.210937-43.617188h55.425781l4.21875 43.621094c.25 2.585937 2.15625 4.707031 4.699219 5.234375 20.796875 4.613281 40.589844 12.953125 58.414063 24.617187 2.203125 1.414063 5.070312 1.238282 7.082031-.4375l33.667969-27.882812 38.515625 39-27.921875 33.714844c-1.691406 2.042968-1.84375 4.949218-.371094 7.15625 11.746094 17.753906 20.085938 37.539062 24.589844 58.347656.570312 2.554687 2.722656 4.453125 5.328125 4.699218l43.769531 4.21875v55.429688l-43.183594 4.210938c-2.597656.25-4.738281 2.148437-5.296875 4.699218-4.628906 20.800782-12.980469 40.589844-24.652343 58.417969-1.421876 2.199219-1.253907 5.0625.414062 7.078125l27.902344 33.695312-39.0625 39.054688-33.691406-27.898438c-2.042969-1.691406-4.949219-1.839843-7.15625-.371093-17.753907 11.75-37.539063 20.089843-58.34375 24.59375-2.535157.507812-4.445313 2.609375-4.699219 5.183593l-4.222657 43.617188h-55.425781l-4.210937-43.621094c-.253906-2.582031-2.160156-4.703125-4.703125-5.234375-20.796875-4.613281-40.589844-12.953125-58.417969-24.613281-2.199219-1.414062-5.066406-1.238281-7.078125.433594l-33.691406 27.910156-39.0625-39.054688 27.898437-33.691406c1.691406-2.042968 1.84375-4.949218.371094-7.15625-11.746094-17.75-20.082031-37.535156-24.585938-58.339844-.574218-2.554687-2.722656-4.453124-5.332031-4.699218l-43.769531-4.222656zm0 0"/><path d="m232 350.367188c65.371094 0 118.367188-52.996094 118.367188-118.367188s-52.996094-118.367188-118.367188-118.367188-118.367188 52.996094-118.367188 118.367188c.074219 65.34375 53.027344 118.292969 118.367188 118.367188zm0-12.105469c-39.652344-.03125-76.003906-22.097657-94.328125-57.261719h67.339844c3.828125 11.660156 14.714843 19.542969 26.988281 19.542969s23.160156-7.882813 26.992188-19.542969h67.339843c-18.328125 35.164062-54.679687 57.230469-94.332031 57.261719zm-89.664062-112.261719h-16.53125c1.34375-24.03125 10.832031-46.890625 26.902343-64.808594l11.542969 11.539063c2.347656 2.3125 6.121094 2.296875 8.449219-.03125 2.328125-2.332031 2.34375-6.105469.035156-8.453125l-11.546875-11.546875c17.921875-16.066407 40.78125-25.550781 64.8125-26.894531v16.53125c0 3.316406 2.6875 6 6 6 3.316406 0 6-2.683594 6-6v-16.53125c24.035156 1.34375 46.890625 10.832031 64.8125 26.902343l-11.542969 11.542969c-2.308593 2.347656-2.296875 6.121094.035157 8.449219 2.328124 2.328125 6.101562 2.34375 8.449218.035156l11.546875-11.542969c16.070313 17.917969 25.554688 40.777344 26.898438 64.808594h-16.535157c-3.3125 0-6 2.6875-6 6 0 3.316406 2.6875 6 6 6h16.535157c-.609375 10.601562-2.804688 21.050781-6.507813 31h-71.449218c-1.402344-11.695312-9.835938-21.335938-21.242188-24.285156v-50.9375c0-3.3125-2.683594-6-6-6-3.3125 0-6 2.6875-6 6v50.472656c-12.230469 2.453125-21.5625 12.390625-23.238281 24.75h-71.445313c-3.703125-9.949219-5.898437-20.398438-6.511718-31h16.53125c3.316406 0 6-2.683594 6-6 0-3.3125-2.683594-6-6-6zm89.664062 29.820312c9.066406 0 16.417969 7.347657 16.417969 16.414063s-7.351563 16.417969-16.417969 16.417969-16.414062-7.351563-16.414062-16.417969c.007812-9.0625 7.351562-16.40625 16.414062-16.414063zm0 0"/></svg>