<svg height="493pt" viewBox="-12 0 493 493.20205" width="493pt" xmlns="http://www.w3.org/2000/svg"><path d="m103.511719 420.601562h-7.289063c-1.472656.085938-2.863281.6875-3.929687 1.699219l-22.515625 19.632813-21.648438-19.621094c-1.082031-1.039062-2.507812-1.644531-4.007812-1.710938h-8.222656c-10.152344.117188-19.785157 4.492188-26.558594 12.054688-6.773438 7.5625-10.0625 17.621094-9.0625 27.726562v26.820313c-.054688 1.574219.539062 3.105469 1.636718 4.238281 1.101563 1.132813 2.613282 1.765625 4.191407 1.761719l127.242187-.015625c1.582032-.003906 3.101563-.636719 4.214844-1.765625 1.113281-1.125 1.730469-2.652344 1.714844-4.234375v-26.804688c.964844-10.121093-2.351563-20.183593-9.148438-27.742187-6.796875-7.5625-16.453125-11.925781-26.617187-12.039063zm23.835937 38.882813c-.035156.199219-.058594.402344-.070312.601563v21.101562l-115 .015625v-21.113281c0-.199219-.125-.398438-.144532-.597656-.742187-6.816407 1.441407-13.628907 6.011719-18.742188 4.480469-5.128906 10.945313-8.09375 17.753907-8.148438h5.921874l23.875 21.679688c.570313.554688 1.238282.996094 1.972657 1.300781 2.074219.675781 4.351562.183594 5.964843-1.285156l24.828126-21.695313h5.050781c6.832031.109376 13.300781 3.085938 17.835937 8.195313 4.53125 5.113281 6.707032 11.894531 6 18.6875zm0 0"/><path d="m269.894531 420.601562h-7.289062c-1.472657.085938-2.863281.6875-3.933594 1.699219l-22.515625 19.632813-21.640625-19.621094c-1.085937-1.039062-2.511719-1.644531-4.011719-1.710938h-8.21875c-10.191406.101563-19.875 4.453126-26.714844 12.007813-6.835937 7.554687-10.207031 17.621094-9.292968 27.773437v26.820313c.070312 3.328125 2.785156 5.992187 6.117187 6l127.097657-.015625c1.570312-.007812 3.070312-.652344 4.160156-1.78125 1.085937-1.128906 1.675781-2.652344 1.625-4.21875v-26.804688c1.054687-10.078124-2.183594-20.128906-8.914063-27.695312-6.734375-7.570312-16.339843-11.957031-26.46875-12.085938zm23.644531 38.882813c-.019531.203125-.261718.402344-.261718.601563v21.101562l-115 .015625v-21.113281c.023437-.199219.039062-.398438.046875-.597656-.683594-6.8125 1.519531-13.597657 6.074219-18.707032 4.554687-5.113281 11.039062-8.078125 17.886718-8.183594h5.917969l23.875 21.679688c.570313.554688 1.238281.996094 1.972656 1.300781 2.074219.675781 4.351563.183594 5.964844-1.285156l24.824219-21.695313h5.054687c6.8125.121094 13.261719 3.105469 17.761719 8.21875 4.5 5.117188 6.632812 11.894532 5.882812 18.664063zm0 0"/><path d="m363.277344 366.078125v11.550781c0 19.054688 15.445312 34.5 34.5 34.5 19.054687 0 34.5-15.445312 34.5-34.5v-11.550781c0-17.835937-13-32.578125-30-34.625v-17.519531c-.121094-3.4375-2.878906-6.203125-6.316406-6.332032h-155.683594v-39.035156l19.839844 19.828125c2.34375 2.347657 6.144531 2.347657 8.488281.003907s2.347656-6.140626.003906-8.488282l-30-30c-2.34375-2.339844-6.140625-2.339844-8.484375 0l-30 30c-1.601562 1.496094-2.261719 3.746094-1.71875 5.871094.542969 2.121094 2.199219 3.78125 4.324219 4.328125 2.121093.542969 4.371093-.113281 5.871093-1.714844l19.675782-19.679687v38.886718h-155.648438c-3.449218.128907-6.214844 2.886719-6.351562 6.332032v17.335937c-18 1.074219-32 16.273438-32 34.808594v11.550781c0 19.054688 15.445312 34.5 34.5 34.5 19.054687 0 34.5-15.445312 34.5-34.5v-11.550781c.191406-15.515625-10.0625-29.226563-25-33.425781v-13.050782h150v12.269532c-16.296875 3.265625-28.019532 17.585937-28 34.207031v11.550781c0 19.328125 15.667968 35 35 35 19.328125 0 35-15.671875 35-35v-11.550781c-.085938-17.335937-12.84375-31.996094-30-34.484375v-11.992188h150v12.511719c-15.914063 3.488281-27.191406 17.675781-27 33.964844zm-272 0v11.550781c0 12.425782-10.074219 22.5-22.5 22.5-12.425782 0-22.5-10.074218-22.5-22.5v-11.550781c0-12.425781 10.074218-22.5 22.5-22.5 12.425781 0 22.5 10.074219 22.5 22.5zm167 0v11.550781c0 12.703125-10.296875 23-23 23s-23-10.296875-23-23v-11.550781c0-12.703125 10.296875-23 23-23s23 10.296875 23 23zm162 0v11.550781c0 12.425782-10.074219 22.5-22.5 22.5-12.425782 0-22.5-10.074218-22.5-22.5v-11.550781c0-12.425781 10.074218-22.5 22.5-22.5 12.425781 0 22.5 10.074219 22.5 22.5zm0 0"/><path d="m432.660156 420.601562h-7.289062c-1.46875.085938-2.863282.6875-3.929688 1.699219l-22.519531 19.632813-21.644531-19.621094c-1.085938-1.039062-2.511719-1.648438-4.011719-1.710938h-8.21875c-10.167969.113282-19.820313 4.476563-26.617187 12.039063-6.800782 7.558594-10.117188 17.621094-9.152344 27.742187v26.820313c-.019532 1.585937.597656 3.113281 1.714844 4.242187 1.117187 1.125 2.636718 1.757813 4.222656 1.757813l127.1875-.015625c1.578125-.003906 3.089844-.644531 4.191406-1.769531 1.105469-1.128907 1.710938-2.652344 1.683594-4.230469v-26.804688c1-10.105468-2.285156-20.160156-9.058594-27.726562-6.769531-7.5625-16.40625-11.933594-26.558594-12.054688zm23.761719 38.882813c-.019531.203125-.144531.402344-.144531.601563v21.101562l-115 .015625v-21.113281c-.015625-.199219-.039063-.398438-.070313-.597656-.730469-6.824219 1.46875-13.632813 6.050781-18.742188 4.496094-5.128906 10.96875-8.09375 17.789063-8.148438h5.921875l23.871094 21.679688c.578125.554688 1.25.996094 1.988281 1.300781 2.070313.671875 4.34375.179688 5.953125-1.285156l24.828125-21.695313h5.050781c6.824219.113282 13.285156 3.09375 17.804688 8.207032 4.519531 5.113281 6.683594 11.890625 5.957031 18.675781zm0 0"/><path d="m357.347656 123.074219c0-67.972657-55.097656-123.074219-123.070312-123.074219s-123.074219 55.101562-123.074219 123.070312c0 67.972657 55.101563 123.074219 123.074219 123.074219 67.9375-.078125 122.992187-55.132812 123.070312-123.070312zm-131.972656 110.714843-5.875-5.875 8.253906-76.835937 6.136719-6.855469 6.957031 7.398438 8.195313 76.289062-5.875 5.875c-2.933594.234375-5.898438.355469-8.894531.359375-2.996094.003907-5.960938-.117187-8.898438-.355469zm-55.117188-71.441406c-.765624-7.597656 1.714844-15.164062 6.832032-20.832031 5.121094-5.667969 12.394531-8.90625 20.03125-8.914063h2.925781l8.566406 26.332032c.804688 2.507812 3.152344 4.191406 5.785157 4.152344l-7.128907 66.398437c-.054687.445313-.054687.890625-.011719 1.335937-13.273437-3.328124-25.8125-9.089843-36.980468-16.996093v-50.871094c.003906-.203125 0-.402344-.015625-.605469zm128.03125 0c-.019531.199219-.015624.398438-.015624.605469v50.871094c-11.171876 7.90625-23.710938 13.671875-36.984376 17 .050782-.445313.050782-.890625 0-1.335938l-7.132812-66.398437c2.570312.058594 4.886719-1.550782 5.726562-3.984375l9.515626-26.5h2.039062c7.632812.011719 14.90625 3.25 20.023438 8.917969 5.113281 5.667968 7.59375 13.230468 6.828124 20.828124zm-175.101562-39.273437c.183594-61.222657 49.863281-110.753907 111.085938-110.753907 61.222656 0 110.902343 49.53125 111.085937 110.753907.207031 30.714843-12.527344 60.097656-35.082031 80.945312v-40.777343c1.011718-10.925782-2.621094-21.773438-10.011719-29.886719-7.386719-8.113281-17.851563-12.742188-28.824219-12.753907h-6.265625c-2.535156.011719-4.792969 1.609376-5.644531 4l-7.632812 21.25-13.742188-14.617187c-1.144531-1.230469-2.761719-1.917969-4.445312-1.886719-1.683594.023438-3.277344.746094-4.398438 2l-12.523438 13.992188-6.683593-20.566406c-.800781-2.472657-3.101563-4.152344-5.703125-4.164063h-7.28125c-10.972656.007813-21.4375 4.636719-28.828125 12.746094-7.390625 8.113281-11.027344 18.960937-10.015625 29.886719v40.777343c-22.558594-20.847656-35.292969-50.230469-35.085938-80.945312zm0 0"/><path d="m270.277344 73.101562c0-20.710937-16.789063-37.5-37.5-37.5-20.710938 0-37.5 16.789063-37.5 37.5v13c0 20.710938 16.789062 37.5 37.5 37.5 20.710937 0 37.5-16.789062 37.5-37.5zm-12 13c0 14.082032-11.417969 25.5-25.5 25.5-14.082032 0-25.5-11.417968-25.5-25.5v-13c0-14.082031 11.417968-25.5 25.5-25.5 14.082031 0 25.5 11.417969 25.5 25.5zm0 0"/></svg>