<svg height="488pt" viewBox="0 -110 488.91434 488" width="488pt" xmlns="http://www.w3.org/2000/svg"><path d="m199.15625 128.363281c.015625 1.996094 1.027344 3.851563 2.695312 4.949219l39.324219 25.746094c1.980469 1.296875 4.535157 1.308594 6.523438.027344l40.074219-25.746094c1.738281-1.117188 2.777343-3.046875 2.757812-5.109375l-.742188-72.117188c0-.609375-.015624-1.214843-.046874-1.816406-.535157-10.261719-5.679688-19.738281-14-25.773437-8.625-6.277344-19.625-8.316407-29.925782-5.546876l-21.421875 5.769532h-7.136719c-4.957031-.082032-9.734374 1.832031-13.269531 5.304687-3.535156 3.472657-5.527343 8.222657-5.53125 13.175781v19.839844zm78.730469-62.597656.289062 28.121094-3.582031 2.632812c-1.128906.820313-2.492188 1.25-3.882812 1.226563h-7.90625c-1.78125.027344-3.496094-.691406-4.722657-1.980469-.011719-.011719-.019531.015625-.03125.003906-3.5-3.800781-8.433593-5.964843-13.601562-5.957031-5.167969.003906-10.09375 2.175781-13.585938 5.988281-.007812.011719-.019531-.054687-.027343-.042969-1.230469 1.292969-2.941407 2.011719-4.726563 1.988282h-7.902344c-1.398437.027344-2.761719-.40625-3.890625-1.226563l-3.609375-2.695312-.1875-15.335938c2.410157-10.148437 8.480469-10.820312 27.671875-7.894531 12.523438 1.90625 28.410156 4.324219 39.699219-4.828125zm-33.398438 81.125-33.402343-21.867187-.199219-16.722657c2.316406.976563 4.804687 1.464844 7.320312 1.445313h7.902344c5.160156.023437 10.089844-2.117188 13.59375-5.902344.011719-.007812.019531.019531.03125.007812 1.222656-1.308593 2.9375-2.046874 4.730469-2.039062 1.789062.003906 3.5.753906 4.714844 2.070312.011718.011719.019531-.054687.03125-.042968 3.503906 3.785156 8.433593 5.929687 13.59375 5.90625h7.90625c2.621093.019531 5.21875-.523438 7.617187-1.585938l.171875 16.835938zm-27.230469-106.144531h7.910157c.515625-.066406 1.023437-.199219 1.507812-.390625l22.167969-5.863281c6.832031-1.804688 14.117188-.425782 19.8125 3.753906 3.367188 2.445312 5.984375 5.78125 7.554688 9.636718-5.941407 14.664063-17.773438 13.675782-36.207032 10.867188-8.566406-1.304688-16.617187-2.546875-23.84375-.988281-1.96875.457031-3.878906 1.128906-5.699218 2v-12.535157c0-1.773437.726562-3.46875 2.011718-4.695312 1.28125-1.222656 3.011719-1.871094 4.785156-1.785156zm0 0"/><path d="m253.457031 118.746094h-18c-3.3125 0-6 2.6875-6 6s2.6875 6 6 6h18c3.3125 0 6-2.6875 6-6s-2.6875-6-6-6zm0 0"/><path d="m87.457031 134.84375c23.664063-.007812 42.875-19.128906 43-42.792969v-25.65625c-.09375-13.605469-6.625-26.363281-17.609375-34.390625 2.214844-10.402344-2.105468-21.109375-10.914062-27.066406-8.8125-5.957031-20.355469-5.976562-29.183594-.046875-8.832031 5.929687-13.179688 16.625-11 27.03125-9.738281 7.179687-15.960938 18.160156-17.113281 30.203125-.171875 1.730469-.179688 13.472656-.179688 13.585938v16.34375c.125 23.664062 19.335938 42.78125 43 42.789062zm-.285156-122.347656c7.519531.011718 13.6875 5.953125 13.984375 13.464844-4.496094-1.5625-9.222656-2.359376-13.980469-2.359376-4.757812-.003906-9.480469.777344-13.980469 2.316407.320313-7.492188 6.480469-13.402344 13.976563-13.417969zm.246094 23.101562c17.050781 0 30.90625 13.75 31.039062 30.796875v3.574219c-.378906.019531-.75.125-1.082031.316406-12.535156-.039062-22.464844-7.289062-22.464844-16.539062-.058594-3.335938-2.785156-6.007813-6.121094-6h-.851562c-3.3125 0-6 2.6875-6 6 0 9.273437-9.851562 16.539062-22.433594 16.539062-1.046875-.035156-2.082031-.203125-3.082031-.5.027344-2.90625.1875-5.847656.234375-6.472656 1.585938-15.78125 14.902344-27.777344 30.761719-27.710938zm-30.960938 46.429688c1.019531.167968 2.050781.25 3.085938.257812 12.21875 0 22.742187-5.023437 28.839843-12.765625 6.097657 7.742188 16.875 12.765625 29.097657 12.765625.253906 0-.019531-.019531.980469-.035156v9.804688c0 17.121093-13.878907 31-31 31-17.121094 0-31-13.878907-31-31zm0 0"/><path d="m444.820312 121.746094h-86.148437c-12.5-.019532-24.421875 5.246094-32.820313 14.5-6.796874 7.441406-10.800781 17.003906-11.34375 27.066406-7.144531-4.207031-15.269531-6.46875-23.558593-6.566406h-25.425781c-1.933594.085937-3.71875 1.066406-4.824219 2.652344l-16.5625 22.527343-15.855469-22.488281c-1.105469-1.628906-2.925781-2.628906-4.890625-2.691406h-25.414063c-9.566406.058594-18.894531 3.003906-26.753906 8.457031-6.855468-16.585937-23.019531-27.421875-40.964844-27.457031h-86.15625c-12.460937.042968-24.316406 5.375-32.621093 14.664062-8.300781 9.183594-13.023438 21.574219-11.023438 33.886719v54.449219c-.089843 1.546875.460938 3.066406 1.519531 4.199218 1.0625 1.132813 2.539063 1.785157 4.089844 1.800782h144.390625v16.246094c0 3.3125 3.15625 5.753906 6.46875 5.753906h175.0625c3.3125 0 6.46875-2.441406 6.46875-5.753906v-26.246094h144.390625c1.535156.019531 3.007813-.59375 4.074219-1.699219 1.0625-1.105469 1.617187-2.605469 1.535156-4.136719v-60.953125c2-12.3125-2.722656-24.535156-11.023437-33.71875-8.320313-9.242187-20.175782-14.511719-32.613282-14.492187zm-47.238281 33.199218h8.386719l7.261719 40.105469-11.363281 10.277344-10.609376-10.210937zm8.167969-12.199218h-8.019531l-2.28125-9h12.582031zm-137.199219 26h1.886719l1.816406 28.210937-18.785156-7.691406zm-50.09375 0h1.835938l14.480469 20.613281-18.242188 7.402344zm-135.542969 3.628906h8.597657l7.0625 34.609375-11.277344 9.515625-10.535156-9.453125zm8.214844-11.628906h-7.910156l-2.421875-11h12.753906zm59.328125 48.144531v25.855469h-138v-48.742188c0-.199218-.207031-.402344-.226562-.605468-.96875-9.0625 1.945312-18.109376 8.019531-24.902344 6.074219-6.796875 14.738281-10.699219 23.851562-10.75h24.378907l3.535156 15.355468c-.011719.046876-.03125.132813-.039063.179688l-7.578124 42.726562c-.441407 2.101563.265624 4.28125 1.863281 5.71875l16.898437 15.1875c2.226563 2.003907 5.589844 2.058594 7.882813.125l17.984375-15.179687c1.679687-1.417969 2.449218-3.636719 2.011718-5.785156l-8.730468-42.882813 3.558594-15.445312h24.390624c14.738282.117187 27.523438 10.21875 31.046876 24.53125-7.957032 9.699218-11.84375 22.105468-10.847657 34.613281zm12.199219-.898437c-.964844-9.996094 2.308594-19.933594 9.023438-27.398438 6.71875-7.460938 16.257812-11.761719 26.296874-11.847656h8.453126l-2.53125 36.933594c-.144532 2.101562.789062 4.128906 2.476562 5.390624 1.671875 1.226563 3.863281 1.507813 5.792969.734376l25.289062-10.351563v55.292969h-75v-48.148438c0-.203125.226563-.40625.199219-.605468zm163.59375 0c-.023438.199218.199219.398437.199219.605468v48.148438h-76.992188v-55.828125l27.15625 10.957031c1.914063.773438 4.089844.507812 5.761719-.699219 1.679688-1.300781 2.609375-3.347656 2.472656-5.46875l-2.386718-36.960937h8.488281c10.035156.089844 19.574219 4.390625 26.289062 11.855468 6.714844 7.460938 9.984375 17.398438 9.019531 27.390626zm150.429688-38.933594c-.019532.199218-.226563.398437-.226563.597656v55.089844h-137.996094v-15.855469c1.132813-12.960937-3.21875-25.800781-12-35.398437v-3.828126c0-.199218.078125-.398437.058594-.601562-.894531-9.058594 2.09375-18.074219 8.222656-24.808594 6.128907-6.734375 14.828125-10.550781 23.933594-10.507812h24.429687l3.46875 14.171875c-.011718.0625-.035156.078125-.046874.140625l-7.582032 48.117187c-.375 1.984375.277344 4.027344 1.734375 5.429688l16.902344 16.261719c2.269531 2.183593 5.847656 2.238281 8.183594.121093l17.996093-16.269531c1.539063-1.390625 2.25-3.476562 1.878907-5.519531l-8.742188-48.191407 3.488281-14.261718h24.4375c9.074219-.027344 17.734376 3.804687 23.8125 10.542968 6.082032 6.738282 9.007813 15.742188 8.050782 24.769532zm0 0"/><path d="m400.457031 117.464844c23.664063-.007813 42.875-19.128906 43-42.792969v-36.648437c0-15.265626-12.632812-27.277344-27.898437-27.277344h-30.207032c-15.269531 0-27.894531 12.011718-27.894531 27.277344v36.648437c.125 23.664063 19.335938 42.785156 43 42.792969zm31-79.441406v4.089843c-8 2.484375-14.113281 2.535157-20.035156-.265625-8.546875-4.046875-14.152344-13.101562-17.199219-19.101562h21.335938c8.652344 0 15.898437 6.625 15.898437 15.277344zm-50.183593-15.160157c1.363281 3.523438 3 6.929688 4.898437 10.195313-4.613281 5.328125-9.714844 8.085937-16.714844 8.238281v-3.273437c.058594-7.144532 4.902344-13.359376 11.816407-15.160157zm-11.816407 30.429688c9.046875-.148438 17.667969-3.882813 23.960938-10.386719 3.5625 3.96875 7.855469 7.214844 12.648437 9.550781 4.78125 2.261719 10.003906 3.429688 15.289063 3.414063 3.40625-.058594 6.792969-.488282 10.101562-1.28125v20.082031c0 17.121094-13.878906 31-31 31-17.121093 0-31-13.878906-31-31zm0 0"/></svg>