<svg height="479pt" viewBox="-74 0 479 479.38455" width="479pt" xmlns="http://www.w3.org/2000/svg"><path d="m10.359375 181.949219 6.234375 4.683593c5.285156 3.945313 6.921875 11.144532 3.867188 16.988282l-3.542969 6.816406c-3.703125 7.125-3.828125 15.582031-.335938 22.816406 3.492188 7.234375 10.191407 12.394532 18.074219 13.929688l7.457031 1.453125c6.5 1.242187 11.125 7.035156 10.894531 13.644531l-.238281 7.671875c-.339843 8.019531 3.171875 15.714844 9.445313 20.714844 1.332031 1.0625 3.078125 1.96875 4.078125 2.730469v179.984374c.0625 2.191407 1.28125 4.183594 3.203125 5.238282 1.921875 1.050781 4.257812 1.003906 6.136718-.121094l89.625-54.921875 89.609376 54.921875c.949218.578125 2.035156.882812 3.144531.882812 1.070312.003907 2.125-.261718 3.074219-.761718 1.925781-1.046875 3.152343-3.042969 3.207031-5.238282v-179.984374c1-.761719 2.746093-1.667969 4.078125-2.730469 6.292968-4.992188 9.828125-12.6875 9.515625-20.714844l-.273438-7.671875c-.238281-6.609375 4.382813-12.402344 10.878907-13.644531l7.449218-1.453125c7.882813-1.535156 14.582032-6.699219 18.070313-13.929688 3.492187-7.234375 3.363281-15.691406-.339844-22.816406l-3.539063-6.816406c-3.058593-5.84375-1.421874-13.042969 3.863282-16.988282l6.238281-4.683593c6.410156-4.816407 10.179687-12.367188 10.171875-20.386719-.003906-8.015625-3.785156-15.5625-10.199219-20.371094l-6.1875-4.632812c-5.296875-3.941406-6.941406-11.148438-3.878906-17l3.53125-6.800782c3.703125-7.125 3.828125-15.582031.335937-22.816406-3.492187-7.234375-10.191406-12.394531-18.074218-13.929687l-7.457032-1.453125c-6.5-1.242188-11.121093-7.03125-10.894531-13.644532l.238281-7.671874c.25-8.03125-3.300781-15.710938-9.582031-20.714844-6.285156-5.007813-14.558593-6.761719-22.332031-4.726563l-7.398438 1.941407c-6.390624 1.695312-13.0625-1.515626-15.730468-7.566407l-3.128906-7.042969c-3.261719-7.34375-9.792969-12.714843-17.625-14.496093-7.832032-1.785157-16.046876.230469-22.164063 5.4375l-5.828125 4.960937c-5.023438 4.304688-12.4375 4.304688-17.460938 0l-5.832031-4.960937c-6.117187-5.207031-14.328125-7.222657-22.160156-5.4375-7.832031 1.78125-14.367187 7.152343-17.628906 14.496093l-3.128907 7.046876c-2.664062 6.050781-9.335937 9.257812-15.726562 7.5625l-7.398438-1.941407c-7.773437-2.035156-16.050781-.28125-22.332031 4.722657-6.28125 5.007812-9.835937 12.6875-9.585937 20.71875l.242187 7.671874c.226563 6.613282-4.398437 12.402344-10.894531 13.644532l-7.457031 1.453125c-7.882813 1.535156-14.582031 6.695312-18.074219 13.929687s-3.367188 15.691406.335938 22.816406l3.53125 6.800782c3.0625 5.851562 1.414062 13.058594-3.878907 17l-6.1875 4.632812c-6.417969 4.808594-10.195312 12.355469-10.203125 20.371094-.003906 8.019531 3.765625 15.570312 10.175782 20.386719zm241.933594 280.71875-83.726563-51.246094c-2-1.179687-4.480468-1.179687-6.476562 0l-83.796875 51.246094v-166.4375c2.109375-.035157 4.210937-.316407 6.253906-.839844l7.472656-1.9375c6.398438-1.695313 13.078125 1.511719 15.757813 7.566406l3.148437 7.042969c3.234375 7.367188 9.785157 12.75 17.636719 14.5 1.882812.433594 3.808594.648438 5.742188.652344 6.027343-.003906 11.851562-2.164063 16.425781-6.089844l5.828125-4.957031c5.027344-4.308594 12.441406-4.308594 17.464844 0l5.828124 4.957031c6.117188 5.207031 14.332032 7.222656 22.164063 5.4375 7.832031-1.78125 14.363281-7.152344 17.625-14.492188l3.132813-7.046874c2.664062-6.050782 9.335937-9.261719 15.726562-7.566407l7.539062 1.941407c2.046876.519531 4.144532.800781 6.253907.839843zm-234.714844-311.875 6.1875-4.632813c10.007813-7.453125 13.117187-21.074218 7.332031-32.132812l-3.53125-6.800782c-1.957031-3.769531-2.023437-8.242187-.175781-12.066406 1.847656-3.828125 5.390625-6.558594 9.558594-7.367187l7.457031-1.453125c12.289062-2.347656 21.03125-13.296875 20.601562-25.800782l-.238281-7.671874c-.132812-4.25 1.746094-8.308594 5.066407-10.957032 3.324218-2.648437 7.703124-3.574218 11.8125-2.5l7.398437 1.941406c12.082031 3.207032 24.699219-2.863281 29.734375-14.300781l3.132812-7.046875c1.722657-3.882812 5.179688-6.726562 9.320313-7.667968 4.144531-.945313 8.488281.121093 11.722656 2.875l5.828125 4.960937c9.5 8.140625 23.519532 8.140625 33.019532 0l5.828124-4.960937c3.234376-2.753907 7.578126-3.820313 11.722657-2.875 4.140625.941406 7.597656 3.785156 9.320312 7.667968l3.132813 7.046875c5.039062 11.4375 17.652344 17.503907 29.734375 14.296875l7.398437-1.9375c4.113282-1.078125 8.492188-.152344 11.816406 2.5 3.324219 2.648438 5.199219 6.714844 5.066407 10.960938l-.238281 7.675781c-.433594 12.5 8.3125 23.453125 20.597656 25.796875l7.457031 1.453125c4.171875.8125 7.714844 3.542969 9.5625 7.367187 1.84375 3.828126 1.78125 8.300782-.179687 12.070313l-3.53125 6.800781c-5.785157 11.058594-2.675782 24.679688 7.335937 32.132813l6.183594 4.632812c3.394531 2.542969 5.394531 6.535157 5.398437 10.773438 0 4.242187-1.992187 8.234375-5.382812 10.785156l-6.238282 4.683594c-9.984374 7.457031-13.082031 21.0625-7.304687 32.109375l3.539063 6.820312c1.960937 3.769532 2.027343 8.242188.179687 12.066406-1.847656 3.828126-5.390625 6.558594-9.5625 7.367188l-7.457031 1.453125c-12.285156 2.347656-21.03125 13.296875-20.597656 25.800781l.238281 7.671875c.132812 4.246094-1.746094 8.308594-5.066407 10.957031-3.324218 2.648438-7.703124 3.574219-11.8125 2.496094l-7.402343-1.9375c-12.078125-3.203125-24.695313 2.863282-29.734375 14.300782l-3.128906 7.046874c-1.726563 3.882813-5.179688 6.722657-9.324219 7.667969-4.140625.941407-8.484375-.125-11.722657-2.878906l-5.828124-4.957031c-9.5-8.144532-23.515626-8.144532-33.015626 0l-5.828124 4.957031c-3.234376 2.753906-7.582032 3.820313-11.722657 2.878906-4.144531-.945312-7.597656-3.785156-9.324219-7.667969l-3.128906-7.046874c-4.050781-9.203126-13.15625-15.144532-23.210937-15.144532-2.203125 0-4.394531.285156-6.523438.84375l-7.402343 1.9375c-4.109376 1.078125-8.488282.152344-11.808594-2.496094-3.324219-2.648437-5.203125-6.710937-5.070313-10.957031l.238281-7.671875c.433594-12.503906-8.308593-23.453125-20.59375-25.800781l-7.457031-1.453125c-4.171875-.8125-7.714843-3.542969-9.558593-7.367188-1.847657-3.828124-1.78125-8.300781.175781-12.070312l3.539062-6.816406c5.777344-11.046875 2.683594-24.652344-7.304687-32.113282l-6.238282-4.683593c-3.390624-2.546875-5.382812-6.539063-5.382812-10.78125.003906-4.242188 2.003906-8.234375 5.398438-10.777344zm0 0"/><path d="m165.292969 264.121094c56.621093 0 102.519531-45.898438 102.519531-102.519532 0-56.621093-45.898438-102.523437-102.519531-102.523437-56.621094 0-102.519531 45.902344-102.519531 102.523437.0625 56.59375 45.925781 102.457032 102.519531 102.519532zm0-193.042969c49.992187 0 90.519531 40.527344 90.519531 90.523437 0 49.992188-40.527344 90.519532-90.519531 90.519532-49.992188 0-90.519531-40.527344-90.519531-90.519532.054687-49.972656 40.550781-90.464843 90.519531-90.523437zm0 0"/><path d="m165.292969 206.402344c24.742187 0 44.800781-20.058594 44.800781-44.800782 0-24.742187-20.058594-44.800781-44.800781-44.800781-24.742188 0-44.800781 20.058594-44.800781 44.800781.027343 24.730469 20.070312 44.769532 44.800781 44.800782zm0-77.601563c18.113281 0 32.800781 14.683594 32.800781 32.800781 0 18.113282-14.6875 32.800782-32.800781 32.800782s-32.800781-14.6875-32.800781-32.800782c.023437-18.105468 14.695312-32.78125 32.800781-32.800781zm0 0"/></svg>