<svg height="480pt" viewBox="-11 0 480 480" width="480pt" xmlns="http://www.w3.org/2000/svg"><path d="m5.382812 190.71875c-3.066406.300781-5.4023432 2.890625-5.382812 5.972656v65.359375c-.0195312 3.082031 2.316406 5.671875 5.382812 5.972657l44.230469 4.28125c4.578125 18.957031 12.210938 37.039062 22.601563 53.542968l-28.179688 33.984375c-1.980468 2.386719-1.816406 5.886719.378906 8.074219l46.425782 46.109375c2.152344 2.148437 5.160156 2.332031 8.160156.460937v59.089844c0 3.3125 2.238281 6.433594 5.554688 6.433594h249.039062c3.476562-.171875 6.25-2.957031 6.40625-6.433594v-59.417968l.085938.242187c1.035156.890625 2.359374 1.378906 3.726562 1.378906 1.574219 0 3.082031-.628906 4.1875-1.753906l46.179688-46.109375c2.1875-2.191406 2.347656-5.691406.367187-8.074219l-28.210937-34.015625c10.289062-16.546875 17.921874-34.605468 22.621093-53.515625l43.667969-4.277343c3.066406-.304688 5.394531-2.890626 5.375-5.972657v-65.359375c.019531-3.082031-2.316406-5.671875-5.382812-5.972656l-44.230469-4.277344c-4.578125-18.957031-12.210938-37.042968-22.601563-53.542968l28.183594-33.984376c1.972656-2.375 1.820312-5.859374-.351562-8.050781l-45.644532-46.109375c-2.183594-2.210937-5.699218-2.382812-8.089844-.402344l-34.035156 28.222657c-16.566406-10.292969-34.652344-17.910157-53.589844-22.574219l-4.277343-44.359375c-.277344-3.121094-2.839844-5.539063-5.972657-5.640625h-65.453124c-3.128907.0976562-5.691407 2.519531-5.972657 5.636719l-4.277343 44.257812c-18.984376 4.566407-37.097657 12.199219-53.628907 22.589844l-33.992187-28.15625c-2.386719-1.972656-5.882813-1.804687-8.070313.386719l-46.199219 46.113281c-2.195312 2.191406-2.363281 5.695313-.382812 8.082031l28.203125 34.015625c-10.285156 16.546875-17.910156 34.601563-22.601563 53.511719zm342.445313 188.210938c-.019531.203124.171875.402343.171875.605468v88.464844h-237v-88.464844c0-.199218-.234375-.398437-.253906-.605468-1.550782-14.789063 3.25-29.539063 13.203125-40.585938 9.957031-11.046875 24.132812-17.351562 39-17.34375h40.03125l6.101562 25.050781c-.085937.25-.152343.507813-.203125.769531l-11.648437 73.941407c-.394531 2.003906.253906 4.070312 1.726562 5.484375l25.949219 24.972656c2.273438 2.1875 5.847656 2.242188 8.1875.128906l27.613281-24.980468c1.539063-1.390626 2.25-3.476563 1.878907-5.515626l-13.433594-74.179687c-.03125-.171875-.089844-.300781-.136719-.460937l6.152344-25.210938h40.042969c14.910156-.023438 29.132812 6.257812 39.15625 17.296875 10.027343 11.035156 14.914062 25.796875 13.460937 40.632813zm-52.617187-69.929688h-132.261719c-7.289063-.003906-14.53125 1.230469-21.410157 3.644531-21.492187-22.378906-33.453124-52.226562-33.363281-83.253906 0-66.546875 54.222657-120.691406 120.871094-120.691406s120.871094 54.132812 120.871094 120.675781c.089843 31.023438-11.863281 60.871094-33.347657 83.257812-6.863281-2.40625-14.085937-3.636718-21.359374-3.632812zm-75.269532 44.738281h18.300782l11.945312 65.964844-20.988281 18.988281-19.660157-18.921875zm17.8125-11.738281h-17.359375l-5.0625-21h27.484375zm-177.425781-148.699219c4.585937-20.496093 12.832031-39.996093 24.339844-57.566406 1.429687-2.199219 1.265625-5.078125-.410157-7.097656l-27.5-33.164063 38.464844-38.386718 33.171875 27.5c2.035157 1.683593 4.9375 1.839843 7.140625.382812 17.511719-11.601562 37.042969-19.816406 57.585938-24.210938 2.578125-.648437 4.46875-2.851562 4.710937-5.5l4.167969-43.257812h54.5625l4.167969 43.253906c.246093 2.628906 2.148437 4.804688 4.722656 5.398438 19.746094 4.207031 39.140625 12.421875 57.640625 24.308594 2.191406 1.421874 5.050781 1.257812 7.070312-.402344l33.148438-27.46875 37.949219 38.347656-27.519531 33.195312c-1.691407 2.039063-1.84375 4.945313-.378907 7.152344 11.621094 17.476563 19.867188 36.976563 24.300781 57.492188.539063 2.542968 2.660157 4.441406 5.246094 4.695312l43.089844 4.167969v54.46875l-42.53125 4.167969c-2.578125.253906-4.699219 2.136718-5.253906 4.667968-4.582032 20.496094-12.824219 39.996094-24.328125 57.566407-1.429688 2.203125-1.261719 5.078125.414062 7.097656l27.5 33.164063-38.261719 38.390624-3.539062-3.097656v-18.734375c1-18.058593-4.425781-36.113281-16.601562-49.582031-4.4375-4.867188-9.589844-9.03125-15.28125-12.351562 21.898437-24.269532 33.96875-55.832032 33.851562-88.523438 0-73.160156-59.632812-132.683594-132.902344-132.683594-73.265625 0-132.878906 59.519532-132.878906 132.679688-.097656 32.707031 11.996094 64.277344 33.917969 88.550781-21.476563 12.875-33.59375 36.992187-31.105469 61.910156v19.074219l-3.550781 2.757812-38.578125-38.386718 27.441406-33.164063c1.683594-2.042969 1.824219-4.949219.351562-7.148437-11.628906-17.476563-19.875-36.980469-24.316406-57.492188-.539062-2.546875-2.664062-4.449218-5.25-4.703125l-43.097656-4.167969v-54.460937l43.089844-4.171875c2.574218-.253906 4.691406-2.140625 5.238281-4.667969zm0 0"/><path d="m250.285156 138h-46.375c-21.667968 0-38.910156 17.769531-38.910156 39.441406v56.265625c0 34.515625 27.980469 62.5 62.5 62.5s62.5-27.984375 62.5-62.5v-56.265625c0-21.671875-18.042969-39.441406-39.714844-39.441406zm27.714844 39.441406v8.542969c-13 4.808594-25.101562 4.71875-35.414062-.171875-16.144532-7.652344-25.722657-25.8125-29.984376-35.8125h37.679688c15.058594 0 27.71875 12.386719 27.71875 27.441406zm-77.980469-26.992187c2.53125 6.859375 5.738281 13.445312 9.582031 19.667969-8.726562 11.050781-19.59375 16.214843-32.601562 15.5v-8.179688c-.066406-13.457031 9.722656-24.933594 23.019531-26.988281zm27.480469 133.742187c-27.871094-.03125-50.460938-22.613281-50.5-50.484375v-36.0625c0 .027344 1.273438.046875 2 .046875 14.542969 0 27.4375-6.046875 37.613281-17.527344 5.59375 6.9375 12.625 12.578126 20.609375 16.535157 6.902344 3.265625 14.445313 4.945312 22.082032 4.917969 6.339843-.105469 12.636718-1.105469 18.699218-2.96875v35.058593c-.039062 27.875-22.632812 50.457031-50.503906 50.484375zm0 0"/></svg>