<svg height="496pt" viewBox="-12 0 496 496.00974" width="496pt" xmlns="http://www.w3.org/2000/svg"><path d="m466.648438 195.953125-45.75-4.425781c-4.722657-19.628906-12.625-38.347656-23.394532-55.425782l29.167969-35.164062c1.96875-2.375 1.816406-5.855469-.351563-8.050781l-47.082031-47.570313c-2.1875-2.210937-5.699219-2.382812-8.089843-.402344l-35.214844 29.203126c-17.144532-10.667969-35.867188-18.558594-55.476563-23.371094l-4.425781-45.5c-.316406-3.039063-2.917969-5.324219-5.972656-5.24218775h-67.527344c-3.054688-.08203125-5.65625 2.20312475-5.96875 5.24218775l-4.425781 45.59375c-19.65625 4.679687-38.410157 12.546875-55.519531 23.285156l-35.175782-29.183594c-2.378906-1.980468-5.871094-1.824218-8.066406.359375l-47.664062 47.5625c-2.191407 2.1875-2.355469 5.6875-.378907 8.074219l29.179688 35.195312c-10.664063 17.121094-18.566407 35.816407-23.414063 55.398438l-45.738281 4.429688c-3.058594.300781-5.3828125 2.890624-5.35546875 5.964843v67.429688c-.03125005 3.078125 2.29296875 5.667969 5.35546875 5.972656l45.75 4.425781c4.726563 19.628906 12.628906 38.351563 23.394531 55.429688l-29.164062 35.164062c-1.980469 2.382813-1.816406 5.886719.375 8.078125l47.664062 47.566407c2.191406 2.183593 5.683594 2.347656 8.066406.371093l.984376-.84375c-.269532 2.386719-.410157 4.785157-.425782 7.1875v57.644531c.03125 1.5625.691406 3.046876 1.835938 4.109376 1.144531 1.066406 2.667968 1.621093 4.230468 1.542968h256.023438c1.542969.074219 3.050781-.488281 4.167969-1.554687 1.117187-1.070313 1.75-2.550781 1.742187-4.097657v-57.644531c.011719-2.535156-.121094-5.066406-.398437-7.585937l1.519531 1.242187c2.390625 1.976563 5.886719 1.8125 8.085938-.371093l47.667968-47.566407c2.191406-2.191406 2.359375-5.691406.378906-8.078125l-29.179687-35.199218c10.664063-17.125 18.566406-35.820313 23.417969-55.402344l45.160156-4.425782c3.058594-.304687 5.375-2.894531 5.347656-5.964843v-67.429688c.03125-3.074219-2.292968-5.667969-5.355468-5.972656zm-108.644532 288.050781h-244v-51.296875c.070313-30.234375 24.601563-54.707031 54.835938-54.703125h25.117187c2.472657 21.265625 20.488281 37.3125 41.902344 37.3125 21.410156 0 39.425781-16.046875 41.898437-37.3125h25.558594c30.210938.003906 54.691406 24.496094 54.6875 54.703125zm-44-236.5.332032-7.019531c.277343-19.199219-8.742188-36.847656-24.324219-47.210937-6.238281-4.238282-13.363281-7-20.832031-8.074219-2.460938-.335938-4.875.886719-6.058594 3.070312-33.914063 62.074219-94.230469 68.90625-98.433594 69.308594-4.238281.117187-7.628906 3.554687-7.683594 7.792969v12.746094c.003906 15.710937 4.742188 31.050781 13.59375 44.027343-20.386718-22.261719-32.257812-51.007812-33.519531-81.167969-.726563-16.4375 2.707031-32.789062 9.980469-47.546874 12.324218-24.730469 35.652344-43.601563 63.964844-51.789063 17.121093-4.949219 34.085937-3.535156 49.054687 4.082031 14.101563 7.171875 25.074219 19.207032 31.738281 34.8125l.433594 1.300782c.984375 2.949218 4.054688 4.660156 7.082031 3.941406 17.992188-4.269532 27.558594 16.960937 29.296875 21.261718 9.0625 22.449219 8.5625 47.921876-1.40625 71.71875-5.179687 12.363282-12.929687 24.609376-22.671875 36.570313 6.292969-11.714844 9.542969-24.820313 9.453125-38.121094zm-125.1875 77.882813c-12.675781-12.460938-19.816406-29.492188-19.8125-47.269531v-9.015626c15-2.1875 69.074219-14.042968 102.382813-71.242187 4.285156 1.117187 8.351562 2.945313 12.03125 5.410156 12.167969 8.09375 19.105469 21.941407 18.882812 37.042969l-.296875 7.101562v29.789063c0 36.953125-29.425781 67.238281-65.871094 67.507813h-.457031c-17.566406.046874-34.433593-6.90625-46.859375-19.324219zm110.199219 14.136719c17.980469-17.960938 31.195313-36.847657 39.273437-56.132813 11.199219-26.734375 11.71875-55.445313 1.46875-80.847656-3.644531-9.027344-9.152343-16.8125-15.511718-21.917969-6.265625-5.277344-14.34375-7.910156-22.515625-7.339844-7.875-17-20.339844-30.1875-36.199219-38.257812-17.476562-8.894532-38.011719-10.640625-57.820312-4.914063-31.53125 9.109375-57.539063 30.238281-71.359376 57.960938-8.164062 16.574219-12.015624 34.941406-11.199218 53.402343 1.777344 42.972657 23.753906 83.199219 57.277344 106.777344-17.941407-8.566406-33.601563-21.253906-45.707032-37.027344-16.648437-21.671874-25.636718-48.253906-25.550781-75.582031 0-68.753906 56.023437-124.691406 124.882813-124.691406 68.859374 0 124.882812 55.9375 124.882812 124.691406.085938 27.34375-8.910156 53.945313-25.582031 75.625-12.015625 15.636719-27.53125 28.238281-45.300781 36.792969 2.914062-2.640625 5.902343-5.488281 8.960937-8.539062zm-93.011719 32.40625v-21.199219c9.496094 4.007812 19.707032 6.042969 30.015625 5.980469h.5c10.136719-.058594 20.164063-2.140626 29.484375-6.128907v22.503907c0 16.566406-13.429687 30-30 30-16.566406 0-30-13.433594-30-30zm254-108.015626-44.019531 4.3125c-2.574219.253907-4.691406 2.140626-5.238281 4.671876-4.730469 21.164062-13.238282 41.300781-25.117188 59.445312-1.429687 2.203125-1.261718 5.082031.414063 7.101562l28.484375 34.34375-39.921875 39.851563-10.636719-8.785156c-10.90625-23.671875-34.585938-38.839844-60.648438-38.851563h-25.316406v-.246094c26.503906-8.699218 49.792969-25.140624 66.863282-47.199218 18.28125-23.769532 28.152343-52.933594 28.0625-82.917969 0-75.371094-61.402344-136.6875-136.878907-136.6875-75.480469 0-136.882812 61.316406-136.882812 136.6875.15625 59.285156 38.429687 111.746094 94.835937 129.996094v.367187h-25.164062c-26.285156.015625-50.121094 15.445313-60.898438 39.421875l-9.953125 8.230469-39.925781-39.855469 28.476562-34.347656c1.691407-2.039063 1.84375-4.949219.378907-7.15625-12.007813-18.046875-20.519531-38.1875-25.101563-59.375-.523437-2.539063-2.640625-4.441406-5.21875-4.695313l-44.59375-4.324218v-56.527344l44.601563-4.320312c2.578125-.25 4.695312-2.140626 5.246093-4.667969 4.730469-21.167969 13.238282-41.304688 25.117188-59.449219 1.429688-2.203125 1.261719-5.082031-.417969-7.101562l-28.484375-34.347657 39.921875-39.847656 34.355469 28.484375c2.035156 1.6875 4.933594 1.84375 7.136719.386719 18.085937-11.980469 38.257812-20.460938 59.46875-25 2.53125-.46875 4.449219-2.550781 4.714843-5.113281l4.316407-44.394532h56.628906l4.320313 44.390625c.257812 2.582031 2.175781 4.695313 4.722656 5.199219 21.191406 4.664062 41.359375 13.132812 59.523437 25 2.203125 1.40625 5.066407 1.226562 7.074219-.449219l34.328125-28.472656 39.394531 39.789063-28.5 34.371093c-1.691406 2.039063-1.84375 4.945313-.378906 7.148438 12.003906 18.050781 20.515625 38.191406 25.097656 59.375.527344 2.539062 2.640625 4.441406 5.21875 4.695312l44.601563 4.320313zm0 0"/></svg>