<svg height="484pt" viewBox="-50 0 484 484" width="484pt" xmlns="http://www.w3.org/2000/svg"><path d="m378.519531 158.828125-36.195312-3.5c-3.808594-15.414063-10.023438-30.128906-18.425781-43.601563l23.011718-27.761718c1.96875-2.378906 1.8125-5.859375-.359375-8.050782l-38.03125-38.421874c-2.1875-2.210938-5.703125-2.386719-8.097656-.398438l-27.808594 23.058594c-13.523437-8.320313-28.242187-14.519532-43.640625-18.386719l-3.5-36.210937c-.285156-3.101563-2.855468-5.492188-5.96875-5.554688h-54.539062c-3.117188.0625-5.6875 2.453125-5.972656 5.554688l-3.492188 36.144531c-15.4375 3.789062-30.179688 9.996093-43.679688 18.386719l-27.769531-23.007813c-2.386719-1.972656-5.882812-1.808594-8.070312.382813l-38.5 38.421874c-2.195313 2.191407-2.359375 5.695313-.378907 8.082032l23.042969 27.789062c-8.316406 13.507813-14.527343 28.199219-18.421875 43.574219l-36.242187 3.5c-3.085938.292969-5.4531252 2.871094-5.480469 5.972656v54.460938c.0273438 3.101562 2.394531 5.679687 5.480469 5.972656l36.199219 3.5c3.808593 15.414063 10.027343 30.132813 18.429687 43.605469l-23.007813 27.761718c-1.980468 2.386719-1.8125 5.886719.382813 8.074219l38.5 38.421875c2.191406 2.1875 5.683594 2.347656 8.066406.371094l27.808594-23.058594c1.375.835938 2.753906 1.640625 4.132813 2.425782 2.183593 6.171874 5.765624 11.753906 10.46875 16.308593l5.917968 5.714844c5.570313 5.367187 8.875 12.664063 9.234375 20.394531l5.207031 109.398438c.140626 3.222656 2.761719 5.785156 5.988282 5.847656h78.683594c3.230468-.0625 5.851562-2.621094 5.992187-5.847656l5.214844-109.410156c.355469-7.699219 3.628906-14.972657 9.15625-20.347657l5.921875-5.777343c4.578125-4.46875 8.085937-9.917969 10.265625-15.933594 1.546875-.882813 3.089843-1.792969 4.609375-2.734375l27.769531 23.023437c2.382813 1.976563 5.878906 1.8125 8.066406-.375l38.5-38.417968c2.195313-2.191407 2.363281-5.691407.382813-8.078126l-23.042969-27.789062c8.316406-13.507812 14.527344-28.203125 18.421875-43.582031l35.777344-3.5c3.082031-.296875 5.445312-2.871094 5.472656-5.964844v-54.464844c-.027344-3.101562-2.394531-5.679687-5.480469-5.972656zm-119.6875 88.695313c-.023437.203124.167969.402343.167969.609374v64.105469c-.09375 8.21875-3.476562 16.054688-9.390625 21.761719l-6.023437 5.761719c-7.726563 7.527343-12.308594 17.703125-12.824219 28.480469l-4.988281 103.757812h-67.242188l-4.9375-103.683594c-.496094-10.800781-5.109375-21.003906-12.882812-28.515625l-5.679688-5.75c-5.84375-5.769531-9.101562-13.660156-9.03125-21.871093v-64.046876c0-.203124-.25-.402343-.269531-.601562-.839844-7.988281 1.703125-15.960938 7.011719-21.984375 5.277343-5.976563 12.832031-9.441406 20.800781-9.542969h3.191406l8.929687 27.675782c.890626 2.574218 3.3125 4.300781 6.035157 4.304687l-7.417969 69.117187c-.195312 1.808594.4375 3.609376 1.71875 4.898438l21.816406 21.824219c2.339844 2.34375 6.140625 2.347656 8.484375.003906l21.8125-21.816406c1.285157-1.28125 1.917969-3.078125 1.726563-4.882813l-7.421875-69.074218c.519531.03125 1.042969-.007813 1.554687-.113282 2.070313-.527344 3.734375-2.066406 4.425782-4.09375l9.917968-27.847656h2.273438c8.039062.105469 15.667968 3.578125 21.035156 9.566406 5.367188 5.992188 7.980469 13.953125 7.207031 21.957032zm-59.742187-11.234376 8.515625 79.269532-15.542969 15.542968-15.542969-15.542968 8.574219-79.832032 6.566406-7.339843zm31.5-32.289062h-6.488282c-2.574218.105469-4.816406 1.78125-5.648437 4.21875l-8.035156 22.480469-14.398438-15.25c-.640625-.703125-1.4375-1.242188-2.328125-1.570313-2.328125-.882812-4.957031-.242187-6.613281 1.617188l-13.234375 14.796875-7.050781-21.902344c-.777344-2.519531-3.0625-4.277344-5.699219-4.386719h-7.550781c-11.328125.105469-22.078125 5.011719-29.582031 13.496094-7.535157 8.332031-11.960938 19.746094-9.960938 30.921875v5.027344c-13.988281-17.402344-21.558594-39.089844-21.4375-61.417969.046875-54.980469 44.617188-99.53125 99.597656-99.558594 54.984375 0 99.859375 44.664063 99.859375 99.558594 0 22.625-8.015625 43.941406-21.015625 61.355469v-4.964844c.980469-11.359375-2.828125-22.609375-10.5-31.042969s-18.515625-13.28125-29.914062-13.378906zm141.410156 9.820312-34.628906 3.382813c-2.589844.253906-4.726563 2.136719-5.300782 4.671875-3.800781 16.960938-10.628906 33.101562-20.15625 47.636719-1.433593 2.199219-1.273437 5.078125.398438 7.101562l22.328125 26.929688-30.761719 30.699219-26.742187-22.332032c-1.703125-1.464844-4.105469-1.789062-6.136719-.828125v-39.738281c21.101562-20.996094 32.960938-49.542969 32.957031-79.3125 0-61.511719-50.21875-111.558594-111.816406-111.558594-61.59375.039063-111.507813 49.96875-111.527344 111.558594 0 29.730469 11.386719 58.488281 33.386719 79.359375v39.554687c-2.101562-.789062-4.460938-.421874-6.226562.964844l-27.058594 22.335938-30.824219-30.699219 22.300781-26.929687c1.6875-2.042969 1.832032-4.949219.363282-7.152344-9.617188-14.457032-16.441407-30.59375-20.113282-47.566406-.578125-2.554688-2.734375-4.449219-5.339844-4.699219l-35.101562-3.382813v-43.566406l35.09375-3.390625c2.589844-.246094 4.730469-2.128906 5.304688-4.667969 3.800781-16.964844 10.628906-33.101562 20.15625-47.636718 1.4375-2.199219 1.273437-5.078126-.398438-7.101563l-22.328125-26.933594 30.761719-30.703125 26.941406 22.339844c2.035156 1.6875 4.9375 1.84375 7.140625.382812 14.488281-9.597656 30.648437-16.390624 47.640625-20.027343 2.570312-.609375 4.46875-2.792969 4.710938-5.421875l3.386718-35.089844h43.648438l3.386718 35.089844c.25 2.617187 2.152344 4.78125 4.722657 5.355468 16.984375 3.761719 33.144531 10.574219 47.699219 20.105469 2.195312 1.417969 5.054687 1.25 7.074218-.410156l26.914063-22.308594 30.335937 30.65625-22.351562 26.957031c-1.691406 2.042969-1.847656 4.949219-.378906 7.15625 9.613281 14.457032 16.433593 30.589844 20.101562 47.5625.578125 2.558594 2.734375 4.453126 5.339844 4.699219l35.097656 3.386719zm0 0"/><path d="m230 135.722656c0-21.386718-17.335938-38.722656-38.722656-38.722656h-.554688c-21.386718 0-38.722656 17.335938-38.722656 38.722656v13.554688c0 21.386718 17.335938 38.722656 38.722656 38.722656h.554688c21.386718 0 38.722656-17.335938 38.722656-38.722656zm-12 13.554688c0 14.757812-11.964844 26.722656-26.722656 26.722656h-.554688c-14.757812 0-26.722656-11.964844-26.722656-26.722656v-13.554688c0-14.757812 11.964844-26.722656 26.722656-26.722656h.554688c14.757812 0 26.722656 11.964844 26.722656 26.722656zm0 0"/></svg>