<svg height="482pt" viewBox="-86 0 482 482.16895" width="482pt" xmlns="http://www.w3.org/2000/svg"><path d="m110.265625 343.167969c0 3.3125 2.6875 6 6 6h49.734375c-2.753906 12-13.886719 21-27.171875 21h-22.5625c-2.480469.078125-4.675781 1.632812-5.570313 3.949219-.898437 2.316406-.328124 4.941406 1.449219 6.675781l56.390625 53.328125c1.152344 1.101562 2.691406 1.699218 4.285156 1.660156 1.589844-.039062 3.101563-.710938 4.195313-1.867188 2.277344-2.472656 2.171875-6.308593-.238281-8.652343l-45.425782-43.09375h7.476563c19.921875 0 36.472656-14 39.375-33h16.90625c3.316406 0 6-2.6875 6-6 0-3.316407-2.683594-6-6-6h-16.902344c-1.171875-8.320313-5.003906-16.039063-10.921875-22h27.828125c3.3125 0 6-2.6875 6-6 0-3.316407-2.6875-6-6-6h-78.847656c-3.3125 0-6 2.683593-6 6 0 3.3125 2.6875 6 6 6h22.5625c13.15625-.113281 24.542969 9.109375 27.171875 22h-49.734375c-3.3125 0-6 2.683593-6 6zm0 0"/><path d="m6.046875 458.628906c8.039063 14.648438 23.480469 23.691406 40.191406 23.539063h217.335938c16.675781.035156 32.0625-8.976563 40.1875-23.539063 8.125-14.566406 7.710937-32.390625-1.082031-46.5625l-87.433594-140.714844c-9.289063-14.839843-14.257813-31.976562-14.339844-49.484374v-54.699219h3.398438c3.316406 0 5.601562-2.683594 5.601562-6v-36.851563c0-3.3125-2.289062-6.148437-5.601562-6.148437h-16.480469c.742187-2.339844 1.109375-4.785157 1.082031-7.242188.003906-13.808593-11.183594-25.003906-24.992188-25.007812-13.804687-.007813-25.003906 11.183593-25.007812 24.988281-.03125 2.460938.335938 4.914062 1.078125 7.261719h-31.339844c-1.582031.042969-3.074219.71875-4.152343 1.875-1.078126 1.15625-1.652344 2.691406-1.585938 4.273437v36.855469c0 3.234375 2 5.863281 5 5.988281v54.707032c.089844 17.46875-4.703125 34.613281-13.839844 49.5l-87.0625 140.699218c-8.871094 14.160156-9.238281 32.050782-.957031 46.5625zm144.859375-347.703125c-.007812-7.179687 5.808594-13.003906 12.988281-13.007812 7.179688-.007813 13.003907 5.808593 13.011719 12.988281.027344 2.597656-.761719 5.136719-2.257812 7.261719h-21.488282c-1.492187-2.117188-2.28125-4.652344-2.253906-7.242188zm-36 19.242188h83v25h-83zm-97.574219 288.261719 86.933594-140.738282c10.316406-16.789062 15.734375-36.121094 15.640625-55.824218v-54.699219h69v54.699219c.082031 19.746093 5.671875 39.078124 16.136719 55.820312l87.308593 140.738281c6.519532 10.441407 6.855469 23.601563.871094 34.359375-5.984375 10.757813-17.339844 17.414063-29.648437 17.382813h-217.335938c-12.316406.039062-23.683593-6.605469-29.691406-17.355469-6.003906-10.753906-5.703125-23.917969.789063-34.382812zm0 0"/><path d="m83.90625 64c0 13.808594 11.191406 25 25 25 13.804688 0 25-11.191406 25-25s-11.195312-25-25-25c-13.800781.015625-24.984375 11.199219-25 25zm38 0c0 7.179688-5.820312 13-13 13s-13-5.820312-13-13 5.820312-13 13-13c7.175781.007812 12.992188 5.824219 13 13zm0 0"/><path d="m148.90625 25c0 13.808594 11.191406 25 25 25 13.804688 0 25-11.191406 25-25s-11.195312-25-25-25c-13.800781.015625-24.984375 11.199219-25 25zm38 0c0 7.179688-5.820312 13-13 13s-13-5.820312-13-13 5.820312-13 13-13c7.175781.007812 12.992188 5.824219 13 13zm0 0"/></svg>