<svg height="506pt" viewBox="0 -50 506.09323 506" width="506pt" xmlns="http://www.w3.org/2000/svg"><path d="m449.679688 145.589844c-1.121094-1.621094-2.964844-2.589844-4.9375-2.589844-1.972657 0-3.820313.96875-4.941407 2.589844l-55.34375 80.207031c-1.265625 1.789063-1.410156 4.136719-.375 6.066406 1.050781 1.945313 3.105469 3.132813 5.3125 3.078125h47.363281c-6.585937 45-29.933593 85.402344-66.121093 114.902344-34.207031 27.875-77.199219 43.929688-117.949219 43.929688-26.585938 0-54.378906-6.773438-80.367188-19.652344-26.691406-13.160156-50.054687-32.195313-68.332031-55.683594-2.027343-2.621094-5.792969-3.105469-8.417969-1.082031-2.625 2.027343-3.109374 5.796875-1.082031 8.421875 19.390625 24.933594 44.183594 45.148437 72.507813 59.125 27.636718 13.699218 57.269531 20.9375 85.699218 20.9375 43.464844 0 89.21875-17.101563 125.53125-46.695313 39-31.78125 63.988282-75.199219 70.65625-124.199219h51.203126c2.210937.0625 4.269531-1.132812 5.3125-3.082031 1.046874-1.949219.902343-4.320312-.371094-6.128906zm-48.855469 77.351562 43.917969-63.640625 43.914062 63.640625zm0 0"/><path d="m56.414062 260.292969c1.121094 1.625 2.964844 2.59375 4.9375 2.59375 1.972657 0 3.820313-.96875 4.9375-2.59375l55.347657-80.207031c1.265625-1.785157 1.410156-4.136719.375-6.0625-1.054688-1.945313-3.105469-3.132813-5.3125-3.082032h-47.363281c6.585937-45 29.933593-85.398437 66.121093-114.898437 34.207031-27.878907 77.199219-43.933594 117.949219-43.933594 26.585938 0 54.378906 6.777344 80.367188 19.65625 26.691406 13.15625 50.054687 32.195313 68.332031 55.679687 2.023437 2.625 5.792969 3.109376 8.417969 1.082032 2.621093-2.023438 3.105468-5.792969 1.082031-8.417969-19.390625-24.933594-44.183594-45.148437-72.507813-59.125-27.636718-13.703125-57.269531-20.9375-85.699218-20.9375-43.46875 0-89.222657 17.101563-125.53125 46.695313-39 31.78125-63.988282 75.199218-70.65625 124.199218h-51.203126c-2.210937-.0625-4.269531 1.128906-5.3125 3.078125-1.046874 1.949219-.902343 4.324219.371094 6.128907zm48.855469-77.351563-43.917969 63.644532-43.914062-63.644532zm0 0"/><path d="m285.046875 82.816406c0-18.15625-14.71875-32.875-32.875-32.875h-.25c-18.15625 0-32.875 14.71875-32.875 32.875v11.253906c0 18.152344 14.71875 32.871094 32.875 32.871094h.25c18.15625 0 32.875-14.71875 32.875-32.871094zm-12 11.253906c0 11.527344-9.347656 20.871094-20.875 20.871094h-.25c-11.53125 0-20.875-9.34375-20.875-20.871094v-11.253906c0-11.527344 9.34375-20.875 20.875-20.875h.25c11.527344 0 20.875 9.347656 20.875 20.875zm0 0"/><path d="m198.207031 239.464844 4.96875 4.695312c4.394531 4.210938 7.011719 9.945313 7.308594 16.027344l4.304687 89.890625c.15625 3.230469 2.785157 5.796875 6.023438 5.863281h64.617188c3.230468-.070312 5.855468-2.636718 5.992187-5.863281l4.28125-89.878906c.285156-6.050781 2.855469-11.773438 7.203125-16l5.074219-4.75c6.980469-6.75 10.964843-16.019531 11.066406-25.730469v-52.359375c0-9.460937-2.484375-19.019531-8.863281-26.078125-6.539063-7.179688-15.785156-11.292969-25.492188-11.339844h-5.332031c-2.550781.046875-4.804687 1.675782-5.648437 4.082032l-6.003907 16.765624-10.703125-11.359374c-1.152344-1.21875-2.765625-1.902344-4.449218-1.878907-1.679688.027344-3.273438.753907-4.390626 2.007813l-9.628906 10.757812-5.214844-16.121094c-.789062-2.492187-3.082031-4.203124-5.699218-4.253906h-6.199219c-9.710937.046875-18.960937 4.160156-25.5 11.34375-6.386719 7.058594-8.875 16.613282-8.875 26.074219v52.3125c.101563 9.75 4.125 19.046875 11.160156 25.792969zm54.53125-93.023438 5.054688 5.375 6.898437 64.234375-11.644531 11.644531-11.644531-11.644531 6.949218-64.707031zm-47.710937-3.113281c4.15625-4.6875 10.117187-7.375 16.382812-7.386719h1.847656l7.089844 21.894532c.699219 2.160156 2.550782 3.746093 4.789063 4.105468l-5.972657 55.652344c-.195312 1.8125.441407 3.613281 1.722657 4.902344l17.917969 17.921875c2.34375 2.34375 6.140624 2.34375 8.484374 0l17.917969-17.917969c1.28125-1.28125 1.914063-3.078125 1.722657-4.882812l-5.976563-55.613282c.101563-.015625.203125-.023437.308594-.042968 2.058593-.472657 3.730469-1.964844 4.425781-3.957032l7.890625-22.0625h1.113281c6.257813.09375 12.199219 2.777344 16.402344 7.417969 4.203125 4.636719 6.292969 10.8125 5.769531 17.050781-.019531.199219.183594.460938.183594.660156v52.648438c-.09375 6.464844-2.773437 12.625-7.4375 17.101562l-4.96875 4.730469c-6.546875 6.386719-10.429687 15.015625-10.867187 24.152344l-4.0625 84.238281h-53.179688l-4-84.171875c-.421875-9.152343-4.324219-17.796875-10.910156-24.164062l-5.070313-4.730469c-4.703125-4.5-7.40625-10.695312-7.5-17.203125v-52.597656c0-.199219.199219-.460938.183594-.660157-.589844-6.261718 1.519531-12.472656 5.792969-17.085937zm0 0"/></svg>