<svg height="490pt" viewBox="-1 0 490 490.00585" width="490pt" xmlns="http://www.w3.org/2000/svg"><path d="m482.660156 203.929688-47.675781-4.597657c-5.023437-20.472656-13.265625-40.015625-24.417969-57.902343l30.453125-36.761719c1.976563-2.382813 1.8125-5.878907-.375-8.070313l-49.511719-49.507812c-2.1875-2.191406-5.683593-2.355469-8.066406-.382813l-36.71875 30.410157c-17.863281-11.226563-37.433594-19.46875-57.945312-24.402344l-4.597656-47.5c-.320313-3.035156-2.921876-5.3046878-5.96875-5.21093775h-67.664063c-3.050781-.09765625-5.65625 2.17578175-5.972656 5.21093775l-4.601563 47.605468c-20.507812 4.917969-40.074218 13.140626-57.941406 24.351563l-36.71875-30.4375c-2.378906-1.976563-5.875-1.820313-8.066406.367187l-49.515625 49.507813c-2.191407 2.1875-2.355469 5.683594-.378907 8.066406l30.445313 36.761719c-11.160156 17.882812-19.410156 37.425781-24.441406 57.898438l-47.632813 4.601562c-3.058594.304688-5.378906 2.894531-5.34374975 5.964844v70.199218c-.03515625 3.078126 2.28515575 5.667969 5.34374975 5.972657l47.671875 4.601562c4.929688 20.507813 13.167969 40.078125 24.382813 57.9375l-30.417969 36.71875c-1.972656 2.382813-1.8125 5.878907.375 8.070313l49.511719 49.515625c2.191406 2.1875 5.683594 2.351562 8.070312.378906l36.761719-30.445313c17.886719 11.160157 37.429687 19.410157 57.898437 24.441407l4.601563 47.5c.316406 3.03125 2.921875 5.304687 5.96875 5.210937h67.664063c3.050781.097656 5.65625-2.179687 5.972656-5.210937l4.601562-47.609375c20.464844-5.007813 40.007813-13.238282 57.894532-24.378906l36.761718 30.46875c2.382813 1.980468 5.875 1.820312 8.070313-.363282l49.511719-49.511718c2.1875-2.1875 2.351562-5.679688.382812-8.066407l-30.410156-36.714843c11.222656-17.863282 19.464844-37.429688 24.398437-57.941407l47.636719-4.601562c3.058594-.300781 5.382812-2.894531 5.347656-5.972657v-70.199218c.035156-3.074219-2.285156-5.667969-5.34375-5.972656zm-6.65625 70.722656-46.519531 4.492187c-2.585937.253907-4.710937 2.15625-5.246094 4.699219-4.769531 22.0625-13.609375 43.042969-26.0625 61.871094-1.464843 2.207031-1.3125 5.113281.382813 7.152344l29.746094 35.914062-41.789063 41.789062-35.898437-29.734374c-2.015626-1.667969-4.882813-1.839844-7.082032-.421876-18.902344 12.375-39.890625 21.226563-61.945312 26.128907-2.519532.460937-4.433594 2.527343-4.699219 5.078125l-4.503906 46.382812h-56.765625l-4.492188-46.382812c-.257812-2.574219-2.164062-4.679688-4.699218-5.183594-22.054688-4.882812-43.042969-13.71875-61.949219-26.074219-2.203125-1.414062-5.066407-1.230469-7.078125.445313l-35.910156 29.75-41.789063-41.785156 29.734375-35.898438c1.691406-2.042969 1.84375-4.949219.371094-7.15625-12.457032-18.824219-21.300782-39.804688-26.078125-61.867188-.515625-2.542968-2.628907-4.449218-5.207031-4.707031l-46.519532-4.492187v-59.300782l46.515625-4.488281c2.589844-.253906 4.714844-2.160156 5.25-4.707031 4.894531-22.054688 13.738281-43.039062 26.109375-61.945312 1.414063-2.199219 1.242188-5.066407-.429687-7.078126l-29.746094-35.90625 41.789063-41.789062 35.898437 29.734375c2.042969 1.6875 4.949219 1.839844 7.15625.367187 18.824219-12.457031 39.804687-21.300781 61.871094-26.078124 2.519531-.457032 4.433593-2.527344 4.699219-5.074219l4.503906-46.382813h56.765625l4.492187 46.382813c.253906 2.574219 2.164063 4.675781 4.699219 5.183593 22.058594 4.757813 43.042969 13.582032 61.871094 26.023438 2.210937 1.460938 5.121093 1.300781 7.152343-.398438l35.910157-29.746093 41.792969 41.78125-29.738282 35.902343c-1.667968 2.015626-1.835937 4.878907-.417968 7.078126 12.375 18.902343 21.226562 39.890624 26.128906 61.945312.515625 2.539062 2.625 4.449219 5.207031 4.703125l46.519531 4.492187zm0 0"/><path d="m245.058594 82.691406c-89.5 0-162.3125 72.8125-162.3125 162.3125s72.8125 162.3125 162.3125 162.3125 162.3125-72.8125 162.3125-162.3125-72.8125-162.3125-162.3125-162.3125zm-115.945313 257.871094-.597656-12.699219c-.304687-6.542969-3.105469-12.71875-7.824219-17.261719l-3.355468-3.097656c-2.707032-2.570312-4.269532-6.121094-4.332032-9.851562v-34.6875c0-.199219.140625-.398438.121094-.605469-.316406-3.488281.828125-6.949219 3.160156-9.5625 2.332032-2.609375 5.644532-4.136719 9.144532-4.214844l4.238281 12.953125c.488281 1.480469 1.53125 2.707032 2.90625 3.429688l-3.761719 35.082031c-.195312 1.804687.441406 3.601563 1.726562 4.882813l11.816407 11.816406c2.34375 2.34375 6.144531 2.34375 8.484375 0l11.820312-11.816406c1.28125-1.285157 1.914063-3.078126 1.722656-4.882813l-3.769531-35.074219c1.320313-.695312 2.335938-1.859375 2.839844-3.265625l4.714844-13.109375c3.410156.203125 6.597656 1.78125 8.824219 4.375 2.226562 2.59375 3.304687 5.984375 2.984374 9.386719 0 .203125.007813.40625.027344.605469v34.726562c-.03125 3.703125-1.542968 7.238282-4.199218 9.816406l-3.238282 3.117188c-4.679687 4.539062-7.457031 10.6875-7.761718 17.195312l-2.050782 42.886719c-12.65625-8.308593-23.996094-18.472656-33.640625-30.144531zm18.65625-82.800781 4.375 40.710937-5.546875 5.546875-5.542968-5.542969 4.410156-41.054687.96875-1.082031zm80.703125 136.632812-2.558594-66.53125c-.300781-6.539062-3.09375-12.71875-7.8125-17.261719l-3.058593-3.097656c-2.625-2.601562-4.082031-6.15625-4.035157-9.851562v-34.6875c0-.199219-.15625-.398438-.175781-.605469-.386719-3.464844.707031-6.929687 3.003907-9.550781 2.296874-2.621094 5.59375-4.15625 9.078124-4.226563l4.199219 12.953125c.480469 1.476563 1.519531 2.707032 2.890625 3.433594l-3.773437 35.078125c-.191407 1.804687.441406 3.597656 1.722656 4.882813l11.816406 11.816406c2.34375 2.34375 6.140625 2.34375 8.484375 0l11.816406-11.816406c1.28125-1.285157 1.914063-3.078126 1.722657-4.882813l-3.765625-35.070313c1.320312-.699218 2.332031-1.863281 2.839844-3.269531l4.710937-13.109375c3.410156.167969 6.597656 1.742188 8.800781 4.351563 2.203125 2.613281 3.21875 6.019531 2.808594 9.410156-.019531.199219-.175781.402344-.175781.605469v34.726562c.042969 3.675782-1.398438 7.214844-4 9.816406l-3.136719 3.117188c-4.675781 4.558594-7.4375 10.730469-7.714844 17.25l-2.558594 66.734375c-4.792968.460937-9.640624.695313-14.550781.707031-5.539062-.003906-11.070312-.308594-16.574219-.921875zm16.699219-136.632812 4.371094 40.710937-5.539063 5.546875-5.542968-5.542969 4.40625-41.054687.96875-1.082031zm80.246094 114.214843-2.101563-44.113281c-.300781-6.542969-3.097656-12.71875-7.8125-17.261719l-3.261718-3.097656c-2.679688-2.582031-4.210938-6.132812-4.238282-9.851562v-34.6875c.019532-.199219.027344-.402344.027344-.605469-.339844-3.480469.785156-6.945313 3.109375-9.558594 2.320313-2.613281 5.625-4.144531 9.121094-4.21875l4.226562 12.953125c.484375 1.476563 1.523438 2.707032 2.898438 3.429688l-3.765625 35.082031c-.195313 1.804687.441406 3.601563 1.722656 4.882813l11.820312 11.816406c2.339844 2.34375 6.140626 2.34375 8.484376 0l11.816406-11.816406c1.28125-1.28125 1.917968-3.078126 1.722656-4.882813l-3.765625-35.070313c1.320313-.699218 2.332031-1.863281 2.839844-3.265624l4.710937-13.109376c3.296875.164063 6.390625 1.644532 8.589844 4.105469 2.429688 2.597657 3.636719 6.109375 3.316406 9.652344-.019531.203125.121094.402344.121094.609375v34.722656c-.066406 3.714844-1.613281 7.25-4.296875 9.816406l-3.285156 3.121094c-4.6875 4.53125-7.472657 10.679688-7.789063 17.191406l-.746094 15.265626c-9.683593 11.214843-20.957031 20.945312-33.460937 28.890624zm17.15625-114.214843 4.375 40.710937-5.546875 5.546875-5.542969-5.542969 4.410156-41.054687.964844-1.082031zm33.132812 61.46875.03125-.03125c-1.15625 2.03125-2.363281 4.035156-3.613281 6.007812.65625-2.269531 1.894531-4.328125 3.585938-5.976562zm11.296875-23.914063v-32.070312c0-6.773438-1.820312-13.320313-6.386718-18.375-4.734376-5.085938-11.390626-7.941406-18.339844-7.867188h-3.515625c-2.496094-.089844-4.765625 1.421875-5.648438 3.757813l-2.832031 7.777343-4.777344-5.136718c-1.15625-1.222656-2.761718-1.914063-4.445312-1.917969-1.679688.019531-3.273438.738281-4.398438 1.988281l-3.984375 4.441406-2.339843-6.980468c-.828126-2.421875-3.140626-4.019532-5.699219-3.933594h-4.09375c-6.921875-.074219-13.554688 2.785156-18.25 7.871094-4.566407 5.050781-6.289063 11.597656-6.289063 18.375v34.410156c.035156 6.972656 2.882813 13.636719 7.898438 18.480469l3.234375 3.09375c2.519531 2.421875 4.011719 5.714843 4.179687 9.203125l2.398438 50.253906c-13.21875 6.824219-27.386719 11.628906-42.027344 14.261719l2.484375-64.558594c.160156-3.46875 1.640625-6.746094 4.132813-9.164063l3.0625-3.121093c4.917968-4.859375 7.671874-11.5 7.636718-18.414063v-34.445312c1-6.773438-1.519531-13.320313-6.085937-18.375-4.617188-5.078125-11.183594-7.941406-18.042969-7.867188h-3.519531c-2.492188-.089844-4.765625 1.421875-5.644531 3.757813l-2.832032 7.777343-4.777344-5.136718c-1.152343-1.222656-2.761718-1.917969-4.441406-1.917969-1.683594.015625-3.277344.738281-4.402344 1.988281l-3.984374 4.441406-2.339844-6.980468c-.828125-2.421875-3.144532-4.019532-5.707032-3.929688h-4.089843c-6.863281-.074218-13.429688 2.789063-18.046875 7.867188-4.566406 5.054687-7.085938 11.601562-6.085938 18.375v34.410156c-.039062 6.949219 2.738282 13.617188 7.699219 18.484375l3.132813 3.097656c2.492187 2.410157 3.96875 5.683594 4.125 9.144531l2.453124 64.183594c-14.660156-2.84375-28.808593-7.867187-41.976562-14.910156l2.34375-49.257812c.160156-3.46875 1.632812-6.746094 4.125-9.164063l3.265625-3.121094c4.972656-4.84375 7.796875-11.480469 7.832031-18.421875v-34.445312c0-6.773438-1.722656-13.320313-6.289062-18.375-4.695313-5.082032-11.324219-7.941406-18.246094-7.867188h-3.515625c-2.492187-.089844-4.765625 1.421875-5.648437 3.757813l-2.832032 7.777343-4.777344-5.132812c-1.15625-1.222656-2.761718-1.914062-4.445312-1.917969-1.679688.015625-3.273438.738281-4.398438 1.984375l-3.984374 4.445313-2.339844-6.980469c-.828125-2.425781-3.144532-4.023438-5.703125-3.933594h-4.089844c-6.949219-.078125-13.609375 2.78125-18.347656 7.867188-4.566407 5.054687-6.382813 11.601562-6.382813 18.375v25.710937c-4.183594-14.28125-6.339844-29.074219-6.410156-43.953125 0-82.882812 67.503906-150.3125 150.386719-150.3125 82.886719 0 150.5 67.429688 150.5 150.3125.003906 17.640625-3.476563 34.574219-8.476563 50.3125zm0 0"/><path d="m215.003906 186.820312c0-11.496093-9.320312-20.816406-20.820312-20.816406h-.359375c-11.5 0-20.820313 9.320313-20.820313 20.816406v6.363282c0 11.5 9.320313 20.820312 20.820313 20.820312h.359375c11.5 0 20.820312-9.320312 20.820312-20.820312zm-12 6.363282c0 4.871094-3.949218 8.820312-8.820312 8.820312h-.359375c-4.871094 0-8.820313-3.949218-8.820313-8.820312v-6.363282c0-4.867187 3.949219-8.816406 8.820313-8.816406h.359375c4.871094 0 8.820312 3.949219 8.820312 8.816406zm0 0"/><path d="m315.003906 186.820312c0-11.496093-9.320312-20.816406-20.820312-20.816406h-.359375c-11.5 0-20.820313 9.320313-20.820313 20.816406v6.363282c0 11.5 9.320313 20.820312 20.820313 20.820312h.359375c11.5 0 20.820312-9.320312 20.820312-20.820312zm-12 6.363282c0 4.871094-3.949218 8.820312-8.820312 8.820312h-.359375c-4.871094 0-8.820313-3.949218-8.820313-8.820312v-6.363282c0-4.867187 3.949219-8.816406 8.820313-8.816406h.359375c4.871094 0 8.820312 3.949219 8.820312 8.816406zm0 0"/><path d="m268.003906 201.730469c0-13.105469-10.621094-23.726563-23.726562-23.726563h-.550782c-13.101562 0-23.722656 10.621094-23.722656 23.726563v7.546875c0 13.101562 10.621094 23.726562 23.722656 23.726562h.550782c13.105468 0 23.726562-10.625 23.726562-23.726562zm-12 7.546875c0 6.476562-5.25 11.726562-11.726562 11.726562h-.550782c-6.472656 0-11.722656-5.25-11.722656-11.726562v-7.546875c0-6.476563 5.25-11.726563 11.722656-11.726563h.550782c6.476562 0 11.726562 5.25 11.726562 11.726563zm0 0"/><path d="m170.003906 201.730469c0-13.105469-10.621094-23.726563-23.726562-23.726563h-.550782c-13.101562 0-23.722656 10.621094-23.722656 23.726563v7.546875c0 13.101562 10.621094 23.726562 23.722656 23.726562h.550782c13.105468 0 23.726562-10.625 23.726562-23.726562zm-12 7.546875c0 6.476562-5.25 11.726562-11.726562 11.726562h-.550782c-6.472656 0-11.722656-5.25-11.722656-11.726562v-7.546875c0-6.476563 5.25-11.726563 11.722656-11.726563h.550782c6.476562 0 11.726562 5.25 11.726562 11.726563zm0 0"/><path d="m365.003906 201.730469c0-13.105469-10.621094-23.726563-23.726562-23.726563h-.550782c-13.101562 0-23.722656 10.621094-23.722656 23.726563v7.546875c0 13.101562 10.621094 23.726562 23.722656 23.726562h.550782c13.105468 0 23.726562-10.625 23.726562-23.726562zm-12 7.546875c0 6.476562-5.25 11.726562-11.726562 11.726562h-.550782c-6.472656 0-11.722656-5.25-11.722656-11.726562v-7.546875c0-6.476563 5.25-11.726563 11.722656-11.726563h.550782c6.476562 0 11.726562 5.25 11.726562 11.726563zm0 0"/></svg>