<svg height="468pt" viewBox="0 -21 468 468" width="468pt" xmlns="http://www.w3.org/2000/svg"><path d="m261.070312 142c3.316407 0 6-2.6875 6-6s-2.683593-6-6-6h-54.140624c-3.316407 0-6 2.6875-6 6s2.683593 6 6 6h15.492187c7.082031.140625 13.414063 4.457031 16.128906 11h-31.621093c-3.316407 0-6 2.6875-6 6s2.683593 6 6 6h31.621093c-2.441406 7-8.742187 11-16.128906 11h-15.492187c-2.488282.101562-4.675782 1.671875-5.570313 3.992188-.898437 2.324218-.328125 4.957031 1.449219 6.699218l38.722656 36.648438c1.148438 1.101562 2.691406 1.703125 4.28125 1.664062 1.59375-.035156 3.105469-.707031 4.199219-1.863281 2.277343-2.492187 2.171875-6.339844-.238281-8.699219l-27.757813-26.441406h.40625c13.746094-.015625 25.640625-9.574219 28.609375-23h10.039062c3.316407 0 6-2.6875 6-6s-2.683593-6-6-6h-10.039062c-.824219-3.996094-2.539062-7.757812-5.019531-11zm0 0"/><path d="m427.191406 65h-98.191406v-22.9375c0-23.433594-18.542969-42.0625-41.046875-42.0625h-107.90625c-22.503906 0-41.046875 18.628906-41.046875 42.0625v22.9375h-98.191406c-22.5 0-40.808594 18.71875-40.808594 42.152344v276.785156c0 23.433594 18.308594 42.0625 40.808594 42.0625h386.382812c22.5 0 40.808594-18.628906 40.808594-42.0625v-276.785156c0-23.433594-18.308594-42.152344-40.808594-42.152344zm-276.191406-22.9375c0-16.816406 13.160156-30.0625 29.046875-30.0625h107.90625c15.886719 0 29.046875 13.246094 29.046875 30.0625v22.9375h-166zm276.191406 371.9375h-386.382812c-15.882813 0-28.808594-13.246094-28.808594-30.0625v-91.59375c7.476562 7.96875 17.882812 12.539062 28.808594 12.65625h136.191406v20.613281c0 3.3125 2.191406 6.386719 5.5 6.386719h103c3.3125 0 5.5-3.074219 5.5-6.386719v-20.613281h136.191406c10.925782-.117188 21.332032-4.6875 28.808594-12.65625v91.59375c0 16.816406-12.925781 30.0625-28.808594 30.0625zm-238.191406-94v-34h90v34zm267-57.726562c0 16.816406-12.925781 30.726562-28.808594 30.726562h-136.191406v-13.160156c0-3.3125-2.191406-5.839844-5.5-5.839844h-103c-3.3125 0-5.5 2.527344-5.5 5.839844v13.160156h-136.191406c-15.882813 0-28.808594-13.910156-28.808594-30.726562v-155.121094c0-16.816406 12.925781-30.152344 28.808594-30.152344h386.382812c15.882813 0 28.808594 13.335938 28.808594 30.152344zm0 0"/><path d="m234 90c-45.5625 0-82.5 36.9375-82.5 82.5s36.9375 82.5 82.5 82.5 82.5-36.9375 82.5-82.5c-.050781-45.542969-36.957031-82.449219-82.5-82.5zm0 153c-38.9375 0-70.5-31.5625-70.5-70.5s31.5625-70.5 70.5-70.5 70.5 31.5625 70.5 70.5c-.042969 38.917969-31.582031 70.457031-70.5 70.5zm0 0"/></svg>