<svg height="442pt" viewBox="-8 0 442 442.0004" width="442pt" xmlns="http://www.w3.org/2000/svg"><path d="m426.003906 373.398438v-224.796876c.035156-1.527343-.5625-3-1.660156-4.0625-1.09375-1.0625-2.582031-1.621093-4.105469-1.539062h-90.234375v-58.882812c-.054687-1.566407-.707031-3.054688-1.824218-4.15625l-75.175782-78.132813c-1.164062-1.175781-2.75-1.83203125-4.402344-1.828125h-242.832031c-1.5625.00390625-3.058593.640625-4.148437 1.765625-1.085938 1.125-1.667969 2.644531-1.61718775 4.207031v430.054688c-.05078125 1.5625.53124975 3.082031 1.61718775 4.207031 1.089844 1.125 2.585937 1.761719 4.148437 1.765625h317.933594c3.367187.035156 6.15625-2.605469 6.300781-5.972656v-57.027344h90.234375c1.523438.082031 3.011719-.476562 4.105469-1.539062 1.097656-1.0625 1.695312-2.535157 1.660156-4.0625zm-171-352.523438 54.613282 57.125h-54.613282zm63 409.125h-306v-418h231v72.117188c-.085937 1.539062.464844 3.039062 1.527344 4.15625 1.058594 1.113281 2.535156 1.738281 4.070312 1.726562h69.402344v53h-194.273437c-1.519531-.082031-3.003907.480469-4.09375 1.542969-1.085938 1.0625-1.679688 2.535156-1.632813 4.058593v224.796876c-.046875 1.523437.546875 2.996093 1.632813 4.058593 1.089843 1.066407 2.574219 1.625 4.09375 1.542969h194.273437zm96-63h-284v-212h284zm0 0"/><path d="m264.722656 226h50.613282c3.3125 0 6-2.6875 6-6s-2.6875-6-6-6h-50.613282c-3.3125 0-6 2.6875-6 6s2.6875 6 6 6zm0 0"/><path d="m264.722656 272h96.042969c3.316406 0 6-2.6875 6-6s-2.683594-6-6-6h-96.042969c-3.3125 0-6 2.6875-6 6s2.6875 6 6 6zm0 0"/><path d="m264.722656 319h96.042969c3.316406 0 6-2.6875 6-6s-2.683594-6-6-6h-96.042969c-3.3125 0-6 2.6875-6 6s2.6875 6 6 6zm0 0"/><path d="m162.78125 252c0 3.3125 2.6875 6 6 6h35.75c-2.539062 8-9.945312 13-18.667969 13h-17.082031c-2.488281.105469-4.675781 1.679688-5.570312 4.003906-.894532 2.324219-.324219 4.957032 1.449218 6.703125l42.699219 40.40625c1.148437 1.101563 2.691406 1.703125 4.285156 1.664063 1.589844-.039063 3.101563-.707032 4.199219-1.863282 2.273438-2.496093 2.167969-6.34375-.242188-8.707031l-31.734374-30.207031h2c14.945312.023438 27.878906-10.390625 31.035156-25h11.582031c3.3125 0 6-2.6875 6-6s-2.6875-6-6-6h-11.582031c-.992188-5.082031-3.136719-9.871094-6.269532-14h17.851563c3.3125 0 6-2.6875 6-6s-2.6875-6-6-6h-59.699219c-3.316406 0-6 2.6875-6 6s2.683594 6 6 6h17.082032c8.597656.128906 16.136718 5.78125 18.667968 14h-35.753906c-3.3125 0-6 2.6875-6 6zm0 0"/></svg>