<svg height="420pt" viewBox="-8 0 420 420.0008" width="420pt" xmlns="http://www.w3.org/2000/svg"><path d="m117.308594 282h105.234375c3.316406 0 6-2.6875 6-6s-2.683594-6-6-6h-105.234375c-3.3125 0-6 2.6875-6 6s2.6875 6 6 6zm0 0"/><path d="m117.308594 337h215.210937c3.3125 0 6-2.6875 6-6s-2.6875-6-6-6h-215.210937c-3.3125 0-6 2.6875-6 6s2.6875 6 6 6zm0 0"/><path d="m174.445312 139c0 3.3125 2.683594 6 6 6h57.042969c-2.875 15.15625-16.167969 26.097656-31.59375 26h-25.449219c-2.484374.089844-4.675781 1.652344-5.574218 3.96875-.894532 2.320312-.324219 4.949219 1.453125 6.6875l63.609375 60.15625c1.152344 1.105469 2.691406 1.703125 4.285156 1.664062 1.589844-.035156 3.101562-.707031 4.199219-1.863281 2.273437-2.480469 2.167969-6.320312-.242188-8.671875l-52.648437-49.941406h10.367187c22.09375.222656 40.875-16.089844 43.742188-38h19.75c3.3125 0 6-2.6875 6-6s-2.6875-6-6-6h-19.75c-1.488281-9.929688-6.25-19.082031-13.527344-26h33.277344c3.3125 0 6-2.6875 6-6s-2.6875-6-6-6h-88.941407c-3.316406 0-6 2.6875-6 6s2.683594 6 6 6h25.449219c15.425781-.097656 28.71875 10.84375 31.59375 26h-57.042969c-3.316406 0-6 2.6875-6 6zm0 0"/><path d="m27.5 312c-15.1875 0-27.5 12.3125-27.5 27.5s12.3125 27.5 27.5 27.5h18.542969v47.078125c-.050781 1.558594.535156 3.070313 1.621093 4.1875 1.089844 1.117187 2.582032 1.742187 4.140626 1.734375h346.214843c1.585938.019531 3.113281-.597656 4.246094-1.707031 1.128906-1.113281 1.769531-2.628907 1.777344-4.214844v-408.15625c-.007813-1.585937-.648438-3.101563-1.777344-4.214844-1.132813-1.109375-2.660156-1.7265622-4.246094-1.707031h-346.214843c-1.558594-.0078125-3.050782.621094-4.140626 1.738281-1.085937 1.117188-1.671874 2.628907-1.621093 4.183594v36.078125h-18.542969c-14.910156 0-27 12.089844-27 27s12.089844 27 27 27h18.542969v36h-18.542969c-15.1875 0-27.5 12.3125-27.5 27.5s12.3125 27.5 27.5 27.5h18.542969v35h-18.542969c-15.1875 0-27.5 12.3125-27.5 27.5s12.3125 27.5 27.5 27.5h18.542969v35zm0 43c-8.558594 0-15.5-6.9375-15.5-15.5 0-8.558594 6.941406-15.5 15.5-15.5h18.542969v31zm0-271c-5.460938.15625-10.574219-2.667969-13.347656-7.375-2.777344-4.703125-2.777344-10.546875 0-15.25 2.773437-4.703125 7.886718-7.527344 13.347656-7.375h18.542969v30zm0 91c-8.558594 0-15.5-6.9375-15.5-15.5 0-8.558594 6.941406-15.5 15.5-15.5h18.542969v31zm0 90c-8.558594 0-15.5-6.9375-15.5-15.5 0-8.558594 6.941406-15.5 15.5-15.5h18.542969v31zm53.542969 23.199219c3.316406 0 6-2.683594 6-6v-22.5625c0-3.3125-2.683594-6-6-6-3.3125 0-6 2.6875-6 6v5.363281h-17v-78h17v4.953125c0 3.3125 2.6875 6 6 6 3.316406 0 6-2.6875 6-6v-22.5625c0-3.316406-2.683594-6-6-6-3.3125 0-6 2.683594-6 6v5.609375h-17v-79h17v5.699219c0 3.316406 2.6875 6 6 6 3.316406 0 6-2.683594 6-6v-22.554688c0-3.316406-2.683594-6-6-6-3.3125 0-6 2.683594-6 6v4.855469h-17v-72h334v396h-334v-41h17v5.445312c0 3.3125 2.6875 6 6 6 3.316406 0 6-2.6875 6-6v-22.5625c0-3.3125-2.683594-6-6-6-3.3125 0-6 2.6875-6 6v5.117188h-17v-78h17v5.199219c0 3.316406 2.6875 6 6 6zm0 0"/></svg>