<svg height="484pt" viewBox="-53 0 483 484" width="484pt" xmlns="http://www.w3.org/2000/svg"><path d="m194.566406 90h17.222656c8.660157.089844 16.285157 5.738281 18.890626 14h-36.113282c-3.316406 0-6 2.6875-6 6s2.683594 6 6 6h36.113282c-2.605469 8.261719-10.230469 13.910156-18.890626 14h-17.222656c-2.457031-.007812-4.667968 1.484375-5.578125 3.765625-.910156 2.28125-.332031 4.886719 1.457031 6.570313l43.046876 40.671874c2.425781 2.121094 6.089843 1.949219 8.304687-.390624 2.214844-2.339844 2.1875-6.011719-.0625-8.316407l-32.085937-30.300781h2.140624c15.328126.019531 28.480469-10.921875 31.246094-26h11.71875c3.3125 0 6-2.6875 6-6s-2.6875-6-6-6h-11.71875c-1.007812-5.097656-3.195312-9.890625-6.378906-14h18.101562c3.3125 0 6-2.6875 6-6s-2.6875-6-6-6h-60.191406c-3.316406 0-6 2.6875-6 6s2.683594 6 6 6zm0 0"/><path d="m370.96875 20h-288.46875v-13.8125c-.046875-3.378906-2.757812-6.109375-6.136719-6.1875h-30c-3.320312.101562-5.941406 2.863281-5.863281 6.1875v430.8125h-34.46875c-3.3125 0-5.53125 2.835938-5.53125 6.148438v34.664062c0 3.316406 2.21875 6.1875 5.53125 6.1875h120.667969c3.308593-.109375 5.90625-2.878906 5.800781-6.1875v-34.664062c.050781-1.585938-.535156-3.125-1.621094-4.28125-1.089844-1.152344-2.59375-1.824219-4.179687-1.867188h-44.199219v-208h288.46875c3.3125 0 5.53125-3.101562 5.53125-6.410156v-196.402344c0-3.316406-2.21875-6.1875-5.53125-6.1875zm-76.46875 12v185h-142v-185zm-174 440h-108v-23h108zm-68-35v-425h18v425zm30-405h58v185h-58zm282 185h-58v-185h58zm0 0"/></svg>