<svg height="462pt" viewBox="-20 0 462 462.646" width="462pt" xmlns="http://www.w3.org/2000/svg"><path d="m6.308594 410.644531h123.085937c3.242188 30 28.835938 52 60.925781 52h1c32.09375 0 57.683594-22 60.929688-52h123.082031c2.191407-.074219 4.179688-1.300781 5.230469-3.226562s1.003906-4.265625-.121094-6.148438l-24.859375-40.515625c-11.292969-18.453125-18.601562-39.058594-21.457031-60.5 56.097656-11.21875 94.542969-63.148437 88.910156-120.074218-5.636718-56.929688-53.519531-100.308594-110.726562-100.3125-11.691406-.011719-23.3125 1.847656-34.417969 5.5-11.5625-8.859376-24.34375-15.992188-37.953125-21.183594v-15.183594c0-27.0625-21.9375-49-49-49s-49 21.9375-49 49v15.199219c-56 21.191406-93.035156 74.835937-93 134.710937v81.136719c-.011719 28.480469-7.914062 56.40625-22.835938 80.667969l-24.886718 40.476562c-1.1406252 1.90625-1.1914065 4.273438-.132813 6.226563 1.039063 1.933593 3.03125 3.164062 5.226563 3.226562zm185.007812 40h-1c-25.332031 0-45.621094-17-48.828125-40h98.652344c-3.203125 23-23.488281 40-48.824219 40zm220.253906-259.523437c0 50.253906-37.558593 92.582031-87.453124 98.558594-49.898438 5.980468-96.390626-26.273438-108.261719-75.105469-11.871094-48.832031 14.625-98.832031 61.695312-116.429688.820313-.113281 1.605469-.398437 2.308594-.832031 30.339844-10.492188 63.882813-5.664062 90.03125 12.960938 26.152344 18.625 41.679687 48.746093 41.679687 80.847656zm-257.632812-142.121094c0-20.433594 16.566406-37 37-37 20.4375 0 37 16.566406 37 37v11.359375c-24.230469-6.542969-49.765625-6.542969-74 0zm-117.613281 318.152344c16.085937-26.207032 24.605469-56.355469 24.613281-87.105469v-81.136719c0-72.488281 58.261719-131.460937 129.925781-131.460937 26.382813.023437 52.132813 8.101562 73.796875 23.15625-47.019531 22.285156-72.308594 74.1875-60.886718 124.953125 11.421874 50.765625 56.507812 86.828125 108.542968 86.828125 3.347656 0 6.660156-.160157 9.9375-.449219 3.089844 23.105469 10.957032 45.316406 23.105469 65.214844l19.246094 31.492187h-347.566407zm0 0"/><path d="m275.539062 128.644531c-3.3125 0-6 2.6875-6 6 0 3.316407 2.6875 6 6 6h21.039063c11.984375-.097656 22.375 8.269531 24.832031 20h-45.871094c-3.3125 0-6 2.6875-6 6 0 3.316407 2.6875 6 6 6h45.871094c-2.914062 11.296875-13.164062 19.140625-24.832031 19h-21.039063c-2.472656.042969-4.671874 1.570313-5.574218 3.871094-.90625 2.300781-.332032 4.917969 1.453125 6.628906l52.589843 49.71875c1.152344 1.097657 2.695313 1.691407 4.285157 1.648438 1.59375-.042969 3.101562-.714844 4.195312-1.871094 2.28125-2.441406 2.171875-6.257813-.238281-8.566406l-41.625-39.429688h5.957031c18.664063 0 34.183594-14 37.066407-31h15.425781c3.3125 0 6-2.683593 6-6 0-3.3125-2.6875-6-6-6h-15.425781c-1.007813-7.507812-4.359376-14.507812-9.582032-20h25.007813c3.3125 0 6-2.683593 6-6 0-3.3125-2.6875-6-6-6zm0 0"/></svg>