<svg height="509pt" viewBox="-89 0 509 509.37993" width="509pt" xmlns="http://www.w3.org/2000/svg"><path d="m204.71875 116.6875c3.316406 0 6-2.683594 6-6 0-3.3125-2.683594-6-6-6h-78.84375c-3.3125 0-6 2.6875-6 6 0 3.316406 2.6875 6 6 6h22.5625c13.285156 0 24.417969 9 27.171875 21h-49.734375c-3.3125 0-6 2.6875-6 6 0 3.316406 2.6875 6 6 6h49.734375c-2.628906 12.890625-14.015625 22.113281-27.171875 22h-22.5625c-2.46875.042969-4.671875 1.570312-5.574219 3.871094-.902343 2.300781-.328125 4.917968 1.453125 6.628906l56.390625 53.3125c1.152344 1.097656 2.695313 1.6875 4.289063 1.648438 1.589844-.042969 3.097656-.714844 4.191406-1.871094 2.277344-2.445313 2.171875-6.261719-.238281-8.574219l-45.425781-43.015625h7.476562c19.683594-.148438 36.359375-14.546875 39.375-34h16.90625c3.316406 0 6-2.683594 6-6 0-3.3125-2.683594-6-6-6h-16.90625c-1.277344-8-5.214844-16-10.917969-21zm0 0"/><path d="m320.207031 141.1875-6.183593-4.632812c-5.300782-3.941407-6.945313-11.152344-3.882813-17l3.53125-6.800782c3.703125-7.128906 3.828125-15.582031.335937-22.816406-3.492187-7.234375-10.1875-12.398438-18.074218-13.933594l-7.457032-1.449218c-6.496093-1.242188-11.121093-7.035157-10.894531-13.648438l.242188-7.671875c.246093-8.027344-3.304688-15.703125-9.585938-20.707031-6.285156-5.007813-14.558593-6.757813-22.328125-4.722656l-7.402344 1.9375c-6.390624 1.695312-13.0625-1.511719-15.726562-7.5625l-3.128906-7.046876c-3.261719-7.339843-9.792969-12.714843-17.628906-14.496093-7.832032-1.785157-16.046876.234375-22.164063 5.441406l-5.828125 4.957031c-5.027344 4.304688-12.4375 4.304688-17.464844 0l-5.828125-4.957031c-6.117187-5.207031-14.332031-7.222656-22.164062-5.441406-7.832031 1.785156-14.363281 7.15625-17.625 14.496093l-3.128907 7.046876c-2.664062 6.050781-9.339843 9.261718-15.730468 7.5625l-7.398438-1.9375c-7.773437-2.035157-16.050781-.285157-22.332031 4.722656-6.28125 5.007812-9.835937 12.6875-9.582031 20.714844l.238281 7.671874c.226563 6.613282-4.394531 12.40625-10.894531 13.648438l-7.457032 1.449219c-7.882812 1.535156-14.582031 6.699219-18.074218 13.933593-3.488282 7.230469-3.367188 15.6875.335937 22.816407l3.53125 6.800781c3.0625 5.847656 1.417969 13.058594-3.878906 17l-6.183594 4.632812c-6.417969 4.804688-10.199219 12.351563-10.203125 20.371094-.007812 8.015625 3.761719 15.570313 10.171875 20.386719l6.238281 4.683594c5.285157 3.945312 6.921876 11.140625 3.867188 16.984375l-3.542969 6.816406c-3.703125 7.128906-3.828125 15.585938-.335937 22.816406 3.492187 7.234375 10.191406 12.398438 18.074218 13.933594l7.457032 1.449219c6.5 1.242187 11.125 7.035156 10.894531 13.648437l-.238281 7.671875c-.339844 8.015625 3.171875 15.714844 9.445312 20.714844 1.332032 1.0625 3.078125 1.964844 4.078125 2.730469v209.976562c.0625 2.191406 1.28125 4.183594 3.203125 5.238282 1.921875 1.050781 4.257813 1.003906 6.136719-.121094l89.625-54.921875 89.609375 54.921875c.945312.578125 2.035156.882812 3.144531.882812 1.070313.003906 2.125-.261718 3.070313-.761718 1.929687-1.046876 3.152344-3.042969 3.207031-5.238282v-209.984375c1-.761719 2.75-1.667969 4.078125-2.726562 6.292969-4.996094 9.828125-12.691407 9.515625-20.71875l-.273437-7.671875c-.234376-6.609375 4.386718-12.402344 10.882812-13.644532l7.445312-1.453124c7.882813-1.535157 14.582032-6.699219 18.070313-13.929688 3.492187-7.234375 3.367187-15.691406-.335937-22.816406l-3.542969-6.816406c-3.054688-5.84375-1.417969-13.042969 3.863281-16.988282l6.238281-4.683594c6.410157-4.8125 10.179688-12.367187 10.175781-20.382812-.007812-8.019531-3.785156-15.566406-10.203124-20.375zm-241.910156 155.039062c2.113281-.035156 4.210937-.316406 6.253906-.835937l7.335938-1.941406c5.453125-1.484375 11.246093.664062 14.410156 5.34375v176.707031l-28 17.164062zm83.730469 145.191407-43.730469 26.726562v-150.316406c3.011719 2.273437 6.464844 3.882813 10.140625 4.726563 1.90625.433593 3.855469.648437 5.808594.652343 6.035156-.003906 11.875-2.164062 16.457031-6.089843l5.847656-4.957032c5.027344-4.308594 12.445313-4.308594 17.472657 0l5.832031 4.957032c6.152343 5.238281 14.421875 7.257812 22.296875 5.4375 3.679687-.84375 7.136718-2.453126 10.144531-4.726563v150.316406l-43.796875-26.726562c-2-1.175781-4.476562-1.175781-6.472656 0zm90.269531 51.246093-28-17.164062v-176.699219c3.136719-4.679687 8.914063-6.828125 14.34375-5.34375l7.472656 1.9375c2.019531.519531 4.097657.804688 6.183594.839844zm60.730469-320.3125-6.238282 4.683594c-9.984374 7.460938-13.082031 21.066406-7.304687 32.113282l3.539063 6.816406c1.960937 3.769531 2.023437 8.242187.175781 12.070312-1.84375 3.824219-5.386719 6.554688-9.558594 7.367188l-7.457031 1.449218c-12.285156 2.347657-21.03125 13.300782-20.597656 25.800782l.238281 7.675781c.132812 4.246094-1.746094 8.308594-5.070313 10.957031-3.324218 2.648438-7.699218 3.574219-11.8125 2.496094l-7.398437-1.9375c-12.082031-3.207031-24.695313 2.859375-29.734375 14.296875l-3.132813 7.046875c-1.722656 3.882812-5.179687 6.726562-9.320312 7.667969-4.144531.945312-8.488281-.121094-11.722657-2.875l-5.828124-4.960938c-9.5-8.140625-23.519532-8.140625-33.019532 0l-5.828125 4.960938c-3.234375 2.753906-7.578125 3.820312-11.722656 2.875-4.140625-.941407-7.597656-3.785157-9.320313-7.667969l-3.132812-7.042969c-4.050781-9.203125-13.152344-15.144531-23.207031-15.148437-2.203125.003906-4.394531.289062-6.523438.847656l-7.402343 1.9375c-4.109376 1.078125-8.488282.152344-11.8125-2.496094-3.320313-2.648437-5.199219-6.710937-5.066407-10.960937l.238281-7.671875c.433594-12.5-8.308593-23.449219-20.59375-25.796875l-7.457031-1.453125c-4.171875-.8125-7.714843-3.542969-9.558593-7.367188-1.847657-3.828125-1.78125-8.300781.175781-12.070312l3.539062-6.816406c5.777344-11.046876 2.683594-24.652344-7.304687-32.113282l-6.238282-4.683594c-3.390624-2.546874-5.382812-6.542968-5.382812-10.78125.003906-4.242187 2.003906-8.234374 5.398438-10.777343l6.183593-4.632813c10.011719-7.453125 13.121094-21.074218 7.335938-32.132812l-3.53125-6.796875c-1.960938-3.773438-2.027344-8.246094-.179688-12.070313 1.847657-3.828125 5.390625-6.558594 9.5625-7.371094l7.457031-1.453124c12.285157-2.34375 21.03125-13.296876 20.597657-25.800782l-.238281-7.671875c-.132813-4.246093 1.746093-8.308593 5.070312-10.957031 3.320312-2.648438 7.699219-3.574219 11.8125-2.496094l7.398438 1.9375c12.082031 3.207032 24.695312-2.859375 29.734374-14.296875l3.128907-7.050781c1.726562-3.878906 5.183593-6.722656 9.324219-7.664062 4.140624-.941407 8.488281.121093 11.722656 2.875l5.828125 4.960937c9.5 8.140625 23.515625 8.140625 33.019531 0l5.824219-4.960937c3.238281-2.753907 7.582031-3.816407 11.722656-2.875 4.144531.941406 7.597656 3.785156 9.324219 7.667968l3.132812 7.042969c5.039063 11.4375 17.652344 17.503906 29.730469 14.300781l7.402344-1.9375c4.109375-1.078125 8.488281-.152344 11.8125 2.496094 3.324219 2.652344 5.203125 6.714844 5.066406 10.960938l-.238281 7.671874c-.433594 12.503907 8.3125 23.457032 20.601562 25.800782l7.457032 1.453125c4.167968.8125 7.710937 3.542969 9.558593 7.367187 1.847657 3.828125 1.78125 8.300782-.175781 12.070313l-3.535156 6.800781c-5.78125 11.054688-2.671875 24.675781 7.335937 32.128906l6.1875 4.632813c3.394531 2.542969 5.390625 6.535156 5.394531 10.777343.003907 4.242188-1.992187 8.234376-5.382812 10.78125zm0 0"/><path d="m165.296875 59.078125c-56.621094 0-102.519531 45.898437-102.519531 102.519531s45.902344 102.523438 102.523437 102.519532c56.621094 0 102.519531-45.898438 102.519531-102.519532-.066406-56.59375-45.929687-102.457031-102.523437-102.519531zm0 193.039063c-49.992187 0-90.519531-40.527344-90.519531-90.519532 0-49.992187 40.527344-90.523437 90.519531-90.523437 49.996094 0 90.523437 40.53125 90.523437 90.523437-.058593 49.96875-40.550781 90.464844-90.523437 90.519532zm0 0"/></svg>