<svg height="486pt" viewBox="-63 0 486 486" width="486pt" xmlns="http://www.w3.org/2000/svg"><path d="m215.777344 99c3.3125 0 6-2.6875 6-6s-2.6875-6-6-6h-69.558594c-3.316406 0-6 2.6875-6 6s2.683594 6 6 6h19.898438c11.078124 0 20.414062 7 23.082031 17h-42.980469c-3.316406 0-6 2.6875-6 6s2.683594 6 6 6h42.980469c-2.46875 10.703125-12.097657 18.214844-23.082031 18h-19.898438c-2.480469.078125-4.675781 1.628906-5.574219 3.945312-.898437 2.3125-.324219 4.9375 1.453125 6.667969l49.75 47.058594c1.148438 1.097656 2.691406 1.695313 4.285156 1.65625 1.589844-.039063 3.101563-.710937 4.195313-1.867187 2.277344-2.46875 2.167969-6.304688-.238281-8.644532l-38.789063-36.816406h4.820313c17.511718-.0625 32.433594-12.730469 35.335937-30h14.320313c3.3125 0 6-2.6875 6-6s-2.6875-6-6-6h-14.320313c-1.324219-6.324219-4.289062-12.1875-8.601562-17zm0 0"/><path d="m360.996094 242c0-13.933594-9-25.601562-23-28.371094v-149.628906h9.136718c1.558594.039062 3.0625-.558594 4.167969-1.65625 1.109375-1.097656 1.71875-2.597656 1.695313-4.152344v-52c.078125-3.324218-2.539063-6.089844-5.863282-6.191406h-332.269531c-3.324219.101562-5.941406 2.867188-5.867187 6.191406v52c-.023438 1.554688.589844 3.054688 1.699218 4.152344 1.105469 1.097656 2.609376 1.695312 4.167969 1.65625h8.132813v149.628906c-13.40625 2.835938-22.996094 14.667969-22.996094 28.371094s9.589844 25.535156 22.996094 28.371094v151.628906h-8.132813c-1.558593-.039062-3.0625.558594-4.167969 1.65625-1.109374 1.097656-1.722656 2.597656-1.699218 4.152344v52c-.074219 3.324218 2.542968 6.089844 5.867187 6.191406h332.269531c3.324219-.101562 5.941407-2.867188 5.863282-6.191406v-52c.023437-1.554688-.585938-3.054688-1.695313-4.152344-1.105469-1.097656-2.609375-1.695312-4.167969-1.65625h-9.136718v-151.628906c14-2.769532 23-14.4375 23-28.371094zm-11.5 0c0 9.390625-7.609375 17-17 17-9.386719 0-17-7.609375-17-17s7.613281-17 17-17c9.386718.011719 16.992187 7.617188 17 17zm-328.5-190v-40h320v40zm271 370h-23.898438l-83.433594-64.386719c-2.144531-1.632812-5.117187-1.632812-7.265624 0l-85.636719 64.386719h-21.765625v-87.898438c.011718-12.003906 6.328125-23.117187 16.636718-29.261718l94.390626-55.871094 94.351562 55.871094c10.304688 6.148437 16.617188 17.261718 16.621094 29.261718zm-43.5625 0h-136.691406l69.210937-52zm-67.4375-186.914062-93.953125-53.867188c-10.550781-6.078125-17.050781-17.328125-17.046875-29.5v-87.71875h222v87.71875c.003906 12.171875-6.496094 23.421875-17.042969 29.5zm-168.5 6.914062c0-9.390625 7.613281-17 17-17 9.390625 0 17 7.609375 17 17s-7.609375 17-17 17c-9.382813-.011719-16.988282-7.617188-17-17zm22.5 28.371094c14-2.769532 23-14.4375 23-28.371094s-9-25.601562-23-28.371094v-149.628906h23v87.71875c.003906 16.472656 8.804687 31.691406 23.082031 39.910156l88.019531 50.453125-88.566406 52.429688c-13.953125 8.3125-22.511719 23.347656-22.535156 39.589843v87.898438h-23zm306 163.628906v40h-320v-40zm-37-12v-87.898438c-.015625-16.242187-8.570313-31.277343-22.523438-39.589843l-88.574218-52.429688 88.007812-50.453125c14.28125-8.21875 23.085938-23.433594 23.089844-39.910156v-87.71875h22v149.628906c-13.40625 2.835938-22.996094 14.667969-22.996094 28.371094s9.589844 25.535156 22.996094 28.371094v151.628906zm0 0"/></svg>