<svg height="485pt" viewBox="0 -61 485.57389 485" width="485pt" xmlns="http://www.w3.org/2000/svg"><path d="m485.441406 262.863281-.527344-2.4375c-.417968-11.742187-2.917968-23.320312-7.375-34.191406l-41.761718-193.535156c-3.285156-15.585938-16.480469-27.125-32.363282-28.300781l-51.992187-4.09375c-3.304687-.257813-6.191406 2.207031-6.453125 5.511718-.261719 3.304688 2.207031 6.191406 5.511719 6.453125l51.992187 4.09375c10.585938.785157 19.382813 8.472657 21.574219 18.863281l34.863281 161.5625c-24.777344-27.277343-62.539062-38.738281-98.296875-29.828124-35.753906 8.914062-63.722656 36.753906-72.800781 72.46875-27.777344-16.390626-62.269531-16.390626-90.050781 0-9.074219-35.714844-37.042969-63.554688-72.800781-72.464844-35.757813-8.910156-73.519532 2.550781-98.292969 29.828125l34.859375-161.5625c2.191406-10.390625 10.988281-18.078125 21.578125-18.863281l51.992187-4.09375c3.304688-.261719 5.769532-3.148438 5.511719-6.453126-.261719-3.304687-3.152344-5.7695308-6.453125-5.511718l-51.992188 4.09375c-15.886718 1.175781-29.082031 12.714844-32.363281 28.300781l-41.761719 193.53125c-4.460937 10.871094-6.957031 22.449219-7.378906 34.191406l-.523437 2.4375c-.289063 1.320313-.1171878 2.699219.484375 3.910157.960937 36.890624 22.136718 70.257812 55.101562 86.839843s72.378906 13.6875 102.570313-7.53125c30.191406-21.21875 46.261719-57.320312 41.828125-93.957031 25.804687-17.316406 59.519531-17.316406 85.328125 0-4.4375 36.636719 11.636719 72.738281 41.828125 93.957031 30.1875 21.21875 69.601562 24.113281 102.566406 7.53125 32.96875-16.582031 54.140625-49.949219 55.105469-86.839843.601562-1.210938.777343-2.589844.492187-3.910157zm-384.726562 89.398438c-48.648438-.054688-88.074219-39.480469-88.128906-88.128907 0-.734374.007812-1.46875.027343-2.203124l6.933594-32.125c17.191406-40.65625 61.8125-62.320313 104.398437-50.6875 42.582032 11.636718 69.988282 52.980468 64.117188 96.734374-5.867188 43.75-43.203125 76.410157-87.347656 76.410157zm284.144531 0c-44.144531 0-81.480469-32.660157-87.347656-76.414063-5.871094-43.75 21.535156-85.097656 64.121093-96.730468 42.582032-11.636719 87.207032 10.03125 104.398438 50.6875l6.933594 32.125c.015625.734374.027344 1.46875.027344 2.203124-.058594 48.648438-39.484376 88.070313-88.132813 88.125zm0 0"/><path d="m131.164062 228.28125c3.3125 0 6-2.6875 6-6 0-3.316406-2.6875-6-6-6h-63.820312c-3.316406 0-6 2.683594-6 6 0 3.3125 2.683594 6 6 6h18.261719c9.699219 0 17.90625 7 20.507812 15h-38.769531c-3.316406 0-6 2.683594-6 6 0 3.3125 2.683594 6 6 6h38.769531c-2.601562 9-10.800781 16-20.507812 16h-18.261719c-2.449219-.046875-4.667969 1.421875-5.582031 3.691406-.914063 2.269532-.332031 4.867188 1.460937 6.53125l45.640625 43.109375c2.417969 2.265625 6.210938 2.152344 8.484375-.257812 1.089844-1.140625 1.679688-2.667969 1.632813-4.246094-.042969-1.578125-.71875-3.070313-1.875-4.148437l-34.679688-32.679688h3.179688c16.289062-.125 30.132812-11.933594 32.828125-28h12.730468c3.3125 0 6-2.6875 6-6 0-3.316406-2.6875-6-6-6h-12.730468c-1.050782-5-3.59375-11-7.21875-15zm0 0"/><path d="m418.234375 228.28125c3.3125 0 6-2.6875 6-6 0-3.316406-2.6875-6-6-6h-63.820313c-3.3125 0-6 2.683594-6 6 0 3.3125 2.6875 6 6 6h18.261719c9.707031 0 17.910157 7 20.507813 15h-38.769532c-3.3125 0-6 2.683594-6 6 0 3.3125 2.6875 6 6 6h38.773438c-2.597656 9-10.800781 16-20.507812 16h-18.265626c-2.445312-.046875-4.664062 1.421875-5.578124 3.691406-.917969 2.269532-.335938 4.867188 1.457031 6.53125l45.644531 43.109375c2.414062 2.265625 6.207031 2.152344 8.480469-.257812 1.09375-1.140625 1.683593-2.667969 1.636719-4.246094-.042969-1.578125-.71875-3.070313-1.875-4.148437l-34.679688-32.679688h3.175781c16.289063-.125 30.136719-11.933594 32.832031-28h12.726563c3.3125 0 6-2.6875 6-6 0-3.316406-2.6875-6-6-6h-12.726563c-1.054687-5-3.59375-11-7.21875-15zm0 0"/></svg>