<svg height="486pt" viewBox="-28 0 486 486.489" width="486pt" xmlns="http://www.w3.org/2000/svg"><path d="m36.261719 486.488281 358.074219-.921875c19.832031-.082031 35.875-16.167968 35.910156-36v-310.105468c-.011719-19.910157-16.09375-36.070313-36-36.171876h-82.339844c.140625-2 .214844-4.226562.214844-6.398437.007812-53.507813-43.363282-96.8828125-96.867188-96.890625s-96.882812 43.363281-96.886718 96.867188c0 2.175781.074218 4.421874.21875 6.421874h-80.472657c-20.902343.023438-37.84375 16.964844-37.867187 37.867188 0 1.054688.042968 2.132812.125 3.132812h-.125v306.199219c.023437 19.878907 16.136718 35.984375 36.015625 36zm381.984375-101.199219h-88.632813l-39.957031-58.5 39.957031-58.5h88.632813zm-24-270c13.28125.09375 23.996094 10.886719 24 24.171876v36.929687c-6.601563-5.898437-15.152344-9.140625-24-9.101563h-112.238282c14.65625-13.941406 24.570313-32.128906 28.351563-52zm-179-103.195312c37.277344.027344 70.183594 24.359375 81.128906 59.996094 10.949219 35.636718-2.617188 74.246094-33.453125 95.199218h-95.355469c-30.835937-20.953124-44.402344-59.5625-33.453125-95.199218 10.945313-35.636719 43.851563-59.96875 81.132813-59.996094zm-177.132813 103.195312h82.015625c3.78125 19.871094 13.695313 38.054688 28.347656 52h-110.363281c-14.359375 0-26-11.640624-26-26 0-14.359374 11.640625-26 26-26zm-25.867187 53.671876c6.992187 6.609374 16.242187 10.300781 25.867187 10.328124h356.132813c13.230468-.027343 23.976562 10.675782 24 23.90625v53.09375h-91.789063c-2.007812.089844-3.847656 1.148438-4.941406 2.832032l-44.085937 64.199218c-1.410157 2.070313-1.410157 4.792969 0 6.859376l44.085937 64.300781c1.09375 1.679687 2.9375 2.726562 4.941406 2.808593h91.789063v52.273438c-.023438 13.222656-10.71875 23.945312-23.941406 24l-358.058594.925781c-13.25-.015625-23.988282-10.75-24-24zm0 0"/><path d="m362.703125 354.964844c15.324219 0 27.75-12.425782 27.75-27.75 0-15.328125-12.425781-27.75-27.75-27.75-15.328125 0-27.75 12.421875-27.75 27.75.015625 15.316406 12.429687 27.730468 27.75 27.75zm0-43.5c8.695313 0 15.75 7.050781 15.75 15.75 0 8.699218-7.054687 15.75-15.75 15.75-8.699219 0-15.75-7.050782-15.75-15.75.007813-8.695313 7.054687-15.742188 15.75-15.75zm0 0"/><path d="m177.625 75.289062c0 3.3125 2.6875 6 6 6h38.527344c-2.625 9.023438-10.96875 15.167969-20.363282 15h-18.164062c-2.488281.109376-4.675781 1.679688-5.570312 4.007813-.894532 2.324219-.328126 4.957031 1.449218 6.707031l45.40625 42.960938c1.148438 1.105468 2.6875 1.703125 4.28125 1.667968 1.59375-.039062 3.105469-.710937 4.199219-1.867187 2.273437-2.496094 2.167969-6.34375-.238281-8.707031l-34.441406-32.769532h3.078124c16.28125 0 29.851563-11 32.6875-27h12.632813c3.3125 0 6-2.6875 6-6s-2.6875-6-6-6h-12.632813c-1.046874-5-3.558593-11-7.140624-15h19.773437c3.3125 0 6-2.6875 6-6s-2.6875-6-6-6h-63.484375c-3.3125 0-6 2.6875-6 6s2.6875 6 6 6h18.164062c9.394532-.167968 17.738282 5.976563 20.363282 15h-38.527344c-3.3125 0-6 2.6875-6 6zm0 0"/></svg>