<svg height="491pt" viewBox="0 -106 491 491" width="491pt" xmlns="http://www.w3.org/2000/svg"><path d="m491 26c0-14.359375-11.640625-26-26-26h-439c-14.359375 0-26 11.640625-26 26v227c0 14.359375 11.640625 26 26 26h439c14.359375 0 26-11.640625 26-26zm-12 227c0 7.730469-6.269531 14-14 14h-439c-7.730469 0-14-6.269531-14-14v-227c0-7.730469 6.269531-14 14-14h439c7.730469 0 14 6.269531 14 14zm0 0"/><path d="m460 25h-431c-3.3125 0-6 2.6875-6 6v219c0 3.3125 2.6875 6 6 6h431c3.3125 0 6-2.6875 6-6v-219c0-3.3125-2.6875-6-6-6zm-6 58h-8c-19.875-.023438-35.976562-16.125-36-36v-10h44zm-56 161h-304v-13c-.027344-26.496094-21.503906-47.972656-48-48h-11v-87h10.5c26.46875 0 47.5-22.03125 47.5-48.5v-10.5h305v10c.03125 26.496094 21.503906 47.96875 48 48h8v88h-8c-26.496094.027344-47.972656 21.503906-48 48zm-363-207h46v10.5c0 19.851562-15.648438 36.5-35.5 36.5h-10.5zm0 158h11c19.875.023438 35.976562 16.125 36 36v13h-47zm375 49v-13c.023438-19.875 16.125-35.976562 36-36h8v49zm0 0"/><path d="m246 48.8125c-49.808594 0-90.1875 40.378906-90.1875 90.1875s40.378906 90.1875 90.1875 90.1875 90.1875-40.378906 90.1875-90.1875c-.058594-49.785156-40.402344-90.128906-90.1875-90.1875zm0 168.375c-43.179688 0-78.1875-35.007812-78.1875-78.1875s35.007812-78.1875 78.1875-78.1875 78.1875 35.007812 78.1875 78.1875c-.050781 43.160156-35.027344 78.136719-78.1875 78.1875zm0 0"/><path d="m274.925781 101c3.3125 0 6-2.6875 6-6s-2.6875-6-6-6h-57.851562c-3.3125 0-6 2.6875-6 6s2.6875 6 6 6h16.554687c7.871094-.144531 14.996094 4.652344 17.820313 12h-34.375c-3.3125 0-6 2.6875-6 6s2.6875 6 6 6h34.375c-2.367188 7.828125-9.640625 13.136719-17.820313 13h-16.554687c-2.476563.0625-4.671875 1.605469-5.574219 3.914062-.898438 2.308594-.328125 4.929688 1.453125 6.652344l41.375 39.132813c1.152344 1.101562 2.695313 1.695312 4.285156 1.65625 1.59375-.042969 3.101563-.714844 4.199219-1.871094 2.273438-2.457031 2.167969-6.285156-.242188-8.613281l-30.410156-28.871094h1.46875c14.851563.234375 27.671875-10.367188 30.230469-25h11.066406c3.3125 0 6-2.6875 6-6s-2.6875-6-6-6h-11.066406c-.945313-4-2.988281-9-5.847656-12zm0 0"/></svg>