<svg height="488pt" viewBox="0 -2 488.00205 488" width="488pt" xmlns="http://www.w3.org/2000/svg"><path d="m296.273438 95.945312 11.585937 1.125c1.347656 4.664063 3.226563 9.160157 5.601563 13.398438l-7.414063 8.925781c-1.976563 2.382813-1.816406 5.878907.371094 8.070313l15.089843 15.101562c2.1875 2.1875 5.683594 2.351563 8.066407.378906l8.957031-7.417968c4.230469 2.378906 8.710938 4.277344 13.367188 5.652344l1.121093 11.535156c.3125 3.046875 2.910157 5.34375 5.96875 5.285156h21.402344c3.0625.0625 5.660156-2.242188 5.96875-5.289062l1.125-11.601563c4.667969-1.351563 9.164063-3.230469 13.402344-5.601563l8.925781 7.410157c2.382812 1.976562 5.875 1.816406 8.066406-.371094l15.101563-15.089844c2.1875-2.1875 2.351562-5.683593.378906-8.066406l-7.417969-8.957031c2.378906-4.230469 4.277344-8.71875 5.65625-13.371094l11.234375-1.121094c3.023438-.324218 5.277344-2.929687 5.167969-5.96875v-21.398437c.113281-3.042969-2.152344-5.652344-5.179688-5.972657l-11.539062-1.125c-1.339844-4.664062-3.207031-9.160156-5.570312-13.402343l7.421874-8.925781c1.972657-2.367188 1.824219-5.84375-.335937-8.042969l-14.898437-15.097657c-2.183594-2.214843-5.699219-2.390624-8.09375-.40625l-8.953126 7.414063c-4.230468-2.378906-8.714843-4.273437-13.367187-5.652344l-1.125-11.804687c-.285156-3.101563-2.855469-5.4921878-5.96875-5.558594h-21.398437c-3.117188.0625-5.6875 2.460938-5.972657 5.5625l-1.125 11.738281c-4.667969 1.371094-9.164062 3.273438-13.402343 5.667969l-8.925782-7.375c-2.386718-1.972656-5.882812-1.804688-8.070312.386719l-15.097656 15.101562c-2.191407 2.1875-2.355469 5.6875-.378907 8.070313l7.417969 8.957031c-2.378906 4.230469-4.277344 8.714844-5.65625 13.371094l-11.507812 1.121093c-3.046876.308594-5.339844 2.910157-5.273438 5.96875v21.402344c-.070312 3.0625 2.226562 5.660156 5.273438 5.972656zm6.726562-21.925781 10.285156-1.003906c2.578125-.253906 4.691406-2.160156 5.210938-4.699219 1.375-6.230468 3.867187-12.160156 7.355468-17.5 1.414063-2.203125 1.238282-5.070312-.4375-7.082031l-6.652343-8.035156 7.363281-7.367188 8.019531 6.640625c2.042969 1.691406 4.949219 1.84375 7.15625.375 5.304688-3.511718 11.214844-6 17.429688-7.347656 2.566406-.613281 4.457031-2.796875 4.699219-5.425781l1-10.574219h10.5l1.007812 10.574219c.246094 2.613281 2.140625 4.773437 4.699219 5.355469 6.234375 1.402343 12.164062 3.921874 17.507812 7.429687 2.191407 1.425781 5.058594 1.261719 7.078125-.398437l7.992188-6.613282 7.230468 7.324219-6.644531 8.050781c-1.691406 2.042969-1.84375 4.953125-.371093 7.15625 3.507812 5.304688 6 11.214844 7.34375 17.429688.445312 2.519531 2.5 4.433594 5.042968 4.703125l10.183594 1.007812v10.511719l-10 1c-2.566406.257812-4.660156 2.167969-5.15625 4.699219-1.367188 6.230469-3.851562 12.160156-7.335938 17.503906-1.410156 2.207031-1.226562 5.070313.453126 7.082031l6.65625 8.023438-7.359376 7.367187-8.019531-6.640625c-2.042969-1.691406-4.949219-1.839844-7.152343-.371094-5.304688 3.507813-11.214844 6-17.429688 7.34375-2.535156.496094-4.441406 2.589844-4.703125 5.15625l-1.011719 10.304688h-10.5l-1-10.300781c-.253906-2.582031-2.164062-4.699219-4.707031-5.222657-6.226563-1.375-12.15625-3.871093-17.5-7.359374-2.203125-1.414063-5.066406-1.238282-7.078125.4375l-8.023438 6.652343-7.371093-7.367187 6.644531-8.019532c1.691406-2.042968 1.84375-4.949218.371094-7.15625-3.507813-5.300781-6-11.210937-7.34375-17.429687-.488282-2.527344-2.574219-4.4375-5.136719-4.699219l-10.296875-1.011718zm0 0"/><path d="m369.691406 116.199219c20.394532 0 36.925782-16.53125 36.925782-36.925781 0-20.394532-16.53125-36.925782-36.925782-36.925782-20.394531 0-36.929687 16.53125-36.929687 36.925782.023437 20.386718 16.542969 36.90625 36.929687 36.925781zm0-61.851563c13.765625 0 24.925782 11.160156 24.925782 24.925782 0 13.765624-11.160157 24.925781-24.925782 24.925781-13.769531 0-24.929687-11.160157-24.929687-24.925781.015625-13.761719 11.167969-24.914063 24.929687-24.929688zm0 0"/><path d="m47.03125 329.210938-17.597656 21.257812c-1.976563 2.382812-1.8125 5.878906.378906 8.066406l30.398438 30.402344c2.191406 2.1875 5.683593 2.351562 8.070312.378906l21.300781-17.636718c10.324219 6.257812 21.503907 10.980468 33.1875 14.015624l2.667969 27.773438c.289062 3.09375 2.855469 5.476562 5.960938 5.53125h43.09375c3.113281-.050781 5.6875-2.4375 5.976562-5.535156l2.664062-27.710938c11.707032-3 22.90625-7.722656 33.226563-14.015625l21.257813 17.585938c2.386718 1.976562 5.882812 1.808593 8.070312-.382813l30.398438-30.398437c2.191406-2.191407 2.355468-5.6875.378906-8.074219l-17.636719-21.300781c6.257813-10.324219 10.980469-21.507813 14.019531-33.191407l27.511719-2.664062c3.117187-.277344 5.539063-2.839844 5.640625-5.96875v-43.09375c-.101562-3.132812-2.53125-5.695312-5.652344-5.972656l-27.773437-2.664063c-3.007813-11.710937-7.742188-22.910156-14.046875-33.230469l17.578125-21.253906c1.960937-2.378906 1.804687-5.855468-.367188-8.042968l-30.019531-30.402344c-2.1875-2.214844-5.703125-2.390625-8.101562-.40625l-21.296876 17.636718c-10.324218-6.253906-21.503906-10.976562-33.1875-14.011718l-2.667968-27.570313c-.304688-3.058593-2.898438-5.375-5.972656-5.332031h-43.09375c-3.070313-.042969-5.664063 2.273438-5.96875 5.332031l-2.667969 27.613281c-11.707031 2.980469-22.90625 7.6875-33.226563 13.964844l-21.261718-17.617187c-2.382813-1.976563-5.875-1.8125-8.066407.375l-30.402343 30.390625c-2.1875 2.191406-2.351563 5.683594-.378907 8.070312l17.636719 21.300782c-6.253906 10.324218-10.976562 21.503906-14.015625 33.1875l-27.644531 2.664062c-3.070313.300781-5.4101565 2.882812-5.402344 5.96875v43.09375c-.0078125 3.085938 2.332031 5.675781 5.40625 5.972656l27.648438 2.664063c2.984374 11.710937 7.695312 22.90625 13.976562 33.230469zm-35.03125-79.511719 26.492188-2.554688c2.59375-.25 4.730468-2.148437 5.28125-4.699219 2.945312-13.269531 8.273437-25.890624 15.71875-37.261718 1.417968-2.199219 1.246093-5.066406-.425782-7.082032l-16.910156-20.421874 22.671875-22.671876 20.417969 16.910157c2.042968 1.691406 4.949218 1.839843 7.15625.371093 11.316406-7.488281 23.925781-12.804687 37.1875-15.675781 2.539062-.511719 4.445312-2.621093 4.703125-5.199219l2.554687-26.414062h32.195313l2.554687 26.417969c.253906 2.585937 2.15625 4.710937 4.699219 5.242187 13.265625 2.941406 25.890625 8.261719 37.261719 15.699219 2.203125 1.417969 5.066406 1.242187 7.082031-.429687l20.390625-16.894532 22.335938 22.621094-16.925782 20.445312c-1.691406 2.039063-1.84375 4.949219-.371094 7.152344 7.484376 11.316406 12.800782 23.925782 15.671876 37.1875.65625 2.578125 2.867187 4.464844 5.519531 4.699219l26.738281 2.558594v32.203125l-26.363281 2.546875c-2.621094.246093-4.796875 2.136719-5.398438 4.703125-2.972656 13.269531-8.316406 25.894531-15.78125 37.261718-1.425781 2.191407-1.269531 5.058594.394531 7.078126l16.898438 20.417968-22.679688 22.675782-20.421874-16.910157c-2.042969-1.691406-4.953126-1.839843-7.15625-.371093-11.316407 7.488281-23.929688 12.804687-37.191407 15.675781-2.566406.601562-4.460937 2.773437-4.707031 5.398437l-2.550781 26.621094h-32.195313l-2.554687-26.621094c-.246094-2.613281-2.144531-4.769531-4.703125-5.34375-13.269532-2.960937-25.894532-8.296875-37.265625-15.75-2.195313-1.425781-5.058594-1.261718-7.078125.40625l-20.417969 16.898438-22.671875-22.671875 16.910156-20.417969c1.691406-2.039062 1.839844-4.949219.371094-7.15625-7.488281-11.3125-12.804688-23.925781-15.675781-37.1875-.542969-2.546875-2.675781-4.445312-5.269531-4.699219l-26.492188-2.5625zm0 0"/><path d="m152.945312 347.074219c44.890626 0 81.277344-36.386719 81.277344-81.277344s-36.390625-81.277344-81.277344-81.277344c-44.890624 0-81.28125 36.390625-81.277343 81.28125.054687 44.867188 36.410156 81.222657 81.277343 81.273438zm0-150.554688c38.261719 0 69.277344 31.015625 69.277344 69.277344.003906 38.261719-31.011718 69.277344-69.273437 69.277344-38.261719.003906-69.28125-31.011719-69.28125-69.273438.042969-38.242187 31.03125-69.238281 69.277343-69.28125zm0 0"/><path d="m482.601562 370.230469-15.007812-1.449219c-1.714844-6.144531-4.195312-12.050781-7.386719-17.574219l9.535157-11.507812c1.964843-2.375 1.8125-5.851563-.351563-8.042969l-18.078125-18.3125c-2.1875-2.214844-5.707031-2.386719-8.101562-.402344l-11.542969 9.558594c-5.519531-3.183594-11.410157-5.675781-17.539063-7.414062l-1.449218-14.835938c-.3125-3.042969-2.914063-5.332031-5.972657-5.25h-25.960937c-3.054688-.082031-5.65625 2.203125-5.972656 5.242188l-1.445313 14.925781c-6.144531 1.699219-12.050781 4.167969-17.574219 7.347656l-11.511718-9.554687c-2.382813-1.976563-5.875-1.820313-8.070313.367187l-18.308594 18.304687c-2.1875 2.191407-2.351562 5.683594-.378906 8.066407l9.558594 11.539062c-3.1875 5.519531-5.675781 11.414063-7.414063 17.542969l-15.113281 1.449219c-3.09375.285156-5.472656 2.863281-5.515625 5.96875v25.960937c.042969 3.109375 2.421875 5.683594 5.515625 5.972656l15.0625 1.449219c1.722656 6.144531 4.214844 12.050781 7.414063 17.574219l-9.519532 11.507812c-1.972656 2.386719-1.804687 5.882813.382813 8.070313l18.316406 18.3125c2.1875 2.1875 5.683594 2.351563 8.070313.378906l11.542968-9.558593c5.519532 3.183593 11.410156 5.675781 17.542969 7.414062l1.445313 15.15625c.285156 3.105469 2.855468 5.5 5.972656 5.5625h25.960937c3.117188-.0625 5.6875-2.457031 5.972657-5.5625l1.449218-15.082031c6.144532-1.730469 12.050782-4.222657 17.570313-7.429688l11.511719 9.515625c2.386718 1.972656 5.882812 1.804688 8.066406-.386718l18.3125-18.316407c2.191406-2.1875 2.355468-5.6875.378906-8.070312l-9.558594-11.542969c3.1875-5.523438 5.679688-11.417969 7.417969-17.550781l14.773437-1.441407c3.070313-.300781 5.410157-2.886718 5.402344-5.972656v-25.960937c.007813-3.085938-2.332031-5.671875-5.402344-5.96875zm-6.601562 26.488281-13.570312 1.324219c-2.59375.253906-4.722657 2.152343-5.273438 4.699219-1.714844 7.710937-4.808594 15.050781-9.136719 21.660156-1.417969 2.199218-1.25 5.0625.421875 7.078125l8.800782 10.625-10.585938 10.59375-10.625-8.796875c-2.042969-1.691406-4.949219-1.84375-7.15625-.371094-6.566406 4.34375-13.886719 7.425781-21.582031 9.09375-2.566407.613281-4.457031 2.796875-4.699219 5.425781l-1.335938 13.949219h-15.058593l-1.332031-13.953125c-.242188-2.613281-2.140626-4.773437-4.699219-5.355469-7.714844-1.730468-15.058594-4.839844-21.667969-9.179687-2.195312-1.425781-5.058594-1.261719-7.078125.398437l-10.621094 8.796875-10.585937-10.589843 8.800781-10.628907c1.691406-2.042969 1.839844-4.953125.371094-7.15625-4.347657-6.570312-7.433594-13.886719-9.101563-21.585937-.59375-2.5625-2.761718-4.457032-5.378906-4.703125l-13.90625-1.332031v-15.0625l13.90625-1.328126c2.609375-.25 4.761719-2.144531 5.335938-4.703124 1.722656-7.710938 4.832031-15.046876 9.167968-21.65625 1.421875-2.195313 1.253906-5.0625-.410156-7.078126l-8.800781-10.628906 10.589843-10.585937 10.628907 8.800781c2.039062 1.691406 4.949219 1.839844 7.15625.371094 6.566406-4.34375 13.886719-7.429688 21.582031-9.097656 2.523438-.472657 4.4375-2.550782 4.699219-5.105469l1.34375-13.636719h15.0625l1.332031 13.632812c.253906 2.578126 2.160156 4.6875 4.699219 5.203126 7.710937 1.699218 15.046875 4.78125 21.65625 9.097656 2.203125 1.414062 5.070312 1.234375 7.082031-.445313l10.597656-8.789062 10.402344 10.535156-8.824219 10.648437c-1.691406 2.042969-1.839843 4.949219-.371093 7.152344 4.347656 6.570313 7.433593 13.886719 9.101562 21.582032.542969 2.546874 2.675781 4.449218 5.265625 4.699218l13.800781 1.332032zm0 0"/><path d="m393.726562 345.667969c-24.03125 0-43.515624 19.480469-43.515624 43.511719 0 24.035156 19.484374 43.515624 43.515624 43.515624s43.515626-19.480468 43.515626-43.515624c-.027344-24.019532-19.492188-43.488282-43.515626-43.511719zm0 75.027343c-17.40625 0-31.515624-14.109374-31.515624-31.515624 0-17.402344 14.109374-31.511719 31.515624-31.511719s31.515626 14.109375 31.515626 31.511719c-.015626 17.398437-14.117188 31.5-31.515626 31.519531zm0 0"/></svg>