<svg height="439pt" viewBox="-6 0 439 439.11492" width="439pt" xmlns="http://www.w3.org/2000/svg"><path d="m73.15625 292.601562c21.460938.003907 41.832031-9.445312 55.691406-25.824218l151.96875 92.167968c-.21875 2.289063-.339844 4.609376-.339844 6.953126-.03125 38.484374 29.757813 70.410156 68.152344 73.046874 38.394532 2.632813 72.261719-24.929687 77.488282-63.058593 5.222656-38.128907-19.984376-73.785157-57.671876-81.574219-37.6875-7.792969-74.964843 14.945312-85.289062 52.019531l-147.28125-89.328125c13.84375-23.085937 13.84375-51.921875 0-75.007812l147.28125-89.328125c10.316406 37.019531 47.542969 59.71875 85.175781 51.9375 37.632813-7.785157 62.800781-43.390625 57.585938-81.464844-5.21875-38.070313-39.035157-65.59375-77.375-62.96875-38.339844 2.625-68.089844 34.5-68.066407 72.929687 0 2.347657.121094 4.664063.339844 6.953126l-151.96875 92.167968c-21.886718-25.78125-58.601562-33.175781-88.765625-17.878906-30.160156 15.296875-45.886719 49.289062-38.019531 82.179688 7.867188 32.890624 37.277344 56.089843 71.09375 56.078124zm280.421875 12.203126c33.742187 0 61.097656 27.355468 61.097656 61.097656 0 33.746094-27.355469 61.101562-61.097656 61.101562-33.746094 0-61.101563-27.355468-61.101563-61.101562.039063-33.726563 27.371094-61.058594 61.101563-61.097656zm0-292.800782c33.742187 0 61.097656 27.355469 61.097656 61.097656 0 33.746094-27.355469 61.101563-61.097656 61.101563-33.746094 0-61.101563-27.355469-61.101563-61.101563.039063-33.726562 27.371094-61.058593 61.101563-61.097656zm-280.421875 146.398438c33.746094 0 61.101562 27.355468 61.101562 61.101562 0 33.742188-27.355468 61.097656-61.101562 61.097656-33.742188 0-61.097656-27.355468-61.097656-61.097656.039062-33.730468 27.371094-61.0625 61.097656-61.101562zm0 0"/></svg>