<svg height="495pt" viewBox="-48 0 495 495.2109" width="495pt" xmlns="http://www.w3.org/2000/svg"><path d="m68.382812 407.191406 127.4375 86.976563c.980469.679687 2.144532 1.042969 3.335938 1.042969 1.199219 0 2.371094-.363282 3.355469-1.042969l127.332031-86.976563c38.390625-26.175781 68.265625-83.050781 68.265625-129.488281v-176.730469c.074219-2.257812-1.160156-4.355468-3.167969-5.386718l-193.28125-94.972657c-1.648437-.816406-3.585937-.816406-5.234375 0l-193.164062 94.710938c-2.007813 1.03125-3.2382815 3.132812-3.152344 5.386719v177c0 46.429687 29.886719 103.304687 68.273437 129.480468zm-56.273437-302.738281 187-91.769531 187 92.027344v173c0 42.875-27.582031 95.398437-63.035156 119.566406l-124.058594 84.671875-123.917969-84.675781c-35.453125-24.167969-62.988281-76.691407-62.988281-119.570313zm0 0"/><path d="m83.082031 385.054688 112.542969 76.683593c1.015625.679688 2.210938 1.042969 3.433594 1.042969 1.214844 0 2.398437-.363281 3.40625-1.042969l112.65625-76.683593c30.769531-20.980469 56.988281-70.136719 56.988281-107.351563v-160.039063c-.085937-2.324218-1.460937-4.402343-3.5625-5.386718l-166.6875-81.820313c-1.683594-.820312-3.652344-.820312-5.335937 0l-166.8125 81.578125c-2.113282.980469-3.503907 3.058594-3.601563 5.386719v160.28125c0 37.214844 26.199219 86.371094 56.972656 107.351563zm225.292969-9.914063-104.265625 70.964844v-228.589844l156-89.3125v149.5c0 33.777344-23.804687 78.394531-51.734375 97.4375zm-109.265625-332.617187 153.976563 75.632812-153.976563 88.390625-154.1875-88.511719zm-161 85.679687 154 88.167969v228.371094l-102.269531-69.601563c-27.925782-19.042969-51.730469-63.660156-51.730469-97.4375zm0 0"/></svg>