<svg height="495pt" viewBox="-48 0 495 495.2109" width="495pt" xmlns="http://www.w3.org/2000/svg"><path d="m199.109375 370.078125c67.640625 0 122.472656-54.832031 122.472656-122.472656s-54.832031-122.472657-122.472656-122.472657-122.472656 54.832032-122.472656 122.472657c.078125 67.605469 54.863281 122.394531 122.472656 122.472656zm0-232.945313c61.011719 0 110.472656 49.460938 110.472656 110.472657s-49.460937 110.472656-110.472656 110.472656-110.472656-49.460937-110.472656-110.472656c.070312-60.984375 49.488281-110.402344 110.472656-110.472657zm0 0"/><path d="m177.878906 284.316406c2.242188 2.429688 6.027344 2.589844 8.464844.359375l71.277344-65.289062c2.445312-2.238281 2.613281-6.035157.371094-8.480469-2.238282-2.441406-6.03125-2.609375-8.476563-.371094l-66.867187 61.25-33.585938-36.421875c-2.25-2.433593-6.042969-2.589843-8.480469-.34375-2.4375 2.25-2.589843 6.042969-.34375 8.480469zm0 0"/><path d="m83.082031 385.054688 112.542969 76.683593c1.015625.679688 2.210938 1.042969 3.433594 1.042969 1.214844 0 2.398437-.363281 3.40625-1.042969l112.65625-76.683593c30.769531-20.980469 56.988281-70.136719 56.988281-107.351563v-160.039063c-.085937-2.324218-1.460937-4.402343-3.5625-5.386718l-166.6875-81.820313c-1.683594-.820312-3.652344-.820312-5.335937 0l-166.8125 81.578125c-2.113282.980469-3.503907 3.058594-3.601563 5.386719v160.28125c0 37.214844 26.199219 86.371094 56.972656 107.351563zm-44.972656-263.890626 161-78.640624 161 78.875v156.304687c0 33.773437-23.804687 78.390625-51.734375 97.433594l-109.160156 74.378906-109.320313-74.378906c-27.929687-19.039063-51.785156-63.65625-51.785156-97.433594zm0 0"/><path d="m68.382812 407.191406 127.4375 86.976563c.980469.679687 2.144532 1.042969 3.335938 1.042969 1.199219 0 2.371094-.363282 3.355469-1.042969l127.332031-86.976563c38.390625-26.175781 68.265625-83.050781 68.265625-129.488281v-176.730469c.074219-2.257812-1.160156-4.355468-3.167969-5.386718l-193.28125-94.972657c-1.648437-.816406-3.585937-.816406-5.234375 0l-193.164062 94.710938c-2.007813 1.03125-3.2382815 3.132812-3.152344 5.386719v177c0 46.429687 29.886719 103.304687 68.273437 129.480468zm-56.273437-302.738281 187-91.769531 187 92.027344v173c0 42.875-27.582031 95.398437-63.035156 119.566406l-124.058594 84.671875-123.917969-84.675781c-35.453125-24.167969-62.988281-76.691407-62.988281-119.570313zm0 0"/></svg>