<svg height="456pt" viewBox="-20 0 456 456.39719" width="456pt" xmlns="http://www.w3.org/2000/svg"><path d="m331.765625 14.496094c-9.296875 9.226562-14.515625 21.789062-14.496094 34.886718h-311.261719c-1.542968-.054687-3.039062.53125-4.136718 1.613282-1.101563 1.085937-1.703125 2.574218-1.671875 4.117187v395.769531c0 3.3125 2.5 5.5 5.808593 5.5h257.75c1.179688.085938 2.359376-.191406 3.378907-.792968.046875-.03125.089843.054687.136719.019531.113281-.078125.222656-.097656.328124-.1875.058594-.046875.113282-.070313.171876-.121094.089843-.082031.179687-.148437.261718-.234375.011719-.007812.023438-.011718.035156-.023437l96.789063-100.007813c.011719-.015625.023437-.03125.035156-.046875.246094-.257812.472657-.535156.667969-.835937.015625-.019532.027344-.042969.042969-.066406.195312-.304688.363281-.621094.5-.953126.007812-.019531.011719-.035156.015625-.050781.140625-.339843.242187-.695312.316406-1.054687 0-.011719-.171875-.027344-.167969-.039063.011719-.375-.011719-.75-.066406-1.125v-251.703125s.375.222656.386719.222656h.171875c22.488281.039063 42.203125-15.035156 48.0625-36.75 5.855469-21.714843-3.601563-44.65625-23.058594-55.933593-19.460937-11.277344-44.066406-8.078125-59.996094 7.796875zm-61.566406 421.554687v-79.667969h76.191406zm84-91.667969h-90.441407c-3.3125 0-5.558593 3.167969-5.558593 6.480469v93.519531h-246v-383h306.449219c1.808593 6.78125 4.910156 13.148438 9.140624 18.753907l-52.566406 52.5c-2.289062 2.347656-2.253906 6.101562.070313 8.410156 2.328125 2.3125 6.078125 2.316406 8.414062.015625l52.363281-52.542969c5.402344 4.171875 11.558594 7.269531 18.128907 9.117188zm39.226562-268.246093c-7.035156 7.15625-16.636719 11.203125-26.671875 11.246093h-.128906c-9.933594-.042968-19.429688-4.085937-26.34375-11.21875-.011719-.011718-.019531-.074218-.03125-.085937-14.667969-14.699219-14.640625-38.503906.058594-53.171875 14.695312-14.667969 38.503906-14.644531 53.171875.054688 14.667969 14.699218 14.644531 38.503906-.054688 53.175781zm0 0"/><path d="m62.199219 200.382812h111c3.3125 0 6-2.6875 6-6 0-3.316406-2.6875-6-6-6h-111c-3.3125 0-6 2.683594-6 6 0 3.3125 2.6875 6 6 6zm0 0"/><path d="m62.199219 240.382812h241c3.3125 0 6-2.6875 6-6 0-3.316406-2.6875-6-6-6h-241c-3.3125 0-6 2.683594-6 6 0 3.3125 2.6875 6 6 6zm0 0"/><path d="m303.199219 268.382812h-241c-3.3125 0-6 2.683594-6 6 0 3.3125 2.6875 6 6 6h241c3.3125 0 6-2.6875 6-6 0-3.316406-2.6875-6-6-6zm0 0"/><path d="m303.199219 308.382812h-241c-3.3125 0-6 2.683594-6 6 0 3.3125 2.6875 6 6 6h241c3.3125 0 6-2.6875 6-6 0-3.316406-2.6875-6-6-6zm0 0"/></svg>