<svg height="477pt" viewBox="0 -10 477.73468 477" width="477pt" xmlns="http://www.w3.org/2000/svg"><path d="m421.960938 25.714844c-14.777344-.066406-28.96875 5.78125-39.40625 16.238281-5.335938 5.203125-9.503907 11.480469-12.230469 18.414063h-3.324219v-53.941407c-.039062-3.34375-2.753906-6.039062-6.101562-6.058593h-354.535157c-3.394531 0-6.195312 2.664062-6.363281 6.058593v383.882813c.167969 3.394531 2.96875 6.058594 6.363281 6.058594h60.636719v53.941406c.167969 3.394531 2.96875 6.058594 6.363281 6.058594h267.75c1.632813-.011719 3.191407-.683594 4.320313-1.863282l86.835937-90.03125c1.09375-1.117187 1.710938-2.613281 1.730469-4.179687v-224.359375c10.375-2.378906 19.871094-7.625 27.414062-15.136719 15.945313-15.9375 20.707032-39.914063 12.066407-60.734375-8.636719-20.820312-28.976563-34.378906-51.519531-34.347656zm-354.960938 40.710937v317.941407h-55v-372h343v48h-281.636719c-3.394531 0-6.195312 2.664062-6.363281 6.058593zm280 369.015625v-69.074218h66.785156zm75-81.074218h-80.886719c-3.320312-.042969-6.054687 2.605468-6.113281 5.925781v84.074219h-256v-372h287.992188c-2.523438 15.617187 1.671874 31.570312 11.550781 43.925781l-60.480469 60.5c-2.347656 2.34375-2.351562 6.144531-.007812 8.492187s6.148437 2.351563 8.496093.007813l60.449219-60.40625c9.761719 8.054687 22.019531 12.464843 34.675781 12.480469h.324219zm30.882812-242c-8.1875 8.300781-19.355468 12.980468-31.015624 13h-.148438c-11.546875-.023438-22.597656-4.699219-30.652344-12.972657-.007812-.011719-.015625-.046875-.027344-.058593-17.066406-17.082032-17.054687-44.769532.03125-61.839844 17.082032-17.066406 44.769532-17.054688 61.839844.027344 17.066406 17.085937 17.054688 44.773437-.027344 61.84375zm0 0"/></svg>