<svg height="443pt" viewBox="0 -1 443.331 443" width="443pt" xmlns="http://www.w3.org/2000/svg"><path d="m183.644531 403.136719c0 21 17.023438 38.019531 38.019531 38.019531 21 0 38.019532-17.019531 38.019532-38.019531 0-20.996094-17.019532-38.019531-38.019532-38.019531-20.988281.023437-37.996093 17.03125-38.019531 38.019531zm64.039063 0c0 14.371093-11.648438 26.019531-26.019532 26.019531-14.367187 0-26.019531-11.648438-26.019531-26.019531 0-14.367188 11.652344-26.019531 26.019531-26.019531 14.363282.015624 26.003907 11.65625 26.019532 26.019531zm0 0"/><path d="m367.289062 403.136719c0 21 17.023438 38.019531 38.019532 38.023437 21 0 38.023437-17.023437 38.023437-38.019531 0-21-17.023437-38.023437-38.019531-38.023437-20.988281.023437-37.996094 17.03125-38.023438 38.019531zm64.039063 0c.003906 14.371093-11.648437 26.023437-26.019531 26.023437-14.367188 0-26.019532-11.652344-26.019532-26.023437 0-14.371094 11.652344-26.019531 26.023438-26.019531 14.363281.019531 26 11.65625 26.015625 26.019531zm0 0"/><path d="m0 403.136719c0 21 17.023438 38.023437 38.019531 38.023437 21 0 38.019531-17.023437 38.019531-38.023437 0-20.996094-17.023437-38.019531-38.019531-38.019531-20.988281.023437-37.9960935 17.03125-38.019531 38.019531zm38.019531-26.019531c14.371094 0 26.019531 11.652343 26.019531 26.019531 0 14.371093-11.648437 26.019531-26.019531 26.019531-14.371093 0-26.019531-11.648438-26.019531-26.019531.015625-14.363281 11.65625-26 26.019531-26.019531zm0 0"/><path d="m49.90625 278.609375c-1.898438.808594-3.253906 2.53125-3.585938 4.570313l-10.390624 65.21875c-.433594 2.15625.347656 4.378906 2.039062 5.789062 1.691406 1.40625 4.019531 1.777344 6.0625.964844s3.480469-2.683594 3.738281-4.867188l9.910157-61.949218 157.984374-67.699219v128.699219c0 3.3125 2.6875 6 6 6 3.316407 0 6-2.6875 6-6v-128.789063l157.882813 67.785156 9.828125 61.949219c.316406 2.132812 1.75 3.933594 3.761719 4.710938 2.011719.777343 4.285156.414062 5.953125-.949219 1.667968-1.363281 2.476562-3.519531 2.113281-5.644531l-10.378906-65.214844c-.300781-2.027344-1.628907-3.753906-3.507813-4.570313l-165.652344-71.125v-78.230469c34.410157-3.160156 60.261719-32.808593 58.703126-67.328124-1.558594-34.519532-29.976563-61.71875-64.53125-61.765626-34.554688-.042968-63.042969 27.078126-64.691407 61.59375-1.652343 34.515626 24.117188 64.234376 58.519531 67.484376v78.34375zm119.097656-213.734375c-.003906-29.066406 23.546875-52.640625 52.613282-52.664062 29.066406-.027344 52.660156 23.503906 52.710937 52.570312s-23.457031 52.679688-52.527344 52.753906c-.078125 0-.160156-.011718-.242187-.011718-.054688 0-.113282.007812-.167969.007812-28.960937-.179688-52.355469-23.691406-52.386719-52.65625zm0 0"/></svg>