<svg height="442pt" viewBox="0 0 442.58565 442" width="442pt" xmlns="http://www.w3.org/2000/svg"><path d="m381.871094 69.492188 25.300781-25.300782c2.289063-2.351562 2.261719-6.109375-.058594-8.429687-2.320312-2.320313-6.074219-2.34375-8.425781-.054688l-25.300781 25.300781c-85.238281-80.953124-218.949219-80.953124-304.1875 0l-25.300781-25.300781c-2.351563-2.289062-6.105469-2.265625-8.425782.054688-2.320312 2.320312-2.347656 6.078125-.058594 8.429687l25.300782 25.300782c-80.953125 85.238281-80.953125 218.949218 0 304.1875l-25.300782 25.300781c-1.550781 1.507812-2.167968 3.734375-1.617187 5.824219.550781 2.09375 2.183594 3.726562 4.277344 4.277343 2.089843.550781 4.316406-.070312 5.824219-1.621093l25.300781-25.296876c85.238281 80.949219 218.949219 80.949219 304.1875 0l25.300781 25.296876c2.351562 2.289062 6.105469 2.265624 8.425781-.054688 2.320313-2.320312 2.347657-6.074219.058594-8.425781l-25.300781-25.300781c80.953125-85.238282 80.953125-218.949219 0-304.1875zm-23.410156 280.777343c-2.351563-2.289062-6.105469-2.261719-8.425782.058594-2.320312 2.320313-2.347656 6.074219-.058594 8.425781l14.917969 14.917969c-80.546875 76.273437-206.664062 76.273437-287.210937 0l14.921875-14.917969c2.289062-2.351562 2.261719-6.105468-.058594-8.425781s-6.078125-2.347656-8.429687-.058594l-14.914063 14.914063c-76.269531-80.542969-76.269531-206.664063 0-287.207032l14.917969 14.917969c1.511718 1.550781 3.734375 2.167969 5.828125 1.617188s3.726562-2.183594 4.277343-4.273438c.550782-2.09375-.070312-4.320312-1.617187-5.828125l-14.917969-14.914062c80.546875-76.273438 206.664063-76.273438 287.210938 0l-14.925782 14.917968c-1.546874 1.507813-2.167968 3.734376-1.617187 5.828126.550781 2.089843 2.183594 3.722656 4.277344 4.273437 2.089843.550781 4.316406-.066406 5.824219-1.617187l14.921874-14.914063c76.269532 80.546875 76.269532 206.664063 0 287.207031zm0 0"/><path d="m221.292969 89.058594c-63.417969-.164063-118.109375 44.519531-130.601563 106.695312-12.488281 62.175782 20.703125 124.511719 79.265625 148.855469 58.558594 24.34375 126.160157 3.90625 161.425781-48.800781 35.269532-52.707032 28.367188-122.992188-16.476562-167.835938-24.753906-24.953125-58.464844-38.96875-93.613281-38.914062zm85.128906 217.65625c-40.589844 40.363281-104.035156 46.457031-151.566406 14.554687-47.53125-31.902343-65.925781-92.925781-43.945313-145.78125 21.980469-52.859375 78.21875-82.84375 134.359375-71.636719 56.136719 11.207032 96.550781 60.488282 96.550781 117.734376.042969 31.964843-12.703124 62.617187-35.398437 85.128906zm0 0"/><path d="m258.421875 184.453125c-20.5-20.484375-53.722656-20.472656-74.214844.023437-20.488281 20.496094-20.488281 53.71875 0 74.214844 20.492188 20.496094 53.714844 20.507813 74.214844.023438 20.476563-20.519532 20.476563-53.742188 0-74.261719zm-8.484375 65.777344c-15.816406 15.800781-41.445312 15.789062-57.25-.019531-15.808594-15.8125-15.808594-41.441407 0-57.253907 15.804688-15.808593 41.433594-15.820312 57.25-.019531 15.792969 15.832031 15.792969 41.460938 0 57.292969zm0 0"/></svg>