<svg height="442pt" viewBox="-56 0 442 442.00021" width="442pt" xmlns="http://www.w3.org/2000/svg"><path d="m6.03125 442h317.9375c3.316406.019531 6.015625-2.65625 6.03125-5.972656v-351.910156c-.007812-.371094-.046875-.746094-.125-1.113282 0-.015625-.011719-.03125-.011719-.042968-.074219-.355469-.179687-.707032-.3125-1.042969l-.023437-.058594c-.136719-.328125-.300782-.644531-.492188-.941406-.015625-.027344-.03125-.054688-.046875-.078125-.191406-.292969-.410156-.570313-.652343-.828125-.015626-.015625-.027344-.035157-.042969-.050781l-75.097657-78.148438-.042968-.039062c-.082032-.082032-.167969-.160157-.253906-.238282-.058594-.054687-.117188-.109375-.179688-.160156-.101562-.085938-.199219-.160156-.308594-.238281-.054687-.039063-.097656-.082031-.160156-.117188-.136719-.097656-.28125-.183593-.429688-.265625-.023437-.015625-.042968-.015625-.066406-.027344-.886718-.484374-1.878906-.7343745-2.890625-.726562h-242.832031c-3.3125-.0195312-6.015625 2.65625-6.03125 5.972656v430.054688c.015625 3.316406 2.71875 5.992187 6.03125 5.972656zm248.96875-421.125 54.878906 57.125h-54.878906zm-243-8.875h231v72.117188c-.027344 1.566406.582031 3.074218 1.6875 4.183593s2.613281 1.722657 4.175781 1.699219h69.136719v340h-306zm0 0"/><path d="m265.699219 360h-207.210938c-3.316406 0-6 2.6875-6 6s2.683594 6 6 6h207.210938c3.316406 0 6-2.6875 6-6s-2.683594-6-6-6zm0 0"/><path d="m58.488281 309c-3.316406 0-6 2.6875-6 6s2.683594 6 6 6h120.039063c3.316406 0 6-2.6875 6-6s-2.683594-6-6-6zm0 0"/><path d="m72.5 224h1.292969l13.1875 43.15625c3.519531 11.832031 15.902343 18.628906 27.773437 15.25 11.871094-3.375 18.816406-15.671875 15.585938-27.585938-2.566406-9.867187-4.027344-19.992187-4.351563-30.183593 31.027344 2.574219 60.171875 23.621093 67.871094 29.59375 1.761719 10.9375 11.644531 18.675781 22.6875 17.761719 11.039063-.914063 19.515625-10.171876 19.453125-21.25v-130.679688c.058594-11.050781-8.355469-20.300781-19.359375-21.289062-11.003906-.988282-20.933594 6.621093-22.839844 17.503906-8.574219 6.398437-42.199219 29.722656-73.9375 29.722656h-47.363281c-12.546875 0-22.5 10.640625-22.5 23.1875v32.429688c-.039062 5.96875 2.324219 11.699218 6.554688 15.910156 4.234374 4.207031 9.976562 6.542968 15.945312 6.472656zm41.5-12h-30v-54h30zm-1.957031 58.699219c-2.710938.960937-5.699219.765625-8.261719-.542969-2.585938-1.363281-4.507812-3.710938-5.335938-6.515625l-12.105468-39.640625h27.632812c.324219 11.410156 1.925782 22.75 4.78125 33.800781 1.429688 5.386719-1.476562 10.976563-6.710937 12.898438zm93.957031-150.636719c-.128906-3.300781 1.554688-6.40625 4.394531-8.097656 2.839844-1.6875 6.371094-1.6875 9.210938 0 2.839843 1.691406 4.523437 4.796875 4.394531 8.097656v130.679688c.128906 3.300781-1.554688 6.40625-4.394531 8.09375-2.839844 1.6875-6.371094 1.6875-9.210938 0-2.839843-1.6875-4.523437-4.792969-4.394531-8.09375zm-80 38.136719c27-2.054688 54-17.398438 68-26.761719v107.679688c-14-9.441407-40-24.574219-68-26.535157zm-64 10.984375c0-5.867188 4-10.640625 10-10.742188v53.917969c-6-.097656-10-4.878906-10-10.742187zm0 0"/></svg>