<svg height="474pt" viewBox="-143 0 474 474.02698" width="474pt" xmlns="http://www.w3.org/2000/svg"><path d="m22.363281 26.671875 26.167969 67.699219-48.4375 290.789062c-.328125 1.988282.359375 4.007813 1.832031 5.378906l88.050781 81.882813c2.304688 2.140625 5.871094 2.140625 8.171876 0l88.050781-81.882813c1.453125-1.351562 2.144531-3.335937 1.84375-5.300781l-44.480469-290.984375 22.3125-67.875c.871094-2.652344-.203125-5.558594-2.59375-7.003906-42.527344-25.832031-95.902344-25.832031-138.429688 0-2.488281 1.507812-3.539062 4.582031-2.488281 7.296875zm109.898438 73.375 12.839843 83.832031c-8.257812-18.863281-26.253906-31.625-46.785156-33.183594-20.53125-1.558593-40.246094 8.339844-51.257812 25.738282l12.738281-76.386719zm5.613281 106.222656c0 24.191407-19.613281 43.808594-43.808594 43.808594-24.195312 0-43.808594-19.613281-43.808594-43.808594-.003906-24.191406 19.609376-43.808593 43.804688-43.808593 24.183594.027343 43.78125 19.625 43.808594 43.808593zm-43.8125 253.5625-81.597656-75.886719 27.390625-164.453124c6.40625 26.277343 30.738281 44.171874 57.730469 42.464843 26.992187-1.707031 48.875-22.523437 51.921874-49.398437l26.195313 171.351562zm58.890625-432.421875-19.882813 60.636719h-74.242187l-23.425781-60.683594c36.574218-20.238281 80.992187-20.222656 117.550781.046875zm0 0"/><path d="m106.363281 192.046875-6.914062-14.015625c-1.011719-2.046875-3.097657-3.34375-5.382813-3.34375s-4.371094 1.296875-5.378906 3.34375l-6.925781 14.015625-15.460938 2.246094c-2.261719.328125-4.140625 1.910156-4.84375 4.082031-.707031 2.171875-.117187 4.558594 1.515625 6.152344l11.191406 10.90625-2.640624 15.398437c-.386719 2.25.539062 4.527344 2.386718 5.871094 1.847656 1.339844 4.296875 1.515625 6.316406.453125l13.835938-7.269531 13.832031 7.273437c2.019531 1.0625 4.46875.882813 6.320313-.457031 1.847656-1.34375 2.769531-3.617187 2.386718-5.871094l-2.640624-15.398437 11.1875-10.90625c1.636718-1.59375 2.222656-3.980469 1.519531-6.152344-.707031-2.171875-2.585938-3.753906-4.84375-4.082031zm-3.035156 17c-1.414063 1.378906-2.0625 3.363281-1.726563 5.308594l1.121094 6.527343-5.863281-3.082031c-1.75-.917969-3.835937-.917969-5.585937 0l-5.859376 3.082031 1.117188-6.527343c.335938-1.945313-.3125-3.933594-1.730469-5.308594l-4.738281-4.628906 6.554688-.953125c1.953124-.28125 3.644531-1.511719 4.519531-3.28125l2.925781-5.9375 2.929688 5.9375c.875 1.773437 2.566406 3 4.519531 3.28125l6.554687.953125zm0 0"/></svg>