<svg height="478pt" viewBox="-99 0 478 478" width="478pt" xmlns="http://www.w3.org/2000/svg"><path d="m5.867188 478h268.269531c3.324219-.101562 5.941406-2.867188 5.863281-6.191406v-60c.023438-1.558594-.585938-3.054688-1.695312-4.152344-1.105469-1.097656-2.609376-1.695312-4.167969-1.65625h-11.136719v-49.898438c.132812-53.285156-34.101562-100.578124-84.757812-117.101562 50.648437-16.535156 84.875-63.820312 84.757812-117.101562v-49.898438h11.136719c1.558593.039062 3.0625-.558594 4.167969-1.65625 1.109374-1.097656 1.71875-2.59375 1.695312-4.152344v-60c.078125-3.324218-2.539062-6.089844-5.863281-6.191406h-268.269531c-3.324219.101562-5.945313 2.867188-5.867188 6.191406v60c-.0195312 1.558594.589844 3.054688 1.699219 4.152344 1.105469 1.097656 2.609375 1.695312 4.167969 1.65625h11.132812v49.898438c-.128906 53.285156 34.105469 100.578124 84.761719 117.101562-50.648438 16.535156-84.875 63.820312-84.761719 117.101562v49.898438h-11.132812c-1.558594-.039062-3.0625.558594-4.167969 1.65625-1.109375 1.097656-1.7187502 2.59375-1.699219 4.152344v60c-.078125 3.324218 2.542969 6.089844 5.867188 6.191406zm6.132812-466h256v48h-256zm49.417969 188.535156c-20.875-20.832031-32.550781-49.144531-32.417969-78.636718v-49.898438h222v49.898438c.003906 44.917968-27.042969 85.417968-68.53125 102.625-41.492188 17.210937-89.261719 7.742187-121.050781-23.988282zm-.050781 76.929688c31.632812-31.699219 79.207031-41.304688 120.660156-24.363282 41.453125 16.941407 68.683594 57.117188 69.0625 101.898438h-222.175782c.171876-29.113281 11.835938-56.980469 32.453126-77.535156zm-32.367188 89.535156h222v39h-222zm-17 51h256v48h-256zm0 0"/></svg>