<svg height="484pt" viewBox="0 -101 484.00543 484" width="484pt" xmlns="http://www.w3.org/2000/svg"><path d="m0 49.683594v182.640625c-.0507812 13.171875 5.152344 25.820312 14.453125 35.144531s21.9375 14.554688 35.109375 14.535156h250.109375c27.511719 0 50.328125-22.171875 50.328125-49.679687v-48.582031l125.375 78.261718c.910156.589844 1.976562.90625 3.0625.90625.949219 0 1.882812-.261718 2.695312-.753906 1.851563-1.085938 2.957032-3.105469 2.867188-5.253906v-231.042969c.066406-2.054687-.957031-3.996094-2.691406-5.109375-1.664063-1.089844-3.789063-1.183594-5.546875-.246094l-125.761719 63.570313v-34.390625c0-27.511719-22.816406-49.67968775-50.328125-49.67968775h-250.109375c-13.171875-.01953125-25.808594 5.21093775-35.109375 14.53515575-9.300781 9.324219-14.5039062 21.972657-14.453125 35.144532zm472-14.082032v210.5l-122-76.5v-72.089843zm-134 196.5c.003906 20.929688-16.960938 37.902344-37.890625 37.902344h-250.21875c-20.925781 0-37.890625-16.964844-37.890625-37.890625v-182.21875c0-20.925781 16.964844-37.890625 37.890625-37.890625h250.21875c20.925781 0 37.890625 16.964844 37.890625 37.890625zm0 0"/><path d="m84.5 121.914062c21.214844 0 38.410156-17.199218 38.410156-38.410156 0-21.214844-17.195312-38.414062-38.410156-38.414062s-38.410156 17.199218-38.410156 38.414062c.023437 21.203125 17.207031 38.386719 38.410156 38.410156zm0-64.824218c14.585938 0 26.410156 11.828125 26.410156 26.414062 0 14.585938-11.824218 26.410156-26.410156 26.410156s-26.410156-11.824218-26.410156-26.410156c.015625-14.582031 11.832031-26.394531 26.410156-26.414062zm0 0"/></svg>