<svg height="460pt" viewBox="0 -56 460 460" width="460pt" xmlns="http://www.w3.org/2000/svg"><path d="m460 49.769531c0-27.488281-22.28125-49.769531-49.769531-49.769531h-360.460938c-27.488281 0-49.769531 22.28125-49.769531 49.769531v248.460938c0 27.488281 22.28125 49.769531 49.769531 49.769531h360.460938c27.488281 0 49.769531-22.28125 49.769531-49.769531zm-12 198.113281-95.734375-16.035156c-12.917969-2.144531-22.359375-13.363281-22.265625-26.457031v-62.78125c-.09375-13.09375 9.347656-24.3125 22.265625-26.457031l95.734375-16.035156zm0-159.933593-97.714844 16.367187c-18.710937 3.097656-32.394531 19.332032-32.285156 38.292969v62.78125c-.113281 18.964844 13.574219 35.199219 32.285156 38.296875l97.714844 16.363281v38.304688c-.125 20.863281-17.097656 37.695312-37.964844 37.644531h-360.203125c-20.835937.039062-37.769531-16.808594-37.832031-37.644531v-248.710938c.0625-20.835937 16.996094-37.683593 37.832031-37.644531h360.199219c20.867188-.050781 37.84375 16.78125 37.96875 37.644531zm0 0"/><path d="m389 204c3.3125 0 6-2.6875 6-6v-48c0-3.3125-2.6875-6-6-6s-6 2.6875-6 6v48c0 3.3125 2.6875 6 6 6zm0 0"/></svg>