<svg height="477pt" viewBox="0 -26 477 477" width="477pt" xmlns="http://www.w3.org/2000/svg"><path d="m477 37.328125c0-20.613281-16.714844-37.328125-37.328125-37.328125h-402.34375c-20.613281 0-37.328125 16.714844-37.328125 37.328125v349.34375c0 20.613281 16.714844 37.328125 37.328125 37.328125h402.34375c20.613281 0 37.328125-16.714844 37.328125-37.328125zm-440.15625-25.328125h402.3125c13.964844 0 24.84375 11.601562 24.84375 25.566406v66.433594h-452v-66.433594c0-13.964844 10.878906-25.566406 24.84375-25.566406zm412.796875 104-211.292969 140.554688-211.289062-140.554688zm-437.640625 4.3125 215.757812 143.6875-209.371093 139.359375c-4.160157-4.652344-6.433594-10.6875-6.386719-16.925781zm24.84375 291.6875c-2.683594-.039062-5.347656-.507812-7.886719-1.382812l209.390625-139.351563 209.152344 139.222656c-2.679688.972657-5.5 1.484375-8.347656 1.511719zm421.148438-8.933594-209.175782-139.066406 215.183594-143.222656v265.65625c.089844 6.089844-2.046875 12.003906-6.007812 16.632812zm0 0"/><path d="m117.199219 85.027344c13.929687 0 25.222656-11.292969 25.222656-25.222656 0-13.929688-11.292969-25.21875-25.222656-25.21875-13.929688 0-25.21875 11.289062-25.21875 25.21875.015625 13.921874 11.296875 25.207031 25.21875 25.222656zm0-38.441406c7.300781 0 13.222656 5.917968 13.222656 13.21875 0 7.300781-5.921875 13.222656-13.222656 13.222656s-13.21875-5.921875-13.21875-13.222656c.007812-7.296876 5.921875-13.210938 13.21875-13.21875zm0 0"/><path d="m179.699219 85.027344c13.929687 0 25.222656-11.292969 25.222656-25.222656-.003906-13.929688-11.292969-25.222657-25.222656-25.21875-13.929688 0-25.222657 11.289062-25.222657 25.21875.015626 13.921874 11.300782 25.207031 25.222657 25.222656zm0-38.441406c7.300781 0 13.222656 5.917968 13.222656 13.21875-.003906 7.300781-5.921875 13.222656-13.222656 13.222656s-13.222657-5.921875-13.222657-13.222656c.007813-7.296876 5.925782-13.214844 13.222657-13.21875zm0 0"/><path d="m52.601562 85.027344c13.925782 0 25.21875-11.292969 25.21875-25.222656 0-13.929688-11.292968-25.21875-25.21875-25.21875-13.929687 0-25.222656 11.289062-25.222656 25.21875.015625 13.921874 11.296875 25.207031 25.222656 25.222656zm0-38.441406c7.300782 0 13.21875 5.917968 13.21875 13.21875 0 7.300781-5.917968 13.222656-13.21875 13.222656-7.304687 0-13.222656-5.921875-13.222656-13.222656.007813-7.296876 5.921875-13.210938 13.222656-13.21875zm0 0"/></svg>